G04 #@! TF.FileFunction,Soldermask,Top*
%FSLAX46Y46*%
G04 Gerber Fmt 4.6, Leading zero omitted, Abs format (unit mm)*
G04 Created by KiCad (PCBNEW 4.0.2-stable) date 06/11/2017 10:09:17*
%MOMM*%
G01*
G04 APERTURE LIST*
%ADD10C,0.100000*%
%ADD11R,0.900000X1.700000*%
%ADD12R,2.400000X1.600000*%
%ADD13O,2.400000X1.600000*%
%ADD14R,1.660000X0.650000*%
%ADD15R,1.000000X1.600000*%
%ADD16R,0.900000X0.500000*%
%ADD17R,0.500000X0.900000*%
%ADD18R,0.800000X0.750000*%
%ADD19R,3.000000X1.600000*%
%ADD20R,1.600000X1.000000*%
%ADD21C,5.500000*%
%ADD22C,1.500000*%
%ADD23C,3.500000*%
%ADD24O,3.600000X2.500000*%
%ADD25R,3.600000X2.500000*%
%ADD26C,3.000000*%
%ADD27R,1.800000X1.800000*%
%ADD28O,1.800000X1.800000*%
%ADD29R,1.000000X3.200000*%
%ADD30C,8.000000*%
%ADD31R,2.100000X1.800000*%
%ADD32R,1.000000X1.400000*%
%ADD33R,3.800000X2.000000*%
%ADD34R,1.500000X2.000000*%
%ADD35C,5.000000*%
G04 APERTURE END LIST*
D10*
D11*
X192966000Y-186436000D03*
X190066000Y-186436000D03*
D12*
X207010000Y-165100000D03*
D13*
X199390000Y-172720000D03*
X207010000Y-167640000D03*
X199390000Y-170180000D03*
X207010000Y-170180000D03*
X199390000Y-167640000D03*
X207010000Y-172720000D03*
X199390000Y-165100000D03*
D14*
X194688000Y-183581000D03*
X194688000Y-184531000D03*
X194688000Y-185481000D03*
X197488000Y-185481000D03*
X197488000Y-183581000D03*
X197488000Y-184531000D03*
D15*
X185698000Y-186817000D03*
X188698000Y-186817000D03*
D16*
X176530000Y-180352000D03*
X176530000Y-181852000D03*
D14*
X195075000Y-191577000D03*
X195075000Y-190627000D03*
X195075000Y-189677000D03*
X192275000Y-189677000D03*
X192275000Y-191577000D03*
X192275000Y-190627000D03*
D16*
X209804000Y-159778000D03*
X209804000Y-161278000D03*
D17*
X191250000Y-193167000D03*
X189750000Y-193167000D03*
D18*
X204966000Y-176022000D03*
X203466000Y-176022000D03*
D19*
X206916000Y-179324000D03*
X201516000Y-179324000D03*
D18*
X203442000Y-167640000D03*
X201942000Y-167640000D03*
X203212000Y-171196000D03*
X204712000Y-171196000D03*
D15*
X188698000Y-175514000D03*
X185698000Y-175514000D03*
D18*
X203442000Y-166116000D03*
X201942000Y-166116000D03*
X203212000Y-172720000D03*
X204712000Y-172720000D03*
X196838000Y-176276000D03*
X195338000Y-176276000D03*
X195338000Y-181991000D03*
X196838000Y-181991000D03*
D20*
X173736000Y-159615000D03*
X173736000Y-156615000D03*
X173863000Y-200509000D03*
X173863000Y-197509000D03*
D21*
X212664000Y-180086000D03*
D22*
X212664000Y-182626000D03*
D23*
X217744000Y-185166000D03*
X217744000Y-175006000D03*
D24*
X218694000Y-168148000D03*
X218694000Y-163068000D03*
D25*
X218694000Y-157988000D03*
X213614000Y-157988000D03*
D24*
X213614000Y-163068000D03*
X213614000Y-168148000D03*
X151920000Y-155840000D03*
X152020000Y-160884000D03*
D25*
X151920000Y-166000000D03*
X157000000Y-166000000D03*
D24*
X157000000Y-160920000D03*
X157000000Y-155840000D03*
X151920000Y-194340000D03*
X151920000Y-199420000D03*
D25*
X151920000Y-204500000D03*
X157000000Y-204500000D03*
D24*
X157020000Y-199284000D03*
X157000000Y-194340000D03*
D21*
X154366000Y-180340000D03*
D22*
X154366000Y-177800000D03*
D26*
X149286000Y-175260000D03*
X149286000Y-185420000D03*
D27*
X171450000Y-174244000D03*
D28*
X173990000Y-174244000D03*
X176530000Y-174244000D03*
D27*
X171450000Y-186372500D03*
D28*
X173990000Y-186372500D03*
X176530000Y-186372500D03*
D27*
X176530000Y-178562000D03*
D28*
X173990000Y-178562000D03*
X171450000Y-178562000D03*
D27*
X176530000Y-183642000D03*
D28*
X173990000Y-183642000D03*
X171450000Y-183642000D03*
D16*
X210439000Y-182614000D03*
X210439000Y-181114000D03*
X209804000Y-169787000D03*
X209804000Y-168287000D03*
D29*
X165302000Y-155956000D03*
X171502000Y-155956000D03*
X171502000Y-204470000D03*
X165302000Y-204470000D03*
D16*
X201422000Y-175018000D03*
X201422000Y-176518000D03*
X209804000Y-166358000D03*
X209804000Y-164858000D03*
D11*
X190066000Y-176530000D03*
X192966000Y-176530000D03*
D17*
X188226000Y-172974000D03*
X189726000Y-172974000D03*
D29*
X162254000Y-170180000D03*
X168454000Y-170180000D03*
X168454000Y-190500000D03*
X162254000Y-190500000D03*
X162254000Y-166116000D03*
X168454000Y-166116000D03*
X168454000Y-194564000D03*
X162254000Y-194564000D03*
X187019000Y-156591000D03*
X193219000Y-156591000D03*
X187146000Y-203835000D03*
X193346000Y-203835000D03*
D30*
X215000000Y-194500000D03*
D23*
X200000000Y-156500000D03*
X180000000Y-156500000D03*
X200000000Y-204000000D03*
D16*
X174752000Y-180352000D03*
X174752000Y-181852000D03*
D23*
X180000000Y-204000000D03*
D20*
X162306000Y-158218000D03*
X162306000Y-155218000D03*
X162306000Y-201954000D03*
X162306000Y-204954000D03*
D31*
X163154000Y-174879000D03*
X167554000Y-174879000D03*
X166665000Y-198882000D03*
X162265000Y-198882000D03*
D32*
X166690000Y-180805000D03*
X168590000Y-180805000D03*
X167640000Y-178605000D03*
X166690000Y-186266000D03*
X168590000Y-186266000D03*
X167640000Y-184066000D03*
D33*
X182372000Y-166268000D03*
D34*
X182372000Y-172568000D03*
X184672000Y-172568000D03*
X180072000Y-172568000D03*
D33*
X182372000Y-195809000D03*
D34*
X182372000Y-189509000D03*
X180072000Y-189509000D03*
X184672000Y-189509000D03*
D17*
X204077000Y-169418000D03*
X202577000Y-169418000D03*
D11*
X181790000Y-181102000D03*
X178890000Y-181102000D03*
D16*
X178816000Y-184646000D03*
X178816000Y-183146000D03*
D14*
X194948000Y-173162000D03*
X194948000Y-172212000D03*
X194948000Y-171262000D03*
X192148000Y-171262000D03*
X192148000Y-173162000D03*
X192148000Y-172212000D03*
X194688000Y-177866000D03*
X194688000Y-178816000D03*
X194688000Y-179766000D03*
X197488000Y-179766000D03*
X197488000Y-177866000D03*
X197488000Y-178816000D03*
D27*
X176530000Y-188976000D03*
D28*
X173990000Y-188976000D03*
X171450000Y-188976000D03*
D27*
X171450000Y-191516000D03*
D28*
X173990000Y-191516000D03*
X176530000Y-191516000D03*
D16*
X180340000Y-183146000D03*
X180340000Y-184646000D03*
D17*
X174740000Y-176276000D03*
X173240000Y-176276000D03*
X174740000Y-194056000D03*
X173240000Y-194056000D03*
D35*
X161290000Y-180721000D03*
X186690000Y-180721000D03*
D11*
X187018000Y-170942000D03*
X189918000Y-170942000D03*
X190299000Y-191008000D03*
X187399000Y-191008000D03*
M02*
