G04 #@! TF.FileFunction,Legend,Bot*
%FSLAX46Y46*%
G04 Gerber Fmt 4.6, Leading zero omitted, Abs format (unit mm)*
G04 Created by KiCad (PCBNEW 4.0.2-stable) date 06/11/2017 10:09:17*
%MOMM*%
G01*
G04 APERTURE LIST*
%ADD10C,0.100000*%
%ADD11C,0.300000*%
%ADD12C,0.120000*%
%ADD13C,0.150000*%
G04 APERTURE END LIST*
D10*
D11*
X161353643Y-161659000D02*
X161210786Y-161730429D01*
X160996500Y-161730429D01*
X160782215Y-161659000D01*
X160639357Y-161516143D01*
X160567929Y-161373286D01*
X160496500Y-161087571D01*
X160496500Y-160873286D01*
X160567929Y-160587571D01*
X160639357Y-160444714D01*
X160782215Y-160301857D01*
X160996500Y-160230429D01*
X161139357Y-160230429D01*
X161353643Y-160301857D01*
X161425072Y-160373286D01*
X161425072Y-160873286D01*
X161139357Y-160873286D01*
X162067929Y-160230429D02*
X162067929Y-161730429D01*
X162925072Y-160230429D01*
X162925072Y-161730429D01*
X163639358Y-160230429D02*
X163639358Y-161730429D01*
X163996501Y-161730429D01*
X164210786Y-161659000D01*
X164353644Y-161516143D01*
X164425072Y-161373286D01*
X164496501Y-161087571D01*
X164496501Y-160873286D01*
X164425072Y-160587571D01*
X164353644Y-160444714D01*
X164210786Y-160301857D01*
X163996501Y-160230429D01*
X163639358Y-160230429D01*
X161417143Y-200013000D02*
X161274286Y-200084429D01*
X161060000Y-200084429D01*
X160845715Y-200013000D01*
X160702857Y-199870143D01*
X160631429Y-199727286D01*
X160560000Y-199441571D01*
X160560000Y-199227286D01*
X160631429Y-198941571D01*
X160702857Y-198798714D01*
X160845715Y-198655857D01*
X161060000Y-198584429D01*
X161202857Y-198584429D01*
X161417143Y-198655857D01*
X161488572Y-198727286D01*
X161488572Y-199227286D01*
X161202857Y-199227286D01*
X162131429Y-198584429D02*
X162131429Y-200084429D01*
X162988572Y-198584429D01*
X162988572Y-200084429D01*
X163702858Y-198584429D02*
X163702858Y-200084429D01*
X164060001Y-200084429D01*
X164274286Y-200013000D01*
X164417144Y-199870143D01*
X164488572Y-199727286D01*
X164560001Y-199441571D01*
X164560001Y-199227286D01*
X164488572Y-198941571D01*
X164417144Y-198798714D01*
X164274286Y-198655857D01*
X164060001Y-198584429D01*
X163702858Y-198584429D01*
X161036143Y-194651286D02*
X163321857Y-194651286D01*
X161099643Y-156170286D02*
X163385357Y-156170286D01*
X161099643Y-165695286D02*
X163385357Y-165695286D01*
X162242500Y-166838143D02*
X162242500Y-164552429D01*
X161099643Y-203350786D02*
X163385357Y-203350786D01*
X162242500Y-204493643D02*
X162242500Y-202207929D01*
X191864049Y-165153262D02*
X191864049Y-163153262D01*
X191864049Y-164105643D02*
X190721191Y-164105643D01*
X190721191Y-165153262D02*
X190721191Y-163153262D01*
X190054525Y-163153262D02*
X189387858Y-165153262D01*
X188721191Y-163153262D01*
X188149763Y-164581833D02*
X187197382Y-164581833D01*
X188340239Y-165153262D02*
X187673572Y-163153262D01*
X187006905Y-165153262D01*
X186340239Y-165153262D02*
X186340239Y-163153262D01*
X185673572Y-164581833D01*
X185006905Y-163153262D01*
X185006905Y-165153262D01*
X184054525Y-165153262D02*
X184054525Y-163153262D01*
X183292620Y-163153262D01*
X183102144Y-163248500D01*
X183006905Y-163343738D01*
X182911667Y-163534214D01*
X182911667Y-163819929D01*
X183006905Y-164010405D01*
X183102144Y-164105643D01*
X183292620Y-164200881D01*
X184054525Y-164200881D01*
X180530715Y-165153262D02*
X180530715Y-163819929D01*
X180530715Y-164200881D02*
X180435476Y-164010405D01*
X180340238Y-163915167D01*
X180149762Y-163819929D01*
X179959286Y-163819929D01*
X178530715Y-165058024D02*
X178721191Y-165153262D01*
X179102143Y-165153262D01*
X179292620Y-165058024D01*
X179387858Y-164867548D01*
X179387858Y-164105643D01*
X179292620Y-163915167D01*
X179102143Y-163819929D01*
X178721191Y-163819929D01*
X178530715Y-163915167D01*
X178435477Y-164105643D01*
X178435477Y-164296119D01*
X179387858Y-164486595D01*
X177768810Y-163819929D02*
X177292619Y-165153262D01*
X176816429Y-163819929D01*
X176054524Y-164962786D02*
X175959285Y-165058024D01*
X176054524Y-165153262D01*
X176149762Y-165058024D01*
X176054524Y-164962786D01*
X176054524Y-165153262D01*
X173673571Y-163343738D02*
X173578333Y-163248500D01*
X173387856Y-163153262D01*
X172911666Y-163153262D01*
X172721190Y-163248500D01*
X172625952Y-163343738D01*
X172530713Y-163534214D01*
X172530713Y-163724690D01*
X172625952Y-164010405D01*
X173768809Y-165153262D01*
X172530713Y-165153262D01*
X189673572Y-168253262D02*
X189673572Y-166919929D01*
X189673572Y-167110405D02*
X189578333Y-167015167D01*
X189387857Y-166919929D01*
X189102143Y-166919929D01*
X188911667Y-167015167D01*
X188816429Y-167205643D01*
X188816429Y-168253262D01*
X188816429Y-167205643D02*
X188721191Y-167015167D01*
X188530714Y-166919929D01*
X188245000Y-166919929D01*
X188054524Y-167015167D01*
X187959286Y-167205643D01*
X187959286Y-168253262D01*
X187006905Y-167491357D02*
X185483095Y-167491357D01*
X184245000Y-168253262D02*
X184435476Y-168158024D01*
X184530715Y-167967548D01*
X184530715Y-166253262D01*
X182625953Y-168253262D02*
X182625953Y-167205643D01*
X182721191Y-167015167D01*
X182911667Y-166919929D01*
X183292619Y-166919929D01*
X183483096Y-167015167D01*
X182625953Y-168158024D02*
X182816429Y-168253262D01*
X183292619Y-168253262D01*
X183483096Y-168158024D01*
X183578334Y-167967548D01*
X183578334Y-167777071D01*
X183483096Y-167586595D01*
X183292619Y-167491357D01*
X182816429Y-167491357D01*
X182625953Y-167396119D01*
X181673572Y-168253262D02*
X181673572Y-166253262D01*
X181673572Y-167015167D02*
X181483095Y-166919929D01*
X181102143Y-166919929D01*
X180911667Y-167015167D01*
X180816429Y-167110405D01*
X180721191Y-167300881D01*
X180721191Y-167872310D01*
X180816429Y-168062786D01*
X180911667Y-168158024D01*
X181102143Y-168253262D01*
X181483095Y-168253262D01*
X181673572Y-168158024D01*
X179959286Y-168158024D02*
X179768809Y-168253262D01*
X179387857Y-168253262D01*
X179197381Y-168158024D01*
X179102143Y-167967548D01*
X179102143Y-167872310D01*
X179197381Y-167681833D01*
X179387857Y-167586595D01*
X179673571Y-167586595D01*
X179864048Y-167491357D01*
X179959286Y-167300881D01*
X179959286Y-167205643D01*
X179864048Y-167015167D01*
X179673571Y-166919929D01*
X179387857Y-166919929D01*
X179197381Y-167015167D01*
X178245000Y-168062786D02*
X178149761Y-168158024D01*
X178245000Y-168253262D01*
X178340238Y-168158024D01*
X178245000Y-168062786D01*
X178245000Y-168253262D01*
X177292619Y-168253262D02*
X177292619Y-166253262D01*
X176435476Y-168253262D02*
X176435476Y-167205643D01*
X176530714Y-167015167D01*
X176721190Y-166919929D01*
X177006904Y-166919929D01*
X177197380Y-167015167D01*
X177292619Y-167110405D01*
X175483095Y-168253262D02*
X175483095Y-166253262D01*
X175292618Y-167491357D02*
X174721190Y-168253262D01*
X174721190Y-166919929D02*
X175483095Y-167681833D01*
X208863500Y-161798143D02*
X208792071Y-161655286D01*
X208792071Y-161441000D01*
X208863500Y-161226715D01*
X209006357Y-161083857D01*
X209149214Y-161012429D01*
X209434929Y-160941000D01*
X209649214Y-160941000D01*
X209934929Y-161012429D01*
X210077786Y-161083857D01*
X210220643Y-161226715D01*
X210292071Y-161441000D01*
X210292071Y-161583857D01*
X210220643Y-161798143D01*
X210149214Y-161869572D01*
X209649214Y-161869572D01*
X209649214Y-161583857D01*
X210292071Y-162512429D02*
X208792071Y-162512429D01*
X210292071Y-163369572D01*
X208792071Y-163369572D01*
X210292071Y-164083858D02*
X208792071Y-164083858D01*
X208792071Y-164441001D01*
X208863500Y-164655286D01*
X209006357Y-164798144D01*
X209149214Y-164869572D01*
X209434929Y-164941001D01*
X209649214Y-164941001D01*
X209934929Y-164869572D01*
X210077786Y-164798144D01*
X210220643Y-164655286D01*
X210292071Y-164441001D01*
X210292071Y-164083858D01*
X209720643Y-166219429D02*
X209720643Y-167362286D01*
X208792071Y-168790858D02*
X208792071Y-168076572D01*
X209506357Y-168005143D01*
X209434929Y-168076572D01*
X209363500Y-168219429D01*
X209363500Y-168576572D01*
X209434929Y-168719429D01*
X209506357Y-168790858D01*
X209649214Y-168862286D01*
X210006357Y-168862286D01*
X210149214Y-168790858D01*
X210220643Y-168719429D01*
X210292071Y-168576572D01*
X210292071Y-168219429D01*
X210220643Y-168076572D01*
X210149214Y-168005143D01*
X208792071Y-169290857D02*
X210292071Y-169790857D01*
X208792071Y-170290857D01*
X209720643Y-155868929D02*
X209720643Y-157011786D01*
X210292071Y-156440357D02*
X209149214Y-156440357D01*
X208792071Y-158440358D02*
X208792071Y-157726072D01*
X209506357Y-157654643D01*
X209434929Y-157726072D01*
X209363500Y-157868929D01*
X209363500Y-158226072D01*
X209434929Y-158368929D01*
X209506357Y-158440358D01*
X209649214Y-158511786D01*
X210006357Y-158511786D01*
X210149214Y-158440358D01*
X210220643Y-158368929D01*
X210292071Y-158226072D01*
X210292071Y-157868929D01*
X210220643Y-157726072D01*
X210149214Y-157654643D01*
X208792071Y-158940357D02*
X210292071Y-159440357D01*
X208792071Y-159940357D01*
X208811714Y-180891571D02*
X208811714Y-179391571D01*
X208097428Y-180891571D02*
X208097428Y-179391571D01*
X207240285Y-180891571D01*
X207240285Y-179391571D01*
X155868500Y-170819071D02*
X155582786Y-170819071D01*
X155439928Y-170890500D01*
X155297071Y-171033357D01*
X155225643Y-171319071D01*
X155225643Y-171819071D01*
X155297071Y-172104786D01*
X155439928Y-172247643D01*
X155582786Y-172319071D01*
X155868500Y-172319071D01*
X156011357Y-172247643D01*
X156154214Y-172104786D01*
X156225643Y-171819071D01*
X156225643Y-171319071D01*
X156154214Y-171033357D01*
X156011357Y-170890500D01*
X155868500Y-170819071D01*
X154582785Y-170819071D02*
X154582785Y-172033357D01*
X154511357Y-172176214D01*
X154439928Y-172247643D01*
X154297071Y-172319071D01*
X154011357Y-172319071D01*
X153868499Y-172247643D01*
X153797071Y-172176214D01*
X153725642Y-172033357D01*
X153725642Y-170819071D01*
X153225642Y-170819071D02*
X152368499Y-170819071D01*
X152797070Y-172319071D02*
X152797070Y-170819071D01*
D12*
X202200000Y-163770000D02*
G75*
G03X204200000Y-163770000I1000000J0D01*
G01*
X204200000Y-163770000D02*
X205450000Y-163770000D01*
X205450000Y-163770000D02*
X205450000Y-174050000D01*
X205450000Y-174050000D02*
X200950000Y-174050000D01*
X200950000Y-174050000D02*
X200950000Y-163770000D01*
X200950000Y-163770000D02*
X202200000Y-163770000D01*
X208450000Y-163710000D02*
X208450000Y-174110000D01*
X208450000Y-174110000D02*
X197950000Y-174110000D01*
X197950000Y-174110000D02*
X197950000Y-163710000D01*
X197950000Y-163710000D02*
X208450000Y-163710000D01*
D11*
X226244000Y-173686000D02*
X225544000Y-186486000D01*
X230244000Y-173686000D02*
X229544000Y-186486000D01*
X229244000Y-173686000D02*
X228544000Y-186486000D01*
X227244000Y-173686000D02*
X226544000Y-186486000D01*
X228244000Y-173686000D02*
X227544000Y-186486000D01*
X232244000Y-173686000D02*
X231544000Y-186486000D01*
X231244000Y-173686000D02*
X230544000Y-186486000D01*
X233244000Y-173686000D02*
X232544000Y-186486000D01*
X234244000Y-173686000D02*
X233544000Y-186486000D01*
X234244000Y-186486000D02*
X225044000Y-186486000D01*
X234244000Y-173686000D02*
X225044000Y-173686000D01*
X246244000Y-184886000D02*
X234244000Y-184886000D01*
X246244000Y-175286000D02*
X234244000Y-175286000D01*
X246244000Y-175286000D02*
X246244000Y-184886000D01*
X234244000Y-173686000D02*
X234244000Y-186486000D01*
X225044000Y-187486000D02*
X211344000Y-187486000D01*
X211344000Y-172686000D02*
X225044000Y-172686000D01*
X225044000Y-172686000D02*
X225044000Y-187486000D01*
D13*
X210614000Y-155368000D02*
X229614000Y-155368000D01*
X229614000Y-155368000D02*
X229614000Y-170768000D01*
X229614000Y-170768000D02*
X210614000Y-170768000D01*
X210614000Y-155368000D02*
X210614000Y-170768000D01*
X221614000Y-155368000D02*
X221614000Y-170768000D01*
X211314000Y-157988000D02*
X210714000Y-158288000D01*
X210714000Y-158288000D02*
X210714000Y-157688000D01*
X210714000Y-157688000D02*
X211314000Y-157988000D01*
X160000000Y-168620000D02*
X141000000Y-168620000D01*
X141000000Y-168620000D02*
X141000000Y-153220000D01*
X141000000Y-153220000D02*
X160000000Y-153220000D01*
X160000000Y-168620000D02*
X160000000Y-153220000D01*
X149000000Y-168620000D02*
X149000000Y-153220000D01*
X159300000Y-166000000D02*
X159900000Y-165700000D01*
X159900000Y-165700000D02*
X159900000Y-166300000D01*
X159900000Y-166300000D02*
X159300000Y-166000000D01*
X160000000Y-207120000D02*
X141000000Y-207120000D01*
X141000000Y-207120000D02*
X141000000Y-191720000D01*
X141000000Y-191720000D02*
X160000000Y-191720000D01*
X160000000Y-207120000D02*
X160000000Y-191720000D01*
X149000000Y-207120000D02*
X149000000Y-191720000D01*
X159300000Y-204500000D02*
X159900000Y-204200000D01*
X159900000Y-204200000D02*
X159900000Y-204800000D01*
X159900000Y-204800000D02*
X159300000Y-204500000D01*
D11*
X140786000Y-186740000D02*
X141486000Y-173940000D01*
X136786000Y-186740000D02*
X137486000Y-173940000D01*
X137786000Y-186740000D02*
X138486000Y-173940000D01*
X139786000Y-186740000D02*
X140486000Y-173940000D01*
X138786000Y-186740000D02*
X139486000Y-173940000D01*
X134786000Y-186740000D02*
X135486000Y-173940000D01*
X135786000Y-186740000D02*
X136486000Y-173940000D01*
X133786000Y-186740000D02*
X134486000Y-173940000D01*
X132786000Y-186740000D02*
X133486000Y-173940000D01*
X132786000Y-173940000D02*
X141986000Y-173940000D01*
X132786000Y-186740000D02*
X141986000Y-186740000D01*
X120786000Y-175540000D02*
X132786000Y-175540000D01*
X120786000Y-185140000D02*
X132786000Y-185140000D01*
X120786000Y-185140000D02*
X120786000Y-175540000D01*
X132786000Y-186740000D02*
X132786000Y-173940000D01*
X141986000Y-172940000D02*
X155686000Y-172940000D01*
X155686000Y-187740000D02*
X141986000Y-187740000D01*
X141986000Y-187740000D02*
X141986000Y-172940000D01*
D12*
X169870000Y-176364000D02*
X178110000Y-176364000D01*
X169870000Y-172874000D02*
X178110000Y-172874000D01*
X169870000Y-176364000D02*
X169870000Y-172874000D01*
X178110000Y-176364000D02*
X178110000Y-172874000D01*
X172390000Y-176364000D02*
X172390000Y-175294000D01*
X172390000Y-173194000D02*
X172390000Y-172874000D01*
X175591000Y-176364000D02*
X175591000Y-174784000D01*
X175591000Y-173704000D02*
X175591000Y-172874000D01*
X169870000Y-188492500D02*
X178110000Y-188492500D01*
X169870000Y-185002500D02*
X178110000Y-185002500D01*
X169870000Y-188492500D02*
X169870000Y-185002500D01*
X178110000Y-188492500D02*
X178110000Y-185002500D01*
X172390000Y-188492500D02*
X172390000Y-187422500D01*
X172390000Y-185322500D02*
X172390000Y-185002500D01*
X175591000Y-188492500D02*
X175591000Y-186912500D01*
X175591000Y-185832500D02*
X175591000Y-185002500D01*
X178110000Y-176442000D02*
X169870000Y-176442000D01*
X178110000Y-179932000D02*
X169870000Y-179932000D01*
X178110000Y-176442000D02*
X178110000Y-179932000D01*
X169870000Y-176442000D02*
X169870000Y-179932000D01*
X175590000Y-176442000D02*
X175590000Y-177512000D01*
X175590000Y-179612000D02*
X175590000Y-179932000D01*
X172389000Y-176442000D02*
X172389000Y-178022000D01*
X172389000Y-179102000D02*
X172389000Y-179932000D01*
X178110000Y-181522000D02*
X169870000Y-181522000D01*
X178110000Y-185012000D02*
X169870000Y-185012000D01*
X178110000Y-181522000D02*
X178110000Y-185012000D01*
X169870000Y-181522000D02*
X169870000Y-185012000D01*
X175590000Y-181522000D02*
X175590000Y-182592000D01*
X175590000Y-184692000D02*
X175590000Y-185012000D01*
X172389000Y-181522000D02*
X172389000Y-183102000D01*
X172389000Y-184182000D02*
X172389000Y-185012000D01*
X178110000Y-186856000D02*
X169870000Y-186856000D01*
X178110000Y-190346000D02*
X169870000Y-190346000D01*
X178110000Y-186856000D02*
X178110000Y-190346000D01*
X169870000Y-186856000D02*
X169870000Y-190346000D01*
X175590000Y-186856000D02*
X175590000Y-187926000D01*
X175590000Y-190026000D02*
X175590000Y-190346000D01*
X172389000Y-186856000D02*
X172389000Y-188436000D01*
X172389000Y-189516000D02*
X172389000Y-190346000D01*
X169870000Y-193636000D02*
X178110000Y-193636000D01*
X169870000Y-190146000D02*
X178110000Y-190146000D01*
X169870000Y-193636000D02*
X169870000Y-190146000D01*
X178110000Y-193636000D02*
X178110000Y-190146000D01*
X172390000Y-193636000D02*
X172390000Y-192566000D01*
X172390000Y-190466000D02*
X172390000Y-190146000D01*
X175591000Y-193636000D02*
X175591000Y-192056000D01*
X175591000Y-190976000D02*
X175591000Y-190146000D01*
D13*
X155990000Y-173721000D02*
X191990000Y-173721000D01*
X155990000Y-187721000D02*
X191990000Y-187721000D01*
X191990000Y-187721000D02*
X191990000Y-173721000D01*
X155990000Y-187721000D02*
X155990000Y-173721000D01*
X165990000Y-181521000D02*
X181990000Y-181521000D01*
X165990000Y-179921000D02*
X181990000Y-179921000D01*
X203961905Y-174966381D02*
X203961905Y-175775905D01*
X203914286Y-175871143D01*
X203866667Y-175918762D01*
X203771429Y-175966381D01*
X203580952Y-175966381D01*
X203485714Y-175918762D01*
X203438095Y-175871143D01*
X203390476Y-175775905D01*
X203390476Y-174966381D01*
X202390476Y-175966381D02*
X202961905Y-175966381D01*
X202676191Y-175966381D02*
X202676191Y-174966381D01*
X202771429Y-175109238D01*
X202866667Y-175204476D01*
X202961905Y-175252095D01*
D11*
X210264191Y-190134762D02*
X210264191Y-188134762D01*
X209502286Y-188134762D01*
X209311810Y-188230000D01*
X209216571Y-188325238D01*
X209121333Y-188515714D01*
X209121333Y-188801429D01*
X209216571Y-188991905D01*
X209311810Y-189087143D01*
X209502286Y-189182381D01*
X210264191Y-189182381D01*
X207216571Y-190134762D02*
X208359429Y-190134762D01*
X207788000Y-190134762D02*
X207788000Y-188134762D01*
X207978476Y-188420476D01*
X208168952Y-188610952D01*
X208359429Y-188706190D01*
X207676381Y-162718524D02*
X207676381Y-158718524D01*
X206152572Y-158718524D01*
X205771619Y-158909000D01*
X205581143Y-159099476D01*
X205390667Y-159480429D01*
X205390667Y-160051857D01*
X205581143Y-160432810D01*
X205771619Y-160623286D01*
X206152572Y-160813762D01*
X207676381Y-160813762D01*
X203866857Y-159099476D02*
X203676381Y-158909000D01*
X203295429Y-158718524D01*
X202343048Y-158718524D01*
X201962095Y-158909000D01*
X201771619Y-159099476D01*
X201581143Y-159480429D01*
X201581143Y-159861381D01*
X201771619Y-160432810D01*
X204057333Y-162718524D01*
X201581143Y-162718524D01*
X162385191Y-171592762D02*
X162385191Y-169592762D01*
X161623286Y-169592762D01*
X161432810Y-169688000D01*
X161337571Y-169783238D01*
X161242333Y-169973714D01*
X161242333Y-170259429D01*
X161337571Y-170449905D01*
X161432810Y-170545143D01*
X161623286Y-170640381D01*
X162385191Y-170640381D01*
X160575667Y-169592762D02*
X159337571Y-169592762D01*
X160004238Y-170354667D01*
X159718524Y-170354667D01*
X159528048Y-170449905D01*
X159432810Y-170545143D01*
X159337571Y-170735619D01*
X159337571Y-171211810D01*
X159432810Y-171402286D01*
X159528048Y-171497524D01*
X159718524Y-171592762D01*
X160289952Y-171592762D01*
X160480429Y-171497524D01*
X160575667Y-171402286D01*
X166195191Y-207152762D02*
X166195191Y-205152762D01*
X165433286Y-205152762D01*
X165242810Y-205248000D01*
X165147571Y-205343238D01*
X165052333Y-205533714D01*
X165052333Y-205819429D01*
X165147571Y-206009905D01*
X165242810Y-206105143D01*
X165433286Y-206200381D01*
X166195191Y-206200381D01*
X163338048Y-205819429D02*
X163338048Y-207152762D01*
X163814238Y-205057524D02*
X164290429Y-206486095D01*
X163052333Y-206486095D01*
X150891691Y-190769762D02*
X150891691Y-188769762D01*
X150129786Y-188769762D01*
X149939310Y-188865000D01*
X149844071Y-188960238D01*
X149748833Y-189150714D01*
X149748833Y-189436429D01*
X149844071Y-189626905D01*
X149939310Y-189722143D01*
X150129786Y-189817381D01*
X150891691Y-189817381D01*
X147939310Y-188769762D02*
X148891691Y-188769762D01*
X148986929Y-189722143D01*
X148891691Y-189626905D01*
X148701214Y-189531667D01*
X148225024Y-189531667D01*
X148034548Y-189626905D01*
X147939310Y-189722143D01*
X147844071Y-189912619D01*
X147844071Y-190388810D01*
X147939310Y-190579286D01*
X148034548Y-190674524D01*
X148225024Y-190769762D01*
X148701214Y-190769762D01*
X148891691Y-190674524D01*
X148986929Y-190579286D01*
D13*
X179419238Y-175109119D02*
X179514476Y-175061500D01*
X179609714Y-174966262D01*
X179752571Y-174823405D01*
X179847810Y-174775786D01*
X179943048Y-174775786D01*
X179895429Y-175013881D02*
X179990667Y-174966262D01*
X180085905Y-174871024D01*
X180133524Y-174680548D01*
X180133524Y-174347214D01*
X180085905Y-174156738D01*
X179990667Y-174061500D01*
X179895429Y-174013881D01*
X179704952Y-174013881D01*
X179609714Y-174061500D01*
X179514476Y-174156738D01*
X179466857Y-174347214D01*
X179466857Y-174680548D01*
X179514476Y-174871024D01*
X179609714Y-174966262D01*
X179704952Y-175013881D01*
X179895429Y-175013881D01*
X178562095Y-174013881D02*
X179038286Y-174013881D01*
X179085905Y-174490071D01*
X179038286Y-174442452D01*
X178943048Y-174394833D01*
X178704952Y-174394833D01*
X178609714Y-174442452D01*
X178562095Y-174490071D01*
X178514476Y-174585310D01*
X178514476Y-174823405D01*
X178562095Y-174918643D01*
X178609714Y-174966262D01*
X178704952Y-175013881D01*
X178943048Y-175013881D01*
X179038286Y-174966262D01*
X179085905Y-174918643D01*
X179800238Y-186983619D02*
X179895476Y-186936000D01*
X179990714Y-186840762D01*
X180133571Y-186697905D01*
X180228810Y-186650286D01*
X180324048Y-186650286D01*
X180276429Y-186888381D02*
X180371667Y-186840762D01*
X180466905Y-186745524D01*
X180514524Y-186555048D01*
X180514524Y-186221714D01*
X180466905Y-186031238D01*
X180371667Y-185936000D01*
X180276429Y-185888381D01*
X180085952Y-185888381D01*
X179990714Y-185936000D01*
X179895476Y-186031238D01*
X179847857Y-186221714D01*
X179847857Y-186555048D01*
X179895476Y-186745524D01*
X179990714Y-186840762D01*
X180085952Y-186888381D01*
X180276429Y-186888381D01*
X178990714Y-185888381D02*
X179181191Y-185888381D01*
X179276429Y-185936000D01*
X179324048Y-185983619D01*
X179419286Y-186126476D01*
X179466905Y-186316952D01*
X179466905Y-186697905D01*
X179419286Y-186793143D01*
X179371667Y-186840762D01*
X179276429Y-186888381D01*
X179085952Y-186888381D01*
X178990714Y-186840762D01*
X178943095Y-186793143D01*
X178895476Y-186697905D01*
X178895476Y-186459810D01*
X178943095Y-186364571D01*
X178990714Y-186316952D01*
X179085952Y-186269333D01*
X179276429Y-186269333D01*
X179371667Y-186316952D01*
X179419286Y-186364571D01*
X179466905Y-186459810D01*
X179355738Y-179046119D02*
X179450976Y-178998500D01*
X179546214Y-178903262D01*
X179689071Y-178760405D01*
X179784310Y-178712786D01*
X179879548Y-178712786D01*
X179831929Y-178950881D02*
X179927167Y-178903262D01*
X180022405Y-178808024D01*
X180070024Y-178617548D01*
X180070024Y-178284214D01*
X180022405Y-178093738D01*
X179927167Y-177998500D01*
X179831929Y-177950881D01*
X179641452Y-177950881D01*
X179546214Y-177998500D01*
X179450976Y-178093738D01*
X179403357Y-178284214D01*
X179403357Y-178617548D01*
X179450976Y-178808024D01*
X179546214Y-178903262D01*
X179641452Y-178950881D01*
X179831929Y-178950881D01*
X179070024Y-177950881D02*
X178403357Y-177950881D01*
X178831929Y-178950881D01*
X179419238Y-184126119D02*
X179514476Y-184078500D01*
X179609714Y-183983262D01*
X179752571Y-183840405D01*
X179847810Y-183792786D01*
X179943048Y-183792786D01*
X179895429Y-184030881D02*
X179990667Y-183983262D01*
X180085905Y-183888024D01*
X180133524Y-183697548D01*
X180133524Y-183364214D01*
X180085905Y-183173738D01*
X179990667Y-183078500D01*
X179895429Y-183030881D01*
X179704952Y-183030881D01*
X179609714Y-183078500D01*
X179514476Y-183173738D01*
X179466857Y-183364214D01*
X179466857Y-183697548D01*
X179514476Y-183888024D01*
X179609714Y-183983262D01*
X179704952Y-184030881D01*
X179895429Y-184030881D01*
X178895429Y-183459452D02*
X178990667Y-183411833D01*
X179038286Y-183364214D01*
X179085905Y-183268976D01*
X179085905Y-183221357D01*
X179038286Y-183126119D01*
X178990667Y-183078500D01*
X178895429Y-183030881D01*
X178704952Y-183030881D01*
X178609714Y-183078500D01*
X178562095Y-183126119D01*
X178514476Y-183221357D01*
X178514476Y-183268976D01*
X178562095Y-183364214D01*
X178609714Y-183411833D01*
X178704952Y-183459452D01*
X178895429Y-183459452D01*
X178990667Y-183507071D01*
X179038286Y-183554690D01*
X179085905Y-183649929D01*
X179085905Y-183840405D01*
X179038286Y-183935643D01*
X178990667Y-183983262D01*
X178895429Y-184030881D01*
X178704952Y-184030881D01*
X178609714Y-183983262D01*
X178562095Y-183935643D01*
X178514476Y-183840405D01*
X178514476Y-183649929D01*
X178562095Y-183554690D01*
X178609714Y-183507071D01*
X178704952Y-183459452D01*
X180339928Y-189460119D02*
X180435166Y-189412500D01*
X180530404Y-189317262D01*
X180673261Y-189174405D01*
X180768500Y-189126786D01*
X180863738Y-189126786D01*
X180816119Y-189364881D02*
X180911357Y-189317262D01*
X181006595Y-189222024D01*
X181054214Y-189031548D01*
X181054214Y-188698214D01*
X181006595Y-188507738D01*
X180911357Y-188412500D01*
X180816119Y-188364881D01*
X180625642Y-188364881D01*
X180530404Y-188412500D01*
X180435166Y-188507738D01*
X180387547Y-188698214D01*
X180387547Y-189031548D01*
X180435166Y-189222024D01*
X180530404Y-189317262D01*
X180625642Y-189364881D01*
X180816119Y-189364881D01*
X179435166Y-189364881D02*
X180006595Y-189364881D01*
X179720881Y-189364881D02*
X179720881Y-188364881D01*
X179816119Y-188507738D01*
X179911357Y-188602976D01*
X180006595Y-188650595D01*
X178482785Y-189364881D02*
X179054214Y-189364881D01*
X178768500Y-189364881D02*
X178768500Y-188364881D01*
X178863738Y-188507738D01*
X178958976Y-188602976D01*
X179054214Y-188650595D01*
X180403428Y-192063619D02*
X180498666Y-192016000D01*
X180593904Y-191920762D01*
X180736761Y-191777905D01*
X180832000Y-191730286D01*
X180927238Y-191730286D01*
X180879619Y-191968381D02*
X180974857Y-191920762D01*
X181070095Y-191825524D01*
X181117714Y-191635048D01*
X181117714Y-191301714D01*
X181070095Y-191111238D01*
X180974857Y-191016000D01*
X180879619Y-190968381D01*
X180689142Y-190968381D01*
X180593904Y-191016000D01*
X180498666Y-191111238D01*
X180451047Y-191301714D01*
X180451047Y-191635048D01*
X180498666Y-191825524D01*
X180593904Y-191920762D01*
X180689142Y-191968381D01*
X180879619Y-191968381D01*
X179498666Y-191968381D02*
X180070095Y-191968381D01*
X179784381Y-191968381D02*
X179784381Y-190968381D01*
X179879619Y-191111238D01*
X179974857Y-191206476D01*
X180070095Y-191254095D01*
X179117714Y-191063619D02*
X179070095Y-191016000D01*
X178974857Y-190968381D01*
X178736761Y-190968381D01*
X178641523Y-191016000D01*
X178593904Y-191063619D01*
X178546285Y-191158857D01*
X178546285Y-191254095D01*
X178593904Y-191396952D01*
X179165333Y-191968381D01*
X178546285Y-191968381D01*
X191992095Y-189428381D02*
X191992095Y-188428381D01*
X191992095Y-188904571D02*
X191420666Y-188904571D01*
X191420666Y-189428381D02*
X191420666Y-188428381D01*
X190992095Y-189380762D02*
X190849238Y-189428381D01*
X190611142Y-189428381D01*
X190515904Y-189380762D01*
X190468285Y-189333143D01*
X190420666Y-189237905D01*
X190420666Y-189142667D01*
X190468285Y-189047429D01*
X190515904Y-188999810D01*
X190611142Y-188952190D01*
X190801619Y-188904571D01*
X190896857Y-188856952D01*
X190944476Y-188809333D01*
X190992095Y-188714095D01*
X190992095Y-188618857D01*
X190944476Y-188523619D01*
X190896857Y-188476000D01*
X190801619Y-188428381D01*
X190563523Y-188428381D01*
X190420666Y-188476000D01*
X189468285Y-189428381D02*
X190039714Y-189428381D01*
X189754000Y-189428381D02*
X189754000Y-188428381D01*
X189849238Y-188571238D01*
X189944476Y-188666476D01*
X190039714Y-188714095D01*
M02*
