M48
;DRILL file {KiCad 4.0.2-stable} date 06/11/2017 10:09:20
;FORMAT={-:-/ absolute / inch / decimal}
FMAT,2
INCH,TZ
T1C0.016
T2C0.031
T3C0.035
T4C0.039
T5C0.063
T6C0.087
T7C0.118
T8C0.138
%
G90
G05
M72
T1
X6.395Y-8.135
X6.405Y-6.05
X6.4575Y-6.265
X6.495Y-7.7675
X6.5425Y-6.4125
X6.58Y-6.375
X6.59Y-7.3975
X6.745Y-6.7325
X6.81Y-8.05
X6.86Y-6.1
X6.925Y-7.895
X6.93Y-7.7775
X7.0075Y-6.45
X7.2275Y-7.3275
X7.25Y-7.395
X7.265Y-6.91
X7.27Y-7.33
X7.32Y-7.415
X7.34Y-7.555
X7.355Y-7.58
X7.36Y-6.79
X7.46Y-7.395
X7.485Y-7.395
X7.61Y-6.275
X7.6425Y-7.6925
X7.66Y-6.165
X7.675Y-6.6225
X7.675Y-8.025
X7.78Y-7.165
X7.785Y-6.94
X7.8475Y-7.44
X7.965Y-6.735
X8.Y-6.835
X8.025Y-7.2
X8.045Y-6.54
X8.045Y-6.6
T2
X7.85Y-6.5
X7.85Y-6.6
X7.85Y-6.7
X7.85Y-6.8
X8.15Y-6.5
X8.15Y-6.6
X8.15Y-6.7
X8.15Y-6.8
T3
X6.0774Y-7.
X6.0774Y-7.1
X8.3726Y-7.09
X8.3726Y-7.19
T4
X6.75Y-6.86
X6.75Y-7.03
X6.75Y-7.23
X6.75Y-7.3375
X6.75Y-7.44
X6.75Y-7.54
X6.85Y-6.86
X6.85Y-7.03
X6.85Y-7.23
X6.85Y-7.3375
X6.85Y-7.44
X6.85Y-7.54
X6.95Y-6.86
X6.95Y-7.03
X6.95Y-7.23
X6.95Y-7.3375
X6.95Y-7.44
X6.95Y-7.54
T5
X5.9811Y-6.1354
X5.9811Y-6.5354
X5.9811Y-7.6512
X5.9811Y-7.8512
X5.9811Y-8.0512
X5.985Y-6.334
X6.1811Y-6.1354
X6.1811Y-6.3354
X6.1811Y-6.5354
X6.1811Y-7.6512
X6.1811Y-8.0512
X6.1819Y-7.8458
X8.41Y-6.22
X8.41Y-6.42
X8.41Y-6.62
X8.61Y-6.22
X8.61Y-6.42
X8.61Y-6.62
T6
X5.8774Y-6.9
X5.8774Y-7.3
X8.5726Y-6.89
X8.5726Y-7.29
T7
X6.35Y-7.115
X7.35Y-7.115
T8
X7.0866Y-6.1614
X7.0866Y-8.0315
X7.874Y-6.1614
X7.874Y-8.0315
X8.4646Y-7.6575
T0
M30
