G04 #@! TF.FileFunction,Copper,L2,Inr,Signal*
%FSLAX46Y46*%
G04 Gerber Fmt 4.6, Leading zero omitted, Abs format (unit mm)*
G04 Created by KiCad (PCBNEW 4.0.2-stable) date 06/11/2017 10:09:17*
%MOMM*%
G01*
G04 APERTURE LIST*
%ADD10C,0.100000*%
%ADD11R,2.400000X1.600000*%
%ADD12O,2.400000X1.600000*%
%ADD13C,1.500000*%
%ADD14C,3.500000*%
%ADD15O,3.600000X2.500000*%
%ADD16R,3.600000X2.500000*%
%ADD17C,3.000000*%
%ADD18R,1.800000X1.800000*%
%ADD19O,1.800000X1.800000*%
%ADD20C,8.000000*%
%ADD21C,5.000000*%
%ADD22C,0.600000*%
%ADD23C,1.000000*%
G04 APERTURE END LIST*
D10*
D11*
X207010000Y-165100000D03*
D12*
X199390000Y-172720000D03*
X207010000Y-167640000D03*
X199390000Y-170180000D03*
X207010000Y-170180000D03*
X199390000Y-167640000D03*
X207010000Y-172720000D03*
X199390000Y-165100000D03*
D13*
X212664000Y-180086000D03*
X212664000Y-182626000D03*
D14*
X217744000Y-185166000D03*
X217744000Y-175006000D03*
D15*
X218694000Y-168148000D03*
X218694000Y-163068000D03*
D16*
X218694000Y-157988000D03*
X213614000Y-157988000D03*
D15*
X213614000Y-163068000D03*
X213614000Y-168148000D03*
X151920000Y-155840000D03*
X152020000Y-160884000D03*
D16*
X151920000Y-166000000D03*
X157000000Y-166000000D03*
D15*
X157000000Y-160920000D03*
X157000000Y-155840000D03*
X151920000Y-194340000D03*
X151920000Y-199420000D03*
D16*
X151920000Y-204500000D03*
X157000000Y-204500000D03*
D15*
X157020000Y-199284000D03*
X157000000Y-194340000D03*
D13*
X154366000Y-180340000D03*
X154366000Y-177800000D03*
D17*
X149286000Y-175260000D03*
X149286000Y-185420000D03*
D18*
X171450000Y-174244000D03*
D19*
X173990000Y-174244000D03*
X176530000Y-174244000D03*
D18*
X171450000Y-186372500D03*
D19*
X173990000Y-186372500D03*
X176530000Y-186372500D03*
D18*
X176530000Y-178562000D03*
D19*
X173990000Y-178562000D03*
X171450000Y-178562000D03*
D18*
X176530000Y-183642000D03*
D19*
X173990000Y-183642000D03*
X171450000Y-183642000D03*
D20*
X215000000Y-194500000D03*
D14*
X200000000Y-156500000D03*
X180000000Y-156500000D03*
X200000000Y-204000000D03*
X180000000Y-204000000D03*
D18*
X176530000Y-188976000D03*
D19*
X173990000Y-188976000D03*
X171450000Y-188976000D03*
D18*
X171450000Y-191516000D03*
D19*
X173990000Y-191516000D03*
X176530000Y-191516000D03*
D21*
X161290000Y-180721000D03*
X186690000Y-180721000D03*
D22*
X183578500Y-186118500D03*
X171323000Y-171005500D03*
X177990500Y-163830000D03*
X194945000Y-168211500D03*
X203835000Y-182880000D03*
X199326500Y-188976000D03*
X194119500Y-195389500D03*
X184658000Y-186182000D03*
X194945000Y-203835000D03*
X162433000Y-206629000D03*
X172974000Y-204470000D03*
X175895000Y-200533000D03*
X193294000Y-159385000D03*
X194564000Y-156591000D03*
X162687000Y-153670000D03*
X174244000Y-154940000D03*
X204343000Y-166116000D03*
X204343000Y-167640000D03*
X202311000Y-171069000D03*
X203200000Y-173609000D03*
X184531000Y-175514000D03*
X197739000Y-176276000D03*
X197612000Y-181991000D03*
X164020500Y-159131000D03*
X186944000Y-172466000D03*
X186436000Y-191897000D03*
X186817000Y-192532000D03*
X189484000Y-187833000D03*
X190119000Y-187833000D03*
X167132000Y-161925000D03*
X166179500Y-162877500D03*
X176022000Y-197548500D03*
X164973000Y-197294500D03*
X167386000Y-187896500D03*
X185928000Y-188341000D03*
X184150000Y-187833000D03*
D23*
X167132000Y-161925000D02*
X166179500Y-162877500D01*
X157000000Y-166000000D02*
X157850000Y-166000000D01*
X157850000Y-166000000D02*
X160972500Y-162877500D01*
X160972500Y-162877500D02*
X166179500Y-162877500D01*
X185166000Y-188849000D02*
X185166000Y-189039500D01*
X185166000Y-189039500D02*
X176657000Y-197548500D01*
X176657000Y-197548500D02*
X176022000Y-197548500D01*
X184150000Y-187833000D02*
X185166000Y-188849000D01*
X185166000Y-188849000D02*
X185420000Y-188849000D01*
X185420000Y-188849000D02*
X185928000Y-188341000D01*
X167386000Y-187896500D02*
X163957000Y-187896500D01*
X163957000Y-187896500D02*
X163449000Y-188404500D01*
X163449000Y-188404500D02*
X163449000Y-195770500D01*
X163449000Y-195770500D02*
X164973000Y-197294500D01*
X171450000Y-183642000D02*
X170815000Y-183642000D01*
X170815000Y-183642000D02*
X169418000Y-185039000D01*
X169418000Y-185039000D02*
X169418000Y-190627000D01*
X169418000Y-190627000D02*
X170307000Y-191516000D01*
X170307000Y-191516000D02*
X171450000Y-191516000D01*
X171450000Y-174244000D02*
X169862500Y-175831500D01*
X169862500Y-175831500D02*
X169862500Y-177228500D01*
X169862500Y-177228500D02*
X169418000Y-177673000D01*
X169418000Y-177673000D02*
X169418000Y-181610000D01*
X169418000Y-181610000D02*
X171450000Y-183642000D01*
M02*
