G04 #@! TF.FileFunction,Copper,L1,Top,Signal*
%FSLAX46Y46*%
G04 Gerber Fmt 4.6, Leading zero omitted, Abs format (unit mm)*
G04 Created by KiCad (PCBNEW 4.0.2-stable) date 06/11/2017 10:09:17*
%MOMM*%
G01*
G04 APERTURE LIST*
%ADD10C,0.100000*%
%ADD11R,0.900000X1.700000*%
%ADD12R,2.400000X1.600000*%
%ADD13O,2.400000X1.600000*%
%ADD14R,1.660000X0.650000*%
%ADD15R,1.000000X1.600000*%
%ADD16R,0.900000X0.500000*%
%ADD17R,0.500000X0.900000*%
%ADD18R,0.800000X0.750000*%
%ADD19R,3.000000X1.600000*%
%ADD20R,1.600000X1.000000*%
%ADD21C,1.500000*%
%ADD22C,3.500000*%
%ADD23O,3.600000X2.500000*%
%ADD24R,3.600000X2.500000*%
%ADD25C,3.000000*%
%ADD26R,1.800000X1.800000*%
%ADD27O,1.800000X1.800000*%
%ADD28R,1.000000X3.200000*%
%ADD29C,8.000000*%
%ADD30R,2.100000X1.800000*%
%ADD31R,1.000000X1.400000*%
%ADD32R,3.800000X2.000000*%
%ADD33R,1.500000X2.000000*%
%ADD34C,5.000000*%
%ADD35C,0.600000*%
%ADD36C,0.500000*%
%ADD37C,1.000000*%
%ADD38C,0.400000*%
%ADD39C,0.300000*%
G04 APERTURE END LIST*
D10*
D11*
X192966000Y-186436000D03*
X190066000Y-186436000D03*
D12*
X207010000Y-165100000D03*
D13*
X199390000Y-172720000D03*
X207010000Y-167640000D03*
X199390000Y-170180000D03*
X207010000Y-170180000D03*
X199390000Y-167640000D03*
X207010000Y-172720000D03*
X199390000Y-165100000D03*
D14*
X194688000Y-183581000D03*
X194688000Y-184531000D03*
X194688000Y-185481000D03*
X197488000Y-185481000D03*
X197488000Y-183581000D03*
X197488000Y-184531000D03*
D15*
X185698000Y-186817000D03*
X188698000Y-186817000D03*
D16*
X176530000Y-180352000D03*
X176530000Y-181852000D03*
D14*
X195075000Y-191577000D03*
X195075000Y-190627000D03*
X195075000Y-189677000D03*
X192275000Y-189677000D03*
X192275000Y-191577000D03*
X192275000Y-190627000D03*
D16*
X209804000Y-159778000D03*
X209804000Y-161278000D03*
D17*
X191250000Y-193167000D03*
X189750000Y-193167000D03*
D18*
X204966000Y-176022000D03*
X203466000Y-176022000D03*
D19*
X206916000Y-179324000D03*
X201516000Y-179324000D03*
D18*
X203442000Y-167640000D03*
X201942000Y-167640000D03*
X203212000Y-171196000D03*
X204712000Y-171196000D03*
D15*
X188698000Y-175514000D03*
X185698000Y-175514000D03*
D18*
X203442000Y-166116000D03*
X201942000Y-166116000D03*
X203212000Y-172720000D03*
X204712000Y-172720000D03*
X196838000Y-176276000D03*
X195338000Y-176276000D03*
X195338000Y-181991000D03*
X196838000Y-181991000D03*
D20*
X173736000Y-159615000D03*
X173736000Y-156615000D03*
X173863000Y-200509000D03*
X173863000Y-197509000D03*
D21*
X212664000Y-180086000D03*
X212664000Y-182626000D03*
D22*
X217744000Y-185166000D03*
X217744000Y-175006000D03*
D23*
X218694000Y-168148000D03*
X218694000Y-163068000D03*
D24*
X218694000Y-157988000D03*
X213614000Y-157988000D03*
D23*
X213614000Y-163068000D03*
X213614000Y-168148000D03*
X151920000Y-155840000D03*
X152020000Y-160884000D03*
D24*
X151920000Y-166000000D03*
X157000000Y-166000000D03*
D23*
X157000000Y-160920000D03*
X157000000Y-155840000D03*
X151920000Y-194340000D03*
X151920000Y-199420000D03*
D24*
X151920000Y-204500000D03*
X157000000Y-204500000D03*
D23*
X157020000Y-199284000D03*
X157000000Y-194340000D03*
D21*
X154366000Y-180340000D03*
X154366000Y-177800000D03*
D25*
X149286000Y-175260000D03*
X149286000Y-185420000D03*
D26*
X171450000Y-174244000D03*
D27*
X173990000Y-174244000D03*
X176530000Y-174244000D03*
D26*
X171450000Y-186372500D03*
D27*
X173990000Y-186372500D03*
X176530000Y-186372500D03*
D26*
X176530000Y-178562000D03*
D27*
X173990000Y-178562000D03*
X171450000Y-178562000D03*
D26*
X176530000Y-183642000D03*
D27*
X173990000Y-183642000D03*
X171450000Y-183642000D03*
D16*
X210439000Y-182614000D03*
X210439000Y-181114000D03*
X209804000Y-169787000D03*
X209804000Y-168287000D03*
D28*
X165302000Y-155956000D03*
X171502000Y-155956000D03*
X171502000Y-204470000D03*
X165302000Y-204470000D03*
D16*
X201422000Y-175018000D03*
X201422000Y-176518000D03*
X209804000Y-166358000D03*
X209804000Y-164858000D03*
D11*
X190066000Y-176530000D03*
X192966000Y-176530000D03*
D17*
X188226000Y-172974000D03*
X189726000Y-172974000D03*
D28*
X162254000Y-170180000D03*
X168454000Y-170180000D03*
X168454000Y-190500000D03*
X162254000Y-190500000D03*
X162254000Y-166116000D03*
X168454000Y-166116000D03*
X168454000Y-194564000D03*
X162254000Y-194564000D03*
X187019000Y-156591000D03*
X193219000Y-156591000D03*
X187146000Y-203835000D03*
X193346000Y-203835000D03*
D29*
X215000000Y-194500000D03*
D22*
X200000000Y-156500000D03*
X180000000Y-156500000D03*
X200000000Y-204000000D03*
D16*
X174752000Y-180352000D03*
X174752000Y-181852000D03*
D22*
X180000000Y-204000000D03*
D20*
X162306000Y-158218000D03*
X162306000Y-155218000D03*
X162306000Y-201954000D03*
X162306000Y-204954000D03*
D30*
X163154000Y-174879000D03*
X167554000Y-174879000D03*
X166665000Y-198882000D03*
X162265000Y-198882000D03*
D31*
X166690000Y-180805000D03*
X168590000Y-180805000D03*
X167640000Y-178605000D03*
X166690000Y-186266000D03*
X168590000Y-186266000D03*
X167640000Y-184066000D03*
D32*
X182372000Y-166268000D03*
D33*
X182372000Y-172568000D03*
X184672000Y-172568000D03*
X180072000Y-172568000D03*
D32*
X182372000Y-195809000D03*
D33*
X182372000Y-189509000D03*
X180072000Y-189509000D03*
X184672000Y-189509000D03*
D17*
X204077000Y-169418000D03*
X202577000Y-169418000D03*
D11*
X181790000Y-181102000D03*
X178890000Y-181102000D03*
D16*
X178816000Y-184646000D03*
X178816000Y-183146000D03*
D14*
X194948000Y-173162000D03*
X194948000Y-172212000D03*
X194948000Y-171262000D03*
X192148000Y-171262000D03*
X192148000Y-173162000D03*
X192148000Y-172212000D03*
X194688000Y-177866000D03*
X194688000Y-178816000D03*
X194688000Y-179766000D03*
X197488000Y-179766000D03*
X197488000Y-177866000D03*
X197488000Y-178816000D03*
D26*
X176530000Y-188976000D03*
D27*
X173990000Y-188976000D03*
X171450000Y-188976000D03*
D26*
X171450000Y-191516000D03*
D27*
X173990000Y-191516000D03*
X176530000Y-191516000D03*
D16*
X180340000Y-183146000D03*
X180340000Y-184646000D03*
D17*
X174740000Y-176276000D03*
X173240000Y-176276000D03*
X174740000Y-194056000D03*
X173240000Y-194056000D03*
D34*
X161290000Y-180721000D03*
X186690000Y-180721000D03*
D11*
X187018000Y-170942000D03*
X189918000Y-170942000D03*
X190299000Y-191008000D03*
X187399000Y-191008000D03*
D35*
X183578500Y-186118500D03*
X171323000Y-171005500D03*
X177990500Y-163830000D03*
X194945000Y-168211500D03*
X203835000Y-182880000D03*
X199326500Y-188976000D03*
X194119500Y-195389500D03*
X184658000Y-186182000D03*
X194945000Y-203835000D03*
X162433000Y-206629000D03*
X172974000Y-204470000D03*
X175895000Y-200533000D03*
X193294000Y-159385000D03*
X194564000Y-156591000D03*
X162687000Y-153670000D03*
X174244000Y-154940000D03*
X204343000Y-166116000D03*
X204343000Y-167640000D03*
X202311000Y-171069000D03*
X203200000Y-173609000D03*
X184531000Y-175514000D03*
X197739000Y-176276000D03*
X197612000Y-181991000D03*
X164020500Y-159131000D03*
X186944000Y-172466000D03*
X186436000Y-191897000D03*
X186817000Y-192532000D03*
X189484000Y-187833000D03*
X190119000Y-187833000D03*
X167132000Y-161925000D03*
X166179500Y-162877500D03*
X176022000Y-197548500D03*
X164973000Y-197294500D03*
X167386000Y-187896500D03*
X185928000Y-188341000D03*
X184150000Y-187833000D03*
D36*
X212664000Y-182626000D02*
X212664000Y-182687000D01*
X212664000Y-182687000D02*
X211518500Y-183832500D01*
X211518500Y-183832500D02*
X204787500Y-183832500D01*
X204787500Y-183832500D02*
X203835000Y-182880000D01*
X184658000Y-186182000D02*
X183642000Y-186182000D01*
X183642000Y-186182000D02*
X183578500Y-186118500D01*
X177990500Y-163830000D02*
X177990500Y-164338000D01*
X177990500Y-164338000D02*
X171323000Y-171005500D01*
X193294000Y-159385000D02*
X189928500Y-159385000D01*
X189928500Y-159385000D02*
X185991500Y-163322000D01*
X185991500Y-163322000D02*
X178498500Y-163322000D01*
X178498500Y-163322000D02*
X177990500Y-163830000D01*
X194564000Y-156591000D02*
X194564000Y-167830500D01*
X194564000Y-167830500D02*
X194945000Y-168211500D01*
X199326500Y-188976000D02*
X199326500Y-188214000D01*
X199326500Y-188214000D02*
X203835000Y-183705500D01*
X203835000Y-183705500D02*
X203835000Y-182880000D01*
X194119500Y-195389500D02*
X195834000Y-195389500D01*
X195834000Y-195389500D02*
X199326500Y-191897000D01*
X199326500Y-191897000D02*
X199326500Y-188976000D01*
X194945000Y-203835000D02*
X194945000Y-196215000D01*
X194945000Y-196215000D02*
X194119500Y-195389500D01*
X185698000Y-186817000D02*
X185293000Y-186817000D01*
X185293000Y-186817000D02*
X184658000Y-186182000D01*
X154366000Y-177800000D02*
X158369000Y-177800000D01*
X158369000Y-177800000D02*
X161290000Y-180721000D01*
D37*
X193346000Y-203835000D02*
X194945000Y-203835000D01*
X162306000Y-204954000D02*
X162306000Y-206502000D01*
X162306000Y-206502000D02*
X162433000Y-206629000D01*
X171502000Y-204470000D02*
X172974000Y-204470000D01*
X173863000Y-200509000D02*
X175871000Y-200509000D01*
X175871000Y-200509000D02*
X175895000Y-200533000D01*
X171502000Y-204470000D02*
X171502000Y-201878000D01*
X171502000Y-201878000D02*
X172871000Y-200509000D01*
X172871000Y-200509000D02*
X173863000Y-200509000D01*
X162306000Y-204954000D02*
X160758000Y-204954000D01*
X160758000Y-204954000D02*
X160020000Y-204216000D01*
X160020000Y-204216000D02*
X160020000Y-202284000D01*
X160020000Y-202284000D02*
X157020000Y-199284000D01*
X151920000Y-199420000D02*
X156884000Y-199420000D01*
X156884000Y-199420000D02*
X157020000Y-199284000D01*
X152020000Y-160884000D02*
X156964000Y-160884000D01*
X156964000Y-160884000D02*
X157000000Y-160920000D01*
X193219000Y-156591000D02*
X193219000Y-159310000D01*
X193219000Y-159310000D02*
X193294000Y-159385000D01*
X193219000Y-156591000D02*
X194564000Y-156591000D01*
X162306000Y-155218000D02*
X162306000Y-154051000D01*
X162306000Y-154051000D02*
X162687000Y-153670000D01*
X173736000Y-156615000D02*
X173736000Y-155448000D01*
X173736000Y-155448000D02*
X174244000Y-154940000D01*
X171502000Y-155956000D02*
X173077000Y-155956000D01*
X173077000Y-155956000D02*
X173736000Y-156615000D01*
X162306000Y-155218000D02*
X161647000Y-155218000D01*
X161647000Y-155218000D02*
X160020000Y-156845000D01*
X160020000Y-156845000D02*
X160020000Y-160020000D01*
X160020000Y-160020000D02*
X159120000Y-160920000D01*
X159120000Y-160920000D02*
X157000000Y-160920000D01*
D36*
X213614000Y-163068000D02*
X218694000Y-163068000D01*
X209804000Y-161278000D02*
X211824000Y-161278000D01*
X211824000Y-161278000D02*
X213614000Y-163068000D01*
X209804000Y-164858000D02*
X211824000Y-164858000D01*
X211824000Y-164858000D02*
X213614000Y-163068000D01*
X212664000Y-182626000D02*
X210451000Y-182626000D01*
X210451000Y-182626000D02*
X210439000Y-182614000D01*
X209804000Y-169787000D02*
X209804000Y-173736000D01*
X209804000Y-173736000D02*
X214249000Y-178181000D01*
X214249000Y-178181000D02*
X214249000Y-181041000D01*
X214249000Y-181041000D02*
X212664000Y-182626000D01*
D38*
X203442000Y-166116000D02*
X204343000Y-166116000D01*
X203442000Y-167640000D02*
X204343000Y-167640000D01*
X203442000Y-167640000D02*
X203442000Y-166116000D01*
X203212000Y-171196000D02*
X202438000Y-171196000D01*
X202438000Y-171196000D02*
X202311000Y-171069000D01*
X203212000Y-172720000D02*
X203212000Y-173597000D01*
X203212000Y-173597000D02*
X203200000Y-173609000D01*
X203212000Y-171196000D02*
X203212000Y-172720000D01*
X185698000Y-175514000D02*
X184531000Y-175514000D01*
X197488000Y-177866000D02*
X197488000Y-176527000D01*
X197739000Y-176276000D02*
X196838000Y-176276000D01*
X197488000Y-176527000D02*
X197739000Y-176276000D01*
X197488000Y-183581000D02*
X197488000Y-182115000D01*
X197612000Y-181991000D02*
X196838000Y-181991000D01*
X197488000Y-182115000D02*
X197612000Y-181991000D01*
X204966000Y-176022000D02*
X204966000Y-177374000D01*
X204966000Y-177374000D02*
X206916000Y-179324000D01*
X201422000Y-176518000D02*
X201422000Y-179230000D01*
X201422000Y-179230000D02*
X201516000Y-179324000D01*
D39*
X196723000Y-180848000D02*
X192405000Y-180848000D01*
X184658000Y-184785000D02*
X181790000Y-181917000D01*
X188468000Y-184785000D02*
X184658000Y-184785000D01*
X192405000Y-180848000D02*
X188468000Y-184785000D01*
X181790000Y-181917000D02*
X181790000Y-181102000D01*
X197488000Y-184531000D02*
X198882000Y-184531000D01*
X200025000Y-183388000D02*
X200025000Y-180815000D01*
X198882000Y-184531000D02*
X200025000Y-183388000D01*
X197488000Y-178816000D02*
X196215000Y-178816000D01*
X199992000Y-180848000D02*
X200025000Y-180815000D01*
X200025000Y-180815000D02*
X201516000Y-179324000D01*
X196469000Y-180848000D02*
X196723000Y-180848000D01*
X196723000Y-180848000D02*
X199992000Y-180848000D01*
X196088000Y-180467000D02*
X196469000Y-180848000D01*
X196088000Y-178943000D02*
X196088000Y-180467000D01*
X196215000Y-178816000D02*
X196088000Y-178943000D01*
D36*
X201942000Y-166116000D02*
X201942000Y-164834000D01*
X201942000Y-164834000D02*
X206998000Y-159778000D01*
X206998000Y-159778000D02*
X209804000Y-159778000D01*
X213614000Y-157988000D02*
X218694000Y-157988000D01*
X209804000Y-159778000D02*
X211824000Y-159778000D01*
X211824000Y-159778000D02*
X213614000Y-157988000D01*
D38*
X201942000Y-167640000D02*
X201942000Y-166116000D01*
X199390000Y-167640000D02*
X201942000Y-167640000D01*
D36*
X213614000Y-168148000D02*
X218694000Y-168148000D01*
X209804000Y-166358000D02*
X211824000Y-166358000D01*
X211824000Y-166358000D02*
X213614000Y-168148000D01*
D38*
X204712000Y-172720000D02*
X207010000Y-172720000D01*
X204712000Y-171196000D02*
X204712000Y-172720000D01*
D36*
X164020500Y-159131000D02*
X163107500Y-158218000D01*
X163107500Y-158218000D02*
X162306000Y-158218000D01*
X187018000Y-170942000D02*
X187018000Y-172392000D01*
X187018000Y-172392000D02*
X186944000Y-172466000D01*
D37*
X151920000Y-204500000D02*
X149001000Y-204500000D01*
X149001000Y-204500000D02*
X148209000Y-203708000D01*
X148209000Y-203708000D02*
X148209000Y-192913000D01*
X148209000Y-192913000D02*
X151765000Y-189357000D01*
X151765000Y-189357000D02*
X151765000Y-183705500D01*
X151765000Y-183705500D02*
X150368000Y-182308500D01*
X150368000Y-182308500D02*
X150368000Y-178498500D01*
X150368000Y-178498500D02*
X153987500Y-174879000D01*
X153987500Y-174879000D02*
X163154000Y-174879000D01*
X151920000Y-204500000D02*
X157000000Y-204500000D01*
X162306000Y-158218000D02*
X163040000Y-158218000D01*
X163040000Y-158218000D02*
X165302000Y-155956000D01*
X162306000Y-158218000D02*
X162306000Y-166064000D01*
X162306000Y-166064000D02*
X162254000Y-166116000D01*
X162254000Y-170180000D02*
X162254000Y-173979000D01*
X162254000Y-173979000D02*
X163154000Y-174879000D01*
X162254000Y-166116000D02*
X162254000Y-170180000D01*
D36*
X188226000Y-172974000D02*
X188226000Y-172351000D01*
X188226000Y-172351000D02*
X187018000Y-171143000D01*
X187018000Y-171143000D02*
X187018000Y-170942000D01*
X188698000Y-175514000D02*
X188698000Y-174347000D01*
X188698000Y-174347000D02*
X188226000Y-173875000D01*
X188226000Y-173875000D02*
X188226000Y-172974000D01*
D38*
X188698000Y-175514000D02*
X189050000Y-175514000D01*
X189050000Y-175514000D02*
X190066000Y-176530000D01*
D36*
X187399000Y-191008000D02*
X187325000Y-191008000D01*
X187325000Y-191008000D02*
X186436000Y-191897000D01*
X187399000Y-191008000D02*
X187399000Y-191950000D01*
X187399000Y-191950000D02*
X186817000Y-192532000D01*
D37*
X162254000Y-194564000D02*
X162254000Y-190500000D01*
X162306000Y-201954000D02*
X164235000Y-201954000D01*
X164235000Y-201954000D02*
X165302000Y-203021000D01*
X165302000Y-203021000D02*
X165302000Y-204470000D01*
X162265000Y-198882000D02*
X162265000Y-201913000D01*
X162265000Y-201913000D02*
X162306000Y-201954000D01*
X162254000Y-194564000D02*
X162254000Y-198871000D01*
X162254000Y-198871000D02*
X162265000Y-198882000D01*
X157000000Y-194340000D02*
X162030000Y-194340000D01*
X162030000Y-194340000D02*
X162254000Y-194564000D01*
X151920000Y-194340000D02*
X157000000Y-194340000D01*
D38*
X187399000Y-191008000D02*
X187399000Y-191717000D01*
X187399000Y-191717000D02*
X188849000Y-193167000D01*
X188849000Y-193167000D02*
X189750000Y-193167000D01*
X190119000Y-187833000D02*
X189484000Y-187833000D01*
X188698000Y-186817000D02*
X188698000Y-187047000D01*
X188698000Y-187047000D02*
X189484000Y-187833000D01*
X190066000Y-186436000D02*
X190066000Y-187780000D01*
X190066000Y-187780000D02*
X190119000Y-187833000D01*
X190066000Y-186436000D02*
X189079000Y-186436000D01*
X189079000Y-186436000D02*
X188698000Y-186817000D01*
X194688000Y-178816000D02*
X194688000Y-179766000D01*
X194688000Y-177866000D02*
X194688000Y-178816000D01*
X192966000Y-176530000D02*
X195084000Y-176530000D01*
X195084000Y-176530000D02*
X195338000Y-176276000D01*
X194688000Y-177866000D02*
X194688000Y-176926000D01*
X194688000Y-176926000D02*
X195338000Y-176276000D01*
X194688000Y-185481000D02*
X193921000Y-185481000D01*
X193921000Y-185481000D02*
X192966000Y-186436000D01*
X194688000Y-184531000D02*
X194688000Y-185481000D01*
X194688000Y-183581000D02*
X194688000Y-184531000D01*
X194688000Y-183581000D02*
X194688000Y-182641000D01*
X194688000Y-182641000D02*
X195338000Y-181991000D01*
D37*
X166179500Y-162877500D02*
X166116000Y-162941000D01*
X151920000Y-166000000D02*
X157000000Y-166000000D01*
X173736000Y-159615000D02*
X169442000Y-159615000D01*
X169442000Y-159615000D02*
X167132000Y-161925000D01*
X167132000Y-161925000D02*
X166116000Y-162941000D01*
X166116000Y-162941000D02*
X166116000Y-173441000D01*
X166116000Y-173441000D02*
X167554000Y-174879000D01*
X173736000Y-159615000D02*
X174474000Y-159615000D01*
X174474000Y-159615000D02*
X175768000Y-160909000D01*
X175768000Y-160909000D02*
X184404000Y-160909000D01*
X184404000Y-160909000D02*
X187019000Y-158294000D01*
X187019000Y-158294000D02*
X187019000Y-156591000D01*
D36*
X167640000Y-178605000D02*
X167640000Y-174965000D01*
X167640000Y-174965000D02*
X167554000Y-174879000D01*
X180072000Y-172568000D02*
X174650000Y-172568000D01*
X174650000Y-172568000D02*
X173990000Y-173228000D01*
X173990000Y-173228000D02*
X173990000Y-174244000D01*
D37*
X176022000Y-197548500D02*
X176053750Y-197516750D01*
X176053750Y-197516750D02*
X176046000Y-197509000D01*
X164973000Y-197294500D02*
X166560500Y-198882000D01*
X166560500Y-198882000D02*
X166665000Y-198882000D01*
D36*
X167386000Y-187896500D02*
X166690000Y-187200500D01*
X166690000Y-187200500D02*
X166690000Y-186266000D01*
D37*
X187146000Y-203835000D02*
X187146000Y-201116000D01*
X187146000Y-201116000D02*
X185166000Y-199136000D01*
X185166000Y-199136000D02*
X177673000Y-199136000D01*
X177673000Y-199136000D02*
X176046000Y-197509000D01*
X176046000Y-197509000D02*
X173863000Y-197509000D01*
X166665000Y-198882000D02*
X170561000Y-198882000D01*
X170561000Y-198882000D02*
X171934000Y-197509000D01*
X171934000Y-197509000D02*
X173863000Y-197509000D01*
X151920000Y-155840000D02*
X157000000Y-155840000D01*
D36*
X184672000Y-189509000D02*
X184760000Y-189509000D01*
X184760000Y-189509000D02*
X185928000Y-188341000D01*
X184672000Y-189509000D02*
X184672000Y-188355000D01*
X184672000Y-188355000D02*
X184150000Y-187833000D01*
X210439000Y-181114000D02*
X210439000Y-176276000D01*
X210439000Y-176276000D02*
X208915000Y-174752000D01*
X208915000Y-174752000D02*
X208915000Y-172085000D01*
X208915000Y-172085000D02*
X207010000Y-170180000D01*
X212664000Y-180086000D02*
X211467000Y-180086000D01*
X211467000Y-180086000D02*
X210439000Y-181114000D01*
D37*
X163322000Y-185039000D02*
X162814000Y-185547000D01*
X162814000Y-185547000D02*
X159573000Y-185547000D01*
X159573000Y-185547000D02*
X159065000Y-185039000D01*
D36*
X167640000Y-184066000D02*
X167640000Y-183322000D01*
X167640000Y-183322000D02*
X166690000Y-182372000D01*
X166690000Y-180805000D02*
X166690000Y-182372000D01*
X166690000Y-182372000D02*
X166563000Y-182245000D01*
X166563000Y-182245000D02*
X166497000Y-182245000D01*
X166497000Y-182245000D02*
X166497000Y-182372000D01*
D37*
X174752000Y-181852000D02*
X170319000Y-181852000D01*
X170319000Y-181852000D02*
X169799000Y-182372000D01*
X169799000Y-182372000D02*
X166497000Y-182372000D01*
X166497000Y-182372000D02*
X165989000Y-182372000D01*
X165989000Y-182372000D02*
X163322000Y-185039000D01*
X159065000Y-185039000D02*
X154366000Y-180340000D01*
D36*
X176530000Y-180352000D02*
X176391000Y-180352000D01*
X176391000Y-180352000D02*
X174891000Y-181852000D01*
X174891000Y-181852000D02*
X174752000Y-181852000D01*
X176530000Y-180352000D02*
X178140000Y-180352000D01*
X178140000Y-180352000D02*
X178890000Y-181102000D01*
X178890000Y-181102000D02*
X178890000Y-183072000D01*
X178890000Y-183072000D02*
X178816000Y-183146000D01*
D38*
X194948000Y-173162000D02*
X196276000Y-173162000D01*
X198694000Y-179766000D02*
X197488000Y-179766000D01*
X199009000Y-179451000D02*
X198694000Y-179766000D01*
X199009000Y-175895000D02*
X199009000Y-179451000D01*
X196276000Y-173162000D02*
X199009000Y-175895000D01*
X194948000Y-172212000D02*
X194948000Y-173162000D01*
X194948000Y-171262000D02*
X194948000Y-172212000D01*
D36*
X174752000Y-180352000D02*
X174752000Y-180340000D01*
X174752000Y-180340000D02*
X176530000Y-178562000D01*
X176530000Y-181852000D02*
X176530000Y-183642000D01*
D38*
X192275000Y-191577000D02*
X192275000Y-192142000D01*
X192275000Y-192142000D02*
X191250000Y-193167000D01*
X195075000Y-190627000D02*
X195075000Y-191577000D01*
X195075000Y-189677000D02*
X195075000Y-190627000D01*
X197488000Y-185481000D02*
X197170000Y-185481000D01*
X197170000Y-185481000D02*
X196215000Y-186436000D01*
X196215000Y-186436000D02*
X196215000Y-189230000D01*
X196215000Y-189230000D02*
X195768000Y-189677000D01*
X195768000Y-189677000D02*
X195075000Y-189677000D01*
D36*
X192148000Y-173162000D02*
X189914000Y-173162000D01*
X189914000Y-173162000D02*
X189726000Y-172974000D01*
D38*
X201422000Y-175018000D02*
X202462000Y-175018000D01*
X202462000Y-175018000D02*
X203466000Y-176022000D01*
X199390000Y-170180000D02*
X200025000Y-170180000D01*
X200025000Y-170180000D02*
X201422000Y-171577000D01*
X201422000Y-171577000D02*
X201422000Y-175018000D01*
X199390000Y-170180000D02*
X201815000Y-170180000D01*
X201815000Y-170180000D02*
X202577000Y-169418000D01*
X192148000Y-171262000D02*
X192148000Y-170304000D01*
X192148000Y-170304000D02*
X191135000Y-169291000D01*
X191135000Y-169291000D02*
X185674000Y-169291000D01*
X185674000Y-169291000D02*
X184672000Y-170293000D01*
X184672000Y-170293000D02*
X184672000Y-172568000D01*
D36*
X192148000Y-172212000D02*
X190881000Y-172212000D01*
X190881000Y-172212000D02*
X189918000Y-171249000D01*
X189918000Y-171249000D02*
X189918000Y-170942000D01*
D38*
X192275000Y-189677000D02*
X191455000Y-189677000D01*
X191455000Y-189677000D02*
X190754000Y-188976000D01*
X190754000Y-188976000D02*
X186690000Y-188976000D01*
X186690000Y-188976000D02*
X186182000Y-189484000D01*
X186182000Y-189484000D02*
X186182000Y-190754000D01*
X186182000Y-190754000D02*
X185674000Y-191262000D01*
X185674000Y-191262000D02*
X180594000Y-191262000D01*
X180594000Y-191262000D02*
X180072000Y-190740000D01*
X180072000Y-190740000D02*
X180072000Y-189509000D01*
X192275000Y-190627000D02*
X190680000Y-190627000D01*
X190680000Y-190627000D02*
X190299000Y-191008000D01*
D36*
X174740000Y-194056000D02*
X176657000Y-194056000D01*
X176657000Y-194056000D02*
X178181000Y-192532000D01*
X178181000Y-192532000D02*
X178181000Y-186436000D01*
X178181000Y-186436000D02*
X177603500Y-185858500D01*
X176530000Y-186372500D02*
X177089500Y-186372500D01*
X177089500Y-186372500D02*
X177603500Y-185858500D01*
X177603500Y-185858500D02*
X178816000Y-184646000D01*
X180340000Y-184646000D02*
X180340000Y-185674000D01*
X180340000Y-185674000D02*
X182372000Y-187706000D01*
X182372000Y-187706000D02*
X182372000Y-189509000D01*
X178816000Y-184646000D02*
X180340000Y-184646000D01*
D38*
X207010000Y-167640000D02*
X208280000Y-167640000D01*
X208280000Y-167640000D02*
X208927000Y-168287000D01*
X208927000Y-168287000D02*
X209804000Y-168287000D01*
X204077000Y-169418000D02*
X204089000Y-169418000D01*
X204089000Y-169418000D02*
X205867000Y-167640000D01*
X205867000Y-167640000D02*
X207010000Y-167640000D01*
D36*
X171450000Y-191516000D02*
X169470000Y-191516000D01*
X169470000Y-191516000D02*
X168454000Y-190500000D01*
D37*
X168454000Y-194564000D02*
X168454000Y-190500000D01*
D36*
X171450000Y-191516000D02*
X171450000Y-192266000D01*
X171450000Y-192266000D02*
X173240000Y-194056000D01*
X174740000Y-176276000D02*
X174740000Y-176034000D01*
X174740000Y-176034000D02*
X176530000Y-174244000D01*
D39*
X179832000Y-174752000D02*
X179832000Y-174625000D01*
X179832000Y-174625000D02*
X180213000Y-174244000D01*
D36*
X176530000Y-174244000D02*
X180213000Y-174244000D01*
X180213000Y-174244000D02*
X181737000Y-174244000D01*
X181737000Y-174244000D02*
X182372000Y-173609000D01*
X182372000Y-173609000D02*
X182372000Y-172568000D01*
D39*
X180340000Y-183146000D02*
X180340000Y-182626000D01*
X180340000Y-182626000D02*
X179832000Y-182118000D01*
X179832000Y-182118000D02*
X179832000Y-174752000D01*
D38*
X171450000Y-178562000D02*
X169545000Y-176657000D01*
X169545000Y-176657000D02*
X169545000Y-173101000D01*
X169545000Y-173101000D02*
X168454000Y-172010000D01*
X168454000Y-172010000D02*
X168454000Y-170180000D01*
D37*
X168454000Y-166116000D02*
X168454000Y-170180000D01*
D36*
X171450000Y-188976000D02*
X171450000Y-186372500D01*
X173990000Y-188976000D02*
X171450000Y-188976000D01*
X173240000Y-176276000D02*
X173240000Y-176772000D01*
X173240000Y-176772000D02*
X171450000Y-178562000D01*
X176530000Y-191516000D02*
X173990000Y-191516000D01*
X176530000Y-188976000D02*
X176530000Y-191516000D01*
G36*
X160811814Y-204097708D02*
X160839467Y-204103308D01*
X160756000Y-204304816D01*
X160756000Y-204516500D01*
X160943500Y-204704000D01*
X162056000Y-204704000D01*
X162056000Y-204684000D01*
X162556000Y-204684000D01*
X162556000Y-204704000D01*
X162576000Y-204704000D01*
X162576000Y-205204000D01*
X162556000Y-205204000D01*
X162556000Y-206016500D01*
X162743500Y-206204000D01*
X163042930Y-206204000D01*
X163139742Y-206718511D01*
X163523011Y-207314129D01*
X164107814Y-207713708D01*
X164415422Y-207776000D01*
X146300000Y-207776000D01*
X146300000Y-204823055D01*
X146618010Y-205298990D01*
X147410010Y-206090990D01*
X148139962Y-206578729D01*
X148637376Y-206677671D01*
X148841011Y-206994129D01*
X149425814Y-207393708D01*
X150120000Y-207534284D01*
X153720000Y-207534284D01*
X154368511Y-207412258D01*
X154453203Y-207357760D01*
X154505814Y-207393708D01*
X155200000Y-207534284D01*
X158800000Y-207534284D01*
X159448511Y-207412258D01*
X160044129Y-207028989D01*
X160443708Y-206444186D01*
X160584284Y-205750000D01*
X160584284Y-205391500D01*
X160756000Y-205391500D01*
X160756000Y-205603184D01*
X160870181Y-205878841D01*
X161081159Y-206089819D01*
X161356815Y-206204000D01*
X161868500Y-206204000D01*
X162056000Y-206016500D01*
X162056000Y-205204000D01*
X160943500Y-205204000D01*
X160756000Y-205391500D01*
X160584284Y-205391500D01*
X160584284Y-203942243D01*
X160811814Y-204097708D01*
X160811814Y-204097708D01*
G37*
X160811814Y-204097708D02*
X160839467Y-204103308D01*
X160756000Y-204304816D01*
X160756000Y-204516500D01*
X160943500Y-204704000D01*
X162056000Y-204704000D01*
X162056000Y-204684000D01*
X162556000Y-204684000D01*
X162556000Y-204704000D01*
X162576000Y-204704000D01*
X162576000Y-205204000D01*
X162556000Y-205204000D01*
X162556000Y-206016500D01*
X162743500Y-206204000D01*
X163042930Y-206204000D01*
X163139742Y-206718511D01*
X163523011Y-207314129D01*
X164107814Y-207713708D01*
X164415422Y-207776000D01*
X146300000Y-207776000D01*
X146300000Y-204823055D01*
X146618010Y-205298990D01*
X147410010Y-206090990D01*
X148139962Y-206578729D01*
X148637376Y-206677671D01*
X148841011Y-206994129D01*
X149425814Y-207393708D01*
X150120000Y-207534284D01*
X153720000Y-207534284D01*
X154368511Y-207412258D01*
X154453203Y-207357760D01*
X154505814Y-207393708D01*
X155200000Y-207534284D01*
X158800000Y-207534284D01*
X159448511Y-207412258D01*
X160044129Y-207028989D01*
X160443708Y-206444186D01*
X160584284Y-205750000D01*
X160584284Y-205391500D01*
X160756000Y-205391500D01*
X160756000Y-205603184D01*
X160870181Y-205878841D01*
X161081159Y-206089819D01*
X161356815Y-206204000D01*
X161868500Y-206204000D01*
X162056000Y-206016500D01*
X162056000Y-205204000D01*
X160943500Y-205204000D01*
X160756000Y-205391500D01*
X160584284Y-205391500D01*
X160584284Y-203942243D01*
X160811814Y-204097708D01*
G36*
X221746000Y-207776000D02*
X166218043Y-207776000D01*
X166450511Y-207732258D01*
X167046129Y-207348989D01*
X167445708Y-206764186D01*
X167586284Y-206070000D01*
X167586284Y-204907500D01*
X170252000Y-204907500D01*
X170252000Y-206219185D01*
X170366181Y-206494841D01*
X170577159Y-206705819D01*
X170852816Y-206820000D01*
X171064500Y-206820000D01*
X171252000Y-206632500D01*
X171252000Y-204720000D01*
X171752000Y-204720000D01*
X171752000Y-206632500D01*
X171939500Y-206820000D01*
X172151184Y-206820000D01*
X172426841Y-206705819D01*
X172637819Y-206494841D01*
X172752000Y-206219185D01*
X172752000Y-204907500D01*
X172564500Y-204720000D01*
X171752000Y-204720000D01*
X171252000Y-204720000D01*
X170439500Y-204720000D01*
X170252000Y-204907500D01*
X167586284Y-204907500D01*
X167586284Y-202870000D01*
X167558213Y-202720815D01*
X170252000Y-202720815D01*
X170252000Y-204032500D01*
X170439500Y-204220000D01*
X171252000Y-204220000D01*
X171252000Y-202307500D01*
X171752000Y-202307500D01*
X171752000Y-204220000D01*
X172564500Y-204220000D01*
X172752000Y-204032500D01*
X172752000Y-202720815D01*
X172637819Y-202445159D01*
X172426841Y-202234181D01*
X172151184Y-202120000D01*
X171939500Y-202120000D01*
X171752000Y-202307500D01*
X171252000Y-202307500D01*
X171064500Y-202120000D01*
X170852816Y-202120000D01*
X170577159Y-202234181D01*
X170366181Y-202445159D01*
X170252000Y-202720815D01*
X167558213Y-202720815D01*
X167464258Y-202221489D01*
X167080989Y-201625871D01*
X166993781Y-201566284D01*
X167715000Y-201566284D01*
X168363511Y-201444258D01*
X168848775Y-201132000D01*
X170561000Y-201132000D01*
X171422038Y-200960729D01*
X171443333Y-200946500D01*
X172313000Y-200946500D01*
X172313000Y-201158184D01*
X172427181Y-201433841D01*
X172638159Y-201644819D01*
X172913815Y-201759000D01*
X173425500Y-201759000D01*
X173613000Y-201571500D01*
X173613000Y-200759000D01*
X174113000Y-200759000D01*
X174113000Y-201571500D01*
X174300500Y-201759000D01*
X174812185Y-201759000D01*
X175087841Y-201644819D01*
X175298819Y-201433841D01*
X175413000Y-201158184D01*
X175413000Y-200946500D01*
X175225500Y-200759000D01*
X174113000Y-200759000D01*
X173613000Y-200759000D01*
X172500500Y-200759000D01*
X172313000Y-200946500D01*
X171443333Y-200946500D01*
X172151990Y-200472990D01*
X172433240Y-200191740D01*
X172500500Y-200259000D01*
X173613000Y-200259000D01*
X173613000Y-200239000D01*
X174113000Y-200239000D01*
X174113000Y-200259000D01*
X175225500Y-200259000D01*
X175413000Y-200071500D01*
X175413000Y-200057981D01*
X176082009Y-200726990D01*
X176748145Y-201172088D01*
X176811962Y-201214729D01*
X177665907Y-201384589D01*
X177034575Y-202014821D01*
X176500609Y-203300753D01*
X176499394Y-204693139D01*
X177031114Y-205980001D01*
X178014821Y-206965425D01*
X179300753Y-207499391D01*
X180693139Y-207500606D01*
X181980001Y-206968886D01*
X182965425Y-205985179D01*
X183499391Y-204699247D01*
X183500606Y-203306861D01*
X182968886Y-202019999D01*
X182335992Y-201386000D01*
X184234020Y-201386000D01*
X184896000Y-202047980D01*
X184896000Y-202065700D01*
X184861716Y-202235000D01*
X184861716Y-205435000D01*
X184983742Y-206083511D01*
X185367011Y-206679129D01*
X185951814Y-207078708D01*
X186646000Y-207219284D01*
X187646000Y-207219284D01*
X188294511Y-207097258D01*
X188890129Y-206713989D01*
X189289708Y-206129186D01*
X189430284Y-205435000D01*
X189430284Y-204272500D01*
X192096000Y-204272500D01*
X192096000Y-205584185D01*
X192210181Y-205859841D01*
X192421159Y-206070819D01*
X192696816Y-206185000D01*
X192908500Y-206185000D01*
X193096000Y-205997500D01*
X193096000Y-204085000D01*
X193596000Y-204085000D01*
X193596000Y-205997500D01*
X193783500Y-206185000D01*
X193995184Y-206185000D01*
X194270841Y-206070819D01*
X194481819Y-205859841D01*
X194596000Y-205584185D01*
X194596000Y-204693139D01*
X196499394Y-204693139D01*
X197031114Y-205980001D01*
X198014821Y-206965425D01*
X199300753Y-207499391D01*
X200693139Y-207500606D01*
X201980001Y-206968886D01*
X202965425Y-205985179D01*
X203499391Y-204699247D01*
X203500606Y-203306861D01*
X202968886Y-202019999D01*
X201985179Y-201034575D01*
X200699247Y-200500609D01*
X199306861Y-200499394D01*
X198019999Y-201031114D01*
X197034575Y-202014821D01*
X196500609Y-203300753D01*
X196499394Y-204693139D01*
X194596000Y-204693139D01*
X194596000Y-204272500D01*
X194408500Y-204085000D01*
X193596000Y-204085000D01*
X193096000Y-204085000D01*
X192283500Y-204085000D01*
X192096000Y-204272500D01*
X189430284Y-204272500D01*
X189430284Y-202235000D01*
X189402213Y-202085815D01*
X192096000Y-202085815D01*
X192096000Y-203397500D01*
X192283500Y-203585000D01*
X193096000Y-203585000D01*
X193096000Y-201672500D01*
X193596000Y-201672500D01*
X193596000Y-203585000D01*
X194408500Y-203585000D01*
X194596000Y-203397500D01*
X194596000Y-202085815D01*
X194481819Y-201810159D01*
X194270841Y-201599181D01*
X193995184Y-201485000D01*
X193783500Y-201485000D01*
X193596000Y-201672500D01*
X193096000Y-201672500D01*
X192908500Y-201485000D01*
X192696816Y-201485000D01*
X192421159Y-201599181D01*
X192210181Y-201810159D01*
X192096000Y-202085815D01*
X189402213Y-202085815D01*
X189396000Y-202052797D01*
X189396000Y-201116000D01*
X189224729Y-200254962D01*
X188736990Y-199525010D01*
X187175984Y-197964004D01*
X211889550Y-197964004D01*
X212359371Y-198559839D01*
X214114010Y-199261327D01*
X216003533Y-199237946D01*
X217640629Y-198559839D01*
X218110450Y-197964004D01*
X215000000Y-194853553D01*
X211889550Y-197964004D01*
X187175984Y-197964004D01*
X186756990Y-197545010D01*
X186027038Y-197057271D01*
X186006822Y-197053250D01*
X186056284Y-196809000D01*
X186056284Y-194809000D01*
X185980116Y-194404202D01*
X186407441Y-194581643D01*
X187222981Y-194582355D01*
X187423703Y-194499419D01*
X187470142Y-194545858D01*
X188102767Y-194968565D01*
X188491381Y-195045865D01*
X188805814Y-195260708D01*
X189500000Y-195401284D01*
X190000000Y-195401284D01*
X190518355Y-195303749D01*
X191000000Y-195401284D01*
X191500000Y-195401284D01*
X192148511Y-195279258D01*
X192744129Y-194895989D01*
X193143708Y-194311186D01*
X193214852Y-193959864D01*
X193577302Y-193597414D01*
X193695925Y-193575094D01*
X194245000Y-193686284D01*
X195905000Y-193686284D01*
X196289102Y-193614010D01*
X210238673Y-193614010D01*
X210262054Y-195503533D01*
X210940161Y-197140629D01*
X211535996Y-197610450D01*
X214646447Y-194500000D01*
X215353553Y-194500000D01*
X218464004Y-197610450D01*
X219059839Y-197140629D01*
X219761327Y-195385990D01*
X219737946Y-193496467D01*
X219059839Y-191859371D01*
X218464004Y-191389550D01*
X215353553Y-194500000D01*
X214646447Y-194500000D01*
X211535996Y-191389550D01*
X210940161Y-191859371D01*
X210238673Y-193614010D01*
X196289102Y-193614010D01*
X196553511Y-193564258D01*
X197149129Y-193180989D01*
X197548708Y-192596186D01*
X197689284Y-191902000D01*
X197689284Y-191252000D01*
X197660023Y-191096493D01*
X197672274Y-191035996D01*
X211889550Y-191035996D01*
X215000000Y-194146447D01*
X218110450Y-191035996D01*
X217640629Y-190440161D01*
X215885990Y-189738673D01*
X213996467Y-189762054D01*
X212359371Y-190440161D01*
X211889550Y-191035996D01*
X197672274Y-191035996D01*
X197689284Y-190952000D01*
X197689284Y-190466044D01*
X198016565Y-189976233D01*
X198032425Y-189896501D01*
X198165000Y-189230000D01*
X198165000Y-187590284D01*
X198318000Y-187590284D01*
X198966511Y-187468258D01*
X199562129Y-187084989D01*
X199618006Y-187003210D01*
X216260344Y-187003210D01*
X216455226Y-187365171D01*
X217394914Y-187690962D01*
X218387748Y-187632351D01*
X219032774Y-187365171D01*
X219227656Y-187003210D01*
X217744000Y-185519553D01*
X216260344Y-187003210D01*
X199618006Y-187003210D01*
X199961708Y-186500186D01*
X200066959Y-185980438D01*
X200225503Y-185874503D01*
X201283092Y-184816914D01*
X215219038Y-184816914D01*
X215277649Y-185809748D01*
X215544829Y-186454774D01*
X215906790Y-186649656D01*
X217390447Y-185166000D01*
X218097553Y-185166000D01*
X219581210Y-186649656D01*
X219943171Y-186454774D01*
X220268962Y-185515086D01*
X220210351Y-184522252D01*
X219943171Y-183877226D01*
X219581210Y-183682344D01*
X218097553Y-185166000D01*
X217390447Y-185166000D01*
X215906790Y-183682344D01*
X215544829Y-183877226D01*
X215219038Y-184816914D01*
X201283092Y-184816914D01*
X201368503Y-184731503D01*
X201780371Y-184115099D01*
X201925000Y-183388000D01*
X201925000Y-181908284D01*
X203016000Y-181908284D01*
X203664511Y-181786258D01*
X204222999Y-181426882D01*
X204721814Y-181767708D01*
X205416000Y-181908284D01*
X208307130Y-181908284D01*
X208326742Y-182012511D01*
X208710011Y-182608129D01*
X209239000Y-182969572D01*
X209239000Y-183013184D01*
X209353181Y-183288841D01*
X209564159Y-183499819D01*
X209839815Y-183614000D01*
X210026500Y-183614000D01*
X210214000Y-183426500D01*
X210214000Y-183148284D01*
X210664000Y-183148284D01*
X210664000Y-183426500D01*
X210851500Y-183614000D01*
X211038185Y-183614000D01*
X211313841Y-183499819D01*
X211458603Y-183355057D01*
X211554979Y-183381468D01*
X211913662Y-183022785D01*
X212064645Y-183085478D01*
X212557645Y-183085908D01*
X211908532Y-183735021D01*
X211979395Y-183993604D01*
X212554867Y-184151488D01*
X213146953Y-184077131D01*
X213348605Y-183993604D01*
X213419468Y-183735021D01*
X212770541Y-183086094D01*
X213258119Y-183086519D01*
X213413762Y-183022209D01*
X213773021Y-183381468D01*
X213965245Y-183328790D01*
X216260344Y-183328790D01*
X217744000Y-184812447D01*
X219227656Y-183328790D01*
X219032774Y-182966829D01*
X218093086Y-182641038D01*
X217100252Y-182699649D01*
X216455226Y-182966829D01*
X216260344Y-183328790D01*
X213965245Y-183328790D01*
X214031604Y-183310605D01*
X214189488Y-182735133D01*
X214185495Y-182703335D01*
X214361143Y-182630759D01*
X215205793Y-181787582D01*
X215663478Y-180685355D01*
X215664519Y-179491881D01*
X215208759Y-178388857D01*
X215108621Y-178288544D01*
X215111608Y-178284414D01*
X215133874Y-178188933D01*
X215176595Y-176843210D01*
X216260344Y-176843210D01*
X216455226Y-177205171D01*
X217394914Y-177530962D01*
X218387748Y-177472351D01*
X219032774Y-177205171D01*
X219227656Y-176843210D01*
X217744000Y-175359553D01*
X216260344Y-176843210D01*
X215176595Y-176843210D01*
X215236572Y-174953935D01*
X215277649Y-175649748D01*
X215544829Y-176294774D01*
X215906790Y-176489656D01*
X217390447Y-175006000D01*
X218097553Y-175006000D01*
X219581210Y-176489656D01*
X219943171Y-176294774D01*
X220268962Y-175355086D01*
X220210351Y-174362252D01*
X219943171Y-173717226D01*
X219581210Y-173522344D01*
X218097553Y-175006000D01*
X217390447Y-175006000D01*
X215906790Y-173522344D01*
X215544829Y-173717226D01*
X215248719Y-174571303D01*
X215293243Y-173168790D01*
X216260344Y-173168790D01*
X217744000Y-174652447D01*
X219227656Y-173168790D01*
X219032774Y-172806829D01*
X218093086Y-172481038D01*
X217100252Y-172539649D01*
X216455226Y-172806829D01*
X216260344Y-173168790D01*
X215293243Y-173168790D01*
X215364538Y-170923033D01*
X215381599Y-170919639D01*
X216154000Y-170403537D01*
X216926401Y-170919639D01*
X218074451Y-171148000D01*
X219313549Y-171148000D01*
X220461599Y-170919639D01*
X221434869Y-170269320D01*
X221746000Y-169803680D01*
X221746000Y-207776000D01*
X221746000Y-207776000D01*
G37*
X221746000Y-207776000D02*
X166218043Y-207776000D01*
X166450511Y-207732258D01*
X167046129Y-207348989D01*
X167445708Y-206764186D01*
X167586284Y-206070000D01*
X167586284Y-204907500D01*
X170252000Y-204907500D01*
X170252000Y-206219185D01*
X170366181Y-206494841D01*
X170577159Y-206705819D01*
X170852816Y-206820000D01*
X171064500Y-206820000D01*
X171252000Y-206632500D01*
X171252000Y-204720000D01*
X171752000Y-204720000D01*
X171752000Y-206632500D01*
X171939500Y-206820000D01*
X172151184Y-206820000D01*
X172426841Y-206705819D01*
X172637819Y-206494841D01*
X172752000Y-206219185D01*
X172752000Y-204907500D01*
X172564500Y-204720000D01*
X171752000Y-204720000D01*
X171252000Y-204720000D01*
X170439500Y-204720000D01*
X170252000Y-204907500D01*
X167586284Y-204907500D01*
X167586284Y-202870000D01*
X167558213Y-202720815D01*
X170252000Y-202720815D01*
X170252000Y-204032500D01*
X170439500Y-204220000D01*
X171252000Y-204220000D01*
X171252000Y-202307500D01*
X171752000Y-202307500D01*
X171752000Y-204220000D01*
X172564500Y-204220000D01*
X172752000Y-204032500D01*
X172752000Y-202720815D01*
X172637819Y-202445159D01*
X172426841Y-202234181D01*
X172151184Y-202120000D01*
X171939500Y-202120000D01*
X171752000Y-202307500D01*
X171252000Y-202307500D01*
X171064500Y-202120000D01*
X170852816Y-202120000D01*
X170577159Y-202234181D01*
X170366181Y-202445159D01*
X170252000Y-202720815D01*
X167558213Y-202720815D01*
X167464258Y-202221489D01*
X167080989Y-201625871D01*
X166993781Y-201566284D01*
X167715000Y-201566284D01*
X168363511Y-201444258D01*
X168848775Y-201132000D01*
X170561000Y-201132000D01*
X171422038Y-200960729D01*
X171443333Y-200946500D01*
X172313000Y-200946500D01*
X172313000Y-201158184D01*
X172427181Y-201433841D01*
X172638159Y-201644819D01*
X172913815Y-201759000D01*
X173425500Y-201759000D01*
X173613000Y-201571500D01*
X173613000Y-200759000D01*
X174113000Y-200759000D01*
X174113000Y-201571500D01*
X174300500Y-201759000D01*
X174812185Y-201759000D01*
X175087841Y-201644819D01*
X175298819Y-201433841D01*
X175413000Y-201158184D01*
X175413000Y-200946500D01*
X175225500Y-200759000D01*
X174113000Y-200759000D01*
X173613000Y-200759000D01*
X172500500Y-200759000D01*
X172313000Y-200946500D01*
X171443333Y-200946500D01*
X172151990Y-200472990D01*
X172433240Y-200191740D01*
X172500500Y-200259000D01*
X173613000Y-200259000D01*
X173613000Y-200239000D01*
X174113000Y-200239000D01*
X174113000Y-200259000D01*
X175225500Y-200259000D01*
X175413000Y-200071500D01*
X175413000Y-200057981D01*
X176082009Y-200726990D01*
X176748145Y-201172088D01*
X176811962Y-201214729D01*
X177665907Y-201384589D01*
X177034575Y-202014821D01*
X176500609Y-203300753D01*
X176499394Y-204693139D01*
X177031114Y-205980001D01*
X178014821Y-206965425D01*
X179300753Y-207499391D01*
X180693139Y-207500606D01*
X181980001Y-206968886D01*
X182965425Y-205985179D01*
X183499391Y-204699247D01*
X183500606Y-203306861D01*
X182968886Y-202019999D01*
X182335992Y-201386000D01*
X184234020Y-201386000D01*
X184896000Y-202047980D01*
X184896000Y-202065700D01*
X184861716Y-202235000D01*
X184861716Y-205435000D01*
X184983742Y-206083511D01*
X185367011Y-206679129D01*
X185951814Y-207078708D01*
X186646000Y-207219284D01*
X187646000Y-207219284D01*
X188294511Y-207097258D01*
X188890129Y-206713989D01*
X189289708Y-206129186D01*
X189430284Y-205435000D01*
X189430284Y-204272500D01*
X192096000Y-204272500D01*
X192096000Y-205584185D01*
X192210181Y-205859841D01*
X192421159Y-206070819D01*
X192696816Y-206185000D01*
X192908500Y-206185000D01*
X193096000Y-205997500D01*
X193096000Y-204085000D01*
X193596000Y-204085000D01*
X193596000Y-205997500D01*
X193783500Y-206185000D01*
X193995184Y-206185000D01*
X194270841Y-206070819D01*
X194481819Y-205859841D01*
X194596000Y-205584185D01*
X194596000Y-204693139D01*
X196499394Y-204693139D01*
X197031114Y-205980001D01*
X198014821Y-206965425D01*
X199300753Y-207499391D01*
X200693139Y-207500606D01*
X201980001Y-206968886D01*
X202965425Y-205985179D01*
X203499391Y-204699247D01*
X203500606Y-203306861D01*
X202968886Y-202019999D01*
X201985179Y-201034575D01*
X200699247Y-200500609D01*
X199306861Y-200499394D01*
X198019999Y-201031114D01*
X197034575Y-202014821D01*
X196500609Y-203300753D01*
X196499394Y-204693139D01*
X194596000Y-204693139D01*
X194596000Y-204272500D01*
X194408500Y-204085000D01*
X193596000Y-204085000D01*
X193096000Y-204085000D01*
X192283500Y-204085000D01*
X192096000Y-204272500D01*
X189430284Y-204272500D01*
X189430284Y-202235000D01*
X189402213Y-202085815D01*
X192096000Y-202085815D01*
X192096000Y-203397500D01*
X192283500Y-203585000D01*
X193096000Y-203585000D01*
X193096000Y-201672500D01*
X193596000Y-201672500D01*
X193596000Y-203585000D01*
X194408500Y-203585000D01*
X194596000Y-203397500D01*
X194596000Y-202085815D01*
X194481819Y-201810159D01*
X194270841Y-201599181D01*
X193995184Y-201485000D01*
X193783500Y-201485000D01*
X193596000Y-201672500D01*
X193096000Y-201672500D01*
X192908500Y-201485000D01*
X192696816Y-201485000D01*
X192421159Y-201599181D01*
X192210181Y-201810159D01*
X192096000Y-202085815D01*
X189402213Y-202085815D01*
X189396000Y-202052797D01*
X189396000Y-201116000D01*
X189224729Y-200254962D01*
X188736990Y-199525010D01*
X187175984Y-197964004D01*
X211889550Y-197964004D01*
X212359371Y-198559839D01*
X214114010Y-199261327D01*
X216003533Y-199237946D01*
X217640629Y-198559839D01*
X218110450Y-197964004D01*
X215000000Y-194853553D01*
X211889550Y-197964004D01*
X187175984Y-197964004D01*
X186756990Y-197545010D01*
X186027038Y-197057271D01*
X186006822Y-197053250D01*
X186056284Y-196809000D01*
X186056284Y-194809000D01*
X185980116Y-194404202D01*
X186407441Y-194581643D01*
X187222981Y-194582355D01*
X187423703Y-194499419D01*
X187470142Y-194545858D01*
X188102767Y-194968565D01*
X188491381Y-195045865D01*
X188805814Y-195260708D01*
X189500000Y-195401284D01*
X190000000Y-195401284D01*
X190518355Y-195303749D01*
X191000000Y-195401284D01*
X191500000Y-195401284D01*
X192148511Y-195279258D01*
X192744129Y-194895989D01*
X193143708Y-194311186D01*
X193214852Y-193959864D01*
X193577302Y-193597414D01*
X193695925Y-193575094D01*
X194245000Y-193686284D01*
X195905000Y-193686284D01*
X196289102Y-193614010D01*
X210238673Y-193614010D01*
X210262054Y-195503533D01*
X210940161Y-197140629D01*
X211535996Y-197610450D01*
X214646447Y-194500000D01*
X215353553Y-194500000D01*
X218464004Y-197610450D01*
X219059839Y-197140629D01*
X219761327Y-195385990D01*
X219737946Y-193496467D01*
X219059839Y-191859371D01*
X218464004Y-191389550D01*
X215353553Y-194500000D01*
X214646447Y-194500000D01*
X211535996Y-191389550D01*
X210940161Y-191859371D01*
X210238673Y-193614010D01*
X196289102Y-193614010D01*
X196553511Y-193564258D01*
X197149129Y-193180989D01*
X197548708Y-192596186D01*
X197689284Y-191902000D01*
X197689284Y-191252000D01*
X197660023Y-191096493D01*
X197672274Y-191035996D01*
X211889550Y-191035996D01*
X215000000Y-194146447D01*
X218110450Y-191035996D01*
X217640629Y-190440161D01*
X215885990Y-189738673D01*
X213996467Y-189762054D01*
X212359371Y-190440161D01*
X211889550Y-191035996D01*
X197672274Y-191035996D01*
X197689284Y-190952000D01*
X197689284Y-190466044D01*
X198016565Y-189976233D01*
X198032425Y-189896501D01*
X198165000Y-189230000D01*
X198165000Y-187590284D01*
X198318000Y-187590284D01*
X198966511Y-187468258D01*
X199562129Y-187084989D01*
X199618006Y-187003210D01*
X216260344Y-187003210D01*
X216455226Y-187365171D01*
X217394914Y-187690962D01*
X218387748Y-187632351D01*
X219032774Y-187365171D01*
X219227656Y-187003210D01*
X217744000Y-185519553D01*
X216260344Y-187003210D01*
X199618006Y-187003210D01*
X199961708Y-186500186D01*
X200066959Y-185980438D01*
X200225503Y-185874503D01*
X201283092Y-184816914D01*
X215219038Y-184816914D01*
X215277649Y-185809748D01*
X215544829Y-186454774D01*
X215906790Y-186649656D01*
X217390447Y-185166000D01*
X218097553Y-185166000D01*
X219581210Y-186649656D01*
X219943171Y-186454774D01*
X220268962Y-185515086D01*
X220210351Y-184522252D01*
X219943171Y-183877226D01*
X219581210Y-183682344D01*
X218097553Y-185166000D01*
X217390447Y-185166000D01*
X215906790Y-183682344D01*
X215544829Y-183877226D01*
X215219038Y-184816914D01*
X201283092Y-184816914D01*
X201368503Y-184731503D01*
X201780371Y-184115099D01*
X201925000Y-183388000D01*
X201925000Y-181908284D01*
X203016000Y-181908284D01*
X203664511Y-181786258D01*
X204222999Y-181426882D01*
X204721814Y-181767708D01*
X205416000Y-181908284D01*
X208307130Y-181908284D01*
X208326742Y-182012511D01*
X208710011Y-182608129D01*
X209239000Y-182969572D01*
X209239000Y-183013184D01*
X209353181Y-183288841D01*
X209564159Y-183499819D01*
X209839815Y-183614000D01*
X210026500Y-183614000D01*
X210214000Y-183426500D01*
X210214000Y-183148284D01*
X210664000Y-183148284D01*
X210664000Y-183426500D01*
X210851500Y-183614000D01*
X211038185Y-183614000D01*
X211313841Y-183499819D01*
X211458603Y-183355057D01*
X211554979Y-183381468D01*
X211913662Y-183022785D01*
X212064645Y-183085478D01*
X212557645Y-183085908D01*
X211908532Y-183735021D01*
X211979395Y-183993604D01*
X212554867Y-184151488D01*
X213146953Y-184077131D01*
X213348605Y-183993604D01*
X213419468Y-183735021D01*
X212770541Y-183086094D01*
X213258119Y-183086519D01*
X213413762Y-183022209D01*
X213773021Y-183381468D01*
X213965245Y-183328790D01*
X216260344Y-183328790D01*
X217744000Y-184812447D01*
X219227656Y-183328790D01*
X219032774Y-182966829D01*
X218093086Y-182641038D01*
X217100252Y-182699649D01*
X216455226Y-182966829D01*
X216260344Y-183328790D01*
X213965245Y-183328790D01*
X214031604Y-183310605D01*
X214189488Y-182735133D01*
X214185495Y-182703335D01*
X214361143Y-182630759D01*
X215205793Y-181787582D01*
X215663478Y-180685355D01*
X215664519Y-179491881D01*
X215208759Y-178388857D01*
X215108621Y-178288544D01*
X215111608Y-178284414D01*
X215133874Y-178188933D01*
X215176595Y-176843210D01*
X216260344Y-176843210D01*
X216455226Y-177205171D01*
X217394914Y-177530962D01*
X218387748Y-177472351D01*
X219032774Y-177205171D01*
X219227656Y-176843210D01*
X217744000Y-175359553D01*
X216260344Y-176843210D01*
X215176595Y-176843210D01*
X215236572Y-174953935D01*
X215277649Y-175649748D01*
X215544829Y-176294774D01*
X215906790Y-176489656D01*
X217390447Y-175006000D01*
X218097553Y-175006000D01*
X219581210Y-176489656D01*
X219943171Y-176294774D01*
X220268962Y-175355086D01*
X220210351Y-174362252D01*
X219943171Y-173717226D01*
X219581210Y-173522344D01*
X218097553Y-175006000D01*
X217390447Y-175006000D01*
X215906790Y-173522344D01*
X215544829Y-173717226D01*
X215248719Y-174571303D01*
X215293243Y-173168790D01*
X216260344Y-173168790D01*
X217744000Y-174652447D01*
X219227656Y-173168790D01*
X219032774Y-172806829D01*
X218093086Y-172481038D01*
X217100252Y-172539649D01*
X216455226Y-172806829D01*
X216260344Y-173168790D01*
X215293243Y-173168790D01*
X215364538Y-170923033D01*
X215381599Y-170919639D01*
X216154000Y-170403537D01*
X216926401Y-170919639D01*
X218074451Y-171148000D01*
X219313549Y-171148000D01*
X220461599Y-170919639D01*
X221434869Y-170269320D01*
X221746000Y-169803680D01*
X221746000Y-207776000D01*
G36*
X155232401Y-197111639D02*
X156174651Y-197299064D01*
X155473663Y-197531912D01*
X154879010Y-198046563D01*
X154549226Y-198726663D01*
X154674824Y-199034000D01*
X156770000Y-199034000D01*
X156770000Y-199014000D01*
X157270000Y-199014000D01*
X157270000Y-199034000D01*
X157290000Y-199034000D01*
X157290000Y-199534000D01*
X157270000Y-199534000D01*
X157270000Y-201284000D01*
X157820000Y-201284000D01*
X158566337Y-201036088D01*
X159160990Y-200521437D01*
X159455550Y-199913979D01*
X159552742Y-200430511D01*
X159838917Y-200875241D01*
X159721716Y-201454000D01*
X159721716Y-201761757D01*
X159494186Y-201606292D01*
X158800000Y-201465716D01*
X155200000Y-201465716D01*
X154551489Y-201587742D01*
X154466797Y-201642240D01*
X154414186Y-201606292D01*
X153720000Y-201465716D01*
X150459000Y-201465716D01*
X150459000Y-201200435D01*
X151120000Y-201420000D01*
X151670000Y-201420000D01*
X151670000Y-199670000D01*
X152170000Y-199670000D01*
X152170000Y-201420000D01*
X152720000Y-201420000D01*
X153466337Y-201172088D01*
X154060990Y-200657437D01*
X154390774Y-199977337D01*
X154335196Y-199841337D01*
X154549226Y-199841337D01*
X154879010Y-200521437D01*
X155473663Y-201036088D01*
X156220000Y-201284000D01*
X156770000Y-201284000D01*
X156770000Y-199534000D01*
X154674824Y-199534000D01*
X154549226Y-199841337D01*
X154335196Y-199841337D01*
X154265176Y-199670000D01*
X152170000Y-199670000D01*
X151670000Y-199670000D01*
X151650000Y-199670000D01*
X151650000Y-199170000D01*
X151670000Y-199170000D01*
X151670000Y-197420000D01*
X152170000Y-197420000D01*
X152170000Y-199170000D01*
X154265176Y-199170000D01*
X154390774Y-198862663D01*
X154060990Y-198182563D01*
X153466337Y-197667912D01*
X152720000Y-197420000D01*
X152170000Y-197420000D01*
X151670000Y-197420000D01*
X151120000Y-197420000D01*
X150459000Y-197639565D01*
X150459000Y-197172625D01*
X151300451Y-197340000D01*
X152539549Y-197340000D01*
X153687599Y-197111639D01*
X154460000Y-196595537D01*
X155232401Y-197111639D01*
X155232401Y-197111639D01*
G37*
X155232401Y-197111639D02*
X156174651Y-197299064D01*
X155473663Y-197531912D01*
X154879010Y-198046563D01*
X154549226Y-198726663D01*
X154674824Y-199034000D01*
X156770000Y-199034000D01*
X156770000Y-199014000D01*
X157270000Y-199014000D01*
X157270000Y-199034000D01*
X157290000Y-199034000D01*
X157290000Y-199534000D01*
X157270000Y-199534000D01*
X157270000Y-201284000D01*
X157820000Y-201284000D01*
X158566337Y-201036088D01*
X159160990Y-200521437D01*
X159455550Y-199913979D01*
X159552742Y-200430511D01*
X159838917Y-200875241D01*
X159721716Y-201454000D01*
X159721716Y-201761757D01*
X159494186Y-201606292D01*
X158800000Y-201465716D01*
X155200000Y-201465716D01*
X154551489Y-201587742D01*
X154466797Y-201642240D01*
X154414186Y-201606292D01*
X153720000Y-201465716D01*
X150459000Y-201465716D01*
X150459000Y-201200435D01*
X151120000Y-201420000D01*
X151670000Y-201420000D01*
X151670000Y-199670000D01*
X152170000Y-199670000D01*
X152170000Y-201420000D01*
X152720000Y-201420000D01*
X153466337Y-201172088D01*
X154060990Y-200657437D01*
X154390774Y-199977337D01*
X154335196Y-199841337D01*
X154549226Y-199841337D01*
X154879010Y-200521437D01*
X155473663Y-201036088D01*
X156220000Y-201284000D01*
X156770000Y-201284000D01*
X156770000Y-199534000D01*
X154674824Y-199534000D01*
X154549226Y-199841337D01*
X154335196Y-199841337D01*
X154265176Y-199670000D01*
X152170000Y-199670000D01*
X151670000Y-199670000D01*
X151650000Y-199670000D01*
X151650000Y-199170000D01*
X151670000Y-199170000D01*
X151670000Y-197420000D01*
X152170000Y-197420000D01*
X152170000Y-199170000D01*
X154265176Y-199170000D01*
X154390774Y-198862663D01*
X154060990Y-198182563D01*
X153466337Y-197667912D01*
X152720000Y-197420000D01*
X152170000Y-197420000D01*
X151670000Y-197420000D01*
X151120000Y-197420000D01*
X150459000Y-197639565D01*
X150459000Y-197172625D01*
X151300451Y-197340000D01*
X152539549Y-197340000D01*
X153687599Y-197111639D01*
X154460000Y-196595537D01*
X155232401Y-197111639D01*
G36*
X221746000Y-155475430D02*
X221188186Y-155094292D01*
X220494000Y-154953716D01*
X216894000Y-154953716D01*
X216245489Y-155075742D01*
X216160797Y-155130240D01*
X216108186Y-155094292D01*
X215414000Y-154953716D01*
X211814000Y-154953716D01*
X211165489Y-155075742D01*
X210569871Y-155459011D01*
X210170292Y-156043814D01*
X210029716Y-156738000D01*
X210029716Y-157743716D01*
X209354000Y-157743716D01*
X209171797Y-157778000D01*
X206998005Y-157778000D01*
X206998000Y-157777999D01*
X206232633Y-157930241D01*
X205583786Y-158363786D01*
X205583784Y-158363789D01*
X201051327Y-162896245D01*
X200823637Y-162744107D01*
X199847794Y-162550000D01*
X198932206Y-162550000D01*
X197956363Y-162744107D01*
X197129084Y-163296878D01*
X196576313Y-164124157D01*
X196382206Y-165100000D01*
X196576313Y-166075843D01*
X196772863Y-166370000D01*
X196576313Y-166664157D01*
X196382206Y-167640000D01*
X196576313Y-168615843D01*
X196772863Y-168910000D01*
X196576313Y-169204157D01*
X196548246Y-169345261D01*
X196472186Y-169293292D01*
X195778000Y-169152716D01*
X194118000Y-169152716D01*
X193727957Y-169226108D01*
X193526858Y-168925142D01*
X192513858Y-167912142D01*
X192301111Y-167769989D01*
X191881233Y-167489435D01*
X191135000Y-167341000D01*
X186041501Y-167341000D01*
X186056284Y-167268000D01*
X186056284Y-165268000D01*
X185934258Y-164619489D01*
X185550989Y-164023871D01*
X184966186Y-163624292D01*
X184272000Y-163483716D01*
X180472000Y-163483716D01*
X179823489Y-163605742D01*
X179227871Y-163989011D01*
X178828292Y-164573814D01*
X178687716Y-165268000D01*
X178687716Y-167168078D01*
X178669954Y-167186153D01*
X178629541Y-167317955D01*
X178581413Y-169964991D01*
X178077871Y-170289011D01*
X177887246Y-170568000D01*
X174650005Y-170568000D01*
X174650000Y-170567999D01*
X173884633Y-170720241D01*
X173235786Y-171153786D01*
X172749047Y-171640525D01*
X172350000Y-171559716D01*
X170761432Y-171559716D01*
X170738284Y-171536568D01*
X170738284Y-168580000D01*
X170704000Y-168397797D01*
X170704000Y-167885300D01*
X170738284Y-167716000D01*
X170738284Y-164516000D01*
X170616258Y-163867489D01*
X170232989Y-163271871D01*
X169648186Y-162872292D01*
X169414093Y-162824887D01*
X170373980Y-161865000D01*
X172766700Y-161865000D01*
X172936000Y-161899284D01*
X173576303Y-161899284D01*
X174177009Y-162499990D01*
X174837027Y-162941000D01*
X174906962Y-162987729D01*
X175768000Y-163159000D01*
X184404000Y-163159000D01*
X185265038Y-162987729D01*
X185994990Y-162499990D01*
X188609990Y-159884991D01*
X189097729Y-159155038D01*
X189146764Y-158908521D01*
X189162708Y-158885186D01*
X189303284Y-158191000D01*
X189303284Y-157028500D01*
X191969000Y-157028500D01*
X191969000Y-158340185D01*
X192083181Y-158615841D01*
X192294159Y-158826819D01*
X192569816Y-158941000D01*
X192781500Y-158941000D01*
X192969000Y-158753500D01*
X192969000Y-156841000D01*
X193469000Y-156841000D01*
X193469000Y-158753500D01*
X193656500Y-158941000D01*
X193868184Y-158941000D01*
X194143841Y-158826819D01*
X194354819Y-158615841D01*
X194469000Y-158340185D01*
X194469000Y-157193139D01*
X196499394Y-157193139D01*
X197031114Y-158480001D01*
X198014821Y-159465425D01*
X199300753Y-159999391D01*
X200693139Y-160000606D01*
X201980001Y-159468886D01*
X202965425Y-158485179D01*
X203499391Y-157199247D01*
X203500606Y-155806861D01*
X202968886Y-154519999D01*
X201985179Y-153534575D01*
X200699247Y-153000609D01*
X199306861Y-152999394D01*
X198019999Y-153531114D01*
X197034575Y-154514821D01*
X196500609Y-155800753D01*
X196499394Y-157193139D01*
X194469000Y-157193139D01*
X194469000Y-157028500D01*
X194281500Y-156841000D01*
X193469000Y-156841000D01*
X192969000Y-156841000D01*
X192156500Y-156841000D01*
X191969000Y-157028500D01*
X189303284Y-157028500D01*
X189303284Y-154991000D01*
X189275213Y-154841815D01*
X191969000Y-154841815D01*
X191969000Y-156153500D01*
X192156500Y-156341000D01*
X192969000Y-156341000D01*
X192969000Y-154428500D01*
X193469000Y-154428500D01*
X193469000Y-156341000D01*
X194281500Y-156341000D01*
X194469000Y-156153500D01*
X194469000Y-154841815D01*
X194354819Y-154566159D01*
X194143841Y-154355181D01*
X193868184Y-154241000D01*
X193656500Y-154241000D01*
X193469000Y-154428500D01*
X192969000Y-154428500D01*
X192781500Y-154241000D01*
X192569816Y-154241000D01*
X192294159Y-154355181D01*
X192083181Y-154566159D01*
X191969000Y-154841815D01*
X189275213Y-154841815D01*
X189181258Y-154342489D01*
X188797989Y-153746871D01*
X188213186Y-153347292D01*
X187519000Y-153206716D01*
X186519000Y-153206716D01*
X185870489Y-153328742D01*
X185274871Y-153712011D01*
X184875292Y-154296814D01*
X184734716Y-154991000D01*
X184734716Y-157396303D01*
X183472020Y-158659000D01*
X182791301Y-158659000D01*
X182965425Y-158485179D01*
X183499391Y-157199247D01*
X183500606Y-155806861D01*
X182968886Y-154519999D01*
X181985179Y-153534575D01*
X180699247Y-153000609D01*
X179306861Y-152999394D01*
X178019999Y-153531114D01*
X177034575Y-154514821D01*
X176500609Y-155800753D01*
X176499394Y-157193139D01*
X177031114Y-158480001D01*
X177209801Y-158659000D01*
X176699980Y-158659000D01*
X176064990Y-158024010D01*
X175335038Y-157536271D01*
X175321281Y-157533535D01*
X175230186Y-157471292D01*
X175202533Y-157465692D01*
X175286000Y-157264184D01*
X175286000Y-157052500D01*
X175098500Y-156865000D01*
X173986000Y-156865000D01*
X173986000Y-156885000D01*
X173486000Y-156885000D01*
X173486000Y-156865000D01*
X173466000Y-156865000D01*
X173466000Y-156365000D01*
X173486000Y-156365000D01*
X173486000Y-155552500D01*
X173986000Y-155552500D01*
X173986000Y-156365000D01*
X175098500Y-156365000D01*
X175286000Y-156177500D01*
X175286000Y-155965816D01*
X175171819Y-155690159D01*
X174960841Y-155479181D01*
X174685185Y-155365000D01*
X174173500Y-155365000D01*
X173986000Y-155552500D01*
X173486000Y-155552500D01*
X173298500Y-155365000D01*
X172786815Y-155365000D01*
X172752000Y-155379421D01*
X172752000Y-154206815D01*
X172637819Y-153931159D01*
X172426841Y-153720181D01*
X172151184Y-153606000D01*
X171939500Y-153606000D01*
X171752000Y-153793500D01*
X171752000Y-155706000D01*
X171772000Y-155706000D01*
X171772000Y-156206000D01*
X171752000Y-156206000D01*
X171752000Y-156226000D01*
X171252000Y-156226000D01*
X171252000Y-156206000D01*
X170439500Y-156206000D01*
X170252000Y-156393500D01*
X170252000Y-157365000D01*
X169442000Y-157365000D01*
X168580962Y-157536271D01*
X167851010Y-158024010D01*
X167059284Y-158815736D01*
X167445708Y-158250186D01*
X167586284Y-157556000D01*
X167586284Y-154356000D01*
X167558213Y-154206815D01*
X170252000Y-154206815D01*
X170252000Y-155518500D01*
X170439500Y-155706000D01*
X171252000Y-155706000D01*
X171252000Y-153793500D01*
X171064500Y-153606000D01*
X170852816Y-153606000D01*
X170577159Y-153720181D01*
X170366181Y-153931159D01*
X170252000Y-154206815D01*
X167558213Y-154206815D01*
X167464258Y-153707489D01*
X167080989Y-153111871D01*
X166496186Y-152712292D01*
X165802000Y-152571716D01*
X164802000Y-152571716D01*
X164153489Y-152693742D01*
X163557871Y-153077011D01*
X163158292Y-153661814D01*
X163096288Y-153968000D01*
X162743500Y-153968000D01*
X162556000Y-154155500D01*
X162556000Y-154968000D01*
X162576000Y-154968000D01*
X162576000Y-155468000D01*
X162556000Y-155468000D01*
X162556000Y-155488000D01*
X162056000Y-155488000D01*
X162056000Y-155468000D01*
X160943500Y-155468000D01*
X160756000Y-155655500D01*
X160756000Y-155867184D01*
X160839025Y-156067623D01*
X160535410Y-156262993D01*
X160619549Y-155840000D01*
X160391188Y-154691950D01*
X160308913Y-154568816D01*
X160756000Y-154568816D01*
X160756000Y-154780500D01*
X160943500Y-154968000D01*
X162056000Y-154968000D01*
X162056000Y-154155500D01*
X161868500Y-153968000D01*
X161356815Y-153968000D01*
X161081159Y-154082181D01*
X160870181Y-154293159D01*
X160756000Y-154568816D01*
X160308913Y-154568816D01*
X159740869Y-153718680D01*
X158767599Y-153068361D01*
X157619549Y-152840000D01*
X156380451Y-152840000D01*
X155232401Y-153068361D01*
X154460000Y-153584463D01*
X153687599Y-153068361D01*
X152539549Y-152840000D01*
X151300451Y-152840000D01*
X150152401Y-153068361D01*
X149179131Y-153718680D01*
X148528812Y-154691950D01*
X148300451Y-155840000D01*
X148528812Y-156988050D01*
X149179131Y-157961320D01*
X150152401Y-158611639D01*
X151300451Y-158840000D01*
X152539549Y-158840000D01*
X153687599Y-158611639D01*
X154460000Y-158095537D01*
X155232401Y-158611639D01*
X156380451Y-158840000D01*
X157619549Y-158840000D01*
X158767599Y-158611639D01*
X159721716Y-157974118D01*
X159721716Y-158718000D01*
X159843742Y-159366511D01*
X160056000Y-159696370D01*
X160056000Y-163490163D01*
X159494186Y-163106292D01*
X158800000Y-162965716D01*
X155200000Y-162965716D01*
X154551489Y-163087742D01*
X154466797Y-163142240D01*
X154414186Y-163106292D01*
X153720000Y-162965716D01*
X150120000Y-162965716D01*
X149471489Y-163087742D01*
X148875871Y-163471011D01*
X148476292Y-164055814D01*
X148335716Y-164750000D01*
X148335716Y-167250000D01*
X148457742Y-167898511D01*
X148841011Y-168494129D01*
X149425814Y-168893708D01*
X150120000Y-169034284D01*
X153720000Y-169034284D01*
X154368511Y-168912258D01*
X154453203Y-168857760D01*
X154505814Y-168893708D01*
X155200000Y-169034284D01*
X158800000Y-169034284D01*
X159448511Y-168912258D01*
X159970444Y-168576404D01*
X159969716Y-168580000D01*
X159969716Y-171780000D01*
X160004000Y-171962203D01*
X160004000Y-172629000D01*
X153987500Y-172629000D01*
X153126462Y-172800271D01*
X152396510Y-173288010D01*
X151361264Y-174323256D01*
X151277843Y-174121859D01*
X150941827Y-173957726D01*
X149639553Y-175260000D01*
X149653696Y-175274143D01*
X149300143Y-175627696D01*
X149286000Y-175613553D01*
X147983726Y-176915827D01*
X148147859Y-177251843D01*
X148474037Y-177360941D01*
X148289271Y-177637462D01*
X148118000Y-178498500D01*
X148118000Y-182308500D01*
X148289271Y-183169538D01*
X148393961Y-183326218D01*
X148147859Y-183428157D01*
X147983726Y-183764173D01*
X149286000Y-185066447D01*
X149300143Y-185052305D01*
X149515000Y-185267162D01*
X149515000Y-185572838D01*
X149300143Y-185787696D01*
X149286000Y-185773553D01*
X147983726Y-187075827D01*
X148147859Y-187411843D01*
X148996740Y-187695771D01*
X149515000Y-187659474D01*
X149515000Y-188425019D01*
X146618010Y-191322010D01*
X146300000Y-191797945D01*
X146300000Y-185130740D01*
X147010229Y-185130740D01*
X147072766Y-186023658D01*
X147294157Y-186558141D01*
X147630173Y-186722274D01*
X148932447Y-185420000D01*
X147630173Y-184117726D01*
X147294157Y-184281859D01*
X147010229Y-185130740D01*
X146300000Y-185130740D01*
X146300000Y-174970740D01*
X147010229Y-174970740D01*
X147072766Y-175863658D01*
X147294157Y-176398141D01*
X147630173Y-176562274D01*
X148932447Y-175260000D01*
X147630173Y-173957726D01*
X147294157Y-174121859D01*
X147010229Y-174970740D01*
X146300000Y-174970740D01*
X146300000Y-173604173D01*
X147983726Y-173604173D01*
X149286000Y-174906447D01*
X150588274Y-173604173D01*
X150424141Y-173268157D01*
X149575260Y-172984229D01*
X148682342Y-173046766D01*
X148147859Y-173268157D01*
X147983726Y-173604173D01*
X146300000Y-173604173D01*
X146300000Y-161441337D01*
X149549226Y-161441337D01*
X149879010Y-162121437D01*
X150473663Y-162636088D01*
X151220000Y-162884000D01*
X151770000Y-162884000D01*
X151770000Y-161134000D01*
X152270000Y-161134000D01*
X152270000Y-162884000D01*
X152820000Y-162884000D01*
X153566337Y-162636088D01*
X154160990Y-162121437D01*
X154473317Y-161477337D01*
X154529226Y-161477337D01*
X154859010Y-162157437D01*
X155453663Y-162672088D01*
X156200000Y-162920000D01*
X156750000Y-162920000D01*
X156750000Y-161170000D01*
X157250000Y-161170000D01*
X157250000Y-162920000D01*
X157800000Y-162920000D01*
X158546337Y-162672088D01*
X159140990Y-162157437D01*
X159470774Y-161477337D01*
X159345176Y-161170000D01*
X157250000Y-161170000D01*
X156750000Y-161170000D01*
X154654824Y-161170000D01*
X154529226Y-161477337D01*
X154473317Y-161477337D01*
X154490774Y-161441337D01*
X154365176Y-161134000D01*
X152270000Y-161134000D01*
X151770000Y-161134000D01*
X149674824Y-161134000D01*
X149549226Y-161441337D01*
X146300000Y-161441337D01*
X146300000Y-160326663D01*
X149549226Y-160326663D01*
X149674824Y-160634000D01*
X151770000Y-160634000D01*
X151770000Y-158884000D01*
X152270000Y-158884000D01*
X152270000Y-160634000D01*
X154365176Y-160634000D01*
X154476062Y-160362663D01*
X154529226Y-160362663D01*
X154654824Y-160670000D01*
X156750000Y-160670000D01*
X156750000Y-158920000D01*
X157250000Y-158920000D01*
X157250000Y-160670000D01*
X159345176Y-160670000D01*
X159470774Y-160362663D01*
X159140990Y-159682563D01*
X158546337Y-159167912D01*
X157800000Y-158920000D01*
X157250000Y-158920000D01*
X156750000Y-158920000D01*
X156200000Y-158920000D01*
X155453663Y-159167912D01*
X154859010Y-159682563D01*
X154529226Y-160362663D01*
X154476062Y-160362663D01*
X154490774Y-160326663D01*
X154160990Y-159646563D01*
X153566337Y-159131912D01*
X152820000Y-158884000D01*
X152270000Y-158884000D01*
X151770000Y-158884000D01*
X151220000Y-158884000D01*
X150473663Y-159131912D01*
X149879010Y-159646563D01*
X149549226Y-160326663D01*
X146300000Y-160326663D01*
X146300000Y-152269000D01*
X221746000Y-152269000D01*
X221746000Y-155475430D01*
X221746000Y-155475430D01*
G37*
X221746000Y-155475430D02*
X221188186Y-155094292D01*
X220494000Y-154953716D01*
X216894000Y-154953716D01*
X216245489Y-155075742D01*
X216160797Y-155130240D01*
X216108186Y-155094292D01*
X215414000Y-154953716D01*
X211814000Y-154953716D01*
X211165489Y-155075742D01*
X210569871Y-155459011D01*
X210170292Y-156043814D01*
X210029716Y-156738000D01*
X210029716Y-157743716D01*
X209354000Y-157743716D01*
X209171797Y-157778000D01*
X206998005Y-157778000D01*
X206998000Y-157777999D01*
X206232633Y-157930241D01*
X205583786Y-158363786D01*
X205583784Y-158363789D01*
X201051327Y-162896245D01*
X200823637Y-162744107D01*
X199847794Y-162550000D01*
X198932206Y-162550000D01*
X197956363Y-162744107D01*
X197129084Y-163296878D01*
X196576313Y-164124157D01*
X196382206Y-165100000D01*
X196576313Y-166075843D01*
X196772863Y-166370000D01*
X196576313Y-166664157D01*
X196382206Y-167640000D01*
X196576313Y-168615843D01*
X196772863Y-168910000D01*
X196576313Y-169204157D01*
X196548246Y-169345261D01*
X196472186Y-169293292D01*
X195778000Y-169152716D01*
X194118000Y-169152716D01*
X193727957Y-169226108D01*
X193526858Y-168925142D01*
X192513858Y-167912142D01*
X192301111Y-167769989D01*
X191881233Y-167489435D01*
X191135000Y-167341000D01*
X186041501Y-167341000D01*
X186056284Y-167268000D01*
X186056284Y-165268000D01*
X185934258Y-164619489D01*
X185550989Y-164023871D01*
X184966186Y-163624292D01*
X184272000Y-163483716D01*
X180472000Y-163483716D01*
X179823489Y-163605742D01*
X179227871Y-163989011D01*
X178828292Y-164573814D01*
X178687716Y-165268000D01*
X178687716Y-167168078D01*
X178669954Y-167186153D01*
X178629541Y-167317955D01*
X178581413Y-169964991D01*
X178077871Y-170289011D01*
X177887246Y-170568000D01*
X174650005Y-170568000D01*
X174650000Y-170567999D01*
X173884633Y-170720241D01*
X173235786Y-171153786D01*
X172749047Y-171640525D01*
X172350000Y-171559716D01*
X170761432Y-171559716D01*
X170738284Y-171536568D01*
X170738284Y-168580000D01*
X170704000Y-168397797D01*
X170704000Y-167885300D01*
X170738284Y-167716000D01*
X170738284Y-164516000D01*
X170616258Y-163867489D01*
X170232989Y-163271871D01*
X169648186Y-162872292D01*
X169414093Y-162824887D01*
X170373980Y-161865000D01*
X172766700Y-161865000D01*
X172936000Y-161899284D01*
X173576303Y-161899284D01*
X174177009Y-162499990D01*
X174837027Y-162941000D01*
X174906962Y-162987729D01*
X175768000Y-163159000D01*
X184404000Y-163159000D01*
X185265038Y-162987729D01*
X185994990Y-162499990D01*
X188609990Y-159884991D01*
X189097729Y-159155038D01*
X189146764Y-158908521D01*
X189162708Y-158885186D01*
X189303284Y-158191000D01*
X189303284Y-157028500D01*
X191969000Y-157028500D01*
X191969000Y-158340185D01*
X192083181Y-158615841D01*
X192294159Y-158826819D01*
X192569816Y-158941000D01*
X192781500Y-158941000D01*
X192969000Y-158753500D01*
X192969000Y-156841000D01*
X193469000Y-156841000D01*
X193469000Y-158753500D01*
X193656500Y-158941000D01*
X193868184Y-158941000D01*
X194143841Y-158826819D01*
X194354819Y-158615841D01*
X194469000Y-158340185D01*
X194469000Y-157193139D01*
X196499394Y-157193139D01*
X197031114Y-158480001D01*
X198014821Y-159465425D01*
X199300753Y-159999391D01*
X200693139Y-160000606D01*
X201980001Y-159468886D01*
X202965425Y-158485179D01*
X203499391Y-157199247D01*
X203500606Y-155806861D01*
X202968886Y-154519999D01*
X201985179Y-153534575D01*
X200699247Y-153000609D01*
X199306861Y-152999394D01*
X198019999Y-153531114D01*
X197034575Y-154514821D01*
X196500609Y-155800753D01*
X196499394Y-157193139D01*
X194469000Y-157193139D01*
X194469000Y-157028500D01*
X194281500Y-156841000D01*
X193469000Y-156841000D01*
X192969000Y-156841000D01*
X192156500Y-156841000D01*
X191969000Y-157028500D01*
X189303284Y-157028500D01*
X189303284Y-154991000D01*
X189275213Y-154841815D01*
X191969000Y-154841815D01*
X191969000Y-156153500D01*
X192156500Y-156341000D01*
X192969000Y-156341000D01*
X192969000Y-154428500D01*
X193469000Y-154428500D01*
X193469000Y-156341000D01*
X194281500Y-156341000D01*
X194469000Y-156153500D01*
X194469000Y-154841815D01*
X194354819Y-154566159D01*
X194143841Y-154355181D01*
X193868184Y-154241000D01*
X193656500Y-154241000D01*
X193469000Y-154428500D01*
X192969000Y-154428500D01*
X192781500Y-154241000D01*
X192569816Y-154241000D01*
X192294159Y-154355181D01*
X192083181Y-154566159D01*
X191969000Y-154841815D01*
X189275213Y-154841815D01*
X189181258Y-154342489D01*
X188797989Y-153746871D01*
X188213186Y-153347292D01*
X187519000Y-153206716D01*
X186519000Y-153206716D01*
X185870489Y-153328742D01*
X185274871Y-153712011D01*
X184875292Y-154296814D01*
X184734716Y-154991000D01*
X184734716Y-157396303D01*
X183472020Y-158659000D01*
X182791301Y-158659000D01*
X182965425Y-158485179D01*
X183499391Y-157199247D01*
X183500606Y-155806861D01*
X182968886Y-154519999D01*
X181985179Y-153534575D01*
X180699247Y-153000609D01*
X179306861Y-152999394D01*
X178019999Y-153531114D01*
X177034575Y-154514821D01*
X176500609Y-155800753D01*
X176499394Y-157193139D01*
X177031114Y-158480001D01*
X177209801Y-158659000D01*
X176699980Y-158659000D01*
X176064990Y-158024010D01*
X175335038Y-157536271D01*
X175321281Y-157533535D01*
X175230186Y-157471292D01*
X175202533Y-157465692D01*
X175286000Y-157264184D01*
X175286000Y-157052500D01*
X175098500Y-156865000D01*
X173986000Y-156865000D01*
X173986000Y-156885000D01*
X173486000Y-156885000D01*
X173486000Y-156865000D01*
X173466000Y-156865000D01*
X173466000Y-156365000D01*
X173486000Y-156365000D01*
X173486000Y-155552500D01*
X173986000Y-155552500D01*
X173986000Y-156365000D01*
X175098500Y-156365000D01*
X175286000Y-156177500D01*
X175286000Y-155965816D01*
X175171819Y-155690159D01*
X174960841Y-155479181D01*
X174685185Y-155365000D01*
X174173500Y-155365000D01*
X173986000Y-155552500D01*
X173486000Y-155552500D01*
X173298500Y-155365000D01*
X172786815Y-155365000D01*
X172752000Y-155379421D01*
X172752000Y-154206815D01*
X172637819Y-153931159D01*
X172426841Y-153720181D01*
X172151184Y-153606000D01*
X171939500Y-153606000D01*
X171752000Y-153793500D01*
X171752000Y-155706000D01*
X171772000Y-155706000D01*
X171772000Y-156206000D01*
X171752000Y-156206000D01*
X171752000Y-156226000D01*
X171252000Y-156226000D01*
X171252000Y-156206000D01*
X170439500Y-156206000D01*
X170252000Y-156393500D01*
X170252000Y-157365000D01*
X169442000Y-157365000D01*
X168580962Y-157536271D01*
X167851010Y-158024010D01*
X167059284Y-158815736D01*
X167445708Y-158250186D01*
X167586284Y-157556000D01*
X167586284Y-154356000D01*
X167558213Y-154206815D01*
X170252000Y-154206815D01*
X170252000Y-155518500D01*
X170439500Y-155706000D01*
X171252000Y-155706000D01*
X171252000Y-153793500D01*
X171064500Y-153606000D01*
X170852816Y-153606000D01*
X170577159Y-153720181D01*
X170366181Y-153931159D01*
X170252000Y-154206815D01*
X167558213Y-154206815D01*
X167464258Y-153707489D01*
X167080989Y-153111871D01*
X166496186Y-152712292D01*
X165802000Y-152571716D01*
X164802000Y-152571716D01*
X164153489Y-152693742D01*
X163557871Y-153077011D01*
X163158292Y-153661814D01*
X163096288Y-153968000D01*
X162743500Y-153968000D01*
X162556000Y-154155500D01*
X162556000Y-154968000D01*
X162576000Y-154968000D01*
X162576000Y-155468000D01*
X162556000Y-155468000D01*
X162556000Y-155488000D01*
X162056000Y-155488000D01*
X162056000Y-155468000D01*
X160943500Y-155468000D01*
X160756000Y-155655500D01*
X160756000Y-155867184D01*
X160839025Y-156067623D01*
X160535410Y-156262993D01*
X160619549Y-155840000D01*
X160391188Y-154691950D01*
X160308913Y-154568816D01*
X160756000Y-154568816D01*
X160756000Y-154780500D01*
X160943500Y-154968000D01*
X162056000Y-154968000D01*
X162056000Y-154155500D01*
X161868500Y-153968000D01*
X161356815Y-153968000D01*
X161081159Y-154082181D01*
X160870181Y-154293159D01*
X160756000Y-154568816D01*
X160308913Y-154568816D01*
X159740869Y-153718680D01*
X158767599Y-153068361D01*
X157619549Y-152840000D01*
X156380451Y-152840000D01*
X155232401Y-153068361D01*
X154460000Y-153584463D01*
X153687599Y-153068361D01*
X152539549Y-152840000D01*
X151300451Y-152840000D01*
X150152401Y-153068361D01*
X149179131Y-153718680D01*
X148528812Y-154691950D01*
X148300451Y-155840000D01*
X148528812Y-156988050D01*
X149179131Y-157961320D01*
X150152401Y-158611639D01*
X151300451Y-158840000D01*
X152539549Y-158840000D01*
X153687599Y-158611639D01*
X154460000Y-158095537D01*
X155232401Y-158611639D01*
X156380451Y-158840000D01*
X157619549Y-158840000D01*
X158767599Y-158611639D01*
X159721716Y-157974118D01*
X159721716Y-158718000D01*
X159843742Y-159366511D01*
X160056000Y-159696370D01*
X160056000Y-163490163D01*
X159494186Y-163106292D01*
X158800000Y-162965716D01*
X155200000Y-162965716D01*
X154551489Y-163087742D01*
X154466797Y-163142240D01*
X154414186Y-163106292D01*
X153720000Y-162965716D01*
X150120000Y-162965716D01*
X149471489Y-163087742D01*
X148875871Y-163471011D01*
X148476292Y-164055814D01*
X148335716Y-164750000D01*
X148335716Y-167250000D01*
X148457742Y-167898511D01*
X148841011Y-168494129D01*
X149425814Y-168893708D01*
X150120000Y-169034284D01*
X153720000Y-169034284D01*
X154368511Y-168912258D01*
X154453203Y-168857760D01*
X154505814Y-168893708D01*
X155200000Y-169034284D01*
X158800000Y-169034284D01*
X159448511Y-168912258D01*
X159970444Y-168576404D01*
X159969716Y-168580000D01*
X159969716Y-171780000D01*
X160004000Y-171962203D01*
X160004000Y-172629000D01*
X153987500Y-172629000D01*
X153126462Y-172800271D01*
X152396510Y-173288010D01*
X151361264Y-174323256D01*
X151277843Y-174121859D01*
X150941827Y-173957726D01*
X149639553Y-175260000D01*
X149653696Y-175274143D01*
X149300143Y-175627696D01*
X149286000Y-175613553D01*
X147983726Y-176915827D01*
X148147859Y-177251843D01*
X148474037Y-177360941D01*
X148289271Y-177637462D01*
X148118000Y-178498500D01*
X148118000Y-182308500D01*
X148289271Y-183169538D01*
X148393961Y-183326218D01*
X148147859Y-183428157D01*
X147983726Y-183764173D01*
X149286000Y-185066447D01*
X149300143Y-185052305D01*
X149515000Y-185267162D01*
X149515000Y-185572838D01*
X149300143Y-185787696D01*
X149286000Y-185773553D01*
X147983726Y-187075827D01*
X148147859Y-187411843D01*
X148996740Y-187695771D01*
X149515000Y-187659474D01*
X149515000Y-188425019D01*
X146618010Y-191322010D01*
X146300000Y-191797945D01*
X146300000Y-185130740D01*
X147010229Y-185130740D01*
X147072766Y-186023658D01*
X147294157Y-186558141D01*
X147630173Y-186722274D01*
X148932447Y-185420000D01*
X147630173Y-184117726D01*
X147294157Y-184281859D01*
X147010229Y-185130740D01*
X146300000Y-185130740D01*
X146300000Y-174970740D01*
X147010229Y-174970740D01*
X147072766Y-175863658D01*
X147294157Y-176398141D01*
X147630173Y-176562274D01*
X148932447Y-175260000D01*
X147630173Y-173957726D01*
X147294157Y-174121859D01*
X147010229Y-174970740D01*
X146300000Y-174970740D01*
X146300000Y-173604173D01*
X147983726Y-173604173D01*
X149286000Y-174906447D01*
X150588274Y-173604173D01*
X150424141Y-173268157D01*
X149575260Y-172984229D01*
X148682342Y-173046766D01*
X148147859Y-173268157D01*
X147983726Y-173604173D01*
X146300000Y-173604173D01*
X146300000Y-161441337D01*
X149549226Y-161441337D01*
X149879010Y-162121437D01*
X150473663Y-162636088D01*
X151220000Y-162884000D01*
X151770000Y-162884000D01*
X151770000Y-161134000D01*
X152270000Y-161134000D01*
X152270000Y-162884000D01*
X152820000Y-162884000D01*
X153566337Y-162636088D01*
X154160990Y-162121437D01*
X154473317Y-161477337D01*
X154529226Y-161477337D01*
X154859010Y-162157437D01*
X155453663Y-162672088D01*
X156200000Y-162920000D01*
X156750000Y-162920000D01*
X156750000Y-161170000D01*
X157250000Y-161170000D01*
X157250000Y-162920000D01*
X157800000Y-162920000D01*
X158546337Y-162672088D01*
X159140990Y-162157437D01*
X159470774Y-161477337D01*
X159345176Y-161170000D01*
X157250000Y-161170000D01*
X156750000Y-161170000D01*
X154654824Y-161170000D01*
X154529226Y-161477337D01*
X154473317Y-161477337D01*
X154490774Y-161441337D01*
X154365176Y-161134000D01*
X152270000Y-161134000D01*
X151770000Y-161134000D01*
X149674824Y-161134000D01*
X149549226Y-161441337D01*
X146300000Y-161441337D01*
X146300000Y-160326663D01*
X149549226Y-160326663D01*
X149674824Y-160634000D01*
X151770000Y-160634000D01*
X151770000Y-158884000D01*
X152270000Y-158884000D01*
X152270000Y-160634000D01*
X154365176Y-160634000D01*
X154476062Y-160362663D01*
X154529226Y-160362663D01*
X154654824Y-160670000D01*
X156750000Y-160670000D01*
X156750000Y-158920000D01*
X157250000Y-158920000D01*
X157250000Y-160670000D01*
X159345176Y-160670000D01*
X159470774Y-160362663D01*
X159140990Y-159682563D01*
X158546337Y-159167912D01*
X157800000Y-158920000D01*
X157250000Y-158920000D01*
X156750000Y-158920000D01*
X156200000Y-158920000D01*
X155453663Y-159167912D01*
X154859010Y-159682563D01*
X154529226Y-160362663D01*
X154476062Y-160362663D01*
X154490774Y-160326663D01*
X154160990Y-159646563D01*
X153566337Y-159131912D01*
X152820000Y-158884000D01*
X152270000Y-158884000D01*
X151770000Y-158884000D01*
X151220000Y-158884000D01*
X150473663Y-159131912D01*
X149879010Y-159646563D01*
X149549226Y-160326663D01*
X146300000Y-160326663D01*
X146300000Y-152269000D01*
X221746000Y-152269000D01*
X221746000Y-155475430D01*
G36*
X185948000Y-175264000D02*
X185968000Y-175264000D01*
X185968000Y-175764000D01*
X185948000Y-175764000D01*
X185948000Y-176876500D01*
X186135500Y-177064000D01*
X186347184Y-177064000D01*
X186547623Y-176980975D01*
X186857659Y-177462784D01*
X185926183Y-177496562D01*
X184950078Y-177900878D01*
X184663320Y-178340766D01*
X186690000Y-180367447D01*
X186704142Y-180353304D01*
X187057696Y-180706858D01*
X187043553Y-180721000D01*
X187057696Y-180735142D01*
X186704142Y-181088696D01*
X186690000Y-181074553D01*
X186675858Y-181088696D01*
X186322304Y-180735142D01*
X186336447Y-180721000D01*
X184309766Y-178694320D01*
X183869878Y-178981078D01*
X183734939Y-179343468D01*
X183518989Y-179007871D01*
X182934186Y-178608292D01*
X182240000Y-178467716D01*
X181732000Y-178467716D01*
X181732000Y-176244000D01*
X181736995Y-176244000D01*
X181737000Y-176244001D01*
X182502367Y-176091759D01*
X182712279Y-175951500D01*
X184448000Y-175951500D01*
X184448000Y-176463185D01*
X184562181Y-176738841D01*
X184773159Y-176949819D01*
X185048816Y-177064000D01*
X185260500Y-177064000D01*
X185448000Y-176876500D01*
X185448000Y-175764000D01*
X184635500Y-175764000D01*
X184448000Y-175951500D01*
X182712279Y-175951500D01*
X183151214Y-175658214D01*
X183534821Y-175274606D01*
X183536684Y-175274256D01*
X183922000Y-175352284D01*
X185422000Y-175352284D01*
X185948000Y-175253310D01*
X185948000Y-175264000D01*
X185948000Y-175264000D01*
G37*
X185948000Y-175264000D02*
X185968000Y-175264000D01*
X185968000Y-175764000D01*
X185948000Y-175764000D01*
X185948000Y-176876500D01*
X186135500Y-177064000D01*
X186347184Y-177064000D01*
X186547623Y-176980975D01*
X186857659Y-177462784D01*
X185926183Y-177496562D01*
X184950078Y-177900878D01*
X184663320Y-178340766D01*
X186690000Y-180367447D01*
X186704142Y-180353304D01*
X187057696Y-180706858D01*
X187043553Y-180721000D01*
X187057696Y-180735142D01*
X186704142Y-181088696D01*
X186690000Y-181074553D01*
X186675858Y-181088696D01*
X186322304Y-180735142D01*
X186336447Y-180721000D01*
X184309766Y-178694320D01*
X183869878Y-178981078D01*
X183734939Y-179343468D01*
X183518989Y-179007871D01*
X182934186Y-178608292D01*
X182240000Y-178467716D01*
X181732000Y-178467716D01*
X181732000Y-176244000D01*
X181736995Y-176244000D01*
X181737000Y-176244001D01*
X182502367Y-176091759D01*
X182712279Y-175951500D01*
X184448000Y-175951500D01*
X184448000Y-176463185D01*
X184562181Y-176738841D01*
X184773159Y-176949819D01*
X185048816Y-177064000D01*
X185260500Y-177064000D01*
X185448000Y-176876500D01*
X185448000Y-175764000D01*
X184635500Y-175764000D01*
X184448000Y-175951500D01*
X182712279Y-175951500D01*
X183151214Y-175658214D01*
X183534821Y-175274606D01*
X183536684Y-175274256D01*
X183922000Y-175352284D01*
X185422000Y-175352284D01*
X185948000Y-175253310D01*
X185948000Y-175264000D01*
G36*
X165497376Y-177209228D02*
X165496292Y-177210814D01*
X165355716Y-177905000D01*
X165355716Y-178562283D01*
X164945871Y-178826011D01*
X164546292Y-179410814D01*
X164461520Y-179829429D01*
X164110122Y-178981078D01*
X163670234Y-178694320D01*
X161643553Y-180721000D01*
X161657696Y-180735142D01*
X161304142Y-181088696D01*
X161290000Y-181074553D01*
X161275858Y-181088696D01*
X160922304Y-180735142D01*
X160936447Y-180721000D01*
X158909766Y-178694320D01*
X158469878Y-178981078D01*
X158018708Y-180192736D01*
X158041961Y-180833981D01*
X157366159Y-180158179D01*
X157366519Y-179745881D01*
X156910759Y-178642857D01*
X156067582Y-177798207D01*
X155867103Y-177714961D01*
X155817131Y-177317047D01*
X155739239Y-177129000D01*
X160979958Y-177129000D01*
X161409814Y-177422708D01*
X161584928Y-177458169D01*
X160526183Y-177496562D01*
X159550078Y-177900878D01*
X159263320Y-178340766D01*
X161290000Y-180367447D01*
X163316680Y-178340766D01*
X163029922Y-177900878D01*
X162123283Y-177563284D01*
X164204000Y-177563284D01*
X164852511Y-177441258D01*
X165359499Y-177115021D01*
X165497376Y-177209228D01*
X165497376Y-177209228D01*
G37*
X165497376Y-177209228D02*
X165496292Y-177210814D01*
X165355716Y-177905000D01*
X165355716Y-178562283D01*
X164945871Y-178826011D01*
X164546292Y-179410814D01*
X164461520Y-179829429D01*
X164110122Y-178981078D01*
X163670234Y-178694320D01*
X161643553Y-180721000D01*
X161657696Y-180735142D01*
X161304142Y-181088696D01*
X161290000Y-181074553D01*
X161275858Y-181088696D01*
X160922304Y-180735142D01*
X160936447Y-180721000D01*
X158909766Y-178694320D01*
X158469878Y-178981078D01*
X158018708Y-180192736D01*
X158041961Y-180833981D01*
X157366159Y-180158179D01*
X157366519Y-179745881D01*
X156910759Y-178642857D01*
X156067582Y-177798207D01*
X155867103Y-177714961D01*
X155817131Y-177317047D01*
X155739239Y-177129000D01*
X160979958Y-177129000D01*
X161409814Y-177422708D01*
X161584928Y-177458169D01*
X160526183Y-177496562D01*
X159550078Y-177900878D01*
X159263320Y-178340766D01*
X161290000Y-180367447D01*
X163316680Y-178340766D01*
X163029922Y-177900878D01*
X162123283Y-177563284D01*
X164204000Y-177563284D01*
X164852511Y-177441258D01*
X165359499Y-177115021D01*
X165497376Y-177209228D01*
G36*
X221746000Y-166492320D02*
X221434869Y-166026680D01*
X220461599Y-165376361D01*
X219313549Y-165148000D01*
X218074451Y-165148000D01*
X216926401Y-165376361D01*
X216154000Y-165892463D01*
X215381599Y-165376361D01*
X214233549Y-165148000D01*
X213442428Y-165148000D01*
X213362428Y-165068000D01*
X213364000Y-165068000D01*
X213364000Y-163318000D01*
X213864000Y-163318000D01*
X213864000Y-165068000D01*
X214414000Y-165068000D01*
X215160337Y-164820088D01*
X215754990Y-164305437D01*
X216084774Y-163625337D01*
X216223226Y-163625337D01*
X216553010Y-164305437D01*
X217147663Y-164820088D01*
X217894000Y-165068000D01*
X218444000Y-165068000D01*
X218444000Y-163318000D01*
X218944000Y-163318000D01*
X218944000Y-165068000D01*
X219494000Y-165068000D01*
X220240337Y-164820088D01*
X220834990Y-164305437D01*
X221164774Y-163625337D01*
X221039176Y-163318000D01*
X218944000Y-163318000D01*
X218444000Y-163318000D01*
X216348824Y-163318000D01*
X216223226Y-163625337D01*
X216084774Y-163625337D01*
X215959176Y-163318000D01*
X213864000Y-163318000D01*
X213364000Y-163318000D01*
X211268824Y-163318000D01*
X211143226Y-163625337D01*
X211473010Y-164305437D01*
X211533744Y-164358000D01*
X210962241Y-164358000D01*
X210889819Y-164183159D01*
X210678841Y-163972181D01*
X210403185Y-163858000D01*
X210216500Y-163858000D01*
X210054002Y-164020498D01*
X210054002Y-163858000D01*
X209911116Y-163858000D01*
X209872258Y-163651489D01*
X209488989Y-163055871D01*
X208904186Y-162656292D01*
X208210000Y-162515716D01*
X207088711Y-162515716D01*
X207826427Y-161778000D01*
X208645759Y-161778000D01*
X208718181Y-161952841D01*
X208929159Y-162163819D01*
X209204815Y-162278000D01*
X209391500Y-162278000D01*
X209579000Y-162090500D01*
X209579000Y-161812284D01*
X210029000Y-161812284D01*
X210029000Y-162090500D01*
X210216500Y-162278000D01*
X210403185Y-162278000D01*
X210678841Y-162163819D01*
X210889819Y-161952841D01*
X210962241Y-161778000D01*
X211533744Y-161778000D01*
X211473010Y-161830563D01*
X211143226Y-162510663D01*
X211268824Y-162818000D01*
X213364000Y-162818000D01*
X213364000Y-161068000D01*
X213864000Y-161068000D01*
X213864000Y-162818000D01*
X215959176Y-162818000D01*
X216084774Y-162510663D01*
X216223226Y-162510663D01*
X216348824Y-162818000D01*
X218444000Y-162818000D01*
X218444000Y-161068000D01*
X218944000Y-161068000D01*
X218944000Y-162818000D01*
X221039176Y-162818000D01*
X221164774Y-162510663D01*
X220834990Y-161830563D01*
X220240337Y-161315912D01*
X219494000Y-161068000D01*
X218944000Y-161068000D01*
X218444000Y-161068000D01*
X217894000Y-161068000D01*
X217147663Y-161315912D01*
X216553010Y-161830563D01*
X216223226Y-162510663D01*
X216084774Y-162510663D01*
X215754990Y-161830563D01*
X215160337Y-161315912D01*
X214414000Y-161068000D01*
X213864000Y-161068000D01*
X213364000Y-161068000D01*
X213362428Y-161068000D01*
X213408144Y-161022284D01*
X215414000Y-161022284D01*
X216062511Y-160900258D01*
X216147203Y-160845760D01*
X216199814Y-160881708D01*
X216894000Y-161022284D01*
X220494000Y-161022284D01*
X221142511Y-160900258D01*
X221738129Y-160516989D01*
X221746000Y-160505469D01*
X221746000Y-166492320D01*
X221746000Y-166492320D01*
G37*
X221746000Y-166492320D02*
X221434869Y-166026680D01*
X220461599Y-165376361D01*
X219313549Y-165148000D01*
X218074451Y-165148000D01*
X216926401Y-165376361D01*
X216154000Y-165892463D01*
X215381599Y-165376361D01*
X214233549Y-165148000D01*
X213442428Y-165148000D01*
X213362428Y-165068000D01*
X213364000Y-165068000D01*
X213364000Y-163318000D01*
X213864000Y-163318000D01*
X213864000Y-165068000D01*
X214414000Y-165068000D01*
X215160337Y-164820088D01*
X215754990Y-164305437D01*
X216084774Y-163625337D01*
X216223226Y-163625337D01*
X216553010Y-164305437D01*
X217147663Y-164820088D01*
X217894000Y-165068000D01*
X218444000Y-165068000D01*
X218444000Y-163318000D01*
X218944000Y-163318000D01*
X218944000Y-165068000D01*
X219494000Y-165068000D01*
X220240337Y-164820088D01*
X220834990Y-164305437D01*
X221164774Y-163625337D01*
X221039176Y-163318000D01*
X218944000Y-163318000D01*
X218444000Y-163318000D01*
X216348824Y-163318000D01*
X216223226Y-163625337D01*
X216084774Y-163625337D01*
X215959176Y-163318000D01*
X213864000Y-163318000D01*
X213364000Y-163318000D01*
X211268824Y-163318000D01*
X211143226Y-163625337D01*
X211473010Y-164305437D01*
X211533744Y-164358000D01*
X210962241Y-164358000D01*
X210889819Y-164183159D01*
X210678841Y-163972181D01*
X210403185Y-163858000D01*
X210216500Y-163858000D01*
X210054002Y-164020498D01*
X210054002Y-163858000D01*
X209911116Y-163858000D01*
X209872258Y-163651489D01*
X209488989Y-163055871D01*
X208904186Y-162656292D01*
X208210000Y-162515716D01*
X207088711Y-162515716D01*
X207826427Y-161778000D01*
X208645759Y-161778000D01*
X208718181Y-161952841D01*
X208929159Y-162163819D01*
X209204815Y-162278000D01*
X209391500Y-162278000D01*
X209579000Y-162090500D01*
X209579000Y-161812284D01*
X210029000Y-161812284D01*
X210029000Y-162090500D01*
X210216500Y-162278000D01*
X210403185Y-162278000D01*
X210678841Y-162163819D01*
X210889819Y-161952841D01*
X210962241Y-161778000D01*
X211533744Y-161778000D01*
X211473010Y-161830563D01*
X211143226Y-162510663D01*
X211268824Y-162818000D01*
X213364000Y-162818000D01*
X213364000Y-161068000D01*
X213864000Y-161068000D01*
X213864000Y-162818000D01*
X215959176Y-162818000D01*
X216084774Y-162510663D01*
X216223226Y-162510663D01*
X216348824Y-162818000D01*
X218444000Y-162818000D01*
X218444000Y-161068000D01*
X218944000Y-161068000D01*
X218944000Y-162818000D01*
X221039176Y-162818000D01*
X221164774Y-162510663D01*
X220834990Y-161830563D01*
X220240337Y-161315912D01*
X219494000Y-161068000D01*
X218944000Y-161068000D01*
X218444000Y-161068000D01*
X217894000Y-161068000D01*
X217147663Y-161315912D01*
X216553010Y-161830563D01*
X216223226Y-162510663D01*
X216084774Y-162510663D01*
X215754990Y-161830563D01*
X215160337Y-161315912D01*
X214414000Y-161068000D01*
X213864000Y-161068000D01*
X213364000Y-161068000D01*
X213362428Y-161068000D01*
X213408144Y-161022284D01*
X215414000Y-161022284D01*
X216062511Y-160900258D01*
X216147203Y-160845760D01*
X216199814Y-160881708D01*
X216894000Y-161022284D01*
X220494000Y-161022284D01*
X221142511Y-160900258D01*
X221738129Y-160516989D01*
X221746000Y-160505469D01*
X221746000Y-166492320D01*
M02*
