G04 #@! TF.FileFunction,Legend,Top*
%FSLAX46Y46*%
G04 Gerber Fmt 4.6, Leading zero omitted, Abs format (unit mm)*
G04 Created by KiCad (PCBNEW 4.0.2-stable) date 06/11/2017 10:09:17*
%MOMM*%
G01*
G04 APERTURE LIST*
%ADD10C,0.100000*%
%ADD11C,0.120000*%
%ADD12C,0.150000*%
G04 APERTURE END LIST*
D10*
D11*
X190516000Y-185366000D02*
X192516000Y-185366000D01*
X192516000Y-187506000D02*
X190516000Y-187506000D01*
D12*
X195788000Y-182831000D02*
G75*
G03X195788000Y-182831000I-100000J0D01*
G01*
X196338000Y-183081000D02*
X195838000Y-183081000D01*
X196338000Y-185981000D02*
X196338000Y-183081000D01*
X195838000Y-185981000D02*
X196338000Y-185981000D01*
X195838000Y-183081000D02*
X195838000Y-185981000D01*
D11*
X188198000Y-185797000D02*
X186198000Y-185797000D01*
X186198000Y-187837000D02*
X188198000Y-187837000D01*
X175850000Y-181602000D02*
X175850000Y-180602000D01*
X177210000Y-180602000D02*
X177210000Y-181602000D01*
D12*
X194175000Y-192327000D02*
G75*
G03X194175000Y-192327000I-100000J0D01*
G01*
X193425000Y-192077000D02*
X193925000Y-192077000D01*
X193425000Y-189177000D02*
X193425000Y-192077000D01*
X193925000Y-189177000D02*
X193425000Y-189177000D01*
X193925000Y-192077000D02*
X193925000Y-189177000D01*
D11*
X209124000Y-161028000D02*
X209124000Y-160028000D01*
X210484000Y-160028000D02*
X210484000Y-161028000D01*
X190000000Y-192487000D02*
X191000000Y-192487000D01*
X191000000Y-193847000D02*
X190000000Y-193847000D01*
X204566000Y-176622000D02*
X203866000Y-176622000D01*
X203866000Y-175422000D02*
X204566000Y-175422000D01*
X206666000Y-181524000D02*
X206166000Y-181524000D01*
X206666000Y-181524000D02*
X206666000Y-181024000D01*
X206666000Y-177124000D02*
X206166000Y-177124000D01*
X206666000Y-177124000D02*
X206666000Y-177624000D01*
X201766000Y-181524000D02*
X202266000Y-181524000D01*
X201766000Y-181524000D02*
X201766000Y-181024000D01*
X201766000Y-177124000D02*
X202266000Y-177124000D01*
X201766000Y-177124000D02*
X201766000Y-177624000D01*
X203042000Y-168240000D02*
X202342000Y-168240000D01*
X202342000Y-167040000D02*
X203042000Y-167040000D01*
X203612000Y-170596000D02*
X204312000Y-170596000D01*
X204312000Y-171796000D02*
X203612000Y-171796000D01*
X186198000Y-176534000D02*
X188198000Y-176534000D01*
X188198000Y-174494000D02*
X186198000Y-174494000D01*
X203042000Y-166716000D02*
X202342000Y-166716000D01*
X202342000Y-165516000D02*
X203042000Y-165516000D01*
X203612000Y-172120000D02*
X204312000Y-172120000D01*
X204312000Y-173320000D02*
X203612000Y-173320000D01*
X196438000Y-176876000D02*
X195738000Y-176876000D01*
X195738000Y-175676000D02*
X196438000Y-175676000D01*
X195738000Y-181391000D02*
X196438000Y-181391000D01*
X196438000Y-182591000D02*
X195738000Y-182591000D01*
X172716000Y-157115000D02*
X172716000Y-159115000D01*
X174756000Y-159115000D02*
X174756000Y-157115000D01*
X172843000Y-198009000D02*
X172843000Y-200009000D01*
X174883000Y-200009000D02*
X174883000Y-198009000D01*
X211119000Y-181364000D02*
X211119000Y-182364000D01*
X209759000Y-182364000D02*
X209759000Y-181364000D01*
X210484000Y-168537000D02*
X210484000Y-169537000D01*
X209124000Y-169537000D02*
X209124000Y-168537000D01*
X171002000Y-157776000D02*
X165802000Y-157776000D01*
X165802000Y-154136000D02*
X171002000Y-154136000D01*
X165802000Y-202650000D02*
X171002000Y-202650000D01*
X171002000Y-206290000D02*
X165802000Y-206290000D01*
X200742000Y-176268000D02*
X200742000Y-175268000D01*
X202102000Y-175268000D02*
X202102000Y-176268000D01*
X210484000Y-165108000D02*
X210484000Y-166108000D01*
X209124000Y-166108000D02*
X209124000Y-165108000D01*
X192516000Y-177600000D02*
X190516000Y-177600000D01*
X190516000Y-175460000D02*
X192516000Y-175460000D01*
X189476000Y-173654000D02*
X188476000Y-173654000D01*
X188476000Y-172294000D02*
X189476000Y-172294000D01*
X167954000Y-172000000D02*
X162754000Y-172000000D01*
X162754000Y-168360000D02*
X167954000Y-168360000D01*
X162754000Y-188680000D02*
X167954000Y-188680000D01*
X167954000Y-192320000D02*
X162754000Y-192320000D01*
X167954000Y-167936000D02*
X162754000Y-167936000D01*
X162754000Y-164296000D02*
X167954000Y-164296000D01*
X162754000Y-192744000D02*
X167954000Y-192744000D01*
X167954000Y-196384000D02*
X162754000Y-196384000D01*
X192719000Y-158411000D02*
X187519000Y-158411000D01*
X187519000Y-154771000D02*
X192719000Y-154771000D01*
X192846000Y-205655000D02*
X187646000Y-205655000D01*
X187646000Y-202015000D02*
X192846000Y-202015000D01*
X174072000Y-181602000D02*
X174072000Y-180602000D01*
X175432000Y-180602000D02*
X175432000Y-181602000D01*
X161286000Y-155718000D02*
X161286000Y-157718000D01*
X163326000Y-157718000D02*
X163326000Y-155718000D01*
X163326000Y-204454000D02*
X163326000Y-202454000D01*
X161286000Y-202454000D02*
X161286000Y-204454000D01*
D12*
X164454000Y-173479000D02*
X164454000Y-176279000D01*
X163054000Y-173479000D02*
X163054000Y-173779000D01*
X167654000Y-175979000D02*
X167654000Y-176279000D01*
X167654000Y-176279000D02*
X163054000Y-176279000D01*
X163054000Y-176279000D02*
X163054000Y-175979000D01*
X163054000Y-173479000D02*
X167654000Y-173479000D01*
X167654000Y-173479000D02*
X167654000Y-173779000D01*
X165365000Y-200282000D02*
X165365000Y-197482000D01*
X166765000Y-200282000D02*
X166765000Y-199982000D01*
X162165000Y-197782000D02*
X162165000Y-197482000D01*
X162165000Y-197482000D02*
X166765000Y-197482000D01*
X166765000Y-197482000D02*
X166765000Y-197782000D01*
X166765000Y-200282000D02*
X162165000Y-200282000D01*
X162165000Y-200282000D02*
X162165000Y-199982000D01*
X167340000Y-180405000D02*
X167940000Y-180405000D01*
X169240000Y-180405000D02*
X169240000Y-179005000D01*
X169240000Y-179005000D02*
X168240000Y-179005000D01*
X166940000Y-179005000D02*
X166040000Y-179005000D01*
X166040000Y-179005000D02*
X166040000Y-180405000D01*
X167340000Y-185866000D02*
X167940000Y-185866000D01*
X169240000Y-185866000D02*
X169240000Y-184466000D01*
X169240000Y-184466000D02*
X168240000Y-184466000D01*
X166940000Y-184466000D02*
X166040000Y-184466000D01*
X166040000Y-184466000D02*
X166040000Y-185866000D01*
D11*
X185782000Y-167508000D02*
X184522000Y-167508000D01*
X178962000Y-167508000D02*
X180222000Y-167508000D01*
X185782000Y-171268000D02*
X185782000Y-167508000D01*
X178962000Y-173518000D02*
X178962000Y-167508000D01*
X178962000Y-194569000D02*
X180222000Y-194569000D01*
X185782000Y-194569000D02*
X184522000Y-194569000D01*
X178962000Y-190809000D02*
X178962000Y-194569000D01*
X185782000Y-188559000D02*
X185782000Y-194569000D01*
X202827000Y-168738000D02*
X203827000Y-168738000D01*
X203827000Y-170098000D02*
X202827000Y-170098000D01*
X179340000Y-180032000D02*
X181340000Y-180032000D01*
X181340000Y-182172000D02*
X179340000Y-182172000D01*
X179496000Y-183396000D02*
X179496000Y-184396000D01*
X178136000Y-184396000D02*
X178136000Y-183396000D01*
D12*
X194048000Y-173912000D02*
G75*
G03X194048000Y-173912000I-100000J0D01*
G01*
X193298000Y-173662000D02*
X193798000Y-173662000D01*
X193298000Y-170762000D02*
X193298000Y-173662000D01*
X193798000Y-170762000D02*
X193298000Y-170762000D01*
X193798000Y-173662000D02*
X193798000Y-170762000D01*
X195788000Y-177116000D02*
G75*
G03X195788000Y-177116000I-100000J0D01*
G01*
X196338000Y-177366000D02*
X195838000Y-177366000D01*
X196338000Y-180266000D02*
X196338000Y-177366000D01*
X195838000Y-180266000D02*
X196338000Y-180266000D01*
X195838000Y-177366000D02*
X195838000Y-180266000D01*
D11*
X179660000Y-184396000D02*
X179660000Y-183396000D01*
X181020000Y-183396000D02*
X181020000Y-184396000D01*
X173490000Y-175596000D02*
X174490000Y-175596000D01*
X174490000Y-176956000D02*
X173490000Y-176956000D01*
X173490000Y-193376000D02*
X174490000Y-193376000D01*
X174490000Y-194736000D02*
X173490000Y-194736000D01*
X189468000Y-172012000D02*
X187468000Y-172012000D01*
X187468000Y-169872000D02*
X189468000Y-169872000D01*
X187849000Y-189938000D02*
X189849000Y-189938000D01*
X189849000Y-192078000D02*
X187849000Y-192078000D01*
D12*
X190873143Y-184856381D02*
X190539809Y-184380190D01*
X190301714Y-184856381D02*
X190301714Y-183856381D01*
X190682667Y-183856381D01*
X190777905Y-183904000D01*
X190825524Y-183951619D01*
X190873143Y-184046857D01*
X190873143Y-184189714D01*
X190825524Y-184284952D01*
X190777905Y-184332571D01*
X190682667Y-184380190D01*
X190301714Y-184380190D01*
X191825524Y-184856381D02*
X191254095Y-184856381D01*
X191539809Y-184856381D02*
X191539809Y-183856381D01*
X191444571Y-183999238D01*
X191349333Y-184094476D01*
X191254095Y-184142095D01*
X192206476Y-183951619D02*
X192254095Y-183904000D01*
X192349333Y-183856381D01*
X192587429Y-183856381D01*
X192682667Y-183904000D01*
X192730286Y-183951619D01*
X192777905Y-184046857D01*
X192777905Y-184142095D01*
X192730286Y-184284952D01*
X192158857Y-184856381D01*
X192777905Y-184856381D01*
X196119762Y-187364619D02*
X196024524Y-187317000D01*
X195929286Y-187221762D01*
X195786429Y-187078905D01*
X195691190Y-187031286D01*
X195595952Y-187031286D01*
X195643571Y-187269381D02*
X195548333Y-187221762D01*
X195453095Y-187126524D01*
X195405476Y-186936048D01*
X195405476Y-186602714D01*
X195453095Y-186412238D01*
X195548333Y-186317000D01*
X195643571Y-186269381D01*
X195834048Y-186269381D01*
X195929286Y-186317000D01*
X196024524Y-186412238D01*
X196072143Y-186602714D01*
X196072143Y-186936048D01*
X196024524Y-187126524D01*
X195929286Y-187221762D01*
X195834048Y-187269381D01*
X195643571Y-187269381D01*
X196453095Y-186364619D02*
X196500714Y-186317000D01*
X196595952Y-186269381D01*
X196834048Y-186269381D01*
X196929286Y-186317000D01*
X196976905Y-186364619D01*
X197024524Y-186459857D01*
X197024524Y-186555095D01*
X196976905Y-186697952D01*
X196405476Y-187269381D01*
X197024524Y-187269381D01*
X183856334Y-187110643D02*
X183808715Y-187158262D01*
X183665858Y-187205881D01*
X183570620Y-187205881D01*
X183427762Y-187158262D01*
X183332524Y-187063024D01*
X183284905Y-186967786D01*
X183237286Y-186777310D01*
X183237286Y-186634452D01*
X183284905Y-186443976D01*
X183332524Y-186348738D01*
X183427762Y-186253500D01*
X183570620Y-186205881D01*
X183665858Y-186205881D01*
X183808715Y-186253500D01*
X183856334Y-186301119D01*
X184427762Y-186634452D02*
X184332524Y-186586833D01*
X184284905Y-186539214D01*
X184237286Y-186443976D01*
X184237286Y-186396357D01*
X184284905Y-186301119D01*
X184332524Y-186253500D01*
X184427762Y-186205881D01*
X184618239Y-186205881D01*
X184713477Y-186253500D01*
X184761096Y-186301119D01*
X184808715Y-186396357D01*
X184808715Y-186443976D01*
X184761096Y-186539214D01*
X184713477Y-186586833D01*
X184618239Y-186634452D01*
X184427762Y-186634452D01*
X184332524Y-186682071D01*
X184284905Y-186729690D01*
X184237286Y-186824929D01*
X184237286Y-187015405D01*
X184284905Y-187110643D01*
X184332524Y-187158262D01*
X184427762Y-187205881D01*
X184618239Y-187205881D01*
X184713477Y-187158262D01*
X184761096Y-187110643D01*
X184808715Y-187015405D01*
X184808715Y-186824929D01*
X184761096Y-186729690D01*
X184713477Y-186682071D01*
X184618239Y-186634452D01*
X178116667Y-181552000D02*
X177783333Y-181785334D01*
X178116667Y-181952000D02*
X177416667Y-181952000D01*
X177416667Y-181685334D01*
X177450000Y-181618667D01*
X177483333Y-181585334D01*
X177550000Y-181552000D01*
X177650000Y-181552000D01*
X177716667Y-181585334D01*
X177750000Y-181618667D01*
X177783333Y-181685334D01*
X177783333Y-181952000D01*
X177483333Y-181285334D02*
X177450000Y-181252000D01*
X177416667Y-181185334D01*
X177416667Y-181018667D01*
X177450000Y-180952000D01*
X177483333Y-180918667D01*
X177550000Y-180885334D01*
X177616667Y-180885334D01*
X177716667Y-180918667D01*
X178116667Y-181318667D01*
X178116667Y-180885334D01*
X177416667Y-180252000D02*
X177416667Y-180585333D01*
X177750000Y-180618667D01*
X177716667Y-180585333D01*
X177683333Y-180518667D01*
X177683333Y-180352000D01*
X177716667Y-180285333D01*
X177750000Y-180252000D01*
X177816667Y-180218667D01*
X177983333Y-180218667D01*
X178050000Y-180252000D01*
X178083333Y-180285333D01*
X178116667Y-180352000D01*
X178116667Y-180518667D01*
X178083333Y-180585333D01*
X178050000Y-180618667D01*
X193579762Y-194074619D02*
X193484524Y-194027000D01*
X193389286Y-193931762D01*
X193246429Y-193788905D01*
X193151190Y-193741286D01*
X193055952Y-193741286D01*
X193103571Y-193979381D02*
X193008333Y-193931762D01*
X192913095Y-193836524D01*
X192865476Y-193646048D01*
X192865476Y-193312714D01*
X192913095Y-193122238D01*
X193008333Y-193027000D01*
X193103571Y-192979381D01*
X193294048Y-192979381D01*
X193389286Y-193027000D01*
X193484524Y-193122238D01*
X193532143Y-193312714D01*
X193532143Y-193646048D01*
X193484524Y-193836524D01*
X193389286Y-193931762D01*
X193294048Y-193979381D01*
X193103571Y-193979381D01*
X194389286Y-193312714D02*
X194389286Y-193979381D01*
X194151190Y-192931762D02*
X193913095Y-193646048D01*
X194532143Y-193646048D01*
X207732334Y-161043881D02*
X207399000Y-160567690D01*
X207160905Y-161043881D02*
X207160905Y-160043881D01*
X207541858Y-160043881D01*
X207637096Y-160091500D01*
X207684715Y-160139119D01*
X207732334Y-160234357D01*
X207732334Y-160377214D01*
X207684715Y-160472452D01*
X207637096Y-160520071D01*
X207541858Y-160567690D01*
X207160905Y-160567690D01*
X208208524Y-161043881D02*
X208399000Y-161043881D01*
X208494239Y-160996262D01*
X208541858Y-160948643D01*
X208637096Y-160805786D01*
X208684715Y-160615310D01*
X208684715Y-160234357D01*
X208637096Y-160139119D01*
X208589477Y-160091500D01*
X208494239Y-160043881D01*
X208303762Y-160043881D01*
X208208524Y-160091500D01*
X208160905Y-160139119D01*
X208113286Y-160234357D01*
X208113286Y-160472452D01*
X208160905Y-160567690D01*
X208208524Y-160615310D01*
X208303762Y-160662929D01*
X208494239Y-160662929D01*
X208589477Y-160615310D01*
X208637096Y-160567690D01*
X208684715Y-160472452D01*
X187764000Y-193483667D02*
X187530666Y-193150333D01*
X187364000Y-193483667D02*
X187364000Y-192783667D01*
X187630666Y-192783667D01*
X187697333Y-192817000D01*
X187730666Y-192850333D01*
X187764000Y-192917000D01*
X187764000Y-193017000D01*
X187730666Y-193083667D01*
X187697333Y-193117000D01*
X187630666Y-193150333D01*
X187364000Y-193150333D01*
X188430666Y-193483667D02*
X188030666Y-193483667D01*
X188230666Y-193483667D02*
X188230666Y-192783667D01*
X188164000Y-192883667D01*
X188097333Y-192950333D01*
X188030666Y-192983667D01*
X189030667Y-192783667D02*
X188897333Y-192783667D01*
X188830667Y-192817000D01*
X188797333Y-192850333D01*
X188730667Y-192950333D01*
X188697333Y-193083667D01*
X188697333Y-193350333D01*
X188730667Y-193417000D01*
X188764000Y-193450333D01*
X188830667Y-193483667D01*
X188964000Y-193483667D01*
X189030667Y-193450333D01*
X189064000Y-193417000D01*
X189097333Y-193350333D01*
X189097333Y-193183667D01*
X189064000Y-193117000D01*
X189030667Y-193083667D01*
X188964000Y-193050333D01*
X188830667Y-193050333D01*
X188764000Y-193083667D01*
X188730667Y-193117000D01*
X188697333Y-193183667D01*
X204049334Y-174982143D02*
X204001715Y-175029762D01*
X203858858Y-175077381D01*
X203763620Y-175077381D01*
X203620762Y-175029762D01*
X203525524Y-174934524D01*
X203477905Y-174839286D01*
X203430286Y-174648810D01*
X203430286Y-174505952D01*
X203477905Y-174315476D01*
X203525524Y-174220238D01*
X203620762Y-174125000D01*
X203763620Y-174077381D01*
X203858858Y-174077381D01*
X204001715Y-174125000D01*
X204049334Y-174172619D01*
X205001715Y-175077381D02*
X204430286Y-175077381D01*
X204716000Y-175077381D02*
X204716000Y-174077381D01*
X204620762Y-174220238D01*
X204525524Y-174315476D01*
X204430286Y-174363095D01*
X200112334Y-181713143D02*
X200064715Y-181760762D01*
X199921858Y-181808381D01*
X199826620Y-181808381D01*
X199683762Y-181760762D01*
X199588524Y-181665524D01*
X199540905Y-181570286D01*
X199493286Y-181379810D01*
X199493286Y-181236952D01*
X199540905Y-181046476D01*
X199588524Y-180951238D01*
X199683762Y-180856000D01*
X199826620Y-180808381D01*
X199921858Y-180808381D01*
X200064715Y-180856000D01*
X200112334Y-180903619D01*
X200493286Y-180903619D02*
X200540905Y-180856000D01*
X200636143Y-180808381D01*
X200874239Y-180808381D01*
X200969477Y-180856000D01*
X201017096Y-180903619D01*
X201064715Y-180998857D01*
X201064715Y-181094095D01*
X201017096Y-181236952D01*
X200445667Y-181808381D01*
X201064715Y-181808381D01*
X204797834Y-168588500D02*
X204764500Y-168621833D01*
X204664500Y-168655167D01*
X204597834Y-168655167D01*
X204497834Y-168621833D01*
X204431167Y-168555167D01*
X204397834Y-168488500D01*
X204364500Y-168355167D01*
X204364500Y-168255167D01*
X204397834Y-168121833D01*
X204431167Y-168055167D01*
X204497834Y-167988500D01*
X204597834Y-167955167D01*
X204664500Y-167955167D01*
X204764500Y-167988500D01*
X204797834Y-168021833D01*
X205031167Y-167955167D02*
X205464500Y-167955167D01*
X205231167Y-168221833D01*
X205331167Y-168221833D01*
X205397834Y-168255167D01*
X205431167Y-168288500D01*
X205464500Y-168355167D01*
X205464500Y-168521833D01*
X205431167Y-168588500D01*
X205397834Y-168621833D01*
X205331167Y-168655167D01*
X205131167Y-168655167D01*
X205064500Y-168621833D01*
X205031167Y-168588500D01*
X201509334Y-172188143D02*
X201461715Y-172235762D01*
X201318858Y-172283381D01*
X201223620Y-172283381D01*
X201080762Y-172235762D01*
X200985524Y-172140524D01*
X200937905Y-172045286D01*
X200890286Y-171854810D01*
X200890286Y-171711952D01*
X200937905Y-171521476D01*
X200985524Y-171426238D01*
X201080762Y-171331000D01*
X201223620Y-171283381D01*
X201318858Y-171283381D01*
X201461715Y-171331000D01*
X201509334Y-171378619D01*
X202366477Y-171616714D02*
X202366477Y-172283381D01*
X202128381Y-171235762D02*
X201890286Y-171950048D01*
X202509334Y-171950048D01*
X183856334Y-175998143D02*
X183808715Y-176045762D01*
X183665858Y-176093381D01*
X183570620Y-176093381D01*
X183427762Y-176045762D01*
X183332524Y-175950524D01*
X183284905Y-175855286D01*
X183237286Y-175664810D01*
X183237286Y-175521952D01*
X183284905Y-175331476D01*
X183332524Y-175236238D01*
X183427762Y-175141000D01*
X183570620Y-175093381D01*
X183665858Y-175093381D01*
X183808715Y-175141000D01*
X183856334Y-175188619D01*
X184761096Y-175093381D02*
X184284905Y-175093381D01*
X184237286Y-175569571D01*
X184284905Y-175521952D01*
X184380143Y-175474333D01*
X184618239Y-175474333D01*
X184713477Y-175521952D01*
X184761096Y-175569571D01*
X184808715Y-175664810D01*
X184808715Y-175902905D01*
X184761096Y-175998143D01*
X184713477Y-176045762D01*
X184618239Y-176093381D01*
X184380143Y-176093381D01*
X184284905Y-176045762D01*
X184237286Y-175998143D01*
X202588834Y-165076143D02*
X202541215Y-165123762D01*
X202398358Y-165171381D01*
X202303120Y-165171381D01*
X202160262Y-165123762D01*
X202065024Y-165028524D01*
X202017405Y-164933286D01*
X201969786Y-164742810D01*
X201969786Y-164599952D01*
X202017405Y-164409476D01*
X202065024Y-164314238D01*
X202160262Y-164219000D01*
X202303120Y-164171381D01*
X202398358Y-164171381D01*
X202541215Y-164219000D01*
X202588834Y-164266619D01*
X203445977Y-164171381D02*
X203255500Y-164171381D01*
X203160262Y-164219000D01*
X203112643Y-164266619D01*
X203017405Y-164409476D01*
X202969786Y-164599952D01*
X202969786Y-164980905D01*
X203017405Y-165076143D01*
X203065024Y-165123762D01*
X203160262Y-165171381D01*
X203350739Y-165171381D01*
X203445977Y-165123762D01*
X203493596Y-165076143D01*
X203541215Y-164980905D01*
X203541215Y-164742810D01*
X203493596Y-164647571D01*
X203445977Y-164599952D01*
X203350739Y-164552333D01*
X203160262Y-164552333D01*
X203065024Y-164599952D01*
X203017405Y-164647571D01*
X202969786Y-164742810D01*
X201509334Y-173585143D02*
X201461715Y-173632762D01*
X201318858Y-173680381D01*
X201223620Y-173680381D01*
X201080762Y-173632762D01*
X200985524Y-173537524D01*
X200937905Y-173442286D01*
X200890286Y-173251810D01*
X200890286Y-173108952D01*
X200937905Y-172918476D01*
X200985524Y-172823238D01*
X201080762Y-172728000D01*
X201223620Y-172680381D01*
X201318858Y-172680381D01*
X201461715Y-172728000D01*
X201509334Y-172775619D01*
X201842667Y-172680381D02*
X202509334Y-172680381D01*
X202080762Y-173680381D01*
X196048334Y-175363143D02*
X196000715Y-175410762D01*
X195857858Y-175458381D01*
X195762620Y-175458381D01*
X195619762Y-175410762D01*
X195524524Y-175315524D01*
X195476905Y-175220286D01*
X195429286Y-175029810D01*
X195429286Y-174886952D01*
X195476905Y-174696476D01*
X195524524Y-174601238D01*
X195619762Y-174506000D01*
X195762620Y-174458381D01*
X195857858Y-174458381D01*
X196000715Y-174506000D01*
X196048334Y-174553619D01*
X196524524Y-175458381D02*
X196715000Y-175458381D01*
X196810239Y-175410762D01*
X196857858Y-175363143D01*
X196953096Y-175220286D01*
X197000715Y-175029810D01*
X197000715Y-174648857D01*
X196953096Y-174553619D01*
X196905477Y-174506000D01*
X196810239Y-174458381D01*
X196619762Y-174458381D01*
X196524524Y-174506000D01*
X196476905Y-174553619D01*
X196429286Y-174648857D01*
X196429286Y-174886952D01*
X196476905Y-174982190D01*
X196524524Y-175029810D01*
X196619762Y-175077429D01*
X196810239Y-175077429D01*
X196905477Y-175029810D01*
X196953096Y-174982190D01*
X197000715Y-174886952D01*
X193225000Y-182241000D02*
X193191666Y-182274333D01*
X193091666Y-182307667D01*
X193025000Y-182307667D01*
X192925000Y-182274333D01*
X192858333Y-182207667D01*
X192825000Y-182141000D01*
X192791666Y-182007667D01*
X192791666Y-181907667D01*
X192825000Y-181774333D01*
X192858333Y-181707667D01*
X192925000Y-181641000D01*
X193025000Y-181607667D01*
X193091666Y-181607667D01*
X193191666Y-181641000D01*
X193225000Y-181674333D01*
X193891666Y-182307667D02*
X193491666Y-182307667D01*
X193691666Y-182307667D02*
X193691666Y-181607667D01*
X193625000Y-181707667D01*
X193558333Y-181774333D01*
X193491666Y-181807667D01*
X194325000Y-181607667D02*
X194391667Y-181607667D01*
X194458333Y-181641000D01*
X194491667Y-181674333D01*
X194525000Y-181741000D01*
X194558333Y-181874333D01*
X194558333Y-182041000D01*
X194525000Y-182174333D01*
X194491667Y-182241000D01*
X194458333Y-182274333D01*
X194391667Y-182307667D01*
X194325000Y-182307667D01*
X194258333Y-182274333D01*
X194225000Y-182241000D01*
X194191667Y-182174333D01*
X194158333Y-182041000D01*
X194158333Y-181874333D01*
X194191667Y-181741000D01*
X194225000Y-181674333D01*
X194258333Y-181641000D01*
X194325000Y-181607667D01*
X170426143Y-159361143D02*
X170378524Y-159408762D01*
X170235667Y-159456381D01*
X170140429Y-159456381D01*
X169997571Y-159408762D01*
X169902333Y-159313524D01*
X169854714Y-159218286D01*
X169807095Y-159027810D01*
X169807095Y-158884952D01*
X169854714Y-158694476D01*
X169902333Y-158599238D01*
X169997571Y-158504000D01*
X170140429Y-158456381D01*
X170235667Y-158456381D01*
X170378524Y-158504000D01*
X170426143Y-158551619D01*
X171378524Y-159456381D02*
X170807095Y-159456381D01*
X171092809Y-159456381D02*
X171092809Y-158456381D01*
X170997571Y-158599238D01*
X170902333Y-158694476D01*
X170807095Y-158742095D01*
X172283286Y-158456381D02*
X171807095Y-158456381D01*
X171759476Y-158932571D01*
X171807095Y-158884952D01*
X171902333Y-158837333D01*
X172140429Y-158837333D01*
X172235667Y-158884952D01*
X172283286Y-158932571D01*
X172330905Y-159027810D01*
X172330905Y-159265905D01*
X172283286Y-159361143D01*
X172235667Y-159408762D01*
X172140429Y-159456381D01*
X171902333Y-159456381D01*
X171807095Y-159408762D01*
X171759476Y-159361143D01*
X170616643Y-199429643D02*
X170569024Y-199477262D01*
X170426167Y-199524881D01*
X170330929Y-199524881D01*
X170188071Y-199477262D01*
X170092833Y-199382024D01*
X170045214Y-199286786D01*
X169997595Y-199096310D01*
X169997595Y-198953452D01*
X170045214Y-198762976D01*
X170092833Y-198667738D01*
X170188071Y-198572500D01*
X170330929Y-198524881D01*
X170426167Y-198524881D01*
X170569024Y-198572500D01*
X170616643Y-198620119D01*
X171569024Y-199524881D02*
X170997595Y-199524881D01*
X171283309Y-199524881D02*
X171283309Y-198524881D01*
X171188071Y-198667738D01*
X171092833Y-198762976D01*
X170997595Y-198810595D01*
X172426167Y-198524881D02*
X172235690Y-198524881D01*
X172140452Y-198572500D01*
X172092833Y-198620119D01*
X171997595Y-198762976D01*
X171949976Y-198953452D01*
X171949976Y-199334405D01*
X171997595Y-199429643D01*
X172045214Y-199477262D01*
X172140452Y-199524881D01*
X172330929Y-199524881D01*
X172426167Y-199477262D01*
X172473786Y-199429643D01*
X172521405Y-199334405D01*
X172521405Y-199096310D01*
X172473786Y-199001071D01*
X172426167Y-198953452D01*
X172330929Y-198905833D01*
X172140452Y-198905833D01*
X172045214Y-198953452D01*
X171997595Y-199001071D01*
X171949976Y-199096310D01*
X208367334Y-182760881D02*
X208034000Y-182284690D01*
X207795905Y-182760881D02*
X207795905Y-181760881D01*
X208176858Y-181760881D01*
X208272096Y-181808500D01*
X208319715Y-181856119D01*
X208367334Y-181951357D01*
X208367334Y-182094214D01*
X208319715Y-182189452D01*
X208272096Y-182237071D01*
X208176858Y-182284690D01*
X207795905Y-182284690D01*
X208748286Y-181856119D02*
X208795905Y-181808500D01*
X208891143Y-181760881D01*
X209129239Y-181760881D01*
X209224477Y-181808500D01*
X209272096Y-181856119D01*
X209319715Y-181951357D01*
X209319715Y-182046595D01*
X209272096Y-182189452D01*
X208700667Y-182760881D01*
X209319715Y-182760881D01*
X211415334Y-170949881D02*
X211082000Y-170473690D01*
X210843905Y-170949881D02*
X210843905Y-169949881D01*
X211224858Y-169949881D01*
X211320096Y-169997500D01*
X211367715Y-170045119D01*
X211415334Y-170140357D01*
X211415334Y-170283214D01*
X211367715Y-170378452D01*
X211320096Y-170426071D01*
X211224858Y-170473690D01*
X210843905Y-170473690D01*
X211748667Y-169949881D02*
X212367715Y-169949881D01*
X212034381Y-170330833D01*
X212177239Y-170330833D01*
X212272477Y-170378452D01*
X212320096Y-170426071D01*
X212367715Y-170521310D01*
X212367715Y-170759405D01*
X212320096Y-170854643D01*
X212272477Y-170902262D01*
X212177239Y-170949881D01*
X211891524Y-170949881D01*
X211796286Y-170902262D01*
X211748667Y-170854643D01*
X168235334Y-153808381D02*
X167902000Y-153332190D01*
X167663905Y-153808381D02*
X167663905Y-152808381D01*
X168044858Y-152808381D01*
X168140096Y-152856000D01*
X168187715Y-152903619D01*
X168235334Y-152998857D01*
X168235334Y-153141714D01*
X168187715Y-153236952D01*
X168140096Y-153284571D01*
X168044858Y-153332190D01*
X167663905Y-153332190D01*
X169092477Y-152808381D02*
X168902000Y-152808381D01*
X168806762Y-152856000D01*
X168759143Y-152903619D01*
X168663905Y-153046476D01*
X168616286Y-153236952D01*
X168616286Y-153617905D01*
X168663905Y-153713143D01*
X168711524Y-153760762D01*
X168806762Y-153808381D01*
X168997239Y-153808381D01*
X169092477Y-153760762D01*
X169140096Y-153713143D01*
X169187715Y-153617905D01*
X169187715Y-153379810D01*
X169140096Y-153284571D01*
X169092477Y-153236952D01*
X168997239Y-153189333D01*
X168806762Y-153189333D01*
X168711524Y-153236952D01*
X168663905Y-153284571D01*
X168616286Y-153379810D01*
X166711334Y-202382381D02*
X166378000Y-201906190D01*
X166139905Y-202382381D02*
X166139905Y-201382381D01*
X166520858Y-201382381D01*
X166616096Y-201430000D01*
X166663715Y-201477619D01*
X166711334Y-201572857D01*
X166711334Y-201715714D01*
X166663715Y-201810952D01*
X166616096Y-201858571D01*
X166520858Y-201906190D01*
X166139905Y-201906190D01*
X167044667Y-201382381D02*
X167711334Y-201382381D01*
X167282762Y-202382381D01*
X199350334Y-176347381D02*
X199017000Y-175871190D01*
X198778905Y-176347381D02*
X198778905Y-175347381D01*
X199159858Y-175347381D01*
X199255096Y-175395000D01*
X199302715Y-175442619D01*
X199350334Y-175537857D01*
X199350334Y-175680714D01*
X199302715Y-175775952D01*
X199255096Y-175823571D01*
X199159858Y-175871190D01*
X198778905Y-175871190D01*
X199921762Y-175775952D02*
X199826524Y-175728333D01*
X199778905Y-175680714D01*
X199731286Y-175585476D01*
X199731286Y-175537857D01*
X199778905Y-175442619D01*
X199826524Y-175395000D01*
X199921762Y-175347381D01*
X200112239Y-175347381D01*
X200207477Y-175395000D01*
X200255096Y-175442619D01*
X200302715Y-175537857D01*
X200302715Y-175585476D01*
X200255096Y-175680714D01*
X200207477Y-175728333D01*
X200112239Y-175775952D01*
X199921762Y-175775952D01*
X199826524Y-175823571D01*
X199778905Y-175871190D01*
X199731286Y-175966429D01*
X199731286Y-176156905D01*
X199778905Y-176252143D01*
X199826524Y-176299762D01*
X199921762Y-176347381D01*
X200112239Y-176347381D01*
X200207477Y-176299762D01*
X200255096Y-176252143D01*
X200302715Y-176156905D01*
X200302715Y-175966429D01*
X200255096Y-175871190D01*
X200207477Y-175823571D01*
X200112239Y-175775952D01*
X211383643Y-166314381D02*
X211050309Y-165838190D01*
X210812214Y-166314381D02*
X210812214Y-165314381D01*
X211193167Y-165314381D01*
X211288405Y-165362000D01*
X211336024Y-165409619D01*
X211383643Y-165504857D01*
X211383643Y-165647714D01*
X211336024Y-165742952D01*
X211288405Y-165790571D01*
X211193167Y-165838190D01*
X210812214Y-165838190D01*
X212336024Y-166314381D02*
X211764595Y-166314381D01*
X212050309Y-166314381D02*
X212050309Y-165314381D01*
X211955071Y-165457238D01*
X211859833Y-165552476D01*
X211764595Y-165600095D01*
X212955071Y-165314381D02*
X213050310Y-165314381D01*
X213145548Y-165362000D01*
X213193167Y-165409619D01*
X213240786Y-165504857D01*
X213288405Y-165695333D01*
X213288405Y-165933429D01*
X213240786Y-166123905D01*
X213193167Y-166219143D01*
X213145548Y-166266762D01*
X213050310Y-166314381D01*
X212955071Y-166314381D01*
X212859833Y-166266762D01*
X212812214Y-166219143D01*
X212764595Y-166123905D01*
X212716976Y-165933429D01*
X212716976Y-165695333D01*
X212764595Y-165504857D01*
X212812214Y-165409619D01*
X212859833Y-165362000D01*
X212955071Y-165314381D01*
X191587381Y-179712857D02*
X191111190Y-180046191D01*
X191587381Y-180284286D02*
X190587381Y-180284286D01*
X190587381Y-179903333D01*
X190635000Y-179808095D01*
X190682619Y-179760476D01*
X190777857Y-179712857D01*
X190920714Y-179712857D01*
X191015952Y-179760476D01*
X191063571Y-179808095D01*
X191111190Y-179903333D01*
X191111190Y-180284286D01*
X191587381Y-178760476D02*
X191587381Y-179331905D01*
X191587381Y-179046191D02*
X190587381Y-179046191D01*
X190730238Y-179141429D01*
X190825476Y-179236667D01*
X190873095Y-179331905D01*
X191587381Y-177808095D02*
X191587381Y-178379524D01*
X191587381Y-178093810D02*
X190587381Y-178093810D01*
X190730238Y-178189048D01*
X190825476Y-178284286D01*
X190873095Y-178379524D01*
X186303500Y-173417667D02*
X186070166Y-173084333D01*
X185903500Y-173417667D02*
X185903500Y-172717667D01*
X186170166Y-172717667D01*
X186236833Y-172751000D01*
X186270166Y-172784333D01*
X186303500Y-172851000D01*
X186303500Y-172951000D01*
X186270166Y-173017667D01*
X186236833Y-173051000D01*
X186170166Y-173084333D01*
X185903500Y-173084333D01*
X186970166Y-173417667D02*
X186570166Y-173417667D01*
X186770166Y-173417667D02*
X186770166Y-172717667D01*
X186703500Y-172817667D01*
X186636833Y-172884333D01*
X186570166Y-172917667D01*
X187203500Y-172717667D02*
X187636833Y-172717667D01*
X187403500Y-172984333D01*
X187503500Y-172984333D01*
X187570167Y-173017667D01*
X187603500Y-173051000D01*
X187636833Y-173117667D01*
X187636833Y-173284333D01*
X187603500Y-173351000D01*
X187570167Y-173384333D01*
X187503500Y-173417667D01*
X187303500Y-173417667D01*
X187236833Y-173384333D01*
X187203500Y-173351000D01*
X159313643Y-170695881D02*
X158980309Y-170219690D01*
X158742214Y-170695881D02*
X158742214Y-169695881D01*
X159123167Y-169695881D01*
X159218405Y-169743500D01*
X159266024Y-169791119D01*
X159313643Y-169886357D01*
X159313643Y-170029214D01*
X159266024Y-170124452D01*
X159218405Y-170172071D01*
X159123167Y-170219690D01*
X158742214Y-170219690D01*
X159694595Y-169791119D02*
X159742214Y-169743500D01*
X159837452Y-169695881D01*
X160075548Y-169695881D01*
X160170786Y-169743500D01*
X160218405Y-169791119D01*
X160266024Y-169886357D01*
X160266024Y-169981595D01*
X160218405Y-170124452D01*
X159646976Y-170695881D01*
X160266024Y-170695881D01*
X160885071Y-169695881D02*
X160980310Y-169695881D01*
X161075548Y-169743500D01*
X161123167Y-169791119D01*
X161170786Y-169886357D01*
X161218405Y-170076833D01*
X161218405Y-170314929D01*
X161170786Y-170505405D01*
X161123167Y-170600643D01*
X161075548Y-170648262D01*
X160980310Y-170695881D01*
X160885071Y-170695881D01*
X160789833Y-170648262D01*
X160742214Y-170600643D01*
X160694595Y-170505405D01*
X160646976Y-170314929D01*
X160646976Y-170076833D01*
X160694595Y-169886357D01*
X160742214Y-169791119D01*
X160789833Y-169743500D01*
X160885071Y-169695881D01*
X159377143Y-190444381D02*
X159043809Y-189968190D01*
X158805714Y-190444381D02*
X158805714Y-189444381D01*
X159186667Y-189444381D01*
X159281905Y-189492000D01*
X159329524Y-189539619D01*
X159377143Y-189634857D01*
X159377143Y-189777714D01*
X159329524Y-189872952D01*
X159281905Y-189920571D01*
X159186667Y-189968190D01*
X158805714Y-189968190D01*
X159758095Y-189539619D02*
X159805714Y-189492000D01*
X159900952Y-189444381D01*
X160139048Y-189444381D01*
X160234286Y-189492000D01*
X160281905Y-189539619D01*
X160329524Y-189634857D01*
X160329524Y-189730095D01*
X160281905Y-189872952D01*
X159710476Y-190444381D01*
X160329524Y-190444381D01*
X161281905Y-190444381D02*
X160710476Y-190444381D01*
X160996190Y-190444381D02*
X160996190Y-189444381D01*
X160900952Y-189587238D01*
X160805714Y-189682476D01*
X160710476Y-189730095D01*
X159821643Y-163901381D02*
X159488309Y-163425190D01*
X159250214Y-163901381D02*
X159250214Y-162901381D01*
X159631167Y-162901381D01*
X159726405Y-162949000D01*
X159774024Y-162996619D01*
X159821643Y-163091857D01*
X159821643Y-163234714D01*
X159774024Y-163329952D01*
X159726405Y-163377571D01*
X159631167Y-163425190D01*
X159250214Y-163425190D01*
X160202595Y-162996619D02*
X160250214Y-162949000D01*
X160345452Y-162901381D01*
X160583548Y-162901381D01*
X160678786Y-162949000D01*
X160726405Y-162996619D01*
X160774024Y-163091857D01*
X160774024Y-163187095D01*
X160726405Y-163329952D01*
X160154976Y-163901381D01*
X160774024Y-163901381D01*
X161154976Y-162996619D02*
X161202595Y-162949000D01*
X161297833Y-162901381D01*
X161535929Y-162901381D01*
X161631167Y-162949000D01*
X161678786Y-162996619D01*
X161726405Y-163091857D01*
X161726405Y-163187095D01*
X161678786Y-163329952D01*
X161107357Y-163901381D01*
X161726405Y-163901381D01*
X159377143Y-196540381D02*
X159043809Y-196064190D01*
X158805714Y-196540381D02*
X158805714Y-195540381D01*
X159186667Y-195540381D01*
X159281905Y-195588000D01*
X159329524Y-195635619D01*
X159377143Y-195730857D01*
X159377143Y-195873714D01*
X159329524Y-195968952D01*
X159281905Y-196016571D01*
X159186667Y-196064190D01*
X158805714Y-196064190D01*
X159758095Y-195635619D02*
X159805714Y-195588000D01*
X159900952Y-195540381D01*
X160139048Y-195540381D01*
X160234286Y-195588000D01*
X160281905Y-195635619D01*
X160329524Y-195730857D01*
X160329524Y-195826095D01*
X160281905Y-195968952D01*
X159710476Y-196540381D01*
X160329524Y-196540381D01*
X160662857Y-195540381D02*
X161281905Y-195540381D01*
X160948571Y-195921333D01*
X161091429Y-195921333D01*
X161186667Y-195968952D01*
X161234286Y-196016571D01*
X161281905Y-196111810D01*
X161281905Y-196349905D01*
X161234286Y-196445143D01*
X161186667Y-196492762D01*
X161091429Y-196540381D01*
X160805714Y-196540381D01*
X160710476Y-196492762D01*
X160662857Y-196445143D01*
X189476143Y-154443381D02*
X189142809Y-153967190D01*
X188904714Y-154443381D02*
X188904714Y-153443381D01*
X189285667Y-153443381D01*
X189380905Y-153491000D01*
X189428524Y-153538619D01*
X189476143Y-153633857D01*
X189476143Y-153776714D01*
X189428524Y-153871952D01*
X189380905Y-153919571D01*
X189285667Y-153967190D01*
X188904714Y-153967190D01*
X189857095Y-153538619D02*
X189904714Y-153491000D01*
X189999952Y-153443381D01*
X190238048Y-153443381D01*
X190333286Y-153491000D01*
X190380905Y-153538619D01*
X190428524Y-153633857D01*
X190428524Y-153729095D01*
X190380905Y-153871952D01*
X189809476Y-154443381D01*
X190428524Y-154443381D01*
X190999952Y-153871952D02*
X190904714Y-153824333D01*
X190857095Y-153776714D01*
X190809476Y-153681476D01*
X190809476Y-153633857D01*
X190857095Y-153538619D01*
X190904714Y-153491000D01*
X190999952Y-153443381D01*
X191190429Y-153443381D01*
X191285667Y-153491000D01*
X191333286Y-153538619D01*
X191380905Y-153633857D01*
X191380905Y-153681476D01*
X191333286Y-153776714D01*
X191285667Y-153824333D01*
X191190429Y-153871952D01*
X190999952Y-153871952D01*
X190904714Y-153919571D01*
X190857095Y-153967190D01*
X190809476Y-154062429D01*
X190809476Y-154252905D01*
X190857095Y-154348143D01*
X190904714Y-154395762D01*
X190999952Y-154443381D01*
X191190429Y-154443381D01*
X191285667Y-154395762D01*
X191333286Y-154348143D01*
X191380905Y-154252905D01*
X191380905Y-154062429D01*
X191333286Y-153967190D01*
X191285667Y-153919571D01*
X191190429Y-153871952D01*
X189603143Y-201687381D02*
X189269809Y-201211190D01*
X189031714Y-201687381D02*
X189031714Y-200687381D01*
X189412667Y-200687381D01*
X189507905Y-200735000D01*
X189555524Y-200782619D01*
X189603143Y-200877857D01*
X189603143Y-201020714D01*
X189555524Y-201115952D01*
X189507905Y-201163571D01*
X189412667Y-201211190D01*
X189031714Y-201211190D01*
X189984095Y-200782619D02*
X190031714Y-200735000D01*
X190126952Y-200687381D01*
X190365048Y-200687381D01*
X190460286Y-200735000D01*
X190507905Y-200782619D01*
X190555524Y-200877857D01*
X190555524Y-200973095D01*
X190507905Y-201115952D01*
X189936476Y-201687381D01*
X190555524Y-201687381D01*
X191031714Y-201687381D02*
X191222190Y-201687381D01*
X191317429Y-201639762D01*
X191365048Y-201592143D01*
X191460286Y-201449286D01*
X191507905Y-201258810D01*
X191507905Y-200877857D01*
X191460286Y-200782619D01*
X191412667Y-200735000D01*
X191317429Y-200687381D01*
X191126952Y-200687381D01*
X191031714Y-200735000D01*
X190984095Y-200782619D01*
X190936476Y-200877857D01*
X190936476Y-201115952D01*
X190984095Y-201211190D01*
X191031714Y-201258810D01*
X191126952Y-201306429D01*
X191317429Y-201306429D01*
X191412667Y-201258810D01*
X191460286Y-201211190D01*
X191507905Y-201115952D01*
X172397000Y-181418667D02*
X172163666Y-181085333D01*
X171997000Y-181418667D02*
X171997000Y-180718667D01*
X172263666Y-180718667D01*
X172330333Y-180752000D01*
X172363666Y-180785333D01*
X172397000Y-180852000D01*
X172397000Y-180952000D01*
X172363666Y-181018667D01*
X172330333Y-181052000D01*
X172263666Y-181085333D01*
X171997000Y-181085333D01*
X172663666Y-180785333D02*
X172697000Y-180752000D01*
X172763666Y-180718667D01*
X172930333Y-180718667D01*
X172997000Y-180752000D01*
X173030333Y-180785333D01*
X173063666Y-180852000D01*
X173063666Y-180918667D01*
X173030333Y-181018667D01*
X172630333Y-181418667D01*
X173063666Y-181418667D01*
X173663667Y-180952000D02*
X173663667Y-181418667D01*
X173497000Y-180685333D02*
X173330333Y-181185333D01*
X173763667Y-181185333D01*
X161409143Y-154027143D02*
X161361524Y-154074762D01*
X161218667Y-154122381D01*
X161123429Y-154122381D01*
X160980571Y-154074762D01*
X160885333Y-153979524D01*
X160837714Y-153884286D01*
X160790095Y-153693810D01*
X160790095Y-153550952D01*
X160837714Y-153360476D01*
X160885333Y-153265238D01*
X160980571Y-153170000D01*
X161123429Y-153122381D01*
X161218667Y-153122381D01*
X161361524Y-153170000D01*
X161409143Y-153217619D01*
X162361524Y-154122381D02*
X161790095Y-154122381D01*
X162075809Y-154122381D02*
X162075809Y-153122381D01*
X161980571Y-153265238D01*
X161885333Y-153360476D01*
X161790095Y-153408095D01*
X162694857Y-153122381D02*
X163361524Y-153122381D01*
X162932952Y-154122381D01*
X159123143Y-202414143D02*
X159075524Y-202461762D01*
X158932667Y-202509381D01*
X158837429Y-202509381D01*
X158694571Y-202461762D01*
X158599333Y-202366524D01*
X158551714Y-202271286D01*
X158504095Y-202080810D01*
X158504095Y-201937952D01*
X158551714Y-201747476D01*
X158599333Y-201652238D01*
X158694571Y-201557000D01*
X158837429Y-201509381D01*
X158932667Y-201509381D01*
X159075524Y-201557000D01*
X159123143Y-201604619D01*
X160075524Y-202509381D02*
X159504095Y-202509381D01*
X159789809Y-202509381D02*
X159789809Y-201509381D01*
X159694571Y-201652238D01*
X159599333Y-201747476D01*
X159504095Y-201795095D01*
X160646952Y-201937952D02*
X160551714Y-201890333D01*
X160504095Y-201842714D01*
X160456476Y-201747476D01*
X160456476Y-201699857D01*
X160504095Y-201604619D01*
X160551714Y-201557000D01*
X160646952Y-201509381D01*
X160837429Y-201509381D01*
X160932667Y-201557000D01*
X160980286Y-201604619D01*
X161027905Y-201699857D01*
X161027905Y-201747476D01*
X160980286Y-201842714D01*
X160932667Y-201890333D01*
X160837429Y-201937952D01*
X160646952Y-201937952D01*
X160551714Y-201985571D01*
X160504095Y-202033190D01*
X160456476Y-202128429D01*
X160456476Y-202318905D01*
X160504095Y-202414143D01*
X160551714Y-202461762D01*
X160646952Y-202509381D01*
X160837429Y-202509381D01*
X160932667Y-202461762D01*
X160980286Y-202414143D01*
X161027905Y-202318905D01*
X161027905Y-202128429D01*
X160980286Y-202033190D01*
X160932667Y-201985571D01*
X160837429Y-201937952D01*
X160170905Y-175331381D02*
X160170905Y-174331381D01*
X160409000Y-174331381D01*
X160551858Y-174379000D01*
X160647096Y-174474238D01*
X160694715Y-174569476D01*
X160742334Y-174759952D01*
X160742334Y-174902810D01*
X160694715Y-175093286D01*
X160647096Y-175188524D01*
X160551858Y-175283762D01*
X160409000Y-175331381D01*
X160170905Y-175331381D01*
X161694715Y-175331381D02*
X161123286Y-175331381D01*
X161409000Y-175331381D02*
X161409000Y-174331381D01*
X161313762Y-174474238D01*
X161218524Y-174569476D01*
X161123286Y-174617095D01*
X159281905Y-198826381D02*
X159281905Y-197826381D01*
X159520000Y-197826381D01*
X159662858Y-197874000D01*
X159758096Y-197969238D01*
X159805715Y-198064476D01*
X159853334Y-198254952D01*
X159853334Y-198397810D01*
X159805715Y-198588286D01*
X159758096Y-198683524D01*
X159662858Y-198778762D01*
X159520000Y-198826381D01*
X159281905Y-198826381D01*
X160234286Y-197921619D02*
X160281905Y-197874000D01*
X160377143Y-197826381D01*
X160615239Y-197826381D01*
X160710477Y-197874000D01*
X160758096Y-197921619D01*
X160805715Y-198016857D01*
X160805715Y-198112095D01*
X160758096Y-198254952D01*
X160186667Y-198826381D01*
X160805715Y-198826381D01*
X164996905Y-182951381D02*
X164996905Y-181951381D01*
X165235000Y-181951381D01*
X165377858Y-181999000D01*
X165473096Y-182094238D01*
X165520715Y-182189476D01*
X165568334Y-182379952D01*
X165568334Y-182522810D01*
X165520715Y-182713286D01*
X165473096Y-182808524D01*
X165377858Y-182903762D01*
X165235000Y-182951381D01*
X164996905Y-182951381D01*
X165901667Y-181951381D02*
X166520715Y-181951381D01*
X166187381Y-182332333D01*
X166330239Y-182332333D01*
X166425477Y-182379952D01*
X166473096Y-182427571D01*
X166520715Y-182522810D01*
X166520715Y-182760905D01*
X166473096Y-182856143D01*
X166425477Y-182903762D01*
X166330239Y-182951381D01*
X166044524Y-182951381D01*
X165949286Y-182903762D01*
X165901667Y-182856143D01*
X164107905Y-186761381D02*
X164107905Y-185761381D01*
X164346000Y-185761381D01*
X164488858Y-185809000D01*
X164584096Y-185904238D01*
X164631715Y-185999476D01*
X164679334Y-186189952D01*
X164679334Y-186332810D01*
X164631715Y-186523286D01*
X164584096Y-186618524D01*
X164488858Y-186713762D01*
X164346000Y-186761381D01*
X164107905Y-186761381D01*
X165536477Y-186094714D02*
X165536477Y-186761381D01*
X165298381Y-185713762D02*
X165060286Y-186428048D01*
X165679334Y-186428048D01*
X178720762Y-166536619D02*
X178625524Y-166489000D01*
X178530286Y-166393762D01*
X178387429Y-166250905D01*
X178292190Y-166203286D01*
X178196952Y-166203286D01*
X178244571Y-166441381D02*
X178149333Y-166393762D01*
X178054095Y-166298524D01*
X178006476Y-166108048D01*
X178006476Y-165774714D01*
X178054095Y-165584238D01*
X178149333Y-165489000D01*
X178244571Y-165441381D01*
X178435048Y-165441381D01*
X178530286Y-165489000D01*
X178625524Y-165584238D01*
X178673143Y-165774714D01*
X178673143Y-166108048D01*
X178625524Y-166298524D01*
X178530286Y-166393762D01*
X178435048Y-166441381D01*
X178244571Y-166441381D01*
X179149333Y-166441381D02*
X179339809Y-166441381D01*
X179435048Y-166393762D01*
X179482667Y-166346143D01*
X179577905Y-166203286D01*
X179625524Y-166012810D01*
X179625524Y-165631857D01*
X179577905Y-165536619D01*
X179530286Y-165489000D01*
X179435048Y-165441381D01*
X179244571Y-165441381D01*
X179149333Y-165489000D01*
X179101714Y-165536619D01*
X179054095Y-165631857D01*
X179054095Y-165869952D01*
X179101714Y-165965190D01*
X179149333Y-166012810D01*
X179244571Y-166060429D01*
X179435048Y-166060429D01*
X179530286Y-166012810D01*
X179577905Y-165965190D01*
X179625524Y-165869952D01*
X178117572Y-196381619D02*
X178022334Y-196334000D01*
X177927096Y-196238762D01*
X177784239Y-196095905D01*
X177689000Y-196048286D01*
X177593762Y-196048286D01*
X177641381Y-196286381D02*
X177546143Y-196238762D01*
X177450905Y-196143524D01*
X177403286Y-195953048D01*
X177403286Y-195619714D01*
X177450905Y-195429238D01*
X177546143Y-195334000D01*
X177641381Y-195286381D01*
X177831858Y-195286381D01*
X177927096Y-195334000D01*
X178022334Y-195429238D01*
X178069953Y-195619714D01*
X178069953Y-195953048D01*
X178022334Y-196143524D01*
X177927096Y-196238762D01*
X177831858Y-196286381D01*
X177641381Y-196286381D01*
X179022334Y-196286381D02*
X178450905Y-196286381D01*
X178736619Y-196286381D02*
X178736619Y-195286381D01*
X178641381Y-195429238D01*
X178546143Y-195524476D01*
X178450905Y-195572095D01*
X179641381Y-195286381D02*
X179736620Y-195286381D01*
X179831858Y-195334000D01*
X179879477Y-195381619D01*
X179927096Y-195476857D01*
X179974715Y-195667333D01*
X179974715Y-195905429D01*
X179927096Y-196095905D01*
X179879477Y-196191143D01*
X179831858Y-196238762D01*
X179736620Y-196286381D01*
X179641381Y-196286381D01*
X179546143Y-196238762D01*
X179498524Y-196191143D01*
X179450905Y-196095905D01*
X179403286Y-195905429D01*
X179403286Y-195667333D01*
X179450905Y-195476857D01*
X179498524Y-195381619D01*
X179546143Y-195334000D01*
X179641381Y-195286381D01*
X201128334Y-169489381D02*
X200795000Y-169013190D01*
X200556905Y-169489381D02*
X200556905Y-168489381D01*
X200937858Y-168489381D01*
X201033096Y-168537000D01*
X201080715Y-168584619D01*
X201128334Y-168679857D01*
X201128334Y-168822714D01*
X201080715Y-168917952D01*
X201033096Y-168965571D01*
X200937858Y-169013190D01*
X200556905Y-169013190D01*
X202080715Y-169489381D02*
X201509286Y-169489381D01*
X201795000Y-169489381D02*
X201795000Y-168489381D01*
X201699762Y-168632238D01*
X201604524Y-168727476D01*
X201509286Y-168775095D01*
X179697143Y-179649381D02*
X179363809Y-179173190D01*
X179125714Y-179649381D02*
X179125714Y-178649381D01*
X179506667Y-178649381D01*
X179601905Y-178697000D01*
X179649524Y-178744619D01*
X179697143Y-178839857D01*
X179697143Y-178982714D01*
X179649524Y-179077952D01*
X179601905Y-179125571D01*
X179506667Y-179173190D01*
X179125714Y-179173190D01*
X180649524Y-179649381D02*
X180078095Y-179649381D01*
X180363809Y-179649381D02*
X180363809Y-178649381D01*
X180268571Y-178792238D01*
X180173333Y-178887476D01*
X180078095Y-178935095D01*
X181125714Y-179649381D02*
X181316190Y-179649381D01*
X181411429Y-179601762D01*
X181459048Y-179554143D01*
X181554286Y-179411286D01*
X181601905Y-179220810D01*
X181601905Y-178839857D01*
X181554286Y-178744619D01*
X181506667Y-178697000D01*
X181411429Y-178649381D01*
X181220952Y-178649381D01*
X181125714Y-178697000D01*
X181078095Y-178744619D01*
X181030476Y-178839857D01*
X181030476Y-179077952D01*
X181078095Y-179173190D01*
X181125714Y-179220810D01*
X181220952Y-179268429D01*
X181411429Y-179268429D01*
X181506667Y-179220810D01*
X181554286Y-179173190D01*
X181601905Y-179077952D01*
X179268381Y-187205857D02*
X178792190Y-187539191D01*
X179268381Y-187777286D02*
X178268381Y-187777286D01*
X178268381Y-187396333D01*
X178316000Y-187301095D01*
X178363619Y-187253476D01*
X178458857Y-187205857D01*
X178601714Y-187205857D01*
X178696952Y-187253476D01*
X178744571Y-187301095D01*
X178792190Y-187396333D01*
X178792190Y-187777286D01*
X178363619Y-186824905D02*
X178316000Y-186777286D01*
X178268381Y-186682048D01*
X178268381Y-186443952D01*
X178316000Y-186348714D01*
X178363619Y-186301095D01*
X178458857Y-186253476D01*
X178554095Y-186253476D01*
X178696952Y-186301095D01*
X179268381Y-186872524D01*
X179268381Y-186253476D01*
X178268381Y-185920143D02*
X178268381Y-185253476D01*
X179268381Y-185682048D01*
X193198762Y-170219619D02*
X193103524Y-170172000D01*
X193008286Y-170076762D01*
X192865429Y-169933905D01*
X192770190Y-169886286D01*
X192674952Y-169886286D01*
X192722571Y-170124381D02*
X192627333Y-170076762D01*
X192532095Y-169981524D01*
X192484476Y-169791048D01*
X192484476Y-169457714D01*
X192532095Y-169267238D01*
X192627333Y-169172000D01*
X192722571Y-169124381D01*
X192913048Y-169124381D01*
X193008286Y-169172000D01*
X193103524Y-169267238D01*
X193151143Y-169457714D01*
X193151143Y-169791048D01*
X193103524Y-169981524D01*
X193008286Y-170076762D01*
X192913048Y-170124381D01*
X192722571Y-170124381D01*
X193484476Y-169124381D02*
X194103524Y-169124381D01*
X193770190Y-169505333D01*
X193913048Y-169505333D01*
X194008286Y-169552952D01*
X194055905Y-169600571D01*
X194103524Y-169695810D01*
X194103524Y-169933905D01*
X194055905Y-170029143D01*
X194008286Y-170076762D01*
X193913048Y-170124381D01*
X193627333Y-170124381D01*
X193532095Y-170076762D01*
X193484476Y-170029143D01*
X192690762Y-179617619D02*
X192595524Y-179570000D01*
X192500286Y-179474762D01*
X192357429Y-179331905D01*
X192262190Y-179284286D01*
X192166952Y-179284286D01*
X192214571Y-179522381D02*
X192119333Y-179474762D01*
X192024095Y-179379524D01*
X191976476Y-179189048D01*
X191976476Y-178855714D01*
X192024095Y-178665238D01*
X192119333Y-178570000D01*
X192214571Y-178522381D01*
X192405048Y-178522381D01*
X192500286Y-178570000D01*
X192595524Y-178665238D01*
X192643143Y-178855714D01*
X192643143Y-179189048D01*
X192595524Y-179379524D01*
X192500286Y-179474762D01*
X192405048Y-179522381D01*
X192214571Y-179522381D01*
X193595524Y-179522381D02*
X193024095Y-179522381D01*
X193309809Y-179522381D02*
X193309809Y-178522381D01*
X193214571Y-178665238D01*
X193119333Y-178760476D01*
X193024095Y-178808095D01*
X180792381Y-187205857D02*
X180316190Y-187539191D01*
X180792381Y-187777286D02*
X179792381Y-187777286D01*
X179792381Y-187396333D01*
X179840000Y-187301095D01*
X179887619Y-187253476D01*
X179982857Y-187205857D01*
X180125714Y-187205857D01*
X180220952Y-187253476D01*
X180268571Y-187301095D01*
X180316190Y-187396333D01*
X180316190Y-187777286D01*
X179887619Y-186824905D02*
X179840000Y-186777286D01*
X179792381Y-186682048D01*
X179792381Y-186443952D01*
X179840000Y-186348714D01*
X179887619Y-186301095D01*
X179982857Y-186253476D01*
X180078095Y-186253476D01*
X180220952Y-186301095D01*
X180792381Y-186872524D01*
X180792381Y-186253476D01*
X179792381Y-185396333D02*
X179792381Y-185586810D01*
X179840000Y-185682048D01*
X179887619Y-185729667D01*
X180030476Y-185824905D01*
X180220952Y-185872524D01*
X180601905Y-185872524D01*
X180697143Y-185824905D01*
X180744762Y-185777286D01*
X180792381Y-185682048D01*
X180792381Y-185491571D01*
X180744762Y-185396333D01*
X180697143Y-185348714D01*
X180601905Y-185301095D01*
X180363810Y-185301095D01*
X180268571Y-185348714D01*
X180220952Y-185396333D01*
X180173333Y-185491571D01*
X180173333Y-185682048D01*
X180220952Y-185777286D01*
X180268571Y-185824905D01*
X180363810Y-185872524D01*
X170680143Y-176982381D02*
X170346809Y-176506190D01*
X170108714Y-176982381D02*
X170108714Y-175982381D01*
X170489667Y-175982381D01*
X170584905Y-176030000D01*
X170632524Y-176077619D01*
X170680143Y-176172857D01*
X170680143Y-176315714D01*
X170632524Y-176410952D01*
X170584905Y-176458571D01*
X170489667Y-176506190D01*
X170108714Y-176506190D01*
X171013476Y-175982381D02*
X171632524Y-175982381D01*
X171299190Y-176363333D01*
X171442048Y-176363333D01*
X171537286Y-176410952D01*
X171584905Y-176458571D01*
X171632524Y-176553810D01*
X171632524Y-176791905D01*
X171584905Y-176887143D01*
X171537286Y-176934762D01*
X171442048Y-176982381D01*
X171156333Y-176982381D01*
X171061095Y-176934762D01*
X171013476Y-176887143D01*
X172251571Y-175982381D02*
X172346810Y-175982381D01*
X172442048Y-176030000D01*
X172489667Y-176077619D01*
X172537286Y-176172857D01*
X172584905Y-176363333D01*
X172584905Y-176601429D01*
X172537286Y-176791905D01*
X172489667Y-176887143D01*
X172442048Y-176934762D01*
X172346810Y-176982381D01*
X172251571Y-176982381D01*
X172156333Y-176934762D01*
X172108714Y-176887143D01*
X172061095Y-176791905D01*
X172013476Y-176601429D01*
X172013476Y-176363333D01*
X172061095Y-176172857D01*
X172108714Y-176077619D01*
X172156333Y-176030000D01*
X172251571Y-175982381D01*
X170807143Y-194508381D02*
X170473809Y-194032190D01*
X170235714Y-194508381D02*
X170235714Y-193508381D01*
X170616667Y-193508381D01*
X170711905Y-193556000D01*
X170759524Y-193603619D01*
X170807143Y-193698857D01*
X170807143Y-193841714D01*
X170759524Y-193936952D01*
X170711905Y-193984571D01*
X170616667Y-194032190D01*
X170235714Y-194032190D01*
X171140476Y-193508381D02*
X171759524Y-193508381D01*
X171426190Y-193889333D01*
X171569048Y-193889333D01*
X171664286Y-193936952D01*
X171711905Y-193984571D01*
X171759524Y-194079810D01*
X171759524Y-194317905D01*
X171711905Y-194413143D01*
X171664286Y-194460762D01*
X171569048Y-194508381D01*
X171283333Y-194508381D01*
X171188095Y-194460762D01*
X171140476Y-194413143D01*
X172711905Y-194508381D02*
X172140476Y-194508381D01*
X172426190Y-194508381D02*
X172426190Y-193508381D01*
X172330952Y-193651238D01*
X172235714Y-193746476D01*
X172140476Y-193794095D01*
X187825143Y-169544381D02*
X187491809Y-169068190D01*
X187253714Y-169544381D02*
X187253714Y-168544381D01*
X187634667Y-168544381D01*
X187729905Y-168592000D01*
X187777524Y-168639619D01*
X187825143Y-168734857D01*
X187825143Y-168877714D01*
X187777524Y-168972952D01*
X187729905Y-169020571D01*
X187634667Y-169068190D01*
X187253714Y-169068190D01*
X188777524Y-169544381D02*
X188206095Y-169544381D01*
X188491809Y-169544381D02*
X188491809Y-168544381D01*
X188396571Y-168687238D01*
X188301333Y-168782476D01*
X188206095Y-168830095D01*
X189110857Y-168544381D02*
X189777524Y-168544381D01*
X189348952Y-169544381D01*
X188206143Y-189682381D02*
X187872809Y-189206190D01*
X187634714Y-189682381D02*
X187634714Y-188682381D01*
X188015667Y-188682381D01*
X188110905Y-188730000D01*
X188158524Y-188777619D01*
X188206143Y-188872857D01*
X188206143Y-189015714D01*
X188158524Y-189110952D01*
X188110905Y-189158571D01*
X188015667Y-189206190D01*
X187634714Y-189206190D01*
X189158524Y-189682381D02*
X188587095Y-189682381D01*
X188872809Y-189682381D02*
X188872809Y-188682381D01*
X188777571Y-188825238D01*
X188682333Y-188920476D01*
X188587095Y-188968095D01*
X189729952Y-189110952D02*
X189634714Y-189063333D01*
X189587095Y-189015714D01*
X189539476Y-188920476D01*
X189539476Y-188872857D01*
X189587095Y-188777619D01*
X189634714Y-188730000D01*
X189729952Y-188682381D01*
X189920429Y-188682381D01*
X190015667Y-188730000D01*
X190063286Y-188777619D01*
X190110905Y-188872857D01*
X190110905Y-188920476D01*
X190063286Y-189015714D01*
X190015667Y-189063333D01*
X189920429Y-189110952D01*
X189729952Y-189110952D01*
X189634714Y-189158571D01*
X189587095Y-189206190D01*
X189539476Y-189301429D01*
X189539476Y-189491905D01*
X189587095Y-189587143D01*
X189634714Y-189634762D01*
X189729952Y-189682381D01*
X189920429Y-189682381D01*
X190015667Y-189634762D01*
X190063286Y-189587143D01*
X190110905Y-189491905D01*
X190110905Y-189301429D01*
X190063286Y-189206190D01*
X190015667Y-189158571D01*
X189920429Y-189110952D01*
M02*
