G04 #@! TF.FileFunction,Copper,L4,Bot,Signal*
%FSLAX46Y46*%
G04 Gerber Fmt 4.6, Leading zero omitted, Abs format (unit mm)*
G04 Created by KiCad (PCBNEW 4.0.2-stable) date 06/11/2017 10:09:17*
%MOMM*%
G01*
G04 APERTURE LIST*
%ADD10C,0.100000*%
%ADD11R,2.400000X1.600000*%
%ADD12O,2.400000X1.600000*%
%ADD13C,1.500000*%
%ADD14C,3.500000*%
%ADD15O,3.600000X2.500000*%
%ADD16R,3.600000X2.500000*%
%ADD17C,3.000000*%
%ADD18R,1.800000X1.800000*%
%ADD19O,1.800000X1.800000*%
%ADD20C,8.000000*%
%ADD21C,5.000000*%
%ADD22C,0.600000*%
%ADD23C,1.000000*%
%ADD24C,0.500000*%
G04 APERTURE END LIST*
D10*
D11*
X207010000Y-165100000D03*
D12*
X199390000Y-172720000D03*
X207010000Y-167640000D03*
X199390000Y-170180000D03*
X207010000Y-170180000D03*
X199390000Y-167640000D03*
X207010000Y-172720000D03*
X199390000Y-165100000D03*
D13*
X212664000Y-180086000D03*
X212664000Y-182626000D03*
D14*
X217744000Y-185166000D03*
X217744000Y-175006000D03*
D15*
X218694000Y-168148000D03*
X218694000Y-163068000D03*
D16*
X218694000Y-157988000D03*
X213614000Y-157988000D03*
D15*
X213614000Y-163068000D03*
X213614000Y-168148000D03*
X151920000Y-155840000D03*
X152020000Y-160884000D03*
D16*
X151920000Y-166000000D03*
X157000000Y-166000000D03*
D15*
X157000000Y-160920000D03*
X157000000Y-155840000D03*
X151920000Y-194340000D03*
X151920000Y-199420000D03*
D16*
X151920000Y-204500000D03*
X157000000Y-204500000D03*
D15*
X157020000Y-199284000D03*
X157000000Y-194340000D03*
D13*
X154366000Y-180340000D03*
X154366000Y-177800000D03*
D17*
X149286000Y-175260000D03*
X149286000Y-185420000D03*
D18*
X171450000Y-174244000D03*
D19*
X173990000Y-174244000D03*
X176530000Y-174244000D03*
D18*
X171450000Y-186372500D03*
D19*
X173990000Y-186372500D03*
X176530000Y-186372500D03*
D18*
X176530000Y-178562000D03*
D19*
X173990000Y-178562000D03*
X171450000Y-178562000D03*
D18*
X176530000Y-183642000D03*
D19*
X173990000Y-183642000D03*
X171450000Y-183642000D03*
D20*
X215000000Y-194500000D03*
D14*
X200000000Y-156500000D03*
X180000000Y-156500000D03*
X200000000Y-204000000D03*
X180000000Y-204000000D03*
D18*
X176530000Y-188976000D03*
D19*
X173990000Y-188976000D03*
X171450000Y-188976000D03*
D18*
X171450000Y-191516000D03*
D19*
X173990000Y-191516000D03*
X176530000Y-191516000D03*
D21*
X161290000Y-180721000D03*
X186690000Y-180721000D03*
D22*
X183578500Y-186118500D03*
X171323000Y-171005500D03*
X177990500Y-163830000D03*
X194945000Y-168211500D03*
X203835000Y-182880000D03*
X199326500Y-188976000D03*
X194119500Y-195389500D03*
X184658000Y-186182000D03*
X194945000Y-203835000D03*
X162433000Y-206629000D03*
X172974000Y-204470000D03*
X175895000Y-200533000D03*
X193294000Y-159385000D03*
X194564000Y-156591000D03*
X162687000Y-153670000D03*
X174244000Y-154940000D03*
X204343000Y-166116000D03*
X204343000Y-167640000D03*
X202311000Y-171069000D03*
X203200000Y-173609000D03*
X184531000Y-175514000D03*
X197739000Y-176276000D03*
X197612000Y-181991000D03*
X164020500Y-159131000D03*
X186944000Y-172466000D03*
X186436000Y-191897000D03*
X186817000Y-192532000D03*
X189484000Y-187833000D03*
X190119000Y-187833000D03*
X167132000Y-161925000D03*
X166179500Y-162877500D03*
X176022000Y-197548500D03*
X164973000Y-197294500D03*
X167386000Y-187896500D03*
X185928000Y-188341000D03*
X184150000Y-187833000D03*
D23*
X171450000Y-178562000D02*
X169481500Y-180530500D01*
X169481500Y-180530500D02*
X169481500Y-185229500D01*
X169481500Y-185229500D02*
X170624500Y-186372500D01*
X170624500Y-186372500D02*
X171450000Y-186372500D01*
D24*
G36*
X221746000Y-156618486D02*
X221681327Y-156274778D01*
X221407563Y-155849337D01*
X220989847Y-155563924D01*
X220494000Y-155463512D01*
X216894000Y-155463512D01*
X216430778Y-155550673D01*
X216152514Y-155729731D01*
X215909847Y-155563924D01*
X215414000Y-155463512D01*
X211814000Y-155463512D01*
X211350778Y-155550673D01*
X210925337Y-155824437D01*
X210639924Y-156242153D01*
X210539512Y-156738000D01*
X210539512Y-159238000D01*
X210626673Y-159701222D01*
X210900437Y-160126663D01*
X211318153Y-160412076D01*
X211814000Y-160512488D01*
X215414000Y-160512488D01*
X215877222Y-160425327D01*
X216155486Y-160246269D01*
X216398153Y-160412076D01*
X216894000Y-160512488D01*
X220494000Y-160512488D01*
X220957222Y-160425327D01*
X221382663Y-160151563D01*
X221668076Y-159733847D01*
X221746000Y-159349049D01*
X221746000Y-167857656D01*
X221613452Y-167191291D01*
X221071520Y-166380233D01*
X220260462Y-165838301D01*
X219303753Y-165648000D01*
X218084247Y-165648000D01*
X217127538Y-165838301D01*
X216316480Y-166380233D01*
X216154000Y-166623401D01*
X215991520Y-166380233D01*
X215180462Y-165838301D01*
X214223753Y-165648000D01*
X213004247Y-165648000D01*
X212047538Y-165838301D01*
X211236480Y-166380233D01*
X210694548Y-167191291D01*
X210504247Y-168148000D01*
X210694548Y-169104709D01*
X211236480Y-169915767D01*
X212047538Y-170457699D01*
X213004247Y-170648000D01*
X214223753Y-170648000D01*
X215180462Y-170457699D01*
X215991520Y-169915767D01*
X216154000Y-169672599D01*
X216316480Y-169915767D01*
X217127538Y-170457699D01*
X218084247Y-170648000D01*
X219303753Y-170648000D01*
X220260462Y-170457699D01*
X221071520Y-169915767D01*
X221613452Y-169104709D01*
X221746000Y-168438344D01*
X221746000Y-207776000D01*
X146300000Y-207776000D01*
X146300000Y-203250000D01*
X148845512Y-203250000D01*
X148845512Y-205750000D01*
X148932673Y-206213222D01*
X149206437Y-206638663D01*
X149624153Y-206924076D01*
X150120000Y-207024488D01*
X153720000Y-207024488D01*
X154183222Y-206937327D01*
X154461486Y-206758269D01*
X154704153Y-206924076D01*
X155200000Y-207024488D01*
X158800000Y-207024488D01*
X159263222Y-206937327D01*
X159688663Y-206663563D01*
X159974076Y-206245847D01*
X160074488Y-205750000D01*
X160074488Y-204594119D01*
X176999481Y-204594119D01*
X177455241Y-205697143D01*
X178298418Y-206541793D01*
X179400645Y-206999478D01*
X180594119Y-207000519D01*
X181697143Y-206544759D01*
X182541793Y-205701582D01*
X182999478Y-204599355D01*
X182999482Y-204594119D01*
X196999481Y-204594119D01*
X197455241Y-205697143D01*
X198298418Y-206541793D01*
X199400645Y-206999478D01*
X200594119Y-207000519D01*
X201697143Y-206544759D01*
X202541793Y-205701582D01*
X202999478Y-204599355D01*
X203000519Y-203405881D01*
X202544759Y-202302857D01*
X201701582Y-201458207D01*
X200599355Y-201000522D01*
X199405881Y-200999481D01*
X198302857Y-201455241D01*
X197458207Y-202298418D01*
X197000522Y-203400645D01*
X196999481Y-204594119D01*
X182999482Y-204594119D01*
X183000519Y-203405881D01*
X182544759Y-202302857D01*
X181701582Y-201458207D01*
X180599355Y-201000522D01*
X179405881Y-200999481D01*
X178302857Y-201455241D01*
X177458207Y-202298418D01*
X177000522Y-203400645D01*
X176999481Y-204594119D01*
X160074488Y-204594119D01*
X160074488Y-203250000D01*
X159987327Y-202786778D01*
X159713563Y-202361337D01*
X159295847Y-202075924D01*
X158800000Y-201975512D01*
X155200000Y-201975512D01*
X154736778Y-202062673D01*
X154458514Y-202241731D01*
X154215847Y-202075924D01*
X153720000Y-201975512D01*
X150120000Y-201975512D01*
X149656778Y-202062673D01*
X149231337Y-202336437D01*
X148945924Y-202754153D01*
X148845512Y-203250000D01*
X146300000Y-203250000D01*
X146300000Y-199977337D01*
X149449226Y-199977337D01*
X149779010Y-200657437D01*
X150373663Y-201172088D01*
X151120000Y-201420000D01*
X151670000Y-201420000D01*
X151670000Y-199670000D01*
X152170000Y-199670000D01*
X152170000Y-201420000D01*
X152720000Y-201420000D01*
X153466337Y-201172088D01*
X154060990Y-200657437D01*
X154390774Y-199977337D01*
X154335196Y-199841337D01*
X154549226Y-199841337D01*
X154879010Y-200521437D01*
X155473663Y-201036088D01*
X156220000Y-201284000D01*
X156770000Y-201284000D01*
X156770000Y-199534000D01*
X157270000Y-199534000D01*
X157270000Y-201284000D01*
X157820000Y-201284000D01*
X158566337Y-201036088D01*
X159160990Y-200521437D01*
X159490774Y-199841337D01*
X159365176Y-199534000D01*
X157270000Y-199534000D01*
X156770000Y-199534000D01*
X154674824Y-199534000D01*
X154549226Y-199841337D01*
X154335196Y-199841337D01*
X154265176Y-199670000D01*
X152170000Y-199670000D01*
X151670000Y-199670000D01*
X149574824Y-199670000D01*
X149449226Y-199977337D01*
X146300000Y-199977337D01*
X146300000Y-198862663D01*
X149449226Y-198862663D01*
X149574824Y-199170000D01*
X151670000Y-199170000D01*
X151670000Y-197420000D01*
X152170000Y-197420000D01*
X152170000Y-199170000D01*
X154265176Y-199170000D01*
X154390774Y-198862663D01*
X154324827Y-198726663D01*
X154549226Y-198726663D01*
X154674824Y-199034000D01*
X156770000Y-199034000D01*
X156770000Y-197284000D01*
X157270000Y-197284000D01*
X157270000Y-199034000D01*
X159365176Y-199034000D01*
X159490774Y-198726663D01*
X159160990Y-198046563D01*
X158646698Y-197601461D01*
X163422732Y-197601461D01*
X163658208Y-198171357D01*
X164093849Y-198607760D01*
X164663333Y-198844230D01*
X165279961Y-198844768D01*
X165849857Y-198609292D01*
X166286260Y-198173651D01*
X166418383Y-197855461D01*
X174471732Y-197855461D01*
X174707208Y-198425357D01*
X175142849Y-198861760D01*
X175712333Y-199098230D01*
X176328961Y-199098768D01*
X176898857Y-198863292D01*
X177335260Y-198427651D01*
X177527782Y-197964004D01*
X211889550Y-197964004D01*
X212359371Y-198559839D01*
X214114010Y-199261327D01*
X216003533Y-199237946D01*
X217640629Y-198559839D01*
X218110450Y-197964004D01*
X215000000Y-194853553D01*
X211889550Y-197964004D01*
X177527782Y-197964004D01*
X177571730Y-197858167D01*
X177572268Y-197241539D01*
X177336792Y-196671643D01*
X176901151Y-196235240D01*
X176331667Y-195998770D01*
X175715039Y-195998232D01*
X175145143Y-196233708D01*
X174708740Y-196669349D01*
X174472270Y-197238833D01*
X174471732Y-197855461D01*
X166418383Y-197855461D01*
X166522730Y-197604167D01*
X166523268Y-196987539D01*
X166287792Y-196417643D01*
X165852151Y-195981240D01*
X165282667Y-195744770D01*
X164666039Y-195744232D01*
X164096143Y-195979708D01*
X163659740Y-196415349D01*
X163423270Y-196984833D01*
X163422732Y-197601461D01*
X158646698Y-197601461D01*
X158566337Y-197531912D01*
X157820000Y-197284000D01*
X157270000Y-197284000D01*
X156770000Y-197284000D01*
X156220000Y-197284000D01*
X155473663Y-197531912D01*
X154879010Y-198046563D01*
X154549226Y-198726663D01*
X154324827Y-198726663D01*
X154060990Y-198182563D01*
X153466337Y-197667912D01*
X152720000Y-197420000D01*
X152170000Y-197420000D01*
X151670000Y-197420000D01*
X151120000Y-197420000D01*
X150373663Y-197667912D01*
X149779010Y-198182563D01*
X149449226Y-198862663D01*
X146300000Y-198862663D01*
X146300000Y-194340000D01*
X148810247Y-194340000D01*
X149000548Y-195296709D01*
X149542480Y-196107767D01*
X150353538Y-196649699D01*
X151310247Y-196840000D01*
X152529753Y-196840000D01*
X153486462Y-196649699D01*
X154297520Y-196107767D01*
X154460000Y-195864599D01*
X154622480Y-196107767D01*
X155433538Y-196649699D01*
X156390247Y-196840000D01*
X157609753Y-196840000D01*
X158566462Y-196649699D01*
X159377520Y-196107767D01*
X159919452Y-195296709D01*
X160109753Y-194340000D01*
X159919452Y-193383291D01*
X159377520Y-192572233D01*
X158566462Y-192030301D01*
X157609753Y-191840000D01*
X156390247Y-191840000D01*
X155433538Y-192030301D01*
X154622480Y-192572233D01*
X154460000Y-192815401D01*
X154297520Y-192572233D01*
X153486462Y-192030301D01*
X152529753Y-191840000D01*
X151310247Y-191840000D01*
X150353538Y-192030301D01*
X149542480Y-192572233D01*
X149000548Y-193383291D01*
X148810247Y-194340000D01*
X146300000Y-194340000D01*
X146300000Y-188203461D01*
X165835732Y-188203461D01*
X166071208Y-188773357D01*
X166506849Y-189209760D01*
X167076333Y-189446230D01*
X167692961Y-189446768D01*
X168262857Y-189211292D01*
X168699260Y-188775651D01*
X168935730Y-188206167D01*
X168936268Y-187589539D01*
X168700792Y-187019643D01*
X168265151Y-186583240D01*
X167695667Y-186346770D01*
X167079039Y-186346232D01*
X166509143Y-186581708D01*
X166072740Y-187017349D01*
X165836270Y-187586833D01*
X165835732Y-188203461D01*
X146300000Y-188203461D01*
X146300000Y-187075827D01*
X147983726Y-187075827D01*
X148147859Y-187411843D01*
X148996740Y-187695771D01*
X149889658Y-187633234D01*
X150424141Y-187411843D01*
X150588274Y-187075827D01*
X149286000Y-185773553D01*
X147983726Y-187075827D01*
X146300000Y-187075827D01*
X146300000Y-185130740D01*
X147010229Y-185130740D01*
X147072766Y-186023658D01*
X147294157Y-186558141D01*
X147630173Y-186722274D01*
X148932447Y-185420000D01*
X149639553Y-185420000D01*
X150941827Y-186722274D01*
X151277843Y-186558141D01*
X151561771Y-185709260D01*
X151499234Y-184816342D01*
X151277843Y-184281859D01*
X150941827Y-184117726D01*
X149639553Y-185420000D01*
X148932447Y-185420000D01*
X147630173Y-184117726D01*
X147294157Y-184281859D01*
X147010229Y-185130740D01*
X146300000Y-185130740D01*
X146300000Y-183764173D01*
X147983726Y-183764173D01*
X149286000Y-185066447D01*
X150588274Y-183764173D01*
X150424141Y-183428157D01*
X149575260Y-183144229D01*
X148682342Y-183206766D01*
X148147859Y-183428157D01*
X147983726Y-183764173D01*
X146300000Y-183764173D01*
X146300000Y-180934119D01*
X151365481Y-180934119D01*
X151821241Y-182037143D01*
X152664418Y-182881793D01*
X153766645Y-183339478D01*
X154960119Y-183340519D01*
X155539233Y-183101234D01*
X159263320Y-183101234D01*
X159550078Y-183541122D01*
X160761736Y-183992292D01*
X162053817Y-183945438D01*
X163029922Y-183541122D01*
X163316680Y-183101234D01*
X161290000Y-181074553D01*
X159263320Y-183101234D01*
X155539233Y-183101234D01*
X156063143Y-182884759D01*
X156907793Y-182041582D01*
X157365478Y-180939355D01*
X157366129Y-180192736D01*
X158018708Y-180192736D01*
X158065562Y-181484817D01*
X158469878Y-182460922D01*
X158909766Y-182747680D01*
X160936447Y-180721000D01*
X161643553Y-180721000D01*
X163670234Y-182747680D01*
X164110122Y-182460922D01*
X164561292Y-181249264D01*
X164535228Y-180530500D01*
X167731500Y-180530500D01*
X167731500Y-185229500D01*
X167864711Y-185899196D01*
X168244063Y-186466937D01*
X169327866Y-187550740D01*
X169362673Y-187735722D01*
X169528410Y-187993285D01*
X169421538Y-188153231D01*
X169257879Y-188976000D01*
X169421538Y-189798769D01*
X169507556Y-189927504D01*
X169375924Y-190120153D01*
X169275512Y-190616000D01*
X169275512Y-192416000D01*
X169362673Y-192879222D01*
X169636437Y-193304663D01*
X170054153Y-193590076D01*
X170550000Y-193690488D01*
X172350000Y-193690488D01*
X172813222Y-193603327D01*
X173049093Y-193451548D01*
X173125110Y-193502341D01*
X173947879Y-193666000D01*
X174032121Y-193666000D01*
X174854890Y-193502341D01*
X175260000Y-193231656D01*
X175665110Y-193502341D01*
X176487879Y-193666000D01*
X176572121Y-193666000D01*
X177394890Y-193502341D01*
X178092401Y-193036280D01*
X178558462Y-192338769D01*
X178585276Y-192203961D01*
X184885732Y-192203961D01*
X185121208Y-192773857D01*
X185323608Y-192976611D01*
X185502208Y-193408857D01*
X185937849Y-193845260D01*
X186507333Y-194081730D01*
X187123961Y-194082268D01*
X187693857Y-193846792D01*
X187927046Y-193614010D01*
X210238673Y-193614010D01*
X210262054Y-195503533D01*
X210940161Y-197140629D01*
X211535996Y-197610450D01*
X214646447Y-194500000D01*
X215353553Y-194500000D01*
X218464004Y-197610450D01*
X219059839Y-197140629D01*
X219761327Y-195385990D01*
X219737946Y-193496467D01*
X219059839Y-191859371D01*
X218464004Y-191389550D01*
X215353553Y-194500000D01*
X214646447Y-194500000D01*
X211535996Y-191389550D01*
X210940161Y-191859371D01*
X210238673Y-193614010D01*
X187927046Y-193614010D01*
X188130260Y-193411151D01*
X188366730Y-192841667D01*
X188367268Y-192225039D01*
X188131792Y-191655143D01*
X187929392Y-191452389D01*
X187757343Y-191035996D01*
X211889550Y-191035996D01*
X215000000Y-194146447D01*
X218110450Y-191035996D01*
X217640629Y-190440161D01*
X215885990Y-189738673D01*
X213996467Y-189762054D01*
X212359371Y-190440161D01*
X211889550Y-191035996D01*
X187757343Y-191035996D01*
X187750792Y-191020143D01*
X187315151Y-190583740D01*
X186745667Y-190347270D01*
X186129039Y-190346732D01*
X185559143Y-190582208D01*
X185122740Y-191017849D01*
X184886270Y-191587333D01*
X184885732Y-192203961D01*
X178585276Y-192203961D01*
X178722121Y-191516000D01*
X178558462Y-190693231D01*
X178472444Y-190564496D01*
X178604076Y-190371847D01*
X178704488Y-189876000D01*
X178704488Y-188139961D01*
X182599732Y-188139961D01*
X182835208Y-188709857D01*
X183270849Y-189146260D01*
X183840333Y-189382730D01*
X184456961Y-189383268D01*
X184684484Y-189289258D01*
X185048849Y-189654260D01*
X185618333Y-189890730D01*
X186234961Y-189891268D01*
X186804857Y-189655792D01*
X187241260Y-189220151D01*
X187477730Y-188650667D01*
X187478175Y-188139961D01*
X187933732Y-188139961D01*
X188169208Y-188709857D01*
X188604849Y-189146260D01*
X189174333Y-189382730D01*
X189790961Y-189383268D01*
X189800819Y-189379195D01*
X189809333Y-189382730D01*
X190425961Y-189383268D01*
X190995857Y-189147792D01*
X191432260Y-188712151D01*
X191668730Y-188142667D01*
X191669268Y-187526039D01*
X191453240Y-187003210D01*
X216260344Y-187003210D01*
X216455226Y-187365171D01*
X217394914Y-187690962D01*
X218387748Y-187632351D01*
X219032774Y-187365171D01*
X219227656Y-187003210D01*
X217744000Y-185519553D01*
X216260344Y-187003210D01*
X191453240Y-187003210D01*
X191433792Y-186956143D01*
X190998151Y-186519740D01*
X190428667Y-186283270D01*
X189812039Y-186282732D01*
X189802181Y-186286805D01*
X189793667Y-186283270D01*
X189177039Y-186282732D01*
X188607143Y-186518208D01*
X188170740Y-186953849D01*
X187934270Y-187523333D01*
X187933732Y-188139961D01*
X187478175Y-188139961D01*
X187478268Y-188034039D01*
X187242792Y-187464143D01*
X186807151Y-187027740D01*
X186237667Y-186791270D01*
X185621039Y-186790732D01*
X185393516Y-186884742D01*
X185029151Y-186519740D01*
X184459667Y-186283270D01*
X183843039Y-186282732D01*
X183273143Y-186518208D01*
X182836740Y-186953849D01*
X182600270Y-187523333D01*
X182599732Y-188139961D01*
X178704488Y-188139961D01*
X178704488Y-188076000D01*
X178617327Y-187612778D01*
X178451590Y-187355215D01*
X178558462Y-187195269D01*
X178722121Y-186372500D01*
X178558462Y-185549731D01*
X178408090Y-185324683D01*
X178604076Y-185037847D01*
X178648816Y-184816914D01*
X215219038Y-184816914D01*
X215277649Y-185809748D01*
X215544829Y-186454774D01*
X215906790Y-186649656D01*
X217390447Y-185166000D01*
X218097553Y-185166000D01*
X219581210Y-186649656D01*
X219943171Y-186454774D01*
X220268962Y-185515086D01*
X220210351Y-184522252D01*
X219943171Y-183877226D01*
X219581210Y-183682344D01*
X218097553Y-185166000D01*
X217390447Y-185166000D01*
X215906790Y-183682344D01*
X215544829Y-183877226D01*
X215219038Y-184816914D01*
X178648816Y-184816914D01*
X178704488Y-184542000D01*
X178704488Y-183101234D01*
X184663320Y-183101234D01*
X184950078Y-183541122D01*
X186161736Y-183992292D01*
X187453817Y-183945438D01*
X188429922Y-183541122D01*
X188716680Y-183101234D01*
X186690000Y-181074553D01*
X184663320Y-183101234D01*
X178704488Y-183101234D01*
X178704488Y-182742000D01*
X178617327Y-182278778D01*
X178343563Y-181853337D01*
X177925847Y-181567924D01*
X177430000Y-181467512D01*
X175630000Y-181467512D01*
X175166778Y-181554673D01*
X174930907Y-181706452D01*
X174854890Y-181655659D01*
X174032121Y-181492000D01*
X173947879Y-181492000D01*
X173125110Y-181655659D01*
X172720000Y-181926344D01*
X172314890Y-181655659D01*
X171492121Y-181492000D01*
X171407879Y-181492000D01*
X171231500Y-181527084D01*
X171231500Y-181255374D01*
X171845082Y-180641792D01*
X172314890Y-180548341D01*
X172720000Y-180277656D01*
X173125110Y-180548341D01*
X173947879Y-180712000D01*
X174032121Y-180712000D01*
X174854890Y-180548341D01*
X174931162Y-180497378D01*
X175134153Y-180636076D01*
X175630000Y-180736488D01*
X177430000Y-180736488D01*
X177893222Y-180649327D01*
X178318663Y-180375563D01*
X178443583Y-180192736D01*
X183418708Y-180192736D01*
X183465562Y-181484817D01*
X183869878Y-182460922D01*
X184309766Y-182747680D01*
X186336447Y-180721000D01*
X187043553Y-180721000D01*
X189070234Y-182747680D01*
X189510122Y-182460922D01*
X189961292Y-181249264D01*
X189940654Y-180680119D01*
X209663481Y-180680119D01*
X210119241Y-181783143D01*
X210962418Y-182627793D01*
X211162897Y-182711039D01*
X211212869Y-183108953D01*
X211296396Y-183310605D01*
X211554979Y-183381468D01*
X211913662Y-183022785D01*
X212064645Y-183085478D01*
X212557645Y-183085908D01*
X211908532Y-183735021D01*
X211979395Y-183993604D01*
X212554867Y-184151488D01*
X213146953Y-184077131D01*
X213348605Y-183993604D01*
X213419468Y-183735021D01*
X212770541Y-183086094D01*
X213258119Y-183086519D01*
X213413762Y-183022209D01*
X213773021Y-183381468D01*
X213965245Y-183328790D01*
X216260344Y-183328790D01*
X217744000Y-184812447D01*
X219227656Y-183328790D01*
X219032774Y-182966829D01*
X218093086Y-182641038D01*
X217100252Y-182699649D01*
X216455226Y-182966829D01*
X216260344Y-183328790D01*
X213965245Y-183328790D01*
X214031604Y-183310605D01*
X214189488Y-182735133D01*
X214185495Y-182703335D01*
X214361143Y-182630759D01*
X215205793Y-181787582D01*
X215663478Y-180685355D01*
X215664519Y-179491881D01*
X215208759Y-178388857D01*
X214365582Y-177544207D01*
X213263355Y-177086522D01*
X212069881Y-177085481D01*
X210966857Y-177541241D01*
X210122207Y-178384418D01*
X209664522Y-179486645D01*
X209663481Y-180680119D01*
X189940654Y-180680119D01*
X189914438Y-179957183D01*
X189510122Y-178981078D01*
X189070234Y-178694320D01*
X187043553Y-180721000D01*
X186336447Y-180721000D01*
X184309766Y-178694320D01*
X183869878Y-178981078D01*
X183418708Y-180192736D01*
X178443583Y-180192736D01*
X178604076Y-179957847D01*
X178704488Y-179462000D01*
X178704488Y-178340766D01*
X184663320Y-178340766D01*
X186690000Y-180367447D01*
X188716680Y-178340766D01*
X188429922Y-177900878D01*
X187218264Y-177449708D01*
X185926183Y-177496562D01*
X184950078Y-177900878D01*
X184663320Y-178340766D01*
X178704488Y-178340766D01*
X178704488Y-177662000D01*
X178617327Y-177198778D01*
X178388526Y-176843210D01*
X216260344Y-176843210D01*
X216455226Y-177205171D01*
X217394914Y-177530962D01*
X218387748Y-177472351D01*
X219032774Y-177205171D01*
X219227656Y-176843210D01*
X217744000Y-175359553D01*
X216260344Y-176843210D01*
X178388526Y-176843210D01*
X178343563Y-176773337D01*
X177925847Y-176487924D01*
X177430000Y-176387512D01*
X176604738Y-176387512D01*
X177394890Y-176230341D01*
X178092401Y-175764280D01*
X178558462Y-175066769D01*
X178722121Y-174244000D01*
X178558462Y-173421231D01*
X178125303Y-172772961D01*
X185393732Y-172772961D01*
X185629208Y-173342857D01*
X186064849Y-173779260D01*
X186634333Y-174015730D01*
X187250961Y-174016268D01*
X187820857Y-173780792D01*
X188257260Y-173345151D01*
X188493730Y-172775667D01*
X188494268Y-172159039D01*
X188258792Y-171589143D01*
X187823151Y-171152740D01*
X187253667Y-170916270D01*
X186637039Y-170915732D01*
X186067143Y-171151208D01*
X185630740Y-171586849D01*
X185394270Y-172156333D01*
X185393732Y-172772961D01*
X178125303Y-172772961D01*
X178092401Y-172723720D01*
X177394890Y-172257659D01*
X176572121Y-172094000D01*
X176487879Y-172094000D01*
X175665110Y-172257659D01*
X175260000Y-172528344D01*
X174854890Y-172257659D01*
X174032121Y-172094000D01*
X173947879Y-172094000D01*
X173125110Y-172257659D01*
X173048838Y-172308622D01*
X172845847Y-172169924D01*
X172350000Y-172069512D01*
X170550000Y-172069512D01*
X170086778Y-172156673D01*
X169661337Y-172430437D01*
X169375924Y-172848153D01*
X169275512Y-173344000D01*
X169275512Y-175144000D01*
X169362673Y-175607222D01*
X169636437Y-176032663D01*
X170054153Y-176318076D01*
X170550000Y-176418488D01*
X171375262Y-176418488D01*
X170585110Y-176575659D01*
X169887599Y-177041720D01*
X169421538Y-177739231D01*
X169328087Y-178209039D01*
X168244063Y-179293063D01*
X167864711Y-179860804D01*
X167731500Y-180530500D01*
X164535228Y-180530500D01*
X164514438Y-179957183D01*
X164110122Y-178981078D01*
X163670234Y-178694320D01*
X161643553Y-180721000D01*
X160936447Y-180721000D01*
X158909766Y-178694320D01*
X158469878Y-178981078D01*
X158018708Y-180192736D01*
X157366129Y-180192736D01*
X157366519Y-179745881D01*
X156910759Y-178642857D01*
X156609195Y-178340766D01*
X159263320Y-178340766D01*
X161290000Y-180367447D01*
X163316680Y-178340766D01*
X163029922Y-177900878D01*
X161818264Y-177449708D01*
X160526183Y-177496562D01*
X159550078Y-177900878D01*
X159263320Y-178340766D01*
X156609195Y-178340766D01*
X156067582Y-177798207D01*
X155867103Y-177714961D01*
X155817131Y-177317047D01*
X155733604Y-177115395D01*
X155475021Y-177044532D01*
X155116338Y-177403215D01*
X154965355Y-177340522D01*
X154472355Y-177340092D01*
X155121468Y-176690979D01*
X155050605Y-176432396D01*
X154475133Y-176274512D01*
X153883047Y-176348869D01*
X153681395Y-176432396D01*
X153610532Y-176690979D01*
X154259459Y-177339906D01*
X153771881Y-177339481D01*
X153616238Y-177403791D01*
X153256979Y-177044532D01*
X152998396Y-177115395D01*
X152840512Y-177690867D01*
X152844505Y-177722665D01*
X152668857Y-177795241D01*
X151824207Y-178638418D01*
X151366522Y-179740645D01*
X151365481Y-180934119D01*
X146300000Y-180934119D01*
X146300000Y-176915827D01*
X147983726Y-176915827D01*
X148147859Y-177251843D01*
X148996740Y-177535771D01*
X149889658Y-177473234D01*
X150424141Y-177251843D01*
X150588274Y-176915827D01*
X149286000Y-175613553D01*
X147983726Y-176915827D01*
X146300000Y-176915827D01*
X146300000Y-174970740D01*
X147010229Y-174970740D01*
X147072766Y-175863658D01*
X147294157Y-176398141D01*
X147630173Y-176562274D01*
X148932447Y-175260000D01*
X149639553Y-175260000D01*
X150941827Y-176562274D01*
X151277843Y-176398141D01*
X151561771Y-175549260D01*
X151499234Y-174656342D01*
X151277843Y-174121859D01*
X150941827Y-173957726D01*
X149639553Y-175260000D01*
X148932447Y-175260000D01*
X147630173Y-173957726D01*
X147294157Y-174121859D01*
X147010229Y-174970740D01*
X146300000Y-174970740D01*
X146300000Y-173604173D01*
X147983726Y-173604173D01*
X149286000Y-174906447D01*
X150588274Y-173604173D01*
X150424141Y-173268157D01*
X149575260Y-172984229D01*
X148682342Y-173046766D01*
X148147859Y-173268157D01*
X147983726Y-173604173D01*
X146300000Y-173604173D01*
X146300000Y-164750000D01*
X148845512Y-164750000D01*
X148845512Y-167250000D01*
X148932673Y-167713222D01*
X149206437Y-168138663D01*
X149624153Y-168424076D01*
X150120000Y-168524488D01*
X153720000Y-168524488D01*
X154183222Y-168437327D01*
X154461486Y-168258269D01*
X154704153Y-168424076D01*
X155200000Y-168524488D01*
X158800000Y-168524488D01*
X159263222Y-168437327D01*
X159688663Y-168163563D01*
X159974076Y-167745847D01*
X160074488Y-167250000D01*
X160074488Y-165100000D01*
X196892002Y-165100000D01*
X197048049Y-165884501D01*
X197372449Y-166370000D01*
X197048049Y-166855499D01*
X196892002Y-167640000D01*
X197048049Y-168424501D01*
X197372449Y-168910000D01*
X197048049Y-169395499D01*
X196892002Y-170180000D01*
X197048049Y-170964501D01*
X197372449Y-171450000D01*
X197048049Y-171935499D01*
X196892002Y-172720000D01*
X197048049Y-173504501D01*
X197492433Y-174169569D01*
X198157501Y-174613953D01*
X198942002Y-174770000D01*
X199837998Y-174770000D01*
X200622499Y-174613953D01*
X201287567Y-174169569D01*
X201731951Y-173504501D01*
X201887998Y-172720000D01*
X201731951Y-171935499D01*
X201407551Y-171450000D01*
X201731951Y-170964501D01*
X201887998Y-170180000D01*
X201731951Y-169395499D01*
X201407551Y-168910000D01*
X201731951Y-168424501D01*
X201887998Y-167640000D01*
X204512002Y-167640000D01*
X204668049Y-168424501D01*
X204992449Y-168910000D01*
X204668049Y-169395499D01*
X204512002Y-170180000D01*
X204668049Y-170964501D01*
X204992449Y-171450000D01*
X204668049Y-171935499D01*
X204512002Y-172720000D01*
X204668049Y-173504501D01*
X205112433Y-174169569D01*
X205777501Y-174613953D01*
X206562002Y-174770000D01*
X207457998Y-174770000D01*
X208026519Y-174656914D01*
X215219038Y-174656914D01*
X215277649Y-175649748D01*
X215544829Y-176294774D01*
X215906790Y-176489656D01*
X217390447Y-175006000D01*
X218097553Y-175006000D01*
X219581210Y-176489656D01*
X219943171Y-176294774D01*
X220268962Y-175355086D01*
X220210351Y-174362252D01*
X219943171Y-173717226D01*
X219581210Y-173522344D01*
X218097553Y-175006000D01*
X217390447Y-175006000D01*
X215906790Y-173522344D01*
X215544829Y-173717226D01*
X215219038Y-174656914D01*
X208026519Y-174656914D01*
X208242499Y-174613953D01*
X208907567Y-174169569D01*
X209351951Y-173504501D01*
X209418728Y-173168790D01*
X216260344Y-173168790D01*
X217744000Y-174652447D01*
X219227656Y-173168790D01*
X219032774Y-172806829D01*
X218093086Y-172481038D01*
X217100252Y-172539649D01*
X216455226Y-172806829D01*
X216260344Y-173168790D01*
X209418728Y-173168790D01*
X209507998Y-172720000D01*
X209351951Y-171935499D01*
X209027551Y-171450000D01*
X209351951Y-170964501D01*
X209507998Y-170180000D01*
X209351951Y-169395499D01*
X209027551Y-168910000D01*
X209351951Y-168424501D01*
X209507998Y-167640000D01*
X209351951Y-166855499D01*
X209212554Y-166646877D01*
X209384076Y-166395847D01*
X209484488Y-165900000D01*
X209484488Y-164300000D01*
X209397327Y-163836778D01*
X209261269Y-163625337D01*
X211143226Y-163625337D01*
X211473010Y-164305437D01*
X212067663Y-164820088D01*
X212814000Y-165068000D01*
X213364000Y-165068000D01*
X213364000Y-163318000D01*
X213864000Y-163318000D01*
X213864000Y-165068000D01*
X214414000Y-165068000D01*
X215160337Y-164820088D01*
X215754990Y-164305437D01*
X216084774Y-163625337D01*
X216223226Y-163625337D01*
X216553010Y-164305437D01*
X217147663Y-164820088D01*
X217894000Y-165068000D01*
X218444000Y-165068000D01*
X218444000Y-163318000D01*
X218944000Y-163318000D01*
X218944000Y-165068000D01*
X219494000Y-165068000D01*
X220240337Y-164820088D01*
X220834990Y-164305437D01*
X221164774Y-163625337D01*
X221039176Y-163318000D01*
X218944000Y-163318000D01*
X218444000Y-163318000D01*
X216348824Y-163318000D01*
X216223226Y-163625337D01*
X216084774Y-163625337D01*
X215959176Y-163318000D01*
X213864000Y-163318000D01*
X213364000Y-163318000D01*
X211268824Y-163318000D01*
X211143226Y-163625337D01*
X209261269Y-163625337D01*
X209123563Y-163411337D01*
X208705847Y-163125924D01*
X208210000Y-163025512D01*
X205810000Y-163025512D01*
X205346778Y-163112673D01*
X204921337Y-163386437D01*
X204635924Y-163804153D01*
X204535512Y-164300000D01*
X204535512Y-165900000D01*
X204622673Y-166363222D01*
X204806302Y-166648589D01*
X204668049Y-166855499D01*
X204512002Y-167640000D01*
X201887998Y-167640000D01*
X201731951Y-166855499D01*
X201407551Y-166370000D01*
X201731951Y-165884501D01*
X201887998Y-165100000D01*
X201731951Y-164315499D01*
X201287567Y-163650431D01*
X200622499Y-163206047D01*
X199837998Y-163050000D01*
X198942002Y-163050000D01*
X198157501Y-163206047D01*
X197492433Y-163650431D01*
X197048049Y-164315499D01*
X196892002Y-165100000D01*
X160074488Y-165100000D01*
X160074488Y-164750000D01*
X159987327Y-164286778D01*
X159713563Y-163861337D01*
X159295847Y-163575924D01*
X158800000Y-163475512D01*
X155200000Y-163475512D01*
X154736778Y-163562673D01*
X154458514Y-163741731D01*
X154215847Y-163575924D01*
X153720000Y-163475512D01*
X150120000Y-163475512D01*
X149656778Y-163562673D01*
X149231337Y-163836437D01*
X148945924Y-164254153D01*
X148845512Y-164750000D01*
X146300000Y-164750000D01*
X146300000Y-163184461D01*
X164629232Y-163184461D01*
X164864708Y-163754357D01*
X165300349Y-164190760D01*
X165869833Y-164427230D01*
X166486461Y-164427768D01*
X167056357Y-164192292D01*
X167492760Y-163756651D01*
X167644940Y-163390159D01*
X168008857Y-163239792D01*
X168445260Y-162804151D01*
X168567126Y-162510663D01*
X211143226Y-162510663D01*
X211268824Y-162818000D01*
X213364000Y-162818000D01*
X213364000Y-161068000D01*
X213864000Y-161068000D01*
X213864000Y-162818000D01*
X215959176Y-162818000D01*
X216084774Y-162510663D01*
X216223226Y-162510663D01*
X216348824Y-162818000D01*
X218444000Y-162818000D01*
X218444000Y-161068000D01*
X218944000Y-161068000D01*
X218944000Y-162818000D01*
X221039176Y-162818000D01*
X221164774Y-162510663D01*
X220834990Y-161830563D01*
X220240337Y-161315912D01*
X219494000Y-161068000D01*
X218944000Y-161068000D01*
X218444000Y-161068000D01*
X217894000Y-161068000D01*
X217147663Y-161315912D01*
X216553010Y-161830563D01*
X216223226Y-162510663D01*
X216084774Y-162510663D01*
X215754990Y-161830563D01*
X215160337Y-161315912D01*
X214414000Y-161068000D01*
X213864000Y-161068000D01*
X213364000Y-161068000D01*
X212814000Y-161068000D01*
X212067663Y-161315912D01*
X211473010Y-161830563D01*
X211143226Y-162510663D01*
X168567126Y-162510663D01*
X168681730Y-162234667D01*
X168682268Y-161618039D01*
X168446792Y-161048143D01*
X168011151Y-160611740D01*
X167441667Y-160375270D01*
X166825039Y-160374732D01*
X166255143Y-160610208D01*
X165818740Y-161045849D01*
X165666560Y-161412341D01*
X165302643Y-161562708D01*
X164866240Y-161998349D01*
X164629770Y-162567833D01*
X164629232Y-163184461D01*
X146300000Y-163184461D01*
X146300000Y-161441337D01*
X149549226Y-161441337D01*
X149879010Y-162121437D01*
X150473663Y-162636088D01*
X151220000Y-162884000D01*
X151770000Y-162884000D01*
X151770000Y-161134000D01*
X152270000Y-161134000D01*
X152270000Y-162884000D01*
X152820000Y-162884000D01*
X153566337Y-162636088D01*
X154160990Y-162121437D01*
X154473317Y-161477337D01*
X154529226Y-161477337D01*
X154859010Y-162157437D01*
X155453663Y-162672088D01*
X156200000Y-162920000D01*
X156750000Y-162920000D01*
X156750000Y-161170000D01*
X157250000Y-161170000D01*
X157250000Y-162920000D01*
X157800000Y-162920000D01*
X158546337Y-162672088D01*
X159140990Y-162157437D01*
X159470774Y-161477337D01*
X159345176Y-161170000D01*
X157250000Y-161170000D01*
X156750000Y-161170000D01*
X154654824Y-161170000D01*
X154529226Y-161477337D01*
X154473317Y-161477337D01*
X154490774Y-161441337D01*
X154365176Y-161134000D01*
X152270000Y-161134000D01*
X151770000Y-161134000D01*
X149674824Y-161134000D01*
X149549226Y-161441337D01*
X146300000Y-161441337D01*
X146300000Y-160326663D01*
X149549226Y-160326663D01*
X149674824Y-160634000D01*
X151770000Y-160634000D01*
X151770000Y-158884000D01*
X152270000Y-158884000D01*
X152270000Y-160634000D01*
X154365176Y-160634000D01*
X154476062Y-160362663D01*
X154529226Y-160362663D01*
X154654824Y-160670000D01*
X156750000Y-160670000D01*
X156750000Y-158920000D01*
X157250000Y-158920000D01*
X157250000Y-160670000D01*
X159345176Y-160670000D01*
X159470774Y-160362663D01*
X159140990Y-159682563D01*
X158858365Y-159437961D01*
X162470232Y-159437961D01*
X162705708Y-160007857D01*
X163141349Y-160444260D01*
X163710833Y-160680730D01*
X164327461Y-160681268D01*
X164897357Y-160445792D01*
X165333760Y-160010151D01*
X165570230Y-159440667D01*
X165570768Y-158824039D01*
X165335292Y-158254143D01*
X164899651Y-157817740D01*
X164330167Y-157581270D01*
X163713539Y-157580732D01*
X163143643Y-157816208D01*
X162707240Y-158251849D01*
X162470770Y-158821333D01*
X162470232Y-159437961D01*
X158858365Y-159437961D01*
X158546337Y-159167912D01*
X157800000Y-158920000D01*
X157250000Y-158920000D01*
X156750000Y-158920000D01*
X156200000Y-158920000D01*
X155453663Y-159167912D01*
X154859010Y-159682563D01*
X154529226Y-160362663D01*
X154476062Y-160362663D01*
X154490774Y-160326663D01*
X154160990Y-159646563D01*
X153566337Y-159131912D01*
X152820000Y-158884000D01*
X152270000Y-158884000D01*
X151770000Y-158884000D01*
X151220000Y-158884000D01*
X150473663Y-159131912D01*
X149879010Y-159646563D01*
X149549226Y-160326663D01*
X146300000Y-160326663D01*
X146300000Y-155840000D01*
X148810247Y-155840000D01*
X149000548Y-156796709D01*
X149542480Y-157607767D01*
X150353538Y-158149699D01*
X151310247Y-158340000D01*
X152529753Y-158340000D01*
X153486462Y-158149699D01*
X154297520Y-157607767D01*
X154460000Y-157364599D01*
X154622480Y-157607767D01*
X155433538Y-158149699D01*
X156390247Y-158340000D01*
X157609753Y-158340000D01*
X158566462Y-158149699D01*
X159377520Y-157607767D01*
X159720728Y-157094119D01*
X176999481Y-157094119D01*
X177455241Y-158197143D01*
X178298418Y-159041793D01*
X179400645Y-159499478D01*
X180594119Y-159500519D01*
X181697143Y-159044759D01*
X182541793Y-158201582D01*
X182999478Y-157099355D01*
X182999482Y-157094119D01*
X196999481Y-157094119D01*
X197455241Y-158197143D01*
X198298418Y-159041793D01*
X199400645Y-159499478D01*
X200594119Y-159500519D01*
X201697143Y-159044759D01*
X202541793Y-158201582D01*
X202999478Y-157099355D01*
X203000519Y-155905881D01*
X202544759Y-154802857D01*
X201701582Y-153958207D01*
X200599355Y-153500522D01*
X199405881Y-153499481D01*
X198302857Y-153955241D01*
X197458207Y-154798418D01*
X197000522Y-155900645D01*
X196999481Y-157094119D01*
X182999482Y-157094119D01*
X183000519Y-155905881D01*
X182544759Y-154802857D01*
X181701582Y-153958207D01*
X180599355Y-153500522D01*
X179405881Y-153499481D01*
X178302857Y-153955241D01*
X177458207Y-154798418D01*
X177000522Y-155900645D01*
X176999481Y-157094119D01*
X159720728Y-157094119D01*
X159919452Y-156796709D01*
X160109753Y-155840000D01*
X159919452Y-154883291D01*
X159377520Y-154072233D01*
X158566462Y-153530301D01*
X157609753Y-153340000D01*
X156390247Y-153340000D01*
X155433538Y-153530301D01*
X154622480Y-154072233D01*
X154460000Y-154315401D01*
X154297520Y-154072233D01*
X153486462Y-153530301D01*
X152529753Y-153340000D01*
X151310247Y-153340000D01*
X150353538Y-153530301D01*
X149542480Y-154072233D01*
X149000548Y-154883291D01*
X148810247Y-155840000D01*
X146300000Y-155840000D01*
X146300000Y-152269000D01*
X221746000Y-152269000D01*
X221746000Y-156618486D01*
X221746000Y-156618486D01*
G37*
X221746000Y-156618486D02*
X221681327Y-156274778D01*
X221407563Y-155849337D01*
X220989847Y-155563924D01*
X220494000Y-155463512D01*
X216894000Y-155463512D01*
X216430778Y-155550673D01*
X216152514Y-155729731D01*
X215909847Y-155563924D01*
X215414000Y-155463512D01*
X211814000Y-155463512D01*
X211350778Y-155550673D01*
X210925337Y-155824437D01*
X210639924Y-156242153D01*
X210539512Y-156738000D01*
X210539512Y-159238000D01*
X210626673Y-159701222D01*
X210900437Y-160126663D01*
X211318153Y-160412076D01*
X211814000Y-160512488D01*
X215414000Y-160512488D01*
X215877222Y-160425327D01*
X216155486Y-160246269D01*
X216398153Y-160412076D01*
X216894000Y-160512488D01*
X220494000Y-160512488D01*
X220957222Y-160425327D01*
X221382663Y-160151563D01*
X221668076Y-159733847D01*
X221746000Y-159349049D01*
X221746000Y-167857656D01*
X221613452Y-167191291D01*
X221071520Y-166380233D01*
X220260462Y-165838301D01*
X219303753Y-165648000D01*
X218084247Y-165648000D01*
X217127538Y-165838301D01*
X216316480Y-166380233D01*
X216154000Y-166623401D01*
X215991520Y-166380233D01*
X215180462Y-165838301D01*
X214223753Y-165648000D01*
X213004247Y-165648000D01*
X212047538Y-165838301D01*
X211236480Y-166380233D01*
X210694548Y-167191291D01*
X210504247Y-168148000D01*
X210694548Y-169104709D01*
X211236480Y-169915767D01*
X212047538Y-170457699D01*
X213004247Y-170648000D01*
X214223753Y-170648000D01*
X215180462Y-170457699D01*
X215991520Y-169915767D01*
X216154000Y-169672599D01*
X216316480Y-169915767D01*
X217127538Y-170457699D01*
X218084247Y-170648000D01*
X219303753Y-170648000D01*
X220260462Y-170457699D01*
X221071520Y-169915767D01*
X221613452Y-169104709D01*
X221746000Y-168438344D01*
X221746000Y-207776000D01*
X146300000Y-207776000D01*
X146300000Y-203250000D01*
X148845512Y-203250000D01*
X148845512Y-205750000D01*
X148932673Y-206213222D01*
X149206437Y-206638663D01*
X149624153Y-206924076D01*
X150120000Y-207024488D01*
X153720000Y-207024488D01*
X154183222Y-206937327D01*
X154461486Y-206758269D01*
X154704153Y-206924076D01*
X155200000Y-207024488D01*
X158800000Y-207024488D01*
X159263222Y-206937327D01*
X159688663Y-206663563D01*
X159974076Y-206245847D01*
X160074488Y-205750000D01*
X160074488Y-204594119D01*
X176999481Y-204594119D01*
X177455241Y-205697143D01*
X178298418Y-206541793D01*
X179400645Y-206999478D01*
X180594119Y-207000519D01*
X181697143Y-206544759D01*
X182541793Y-205701582D01*
X182999478Y-204599355D01*
X182999482Y-204594119D01*
X196999481Y-204594119D01*
X197455241Y-205697143D01*
X198298418Y-206541793D01*
X199400645Y-206999478D01*
X200594119Y-207000519D01*
X201697143Y-206544759D01*
X202541793Y-205701582D01*
X202999478Y-204599355D01*
X203000519Y-203405881D01*
X202544759Y-202302857D01*
X201701582Y-201458207D01*
X200599355Y-201000522D01*
X199405881Y-200999481D01*
X198302857Y-201455241D01*
X197458207Y-202298418D01*
X197000522Y-203400645D01*
X196999481Y-204594119D01*
X182999482Y-204594119D01*
X183000519Y-203405881D01*
X182544759Y-202302857D01*
X181701582Y-201458207D01*
X180599355Y-201000522D01*
X179405881Y-200999481D01*
X178302857Y-201455241D01*
X177458207Y-202298418D01*
X177000522Y-203400645D01*
X176999481Y-204594119D01*
X160074488Y-204594119D01*
X160074488Y-203250000D01*
X159987327Y-202786778D01*
X159713563Y-202361337D01*
X159295847Y-202075924D01*
X158800000Y-201975512D01*
X155200000Y-201975512D01*
X154736778Y-202062673D01*
X154458514Y-202241731D01*
X154215847Y-202075924D01*
X153720000Y-201975512D01*
X150120000Y-201975512D01*
X149656778Y-202062673D01*
X149231337Y-202336437D01*
X148945924Y-202754153D01*
X148845512Y-203250000D01*
X146300000Y-203250000D01*
X146300000Y-199977337D01*
X149449226Y-199977337D01*
X149779010Y-200657437D01*
X150373663Y-201172088D01*
X151120000Y-201420000D01*
X151670000Y-201420000D01*
X151670000Y-199670000D01*
X152170000Y-199670000D01*
X152170000Y-201420000D01*
X152720000Y-201420000D01*
X153466337Y-201172088D01*
X154060990Y-200657437D01*
X154390774Y-199977337D01*
X154335196Y-199841337D01*
X154549226Y-199841337D01*
X154879010Y-200521437D01*
X155473663Y-201036088D01*
X156220000Y-201284000D01*
X156770000Y-201284000D01*
X156770000Y-199534000D01*
X157270000Y-199534000D01*
X157270000Y-201284000D01*
X157820000Y-201284000D01*
X158566337Y-201036088D01*
X159160990Y-200521437D01*
X159490774Y-199841337D01*
X159365176Y-199534000D01*
X157270000Y-199534000D01*
X156770000Y-199534000D01*
X154674824Y-199534000D01*
X154549226Y-199841337D01*
X154335196Y-199841337D01*
X154265176Y-199670000D01*
X152170000Y-199670000D01*
X151670000Y-199670000D01*
X149574824Y-199670000D01*
X149449226Y-199977337D01*
X146300000Y-199977337D01*
X146300000Y-198862663D01*
X149449226Y-198862663D01*
X149574824Y-199170000D01*
X151670000Y-199170000D01*
X151670000Y-197420000D01*
X152170000Y-197420000D01*
X152170000Y-199170000D01*
X154265176Y-199170000D01*
X154390774Y-198862663D01*
X154324827Y-198726663D01*
X154549226Y-198726663D01*
X154674824Y-199034000D01*
X156770000Y-199034000D01*
X156770000Y-197284000D01*
X157270000Y-197284000D01*
X157270000Y-199034000D01*
X159365176Y-199034000D01*
X159490774Y-198726663D01*
X159160990Y-198046563D01*
X158646698Y-197601461D01*
X163422732Y-197601461D01*
X163658208Y-198171357D01*
X164093849Y-198607760D01*
X164663333Y-198844230D01*
X165279961Y-198844768D01*
X165849857Y-198609292D01*
X166286260Y-198173651D01*
X166418383Y-197855461D01*
X174471732Y-197855461D01*
X174707208Y-198425357D01*
X175142849Y-198861760D01*
X175712333Y-199098230D01*
X176328961Y-199098768D01*
X176898857Y-198863292D01*
X177335260Y-198427651D01*
X177527782Y-197964004D01*
X211889550Y-197964004D01*
X212359371Y-198559839D01*
X214114010Y-199261327D01*
X216003533Y-199237946D01*
X217640629Y-198559839D01*
X218110450Y-197964004D01*
X215000000Y-194853553D01*
X211889550Y-197964004D01*
X177527782Y-197964004D01*
X177571730Y-197858167D01*
X177572268Y-197241539D01*
X177336792Y-196671643D01*
X176901151Y-196235240D01*
X176331667Y-195998770D01*
X175715039Y-195998232D01*
X175145143Y-196233708D01*
X174708740Y-196669349D01*
X174472270Y-197238833D01*
X174471732Y-197855461D01*
X166418383Y-197855461D01*
X166522730Y-197604167D01*
X166523268Y-196987539D01*
X166287792Y-196417643D01*
X165852151Y-195981240D01*
X165282667Y-195744770D01*
X164666039Y-195744232D01*
X164096143Y-195979708D01*
X163659740Y-196415349D01*
X163423270Y-196984833D01*
X163422732Y-197601461D01*
X158646698Y-197601461D01*
X158566337Y-197531912D01*
X157820000Y-197284000D01*
X157270000Y-197284000D01*
X156770000Y-197284000D01*
X156220000Y-197284000D01*
X155473663Y-197531912D01*
X154879010Y-198046563D01*
X154549226Y-198726663D01*
X154324827Y-198726663D01*
X154060990Y-198182563D01*
X153466337Y-197667912D01*
X152720000Y-197420000D01*
X152170000Y-197420000D01*
X151670000Y-197420000D01*
X151120000Y-197420000D01*
X150373663Y-197667912D01*
X149779010Y-198182563D01*
X149449226Y-198862663D01*
X146300000Y-198862663D01*
X146300000Y-194340000D01*
X148810247Y-194340000D01*
X149000548Y-195296709D01*
X149542480Y-196107767D01*
X150353538Y-196649699D01*
X151310247Y-196840000D01*
X152529753Y-196840000D01*
X153486462Y-196649699D01*
X154297520Y-196107767D01*
X154460000Y-195864599D01*
X154622480Y-196107767D01*
X155433538Y-196649699D01*
X156390247Y-196840000D01*
X157609753Y-196840000D01*
X158566462Y-196649699D01*
X159377520Y-196107767D01*
X159919452Y-195296709D01*
X160109753Y-194340000D01*
X159919452Y-193383291D01*
X159377520Y-192572233D01*
X158566462Y-192030301D01*
X157609753Y-191840000D01*
X156390247Y-191840000D01*
X155433538Y-192030301D01*
X154622480Y-192572233D01*
X154460000Y-192815401D01*
X154297520Y-192572233D01*
X153486462Y-192030301D01*
X152529753Y-191840000D01*
X151310247Y-191840000D01*
X150353538Y-192030301D01*
X149542480Y-192572233D01*
X149000548Y-193383291D01*
X148810247Y-194340000D01*
X146300000Y-194340000D01*
X146300000Y-188203461D01*
X165835732Y-188203461D01*
X166071208Y-188773357D01*
X166506849Y-189209760D01*
X167076333Y-189446230D01*
X167692961Y-189446768D01*
X168262857Y-189211292D01*
X168699260Y-188775651D01*
X168935730Y-188206167D01*
X168936268Y-187589539D01*
X168700792Y-187019643D01*
X168265151Y-186583240D01*
X167695667Y-186346770D01*
X167079039Y-186346232D01*
X166509143Y-186581708D01*
X166072740Y-187017349D01*
X165836270Y-187586833D01*
X165835732Y-188203461D01*
X146300000Y-188203461D01*
X146300000Y-187075827D01*
X147983726Y-187075827D01*
X148147859Y-187411843D01*
X148996740Y-187695771D01*
X149889658Y-187633234D01*
X150424141Y-187411843D01*
X150588274Y-187075827D01*
X149286000Y-185773553D01*
X147983726Y-187075827D01*
X146300000Y-187075827D01*
X146300000Y-185130740D01*
X147010229Y-185130740D01*
X147072766Y-186023658D01*
X147294157Y-186558141D01*
X147630173Y-186722274D01*
X148932447Y-185420000D01*
X149639553Y-185420000D01*
X150941827Y-186722274D01*
X151277843Y-186558141D01*
X151561771Y-185709260D01*
X151499234Y-184816342D01*
X151277843Y-184281859D01*
X150941827Y-184117726D01*
X149639553Y-185420000D01*
X148932447Y-185420000D01*
X147630173Y-184117726D01*
X147294157Y-184281859D01*
X147010229Y-185130740D01*
X146300000Y-185130740D01*
X146300000Y-183764173D01*
X147983726Y-183764173D01*
X149286000Y-185066447D01*
X150588274Y-183764173D01*
X150424141Y-183428157D01*
X149575260Y-183144229D01*
X148682342Y-183206766D01*
X148147859Y-183428157D01*
X147983726Y-183764173D01*
X146300000Y-183764173D01*
X146300000Y-180934119D01*
X151365481Y-180934119D01*
X151821241Y-182037143D01*
X152664418Y-182881793D01*
X153766645Y-183339478D01*
X154960119Y-183340519D01*
X155539233Y-183101234D01*
X159263320Y-183101234D01*
X159550078Y-183541122D01*
X160761736Y-183992292D01*
X162053817Y-183945438D01*
X163029922Y-183541122D01*
X163316680Y-183101234D01*
X161290000Y-181074553D01*
X159263320Y-183101234D01*
X155539233Y-183101234D01*
X156063143Y-182884759D01*
X156907793Y-182041582D01*
X157365478Y-180939355D01*
X157366129Y-180192736D01*
X158018708Y-180192736D01*
X158065562Y-181484817D01*
X158469878Y-182460922D01*
X158909766Y-182747680D01*
X160936447Y-180721000D01*
X161643553Y-180721000D01*
X163670234Y-182747680D01*
X164110122Y-182460922D01*
X164561292Y-181249264D01*
X164535228Y-180530500D01*
X167731500Y-180530500D01*
X167731500Y-185229500D01*
X167864711Y-185899196D01*
X168244063Y-186466937D01*
X169327866Y-187550740D01*
X169362673Y-187735722D01*
X169528410Y-187993285D01*
X169421538Y-188153231D01*
X169257879Y-188976000D01*
X169421538Y-189798769D01*
X169507556Y-189927504D01*
X169375924Y-190120153D01*
X169275512Y-190616000D01*
X169275512Y-192416000D01*
X169362673Y-192879222D01*
X169636437Y-193304663D01*
X170054153Y-193590076D01*
X170550000Y-193690488D01*
X172350000Y-193690488D01*
X172813222Y-193603327D01*
X173049093Y-193451548D01*
X173125110Y-193502341D01*
X173947879Y-193666000D01*
X174032121Y-193666000D01*
X174854890Y-193502341D01*
X175260000Y-193231656D01*
X175665110Y-193502341D01*
X176487879Y-193666000D01*
X176572121Y-193666000D01*
X177394890Y-193502341D01*
X178092401Y-193036280D01*
X178558462Y-192338769D01*
X178585276Y-192203961D01*
X184885732Y-192203961D01*
X185121208Y-192773857D01*
X185323608Y-192976611D01*
X185502208Y-193408857D01*
X185937849Y-193845260D01*
X186507333Y-194081730D01*
X187123961Y-194082268D01*
X187693857Y-193846792D01*
X187927046Y-193614010D01*
X210238673Y-193614010D01*
X210262054Y-195503533D01*
X210940161Y-197140629D01*
X211535996Y-197610450D01*
X214646447Y-194500000D01*
X215353553Y-194500000D01*
X218464004Y-197610450D01*
X219059839Y-197140629D01*
X219761327Y-195385990D01*
X219737946Y-193496467D01*
X219059839Y-191859371D01*
X218464004Y-191389550D01*
X215353553Y-194500000D01*
X214646447Y-194500000D01*
X211535996Y-191389550D01*
X210940161Y-191859371D01*
X210238673Y-193614010D01*
X187927046Y-193614010D01*
X188130260Y-193411151D01*
X188366730Y-192841667D01*
X188367268Y-192225039D01*
X188131792Y-191655143D01*
X187929392Y-191452389D01*
X187757343Y-191035996D01*
X211889550Y-191035996D01*
X215000000Y-194146447D01*
X218110450Y-191035996D01*
X217640629Y-190440161D01*
X215885990Y-189738673D01*
X213996467Y-189762054D01*
X212359371Y-190440161D01*
X211889550Y-191035996D01*
X187757343Y-191035996D01*
X187750792Y-191020143D01*
X187315151Y-190583740D01*
X186745667Y-190347270D01*
X186129039Y-190346732D01*
X185559143Y-190582208D01*
X185122740Y-191017849D01*
X184886270Y-191587333D01*
X184885732Y-192203961D01*
X178585276Y-192203961D01*
X178722121Y-191516000D01*
X178558462Y-190693231D01*
X178472444Y-190564496D01*
X178604076Y-190371847D01*
X178704488Y-189876000D01*
X178704488Y-188139961D01*
X182599732Y-188139961D01*
X182835208Y-188709857D01*
X183270849Y-189146260D01*
X183840333Y-189382730D01*
X184456961Y-189383268D01*
X184684484Y-189289258D01*
X185048849Y-189654260D01*
X185618333Y-189890730D01*
X186234961Y-189891268D01*
X186804857Y-189655792D01*
X187241260Y-189220151D01*
X187477730Y-188650667D01*
X187478175Y-188139961D01*
X187933732Y-188139961D01*
X188169208Y-188709857D01*
X188604849Y-189146260D01*
X189174333Y-189382730D01*
X189790961Y-189383268D01*
X189800819Y-189379195D01*
X189809333Y-189382730D01*
X190425961Y-189383268D01*
X190995857Y-189147792D01*
X191432260Y-188712151D01*
X191668730Y-188142667D01*
X191669268Y-187526039D01*
X191453240Y-187003210D01*
X216260344Y-187003210D01*
X216455226Y-187365171D01*
X217394914Y-187690962D01*
X218387748Y-187632351D01*
X219032774Y-187365171D01*
X219227656Y-187003210D01*
X217744000Y-185519553D01*
X216260344Y-187003210D01*
X191453240Y-187003210D01*
X191433792Y-186956143D01*
X190998151Y-186519740D01*
X190428667Y-186283270D01*
X189812039Y-186282732D01*
X189802181Y-186286805D01*
X189793667Y-186283270D01*
X189177039Y-186282732D01*
X188607143Y-186518208D01*
X188170740Y-186953849D01*
X187934270Y-187523333D01*
X187933732Y-188139961D01*
X187478175Y-188139961D01*
X187478268Y-188034039D01*
X187242792Y-187464143D01*
X186807151Y-187027740D01*
X186237667Y-186791270D01*
X185621039Y-186790732D01*
X185393516Y-186884742D01*
X185029151Y-186519740D01*
X184459667Y-186283270D01*
X183843039Y-186282732D01*
X183273143Y-186518208D01*
X182836740Y-186953849D01*
X182600270Y-187523333D01*
X182599732Y-188139961D01*
X178704488Y-188139961D01*
X178704488Y-188076000D01*
X178617327Y-187612778D01*
X178451590Y-187355215D01*
X178558462Y-187195269D01*
X178722121Y-186372500D01*
X178558462Y-185549731D01*
X178408090Y-185324683D01*
X178604076Y-185037847D01*
X178648816Y-184816914D01*
X215219038Y-184816914D01*
X215277649Y-185809748D01*
X215544829Y-186454774D01*
X215906790Y-186649656D01*
X217390447Y-185166000D01*
X218097553Y-185166000D01*
X219581210Y-186649656D01*
X219943171Y-186454774D01*
X220268962Y-185515086D01*
X220210351Y-184522252D01*
X219943171Y-183877226D01*
X219581210Y-183682344D01*
X218097553Y-185166000D01*
X217390447Y-185166000D01*
X215906790Y-183682344D01*
X215544829Y-183877226D01*
X215219038Y-184816914D01*
X178648816Y-184816914D01*
X178704488Y-184542000D01*
X178704488Y-183101234D01*
X184663320Y-183101234D01*
X184950078Y-183541122D01*
X186161736Y-183992292D01*
X187453817Y-183945438D01*
X188429922Y-183541122D01*
X188716680Y-183101234D01*
X186690000Y-181074553D01*
X184663320Y-183101234D01*
X178704488Y-183101234D01*
X178704488Y-182742000D01*
X178617327Y-182278778D01*
X178343563Y-181853337D01*
X177925847Y-181567924D01*
X177430000Y-181467512D01*
X175630000Y-181467512D01*
X175166778Y-181554673D01*
X174930907Y-181706452D01*
X174854890Y-181655659D01*
X174032121Y-181492000D01*
X173947879Y-181492000D01*
X173125110Y-181655659D01*
X172720000Y-181926344D01*
X172314890Y-181655659D01*
X171492121Y-181492000D01*
X171407879Y-181492000D01*
X171231500Y-181527084D01*
X171231500Y-181255374D01*
X171845082Y-180641792D01*
X172314890Y-180548341D01*
X172720000Y-180277656D01*
X173125110Y-180548341D01*
X173947879Y-180712000D01*
X174032121Y-180712000D01*
X174854890Y-180548341D01*
X174931162Y-180497378D01*
X175134153Y-180636076D01*
X175630000Y-180736488D01*
X177430000Y-180736488D01*
X177893222Y-180649327D01*
X178318663Y-180375563D01*
X178443583Y-180192736D01*
X183418708Y-180192736D01*
X183465562Y-181484817D01*
X183869878Y-182460922D01*
X184309766Y-182747680D01*
X186336447Y-180721000D01*
X187043553Y-180721000D01*
X189070234Y-182747680D01*
X189510122Y-182460922D01*
X189961292Y-181249264D01*
X189940654Y-180680119D01*
X209663481Y-180680119D01*
X210119241Y-181783143D01*
X210962418Y-182627793D01*
X211162897Y-182711039D01*
X211212869Y-183108953D01*
X211296396Y-183310605D01*
X211554979Y-183381468D01*
X211913662Y-183022785D01*
X212064645Y-183085478D01*
X212557645Y-183085908D01*
X211908532Y-183735021D01*
X211979395Y-183993604D01*
X212554867Y-184151488D01*
X213146953Y-184077131D01*
X213348605Y-183993604D01*
X213419468Y-183735021D01*
X212770541Y-183086094D01*
X213258119Y-183086519D01*
X213413762Y-183022209D01*
X213773021Y-183381468D01*
X213965245Y-183328790D01*
X216260344Y-183328790D01*
X217744000Y-184812447D01*
X219227656Y-183328790D01*
X219032774Y-182966829D01*
X218093086Y-182641038D01*
X217100252Y-182699649D01*
X216455226Y-182966829D01*
X216260344Y-183328790D01*
X213965245Y-183328790D01*
X214031604Y-183310605D01*
X214189488Y-182735133D01*
X214185495Y-182703335D01*
X214361143Y-182630759D01*
X215205793Y-181787582D01*
X215663478Y-180685355D01*
X215664519Y-179491881D01*
X215208759Y-178388857D01*
X214365582Y-177544207D01*
X213263355Y-177086522D01*
X212069881Y-177085481D01*
X210966857Y-177541241D01*
X210122207Y-178384418D01*
X209664522Y-179486645D01*
X209663481Y-180680119D01*
X189940654Y-180680119D01*
X189914438Y-179957183D01*
X189510122Y-178981078D01*
X189070234Y-178694320D01*
X187043553Y-180721000D01*
X186336447Y-180721000D01*
X184309766Y-178694320D01*
X183869878Y-178981078D01*
X183418708Y-180192736D01*
X178443583Y-180192736D01*
X178604076Y-179957847D01*
X178704488Y-179462000D01*
X178704488Y-178340766D01*
X184663320Y-178340766D01*
X186690000Y-180367447D01*
X188716680Y-178340766D01*
X188429922Y-177900878D01*
X187218264Y-177449708D01*
X185926183Y-177496562D01*
X184950078Y-177900878D01*
X184663320Y-178340766D01*
X178704488Y-178340766D01*
X178704488Y-177662000D01*
X178617327Y-177198778D01*
X178388526Y-176843210D01*
X216260344Y-176843210D01*
X216455226Y-177205171D01*
X217394914Y-177530962D01*
X218387748Y-177472351D01*
X219032774Y-177205171D01*
X219227656Y-176843210D01*
X217744000Y-175359553D01*
X216260344Y-176843210D01*
X178388526Y-176843210D01*
X178343563Y-176773337D01*
X177925847Y-176487924D01*
X177430000Y-176387512D01*
X176604738Y-176387512D01*
X177394890Y-176230341D01*
X178092401Y-175764280D01*
X178558462Y-175066769D01*
X178722121Y-174244000D01*
X178558462Y-173421231D01*
X178125303Y-172772961D01*
X185393732Y-172772961D01*
X185629208Y-173342857D01*
X186064849Y-173779260D01*
X186634333Y-174015730D01*
X187250961Y-174016268D01*
X187820857Y-173780792D01*
X188257260Y-173345151D01*
X188493730Y-172775667D01*
X188494268Y-172159039D01*
X188258792Y-171589143D01*
X187823151Y-171152740D01*
X187253667Y-170916270D01*
X186637039Y-170915732D01*
X186067143Y-171151208D01*
X185630740Y-171586849D01*
X185394270Y-172156333D01*
X185393732Y-172772961D01*
X178125303Y-172772961D01*
X178092401Y-172723720D01*
X177394890Y-172257659D01*
X176572121Y-172094000D01*
X176487879Y-172094000D01*
X175665110Y-172257659D01*
X175260000Y-172528344D01*
X174854890Y-172257659D01*
X174032121Y-172094000D01*
X173947879Y-172094000D01*
X173125110Y-172257659D01*
X173048838Y-172308622D01*
X172845847Y-172169924D01*
X172350000Y-172069512D01*
X170550000Y-172069512D01*
X170086778Y-172156673D01*
X169661337Y-172430437D01*
X169375924Y-172848153D01*
X169275512Y-173344000D01*
X169275512Y-175144000D01*
X169362673Y-175607222D01*
X169636437Y-176032663D01*
X170054153Y-176318076D01*
X170550000Y-176418488D01*
X171375262Y-176418488D01*
X170585110Y-176575659D01*
X169887599Y-177041720D01*
X169421538Y-177739231D01*
X169328087Y-178209039D01*
X168244063Y-179293063D01*
X167864711Y-179860804D01*
X167731500Y-180530500D01*
X164535228Y-180530500D01*
X164514438Y-179957183D01*
X164110122Y-178981078D01*
X163670234Y-178694320D01*
X161643553Y-180721000D01*
X160936447Y-180721000D01*
X158909766Y-178694320D01*
X158469878Y-178981078D01*
X158018708Y-180192736D01*
X157366129Y-180192736D01*
X157366519Y-179745881D01*
X156910759Y-178642857D01*
X156609195Y-178340766D01*
X159263320Y-178340766D01*
X161290000Y-180367447D01*
X163316680Y-178340766D01*
X163029922Y-177900878D01*
X161818264Y-177449708D01*
X160526183Y-177496562D01*
X159550078Y-177900878D01*
X159263320Y-178340766D01*
X156609195Y-178340766D01*
X156067582Y-177798207D01*
X155867103Y-177714961D01*
X155817131Y-177317047D01*
X155733604Y-177115395D01*
X155475021Y-177044532D01*
X155116338Y-177403215D01*
X154965355Y-177340522D01*
X154472355Y-177340092D01*
X155121468Y-176690979D01*
X155050605Y-176432396D01*
X154475133Y-176274512D01*
X153883047Y-176348869D01*
X153681395Y-176432396D01*
X153610532Y-176690979D01*
X154259459Y-177339906D01*
X153771881Y-177339481D01*
X153616238Y-177403791D01*
X153256979Y-177044532D01*
X152998396Y-177115395D01*
X152840512Y-177690867D01*
X152844505Y-177722665D01*
X152668857Y-177795241D01*
X151824207Y-178638418D01*
X151366522Y-179740645D01*
X151365481Y-180934119D01*
X146300000Y-180934119D01*
X146300000Y-176915827D01*
X147983726Y-176915827D01*
X148147859Y-177251843D01*
X148996740Y-177535771D01*
X149889658Y-177473234D01*
X150424141Y-177251843D01*
X150588274Y-176915827D01*
X149286000Y-175613553D01*
X147983726Y-176915827D01*
X146300000Y-176915827D01*
X146300000Y-174970740D01*
X147010229Y-174970740D01*
X147072766Y-175863658D01*
X147294157Y-176398141D01*
X147630173Y-176562274D01*
X148932447Y-175260000D01*
X149639553Y-175260000D01*
X150941827Y-176562274D01*
X151277843Y-176398141D01*
X151561771Y-175549260D01*
X151499234Y-174656342D01*
X151277843Y-174121859D01*
X150941827Y-173957726D01*
X149639553Y-175260000D01*
X148932447Y-175260000D01*
X147630173Y-173957726D01*
X147294157Y-174121859D01*
X147010229Y-174970740D01*
X146300000Y-174970740D01*
X146300000Y-173604173D01*
X147983726Y-173604173D01*
X149286000Y-174906447D01*
X150588274Y-173604173D01*
X150424141Y-173268157D01*
X149575260Y-172984229D01*
X148682342Y-173046766D01*
X148147859Y-173268157D01*
X147983726Y-173604173D01*
X146300000Y-173604173D01*
X146300000Y-164750000D01*
X148845512Y-164750000D01*
X148845512Y-167250000D01*
X148932673Y-167713222D01*
X149206437Y-168138663D01*
X149624153Y-168424076D01*
X150120000Y-168524488D01*
X153720000Y-168524488D01*
X154183222Y-168437327D01*
X154461486Y-168258269D01*
X154704153Y-168424076D01*
X155200000Y-168524488D01*
X158800000Y-168524488D01*
X159263222Y-168437327D01*
X159688663Y-168163563D01*
X159974076Y-167745847D01*
X160074488Y-167250000D01*
X160074488Y-165100000D01*
X196892002Y-165100000D01*
X197048049Y-165884501D01*
X197372449Y-166370000D01*
X197048049Y-166855499D01*
X196892002Y-167640000D01*
X197048049Y-168424501D01*
X197372449Y-168910000D01*
X197048049Y-169395499D01*
X196892002Y-170180000D01*
X197048049Y-170964501D01*
X197372449Y-171450000D01*
X197048049Y-171935499D01*
X196892002Y-172720000D01*
X197048049Y-173504501D01*
X197492433Y-174169569D01*
X198157501Y-174613953D01*
X198942002Y-174770000D01*
X199837998Y-174770000D01*
X200622499Y-174613953D01*
X201287567Y-174169569D01*
X201731951Y-173504501D01*
X201887998Y-172720000D01*
X201731951Y-171935499D01*
X201407551Y-171450000D01*
X201731951Y-170964501D01*
X201887998Y-170180000D01*
X201731951Y-169395499D01*
X201407551Y-168910000D01*
X201731951Y-168424501D01*
X201887998Y-167640000D01*
X204512002Y-167640000D01*
X204668049Y-168424501D01*
X204992449Y-168910000D01*
X204668049Y-169395499D01*
X204512002Y-170180000D01*
X204668049Y-170964501D01*
X204992449Y-171450000D01*
X204668049Y-171935499D01*
X204512002Y-172720000D01*
X204668049Y-173504501D01*
X205112433Y-174169569D01*
X205777501Y-174613953D01*
X206562002Y-174770000D01*
X207457998Y-174770000D01*
X208026519Y-174656914D01*
X215219038Y-174656914D01*
X215277649Y-175649748D01*
X215544829Y-176294774D01*
X215906790Y-176489656D01*
X217390447Y-175006000D01*
X218097553Y-175006000D01*
X219581210Y-176489656D01*
X219943171Y-176294774D01*
X220268962Y-175355086D01*
X220210351Y-174362252D01*
X219943171Y-173717226D01*
X219581210Y-173522344D01*
X218097553Y-175006000D01*
X217390447Y-175006000D01*
X215906790Y-173522344D01*
X215544829Y-173717226D01*
X215219038Y-174656914D01*
X208026519Y-174656914D01*
X208242499Y-174613953D01*
X208907567Y-174169569D01*
X209351951Y-173504501D01*
X209418728Y-173168790D01*
X216260344Y-173168790D01*
X217744000Y-174652447D01*
X219227656Y-173168790D01*
X219032774Y-172806829D01*
X218093086Y-172481038D01*
X217100252Y-172539649D01*
X216455226Y-172806829D01*
X216260344Y-173168790D01*
X209418728Y-173168790D01*
X209507998Y-172720000D01*
X209351951Y-171935499D01*
X209027551Y-171450000D01*
X209351951Y-170964501D01*
X209507998Y-170180000D01*
X209351951Y-169395499D01*
X209027551Y-168910000D01*
X209351951Y-168424501D01*
X209507998Y-167640000D01*
X209351951Y-166855499D01*
X209212554Y-166646877D01*
X209384076Y-166395847D01*
X209484488Y-165900000D01*
X209484488Y-164300000D01*
X209397327Y-163836778D01*
X209261269Y-163625337D01*
X211143226Y-163625337D01*
X211473010Y-164305437D01*
X212067663Y-164820088D01*
X212814000Y-165068000D01*
X213364000Y-165068000D01*
X213364000Y-163318000D01*
X213864000Y-163318000D01*
X213864000Y-165068000D01*
X214414000Y-165068000D01*
X215160337Y-164820088D01*
X215754990Y-164305437D01*
X216084774Y-163625337D01*
X216223226Y-163625337D01*
X216553010Y-164305437D01*
X217147663Y-164820088D01*
X217894000Y-165068000D01*
X218444000Y-165068000D01*
X218444000Y-163318000D01*
X218944000Y-163318000D01*
X218944000Y-165068000D01*
X219494000Y-165068000D01*
X220240337Y-164820088D01*
X220834990Y-164305437D01*
X221164774Y-163625337D01*
X221039176Y-163318000D01*
X218944000Y-163318000D01*
X218444000Y-163318000D01*
X216348824Y-163318000D01*
X216223226Y-163625337D01*
X216084774Y-163625337D01*
X215959176Y-163318000D01*
X213864000Y-163318000D01*
X213364000Y-163318000D01*
X211268824Y-163318000D01*
X211143226Y-163625337D01*
X209261269Y-163625337D01*
X209123563Y-163411337D01*
X208705847Y-163125924D01*
X208210000Y-163025512D01*
X205810000Y-163025512D01*
X205346778Y-163112673D01*
X204921337Y-163386437D01*
X204635924Y-163804153D01*
X204535512Y-164300000D01*
X204535512Y-165900000D01*
X204622673Y-166363222D01*
X204806302Y-166648589D01*
X204668049Y-166855499D01*
X204512002Y-167640000D01*
X201887998Y-167640000D01*
X201731951Y-166855499D01*
X201407551Y-166370000D01*
X201731951Y-165884501D01*
X201887998Y-165100000D01*
X201731951Y-164315499D01*
X201287567Y-163650431D01*
X200622499Y-163206047D01*
X199837998Y-163050000D01*
X198942002Y-163050000D01*
X198157501Y-163206047D01*
X197492433Y-163650431D01*
X197048049Y-164315499D01*
X196892002Y-165100000D01*
X160074488Y-165100000D01*
X160074488Y-164750000D01*
X159987327Y-164286778D01*
X159713563Y-163861337D01*
X159295847Y-163575924D01*
X158800000Y-163475512D01*
X155200000Y-163475512D01*
X154736778Y-163562673D01*
X154458514Y-163741731D01*
X154215847Y-163575924D01*
X153720000Y-163475512D01*
X150120000Y-163475512D01*
X149656778Y-163562673D01*
X149231337Y-163836437D01*
X148945924Y-164254153D01*
X148845512Y-164750000D01*
X146300000Y-164750000D01*
X146300000Y-163184461D01*
X164629232Y-163184461D01*
X164864708Y-163754357D01*
X165300349Y-164190760D01*
X165869833Y-164427230D01*
X166486461Y-164427768D01*
X167056357Y-164192292D01*
X167492760Y-163756651D01*
X167644940Y-163390159D01*
X168008857Y-163239792D01*
X168445260Y-162804151D01*
X168567126Y-162510663D01*
X211143226Y-162510663D01*
X211268824Y-162818000D01*
X213364000Y-162818000D01*
X213364000Y-161068000D01*
X213864000Y-161068000D01*
X213864000Y-162818000D01*
X215959176Y-162818000D01*
X216084774Y-162510663D01*
X216223226Y-162510663D01*
X216348824Y-162818000D01*
X218444000Y-162818000D01*
X218444000Y-161068000D01*
X218944000Y-161068000D01*
X218944000Y-162818000D01*
X221039176Y-162818000D01*
X221164774Y-162510663D01*
X220834990Y-161830563D01*
X220240337Y-161315912D01*
X219494000Y-161068000D01*
X218944000Y-161068000D01*
X218444000Y-161068000D01*
X217894000Y-161068000D01*
X217147663Y-161315912D01*
X216553010Y-161830563D01*
X216223226Y-162510663D01*
X216084774Y-162510663D01*
X215754990Y-161830563D01*
X215160337Y-161315912D01*
X214414000Y-161068000D01*
X213864000Y-161068000D01*
X213364000Y-161068000D01*
X212814000Y-161068000D01*
X212067663Y-161315912D01*
X211473010Y-161830563D01*
X211143226Y-162510663D01*
X168567126Y-162510663D01*
X168681730Y-162234667D01*
X168682268Y-161618039D01*
X168446792Y-161048143D01*
X168011151Y-160611740D01*
X167441667Y-160375270D01*
X166825039Y-160374732D01*
X166255143Y-160610208D01*
X165818740Y-161045849D01*
X165666560Y-161412341D01*
X165302643Y-161562708D01*
X164866240Y-161998349D01*
X164629770Y-162567833D01*
X164629232Y-163184461D01*
X146300000Y-163184461D01*
X146300000Y-161441337D01*
X149549226Y-161441337D01*
X149879010Y-162121437D01*
X150473663Y-162636088D01*
X151220000Y-162884000D01*
X151770000Y-162884000D01*
X151770000Y-161134000D01*
X152270000Y-161134000D01*
X152270000Y-162884000D01*
X152820000Y-162884000D01*
X153566337Y-162636088D01*
X154160990Y-162121437D01*
X154473317Y-161477337D01*
X154529226Y-161477337D01*
X154859010Y-162157437D01*
X155453663Y-162672088D01*
X156200000Y-162920000D01*
X156750000Y-162920000D01*
X156750000Y-161170000D01*
X157250000Y-161170000D01*
X157250000Y-162920000D01*
X157800000Y-162920000D01*
X158546337Y-162672088D01*
X159140990Y-162157437D01*
X159470774Y-161477337D01*
X159345176Y-161170000D01*
X157250000Y-161170000D01*
X156750000Y-161170000D01*
X154654824Y-161170000D01*
X154529226Y-161477337D01*
X154473317Y-161477337D01*
X154490774Y-161441337D01*
X154365176Y-161134000D01*
X152270000Y-161134000D01*
X151770000Y-161134000D01*
X149674824Y-161134000D01*
X149549226Y-161441337D01*
X146300000Y-161441337D01*
X146300000Y-160326663D01*
X149549226Y-160326663D01*
X149674824Y-160634000D01*
X151770000Y-160634000D01*
X151770000Y-158884000D01*
X152270000Y-158884000D01*
X152270000Y-160634000D01*
X154365176Y-160634000D01*
X154476062Y-160362663D01*
X154529226Y-160362663D01*
X154654824Y-160670000D01*
X156750000Y-160670000D01*
X156750000Y-158920000D01*
X157250000Y-158920000D01*
X157250000Y-160670000D01*
X159345176Y-160670000D01*
X159470774Y-160362663D01*
X159140990Y-159682563D01*
X158858365Y-159437961D01*
X162470232Y-159437961D01*
X162705708Y-160007857D01*
X163141349Y-160444260D01*
X163710833Y-160680730D01*
X164327461Y-160681268D01*
X164897357Y-160445792D01*
X165333760Y-160010151D01*
X165570230Y-159440667D01*
X165570768Y-158824039D01*
X165335292Y-158254143D01*
X164899651Y-157817740D01*
X164330167Y-157581270D01*
X163713539Y-157580732D01*
X163143643Y-157816208D01*
X162707240Y-158251849D01*
X162470770Y-158821333D01*
X162470232Y-159437961D01*
X158858365Y-159437961D01*
X158546337Y-159167912D01*
X157800000Y-158920000D01*
X157250000Y-158920000D01*
X156750000Y-158920000D01*
X156200000Y-158920000D01*
X155453663Y-159167912D01*
X154859010Y-159682563D01*
X154529226Y-160362663D01*
X154476062Y-160362663D01*
X154490774Y-160326663D01*
X154160990Y-159646563D01*
X153566337Y-159131912D01*
X152820000Y-158884000D01*
X152270000Y-158884000D01*
X151770000Y-158884000D01*
X151220000Y-158884000D01*
X150473663Y-159131912D01*
X149879010Y-159646563D01*
X149549226Y-160326663D01*
X146300000Y-160326663D01*
X146300000Y-155840000D01*
X148810247Y-155840000D01*
X149000548Y-156796709D01*
X149542480Y-157607767D01*
X150353538Y-158149699D01*
X151310247Y-158340000D01*
X152529753Y-158340000D01*
X153486462Y-158149699D01*
X154297520Y-157607767D01*
X154460000Y-157364599D01*
X154622480Y-157607767D01*
X155433538Y-158149699D01*
X156390247Y-158340000D01*
X157609753Y-158340000D01*
X158566462Y-158149699D01*
X159377520Y-157607767D01*
X159720728Y-157094119D01*
X176999481Y-157094119D01*
X177455241Y-158197143D01*
X178298418Y-159041793D01*
X179400645Y-159499478D01*
X180594119Y-159500519D01*
X181697143Y-159044759D01*
X182541793Y-158201582D01*
X182999478Y-157099355D01*
X182999482Y-157094119D01*
X196999481Y-157094119D01*
X197455241Y-158197143D01*
X198298418Y-159041793D01*
X199400645Y-159499478D01*
X200594119Y-159500519D01*
X201697143Y-159044759D01*
X202541793Y-158201582D01*
X202999478Y-157099355D01*
X203000519Y-155905881D01*
X202544759Y-154802857D01*
X201701582Y-153958207D01*
X200599355Y-153500522D01*
X199405881Y-153499481D01*
X198302857Y-153955241D01*
X197458207Y-154798418D01*
X197000522Y-155900645D01*
X196999481Y-157094119D01*
X182999482Y-157094119D01*
X183000519Y-155905881D01*
X182544759Y-154802857D01*
X181701582Y-153958207D01*
X180599355Y-153500522D01*
X179405881Y-153499481D01*
X178302857Y-153955241D01*
X177458207Y-154798418D01*
X177000522Y-155900645D01*
X176999481Y-157094119D01*
X159720728Y-157094119D01*
X159919452Y-156796709D01*
X160109753Y-155840000D01*
X159919452Y-154883291D01*
X159377520Y-154072233D01*
X158566462Y-153530301D01*
X157609753Y-153340000D01*
X156390247Y-153340000D01*
X155433538Y-153530301D01*
X154622480Y-154072233D01*
X154460000Y-154315401D01*
X154297520Y-154072233D01*
X153486462Y-153530301D01*
X152529753Y-153340000D01*
X151310247Y-153340000D01*
X150353538Y-153530301D01*
X149542480Y-154072233D01*
X149000548Y-154883291D01*
X148810247Y-155840000D01*
X146300000Y-155840000D01*
X146300000Y-152269000D01*
X221746000Y-152269000D01*
X221746000Y-156618486D01*
M02*
