G04 #@! TF.FileFunction,Soldermask,Bot*
%FSLAX46Y46*%
G04 Gerber Fmt 4.6, Leading zero omitted, Abs format (unit mm)*
G04 Created by KiCad (PCBNEW 4.0.2-stable) date 06/11/2017 10:09:17*
%MOMM*%
G01*
G04 APERTURE LIST*
%ADD10C,0.100000*%
%ADD11R,2.400000X1.600000*%
%ADD12O,2.400000X1.600000*%
%ADD13C,5.500000*%
%ADD14C,1.500000*%
%ADD15C,3.500000*%
%ADD16O,3.600000X2.500000*%
%ADD17R,3.600000X2.500000*%
%ADD18C,3.000000*%
%ADD19R,1.800000X1.800000*%
%ADD20O,1.800000X1.800000*%
%ADD21C,8.000000*%
%ADD22C,5.000000*%
G04 APERTURE END LIST*
D10*
D11*
X207010000Y-165100000D03*
D12*
X199390000Y-172720000D03*
X207010000Y-167640000D03*
X199390000Y-170180000D03*
X207010000Y-170180000D03*
X199390000Y-167640000D03*
X207010000Y-172720000D03*
X199390000Y-165100000D03*
D13*
X212664000Y-180086000D03*
D14*
X212664000Y-182626000D03*
D15*
X217744000Y-185166000D03*
X217744000Y-175006000D03*
D16*
X218694000Y-168148000D03*
X218694000Y-163068000D03*
D17*
X218694000Y-157988000D03*
X213614000Y-157988000D03*
D16*
X213614000Y-163068000D03*
X213614000Y-168148000D03*
X151920000Y-155840000D03*
X152020000Y-160884000D03*
D17*
X151920000Y-166000000D03*
X157000000Y-166000000D03*
D16*
X157000000Y-160920000D03*
X157000000Y-155840000D03*
X151920000Y-194340000D03*
X151920000Y-199420000D03*
D17*
X151920000Y-204500000D03*
X157000000Y-204500000D03*
D16*
X157020000Y-199284000D03*
X157000000Y-194340000D03*
D13*
X154366000Y-180340000D03*
D14*
X154366000Y-177800000D03*
D18*
X149286000Y-175260000D03*
X149286000Y-185420000D03*
D19*
X171450000Y-174244000D03*
D20*
X173990000Y-174244000D03*
X176530000Y-174244000D03*
D19*
X171450000Y-186372500D03*
D20*
X173990000Y-186372500D03*
X176530000Y-186372500D03*
D19*
X176530000Y-178562000D03*
D20*
X173990000Y-178562000D03*
X171450000Y-178562000D03*
D19*
X176530000Y-183642000D03*
D20*
X173990000Y-183642000D03*
X171450000Y-183642000D03*
D21*
X215000000Y-194500000D03*
D15*
X200000000Y-156500000D03*
X180000000Y-156500000D03*
X200000000Y-204000000D03*
X180000000Y-204000000D03*
D19*
X176530000Y-188976000D03*
D20*
X173990000Y-188976000D03*
X171450000Y-188976000D03*
D19*
X171450000Y-191516000D03*
D20*
X173990000Y-191516000D03*
X176530000Y-191516000D03*
D22*
X161290000Y-180721000D03*
X186690000Y-180721000D03*
M02*
