G04 #@! TF.FileFunction,Soldermask,Bot*
%FSLAX46Y46*%
G04 Gerber Fmt 4.6, Leading zero omitted, Abs format (unit mm)*
G04 Created by KiCad (PCBNEW 4.0.2-stable) date 10/6/2017 5:38:16 PM*
%MOMM*%
G01*
G04 APERTURE LIST*
%ADD10C,0.100000*%
%ADD11C,5.500000*%
%ADD12C,1.500000*%
%ADD13C,2.200000*%
%ADD14O,3.600000X2.500000*%
%ADD15R,3.600000X2.500000*%
%ADD16R,1.800000X1.800000*%
%ADD17O,1.800000X1.800000*%
%ADD18R,2.400000X1.600000*%
%ADD19O,2.400000X1.600000*%
%ADD20C,8.000000*%
%ADD21C,3.500000*%
G04 APERTURE END LIST*
D10*
D11*
X208600000Y-180340000D03*
D12*
X208600000Y-177800000D03*
D13*
X213680000Y-175260000D03*
X213680000Y-185420000D03*
D14*
X214630000Y-157480000D03*
X214630000Y-162560000D03*
D15*
X214630000Y-167640000D03*
X209550000Y-167640000D03*
D14*
X209550000Y-162560000D03*
X209550000Y-157480000D03*
X152400000Y-166370000D03*
X152400000Y-161290000D03*
D15*
X152400000Y-156210000D03*
X157480000Y-156210000D03*
D14*
X157480000Y-161290000D03*
X157480000Y-166370000D03*
X152400000Y-204470000D03*
X152400000Y-199390000D03*
D15*
X152400000Y-194310000D03*
X157480000Y-194310000D03*
D14*
X157480000Y-199390000D03*
X157480000Y-204470000D03*
D11*
X166050000Y-180340000D03*
D12*
X166050000Y-182880000D03*
D13*
X160970000Y-185420000D03*
X160970000Y-175260000D03*
D16*
X171450000Y-173990000D03*
D17*
X173990000Y-173990000D03*
X176530000Y-173990000D03*
D16*
X171450000Y-187960000D03*
D17*
X173990000Y-187960000D03*
X176530000Y-187960000D03*
D16*
X176530000Y-177800000D03*
D17*
X173990000Y-177800000D03*
X171450000Y-177800000D03*
D16*
X176530000Y-182880000D03*
D17*
X173990000Y-182880000D03*
X171450000Y-182880000D03*
D18*
X201422000Y-185420000D03*
D19*
X193802000Y-177800000D03*
X201422000Y-182880000D03*
X193802000Y-180340000D03*
X201422000Y-180340000D03*
X193802000Y-182880000D03*
X201422000Y-177800000D03*
X193802000Y-185420000D03*
D20*
X209550000Y-194310000D03*
D21*
X200660000Y-156210000D03*
X177800000Y-156210000D03*
X200660000Y-204470000D03*
X177800000Y-204470000D03*
M02*
