G04 #@! TF.FileFunction,Copper,L2,Inr,Signal*
%FSLAX46Y46*%
G04 Gerber Fmt 4.6, Leading zero omitted, Abs format (unit mm)*
G04 Created by KiCad (PCBNEW 4.0.2-stable) date 10/6/2017 5:38:16 PM*
%MOMM*%
G01*
G04 APERTURE LIST*
%ADD10C,0.100000*%
%ADD11C,0.300000*%
%ADD12C,1.500000*%
%ADD13C,2.200000*%
%ADD14O,3.600000X2.500000*%
%ADD15R,3.600000X2.500000*%
%ADD16R,1.800000X1.800000*%
%ADD17O,1.800000X1.800000*%
%ADD18R,2.400000X1.600000*%
%ADD19O,2.400000X1.600000*%
%ADD20C,8.000000*%
%ADD21C,3.500000*%
%ADD22C,0.600000*%
%ADD23C,1.000000*%
%ADD24C,0.400000*%
%ADD25C,1.500000*%
G04 APERTURE END LIST*
D10*
D11*
X153749333Y-186482858D02*
X153749333Y-185530477D01*
X154320762Y-186673334D02*
X152320762Y-186006667D01*
X154320762Y-185340000D01*
X154130286Y-184673334D02*
X154225524Y-184578095D01*
X154320762Y-184673334D01*
X154225524Y-184768572D01*
X154130286Y-184673334D01*
X154320762Y-184673334D01*
X154225524Y-182292381D02*
X154320762Y-182006666D01*
X154320762Y-181530476D01*
X154225524Y-181340000D01*
X154130286Y-181244762D01*
X153939810Y-181149523D01*
X153749333Y-181149523D01*
X153558857Y-181244762D01*
X153463619Y-181340000D01*
X153368381Y-181530476D01*
X153273143Y-181911428D01*
X153177905Y-182101904D01*
X153082667Y-182197143D01*
X152892190Y-182292381D01*
X152701714Y-182292381D01*
X152511238Y-182197143D01*
X152416000Y-182101904D01*
X152320762Y-181911428D01*
X152320762Y-181435238D01*
X152416000Y-181149523D01*
X154320762Y-180292381D02*
X152320762Y-180292381D01*
X154320762Y-179435238D02*
X153273143Y-179435238D01*
X153082667Y-179530476D01*
X152987429Y-179720952D01*
X152987429Y-180006666D01*
X153082667Y-180197142D01*
X153177905Y-180292381D01*
X154320762Y-177625714D02*
X153273143Y-177625714D01*
X153082667Y-177720952D01*
X152987429Y-177911428D01*
X152987429Y-178292380D01*
X153082667Y-178482857D01*
X154225524Y-177625714D02*
X154320762Y-177816190D01*
X154320762Y-178292380D01*
X154225524Y-178482857D01*
X154035048Y-178578095D01*
X153844571Y-178578095D01*
X153654095Y-178482857D01*
X153558857Y-178292380D01*
X153558857Y-177816190D01*
X153463619Y-177625714D01*
X152987429Y-176959047D02*
X152987429Y-176197142D01*
X154320762Y-176673333D02*
X152606476Y-176673333D01*
X152416000Y-176578094D01*
X152320762Y-176387618D01*
X152320762Y-176197142D01*
X154320762Y-175530476D02*
X152987429Y-175530476D01*
X152320762Y-175530476D02*
X152416000Y-175625714D01*
X152511238Y-175530476D01*
X152416000Y-175435237D01*
X152320762Y-175530476D01*
X152511238Y-175530476D01*
X154320762Y-174578095D02*
X152987429Y-174578095D01*
X153368381Y-174578095D02*
X153177905Y-174482856D01*
X153082667Y-174387618D01*
X152987429Y-174197142D01*
X152987429Y-174006666D01*
D12*
X208600000Y-180340000D03*
X208600000Y-177800000D03*
D13*
X213680000Y-175260000D03*
X213680000Y-185420000D03*
D14*
X214630000Y-157480000D03*
X214630000Y-162560000D03*
D15*
X214630000Y-167640000D03*
X209550000Y-167640000D03*
D14*
X209550000Y-162560000D03*
X209550000Y-157480000D03*
X152400000Y-166370000D03*
X152400000Y-161290000D03*
D15*
X152400000Y-156210000D03*
X157480000Y-156210000D03*
D14*
X157480000Y-161290000D03*
X157480000Y-166370000D03*
X152400000Y-204470000D03*
X152400000Y-199390000D03*
D15*
X152400000Y-194310000D03*
X157480000Y-194310000D03*
D14*
X157480000Y-199390000D03*
X157480000Y-204470000D03*
D12*
X166050000Y-180340000D03*
X166050000Y-182880000D03*
D13*
X160970000Y-185420000D03*
X160970000Y-175260000D03*
D16*
X171450000Y-173990000D03*
D17*
X173990000Y-173990000D03*
X176530000Y-173990000D03*
D16*
X171450000Y-187960000D03*
D17*
X173990000Y-187960000D03*
X176530000Y-187960000D03*
D16*
X176530000Y-177800000D03*
D17*
X173990000Y-177800000D03*
X171450000Y-177800000D03*
D16*
X176530000Y-182880000D03*
D17*
X173990000Y-182880000D03*
X171450000Y-182880000D03*
D18*
X201422000Y-185420000D03*
D19*
X193802000Y-177800000D03*
X201422000Y-182880000D03*
X193802000Y-180340000D03*
X201422000Y-180340000D03*
X193802000Y-182880000D03*
X201422000Y-177800000D03*
X193802000Y-185420000D03*
D20*
X209550000Y-194310000D03*
D21*
X200660000Y-156210000D03*
X177800000Y-156210000D03*
X200660000Y-204470000D03*
X177800000Y-204470000D03*
D22*
X165354000Y-199136000D03*
X197866000Y-194310000D03*
X191770000Y-194310000D03*
X198120000Y-181356000D03*
X165354000Y-164084000D03*
X162052000Y-180340000D03*
X165354000Y-176657000D03*
X194056000Y-204470000D03*
X163068000Y-206248000D03*
X162306000Y-154178000D03*
X193802000Y-156210000D03*
X172974000Y-155448000D03*
X171450000Y-201930000D03*
X179324000Y-194056000D03*
X178308000Y-191008000D03*
X180594000Y-167132000D03*
X178054000Y-170180000D03*
X184404000Y-170942000D03*
X189484000Y-185420000D03*
X190754000Y-173990000D03*
X191008000Y-179578000D03*
X186436000Y-179324000D03*
X198882000Y-173482000D03*
X199136000Y-175514000D03*
X204216000Y-185166000D03*
X206502000Y-182880000D03*
X192278000Y-186944000D03*
X185572400Y-168960800D03*
X186436000Y-175260000D03*
X185420000Y-193802000D03*
X186436000Y-181102000D03*
X188214000Y-194056000D03*
X187706000Y-179070000D03*
X184658000Y-184404000D03*
X183388000Y-178816000D03*
X184404000Y-157480000D03*
X184912000Y-203454000D03*
D23*
X209550000Y-167640000D02*
X214630000Y-167640000D01*
X193802000Y-182880000D02*
X196088000Y-182880000D01*
X196088000Y-182880000D02*
X196596000Y-182372000D01*
X196596000Y-182372000D02*
X196596000Y-172212000D01*
X196596000Y-172212000D02*
X201168000Y-167640000D01*
X201168000Y-167640000D02*
X209550000Y-167640000D01*
D24*
X186436000Y-175260000D02*
X186436000Y-169824400D01*
X186436000Y-169824400D02*
X185572400Y-168960800D01*
D25*
X157480000Y-204470000D02*
X152400000Y-204470000D01*
X185420000Y-193802000D02*
X180340000Y-198882000D01*
X180340000Y-198882000D02*
X167894000Y-198882000D01*
X167894000Y-198882000D02*
X162306000Y-204470000D01*
X162306000Y-204470000D02*
X157480000Y-204470000D01*
D24*
X186436000Y-181102000D02*
X186436000Y-192786000D01*
X186436000Y-192786000D02*
X185420000Y-193802000D01*
X187706000Y-179070000D02*
X187706000Y-193548000D01*
X187706000Y-193548000D02*
X188214000Y-194056000D01*
X183388000Y-178816000D02*
X183388000Y-179070000D01*
X183388000Y-179070000D02*
X184658000Y-180340000D01*
X184658000Y-180340000D02*
X184658000Y-184404000D01*
D25*
X171450000Y-173990000D02*
X169418000Y-176022000D01*
X169672000Y-181102000D02*
X171450000Y-182880000D01*
X169672000Y-178816000D02*
X169672000Y-181102000D01*
X169418000Y-178562000D02*
X169672000Y-178816000D01*
X169418000Y-176022000D02*
X169418000Y-178562000D01*
X173990000Y-169926000D02*
X173990000Y-168148000D01*
X173990000Y-168148000D02*
X184404000Y-157734000D01*
X184404000Y-157734000D02*
X184404000Y-157480000D01*
X173990000Y-173990000D02*
X173990000Y-177800000D01*
X157480000Y-156210000D02*
X160274000Y-156210000D01*
X160274000Y-156210000D02*
X173990000Y-169926000D01*
X173990000Y-169926000D02*
X173990000Y-173990000D01*
X152400000Y-156210000D02*
X157480000Y-156210000D01*
X157480000Y-166370000D02*
X152400000Y-166370000D01*
X173990000Y-187960000D02*
X173990000Y-190754000D01*
X173990000Y-190754000D02*
X172466000Y-192278000D01*
X172466000Y-192278000D02*
X161798000Y-192278000D01*
X161798000Y-192278000D02*
X157480000Y-187960000D01*
X157480000Y-187960000D02*
X157480000Y-166370000D01*
X173990000Y-182880000D02*
X173990000Y-187960000D01*
M02*
