G04 #@! TF.FileFunction,Legend,Top*
%FSLAX46Y46*%
G04 Gerber Fmt 4.6, Leading zero omitted, Abs format (unit mm)*
G04 Created by KiCad (PCBNEW 4.0.2-stable) date 10/6/2017 5:38:16 PM*
%MOMM*%
G01*
G04 APERTURE LIST*
%ADD10C,0.100000*%
%ADD11C,0.300000*%
%ADD12C,0.120000*%
%ADD13C,0.150000*%
G04 APERTURE END LIST*
D10*
D11*
X177832951Y-161406762D02*
X177832951Y-159406762D01*
X177832951Y-160359143D02*
X178975809Y-160359143D01*
X178975809Y-161406762D02*
X178975809Y-159406762D01*
X179642475Y-159406762D02*
X180309142Y-161406762D01*
X180975809Y-159406762D01*
X181547237Y-160835333D02*
X182499618Y-160835333D01*
X181356761Y-161406762D02*
X182023428Y-159406762D01*
X182690095Y-161406762D01*
X183356761Y-161406762D02*
X183356761Y-159406762D01*
X184023428Y-160835333D01*
X184690095Y-159406762D01*
X184690095Y-161406762D01*
X185642475Y-161406762D02*
X185642475Y-159406762D01*
X186404380Y-159406762D01*
X186594856Y-159502000D01*
X186690095Y-159597238D01*
X186785333Y-159787714D01*
X186785333Y-160073429D01*
X186690095Y-160263905D01*
X186594856Y-160359143D01*
X186404380Y-160454381D01*
X185642475Y-160454381D01*
X189166285Y-161406762D02*
X189166285Y-160073429D01*
X189166285Y-160454381D02*
X189261524Y-160263905D01*
X189356762Y-160168667D01*
X189547238Y-160073429D01*
X189737714Y-160073429D01*
X191166285Y-161311524D02*
X190975809Y-161406762D01*
X190594857Y-161406762D01*
X190404380Y-161311524D01*
X190309142Y-161121048D01*
X190309142Y-160359143D01*
X190404380Y-160168667D01*
X190594857Y-160073429D01*
X190975809Y-160073429D01*
X191166285Y-160168667D01*
X191261523Y-160359143D01*
X191261523Y-160549619D01*
X190309142Y-160740095D01*
X191928190Y-160073429D02*
X192404381Y-161406762D01*
X192880571Y-160073429D01*
X193642476Y-161216286D02*
X193737715Y-161311524D01*
X193642476Y-161406762D01*
X193547238Y-161311524D01*
X193642476Y-161216286D01*
X193642476Y-161406762D01*
X197166287Y-161406762D02*
X196023429Y-161406762D01*
X196594858Y-161406762D02*
X196594858Y-159406762D01*
X196404382Y-159692476D01*
X196213906Y-159882952D01*
X196023429Y-159978190D01*
X180023428Y-164506762D02*
X180023428Y-163173429D01*
X180023428Y-163363905D02*
X180118667Y-163268667D01*
X180309143Y-163173429D01*
X180594857Y-163173429D01*
X180785333Y-163268667D01*
X180880571Y-163459143D01*
X180880571Y-164506762D01*
X180880571Y-163459143D02*
X180975809Y-163268667D01*
X181166286Y-163173429D01*
X181452000Y-163173429D01*
X181642476Y-163268667D01*
X181737714Y-163459143D01*
X181737714Y-164506762D01*
X182690095Y-163744857D02*
X184213905Y-163744857D01*
X185452000Y-164506762D02*
X185261524Y-164411524D01*
X185166285Y-164221048D01*
X185166285Y-162506762D01*
X187071047Y-164506762D02*
X187071047Y-163459143D01*
X186975809Y-163268667D01*
X186785333Y-163173429D01*
X186404381Y-163173429D01*
X186213904Y-163268667D01*
X187071047Y-164411524D02*
X186880571Y-164506762D01*
X186404381Y-164506762D01*
X186213904Y-164411524D01*
X186118666Y-164221048D01*
X186118666Y-164030571D01*
X186213904Y-163840095D01*
X186404381Y-163744857D01*
X186880571Y-163744857D01*
X187071047Y-163649619D01*
X188023428Y-164506762D02*
X188023428Y-162506762D01*
X188023428Y-163268667D02*
X188213905Y-163173429D01*
X188594857Y-163173429D01*
X188785333Y-163268667D01*
X188880571Y-163363905D01*
X188975809Y-163554381D01*
X188975809Y-164125810D01*
X188880571Y-164316286D01*
X188785333Y-164411524D01*
X188594857Y-164506762D01*
X188213905Y-164506762D01*
X188023428Y-164411524D01*
X189737714Y-164411524D02*
X189928191Y-164506762D01*
X190309143Y-164506762D01*
X190499619Y-164411524D01*
X190594857Y-164221048D01*
X190594857Y-164125810D01*
X190499619Y-163935333D01*
X190309143Y-163840095D01*
X190023429Y-163840095D01*
X189832952Y-163744857D01*
X189737714Y-163554381D01*
X189737714Y-163459143D01*
X189832952Y-163268667D01*
X190023429Y-163173429D01*
X190309143Y-163173429D01*
X190499619Y-163268667D01*
X191452000Y-164316286D02*
X191547239Y-164411524D01*
X191452000Y-164506762D01*
X191356762Y-164411524D01*
X191452000Y-164316286D01*
X191452000Y-164506762D01*
X192404381Y-164506762D02*
X192404381Y-162506762D01*
X193261524Y-164506762D02*
X193261524Y-163459143D01*
X193166286Y-163268667D01*
X192975810Y-163173429D01*
X192690096Y-163173429D01*
X192499620Y-163268667D01*
X192404381Y-163363905D01*
X194213905Y-164506762D02*
X194213905Y-162506762D01*
X194404382Y-163744857D02*
X194975810Y-164506762D01*
X194975810Y-163173429D02*
X194213905Y-163935333D01*
X199517143Y-161810000D02*
X199374286Y-161738571D01*
X199160000Y-161738571D01*
X198945715Y-161810000D01*
X198802857Y-161952857D01*
X198731429Y-162095714D01*
X198660000Y-162381429D01*
X198660000Y-162595714D01*
X198731429Y-162881429D01*
X198802857Y-163024286D01*
X198945715Y-163167143D01*
X199160000Y-163238571D01*
X199302857Y-163238571D01*
X199517143Y-163167143D01*
X199588572Y-163095714D01*
X199588572Y-162595714D01*
X199302857Y-162595714D01*
X200231429Y-163238571D02*
X200231429Y-161738571D01*
X201088572Y-163238571D01*
X201088572Y-161738571D01*
X201802858Y-163238571D02*
X201802858Y-161738571D01*
X202160001Y-161738571D01*
X202374286Y-161810000D01*
X202517144Y-161952857D01*
X202588572Y-162095714D01*
X202660001Y-162381429D01*
X202660001Y-162595714D01*
X202588572Y-162881429D01*
X202517144Y-163024286D01*
X202374286Y-163167143D01*
X202160001Y-163238571D01*
X201802858Y-163238571D01*
X211685429Y-153777143D02*
X212828286Y-153777143D01*
X214256858Y-152848571D02*
X213542572Y-152848571D01*
X213471143Y-153562857D01*
X213542572Y-153491429D01*
X213685429Y-153420000D01*
X214042572Y-153420000D01*
X214185429Y-153491429D01*
X214256858Y-153562857D01*
X214328286Y-153705714D01*
X214328286Y-154062857D01*
X214256858Y-154205714D01*
X214185429Y-154277143D01*
X214042572Y-154348571D01*
X213685429Y-154348571D01*
X213542572Y-154277143D01*
X213471143Y-154205714D01*
X214756857Y-152848571D02*
X215256857Y-154348571D01*
X215756857Y-152848571D01*
X201525429Y-168001143D02*
X202668286Y-168001143D01*
X202096857Y-168572571D02*
X202096857Y-167429714D01*
X204096858Y-167072571D02*
X203382572Y-167072571D01*
X203311143Y-167786857D01*
X203382572Y-167715429D01*
X203525429Y-167644000D01*
X203882572Y-167644000D01*
X204025429Y-167715429D01*
X204096858Y-167786857D01*
X204168286Y-167929714D01*
X204168286Y-168286857D01*
X204096858Y-168429714D01*
X204025429Y-168501143D01*
X203882572Y-168572571D01*
X203525429Y-168572571D01*
X203382572Y-168501143D01*
X203311143Y-168429714D01*
X204596857Y-167072571D02*
X205096857Y-168572571D01*
X205596857Y-167072571D01*
X211050286Y-172382571D02*
X211050286Y-170882571D01*
X211764572Y-172382571D02*
X211764572Y-170882571D01*
X212621715Y-172382571D01*
X212621715Y-170882571D01*
X156742000Y-170374571D02*
X157027714Y-170374571D01*
X157170572Y-170446000D01*
X157313429Y-170588857D01*
X157384857Y-170874571D01*
X157384857Y-171374571D01*
X157313429Y-171660286D01*
X157170572Y-171803143D01*
X157027714Y-171874571D01*
X156742000Y-171874571D01*
X156599143Y-171803143D01*
X156456286Y-171660286D01*
X156384857Y-171374571D01*
X156384857Y-170874571D01*
X156456286Y-170588857D01*
X156599143Y-170446000D01*
X156742000Y-170374571D01*
X158027715Y-170374571D02*
X158027715Y-171588857D01*
X158099143Y-171731714D01*
X158170572Y-171803143D01*
X158313429Y-171874571D01*
X158599143Y-171874571D01*
X158742001Y-171803143D01*
X158813429Y-171731714D01*
X158884858Y-171588857D01*
X158884858Y-170374571D01*
X159384858Y-170374571D02*
X160242001Y-170374571D01*
X159813430Y-171874571D02*
X159813430Y-170374571D01*
D12*
X181664000Y-168418000D02*
X181664000Y-170418000D01*
X179524000Y-170418000D02*
X179524000Y-168418000D01*
X185248000Y-177538000D02*
X185248000Y-176538000D01*
X186608000Y-176538000D02*
X186608000Y-177538000D01*
X186862000Y-182126000D02*
X186862000Y-183126000D01*
X185502000Y-183126000D02*
X185502000Y-182126000D01*
X205150000Y-164600000D02*
X205150000Y-165600000D01*
X203790000Y-165600000D02*
X203790000Y-164600000D01*
X185084000Y-181110000D02*
X185084000Y-182110000D01*
X183724000Y-182110000D02*
X183724000Y-181110000D01*
X204632000Y-186278000D02*
X204632000Y-185578000D01*
X205832000Y-185578000D02*
X205832000Y-186278000D01*
X201840000Y-192700000D02*
X201340000Y-192700000D01*
X201840000Y-192700000D02*
X201840000Y-192200000D01*
X201840000Y-188300000D02*
X201340000Y-188300000D01*
X201840000Y-188300000D02*
X201840000Y-188800000D01*
X196940000Y-192700000D02*
X197440000Y-192700000D01*
X196940000Y-192700000D02*
X196940000Y-192200000D01*
X196940000Y-188300000D02*
X197440000Y-188300000D01*
X196940000Y-188300000D02*
X196940000Y-188800000D01*
X190916000Y-185008000D02*
X190916000Y-184308000D01*
X192116000Y-184308000D02*
X192116000Y-185008000D01*
X200310000Y-174152000D02*
X201010000Y-174152000D01*
X201010000Y-175352000D02*
X200310000Y-175352000D01*
X184166000Y-168406000D02*
X186166000Y-168406000D01*
X186166000Y-166366000D02*
X184166000Y-166366000D01*
X192116000Y-187102000D02*
X192116000Y-187802000D01*
X190916000Y-187802000D02*
X190916000Y-187102000D01*
X200310000Y-172628000D02*
X201010000Y-172628000D01*
X201010000Y-173828000D02*
X200310000Y-173828000D01*
X181848000Y-194560000D02*
X179848000Y-194560000D01*
X179848000Y-196600000D02*
X181848000Y-196600000D01*
X189453000Y-173828000D02*
X188753000Y-173828000D01*
X188753000Y-172628000D02*
X189453000Y-172628000D01*
X189134000Y-178216000D02*
X189834000Y-178216000D01*
X189834000Y-179416000D02*
X189134000Y-179416000D01*
X183484000Y-173066000D02*
X182784000Y-173066000D01*
X182784000Y-171866000D02*
X183484000Y-171866000D01*
X184562000Y-178724000D02*
X185262000Y-178724000D01*
X185262000Y-179924000D02*
X184562000Y-179924000D01*
X169668000Y-195596000D02*
X169668000Y-197596000D01*
X171708000Y-197596000D02*
X171708000Y-195596000D01*
X171708000Y-164830000D02*
X171708000Y-162830000D01*
X169668000Y-162830000D02*
X169668000Y-164830000D01*
X176514000Y-169160000D02*
X174514000Y-169160000D01*
X174514000Y-171200000D02*
X176514000Y-171200000D01*
X174514000Y-192028000D02*
X176514000Y-192028000D01*
X176514000Y-189988000D02*
X174514000Y-189988000D01*
D11*
X222180000Y-186740000D02*
X221480000Y-173940000D01*
X226180000Y-186740000D02*
X225480000Y-173940000D01*
X225180000Y-186740000D02*
X224480000Y-173940000D01*
X223180000Y-186740000D02*
X222480000Y-173940000D01*
X224180000Y-186740000D02*
X223480000Y-173940000D01*
X228180000Y-186740000D02*
X227480000Y-173940000D01*
X227180000Y-186740000D02*
X226480000Y-173940000D01*
X229180000Y-186740000D02*
X228480000Y-173940000D01*
X230180000Y-186740000D02*
X229480000Y-173940000D01*
X230180000Y-173940000D02*
X220980000Y-173940000D01*
X230180000Y-186740000D02*
X220980000Y-186740000D01*
X242180000Y-175540000D02*
X230180000Y-175540000D01*
X242180000Y-185140000D02*
X230180000Y-185140000D01*
X242180000Y-185140000D02*
X242180000Y-175540000D01*
X230180000Y-186740000D02*
X230180000Y-173940000D01*
X220980000Y-172940000D02*
X207280000Y-172940000D01*
X207280000Y-187740000D02*
X220980000Y-187740000D01*
X220980000Y-187740000D02*
X220980000Y-172940000D01*
D13*
X206550000Y-170260000D02*
X225550000Y-170260000D01*
X225550000Y-170260000D02*
X225550000Y-154860000D01*
X225550000Y-154860000D02*
X206550000Y-154860000D01*
X206550000Y-170260000D02*
X206550000Y-154860000D01*
X217550000Y-170260000D02*
X217550000Y-154860000D01*
X207250000Y-167640000D02*
X206650000Y-167340000D01*
X206650000Y-167340000D02*
X206650000Y-167940000D01*
X206650000Y-167940000D02*
X207250000Y-167640000D01*
X160480000Y-153590000D02*
X141480000Y-153590000D01*
X141480000Y-153590000D02*
X141480000Y-168990000D01*
X141480000Y-168990000D02*
X160480000Y-168990000D01*
X160480000Y-153590000D02*
X160480000Y-168990000D01*
X149480000Y-153590000D02*
X149480000Y-168990000D01*
X159780000Y-156210000D02*
X160380000Y-156510000D01*
X160380000Y-156510000D02*
X160380000Y-155910000D01*
X160380000Y-155910000D02*
X159780000Y-156210000D01*
X160480000Y-191690000D02*
X141480000Y-191690000D01*
X141480000Y-191690000D02*
X141480000Y-207090000D01*
X141480000Y-207090000D02*
X160480000Y-207090000D01*
X160480000Y-191690000D02*
X160480000Y-207090000D01*
X149480000Y-191690000D02*
X149480000Y-207090000D01*
X159780000Y-194310000D02*
X160380000Y-194610000D01*
X160380000Y-194610000D02*
X160380000Y-194010000D01*
X160380000Y-194010000D02*
X159780000Y-194310000D01*
D11*
X152470000Y-173940000D02*
X153170000Y-186740000D01*
X148470000Y-173940000D02*
X149170000Y-186740000D01*
X149470000Y-173940000D02*
X150170000Y-186740000D01*
X151470000Y-173940000D02*
X152170000Y-186740000D01*
X150470000Y-173940000D02*
X151170000Y-186740000D01*
X146470000Y-173940000D02*
X147170000Y-186740000D01*
X147470000Y-173940000D02*
X148170000Y-186740000D01*
X145470000Y-173940000D02*
X146170000Y-186740000D01*
X144470000Y-173940000D02*
X145170000Y-186740000D01*
X144470000Y-186740000D02*
X153670000Y-186740000D01*
X144470000Y-173940000D02*
X153670000Y-173940000D01*
X132470000Y-185140000D02*
X144470000Y-185140000D01*
X132470000Y-175540000D02*
X144470000Y-175540000D01*
X132470000Y-175540000D02*
X132470000Y-185140000D01*
X144470000Y-173940000D02*
X144470000Y-186740000D01*
X153670000Y-187740000D02*
X167370000Y-187740000D01*
X167370000Y-172940000D02*
X153670000Y-172940000D01*
X153670000Y-172940000D02*
X153670000Y-187740000D01*
D12*
X169870000Y-171870000D02*
X178110000Y-171870000D01*
X169870000Y-175360000D02*
X178110000Y-175360000D01*
X169870000Y-171870000D02*
X169870000Y-175360000D01*
X178110000Y-171870000D02*
X178110000Y-175360000D01*
X172390000Y-171870000D02*
X172390000Y-172940000D01*
X172390000Y-175040000D02*
X172390000Y-175360000D01*
X175591000Y-171870000D02*
X175591000Y-173450000D01*
X175591000Y-174530000D02*
X175591000Y-175360000D01*
X169870000Y-185840000D02*
X178110000Y-185840000D01*
X169870000Y-189330000D02*
X178110000Y-189330000D01*
X169870000Y-185840000D02*
X169870000Y-189330000D01*
X178110000Y-185840000D02*
X178110000Y-189330000D01*
X172390000Y-185840000D02*
X172390000Y-186910000D01*
X172390000Y-189010000D02*
X172390000Y-189330000D01*
X175591000Y-185840000D02*
X175591000Y-187420000D01*
X175591000Y-188500000D02*
X175591000Y-189330000D01*
X178110000Y-179920000D02*
X169870000Y-179920000D01*
X178110000Y-176430000D02*
X169870000Y-176430000D01*
X178110000Y-179920000D02*
X178110000Y-176430000D01*
X169870000Y-179920000D02*
X169870000Y-176430000D01*
X175590000Y-179920000D02*
X175590000Y-178850000D01*
X175590000Y-176750000D02*
X175590000Y-176430000D01*
X172389000Y-179920000D02*
X172389000Y-178340000D01*
X172389000Y-177260000D02*
X172389000Y-176430000D01*
X178110000Y-185000000D02*
X169870000Y-185000000D01*
X178110000Y-181510000D02*
X169870000Y-181510000D01*
X178110000Y-185000000D02*
X178110000Y-181510000D01*
X169870000Y-185000000D02*
X169870000Y-181510000D01*
X175590000Y-185000000D02*
X175590000Y-183930000D01*
X175590000Y-181830000D02*
X175590000Y-181510000D01*
X172389000Y-185000000D02*
X172389000Y-183420000D01*
X172389000Y-182340000D02*
X172389000Y-181510000D01*
X204224000Y-178644000D02*
X205224000Y-178644000D01*
X205224000Y-180004000D02*
X204224000Y-180004000D01*
X204224000Y-180168000D02*
X205224000Y-180168000D01*
X205224000Y-181528000D02*
X204224000Y-181528000D01*
X204224000Y-182200000D02*
X205224000Y-182200000D01*
X205224000Y-183560000D02*
X204224000Y-183560000D01*
X181048000Y-187182000D02*
X181048000Y-185182000D01*
X183188000Y-185182000D02*
X183188000Y-187182000D01*
X180648000Y-185182000D02*
X180648000Y-187182000D01*
X178508000Y-187182000D02*
X178508000Y-185182000D01*
X171002000Y-157776000D02*
X165802000Y-157776000D01*
X165802000Y-154136000D02*
X171002000Y-154136000D01*
X165802000Y-202650000D02*
X171002000Y-202650000D01*
X171002000Y-206290000D02*
X165802000Y-206290000D01*
X192286000Y-174580000D02*
X193286000Y-174580000D01*
X193286000Y-175940000D02*
X192286000Y-175940000D01*
X203790000Y-160520000D02*
X203790000Y-159520000D01*
X205150000Y-159520000D02*
X205150000Y-160520000D01*
X185112000Y-172450000D02*
X185112000Y-170450000D01*
X187252000Y-170450000D02*
X187252000Y-172450000D01*
X185690000Y-194510000D02*
X187690000Y-194510000D01*
X187690000Y-196650000D02*
X185690000Y-196650000D01*
X183470000Y-176522000D02*
X183470000Y-175522000D01*
X184830000Y-175522000D02*
X184830000Y-176522000D01*
X186198000Y-184350000D02*
X188198000Y-184350000D01*
X188198000Y-186490000D02*
X186198000Y-186490000D01*
X178062000Y-179660000D02*
X179062000Y-179660000D01*
X179062000Y-181020000D02*
X178062000Y-181020000D01*
X167954000Y-172000000D02*
X162754000Y-172000000D01*
X162754000Y-168360000D02*
X167954000Y-168360000D01*
X162754000Y-188680000D02*
X167954000Y-188680000D01*
X167954000Y-192320000D02*
X162754000Y-192320000D01*
X167954000Y-167936000D02*
X162754000Y-167936000D01*
X162754000Y-164296000D02*
X167954000Y-164296000D01*
X162754000Y-192744000D02*
X167954000Y-192744000D01*
X167954000Y-196384000D02*
X162754000Y-196384000D01*
X167954000Y-163872000D02*
X162754000Y-163872000D01*
X162754000Y-160232000D02*
X167954000Y-160232000D01*
X162754000Y-196808000D02*
X167954000Y-196808000D01*
X167954000Y-200448000D02*
X162754000Y-200448000D01*
X192084000Y-158030000D02*
X186884000Y-158030000D01*
X186884000Y-154390000D02*
X192084000Y-154390000D01*
X192338000Y-206290000D02*
X187138000Y-206290000D01*
X187138000Y-202650000D02*
X192338000Y-202650000D01*
X196612000Y-186750000D02*
G75*
G02X198612000Y-186750000I1000000J0D01*
G01*
X198612000Y-186750000D02*
X199862000Y-186750000D01*
X199862000Y-186750000D02*
X199862000Y-176470000D01*
X199862000Y-176470000D02*
X195362000Y-176470000D01*
X195362000Y-176470000D02*
X195362000Y-186750000D01*
X195362000Y-186750000D02*
X196612000Y-186750000D01*
X202862000Y-186810000D02*
X202862000Y-176410000D01*
X202862000Y-176410000D02*
X192362000Y-176410000D01*
X192362000Y-176410000D02*
X192362000Y-186810000D01*
X192362000Y-186810000D02*
X202862000Y-186810000D01*
X174072000Y-180840000D02*
X174072000Y-179840000D01*
X175432000Y-179840000D02*
X175432000Y-180840000D01*
X175850000Y-180840000D02*
X175850000Y-179840000D01*
X177210000Y-179840000D02*
X177210000Y-180840000D01*
D13*
X188803000Y-174195000D02*
G75*
G03X188803000Y-174195000I-100000J0D01*
G01*
X189353000Y-174445000D02*
X188853000Y-174445000D01*
X189353000Y-177345000D02*
X189353000Y-174445000D01*
X188853000Y-177345000D02*
X189353000Y-177345000D01*
X188853000Y-174445000D02*
X188853000Y-177345000D01*
X189184000Y-179656000D02*
G75*
G03X189184000Y-179656000I-100000J0D01*
G01*
X189734000Y-179906000D02*
X189234000Y-179906000D01*
X189734000Y-182806000D02*
X189734000Y-179906000D01*
X189234000Y-182806000D02*
X189734000Y-182806000D01*
X189234000Y-179906000D02*
X189234000Y-182806000D01*
X183156000Y-175114000D02*
G75*
G03X183156000Y-175114000I-100000J0D01*
G01*
X182806000Y-175764000D02*
X182806000Y-175264000D01*
X179906000Y-175764000D02*
X182806000Y-175764000D01*
X179906000Y-175264000D02*
X179906000Y-175764000D01*
X182806000Y-175264000D02*
X179906000Y-175264000D01*
X183410000Y-180702000D02*
G75*
G03X183410000Y-180702000I-100000J0D01*
G01*
X183060000Y-181352000D02*
X183060000Y-180852000D01*
X180160000Y-181352000D02*
X183060000Y-181352000D01*
X180160000Y-180852000D02*
X180160000Y-181352000D01*
X183060000Y-180852000D02*
X180160000Y-180852000D01*
D12*
X161286000Y-155718000D02*
X161286000Y-157718000D01*
X163326000Y-157718000D02*
X163326000Y-155718000D01*
X163326000Y-204454000D02*
X163326000Y-202454000D01*
X161286000Y-202454000D02*
X161286000Y-204454000D01*
X191500000Y-168456000D02*
X189500000Y-168456000D01*
X189500000Y-166316000D02*
X191500000Y-166316000D01*
X186490000Y-198644000D02*
X186490000Y-200644000D01*
X184350000Y-200644000D02*
X184350000Y-198644000D01*
D13*
X179951143Y-166822381D02*
X179617809Y-166346190D01*
X179379714Y-166822381D02*
X179379714Y-165822381D01*
X179760667Y-165822381D01*
X179855905Y-165870000D01*
X179903524Y-165917619D01*
X179951143Y-166012857D01*
X179951143Y-166155714D01*
X179903524Y-166250952D01*
X179855905Y-166298571D01*
X179760667Y-166346190D01*
X179379714Y-166346190D01*
X180903524Y-166822381D02*
X180332095Y-166822381D01*
X180617809Y-166822381D02*
X180617809Y-165822381D01*
X180522571Y-165965238D01*
X180427333Y-166060476D01*
X180332095Y-166108095D01*
X181760667Y-166155714D02*
X181760667Y-166822381D01*
X181522571Y-165774762D02*
X181284476Y-166489048D01*
X181903524Y-166489048D01*
X185732000Y-175576667D02*
X185498666Y-175243333D01*
X185332000Y-175576667D02*
X185332000Y-174876667D01*
X185598666Y-174876667D01*
X185665333Y-174910000D01*
X185698666Y-174943333D01*
X185732000Y-175010000D01*
X185732000Y-175110000D01*
X185698666Y-175176667D01*
X185665333Y-175210000D01*
X185598666Y-175243333D01*
X185332000Y-175243333D01*
X186398666Y-175576667D02*
X185998666Y-175576667D01*
X186198666Y-175576667D02*
X186198666Y-174876667D01*
X186132000Y-174976667D01*
X186065333Y-175043333D01*
X185998666Y-175076667D01*
X186632000Y-174876667D02*
X187098667Y-174876667D01*
X186798667Y-175576667D01*
X183954000Y-183958667D02*
X183720666Y-183625333D01*
X183554000Y-183958667D02*
X183554000Y-183258667D01*
X183820666Y-183258667D01*
X183887333Y-183292000D01*
X183920666Y-183325333D01*
X183954000Y-183392000D01*
X183954000Y-183492000D01*
X183920666Y-183558667D01*
X183887333Y-183592000D01*
X183820666Y-183625333D01*
X183554000Y-183625333D01*
X184620666Y-183958667D02*
X184220666Y-183958667D01*
X184420666Y-183958667D02*
X184420666Y-183258667D01*
X184354000Y-183358667D01*
X184287333Y-183425333D01*
X184220666Y-183458667D01*
X185020667Y-183558667D02*
X184954000Y-183525333D01*
X184920667Y-183492000D01*
X184887333Y-183425333D01*
X184887333Y-183392000D01*
X184920667Y-183325333D01*
X184954000Y-183292000D01*
X185020667Y-183258667D01*
X185154000Y-183258667D01*
X185220667Y-183292000D01*
X185254000Y-183325333D01*
X185287333Y-183392000D01*
X185287333Y-183425333D01*
X185254000Y-183492000D01*
X185220667Y-183525333D01*
X185154000Y-183558667D01*
X185020667Y-183558667D01*
X184954000Y-183592000D01*
X184920667Y-183625333D01*
X184887333Y-183692000D01*
X184887333Y-183825333D01*
X184920667Y-183892000D01*
X184954000Y-183925333D01*
X185020667Y-183958667D01*
X185154000Y-183958667D01*
X185220667Y-183925333D01*
X185254000Y-183892000D01*
X185287333Y-183825333D01*
X185287333Y-183692000D01*
X185254000Y-183625333D01*
X185220667Y-183592000D01*
X185154000Y-183558667D01*
X204303334Y-163266381D02*
X203970000Y-162790190D01*
X203731905Y-163266381D02*
X203731905Y-162266381D01*
X204112858Y-162266381D01*
X204208096Y-162314000D01*
X204255715Y-162361619D01*
X204303334Y-162456857D01*
X204303334Y-162599714D01*
X204255715Y-162694952D01*
X204208096Y-162742571D01*
X204112858Y-162790190D01*
X203731905Y-162790190D01*
X204779524Y-163266381D02*
X204970000Y-163266381D01*
X205065239Y-163218762D01*
X205112858Y-163171143D01*
X205208096Y-163028286D01*
X205255715Y-162837810D01*
X205255715Y-162456857D01*
X205208096Y-162361619D01*
X205160477Y-162314000D01*
X205065239Y-162266381D01*
X204874762Y-162266381D01*
X204779524Y-162314000D01*
X204731905Y-162361619D01*
X204684286Y-162456857D01*
X204684286Y-162694952D01*
X204731905Y-162790190D01*
X204779524Y-162837810D01*
X204874762Y-162885429D01*
X205065239Y-162885429D01*
X205160477Y-162837810D01*
X205208096Y-162790190D01*
X205255715Y-162694952D01*
X185732000Y-180910667D02*
X185498666Y-180577333D01*
X185332000Y-180910667D02*
X185332000Y-180210667D01*
X185598666Y-180210667D01*
X185665333Y-180244000D01*
X185698666Y-180277333D01*
X185732000Y-180344000D01*
X185732000Y-180444000D01*
X185698666Y-180510667D01*
X185665333Y-180544000D01*
X185598666Y-180577333D01*
X185332000Y-180577333D01*
X186398666Y-180910667D02*
X185998666Y-180910667D01*
X186198666Y-180910667D02*
X186198666Y-180210667D01*
X186132000Y-180310667D01*
X186065333Y-180377333D01*
X185998666Y-180410667D01*
X186998667Y-180210667D02*
X186865333Y-180210667D01*
X186798667Y-180244000D01*
X186765333Y-180277333D01*
X186698667Y-180377333D01*
X186665333Y-180510667D01*
X186665333Y-180777333D01*
X186698667Y-180844000D01*
X186732000Y-180877333D01*
X186798667Y-180910667D01*
X186932000Y-180910667D01*
X186998667Y-180877333D01*
X187032000Y-180844000D01*
X187065333Y-180777333D01*
X187065333Y-180610667D01*
X187032000Y-180544000D01*
X186998667Y-180510667D01*
X186932000Y-180477333D01*
X186798667Y-180477333D01*
X186732000Y-180510667D01*
X186698667Y-180544000D01*
X186665333Y-180610667D01*
X205065334Y-188571143D02*
X205017715Y-188618762D01*
X204874858Y-188666381D01*
X204779620Y-188666381D01*
X204636762Y-188618762D01*
X204541524Y-188523524D01*
X204493905Y-188428286D01*
X204446286Y-188237810D01*
X204446286Y-188094952D01*
X204493905Y-187904476D01*
X204541524Y-187809238D01*
X204636762Y-187714000D01*
X204779620Y-187666381D01*
X204874858Y-187666381D01*
X205017715Y-187714000D01*
X205065334Y-187761619D01*
X206017715Y-188666381D02*
X205446286Y-188666381D01*
X205732000Y-188666381D02*
X205732000Y-187666381D01*
X205636762Y-187809238D01*
X205541524Y-187904476D01*
X205446286Y-187952095D01*
X195413334Y-188317143D02*
X195365715Y-188364762D01*
X195222858Y-188412381D01*
X195127620Y-188412381D01*
X194984762Y-188364762D01*
X194889524Y-188269524D01*
X194841905Y-188174286D01*
X194794286Y-187983810D01*
X194794286Y-187840952D01*
X194841905Y-187650476D01*
X194889524Y-187555238D01*
X194984762Y-187460000D01*
X195127620Y-187412381D01*
X195222858Y-187412381D01*
X195365715Y-187460000D01*
X195413334Y-187507619D01*
X195794286Y-187507619D02*
X195841905Y-187460000D01*
X195937143Y-187412381D01*
X196175239Y-187412381D01*
X196270477Y-187460000D01*
X196318096Y-187507619D01*
X196365715Y-187602857D01*
X196365715Y-187698095D01*
X196318096Y-187840952D01*
X195746667Y-188412381D01*
X196365715Y-188412381D01*
X189875334Y-185416000D02*
X189842000Y-185449333D01*
X189742000Y-185482667D01*
X189675334Y-185482667D01*
X189575334Y-185449333D01*
X189508667Y-185382667D01*
X189475334Y-185316000D01*
X189442000Y-185182667D01*
X189442000Y-185082667D01*
X189475334Y-184949333D01*
X189508667Y-184882667D01*
X189575334Y-184816000D01*
X189675334Y-184782667D01*
X189742000Y-184782667D01*
X189842000Y-184816000D01*
X189875334Y-184849333D01*
X190108667Y-184782667D02*
X190542000Y-184782667D01*
X190308667Y-185049333D01*
X190408667Y-185049333D01*
X190475334Y-185082667D01*
X190508667Y-185116000D01*
X190542000Y-185182667D01*
X190542000Y-185349333D01*
X190508667Y-185416000D01*
X190475334Y-185449333D01*
X190408667Y-185482667D01*
X190208667Y-185482667D01*
X190142000Y-185449333D01*
X190108667Y-185416000D01*
X197953334Y-175109143D02*
X197905715Y-175156762D01*
X197762858Y-175204381D01*
X197667620Y-175204381D01*
X197524762Y-175156762D01*
X197429524Y-175061524D01*
X197381905Y-174966286D01*
X197334286Y-174775810D01*
X197334286Y-174632952D01*
X197381905Y-174442476D01*
X197429524Y-174347238D01*
X197524762Y-174252000D01*
X197667620Y-174204381D01*
X197762858Y-174204381D01*
X197905715Y-174252000D01*
X197953334Y-174299619D01*
X198810477Y-174537714D02*
X198810477Y-175204381D01*
X198572381Y-174156762D02*
X198334286Y-174871048D01*
X198953334Y-174871048D01*
X184999334Y-165965143D02*
X184951715Y-166012762D01*
X184808858Y-166060381D01*
X184713620Y-166060381D01*
X184570762Y-166012762D01*
X184475524Y-165917524D01*
X184427905Y-165822286D01*
X184380286Y-165631810D01*
X184380286Y-165488952D01*
X184427905Y-165298476D01*
X184475524Y-165203238D01*
X184570762Y-165108000D01*
X184713620Y-165060381D01*
X184808858Y-165060381D01*
X184951715Y-165108000D01*
X184999334Y-165155619D01*
X185904096Y-165060381D02*
X185427905Y-165060381D01*
X185380286Y-165536571D01*
X185427905Y-165488952D01*
X185523143Y-165441333D01*
X185761239Y-165441333D01*
X185856477Y-165488952D01*
X185904096Y-165536571D01*
X185951715Y-165631810D01*
X185951715Y-165869905D01*
X185904096Y-165965143D01*
X185856477Y-166012762D01*
X185761239Y-166060381D01*
X185523143Y-166060381D01*
X185427905Y-166012762D01*
X185380286Y-165965143D01*
X189571334Y-188063143D02*
X189523715Y-188110762D01*
X189380858Y-188158381D01*
X189285620Y-188158381D01*
X189142762Y-188110762D01*
X189047524Y-188015524D01*
X188999905Y-187920286D01*
X188952286Y-187729810D01*
X188952286Y-187586952D01*
X188999905Y-187396476D01*
X189047524Y-187301238D01*
X189142762Y-187206000D01*
X189285620Y-187158381D01*
X189380858Y-187158381D01*
X189523715Y-187206000D01*
X189571334Y-187253619D01*
X190428477Y-187158381D02*
X190238000Y-187158381D01*
X190142762Y-187206000D01*
X190095143Y-187253619D01*
X189999905Y-187396476D01*
X189952286Y-187586952D01*
X189952286Y-187967905D01*
X189999905Y-188063143D01*
X190047524Y-188110762D01*
X190142762Y-188158381D01*
X190333239Y-188158381D01*
X190428477Y-188110762D01*
X190476096Y-188063143D01*
X190523715Y-187967905D01*
X190523715Y-187729810D01*
X190476096Y-187634571D01*
X190428477Y-187586952D01*
X190333239Y-187539333D01*
X190142762Y-187539333D01*
X190047524Y-187586952D01*
X189999905Y-187634571D01*
X189952286Y-187729810D01*
X197953334Y-173585143D02*
X197905715Y-173632762D01*
X197762858Y-173680381D01*
X197667620Y-173680381D01*
X197524762Y-173632762D01*
X197429524Y-173537524D01*
X197381905Y-173442286D01*
X197334286Y-173251810D01*
X197334286Y-173108952D01*
X197381905Y-172918476D01*
X197429524Y-172823238D01*
X197524762Y-172728000D01*
X197667620Y-172680381D01*
X197762858Y-172680381D01*
X197905715Y-172728000D01*
X197953334Y-172775619D01*
X198286667Y-172680381D02*
X198953334Y-172680381D01*
X198524762Y-173680381D01*
X180681334Y-193905143D02*
X180633715Y-193952762D01*
X180490858Y-194000381D01*
X180395620Y-194000381D01*
X180252762Y-193952762D01*
X180157524Y-193857524D01*
X180109905Y-193762286D01*
X180062286Y-193571810D01*
X180062286Y-193428952D01*
X180109905Y-193238476D01*
X180157524Y-193143238D01*
X180252762Y-193048000D01*
X180395620Y-193000381D01*
X180490858Y-193000381D01*
X180633715Y-193048000D01*
X180681334Y-193095619D01*
X181252762Y-193428952D02*
X181157524Y-193381333D01*
X181109905Y-193333714D01*
X181062286Y-193238476D01*
X181062286Y-193190857D01*
X181109905Y-193095619D01*
X181157524Y-193048000D01*
X181252762Y-193000381D01*
X181443239Y-193000381D01*
X181538477Y-193048000D01*
X181586096Y-193095619D01*
X181633715Y-193190857D01*
X181633715Y-193238476D01*
X181586096Y-193333714D01*
X181538477Y-193381333D01*
X181443239Y-193428952D01*
X181252762Y-193428952D01*
X181157524Y-193476571D01*
X181109905Y-193524190D01*
X181062286Y-193619429D01*
X181062286Y-193809905D01*
X181109905Y-193905143D01*
X181157524Y-193952762D01*
X181252762Y-194000381D01*
X181443239Y-194000381D01*
X181538477Y-193952762D01*
X181586096Y-193905143D01*
X181633715Y-193809905D01*
X181633715Y-193619429D01*
X181586096Y-193524190D01*
X181538477Y-193476571D01*
X181443239Y-193428952D01*
X189063334Y-172315143D02*
X189015715Y-172362762D01*
X188872858Y-172410381D01*
X188777620Y-172410381D01*
X188634762Y-172362762D01*
X188539524Y-172267524D01*
X188491905Y-172172286D01*
X188444286Y-171981810D01*
X188444286Y-171838952D01*
X188491905Y-171648476D01*
X188539524Y-171553238D01*
X188634762Y-171458000D01*
X188777620Y-171410381D01*
X188872858Y-171410381D01*
X189015715Y-171458000D01*
X189063334Y-171505619D01*
X189539524Y-172410381D02*
X189730000Y-172410381D01*
X189825239Y-172362762D01*
X189872858Y-172315143D01*
X189968096Y-172172286D01*
X190015715Y-171981810D01*
X190015715Y-171600857D01*
X189968096Y-171505619D01*
X189920477Y-171458000D01*
X189825239Y-171410381D01*
X189634762Y-171410381D01*
X189539524Y-171458000D01*
X189491905Y-171505619D01*
X189444286Y-171600857D01*
X189444286Y-171838952D01*
X189491905Y-171934190D01*
X189539524Y-171981810D01*
X189634762Y-172029429D01*
X189825239Y-172029429D01*
X189920477Y-171981810D01*
X189968096Y-171934190D01*
X190015715Y-171838952D01*
X186748000Y-179066000D02*
X186714666Y-179099333D01*
X186614666Y-179132667D01*
X186548000Y-179132667D01*
X186448000Y-179099333D01*
X186381333Y-179032667D01*
X186348000Y-178966000D01*
X186314666Y-178832667D01*
X186314666Y-178732667D01*
X186348000Y-178599333D01*
X186381333Y-178532667D01*
X186448000Y-178466000D01*
X186548000Y-178432667D01*
X186614666Y-178432667D01*
X186714666Y-178466000D01*
X186748000Y-178499333D01*
X187414666Y-179132667D02*
X187014666Y-179132667D01*
X187214666Y-179132667D02*
X187214666Y-178432667D01*
X187148000Y-178532667D01*
X187081333Y-178599333D01*
X187014666Y-178632667D01*
X187848000Y-178432667D02*
X187914667Y-178432667D01*
X187981333Y-178466000D01*
X188014667Y-178499333D01*
X188048000Y-178566000D01*
X188081333Y-178699333D01*
X188081333Y-178866000D01*
X188048000Y-178999333D01*
X188014667Y-179066000D01*
X187981333Y-179099333D01*
X187914667Y-179132667D01*
X187848000Y-179132667D01*
X187781333Y-179099333D01*
X187748000Y-179066000D01*
X187714667Y-178999333D01*
X187681333Y-178866000D01*
X187681333Y-178699333D01*
X187714667Y-178566000D01*
X187748000Y-178499333D01*
X187781333Y-178466000D01*
X187848000Y-178432667D01*
X182491143Y-171299143D02*
X182443524Y-171346762D01*
X182300667Y-171394381D01*
X182205429Y-171394381D01*
X182062571Y-171346762D01*
X181967333Y-171251524D01*
X181919714Y-171156286D01*
X181872095Y-170965810D01*
X181872095Y-170822952D01*
X181919714Y-170632476D01*
X181967333Y-170537238D01*
X182062571Y-170442000D01*
X182205429Y-170394381D01*
X182300667Y-170394381D01*
X182443524Y-170442000D01*
X182491143Y-170489619D01*
X183443524Y-171394381D02*
X182872095Y-171394381D01*
X183157809Y-171394381D02*
X183157809Y-170394381D01*
X183062571Y-170537238D01*
X182967333Y-170632476D01*
X182872095Y-170680095D01*
X184395905Y-171394381D02*
X183824476Y-171394381D01*
X184110190Y-171394381D02*
X184110190Y-170394381D01*
X184014952Y-170537238D01*
X183919714Y-170632476D01*
X183824476Y-170680095D01*
X182999143Y-178411143D02*
X182951524Y-178458762D01*
X182808667Y-178506381D01*
X182713429Y-178506381D01*
X182570571Y-178458762D01*
X182475333Y-178363524D01*
X182427714Y-178268286D01*
X182380095Y-178077810D01*
X182380095Y-177934952D01*
X182427714Y-177744476D01*
X182475333Y-177649238D01*
X182570571Y-177554000D01*
X182713429Y-177506381D01*
X182808667Y-177506381D01*
X182951524Y-177554000D01*
X182999143Y-177601619D01*
X183951524Y-178506381D02*
X183380095Y-178506381D01*
X183665809Y-178506381D02*
X183665809Y-177506381D01*
X183570571Y-177649238D01*
X183475333Y-177744476D01*
X183380095Y-177792095D01*
X184332476Y-177601619D02*
X184380095Y-177554000D01*
X184475333Y-177506381D01*
X184713429Y-177506381D01*
X184808667Y-177554000D01*
X184856286Y-177601619D01*
X184903905Y-177696857D01*
X184903905Y-177792095D01*
X184856286Y-177934952D01*
X184284857Y-178506381D01*
X184903905Y-178506381D01*
X172585143Y-196953143D02*
X172537524Y-197000762D01*
X172394667Y-197048381D01*
X172299429Y-197048381D01*
X172156571Y-197000762D01*
X172061333Y-196905524D01*
X172013714Y-196810286D01*
X171966095Y-196619810D01*
X171966095Y-196476952D01*
X172013714Y-196286476D01*
X172061333Y-196191238D01*
X172156571Y-196096000D01*
X172299429Y-196048381D01*
X172394667Y-196048381D01*
X172537524Y-196096000D01*
X172585143Y-196143619D01*
X173537524Y-197048381D02*
X172966095Y-197048381D01*
X173251809Y-197048381D02*
X173251809Y-196048381D01*
X173156571Y-196191238D01*
X173061333Y-196286476D01*
X172966095Y-196334095D01*
X173870857Y-196048381D02*
X174489905Y-196048381D01*
X174156571Y-196429333D01*
X174299429Y-196429333D01*
X174394667Y-196476952D01*
X174442286Y-196524571D01*
X174489905Y-196619810D01*
X174489905Y-196857905D01*
X174442286Y-196953143D01*
X174394667Y-197000762D01*
X174299429Y-197048381D01*
X174013714Y-197048381D01*
X173918476Y-197000762D01*
X173870857Y-196953143D01*
X172585143Y-164187143D02*
X172537524Y-164234762D01*
X172394667Y-164282381D01*
X172299429Y-164282381D01*
X172156571Y-164234762D01*
X172061333Y-164139524D01*
X172013714Y-164044286D01*
X171966095Y-163853810D01*
X171966095Y-163710952D01*
X172013714Y-163520476D01*
X172061333Y-163425238D01*
X172156571Y-163330000D01*
X172299429Y-163282381D01*
X172394667Y-163282381D01*
X172537524Y-163330000D01*
X172585143Y-163377619D01*
X173537524Y-164282381D02*
X172966095Y-164282381D01*
X173251809Y-164282381D02*
X173251809Y-163282381D01*
X173156571Y-163425238D01*
X173061333Y-163520476D01*
X172966095Y-163568095D01*
X174394667Y-163615714D02*
X174394667Y-164282381D01*
X174156571Y-163234762D02*
X173918476Y-163949048D01*
X174537524Y-163949048D01*
X174871143Y-168505143D02*
X174823524Y-168552762D01*
X174680667Y-168600381D01*
X174585429Y-168600381D01*
X174442571Y-168552762D01*
X174347333Y-168457524D01*
X174299714Y-168362286D01*
X174252095Y-168171810D01*
X174252095Y-168028952D01*
X174299714Y-167838476D01*
X174347333Y-167743238D01*
X174442571Y-167648000D01*
X174585429Y-167600381D01*
X174680667Y-167600381D01*
X174823524Y-167648000D01*
X174871143Y-167695619D01*
X175823524Y-168600381D02*
X175252095Y-168600381D01*
X175537809Y-168600381D02*
X175537809Y-167600381D01*
X175442571Y-167743238D01*
X175347333Y-167838476D01*
X175252095Y-167886095D01*
X176728286Y-167600381D02*
X176252095Y-167600381D01*
X176204476Y-168076571D01*
X176252095Y-168028952D01*
X176347333Y-167981333D01*
X176585429Y-167981333D01*
X176680667Y-168028952D01*
X176728286Y-168076571D01*
X176775905Y-168171810D01*
X176775905Y-168409905D01*
X176728286Y-168505143D01*
X176680667Y-168552762D01*
X176585429Y-168600381D01*
X176347333Y-168600381D01*
X176252095Y-168552762D01*
X176204476Y-168505143D01*
X171061143Y-191365143D02*
X171013524Y-191412762D01*
X170870667Y-191460381D01*
X170775429Y-191460381D01*
X170632571Y-191412762D01*
X170537333Y-191317524D01*
X170489714Y-191222286D01*
X170442095Y-191031810D01*
X170442095Y-190888952D01*
X170489714Y-190698476D01*
X170537333Y-190603238D01*
X170632571Y-190508000D01*
X170775429Y-190460381D01*
X170870667Y-190460381D01*
X171013524Y-190508000D01*
X171061143Y-190555619D01*
X172013524Y-191460381D02*
X171442095Y-191460381D01*
X171727809Y-191460381D02*
X171727809Y-190460381D01*
X171632571Y-190603238D01*
X171537333Y-190698476D01*
X171442095Y-190746095D01*
X172870667Y-190460381D02*
X172680190Y-190460381D01*
X172584952Y-190508000D01*
X172537333Y-190555619D01*
X172442095Y-190698476D01*
X172394476Y-190888952D01*
X172394476Y-191269905D01*
X172442095Y-191365143D01*
X172489714Y-191412762D01*
X172584952Y-191460381D01*
X172775429Y-191460381D01*
X172870667Y-191412762D01*
X172918286Y-191365143D01*
X172965905Y-191269905D01*
X172965905Y-191031810D01*
X172918286Y-190936571D01*
X172870667Y-190888952D01*
X172775429Y-190841333D01*
X172584952Y-190841333D01*
X172489714Y-190888952D01*
X172442095Y-190936571D01*
X172394476Y-191031810D01*
D11*
X203247809Y-172100762D02*
X203247809Y-170100762D01*
X204009714Y-170100762D01*
X204200190Y-170196000D01*
X204295429Y-170291238D01*
X204390667Y-170481714D01*
X204390667Y-170767429D01*
X204295429Y-170957905D01*
X204200190Y-171053143D01*
X204009714Y-171148381D01*
X203247809Y-171148381D01*
X206295429Y-172100762D02*
X205152571Y-172100762D01*
X205724000Y-172100762D02*
X205724000Y-170100762D01*
X205533524Y-170386476D01*
X205343048Y-170576952D01*
X205152571Y-170672190D01*
D13*
X206041809Y-154574762D02*
X206041809Y-152574762D01*
X206803714Y-152574762D01*
X206994190Y-152670000D01*
X207089429Y-152765238D01*
X207184667Y-152955714D01*
X207184667Y-153241429D01*
X207089429Y-153431905D01*
X206994190Y-153527143D01*
X206803714Y-153622381D01*
X206041809Y-153622381D01*
X207946571Y-152765238D02*
X208041809Y-152670000D01*
X208232286Y-152574762D01*
X208708476Y-152574762D01*
X208898952Y-152670000D01*
X208994190Y-152765238D01*
X209089429Y-152955714D01*
X209089429Y-153146190D01*
X208994190Y-153431905D01*
X207851333Y-154574762D01*
X209089429Y-154574762D01*
X161337809Y-154320762D02*
X161337809Y-152320762D01*
X162099714Y-152320762D01*
X162290190Y-152416000D01*
X162385429Y-152511238D01*
X162480667Y-152701714D01*
X162480667Y-152987429D01*
X162385429Y-153177905D01*
X162290190Y-153273143D01*
X162099714Y-153368381D01*
X161337809Y-153368381D01*
X163147333Y-152320762D02*
X164385429Y-152320762D01*
X163718762Y-153082667D01*
X164004476Y-153082667D01*
X164194952Y-153177905D01*
X164290190Y-153273143D01*
X164385429Y-153463619D01*
X164385429Y-153939810D01*
X164290190Y-154130286D01*
X164194952Y-154225524D01*
X164004476Y-154320762D01*
X163433048Y-154320762D01*
X163242571Y-154225524D01*
X163147333Y-154130286D01*
X151685809Y-190642762D02*
X151685809Y-188642762D01*
X152447714Y-188642762D01*
X152638190Y-188738000D01*
X152733429Y-188833238D01*
X152828667Y-189023714D01*
X152828667Y-189309429D01*
X152733429Y-189499905D01*
X152638190Y-189595143D01*
X152447714Y-189690381D01*
X151685809Y-189690381D01*
X154542952Y-189309429D02*
X154542952Y-190642762D01*
X154066762Y-188547524D02*
X153590571Y-189976095D01*
X154828667Y-189976095D01*
D11*
X151685809Y-172100762D02*
X151685809Y-170100762D01*
X152447714Y-170100762D01*
X152638190Y-170196000D01*
X152733429Y-170291238D01*
X152828667Y-170481714D01*
X152828667Y-170767429D01*
X152733429Y-170957905D01*
X152638190Y-171053143D01*
X152447714Y-171148381D01*
X151685809Y-171148381D01*
X154638190Y-170100762D02*
X153685809Y-170100762D01*
X153590571Y-171053143D01*
X153685809Y-170957905D01*
X153876286Y-170862667D01*
X154352476Y-170862667D01*
X154542952Y-170957905D01*
X154638190Y-171053143D01*
X154733429Y-171243619D01*
X154733429Y-171719810D01*
X154638190Y-171910286D01*
X154542952Y-172005524D01*
X154352476Y-172100762D01*
X153876286Y-172100762D01*
X153685809Y-172005524D01*
X153590571Y-171910286D01*
D13*
X168560762Y-175045619D02*
X168465524Y-174998000D01*
X168370286Y-174902762D01*
X168227429Y-174759905D01*
X168132190Y-174712286D01*
X168036952Y-174712286D01*
X168084571Y-174950381D02*
X167989333Y-174902762D01*
X167894095Y-174807524D01*
X167846476Y-174617048D01*
X167846476Y-174283714D01*
X167894095Y-174093238D01*
X167989333Y-173998000D01*
X168084571Y-173950381D01*
X168275048Y-173950381D01*
X168370286Y-173998000D01*
X168465524Y-174093238D01*
X168513143Y-174283714D01*
X168513143Y-174617048D01*
X168465524Y-174807524D01*
X168370286Y-174902762D01*
X168275048Y-174950381D01*
X168084571Y-174950381D01*
X169417905Y-173950381D02*
X168941714Y-173950381D01*
X168894095Y-174426571D01*
X168941714Y-174378952D01*
X169036952Y-174331333D01*
X169275048Y-174331333D01*
X169370286Y-174378952D01*
X169417905Y-174426571D01*
X169465524Y-174521810D01*
X169465524Y-174759905D01*
X169417905Y-174855143D01*
X169370286Y-174902762D01*
X169275048Y-174950381D01*
X169036952Y-174950381D01*
X168941714Y-174902762D01*
X168894095Y-174855143D01*
X168560762Y-184951619D02*
X168465524Y-184904000D01*
X168370286Y-184808762D01*
X168227429Y-184665905D01*
X168132190Y-184618286D01*
X168036952Y-184618286D01*
X168084571Y-184856381D02*
X167989333Y-184808762D01*
X167894095Y-184713524D01*
X167846476Y-184523048D01*
X167846476Y-184189714D01*
X167894095Y-183999238D01*
X167989333Y-183904000D01*
X168084571Y-183856381D01*
X168275048Y-183856381D01*
X168370286Y-183904000D01*
X168465524Y-183999238D01*
X168513143Y-184189714D01*
X168513143Y-184523048D01*
X168465524Y-184713524D01*
X168370286Y-184808762D01*
X168275048Y-184856381D01*
X168084571Y-184856381D01*
X169370286Y-183856381D02*
X169179809Y-183856381D01*
X169084571Y-183904000D01*
X169036952Y-183951619D01*
X168941714Y-184094476D01*
X168894095Y-184284952D01*
X168894095Y-184665905D01*
X168941714Y-184761143D01*
X168989333Y-184808762D01*
X169084571Y-184856381D01*
X169275048Y-184856381D01*
X169370286Y-184808762D01*
X169417905Y-184761143D01*
X169465524Y-184665905D01*
X169465524Y-184427810D01*
X169417905Y-184332571D01*
X169370286Y-184284952D01*
X169275048Y-184237333D01*
X169084571Y-184237333D01*
X168989333Y-184284952D01*
X168941714Y-184332571D01*
X168894095Y-184427810D01*
X168560762Y-177585619D02*
X168465524Y-177538000D01*
X168370286Y-177442762D01*
X168227429Y-177299905D01*
X168132190Y-177252286D01*
X168036952Y-177252286D01*
X168084571Y-177490381D02*
X167989333Y-177442762D01*
X167894095Y-177347524D01*
X167846476Y-177157048D01*
X167846476Y-176823714D01*
X167894095Y-176633238D01*
X167989333Y-176538000D01*
X168084571Y-176490381D01*
X168275048Y-176490381D01*
X168370286Y-176538000D01*
X168465524Y-176633238D01*
X168513143Y-176823714D01*
X168513143Y-177157048D01*
X168465524Y-177347524D01*
X168370286Y-177442762D01*
X168275048Y-177490381D01*
X168084571Y-177490381D01*
X168846476Y-176490381D02*
X169513143Y-176490381D01*
X169084571Y-177490381D01*
X168560762Y-187237619D02*
X168465524Y-187190000D01*
X168370286Y-187094762D01*
X168227429Y-186951905D01*
X168132190Y-186904286D01*
X168036952Y-186904286D01*
X168084571Y-187142381D02*
X167989333Y-187094762D01*
X167894095Y-186999524D01*
X167846476Y-186809048D01*
X167846476Y-186475714D01*
X167894095Y-186285238D01*
X167989333Y-186190000D01*
X168084571Y-186142381D01*
X168275048Y-186142381D01*
X168370286Y-186190000D01*
X168465524Y-186285238D01*
X168513143Y-186475714D01*
X168513143Y-186809048D01*
X168465524Y-186999524D01*
X168370286Y-187094762D01*
X168275048Y-187142381D01*
X168084571Y-187142381D01*
X169084571Y-186570952D02*
X168989333Y-186523333D01*
X168941714Y-186475714D01*
X168894095Y-186380476D01*
X168894095Y-186332857D01*
X168941714Y-186237619D01*
X168989333Y-186190000D01*
X169084571Y-186142381D01*
X169275048Y-186142381D01*
X169370286Y-186190000D01*
X169417905Y-186237619D01*
X169465524Y-186332857D01*
X169465524Y-186380476D01*
X169417905Y-186475714D01*
X169370286Y-186523333D01*
X169275048Y-186570952D01*
X169084571Y-186570952D01*
X168989333Y-186618571D01*
X168941714Y-186666190D01*
X168894095Y-186761429D01*
X168894095Y-186951905D01*
X168941714Y-187047143D01*
X168989333Y-187094762D01*
X169084571Y-187142381D01*
X169275048Y-187142381D01*
X169370286Y-187094762D01*
X169417905Y-187047143D01*
X169465524Y-186951905D01*
X169465524Y-186761429D01*
X169417905Y-186666190D01*
X169370286Y-186618571D01*
X169275048Y-186570952D01*
X204557334Y-175712381D02*
X204224000Y-175236190D01*
X203985905Y-175712381D02*
X203985905Y-174712381D01*
X204366858Y-174712381D01*
X204462096Y-174760000D01*
X204509715Y-174807619D01*
X204557334Y-174902857D01*
X204557334Y-175045714D01*
X204509715Y-175140952D01*
X204462096Y-175188571D01*
X204366858Y-175236190D01*
X203985905Y-175236190D01*
X205509715Y-175712381D02*
X204938286Y-175712381D01*
X205224000Y-175712381D02*
X205224000Y-174712381D01*
X205128762Y-174855238D01*
X205033524Y-174950476D01*
X204938286Y-174998095D01*
X204557334Y-176982381D02*
X204224000Y-176506190D01*
X203985905Y-176982381D02*
X203985905Y-175982381D01*
X204366858Y-175982381D01*
X204462096Y-176030000D01*
X204509715Y-176077619D01*
X204557334Y-176172857D01*
X204557334Y-176315714D01*
X204509715Y-176410952D01*
X204462096Y-176458571D01*
X204366858Y-176506190D01*
X203985905Y-176506190D01*
X204938286Y-176077619D02*
X204985905Y-176030000D01*
X205081143Y-175982381D01*
X205319239Y-175982381D01*
X205414477Y-176030000D01*
X205462096Y-176077619D01*
X205509715Y-176172857D01*
X205509715Y-176268095D01*
X205462096Y-176410952D01*
X204890667Y-176982381D01*
X205509715Y-176982381D01*
X204557334Y-178252381D02*
X204224000Y-177776190D01*
X203985905Y-178252381D02*
X203985905Y-177252381D01*
X204366858Y-177252381D01*
X204462096Y-177300000D01*
X204509715Y-177347619D01*
X204557334Y-177442857D01*
X204557334Y-177585714D01*
X204509715Y-177680952D01*
X204462096Y-177728571D01*
X204366858Y-177776190D01*
X203985905Y-177776190D01*
X204890667Y-177252381D02*
X205509715Y-177252381D01*
X205176381Y-177633333D01*
X205319239Y-177633333D01*
X205414477Y-177680952D01*
X205462096Y-177728571D01*
X205509715Y-177823810D01*
X205509715Y-178061905D01*
X205462096Y-178157143D01*
X205414477Y-178204762D01*
X205319239Y-178252381D01*
X205033524Y-178252381D01*
X204938286Y-178204762D01*
X204890667Y-178157143D01*
X182001334Y-183958667D02*
X181768000Y-183625333D01*
X181601334Y-183958667D02*
X181601334Y-183258667D01*
X181868000Y-183258667D01*
X181934667Y-183292000D01*
X181968000Y-183325333D01*
X182001334Y-183392000D01*
X182001334Y-183492000D01*
X181968000Y-183558667D01*
X181934667Y-183592000D01*
X181868000Y-183625333D01*
X181601334Y-183625333D01*
X182601334Y-183492000D02*
X182601334Y-183958667D01*
X182434667Y-183225333D02*
X182268000Y-183725333D01*
X182701334Y-183725333D01*
X179461334Y-183958667D02*
X179228000Y-183625333D01*
X179061334Y-183958667D02*
X179061334Y-183258667D01*
X179328000Y-183258667D01*
X179394667Y-183292000D01*
X179428000Y-183325333D01*
X179461334Y-183392000D01*
X179461334Y-183492000D01*
X179428000Y-183558667D01*
X179394667Y-183592000D01*
X179328000Y-183625333D01*
X179061334Y-183625333D01*
X180094667Y-183258667D02*
X179761334Y-183258667D01*
X179728000Y-183592000D01*
X179761334Y-183558667D01*
X179828000Y-183525333D01*
X179994667Y-183525333D01*
X180061334Y-183558667D01*
X180094667Y-183592000D01*
X180128000Y-183658667D01*
X180128000Y-183825333D01*
X180094667Y-183892000D01*
X180061334Y-183925333D01*
X179994667Y-183958667D01*
X179828000Y-183958667D01*
X179761334Y-183925333D01*
X179728000Y-183892000D01*
X168235334Y-153808381D02*
X167902000Y-153332190D01*
X167663905Y-153808381D02*
X167663905Y-152808381D01*
X168044858Y-152808381D01*
X168140096Y-152856000D01*
X168187715Y-152903619D01*
X168235334Y-152998857D01*
X168235334Y-153141714D01*
X168187715Y-153236952D01*
X168140096Y-153284571D01*
X168044858Y-153332190D01*
X167663905Y-153332190D01*
X169092477Y-152808381D02*
X168902000Y-152808381D01*
X168806762Y-152856000D01*
X168759143Y-152903619D01*
X168663905Y-153046476D01*
X168616286Y-153236952D01*
X168616286Y-153617905D01*
X168663905Y-153713143D01*
X168711524Y-153760762D01*
X168806762Y-153808381D01*
X168997239Y-153808381D01*
X169092477Y-153760762D01*
X169140096Y-153713143D01*
X169187715Y-153617905D01*
X169187715Y-153379810D01*
X169140096Y-153284571D01*
X169092477Y-153236952D01*
X168997239Y-153189333D01*
X168806762Y-153189333D01*
X168711524Y-153236952D01*
X168663905Y-153284571D01*
X168616286Y-153379810D01*
X166711334Y-202382381D02*
X166378000Y-201906190D01*
X166139905Y-202382381D02*
X166139905Y-201382381D01*
X166520858Y-201382381D01*
X166616096Y-201430000D01*
X166663715Y-201477619D01*
X166711334Y-201572857D01*
X166711334Y-201715714D01*
X166663715Y-201810952D01*
X166616096Y-201858571D01*
X166520858Y-201906190D01*
X166139905Y-201906190D01*
X167044667Y-201382381D02*
X167711334Y-201382381D01*
X167282762Y-202382381D01*
X193381334Y-174188381D02*
X193048000Y-173712190D01*
X192809905Y-174188381D02*
X192809905Y-173188381D01*
X193190858Y-173188381D01*
X193286096Y-173236000D01*
X193333715Y-173283619D01*
X193381334Y-173378857D01*
X193381334Y-173521714D01*
X193333715Y-173616952D01*
X193286096Y-173664571D01*
X193190858Y-173712190D01*
X192809905Y-173712190D01*
X193952762Y-173616952D02*
X193857524Y-173569333D01*
X193809905Y-173521714D01*
X193762286Y-173426476D01*
X193762286Y-173378857D01*
X193809905Y-173283619D01*
X193857524Y-173236000D01*
X193952762Y-173188381D01*
X194143239Y-173188381D01*
X194238477Y-173236000D01*
X194286096Y-173283619D01*
X194333715Y-173378857D01*
X194333715Y-173426476D01*
X194286096Y-173521714D01*
X194238477Y-173569333D01*
X194143239Y-173616952D01*
X193952762Y-173616952D01*
X193857524Y-173664571D01*
X193809905Y-173712190D01*
X193762286Y-173807429D01*
X193762286Y-173997905D01*
X193809905Y-174093143D01*
X193857524Y-174140762D01*
X193952762Y-174188381D01*
X194143239Y-174188381D01*
X194238477Y-174140762D01*
X194286096Y-174093143D01*
X194333715Y-173997905D01*
X194333715Y-173807429D01*
X194286096Y-173712190D01*
X194238477Y-173664571D01*
X194143239Y-173616952D01*
X203827143Y-158440381D02*
X203493809Y-157964190D01*
X203255714Y-158440381D02*
X203255714Y-157440381D01*
X203636667Y-157440381D01*
X203731905Y-157488000D01*
X203779524Y-157535619D01*
X203827143Y-157630857D01*
X203827143Y-157773714D01*
X203779524Y-157868952D01*
X203731905Y-157916571D01*
X203636667Y-157964190D01*
X203255714Y-157964190D01*
X204779524Y-158440381D02*
X204208095Y-158440381D01*
X204493809Y-158440381D02*
X204493809Y-157440381D01*
X204398571Y-157583238D01*
X204303333Y-157678476D01*
X204208095Y-157726095D01*
X205398571Y-157440381D02*
X205493810Y-157440381D01*
X205589048Y-157488000D01*
X205636667Y-157535619D01*
X205684286Y-157630857D01*
X205731905Y-157821333D01*
X205731905Y-158059429D01*
X205684286Y-158249905D01*
X205636667Y-158345143D01*
X205589048Y-158392762D01*
X205493810Y-158440381D01*
X205398571Y-158440381D01*
X205303333Y-158392762D01*
X205255714Y-158345143D01*
X205208095Y-158249905D01*
X205160476Y-158059429D01*
X205160476Y-157821333D01*
X205208095Y-157630857D01*
X205255714Y-157535619D01*
X205303333Y-157488000D01*
X205398571Y-157440381D01*
X188079143Y-170632381D02*
X187745809Y-170156190D01*
X187507714Y-170632381D02*
X187507714Y-169632381D01*
X187888667Y-169632381D01*
X187983905Y-169680000D01*
X188031524Y-169727619D01*
X188079143Y-169822857D01*
X188079143Y-169965714D01*
X188031524Y-170060952D01*
X187983905Y-170108571D01*
X187888667Y-170156190D01*
X187507714Y-170156190D01*
X189031524Y-170632381D02*
X188460095Y-170632381D01*
X188745809Y-170632381D02*
X188745809Y-169632381D01*
X188650571Y-169775238D01*
X188555333Y-169870476D01*
X188460095Y-169918095D01*
X189983905Y-170632381D02*
X189412476Y-170632381D01*
X189698190Y-170632381D02*
X189698190Y-169632381D01*
X189602952Y-169775238D01*
X189507714Y-169870476D01*
X189412476Y-169918095D01*
X186047143Y-194000381D02*
X185713809Y-193524190D01*
X185475714Y-194000381D02*
X185475714Y-193000381D01*
X185856667Y-193000381D01*
X185951905Y-193048000D01*
X185999524Y-193095619D01*
X186047143Y-193190857D01*
X186047143Y-193333714D01*
X185999524Y-193428952D01*
X185951905Y-193476571D01*
X185856667Y-193524190D01*
X185475714Y-193524190D01*
X186999524Y-194000381D02*
X186428095Y-194000381D01*
X186713809Y-194000381D02*
X186713809Y-193000381D01*
X186618571Y-193143238D01*
X186523333Y-193238476D01*
X186428095Y-193286095D01*
X187380476Y-193095619D02*
X187428095Y-193048000D01*
X187523333Y-193000381D01*
X187761429Y-193000381D01*
X187856667Y-193048000D01*
X187904286Y-193095619D01*
X187951905Y-193190857D01*
X187951905Y-193286095D01*
X187904286Y-193428952D01*
X187332857Y-194000381D01*
X187951905Y-194000381D01*
X183700000Y-174560667D02*
X183466666Y-174227333D01*
X183300000Y-174560667D02*
X183300000Y-173860667D01*
X183566666Y-173860667D01*
X183633333Y-173894000D01*
X183666666Y-173927333D01*
X183700000Y-173994000D01*
X183700000Y-174094000D01*
X183666666Y-174160667D01*
X183633333Y-174194000D01*
X183566666Y-174227333D01*
X183300000Y-174227333D01*
X184366666Y-174560667D02*
X183966666Y-174560667D01*
X184166666Y-174560667D02*
X184166666Y-173860667D01*
X184100000Y-173960667D01*
X184033333Y-174027333D01*
X183966666Y-174060667D01*
X184600000Y-173860667D02*
X185033333Y-173860667D01*
X184800000Y-174127333D01*
X184900000Y-174127333D01*
X184966667Y-174160667D01*
X185000000Y-174194000D01*
X185033333Y-174260667D01*
X185033333Y-174427333D01*
X185000000Y-174494000D01*
X184966667Y-174527333D01*
X184900000Y-174560667D01*
X184700000Y-174560667D01*
X184633333Y-174527333D01*
X184600000Y-174494000D01*
X187764000Y-183958667D02*
X187530666Y-183625333D01*
X187364000Y-183958667D02*
X187364000Y-183258667D01*
X187630666Y-183258667D01*
X187697333Y-183292000D01*
X187730666Y-183325333D01*
X187764000Y-183392000D01*
X187764000Y-183492000D01*
X187730666Y-183558667D01*
X187697333Y-183592000D01*
X187630666Y-183625333D01*
X187364000Y-183625333D01*
X188430666Y-183958667D02*
X188030666Y-183958667D01*
X188230666Y-183958667D02*
X188230666Y-183258667D01*
X188164000Y-183358667D01*
X188097333Y-183425333D01*
X188030666Y-183458667D01*
X189064000Y-183258667D02*
X188730667Y-183258667D01*
X188697333Y-183592000D01*
X188730667Y-183558667D01*
X188797333Y-183525333D01*
X188964000Y-183525333D01*
X189030667Y-183558667D01*
X189064000Y-183592000D01*
X189097333Y-183658667D01*
X189097333Y-183825333D01*
X189064000Y-183892000D01*
X189030667Y-183925333D01*
X188964000Y-183958667D01*
X188797333Y-183958667D01*
X188730667Y-183925333D01*
X188697333Y-183892000D01*
X179189143Y-179014381D02*
X178855809Y-178538190D01*
X178617714Y-179014381D02*
X178617714Y-178014381D01*
X178998667Y-178014381D01*
X179093905Y-178062000D01*
X179141524Y-178109619D01*
X179189143Y-178204857D01*
X179189143Y-178347714D01*
X179141524Y-178442952D01*
X179093905Y-178490571D01*
X178998667Y-178538190D01*
X178617714Y-178538190D01*
X180141524Y-179014381D02*
X179570095Y-179014381D01*
X179855809Y-179014381D02*
X179855809Y-178014381D01*
X179760571Y-178157238D01*
X179665333Y-178252476D01*
X179570095Y-178300095D01*
X180617714Y-179014381D02*
X180808190Y-179014381D01*
X180903429Y-178966762D01*
X180951048Y-178919143D01*
X181046286Y-178776286D01*
X181093905Y-178585810D01*
X181093905Y-178204857D01*
X181046286Y-178109619D01*
X180998667Y-178062000D01*
X180903429Y-178014381D01*
X180712952Y-178014381D01*
X180617714Y-178062000D01*
X180570095Y-178109619D01*
X180522476Y-178204857D01*
X180522476Y-178442952D01*
X180570095Y-178538190D01*
X180617714Y-178585810D01*
X180712952Y-178633429D01*
X180903429Y-178633429D01*
X180998667Y-178585810D01*
X181046286Y-178538190D01*
X181093905Y-178442952D01*
X170045143Y-170632381D02*
X169711809Y-170156190D01*
X169473714Y-170632381D02*
X169473714Y-169632381D01*
X169854667Y-169632381D01*
X169949905Y-169680000D01*
X169997524Y-169727619D01*
X170045143Y-169822857D01*
X170045143Y-169965714D01*
X169997524Y-170060952D01*
X169949905Y-170108571D01*
X169854667Y-170156190D01*
X169473714Y-170156190D01*
X170426095Y-169727619D02*
X170473714Y-169680000D01*
X170568952Y-169632381D01*
X170807048Y-169632381D01*
X170902286Y-169680000D01*
X170949905Y-169727619D01*
X170997524Y-169822857D01*
X170997524Y-169918095D01*
X170949905Y-170060952D01*
X170378476Y-170632381D01*
X170997524Y-170632381D01*
X171616571Y-169632381D02*
X171711810Y-169632381D01*
X171807048Y-169680000D01*
X171854667Y-169727619D01*
X171902286Y-169822857D01*
X171949905Y-170013333D01*
X171949905Y-170251429D01*
X171902286Y-170441905D01*
X171854667Y-170537143D01*
X171807048Y-170584762D01*
X171711810Y-170632381D01*
X171616571Y-170632381D01*
X171521333Y-170584762D01*
X171473714Y-170537143D01*
X171426095Y-170441905D01*
X171378476Y-170251429D01*
X171378476Y-170013333D01*
X171426095Y-169822857D01*
X171473714Y-169727619D01*
X171521333Y-169680000D01*
X171616571Y-169632381D01*
X159377143Y-190444381D02*
X159043809Y-189968190D01*
X158805714Y-190444381D02*
X158805714Y-189444381D01*
X159186667Y-189444381D01*
X159281905Y-189492000D01*
X159329524Y-189539619D01*
X159377143Y-189634857D01*
X159377143Y-189777714D01*
X159329524Y-189872952D01*
X159281905Y-189920571D01*
X159186667Y-189968190D01*
X158805714Y-189968190D01*
X159758095Y-189539619D02*
X159805714Y-189492000D01*
X159900952Y-189444381D01*
X160139048Y-189444381D01*
X160234286Y-189492000D01*
X160281905Y-189539619D01*
X160329524Y-189634857D01*
X160329524Y-189730095D01*
X160281905Y-189872952D01*
X159710476Y-190444381D01*
X160329524Y-190444381D01*
X161281905Y-190444381D02*
X160710476Y-190444381D01*
X160996190Y-190444381D02*
X160996190Y-189444381D01*
X160900952Y-189587238D01*
X160805714Y-189682476D01*
X160710476Y-189730095D01*
X170045143Y-167584381D02*
X169711809Y-167108190D01*
X169473714Y-167584381D02*
X169473714Y-166584381D01*
X169854667Y-166584381D01*
X169949905Y-166632000D01*
X169997524Y-166679619D01*
X170045143Y-166774857D01*
X170045143Y-166917714D01*
X169997524Y-167012952D01*
X169949905Y-167060571D01*
X169854667Y-167108190D01*
X169473714Y-167108190D01*
X170426095Y-166679619D02*
X170473714Y-166632000D01*
X170568952Y-166584381D01*
X170807048Y-166584381D01*
X170902286Y-166632000D01*
X170949905Y-166679619D01*
X170997524Y-166774857D01*
X170997524Y-166870095D01*
X170949905Y-167012952D01*
X170378476Y-167584381D01*
X170997524Y-167584381D01*
X171378476Y-166679619D02*
X171426095Y-166632000D01*
X171521333Y-166584381D01*
X171759429Y-166584381D01*
X171854667Y-166632000D01*
X171902286Y-166679619D01*
X171949905Y-166774857D01*
X171949905Y-166870095D01*
X171902286Y-167012952D01*
X171330857Y-167584381D01*
X171949905Y-167584381D01*
X170045143Y-194000381D02*
X169711809Y-193524190D01*
X169473714Y-194000381D02*
X169473714Y-193000381D01*
X169854667Y-193000381D01*
X169949905Y-193048000D01*
X169997524Y-193095619D01*
X170045143Y-193190857D01*
X170045143Y-193333714D01*
X169997524Y-193428952D01*
X169949905Y-193476571D01*
X169854667Y-193524190D01*
X169473714Y-193524190D01*
X170426095Y-193095619D02*
X170473714Y-193048000D01*
X170568952Y-193000381D01*
X170807048Y-193000381D01*
X170902286Y-193048000D01*
X170949905Y-193095619D01*
X170997524Y-193190857D01*
X170997524Y-193286095D01*
X170949905Y-193428952D01*
X170378476Y-194000381D01*
X170997524Y-194000381D01*
X171330857Y-193000381D02*
X171949905Y-193000381D01*
X171616571Y-193381333D01*
X171759429Y-193381333D01*
X171854667Y-193428952D01*
X171902286Y-193476571D01*
X171949905Y-193571810D01*
X171949905Y-193809905D01*
X171902286Y-193905143D01*
X171854667Y-193952762D01*
X171759429Y-194000381D01*
X171473714Y-194000381D01*
X171378476Y-193952762D01*
X171330857Y-193905143D01*
X170045143Y-160726381D02*
X169711809Y-160250190D01*
X169473714Y-160726381D02*
X169473714Y-159726381D01*
X169854667Y-159726381D01*
X169949905Y-159774000D01*
X169997524Y-159821619D01*
X170045143Y-159916857D01*
X170045143Y-160059714D01*
X169997524Y-160154952D01*
X169949905Y-160202571D01*
X169854667Y-160250190D01*
X169473714Y-160250190D01*
X170426095Y-159821619D02*
X170473714Y-159774000D01*
X170568952Y-159726381D01*
X170807048Y-159726381D01*
X170902286Y-159774000D01*
X170949905Y-159821619D01*
X170997524Y-159916857D01*
X170997524Y-160012095D01*
X170949905Y-160154952D01*
X170378476Y-160726381D01*
X170997524Y-160726381D01*
X171854667Y-159726381D02*
X171664190Y-159726381D01*
X171568952Y-159774000D01*
X171521333Y-159821619D01*
X171426095Y-159964476D01*
X171378476Y-160154952D01*
X171378476Y-160535905D01*
X171426095Y-160631143D01*
X171473714Y-160678762D01*
X171568952Y-160726381D01*
X171759429Y-160726381D01*
X171854667Y-160678762D01*
X171902286Y-160631143D01*
X171949905Y-160535905D01*
X171949905Y-160297810D01*
X171902286Y-160202571D01*
X171854667Y-160154952D01*
X171759429Y-160107333D01*
X171568952Y-160107333D01*
X171473714Y-160154952D01*
X171426095Y-160202571D01*
X171378476Y-160297810D01*
X170045143Y-200604381D02*
X169711809Y-200128190D01*
X169473714Y-200604381D02*
X169473714Y-199604381D01*
X169854667Y-199604381D01*
X169949905Y-199652000D01*
X169997524Y-199699619D01*
X170045143Y-199794857D01*
X170045143Y-199937714D01*
X169997524Y-200032952D01*
X169949905Y-200080571D01*
X169854667Y-200128190D01*
X169473714Y-200128190D01*
X170426095Y-199699619D02*
X170473714Y-199652000D01*
X170568952Y-199604381D01*
X170807048Y-199604381D01*
X170902286Y-199652000D01*
X170949905Y-199699619D01*
X170997524Y-199794857D01*
X170997524Y-199890095D01*
X170949905Y-200032952D01*
X170378476Y-200604381D01*
X170997524Y-200604381D01*
X171330857Y-199604381D02*
X171997524Y-199604381D01*
X171568952Y-200604381D01*
X188841143Y-154062381D02*
X188507809Y-153586190D01*
X188269714Y-154062381D02*
X188269714Y-153062381D01*
X188650667Y-153062381D01*
X188745905Y-153110000D01*
X188793524Y-153157619D01*
X188841143Y-153252857D01*
X188841143Y-153395714D01*
X188793524Y-153490952D01*
X188745905Y-153538571D01*
X188650667Y-153586190D01*
X188269714Y-153586190D01*
X189222095Y-153157619D02*
X189269714Y-153110000D01*
X189364952Y-153062381D01*
X189603048Y-153062381D01*
X189698286Y-153110000D01*
X189745905Y-153157619D01*
X189793524Y-153252857D01*
X189793524Y-153348095D01*
X189745905Y-153490952D01*
X189174476Y-154062381D01*
X189793524Y-154062381D01*
X190364952Y-153490952D02*
X190269714Y-153443333D01*
X190222095Y-153395714D01*
X190174476Y-153300476D01*
X190174476Y-153252857D01*
X190222095Y-153157619D01*
X190269714Y-153110000D01*
X190364952Y-153062381D01*
X190555429Y-153062381D01*
X190650667Y-153110000D01*
X190698286Y-153157619D01*
X190745905Y-153252857D01*
X190745905Y-153300476D01*
X190698286Y-153395714D01*
X190650667Y-153443333D01*
X190555429Y-153490952D01*
X190364952Y-153490952D01*
X190269714Y-153538571D01*
X190222095Y-153586190D01*
X190174476Y-153681429D01*
X190174476Y-153871905D01*
X190222095Y-153967143D01*
X190269714Y-154014762D01*
X190364952Y-154062381D01*
X190555429Y-154062381D01*
X190650667Y-154014762D01*
X190698286Y-153967143D01*
X190745905Y-153871905D01*
X190745905Y-153681429D01*
X190698286Y-153586190D01*
X190650667Y-153538571D01*
X190555429Y-153490952D01*
X189095143Y-202322381D02*
X188761809Y-201846190D01*
X188523714Y-202322381D02*
X188523714Y-201322381D01*
X188904667Y-201322381D01*
X188999905Y-201370000D01*
X189047524Y-201417619D01*
X189095143Y-201512857D01*
X189095143Y-201655714D01*
X189047524Y-201750952D01*
X188999905Y-201798571D01*
X188904667Y-201846190D01*
X188523714Y-201846190D01*
X189476095Y-201417619D02*
X189523714Y-201370000D01*
X189618952Y-201322381D01*
X189857048Y-201322381D01*
X189952286Y-201370000D01*
X189999905Y-201417619D01*
X190047524Y-201512857D01*
X190047524Y-201608095D01*
X189999905Y-201750952D01*
X189428476Y-202322381D01*
X190047524Y-202322381D01*
X190523714Y-202322381D02*
X190714190Y-202322381D01*
X190809429Y-202274762D01*
X190857048Y-202227143D01*
X190952286Y-202084286D01*
X190999905Y-201893810D01*
X190999905Y-201512857D01*
X190952286Y-201417619D01*
X190904667Y-201370000D01*
X190809429Y-201322381D01*
X190618952Y-201322381D01*
X190523714Y-201370000D01*
X190476095Y-201417619D01*
X190428476Y-201512857D01*
X190428476Y-201750952D01*
X190476095Y-201846190D01*
X190523714Y-201893810D01*
X190618952Y-201941429D01*
X190809429Y-201941429D01*
X190904667Y-201893810D01*
X190952286Y-201846190D01*
X190999905Y-201750952D01*
X195072095Y-174966381D02*
X195072095Y-175775905D01*
X195119714Y-175871143D01*
X195167333Y-175918762D01*
X195262571Y-175966381D01*
X195453048Y-175966381D01*
X195548286Y-175918762D01*
X195595905Y-175871143D01*
X195643524Y-175775905D01*
X195643524Y-174966381D01*
X196643524Y-175966381D02*
X196072095Y-175966381D01*
X196357809Y-175966381D02*
X196357809Y-174966381D01*
X196262571Y-175109238D01*
X196167333Y-175204476D01*
X196072095Y-175252095D01*
X169984000Y-181164667D02*
X169750666Y-180831333D01*
X169584000Y-181164667D02*
X169584000Y-180464667D01*
X169850666Y-180464667D01*
X169917333Y-180498000D01*
X169950666Y-180531333D01*
X169984000Y-180598000D01*
X169984000Y-180698000D01*
X169950666Y-180764667D01*
X169917333Y-180798000D01*
X169850666Y-180831333D01*
X169584000Y-180831333D01*
X170250666Y-180531333D02*
X170284000Y-180498000D01*
X170350666Y-180464667D01*
X170517333Y-180464667D01*
X170584000Y-180498000D01*
X170617333Y-180531333D01*
X170650666Y-180598000D01*
X170650666Y-180664667D01*
X170617333Y-180764667D01*
X170217333Y-181164667D01*
X170650666Y-181164667D01*
X171250667Y-180698000D02*
X171250667Y-181164667D01*
X171084000Y-180431333D02*
X170917333Y-180931333D01*
X171350667Y-180931333D01*
X172524000Y-181164667D02*
X172290666Y-180831333D01*
X172124000Y-181164667D02*
X172124000Y-180464667D01*
X172390666Y-180464667D01*
X172457333Y-180498000D01*
X172490666Y-180531333D01*
X172524000Y-180598000D01*
X172524000Y-180698000D01*
X172490666Y-180764667D01*
X172457333Y-180798000D01*
X172390666Y-180831333D01*
X172124000Y-180831333D01*
X172790666Y-180531333D02*
X172824000Y-180498000D01*
X172890666Y-180464667D01*
X173057333Y-180464667D01*
X173124000Y-180498000D01*
X173157333Y-180531333D01*
X173190666Y-180598000D01*
X173190666Y-180664667D01*
X173157333Y-180764667D01*
X172757333Y-181164667D01*
X173190666Y-181164667D01*
X173824000Y-180464667D02*
X173490667Y-180464667D01*
X173457333Y-180798000D01*
X173490667Y-180764667D01*
X173557333Y-180731333D01*
X173724000Y-180731333D01*
X173790667Y-180764667D01*
X173824000Y-180798000D01*
X173857333Y-180864667D01*
X173857333Y-181031333D01*
X173824000Y-181098000D01*
X173790667Y-181131333D01*
X173724000Y-181164667D01*
X173557333Y-181164667D01*
X173490667Y-181131333D01*
X173457333Y-181098000D01*
X187131333Y-174373333D02*
X187064667Y-174340000D01*
X186998000Y-174273333D01*
X186898000Y-174173333D01*
X186831333Y-174140000D01*
X186764667Y-174140000D01*
X186798000Y-174306667D02*
X186731333Y-174273333D01*
X186664667Y-174206667D01*
X186631333Y-174073333D01*
X186631333Y-173840000D01*
X186664667Y-173706667D01*
X186731333Y-173640000D01*
X186798000Y-173606667D01*
X186931333Y-173606667D01*
X186998000Y-173640000D01*
X187064667Y-173706667D01*
X187098000Y-173840000D01*
X187098000Y-174073333D01*
X187064667Y-174206667D01*
X186998000Y-174273333D01*
X186931333Y-174306667D01*
X186798000Y-174306667D01*
X187764666Y-174306667D02*
X187364666Y-174306667D01*
X187564666Y-174306667D02*
X187564666Y-173606667D01*
X187498000Y-173706667D01*
X187431333Y-173773333D01*
X187364666Y-173806667D01*
X191449333Y-179707333D02*
X191382667Y-179674000D01*
X191316000Y-179607333D01*
X191216000Y-179507333D01*
X191149333Y-179474000D01*
X191082667Y-179474000D01*
X191116000Y-179640667D02*
X191049333Y-179607333D01*
X190982667Y-179540667D01*
X190949333Y-179407333D01*
X190949333Y-179174000D01*
X190982667Y-179040667D01*
X191049333Y-178974000D01*
X191116000Y-178940667D01*
X191249333Y-178940667D01*
X191316000Y-178974000D01*
X191382667Y-179040667D01*
X191416000Y-179174000D01*
X191416000Y-179407333D01*
X191382667Y-179540667D01*
X191316000Y-179607333D01*
X191249333Y-179640667D01*
X191116000Y-179640667D01*
X191682666Y-179007333D02*
X191716000Y-178974000D01*
X191782666Y-178940667D01*
X191949333Y-178940667D01*
X192016000Y-178974000D01*
X192049333Y-179007333D01*
X192082666Y-179074000D01*
X192082666Y-179140667D01*
X192049333Y-179240667D01*
X191649333Y-179640667D01*
X192082666Y-179640667D01*
X180244762Y-173521619D02*
X180149524Y-173474000D01*
X180054286Y-173378762D01*
X179911429Y-173235905D01*
X179816190Y-173188286D01*
X179720952Y-173188286D01*
X179768571Y-173426381D02*
X179673333Y-173378762D01*
X179578095Y-173283524D01*
X179530476Y-173093048D01*
X179530476Y-172759714D01*
X179578095Y-172569238D01*
X179673333Y-172474000D01*
X179768571Y-172426381D01*
X179959048Y-172426381D01*
X180054286Y-172474000D01*
X180149524Y-172569238D01*
X180197143Y-172759714D01*
X180197143Y-173093048D01*
X180149524Y-173283524D01*
X180054286Y-173378762D01*
X179959048Y-173426381D01*
X179768571Y-173426381D01*
X180530476Y-172426381D02*
X181149524Y-172426381D01*
X180816190Y-172807333D01*
X180959048Y-172807333D01*
X181054286Y-172854952D01*
X181101905Y-172902571D01*
X181149524Y-172997810D01*
X181149524Y-173235905D01*
X181101905Y-173331143D01*
X181054286Y-173378762D01*
X180959048Y-173426381D01*
X180673333Y-173426381D01*
X180578095Y-173378762D01*
X180530476Y-173331143D01*
X178974762Y-182665619D02*
X178879524Y-182618000D01*
X178784286Y-182522762D01*
X178641429Y-182379905D01*
X178546190Y-182332286D01*
X178450952Y-182332286D01*
X178498571Y-182570381D02*
X178403333Y-182522762D01*
X178308095Y-182427524D01*
X178260476Y-182237048D01*
X178260476Y-181903714D01*
X178308095Y-181713238D01*
X178403333Y-181618000D01*
X178498571Y-181570381D01*
X178689048Y-181570381D01*
X178784286Y-181618000D01*
X178879524Y-181713238D01*
X178927143Y-181903714D01*
X178927143Y-182237048D01*
X178879524Y-182427524D01*
X178784286Y-182522762D01*
X178689048Y-182570381D01*
X178498571Y-182570381D01*
X179784286Y-181903714D02*
X179784286Y-182570381D01*
X179546190Y-181522762D02*
X179308095Y-182237048D01*
X179927143Y-182237048D01*
X164203143Y-159361143D02*
X164155524Y-159408762D01*
X164012667Y-159456381D01*
X163917429Y-159456381D01*
X163774571Y-159408762D01*
X163679333Y-159313524D01*
X163631714Y-159218286D01*
X163584095Y-159027810D01*
X163584095Y-158884952D01*
X163631714Y-158694476D01*
X163679333Y-158599238D01*
X163774571Y-158504000D01*
X163917429Y-158456381D01*
X164012667Y-158456381D01*
X164155524Y-158504000D01*
X164203143Y-158551619D01*
X165155524Y-159456381D02*
X164584095Y-159456381D01*
X164869809Y-159456381D02*
X164869809Y-158456381D01*
X164774571Y-158599238D01*
X164679333Y-158694476D01*
X164584095Y-158742095D01*
X165488857Y-158456381D02*
X166155524Y-158456381D01*
X165726952Y-159456381D01*
X162171143Y-207113143D02*
X162123524Y-207160762D01*
X161980667Y-207208381D01*
X161885429Y-207208381D01*
X161742571Y-207160762D01*
X161647333Y-207065524D01*
X161599714Y-206970286D01*
X161552095Y-206779810D01*
X161552095Y-206636952D01*
X161599714Y-206446476D01*
X161647333Y-206351238D01*
X161742571Y-206256000D01*
X161885429Y-206208381D01*
X161980667Y-206208381D01*
X162123524Y-206256000D01*
X162171143Y-206303619D01*
X163123524Y-207208381D02*
X162552095Y-207208381D01*
X162837809Y-207208381D02*
X162837809Y-206208381D01*
X162742571Y-206351238D01*
X162647333Y-206446476D01*
X162552095Y-206494095D01*
X163694952Y-206636952D02*
X163599714Y-206589333D01*
X163552095Y-206541714D01*
X163504476Y-206446476D01*
X163504476Y-206398857D01*
X163552095Y-206303619D01*
X163599714Y-206256000D01*
X163694952Y-206208381D01*
X163885429Y-206208381D01*
X163980667Y-206256000D01*
X164028286Y-206303619D01*
X164075905Y-206398857D01*
X164075905Y-206446476D01*
X164028286Y-206541714D01*
X163980667Y-206589333D01*
X163885429Y-206636952D01*
X163694952Y-206636952D01*
X163599714Y-206684571D01*
X163552095Y-206732190D01*
X163504476Y-206827429D01*
X163504476Y-207017905D01*
X163552095Y-207113143D01*
X163599714Y-207160762D01*
X163694952Y-207208381D01*
X163885429Y-207208381D01*
X163980667Y-207160762D01*
X164028286Y-207113143D01*
X164075905Y-207017905D01*
X164075905Y-206827429D01*
X164028286Y-206732190D01*
X163980667Y-206684571D01*
X163885429Y-206636952D01*
X189857143Y-165988381D02*
X189523809Y-165512190D01*
X189285714Y-165988381D02*
X189285714Y-164988381D01*
X189666667Y-164988381D01*
X189761905Y-165036000D01*
X189809524Y-165083619D01*
X189857143Y-165178857D01*
X189857143Y-165321714D01*
X189809524Y-165416952D01*
X189761905Y-165464571D01*
X189666667Y-165512190D01*
X189285714Y-165512190D01*
X190190476Y-164988381D02*
X190809524Y-164988381D01*
X190476190Y-165369333D01*
X190619048Y-165369333D01*
X190714286Y-165416952D01*
X190761905Y-165464571D01*
X190809524Y-165559810D01*
X190809524Y-165797905D01*
X190761905Y-165893143D01*
X190714286Y-165940762D01*
X190619048Y-165988381D01*
X190333333Y-165988381D01*
X190238095Y-165940762D01*
X190190476Y-165893143D01*
X191428571Y-164988381D02*
X191523810Y-164988381D01*
X191619048Y-165036000D01*
X191666667Y-165083619D01*
X191714286Y-165178857D01*
X191761905Y-165369333D01*
X191761905Y-165607429D01*
X191714286Y-165797905D01*
X191666667Y-165893143D01*
X191619048Y-165940762D01*
X191523810Y-165988381D01*
X191428571Y-165988381D01*
X191333333Y-165940762D01*
X191285714Y-165893143D01*
X191238095Y-165797905D01*
X191190476Y-165607429D01*
X191190476Y-165369333D01*
X191238095Y-165178857D01*
X191285714Y-165083619D01*
X191333333Y-165036000D01*
X191428571Y-164988381D01*
X184022381Y-200286857D02*
X183546190Y-200620191D01*
X184022381Y-200858286D02*
X183022381Y-200858286D01*
X183022381Y-200477333D01*
X183070000Y-200382095D01*
X183117619Y-200334476D01*
X183212857Y-200286857D01*
X183355714Y-200286857D01*
X183450952Y-200334476D01*
X183498571Y-200382095D01*
X183546190Y-200477333D01*
X183546190Y-200858286D01*
X183022381Y-199953524D02*
X183022381Y-199334476D01*
X183403333Y-199667810D01*
X183403333Y-199524952D01*
X183450952Y-199429714D01*
X183498571Y-199382095D01*
X183593810Y-199334476D01*
X183831905Y-199334476D01*
X183927143Y-199382095D01*
X183974762Y-199429714D01*
X184022381Y-199524952D01*
X184022381Y-199810667D01*
X183974762Y-199905905D01*
X183927143Y-199953524D01*
X184022381Y-198382095D02*
X184022381Y-198953524D01*
X184022381Y-198667810D02*
X183022381Y-198667810D01*
X183165238Y-198763048D01*
X183260476Y-198858286D01*
X183308095Y-198953524D01*
M02*
