M48
;DRILL file {KiCad 4.0.2-stable} date 10/6/2017 5:38:19 PM
;FORMAT={-:-/ absolute / inch / decimal}
FMAT,2
INCH,TZ
T1C0.016
T2C0.031
T3C0.035
T4C0.039
T5C0.063
T6C0.087
T7C0.138
%
G90
G05
M72
T1
X6.38Y-7.1
X6.39Y-6.07
X6.42Y-8.12
X6.51Y-6.46
X6.51Y-6.955
X6.51Y-7.84
X6.75Y-7.95
X6.81Y-6.12
X7.01Y-6.7
X7.02Y-7.52
X7.06Y-7.64
X7.11Y-6.58
X7.22Y-7.04
X7.26Y-6.2
X7.26Y-6.73
X7.27Y-7.26
X7.28Y-8.01
X7.3Y-7.63
X7.306Y-6.652
X7.34Y-6.9
X7.34Y-7.06
X7.34Y-7.13
X7.39Y-7.05
X7.41Y-7.64
X7.46Y-7.3
X7.51Y-6.85
X7.52Y-7.07
X7.55Y-7.65
X7.57Y-7.36
X7.63Y-6.15
X7.64Y-8.05
X7.79Y-7.65
X7.8Y-7.14
X7.83Y-6.83
X7.84Y-6.91
X8.04Y-7.29
X8.13Y-7.2
T2
X7.63Y-7.
X7.63Y-7.1
X7.63Y-7.2
X7.63Y-7.3
X7.93Y-7.
X7.93Y-7.1
X7.93Y-7.2
X7.93Y-7.3
T3
X6.5374Y-7.1
X6.5374Y-7.2
X8.2126Y-7.
X8.2126Y-7.1
T4
X6.75Y-6.85
X6.75Y-7.
X6.75Y-7.2
X6.75Y-7.4
X6.85Y-6.85
X6.85Y-7.
X6.85Y-7.2
X6.85Y-7.4
X6.95Y-6.85
X6.95Y-7.
X6.95Y-7.2
X6.95Y-7.4
T5
X6.Y-6.15
X6.Y-6.35
X6.Y-6.55
X6.Y-7.65
X6.Y-7.85
X6.Y-8.05
X6.2Y-6.15
X6.2Y-6.35
X6.2Y-6.55
X6.2Y-7.65
X6.2Y-7.85
X6.2Y-8.05
X8.25Y-6.2
X8.25Y-6.4
X8.25Y-6.6
X8.45Y-6.2
X8.45Y-6.4
X8.45Y-6.6
T6
X6.3374Y-6.9
X6.3374Y-7.3
X8.4126Y-6.9
X8.4126Y-7.3
T7
X7.Y-6.15
X7.Y-8.05
X7.9Y-6.15
X7.9Y-8.05
X8.25Y-7.65
T0
M30
