  0
SECTION
  2
HEADER
  9
$ANGBASE
  50
0.0
  9
$ANGDIR
  70
  1
  9
$MEASUREMENT
  70
0
  0
ENDSEC
  0
SECTION
  2
TABLES
  0
TABLE
  2
LTYPE
  70
1
  0
LTYPE
  2
CONTINUOUS
  70
0
  3
Solid line
  72
65
  73
0
  40
0.0
  0
ENDTAB
  0
TABLE
  2
STYLE
  70
4
  0
STYLE
  2
KICAD
  70
0
  40
0
  41
1
  42
1
  50
0
  71
0
  3
isocp.shx
  0
STYLE
  2
KICADB
  70
0
  40
0
  41
1
  42
1
  50
0
  71
0
  3
isocp.shx
  0
STYLE
  2
KICADI
  70
0
  40
0
  41
1
  42
1
  50
15
  71
0
  3
isocp.shx
  0
STYLE
  2
KICADBI
  70
0
  40
0
  41
1
  42
1
  50
15
  71
0
  3
isocp.shx
  0
ENDTAB
  0
TABLE
  2
LAYER
  70
30
  0
LAYER
  2
BLACK
  70
0
  62
7
  6
CONTINUOUS
  0
LAYER
  2
GRAY1
  70
0
  62
251
  6
CONTINUOUS
  0
LAYER
  2
GRAY2
  70
0
  62
8
  6
CONTINUOUS
  0
LAYER
  2
GRAY3
  70
0
  62
9
  6
CONTINUOUS
  0
LAYER
  2
WHITE
  70
0
  62
7
  6
CONTINUOUS
  0
LAYER
  2
LYELLOW
  70
0
  62
51
  6
CONTINUOUS
  0
LAYER
  2
BLUE1
  70
0
  62
178
  6
CONTINUOUS
  0
LAYER
  2
GREEN1
  70
0
  62
98
  6
CONTINUOUS
  0
LAYER
  2
CYAN1
  70
0
  62
138
  6
CONTINUOUS
  0
LAYER
  2
RED1
  70
0
  62
18
  6
CONTINUOUS
  0
LAYER
  2
MAGENTA1
  70
0
  62
228
  6
CONTINUOUS
  0
LAYER
  2
BROWN1
  70
0
  62
58
  6
CONTINUOUS
  0
LAYER
  2
BLUE2
  70
0
  62
5
  6
CONTINUOUS
  0
LAYER
  2
GREEN2
  70
0
  62
3
  6
CONTINUOUS
  0
LAYER
  2
CYAN2
  70
0
  62
4
  6
CONTINUOUS
  0
LAYER
  2
RED2
  70
0
  62
1
  6
CONTINUOUS
  0
LAYER
  2
MAGENTA2
  70
0
  62
6
  6
CONTINUOUS
  0
LAYER
  2
BROWN2
  70
0
  62
54
  6
CONTINUOUS
  0
LAYER
  2
BLUE3
  70
0
  62
171
  6
CONTINUOUS
  0
LAYER
  2
GREEN3
  70
0
  62
91
  6
CONTINUOUS
  0
LAYER
  2
CYAN3
  70
0
  62
131
  6
CONTINUOUS
  0
LAYER
  2
RED3
  70
0
  62
11
  6
CONTINUOUS
  0
LAYER
  2
MAGENTA3
  70
0
  62
221
  6
CONTINUOUS
  0
LAYER
  2
YELLOW3
  70
0
  62
2
  6
CONTINUOUS
  0
LAYER
  2
BLUE4
  70
0
  62
5
  6
CONTINUOUS
  0
LAYER
  2
GREEN4
  70
0
  62
3
  6
CONTINUOUS
  0
LAYER
  2
CYAN4
  70
0
  62
4
  6
CONTINUOUS
  0
LAYER
  2
RED4
  70
0
  62
1
  6
CONTINUOUS
  0
LAYER
  2
MAGENTA4
  70
0
  62
6
  6
CONTINUOUS
  0
LAYER
  2
YELLOW4
  70
0
  62
2
  6
CONTINUOUS
  0
ENDTAB
  0
ENDSEC
  0
SECTION
  2
ENTITIES
0
LINE
8
Black
10
161.852
20
-180.14
11
162.252
21
-180.54
0
LINE
8
Black
10
162.252
20
-180.14
11
161.852
21
-180.54
0
LINE
8
Black
10
162.106
20
-153.978
11
162.506
21
-154.378
0
LINE
8
Black
10
162.506
20
-153.978
11
162.106
21
-154.378
0
LINE
8
Black
10
162.868
20
-206.048
11
163.268
21
-206.448
0
LINE
8
Black
10
163.268
20
-206.048
11
162.868
21
-206.448
0
LINE
8
Black
10
165.154
20
-163.884
11
165.554
21
-164.284
0
LINE
8
Black
10
165.554
20
-163.884
11
165.154
21
-164.284
0
LINE
8
Black
10
165.154
20
-176.457
11
165.554
21
-176.857
0
LINE
8
Black
10
165.554
20
-176.457
11
165.154
21
-176.857
0
LINE
8
Black
10
165.154
20
-198.936
11
165.554
21
-199.336
0
LINE
8
Black
10
165.554
20
-198.936
11
165.154
21
-199.336
0
LINE
8
Black
10
171.25
20
-201.73
11
171.65
21
-202.13
0
LINE
8
Black
10
171.65
20
-201.73
11
171.25
21
-202.13
0
LINE
8
Black
10
172.774
20
-155.248
11
173.174
21
-155.648
0
LINE
8
Black
10
173.174
20
-155.248
11
172.774
21
-155.648
0
LINE
8
Black
10
177.854
20
-169.98
11
178.254
21
-170.38
0
LINE
8
Black
10
178.254
20
-169.98
11
177.854
21
-170.38
0
LINE
8
Black
10
178.108
20
-190.808
11
178.508
21
-191.208
0
LINE
8
Black
10
178.508
20
-190.808
11
178.108
21
-191.208
0
LINE
8
Black
10
179.124
20
-193.856
11
179.524
21
-194.256
0
LINE
8
Black
10
179.524
20
-193.856
11
179.124
21
-194.256
0
LINE
8
Black
10
180.394
20
-166.932
11
180.794
21
-167.332
0
LINE
8
Black
10
180.794
20
-166.932
11
180.394
21
-167.332
0
LINE
8
Black
10
183.188
20
-178.616
11
183.588
21
-179.016
0
LINE
8
Black
10
183.588
20
-178.616
11
183.188
21
-179.016
0
LINE
8
Black
10
184.204
20
-157.28
11
184.604
21
-157.68
0
LINE
8
Black
10
184.604
20
-157.28
11
184.204
21
-157.68
0
LINE
8
Black
10
184.204
20
-170.742
11
184.604
21
-171.142
0
LINE
8
Black
10
184.604
20
-170.742
11
184.204
21
-171.142
0
LINE
8
Black
10
184.458
20
-184.204
11
184.858
21
-184.604
0
LINE
8
Black
10
184.858
20
-184.204
11
184.458
21
-184.604
0
LINE
8
Black
10
184.712
20
-203.254
11
185.112
21
-203.654
0
LINE
8
Black
10
185.112
20
-203.254
11
184.712
21
-203.654
0
LINE
8
Black
10
185.22
20
-193.602
11
185.62
21
-194.002
0
LINE
8
Black
10
185.62
20
-193.602
11
185.22
21
-194.002
0
LINE
8
Black
10
185.372
20
-168.761
11
185.772
21
-169.161
0
LINE
8
Black
10
185.772
20
-168.761
11
185.372
21
-169.161
0
LINE
8
Black
10
186.236
20
-175.06
11
186.636
21
-175.46
0
LINE
8
Black
10
186.636
20
-175.06
11
186.236
21
-175.46
0
LINE
8
Black
10
186.236
20
-179.124
11
186.636
21
-179.524
0
LINE
8
Black
10
186.636
20
-179.124
11
186.236
21
-179.524
0
LINE
8
Black
10
186.236
20
-180.902
11
186.636
21
-181.302
0
LINE
8
Black
10
186.636
20
-180.902
11
186.236
21
-181.302
0
LINE
8
Black
10
187.506
20
-178.87
11
187.906
21
-179.27
0
LINE
8
Black
10
187.906
20
-178.87
11
187.506
21
-179.27
0
LINE
8
Black
10
188.014
20
-193.856
11
188.414
21
-194.256
0
LINE
8
Black
10
188.414
20
-193.856
11
188.014
21
-194.256
0
LINE
8
Black
10
189.284
20
-185.22
11
189.684
21
-185.62
0
LINE
8
Black
10
189.684
20
-185.22
11
189.284
21
-185.62
0
LINE
8
Black
10
190.554
20
-173.79
11
190.954
21
-174.19
0
LINE
8
Black
10
190.954
20
-173.79
11
190.554
21
-174.19
0
LINE
8
Black
10
190.808
20
-179.378
11
191.208
21
-179.778
0
LINE
8
Black
10
191.208
20
-179.378
11
190.808
21
-179.778
0
LINE
8
Black
10
191.57
20
-194.11
11
191.97
21
-194.51
0
LINE
8
Black
10
191.97
20
-194.11
11
191.57
21
-194.51
0
LINE
8
Black
10
192.078
20
-186.744
11
192.478
21
-187.144
0
LINE
8
Black
10
192.478
20
-186.744
11
192.078
21
-187.144
0
LINE
8
Black
10
193.602
20
-156.01
11
194.002
21
-156.41
0
LINE
8
Black
10
194.002
20
-156.01
11
193.602
21
-156.41
0
LINE
8
Black
10
193.856
20
-204.27
11
194.256
21
-204.67
0
LINE
8
Black
10
194.256
20
-204.27
11
193.856
21
-204.67
0
LINE
8
Black
10
197.666
20
-194.11
11
198.066
21
-194.51
0
LINE
8
Black
10
198.066
20
-194.11
11
197.666
21
-194.51
0
LINE
8
Black
10
197.92
20
-181.156
11
198.32
21
-181.556
0
LINE
8
Black
10
198.32
20
-181.156
11
197.92
21
-181.556
0
LINE
8
Black
10
198.682
20
-173.282
11
199.082
21
-173.682
0
LINE
8
Black
10
199.082
20
-173.282
11
198.682
21
-173.682
0
LINE
8
Black
10
198.936
20
-175.314
11
199.336
21
-175.714
0
LINE
8
Black
10
199.336
20
-175.314
11
198.936
21
-175.714
0
LINE
8
Black
10
204.016
20
-184.966
11
204.416
21
-185.366
0
LINE
8
Black
10
204.416
20
-184.966
11
204.016
21
-185.366
0
LINE
8
Black
10
206.302
20
-182.68
11
206.702
21
-183.08
0
LINE
8
Black
10
206.702
20
-182.68
11
206.302
21
-183.08
0
CIRCLE
8
Black
10
193.802
20
-177.8
40
0.4
0
CIRCLE
8
Black
10
193.802
20
-180.34
40
0.4
0
CIRCLE
8
Black
10
193.802
20
-182.88
40
0.4
0
CIRCLE
8
Black
10
193.802
20
-185.42
40
0.4
0
CIRCLE
8
Black
10
201.422
20
-177.8
40
0.4
0
CIRCLE
8
Black
10
201.422
20
-180.34
40
0.4
0
CIRCLE
8
Black
10
201.422
20
-182.88
40
0.4
0
CIRCLE
8
Black
10
201.422
20
-185.42
40
0.4
0
LINE
8
Black
10
166.05
20
-179.89
11
166.05
21
-180.79
0
LINE
8
Black
10
165.6
20
-180.34
11
166.5
21
-180.34
0
LINE
8
Black
10
166.05
20
-182.43
11
166.05
21
-183.33
0
LINE
8
Black
10
165.6
20
-182.88
11
166.5
21
-182.88
0
LINE
8
Black
10
208.6
20
-177.35
11
208.6
21
-178.25
0
LINE
8
Black
10
208.15
20
-177.8
11
209.05
21
-177.8
0
LINE
8
Black
10
208.6
20
-179.89
11
208.6
21
-180.79
0
LINE
8
Black
10
208.15
20
-180.34
11
209.05
21
-180.34
0
LINE
8
Black
10
171.804
20
-174.344
11
171.804
21
-173.636
0
LINE
8
Black
10
171.804
20
-173.636
11
171.096
21
-173.636
0
LINE
8
Black
10
171.096
20
-173.636
11
171.096
21
-174.344
0
LINE
8
Black
10
171.096
20
-174.344
11
171.804
21
-174.344
0
LINE
8
Black
10
171.804
20
-178.154
11
171.804
21
-177.446
0
LINE
8
Black
10
171.804
20
-177.446
11
171.096
21
-177.446
0
LINE
8
Black
10
171.096
20
-177.446
11
171.096
21
-178.154
0
LINE
8
Black
10
171.096
20
-178.154
11
171.804
21
-178.154
0
LINE
8
Black
10
171.804
20
-183.234
11
171.804
21
-182.526
0
LINE
8
Black
10
171.804
20
-182.526
11
171.096
21
-182.526
0
LINE
8
Black
10
171.096
20
-182.526
11
171.096
21
-183.234
0
LINE
8
Black
10
171.096
20
-183.234
11
171.804
21
-183.234
0
LINE
8
Black
10
171.804
20
-188.314
11
171.804
21
-187.606
0
LINE
8
Black
10
171.804
20
-187.606
11
171.096
21
-187.606
0
LINE
8
Black
10
171.096
20
-187.606
11
171.096
21
-188.314
0
LINE
8
Black
10
171.096
20
-188.314
11
171.804
21
-188.314
0
LINE
8
Black
10
174.344
20
-174.344
11
174.344
21
-173.636
0
LINE
8
Black
10
174.344
20
-173.636
11
173.636
21
-173.636
0
LINE
8
Black
10
173.636
20
-173.636
11
173.636
21
-174.344
0
LINE
8
Black
10
173.636
20
-174.344
11
174.344
21
-174.344
0
LINE
8
Black
10
174.344
20
-178.154
11
174.344
21
-177.446
0
LINE
8
Black
10
174.344
20
-177.446
11
173.636
21
-177.446
0
LINE
8
Black
10
173.636
20
-177.446
11
173.636
21
-178.154
0
LINE
8
Black
10
173.636
20
-178.154
11
174.344
21
-178.154
0
LINE
8
Black
10
174.344
20
-183.234
11
174.344
21
-182.526
0
LINE
8
Black
10
174.344
20
-182.526
11
173.636
21
-182.526
0
LINE
8
Black
10
173.636
20
-182.526
11
173.636
21
-183.234
0
LINE
8
Black
10
173.636
20
-183.234
11
174.344
21
-183.234
0
LINE
8
Black
10
174.344
20
-188.314
11
174.344
21
-187.606
0
LINE
8
Black
10
174.344
20
-187.606
11
173.636
21
-187.606
0
LINE
8
Black
10
173.636
20
-187.606
11
173.636
21
-188.314
0
LINE
8
Black
10
173.636
20
-188.314
11
174.344
21
-188.314
0
LINE
8
Black
10
176.884
20
-174.344
11
176.884
21
-173.636
0
LINE
8
Black
10
176.884
20
-173.636
11
176.176
21
-173.636
0
LINE
8
Black
10
176.176
20
-173.636
11
176.176
21
-174.344
0
LINE
8
Black
10
176.176
20
-174.344
11
176.884
21
-174.344
0
LINE
8
Black
10
176.884
20
-178.154
11
176.884
21
-177.446
0
LINE
8
Black
10
176.884
20
-177.446
11
176.176
21
-177.446
0
LINE
8
Black
10
176.176
20
-177.446
11
176.176
21
-178.154
0
LINE
8
Black
10
176.176
20
-178.154
11
176.884
21
-178.154
0
LINE
8
Black
10
176.884
20
-183.234
11
176.884
21
-182.526
0
LINE
8
Black
10
176.884
20
-182.526
11
176.176
21
-182.526
0
LINE
8
Black
10
176.176
20
-182.526
11
176.176
21
-183.234
0
LINE
8
Black
10
176.176
20
-183.234
11
176.884
21
-183.234
0
LINE
8
Black
10
176.884
20
-188.314
11
176.884
21
-187.606
0
LINE
8
Black
10
176.884
20
-187.606
11
176.176
21
-187.606
0
LINE
8
Black
10
176.176
20
-187.606
11
176.176
21
-188.314
0
LINE
8
Black
10
176.176
20
-188.314
11
176.884
21
-188.314
0
LINE
8
Black
10
152.4
20
-157.01
11
153.2
21
-156.21
0
LINE
8
Black
10
153.2
20
-156.21
11
152.4
21
-155.41
0
LINE
8
Black
10
152.4
20
-155.41
11
151.6
21
-156.21
0
LINE
8
Black
10
151.6
20
-156.21
11
152.4
21
-157.01
0
LINE
8
Black
10
152.4
20
-162.09
11
153.2
21
-161.29
0
LINE
8
Black
10
153.2
20
-161.29
11
152.4
21
-160.49
0
LINE
8
Black
10
152.4
20
-160.49
11
151.6
21
-161.29
0
LINE
8
Black
10
151.6
20
-161.29
11
152.4
21
-162.09
0
LINE
8
Black
10
152.4
20
-167.17
11
153.2
21
-166.37
0
LINE
8
Black
10
153.2
20
-166.37
11
152.4
21
-165.57
0
LINE
8
Black
10
152.4
20
-165.57
11
151.6
21
-166.37
0
LINE
8
Black
10
151.6
20
-166.37
11
152.4
21
-167.17
0
LINE
8
Black
10
152.4
20
-195.11
11
153.2
21
-194.31
0
LINE
8
Black
10
153.2
20
-194.31
11
152.4
21
-193.51
0
LINE
8
Black
10
152.4
20
-193.51
11
151.6
21
-194.31
0
LINE
8
Black
10
151.6
20
-194.31
11
152.4
21
-195.11
0
LINE
8
Black
10
152.4
20
-200.19
11
153.2
21
-199.39
0
LINE
8
Black
10
153.2
20
-199.39
11
152.4
21
-198.59
0
LINE
8
Black
10
152.4
20
-198.59
11
151.6
21
-199.39
0
LINE
8
Black
10
151.6
20
-199.39
11
152.4
21
-200.19
0
LINE
8
Black
10
152.4
20
-205.27
11
153.2
21
-204.47
0
LINE
8
Black
10
153.2
20
-204.47
11
152.4
21
-203.67
0
LINE
8
Black
10
152.4
20
-203.67
11
151.6
21
-204.47
0
LINE
8
Black
10
151.6
20
-204.47
11
152.4
21
-205.27
0
LINE
8
Black
10
157.48
20
-157.01
11
158.28
21
-156.21
0
LINE
8
Black
10
158.28
20
-156.21
11
157.48
21
-155.41
0
LINE
8
Black
10
157.48
20
-155.41
11
156.68
21
-156.21
0
LINE
8
Black
10
156.68
20
-156.21
11
157.48
21
-157.01
0
LINE
8
Black
10
157.48
20
-162.09
11
158.28
21
-161.29
0
LINE
8
Black
10
158.28
20
-161.29
11
157.48
21
-160.49
0
LINE
8
Black
10
157.48
20
-160.49
11
156.68
21
-161.29
0
LINE
8
Black
10
156.68
20
-161.29
11
157.48
21
-162.09
0
LINE
8
Black
10
157.48
20
-167.17
11
158.28
21
-166.37
0
LINE
8
Black
10
158.28
20
-166.37
11
157.48
21
-165.57
0
LINE
8
Black
10
157.48
20
-165.57
11
156.68
21
-166.37
0
LINE
8
Black
10
156.68
20
-166.37
11
157.48
21
-167.17
0
LINE
8
Black
10
157.48
20
-195.11
11
158.28
21
-194.31
0
LINE
8
Black
10
158.28
20
-194.31
11
157.48
21
-193.51
0
LINE
8
Black
10
157.48
20
-193.51
11
156.68
21
-194.31
0
LINE
8
Black
10
156.68
20
-194.31
11
157.48
21
-195.11
0
LINE
8
Black
10
157.48
20
-200.19
11
158.28
21
-199.39
0
LINE
8
Black
10
158.28
20
-199.39
11
157.48
21
-198.59
0
LINE
8
Black
10
157.48
20
-198.59
11
156.68
21
-199.39
0
LINE
8
Black
10
156.68
20
-199.39
11
157.48
21
-200.19
0
LINE
8
Black
10
157.48
20
-205.27
11
158.28
21
-204.47
0
LINE
8
Black
10
158.28
20
-204.47
11
157.48
21
-203.67
0
LINE
8
Black
10
157.48
20
-203.67
11
156.68
21
-204.47
0
LINE
8
Black
10
156.68
20
-204.47
11
157.48
21
-205.27
0
LINE
8
Black
10
209.55
20
-158.28
11
210.35
21
-157.48
0
LINE
8
Black
10
210.35
20
-157.48
11
209.55
21
-156.68
0
LINE
8
Black
10
209.55
20
-156.68
11
208.75
21
-157.48
0
LINE
8
Black
10
208.75
20
-157.48
11
209.55
21
-158.28
0
LINE
8
Black
10
209.55
20
-163.36
11
210.35
21
-162.56
0
LINE
8
Black
10
210.35
20
-162.56
11
209.55
21
-161.76
0
LINE
8
Black
10
209.55
20
-161.76
11
208.75
21
-162.56
0
LINE
8
Black
10
208.75
20
-162.56
11
209.55
21
-163.36
0
LINE
8
Black
10
209.55
20
-168.44
11
210.35
21
-167.64
0
LINE
8
Black
10
210.35
20
-167.64
11
209.55
21
-166.84
0
LINE
8
Black
10
209.55
20
-166.84
11
208.75
21
-167.64
0
LINE
8
Black
10
208.75
20
-167.64
11
209.55
21
-168.44
0
LINE
8
Black
10
214.63
20
-158.28
11
215.43
21
-157.48
0
LINE
8
Black
10
215.43
20
-157.48
11
214.63
21
-156.68
0
LINE
8
Black
10
214.63
20
-156.68
11
213.83
21
-157.48
0
LINE
8
Black
10
213.83
20
-157.48
11
214.63
21
-158.28
0
LINE
8
Black
10
214.63
20
-163.36
11
215.43
21
-162.56
0
LINE
8
Black
10
215.43
20
-162.56
11
214.63
21
-161.76
0
LINE
8
Black
10
214.63
20
-161.76
11
213.83
21
-162.56
0
LINE
8
Black
10
213.83
20
-162.56
11
214.63
21
-163.36
0
LINE
8
Black
10
214.63
20
-168.44
11
215.43
21
-167.64
0
LINE
8
Black
10
215.43
20
-167.64
11
214.63
21
-166.84
0
LINE
8
Black
10
214.63
20
-166.84
11
213.83
21
-167.64
0
LINE
8
Black
10
213.83
20
-167.64
11
214.63
21
-168.44
0
LINE
8
Black
10
159.87
20
-174.16
11
162.07
21
-176.36
0
LINE
8
Black
10
162.07
20
-174.16
11
159.87
21
-176.36
0
CIRCLE
8
Black
10
160.97
20
-175.26
40
1.1
0
LINE
8
Black
10
159.87
20
-184.32
11
162.07
21
-186.52
0
LINE
8
Black
10
162.07
20
-184.32
11
159.87
21
-186.52
0
CIRCLE
8
Black
10
160.97
20
-185.42
40
1.1
0
LINE
8
Black
10
212.58
20
-174.16
11
214.78
21
-176.36
0
LINE
8
Black
10
214.78
20
-174.16
11
212.58
21
-176.36
0
CIRCLE
8
Black
10
213.68
20
-175.26
40
1.1
0
LINE
8
Black
10
212.58
20
-184.32
11
214.78
21
-186.52
0
LINE
8
Black
10
214.78
20
-184.32
11
212.58
21
-186.52
0
CIRCLE
8
Black
10
213.68
20
-185.42
40
1.1
0
LINE
8
Black
10
176.05
20
-154.46
11
179.55
21
-157.96
0
LINE
8
Black
10
179.55
20
-154.46
11
176.05
21
-157.96
0
LINE
8
Black
10
177.8
20
-154.46
11
177.8
21
-157.96
0
LINE
8
Black
10
176.05
20
-156.21
11
179.55
21
-156.21
0
LINE
8
Black
10
176.05
20
-202.72
11
179.55
21
-206.22
0
LINE
8
Black
10
179.55
20
-202.72
11
176.05
21
-206.22
0
LINE
8
Black
10
177.8
20
-202.72
11
177.8
21
-206.22
0
LINE
8
Black
10
176.05
20
-204.47
11
179.55
21
-204.47
0
LINE
8
Black
10
198.91
20
-154.46
11
202.41
21
-157.96
0
LINE
8
Black
10
202.41
20
-154.46
11
198.91
21
-157.96
0
LINE
8
Black
10
200.66
20
-154.46
11
200.66
21
-157.96
0
LINE
8
Black
10
198.91
20
-156.21
11
202.41
21
-156.21
0
LINE
8
Black
10
198.91
20
-202.72
11
202.41
21
-206.22
0
LINE
8
Black
10
202.41
20
-202.72
11
198.91
21
-206.22
0
LINE
8
Black
10
200.66
20
-202.72
11
200.66
21
-206.22
0
LINE
8
Black
10
198.91
20
-204.47
11
202.41
21
-204.47
0
LINE
8
Black
10
207.8
20
-192.56
11
211.3
21
-196.06
0
LINE
8
Black
10
211.3
20
-192.56
11
207.8
21
-196.06
0
LINE
8
Black
10
209.55
20
-192.56
11
209.55
21
-196.06
0
LINE
8
Black
10
207.8
20
-194.31
11
211.3
21
-194.31
0
LINE
8
Black
10
2.71429
20
-4.65714
11
2.71429
21
-1.65714
0
LINE
8
Black
10
2.71429
20
-1.65714
11
3.42857
21
-1.65714
0
LINE
8
Black
10
3.42857
20
-1.65714
11
3.85714
21
-1.8
0
LINE
8
Black
10
3.85714
20
-1.8
11
4.14286
21
-2.08571
0
LINE
8
Black
10
4.14286
20
-2.08571
11
4.28571
21
-2.37143
0
LINE
8
Black
10
4.28571
20
-2.37143
11
4.42857
21
-2.94286
0
LINE
8
Black
10
4.42857
20
-2.94286
11
4.42857
21
-3.37143
0
LINE
8
Black
10
4.42857
20
-3.37143
11
4.28571
21
-3.94286
0
LINE
8
Black
10
4.28571
20
-3.94286
11
4.14286
21
-4.22857
0
LINE
8
Black
10
4.14286
20
-4.22857
11
3.85714
21
-4.51429
0
LINE
8
Black
10
3.85714
20
-4.51429
11
3.42857
21
-4.65714
0
LINE
8
Black
10
3.42857
20
-4.65714
11
2.71429
21
-4.65714
0
LINE
8
Black
10
5.71429
20
-4.65714
11
5.71429
21
-2.65714
0
LINE
8
Black
10
5.71429
20
-3.22857
11
5.85714
21
-2.94286
0
LINE
8
Black
10
5.85714
20
-2.94286
11
6
21
-2.8
0
LINE
8
Black
10
6
20
-2.8
11
6.28571
21
-2.65714
0
LINE
8
Black
10
6.28571
20
-2.65714
11
6.57143
21
-2.65714
0
LINE
8
Black
10
7.57143
20
-4.65714
11
7.57143
21
-2.65714
0
LINE
8
Black
10
7.57143
20
-1.65714
11
7.42857
21
-1.8
0
LINE
8
Black
10
7.42857
20
-1.8
11
7.57143
21
-1.94286
0
LINE
8
Black
10
7.57143
20
-1.94286
11
7.71429
21
-1.8
0
LINE
8
Black
10
7.71429
20
-1.8
11
7.57143
21
-1.65714
0
LINE
8
Black
10
7.57143
20
-1.65714
11
7.57143
21
-1.94286
0
LINE
8
Black
10
9.42857
20
-4.65714
11
9.14286
21
-4.51429
0
LINE
8
Black
10
9.14286
20
-4.51429
11
9
21
-4.22857
0
LINE
8
Black
10
9
20
-4.22857
11
9
21
-1.65714
0
LINE
8
Black
10
11
20
-4.65714
11
10.7143
21
-4.51429
0
LINE
8
Black
10
10.7143
20
-4.51429
11
10.5714
21
-4.22857
0
LINE
8
Black
10
10.5714
20
-4.22857
11
10.5714
21
-1.65714
0
LINE
8
Black
10
14.4286
20
-4.65714
11
14.4286
21
-1.65714
0
LINE
8
Black
10
14.4286
20
-1.65714
11
15.4286
21
-3.8
0
LINE
8
Black
10
15.4286
20
-3.8
11
16.4286
21
-1.65714
0
LINE
8
Black
10
16.4286
20
-1.65714
11
16.4286
21
-4.65714
0
LINE
8
Black
10
19.1429
20
-4.65714
11
19.1429
21
-3.08571
0
LINE
8
Black
10
19.1429
20
-3.08571
11
19
21
-2.8
0
LINE
8
Black
10
19
20
-2.8
11
18.7143
21
-2.65714
0
LINE
8
Black
10
18.7143
20
-2.65714
11
18.1429
21
-2.65714
0
LINE
8
Black
10
18.1429
20
-2.65714
11
17.8571
21
-2.8
0
LINE
8
Black
10
19.1429
20
-4.51429
11
18.8571
21
-4.65714
0
LINE
8
Black
10
18.8571
20
-4.65714
11
18.1429
21
-4.65714
0
LINE
8
Black
10
18.1429
20
-4.65714
11
17.8571
21
-4.51429
0
LINE
8
Black
10
17.8571
20
-4.51429
11
17.7143
21
-4.22857
0
LINE
8
Black
10
17.7143
20
-4.22857
11
17.7143
21
-3.94286
0
LINE
8
Black
10
17.7143
20
-3.94286
11
17.8571
21
-3.65714
0
LINE
8
Black
10
17.8571
20
-3.65714
11
18.1429
21
-3.51429
0
LINE
8
Black
10
18.1429
20
-3.51429
11
18.8571
21
-3.51429
0
LINE
8
Black
10
18.8571
20
-3.51429
11
19.1429
21
-3.37143
0
LINE
8
Black
10
20.5714
20
-2.65714
11
20.5714
21
-5.65714
0
LINE
8
Black
10
20.5714
20
-2.8
11
20.8571
21
-2.65714
0
LINE
8
Black
10
20.8571
20
-2.65714
11
21.4286
21
-2.65714
0
LINE
8
Black
10
21.4286
20
-2.65714
11
21.7143
21
-2.8
0
LINE
8
Black
10
21.7143
20
-2.8
11
21.8571
21
-2.94286
0
LINE
8
Black
10
21.8571
20
-2.94286
11
22
21
-3.22857
0
LINE
8
Black
10
22
20
-3.22857
11
22
21
-4.08571
0
LINE
8
Black
10
22
20
-4.08571
11
21.8571
21
-4.37143
0
LINE
8
Black
10
21.8571
20
-4.37143
11
21.7143
21
-4.51429
0
LINE
8
Black
10
21.7143
20
-4.51429
11
21.4286
21
-4.65714
0
LINE
8
Black
10
21.4286
20
-4.65714
11
20.8571
21
-4.65714
0
LINE
8
Black
10
20.8571
20
-4.65714
11
20.5714
21
-4.51429
0
LINE
8
Black
10
23.2857
20
-4.37143
11
23.4286
21
-4.51429
0
LINE
8
Black
10
23.4286
20
-4.51429
11
23.2857
21
-4.65714
0
LINE
8
Black
10
23.2857
20
-4.65714
11
23.1429
21
-4.51429
0
LINE
8
Black
10
23.1429
20
-4.51429
11
23.2857
21
-4.37143
0
LINE
8
Black
10
23.2857
20
-4.37143
11
23.2857
21
-4.65714
0
LINE
8
Black
10
23.2857
20
-2.8
11
23.4286
21
-2.94286
0
LINE
8
Black
10
23.4286
20
-2.94286
11
23.2857
21
-3.08571
0
LINE
8
Black
10
23.2857
20
-3.08571
11
23.1429
21
-2.94286
0
LINE
8
Black
10
23.1429
20
-2.94286
11
23.2857
21
-2.8
0
LINE
8
Black
10
23.2857
20
-2.8
11
23.2857
21
-3.08571
0
LINE
8
Black
10
-0.4
20
-9.4
11
0
21
-9.8
0
LINE
8
Black
10
0
20
-9.4
11
-0.4
21
-9.8
0
LINE
8
Black
10
3.28571
20
-7.95714
11
3.57143
21
-7.95714
0
LINE
8
Black
10
3.57143
20
-7.95714
11
3.85714
21
-8.1
0
LINE
8
Black
10
3.85714
20
-8.1
11
4
21
-8.24286
0
LINE
8
Black
10
4
20
-8.24286
11
4.14286
21
-8.52857
0
LINE
8
Black
10
4.14286
20
-8.52857
11
4.28571
21
-9.1
0
LINE
8
Black
10
4.28571
20
-9.1
11
4.28571
21
-9.81429
0
LINE
8
Black
10
4.28571
20
-9.81429
11
4.14286
21
-10.3857
0
LINE
8
Black
10
4.14286
20
-10.3857
11
4
21
-10.6714
0
LINE
8
Black
10
4
20
-10.6714
11
3.85714
21
-10.8143
0
LINE
8
Black
10
3.85714
20
-10.8143
11
3.57143
21
-10.9571
0
LINE
8
Black
10
3.57143
20
-10.9571
11
3.28571
21
-10.9571
0
LINE
8
Black
10
3.28571
20
-10.9571
11
3
21
-10.8143
0
LINE
8
Black
10
3
20
-10.8143
11
2.85714
21
-10.6714
0
LINE
8
Black
10
2.85714
20
-10.6714
11
2.71429
21
-10.3857
0
LINE
8
Black
10
2.71429
20
-10.3857
11
2.57143
21
-9.81429
0
LINE
8
Black
10
2.57143
20
-9.81429
11
2.57143
21
-9.1
0
LINE
8
Black
10
2.57143
20
-9.1
11
2.71429
21
-8.52857
0
LINE
8
Black
10
2.71429
20
-8.52857
11
2.85714
21
-8.24286
0
LINE
8
Black
10
2.85714
20
-8.24286
11
3
21
-8.1
0
LINE
8
Black
10
3
20
-8.1
11
3.28571
21
-7.95714
0
LINE
8
Black
10
5.57143
20
-10.6714
11
5.71429
21
-10.8143
0
LINE
8
Black
10
5.71429
20
-10.8143
11
5.57143
21
-10.9571
0
LINE
8
Black
10
5.57143
20
-10.9571
11
5.42857
21
-10.8143
0
LINE
8
Black
10
5.42857
20
-10.8143
11
5.57143
21
-10.6714
0
LINE
8
Black
10
5.57143
20
-10.6714
11
5.57143
21
-10.9571
0
LINE
8
Black
10
8.28571
20
-8.95714
11
8.28571
21
-10.9571
0
LINE
8
Black
10
7.57143
20
-7.81429
11
6.85714
21
-9.95714
0
LINE
8
Black
10
6.85714
20
-9.95714
11
8.71429
21
-9.95714
0
LINE
8
Black
10
10.4286
20
-7.95714
11
10.7143
21
-7.95714
0
LINE
8
Black
10
10.7143
20
-7.95714
11
11
21
-8.1
0
LINE
8
Black
10
11
20
-8.1
11
11.1429
21
-8.24286
0
LINE
8
Black
10
11.1429
20
-8.24286
11
11.2857
21
-8.52857
0
LINE
8
Black
10
11.2857
20
-8.52857
11
11.4286
21
-9.1
0
LINE
8
Black
10
11.4286
20
-9.1
11
11.4286
21
-9.81429
0
LINE
8
Black
10
11.4286
20
-9.81429
11
11.2857
21
-10.3857
0
LINE
8
Black
10
11.2857
20
-10.3857
11
11.1429
21
-10.6714
0
LINE
8
Black
10
11.1429
20
-10.6714
11
11
21
-10.8143
0
LINE
8
Black
10
11
20
-10.8143
11
10.7143
21
-10.9571
0
LINE
8
Black
10
10.7143
20
-10.9571
11
10.4286
21
-10.9571
0
LINE
8
Black
10
10.4286
20
-10.9571
11
10.1429
21
-10.8143
0
LINE
8
Black
10
10.1429
20
-10.8143
11
10
21
-10.6714
0
LINE
8
Black
10
10
20
-10.6714
11
9.85714
21
-10.3857
0
LINE
8
Black
10
9.85714
20
-10.3857
11
9.71429
21
-9.81429
0
LINE
8
Black
10
9.71429
20
-9.81429
11
9.71429
21
-9.1
0
LINE
8
Black
10
9.71429
20
-9.1
11
9.85714
21
-8.52857
0
LINE
8
Black
10
9.85714
20
-8.52857
11
10
21
-8.24286
0
LINE
8
Black
10
10
20
-8.24286
11
10.1429
21
-8.1
0
LINE
8
Black
10
10.1429
20
-8.1
11
10.4286
21
-7.95714
0
LINE
8
Black
10
12.7143
20
-10.9571
11
12.7143
21
-8.95714
0
LINE
8
Black
10
12.7143
20
-9.24286
11
12.8571
21
-9.1
0
LINE
8
Black
10
12.8571
20
-9.1
11
13.1429
21
-8.95714
0
LINE
8
Black
10
13.1429
20
-8.95714
11
13.5714
21
-8.95714
0
LINE
8
Black
10
13.5714
20
-8.95714
11
13.8571
21
-9.1
0
LINE
8
Black
10
13.8571
20
-9.1
11
14
21
-9.38571
0
LINE
8
Black
10
14
20
-9.38571
11
14
21
-10.9571
0
LINE
8
Black
10
14
20
-9.38571
11
14.1429
21
-9.1
0
LINE
8
Black
10
14.1429
20
-9.1
11
14.4286
21
-8.95714
0
LINE
8
Black
10
14.4286
20
-8.95714
11
14.8571
21
-8.95714
0
LINE
8
Black
10
14.8571
20
-8.95714
11
15.1429
21
-9.1
0
LINE
8
Black
10
15.1429
20
-9.1
11
15.2857
21
-9.38571
0
LINE
8
Black
10
15.2857
20
-9.38571
11
15.2857
21
-10.9571
0
LINE
8
Black
10
16.7143
20
-10.9571
11
16.7143
21
-8.95714
0
LINE
8
Black
10
16.7143
20
-9.24286
11
16.8571
21
-9.1
0
LINE
8
Black
10
16.8571
20
-9.1
11
17.1429
21
-8.95714
0
LINE
8
Black
10
17.1429
20
-8.95714
11
17.5714
21
-8.95714
0
LINE
8
Black
10
17.5714
20
-8.95714
11
17.8571
21
-9.1
0
LINE
8
Black
10
17.8571
20
-9.1
11
18
21
-9.38571
0
LINE
8
Black
10
18
20
-9.38571
11
18
21
-10.9571
0
LINE
8
Black
10
18
20
-9.38571
11
18.1429
21
-9.1
0
LINE
8
Black
10
18.1429
20
-9.1
11
18.4286
21
-8.95714
0
LINE
8
Black
10
18.4286
20
-8.95714
11
18.8571
21
-8.95714
0
LINE
8
Black
10
18.8571
20
-8.95714
11
19.1429
21
-9.1
0
LINE
8
Black
10
19.1429
20
-9.1
11
19.2857
21
-9.38571
0
LINE
8
Black
10
19.2857
20
-9.38571
11
19.2857
21
-10.9571
0
LINE
8
Black
10
25.1429
20
-7.81429
11
22.5714
21
-11.6714
0
LINE
8
Black
10
29
20
-7.95714
11
29.2857
21
-7.95714
0
LINE
8
Black
10
29.2857
20
-7.95714
11
29.5714
21
-8.1
0
LINE
8
Black
10
29.5714
20
-8.1
11
29.7143
21
-8.24286
0
LINE
8
Black
10
29.7143
20
-8.24286
11
29.8571
21
-8.52857
0
LINE
8
Black
10
29.8571
20
-8.52857
11
30
21
-9.1
0
LINE
8
Black
10
30
20
-9.1
11
30
21
-9.81429
0
LINE
8
Black
10
30
20
-9.81429
11
29.8571
21
-10.3857
0
LINE
8
Black
10
29.8571
20
-10.3857
11
29.7143
21
-10.6714
0
LINE
8
Black
10
29.7143
20
-10.6714
11
29.5714
21
-10.8143
0
LINE
8
Black
10
29.5714
20
-10.8143
11
29.2857
21
-10.9571
0
LINE
8
Black
10
29.2857
20
-10.9571
11
29
21
-10.9571
0
LINE
8
Black
10
29
20
-10.9571
11
28.7143
21
-10.8143
0
LINE
8
Black
10
28.7143
20
-10.8143
11
28.5714
21
-10.6714
0
LINE
8
Black
10
28.5714
20
-10.6714
11
28.4286
21
-10.3857
0
LINE
8
Black
10
28.4286
20
-10.3857
11
28.2857
21
-9.81429
0
LINE
8
Black
10
28.2857
20
-9.81429
11
28.2857
21
-9.1
0
LINE
8
Black
10
28.2857
20
-9.1
11
28.4286
21
-8.52857
0
LINE
8
Black
10
28.4286
20
-8.52857
11
28.5714
21
-8.24286
0
LINE
8
Black
10
28.5714
20
-8.24286
11
28.7143
21
-8.1
0
LINE
8
Black
10
28.7143
20
-8.1
11
29
21
-7.95714
0
LINE
8
Black
10
31.2857
20
-10.6714
11
31.4286
21
-10.8143
0
LINE
8
Black
10
31.4286
20
-10.8143
11
31.2857
21
-10.9571
0
LINE
8
Black
10
31.2857
20
-10.9571
11
31.1429
21
-10.8143
0
LINE
8
Black
10
31.1429
20
-10.8143
11
31.2857
21
-10.6714
0
LINE
8
Black
10
31.2857
20
-10.6714
11
31.2857
21
-10.9571
0
LINE
8
Black
10
33.2857
20
-7.95714
11
33.5714
21
-7.95714
0
LINE
8
Black
10
33.5714
20
-7.95714
11
33.8571
21
-8.1
0
LINE
8
Black
10
33.8571
20
-8.1
11
34
21
-8.24286
0
LINE
8
Black
10
34
20
-8.24286
11
34.1429
21
-8.52857
0
LINE
8
Black
10
34.1429
20
-8.52857
11
34.2857
21
-9.1
0
LINE
8
Black
10
34.2857
20
-9.1
11
34.2857
21
-9.81429
0
LINE
8
Black
10
34.2857
20
-9.81429
11
34.1429
21
-10.3857
0
LINE
8
Black
10
34.1429
20
-10.3857
11
34
21
-10.6714
0
LINE
8
Black
10
34
20
-10.6714
11
33.8571
21
-10.8143
0
LINE
8
Black
10
33.8571
20
-10.8143
11
33.5714
21
-10.9571
0
LINE
8
Black
10
33.5714
20
-10.9571
11
33.2857
21
-10.9571
0
LINE
8
Black
10
33.2857
20
-10.9571
11
33
21
-10.8143
0
LINE
8
Black
10
33
20
-10.8143
11
32.8571
21
-10.6714
0
LINE
8
Black
10
32.8571
20
-10.6714
11
32.7143
21
-10.3857
0
LINE
8
Black
10
32.7143
20
-10.3857
11
32.5714
21
-9.81429
0
LINE
8
Black
10
32.5714
20
-9.81429
11
32.5714
21
-9.1
0
LINE
8
Black
10
32.5714
20
-9.1
11
32.7143
21
-8.52857
0
LINE
8
Black
10
32.7143
20
-8.52857
11
32.8571
21
-8.24286
0
LINE
8
Black
10
32.8571
20
-8.24286
11
33
21
-8.1
0
LINE
8
Black
10
33
20
-8.1
11
33.2857
21
-7.95714
0
LINE
8
Black
10
37.1429
20
-10.9571
11
35.4286
21
-10.9571
0
LINE
8
Black
10
36.2857
20
-10.9571
11
36.2857
21
-7.95714
0
LINE
8
Black
10
36.2857
20
-7.95714
11
36
21
-8.38571
0
LINE
8
Black
10
36
20
-8.38571
11
35.7143
21
-8.67143
0
LINE
8
Black
10
35.7143
20
-8.67143
11
35.4286
21
-8.81429
0
LINE
8
Black
10
39.7143
20
-7.95714
11
39.1429
21
-7.95714
0
LINE
8
Black
10
39.1429
20
-7.95714
11
38.8571
21
-8.1
0
LINE
8
Black
10
38.8571
20
-8.1
11
38.7143
21
-8.24286
0
LINE
8
Black
10
38.7143
20
-8.24286
11
38.4286
21
-8.67143
0
LINE
8
Black
10
38.4286
20
-8.67143
11
38.2857
21
-9.24286
0
LINE
8
Black
10
38.2857
20
-9.24286
11
38.2857
21
-10.3857
0
LINE
8
Black
10
38.2857
20
-10.3857
11
38.4286
21
-10.6714
0
LINE
8
Black
10
38.4286
20
-10.6714
11
38.5714
21
-10.8143
0
LINE
8
Black
10
38.5714
20
-10.8143
11
38.8571
21
-10.9571
0
LINE
8
Black
10
38.8571
20
-10.9571
11
39.4286
21
-10.9571
0
LINE
8
Black
10
39.4286
20
-10.9571
11
39.7143
21
-10.8143
0
LINE
8
Black
10
39.7143
20
-10.8143
11
39.8571
21
-10.6714
0
LINE
8
Black
10
39.8571
20
-10.6714
11
40
21
-10.3857
0
LINE
8
Black
10
40
20
-10.3857
11
40
21
-9.67143
0
LINE
8
Black
10
40
20
-9.67143
11
39.8571
21
-9.38571
0
LINE
8
Black
10
39.8571
20
-9.38571
11
39.7143
21
-9.24286
0
LINE
8
Black
10
39.7143
20
-9.24286
11
39.4286
21
-9.1
0
LINE
8
Black
10
39.4286
20
-9.1
11
38.8571
21
-9.1
0
LINE
8
Black
10
38.8571
20
-9.1
11
38.5714
21
-9.24286
0
LINE
8
Black
10
38.5714
20
-9.24286
11
38.4286
21
-9.38571
0
LINE
8
Black
10
38.4286
20
-9.38571
11
38.2857
21
-9.67143
0
LINE
8
Black
10
41.1429
20
-7.95714
11
41.1429
21
-8.52857
0
LINE
8
Black
10
42.2857
20
-7.95714
11
42.2857
21
-8.52857
0
LINE
8
Black
10
46.7143
20
-12.1
11
46.5714
21
-11.9571
0
LINE
8
Black
10
46.5714
20
-11.9571
11
46.2857
21
-11.5286
0
LINE
8
Black
10
46.2857
20
-11.5286
11
46.1429
21
-11.2429
0
LINE
8
Black
10
46.1429
20
-11.2429
11
46
21
-10.8143
0
LINE
8
Black
10
46
20
-10.8143
11
45.8571
21
-10.1
0
LINE
8
Black
10
45.8571
20
-10.1
11
45.8571
21
-9.52857
0
LINE
8
Black
10
45.8571
20
-9.52857
11
46
21
-8.81429
0
LINE
8
Black
10
46
20
-8.81429
11
46.1429
21
-8.38571
0
LINE
8
Black
10
46.1429
20
-8.38571
11
46.2857
21
-8.1
0
LINE
8
Black
10
46.2857
20
-8.1
11
46.5714
21
-7.67143
0
LINE
8
Black
10
46.5714
20
-7.67143
11
46.7143
21
-7.52857
0
LINE
8
Black
10
47.5714
20
-7.95714
11
49.4286
21
-7.95714
0
LINE
8
Black
10
49.4286
20
-7.95714
11
48.4286
21
-9.1
0
LINE
8
Black
10
48.4286
20
-9.1
11
48.8571
21
-9.1
0
LINE
8
Black
10
48.8571
20
-9.1
11
49.1429
21
-9.24286
0
LINE
8
Black
10
49.1429
20
-9.24286
11
49.2857
21
-9.38571
0
LINE
8
Black
10
49.2857
20
-9.38571
11
49.4286
21
-9.67143
0
LINE
8
Black
10
49.4286
20
-9.67143
11
49.4286
21
-10.3857
0
LINE
8
Black
10
49.4286
20
-10.3857
11
49.2857
21
-10.6714
0
LINE
8
Black
10
49.2857
20
-10.6714
11
49.1429
21
-10.8143
0
LINE
8
Black
10
49.1429
20
-10.8143
11
48.8571
21
-10.9571
0
LINE
8
Black
10
48.8571
20
-10.9571
11
48
21
-10.9571
0
LINE
8
Black
10
48
20
-10.9571
11
47.7143
21
-10.8143
0
LINE
8
Black
10
47.7143
20
-10.8143
11
47.5714
21
-10.6714
0
LINE
8
Black
10
50.4286
20
-7.95714
11
52.4286
21
-7.95714
0
LINE
8
Black
10
52.4286
20
-7.95714
11
51.1429
21
-10.9571
0
LINE
8
Black
10
55.8571
20
-10.9571
11
55.8571
21
-7.95714
0
LINE
8
Black
10
57.1429
20
-10.9571
11
57.1429
21
-9.38571
0
LINE
8
Black
10
57.1429
20
-9.38571
11
57
21
-9.1
0
LINE
8
Black
10
57
20
-9.1
11
56.7143
21
-8.95714
0
LINE
8
Black
10
56.7143
20
-8.95714
11
56.2857
21
-8.95714
0
LINE
8
Black
10
56.2857
20
-8.95714
11
56
21
-9.1
0
LINE
8
Black
10
56
20
-9.1
11
55.8571
21
-9.24286
0
LINE
8
Black
10
59
20
-10.9571
11
58.7143
21
-10.8143
0
LINE
8
Black
10
58.7143
20
-10.8143
11
58.5714
21
-10.6714
0
LINE
8
Black
10
58.5714
20
-10.6714
11
58.4286
21
-10.3857
0
LINE
8
Black
10
58.4286
20
-10.3857
11
58.4286
21
-9.52857
0
LINE
8
Black
10
58.4286
20
-9.52857
11
58.5714
21
-9.24286
0
LINE
8
Black
10
58.5714
20
-9.24286
11
58.7143
21
-9.1
0
LINE
8
Black
10
58.7143
20
-9.1
11
59
21
-8.95714
0
LINE
8
Black
10
59
20
-8.95714
11
59.4286
21
-8.95714
0
LINE
8
Black
10
59.4286
20
-8.95714
11
59.7143
21
-9.1
0
LINE
8
Black
10
59.7143
20
-9.1
11
59.8571
21
-9.24286
0
LINE
8
Black
10
59.8571
20
-9.24286
11
60
21
-9.52857
0
LINE
8
Black
10
60
20
-9.52857
11
60
21
-10.3857
0
LINE
8
Black
10
60
20
-10.3857
11
59.8571
21
-10.6714
0
LINE
8
Black
10
59.8571
20
-10.6714
11
59.7143
21
-10.8143
0
LINE
8
Black
10
59.7143
20
-10.8143
11
59.4286
21
-10.9571
0
LINE
8
Black
10
59.4286
20
-10.9571
11
59
21
-10.9571
0
LINE
8
Black
10
61.7143
20
-10.9571
11
61.4286
21
-10.8143
0
LINE
8
Black
10
61.4286
20
-10.8143
11
61.2857
21
-10.5286
0
LINE
8
Black
10
61.2857
20
-10.5286
11
61.2857
21
-7.95714
0
LINE
8
Black
10
64
20
-10.8143
11
63.7143
21
-10.9571
0
LINE
8
Black
10
63.7143
20
-10.9571
11
63.1429
21
-10.9571
0
LINE
8
Black
10
63.1429
20
-10.9571
11
62.8571
21
-10.8143
0
LINE
8
Black
10
62.8571
20
-10.8143
11
62.7143
21
-10.5286
0
LINE
8
Black
10
62.7143
20
-10.5286
11
62.7143
21
-9.38571
0
LINE
8
Black
10
62.7143
20
-9.38571
11
62.8571
21
-9.1
0
LINE
8
Black
10
62.8571
20
-9.1
11
63.1429
21
-8.95714
0
LINE
8
Black
10
63.1429
20
-8.95714
11
63.7143
21
-8.95714
0
LINE
8
Black
10
63.7143
20
-8.95714
11
64
21
-9.1
0
LINE
8
Black
10
64
20
-9.1
11
64.1429
21
-9.38571
0
LINE
8
Black
10
64.1429
20
-9.38571
11
64.1429
21
-9.67143
0
LINE
8
Black
10
64.1429
20
-9.67143
11
62.7143
21
-9.95714
0
LINE
8
Black
10
65.2857
20
-10.8143
11
65.5714
21
-10.9571
0
LINE
8
Black
10
65.5714
20
-10.9571
11
66.1429
21
-10.9571
0
LINE
8
Black
10
66.1429
20
-10.9571
11
66.4286
21
-10.8143
0
LINE
8
Black
10
66.4286
20
-10.8143
11
66.5714
21
-10.5286
0
LINE
8
Black
10
66.5714
20
-10.5286
11
66.5714
21
-10.3857
0
LINE
8
Black
10
66.5714
20
-10.3857
11
66.4286
21
-10.1
0
LINE
8
Black
10
66.4286
20
-10.1
11
66.1429
21
-9.95714
0
LINE
8
Black
10
66.1429
20
-9.95714
11
65.7143
21
-9.95714
0
LINE
8
Black
10
65.7143
20
-9.95714
11
65.4286
21
-9.81429
0
LINE
8
Black
10
65.4286
20
-9.81429
11
65.2857
21
-9.52857
0
LINE
8
Black
10
65.2857
20
-9.52857
11
65.2857
21
-9.38571
0
LINE
8
Black
10
65.2857
20
-9.38571
11
65.4286
21
-9.1
0
LINE
8
Black
10
65.4286
20
-9.1
11
65.7143
21
-8.95714
0
LINE
8
Black
10
65.7143
20
-8.95714
11
66.1429
21
-8.95714
0
LINE
8
Black
10
66.1429
20
-8.95714
11
66.4286
21
-9.1
0
LINE
8
Black
10
67.5714
20
-12.1
11
67.7143
21
-11.9571
0
LINE
8
Black
10
67.7143
20
-11.9571
11
68
21
-11.5286
0
LINE
8
Black
10
68
20
-11.5286
11
68.1429
21
-11.2429
0
LINE
8
Black
10
68.1429
20
-11.2429
11
68.2857
21
-10.8143
0
LINE
8
Black
10
68.2857
20
-10.8143
11
68.4286
21
-10.1
0
LINE
8
Black
10
68.4286
20
-10.1
11
68.4286
21
-9.52857
0
LINE
8
Black
10
68.4286
20
-9.52857
11
68.2857
21
-8.81429
0
LINE
8
Black
10
68.2857
20
-8.81429
11
68.1429
21
-8.38571
0
LINE
8
Black
10
68.1429
20
-8.38571
11
68
21
-8.1
0
LINE
8
Black
10
68
20
-8.1
11
67.7143
21
-7.67143
0
LINE
8
Black
10
67.7143
20
-7.67143
11
67.5714
21
-7.52857
0
CIRCLE
8
Black
10
-0.4
20
-13.56
40
0.4
0
LINE
8
Black
10
3.28571
20
-11.9171
11
3.57143
21
-11.9171
0
LINE
8
Black
10
3.57143
20
-11.9171
11
3.85714
21
-12.06
0
LINE
8
Black
10
3.85714
20
-12.06
11
4
21
-12.2029
0
LINE
8
Black
10
4
20
-12.2029
11
4.14286
21
-12.4886
0
LINE
8
Black
10
4.14286
20
-12.4886
11
4.28571
21
-13.06
0
LINE
8
Black
10
4.28571
20
-13.06
11
4.28571
21
-13.7743
0
LINE
8
Black
10
4.28571
20
-13.7743
11
4.14286
21
-14.3457
0
LINE
8
Black
10
4.14286
20
-14.3457
11
4
21
-14.6314
0
LINE
8
Black
10
4
20
-14.6314
11
3.85714
21
-14.7743
0
LINE
8
Black
10
3.85714
20
-14.7743
11
3.57143
21
-14.9171
0
LINE
8
Black
10
3.57143
20
-14.9171
11
3.28571
21
-14.9171
0
LINE
8
Black
10
3.28571
20
-14.9171
11
3
21
-14.7743
0
LINE
8
Black
10
3
20
-14.7743
11
2.85714
21
-14.6314
0
LINE
8
Black
10
2.85714
20
-14.6314
11
2.71429
21
-14.3457
0
LINE
8
Black
10
2.71429
20
-14.3457
11
2.57143
21
-13.7743
0
LINE
8
Black
10
2.57143
20
-13.7743
11
2.57143
21
-13.06
0
LINE
8
Black
10
2.57143
20
-13.06
11
2.71429
21
-12.4886
0
LINE
8
Black
10
2.71429
20
-12.4886
11
2.85714
21
-12.2029
0
LINE
8
Black
10
2.85714
20
-12.2029
11
3
21
-12.06
0
LINE
8
Black
10
3
20
-12.06
11
3.28571
21
-11.9171
0
LINE
8
Black
10
5.57143
20
-14.6314
11
5.71429
21
-14.7743
0
LINE
8
Black
10
5.71429
20
-14.7743
11
5.57143
21
-14.9171
0
LINE
8
Black
10
5.57143
20
-14.9171
11
5.42857
21
-14.7743
0
LINE
8
Black
10
5.42857
20
-14.7743
11
5.57143
21
-14.6314
0
LINE
8
Black
10
5.57143
20
-14.6314
11
5.57143
21
-14.9171
0
LINE
8
Black
10
7.42857
20
-13.2029
11
7.14286
21
-13.06
0
LINE
8
Black
10
7.14286
20
-13.06
11
7
21
-12.9171
0
LINE
8
Black
10
7
20
-12.9171
11
6.85714
21
-12.6314
0
LINE
8
Black
10
6.85714
20
-12.6314
11
6.85714
21
-12.4886
0
LINE
8
Black
10
6.85714
20
-12.4886
11
7
21
-12.2029
0
LINE
8
Black
10
7
20
-12.2029
11
7.14286
21
-12.06
0
LINE
8
Black
10
7.14286
20
-12.06
11
7.42857
21
-11.9171
0
LINE
8
Black
10
7.42857
20
-11.9171
11
8
21
-11.9171
0
LINE
8
Black
10
8
20
-11.9171
11
8.28571
21
-12.06
0
LINE
8
Black
10
8.28571
20
-12.06
11
8.42857
21
-12.2029
0
LINE
8
Black
10
8.42857
20
-12.2029
11
8.57143
21
-12.4886
0
LINE
8
Black
10
8.57143
20
-12.4886
11
8.57143
21
-12.6314
0
LINE
8
Black
10
8.57143
20
-12.6314
11
8.42857
21
-12.9171
0
LINE
8
Black
10
8.42857
20
-12.9171
11
8.28571
21
-13.06
0
LINE
8
Black
10
8.28571
20
-13.06
11
8
21
-13.2029
0
LINE
8
Black
10
8
20
-13.2029
11
7.42857
21
-13.2029
0
LINE
8
Black
10
7.42857
20
-13.2029
11
7.14286
21
-13.3457
0
LINE
8
Black
10
7.14286
20
-13.3457
11
7
21
-13.4886
0
LINE
8
Black
10
7
20
-13.4886
11
6.85714
21
-13.7743
0
LINE
8
Black
10
6.85714
20
-13.7743
11
6.85714
21
-14.3457
0
LINE
8
Black
10
6.85714
20
-14.3457
11
7
21
-14.6314
0
LINE
8
Black
10
7
20
-14.6314
11
7.14286
21
-14.7743
0
LINE
8
Black
10
7.14286
20
-14.7743
11
7.42857
21
-14.9171
0
LINE
8
Black
10
7.42857
20
-14.9171
11
8
21
-14.9171
0
LINE
8
Black
10
8
20
-14.9171
11
8.28571
21
-14.7743
0
LINE
8
Black
10
8.28571
20
-14.7743
11
8.42857
21
-14.6314
0
LINE
8
Black
10
8.42857
20
-14.6314
11
8.57143
21
-14.3457
0
LINE
8
Black
10
8.57143
20
-14.3457
11
8.57143
21
-13.7743
0
LINE
8
Black
10
8.57143
20
-13.7743
11
8.42857
21
-13.4886
0
LINE
8
Black
10
8.42857
20
-13.4886
11
8.28571
21
-13.3457
0
LINE
8
Black
10
8.28571
20
-13.3457
11
8
21
-13.2029
0
LINE
8
Black
10
10.4286
20
-11.9171
11
10.7143
21
-11.9171
0
LINE
8
Black
10
10.7143
20
-11.9171
11
11
21
-12.06
0
LINE
8
Black
10
11
20
-12.06
11
11.1429
21
-12.2029
0
LINE
8
Black
10
11.1429
20
-12.2029
11
11.2857
21
-12.4886
0
LINE
8
Black
10
11.2857
20
-12.4886
11
11.4286
21
-13.06
0
LINE
8
Black
10
11.4286
20
-13.06
11
11.4286
21
-13.7743
0
LINE
8
Black
10
11.4286
20
-13.7743
11
11.2857
21
-14.3457
0
LINE
8
Black
10
11.2857
20
-14.3457
11
11.1429
21
-14.6314
0
LINE
8
Black
10
11.1429
20
-14.6314
11
11
21
-14.7743
0
LINE
8
Black
10
11
20
-14.7743
11
10.7143
21
-14.9171
0
LINE
8
Black
10
10.7143
20
-14.9171
11
10.4286
21
-14.9171
0
LINE
8
Black
10
10.4286
20
-14.9171
11
10.1429
21
-14.7743
0
LINE
8
Black
10
10.1429
20
-14.7743
11
10
21
-14.6314
0
LINE
8
Black
10
10
20
-14.6314
11
9.85714
21
-14.3457
0
LINE
8
Black
10
9.85714
20
-14.3457
11
9.71429
21
-13.7743
0
LINE
8
Black
10
9.71429
20
-13.7743
11
9.71429
21
-13.06
0
LINE
8
Black
10
9.71429
20
-13.06
11
9.85714
21
-12.4886
0
LINE
8
Black
10
9.85714
20
-12.4886
11
10
21
-12.2029
0
LINE
8
Black
10
10
20
-12.2029
11
10.1429
21
-12.06
0
LINE
8
Black
10
10.1429
20
-12.06
11
10.4286
21
-11.9171
0
LINE
8
Black
10
12.7143
20
-14.9171
11
12.7143
21
-12.9171
0
LINE
8
Black
10
12.7143
20
-13.2029
11
12.8571
21
-13.06
0
LINE
8
Black
10
12.8571
20
-13.06
11
13.1429
21
-12.9171
0
LINE
8
Black
10
13.1429
20
-12.9171
11
13.5714
21
-12.9171
0
LINE
8
Black
10
13.5714
20
-12.9171
11
13.8571
21
-13.06
0
LINE
8
Black
10
13.8571
20
-13.06
11
14
21
-13.3457
0
LINE
8
Black
10
14
20
-13.3457
11
14
21
-14.9171
0
LINE
8
Black
10
14
20
-13.3457
11
14.1429
21
-13.06
0
LINE
8
Black
10
14.1429
20
-13.06
11
14.4286
21
-12.9171
0
LINE
8
Black
10
14.4286
20
-12.9171
11
14.8571
21
-12.9171
0
LINE
8
Black
10
14.8571
20
-12.9171
11
15.1429
21
-13.06
0
LINE
8
Black
10
15.1429
20
-13.06
11
15.2857
21
-13.3457
0
LINE
8
Black
10
15.2857
20
-13.3457
11
15.2857
21
-14.9171
0
LINE
8
Black
10
16.7143
20
-14.9171
11
16.7143
21
-12.9171
0
LINE
8
Black
10
16.7143
20
-13.2029
11
16.8571
21
-13.06
0
LINE
8
Black
10
16.8571
20
-13.06
11
17.1429
21
-12.9171
0
LINE
8
Black
10
17.1429
20
-12.9171
11
17.5714
21
-12.9171
0
LINE
8
Black
10
17.5714
20
-12.9171
11
17.8571
21
-13.06
0
LINE
8
Black
10
17.8571
20
-13.06
11
18
21
-13.3457
0
LINE
8
Black
10
18
20
-13.3457
11
18
21
-14.9171
0
LINE
8
Black
10
18
20
-13.3457
11
18.1429
21
-13.06
0
LINE
8
Black
10
18.1429
20
-13.06
11
18.4286
21
-12.9171
0
LINE
8
Black
10
18.4286
20
-12.9171
11
18.8571
21
-12.9171
0
LINE
8
Black
10
18.8571
20
-12.9171
11
19.1429
21
-13.06
0
LINE
8
Black
10
19.1429
20
-13.06
11
19.2857
21
-13.3457
0
LINE
8
Black
10
19.2857
20
-13.3457
11
19.2857
21
-14.9171
0
LINE
8
Black
10
25.1429
20
-11.7743
11
22.5714
21
-15.6314
0
LINE
8
Black
10
29
20
-11.9171
11
29.2857
21
-11.9171
0
LINE
8
Black
10
29.2857
20
-11.9171
11
29.5714
21
-12.06
0
LINE
8
Black
10
29.5714
20
-12.06
11
29.7143
21
-12.2029
0
LINE
8
Black
10
29.7143
20
-12.2029
11
29.8571
21
-12.4886
0
LINE
8
Black
10
29.8571
20
-12.4886
11
30
21
-13.06
0
LINE
8
Black
10
30
20
-13.06
11
30
21
-13.7743
0
LINE
8
Black
10
30
20
-13.7743
11
29.8571
21
-14.3457
0
LINE
8
Black
10
29.8571
20
-14.3457
11
29.7143
21
-14.6314
0
LINE
8
Black
10
29.7143
20
-14.6314
11
29.5714
21
-14.7743
0
LINE
8
Black
10
29.5714
20
-14.7743
11
29.2857
21
-14.9171
0
LINE
8
Black
10
29.2857
20
-14.9171
11
29
21
-14.9171
0
LINE
8
Black
10
29
20
-14.9171
11
28.7143
21
-14.7743
0
LINE
8
Black
10
28.7143
20
-14.7743
11
28.5714
21
-14.6314
0
LINE
8
Black
10
28.5714
20
-14.6314
11
28.4286
21
-14.3457
0
LINE
8
Black
10
28.4286
20
-14.3457
11
28.2857
21
-13.7743
0
LINE
8
Black
10
28.2857
20
-13.7743
11
28.2857
21
-13.06
0
LINE
8
Black
10
28.2857
20
-13.06
11
28.4286
21
-12.4886
0
LINE
8
Black
10
28.4286
20
-12.4886
11
28.5714
21
-12.2029
0
LINE
8
Black
10
28.5714
20
-12.2029
11
28.7143
21
-12.06
0
LINE
8
Black
10
28.7143
20
-12.06
11
29
21
-11.9171
0
LINE
8
Black
10
31.2857
20
-14.6314
11
31.4286
21
-14.7743
0
LINE
8
Black
10
31.4286
20
-14.7743
11
31.2857
21
-14.9171
0
LINE
8
Black
10
31.2857
20
-14.9171
11
31.1429
21
-14.7743
0
LINE
8
Black
10
31.1429
20
-14.7743
11
31.2857
21
-14.6314
0
LINE
8
Black
10
31.2857
20
-14.6314
11
31.2857
21
-14.9171
0
LINE
8
Black
10
33.2857
20
-11.9171
11
33.5714
21
-11.9171
0
LINE
8
Black
10
33.5714
20
-11.9171
11
33.8571
21
-12.06
0
LINE
8
Black
10
33.8571
20
-12.06
11
34
21
-12.2029
0
LINE
8
Black
10
34
20
-12.2029
11
34.1429
21
-12.4886
0
LINE
8
Black
10
34.1429
20
-12.4886
11
34.2857
21
-13.06
0
LINE
8
Black
10
34.2857
20
-13.06
11
34.2857
21
-13.7743
0
LINE
8
Black
10
34.2857
20
-13.7743
11
34.1429
21
-14.3457
0
LINE
8
Black
10
34.1429
20
-14.3457
11
34
21
-14.6314
0
LINE
8
Black
10
34
20
-14.6314
11
33.8571
21
-14.7743
0
LINE
8
Black
10
33.8571
20
-14.7743
11
33.5714
21
-14.9171
0
LINE
8
Black
10
33.5714
20
-14.9171
11
33.2857
21
-14.9171
0
LINE
8
Black
10
33.2857
20
-14.9171
11
33
21
-14.7743
0
LINE
8
Black
10
33
20
-14.7743
11
32.8571
21
-14.6314
0
LINE
8
Black
10
32.8571
20
-14.6314
11
32.7143
21
-14.3457
0
LINE
8
Black
10
32.7143
20
-14.3457
11
32.5714
21
-13.7743
0
LINE
8
Black
10
32.5714
20
-13.7743
11
32.5714
21
-13.06
0
LINE
8
Black
10
32.5714
20
-13.06
11
32.7143
21
-12.4886
0
LINE
8
Black
10
32.7143
20
-12.4886
11
32.8571
21
-12.2029
0
LINE
8
Black
10
32.8571
20
-12.2029
11
33
21
-12.06
0
LINE
8
Black
10
33
20
-12.06
11
33.2857
21
-11.9171
0
LINE
8
Black
10
35.2857
20
-11.9171
11
37.1429
21
-11.9171
0
LINE
8
Black
10
37.1429
20
-11.9171
11
36.1429
21
-13.06
0
LINE
8
Black
10
36.1429
20
-13.06
11
36.5714
21
-13.06
0
LINE
8
Black
10
36.5714
20
-13.06
11
36.8571
21
-13.2029
0
LINE
8
Black
10
36.8571
20
-13.2029
11
37
21
-13.3457
0
LINE
8
Black
10
37
20
-13.3457
11
37.1429
21
-13.6314
0
LINE
8
Black
10
37.1429
20
-13.6314
11
37.1429
21
-14.3457
0
LINE
8
Black
10
37.1429
20
-14.3457
11
37
21
-14.6314
0
LINE
8
Black
10
37
20
-14.6314
11
36.8571
21
-14.7743
0
LINE
8
Black
10
36.8571
20
-14.7743
11
36.5714
21
-14.9171
0
LINE
8
Black
10
36.5714
20
-14.9171
11
35.7143
21
-14.9171
0
LINE
8
Black
10
35.7143
20
-14.9171
11
35.4286
21
-14.7743
0
LINE
8
Black
10
35.4286
20
-14.7743
11
35.2857
21
-14.6314
0
LINE
8
Black
10
40
20
-14.9171
11
38.2857
21
-14.9171
0
LINE
8
Black
10
39.1429
20
-14.9171
11
39.1429
21
-11.9171
0
LINE
8
Black
10
39.1429
20
-11.9171
11
38.8571
21
-12.3457
0
LINE
8
Black
10
38.8571
20
-12.3457
11
38.5714
21
-12.6314
0
LINE
8
Black
10
38.5714
20
-12.6314
11
38.2857
21
-12.7743
0
LINE
8
Black
10
41.1429
20
-11.9171
11
41.1429
21
-12.4886
0
LINE
8
Black
10
42.2857
20
-11.9171
11
42.2857
21
-12.4886
0
LINE
8
Black
10
46.7143
20
-16.06
11
46.5714
21
-15.9171
0
LINE
8
Black
10
46.5714
20
-15.9171
11
46.2857
21
-15.4886
0
LINE
8
Black
10
46.2857
20
-15.4886
11
46.1429
21
-15.2029
0
LINE
8
Black
10
46.1429
20
-15.2029
11
46
21
-14.7743
0
LINE
8
Black
10
46
20
-14.7743
11
45.8571
21
-14.06
0
LINE
8
Black
10
45.8571
20
-14.06
11
45.8571
21
-13.4886
0
LINE
8
Black
10
45.8571
20
-13.4886
11
46
21
-12.7743
0
LINE
8
Black
10
46
20
-12.7743
11
46.1429
21
-12.3457
0
LINE
8
Black
10
46.1429
20
-12.3457
11
46.2857
21
-12.06
0
LINE
8
Black
10
46.2857
20
-12.06
11
46.5714
21
-11.6314
0
LINE
8
Black
10
46.5714
20
-11.6314
11
46.7143
21
-11.4886
0
LINE
8
Black
10
48.2857
20
-13.2029
11
48
21
-13.06
0
LINE
8
Black
10
48
20
-13.06
11
47.8571
21
-12.9171
0
LINE
8
Black
10
47.8571
20
-12.9171
11
47.7143
21
-12.6314
0
LINE
8
Black
10
47.7143
20
-12.6314
11
47.7143
21
-12.4886
0
LINE
8
Black
10
47.7143
20
-12.4886
11
47.8571
21
-12.2029
0
LINE
8
Black
10
47.8571
20
-12.2029
11
48
21
-12.06
0
LINE
8
Black
10
48
20
-12.06
11
48.2857
21
-11.9171
0
LINE
8
Black
10
48.2857
20
-11.9171
11
48.8571
21
-11.9171
0
LINE
8
Black
10
48.8571
20
-11.9171
11
49.1429
21
-12.06
0
LINE
8
Black
10
49.1429
20
-12.06
11
49.2857
21
-12.2029
0
LINE
8
Black
10
49.2857
20
-12.2029
11
49.4286
21
-12.4886
0
LINE
8
Black
10
49.4286
20
-12.4886
11
49.4286
21
-12.6314
0
LINE
8
Black
10
49.4286
20
-12.6314
11
49.2857
21
-12.9171
0
LINE
8
Black
10
49.2857
20
-12.9171
11
49.1429
21
-13.06
0
LINE
8
Black
10
49.1429
20
-13.06
11
48.8571
21
-13.2029
0
LINE
8
Black
10
48.8571
20
-13.2029
11
48.2857
21
-13.2029
0
LINE
8
Black
10
48.2857
20
-13.2029
11
48
21
-13.3457
0
LINE
8
Black
10
48
20
-13.3457
11
47.8571
21
-13.4886
0
LINE
8
Black
10
47.8571
20
-13.4886
11
47.7143
21
-13.7743
0
LINE
8
Black
10
47.7143
20
-13.7743
11
47.7143
21
-14.3457
0
LINE
8
Black
10
47.7143
20
-14.3457
11
47.8571
21
-14.6314
0
LINE
8
Black
10
47.8571
20
-14.6314
11
48
21
-14.7743
0
LINE
8
Black
10
48
20
-14.7743
11
48.2857
21
-14.9171
0
LINE
8
Black
10
48.2857
20
-14.9171
11
48.8571
21
-14.9171
0
LINE
8
Black
10
48.8571
20
-14.9171
11
49.1429
21
-14.7743
0
LINE
8
Black
10
49.1429
20
-14.7743
11
49.2857
21
-14.6314
0
LINE
8
Black
10
49.2857
20
-14.6314
11
49.4286
21
-14.3457
0
LINE
8
Black
10
49.4286
20
-14.3457
11
49.4286
21
-13.7743
0
LINE
8
Black
10
49.4286
20
-13.7743
11
49.2857
21
-13.4886
0
LINE
8
Black
10
49.2857
20
-13.4886
11
49.1429
21
-13.3457
0
LINE
8
Black
10
49.1429
20
-13.3457
11
48.8571
21
-13.2029
0
LINE
8
Black
10
53
20
-14.9171
11
53
21
-11.9171
0
LINE
8
Black
10
54.2857
20
-14.9171
11
54.2857
21
-13.3457
0
LINE
8
Black
10
54.2857
20
-13.3457
11
54.1429
21
-13.06
0
LINE
8
Black
10
54.1429
20
-13.06
11
53.8571
21
-12.9171
0
LINE
8
Black
10
53.8571
20
-12.9171
11
53.4286
21
-12.9171
0
LINE
8
Black
10
53.4286
20
-12.9171
11
53.1429
21
-13.06
0
LINE
8
Black
10
53.1429
20
-13.06
11
53
21
-13.2029
0
LINE
8
Black
10
56.1429
20
-14.9171
11
55.8571
21
-14.7743
0
LINE
8
Black
10
55.8571
20
-14.7743
11
55.7143
21
-14.6314
0
LINE
8
Black
10
55.7143
20
-14.6314
11
55.5714
21
-14.3457
0
LINE
8
Black
10
55.5714
20
-14.3457
11
55.5714
21
-13.4886
0
LINE
8
Black
10
55.5714
20
-13.4886
11
55.7143
21
-13.2029
0
LINE
8
Black
10
55.7143
20
-13.2029
11
55.8571
21
-13.06
0
LINE
8
Black
10
55.8571
20
-13.06
11
56.1429
21
-12.9171
0
LINE
8
Black
10
56.1429
20
-12.9171
11
56.5714
21
-12.9171
0
LINE
8
Black
10
56.5714
20
-12.9171
11
56.8571
21
-13.06
0
LINE
8
Black
10
56.8571
20
-13.06
11
57
21
-13.2029
0
LINE
8
Black
10
57
20
-13.2029
11
57.1429
21
-13.4886
0
LINE
8
Black
10
57.1429
20
-13.4886
11
57.1429
21
-14.3457
0
LINE
8
Black
10
57.1429
20
-14.3457
11
57
21
-14.6314
0
LINE
8
Black
10
57
20
-14.6314
11
56.8571
21
-14.7743
0
LINE
8
Black
10
56.8571
20
-14.7743
11
56.5714
21
-14.9171
0
LINE
8
Black
10
56.5714
20
-14.9171
11
56.1429
21
-14.9171
0
LINE
8
Black
10
58.8571
20
-14.9171
11
58.5714
21
-14.7743
0
LINE
8
Black
10
58.5714
20
-14.7743
11
58.4286
21
-14.4886
0
LINE
8
Black
10
58.4286
20
-14.4886
11
58.4286
21
-11.9171
0
LINE
8
Black
10
61.1429
20
-14.7743
11
60.8571
21
-14.9171
0
LINE
8
Black
10
60.8571
20
-14.9171
11
60.2857
21
-14.9171
0
LINE
8
Black
10
60.2857
20
-14.9171
11
60
21
-14.7743
0
LINE
8
Black
10
60
20
-14.7743
11
59.8571
21
-14.4886
0
LINE
8
Black
10
59.8571
20
-14.4886
11
59.8571
21
-13.3457
0
LINE
8
Black
10
59.8571
20
-13.3457
11
60
21
-13.06
0
LINE
8
Black
10
60
20
-13.06
11
60.2857
21
-12.9171
0
LINE
8
Black
10
60.2857
20
-12.9171
11
60.8571
21
-12.9171
0
LINE
8
Black
10
60.8571
20
-12.9171
11
61.1429
21
-13.06
0
LINE
8
Black
10
61.1429
20
-13.06
11
61.2857
21
-13.3457
0
LINE
8
Black
10
61.2857
20
-13.3457
11
61.2857
21
-13.6314
0
LINE
8
Black
10
61.2857
20
-13.6314
11
59.8571
21
-13.9171
0
LINE
8
Black
10
62.4286
20
-14.7743
11
62.7143
21
-14.9171
0
LINE
8
Black
10
62.7143
20
-14.9171
11
63.2857
21
-14.9171
0
LINE
8
Black
10
63.2857
20
-14.9171
11
63.5714
21
-14.7743
0
LINE
8
Black
10
63.5714
20
-14.7743
11
63.7143
21
-14.4886
0
LINE
8
Black
10
63.7143
20
-14.4886
11
63.7143
21
-14.3457
0
LINE
8
Black
10
63.7143
20
-14.3457
11
63.5714
21
-14.06
0
LINE
8
Black
10
63.5714
20
-14.06
11
63.2857
21
-13.9171
0
LINE
8
Black
10
63.2857
20
-13.9171
11
62.8571
21
-13.9171
0
LINE
8
Black
10
62.8571
20
-13.9171
11
62.5714
21
-13.7743
0
LINE
8
Black
10
62.5714
20
-13.7743
11
62.4286
21
-13.4886
0
LINE
8
Black
10
62.4286
20
-13.4886
11
62.4286
21
-13.3457
0
LINE
8
Black
10
62.4286
20
-13.3457
11
62.5714
21
-13.06
0
LINE
8
Black
10
62.5714
20
-13.06
11
62.8571
21
-12.9171
0
LINE
8
Black
10
62.8571
20
-12.9171
11
63.2857
21
-12.9171
0
LINE
8
Black
10
63.2857
20
-12.9171
11
63.5714
21
-13.06
0
LINE
8
Black
10
64.7143
20
-16.06
11
64.8571
21
-15.9171
0
LINE
8
Black
10
64.8571
20
-15.9171
11
65.1429
21
-15.4886
0
LINE
8
Black
10
65.1429
20
-15.4886
11
65.2857
21
-15.2029
0
LINE
8
Black
10
65.2857
20
-15.2029
11
65.4286
21
-14.7743
0
LINE
8
Black
10
65.4286
20
-14.7743
11
65.5714
21
-14.06
0
LINE
8
Black
10
65.5714
20
-14.06
11
65.5714
21
-13.4886
0
LINE
8
Black
10
65.5714
20
-13.4886
11
65.4286
21
-12.7743
0
LINE
8
Black
10
65.4286
20
-12.7743
11
65.2857
21
-12.3457
0
LINE
8
Black
10
65.2857
20
-12.3457
11
65.1429
21
-12.06
0
LINE
8
Black
10
65.1429
20
-12.06
11
64.8571
21
-11.6314
0
LINE
8
Black
10
64.8571
20
-11.6314
11
64.7143
21
-11.4886
0
LINE
8
Black
10
-0.45
20
-17.07
11
-0.45
21
-17.97
0
LINE
8
Black
10
-0.9
20
-17.52
11
0
21
-17.52
0
LINE
8
Black
10
3.28571
20
-15.8771
11
3.57143
21
-15.8771
0
LINE
8
Black
10
3.57143
20
-15.8771
11
3.85714
21
-16.02
0
LINE
8
Black
10
3.85714
20
-16.02
11
4
21
-16.1629
0
LINE
8
Black
10
4
20
-16.1629
11
4.14286
21
-16.4486
0
LINE
8
Black
10
4.14286
20
-16.4486
11
4.28571
21
-17.02
0
LINE
8
Black
10
4.28571
20
-17.02
11
4.28571
21
-17.7343
0
LINE
8
Black
10
4.28571
20
-17.7343
11
4.14286
21
-18.3057
0
LINE
8
Black
10
4.14286
20
-18.3057
11
4
21
-18.5914
0
LINE
8
Black
10
4
20
-18.5914
11
3.85714
21
-18.7343
0
LINE
8
Black
10
3.85714
20
-18.7343
11
3.57143
21
-18.8771
0
LINE
8
Black
10
3.57143
20
-18.8771
11
3.28571
21
-18.8771
0
LINE
8
Black
10
3.28571
20
-18.8771
11
3
21
-18.7343
0
LINE
8
Black
10
3
20
-18.7343
11
2.85714
21
-18.5914
0
LINE
8
Black
10
2.85714
20
-18.5914
11
2.71429
21
-18.3057
0
LINE
8
Black
10
2.71429
20
-18.3057
11
2.57143
21
-17.7343
0
LINE
8
Black
10
2.57143
20
-17.7343
11
2.57143
21
-17.02
0
LINE
8
Black
10
2.57143
20
-17.02
11
2.71429
21
-16.4486
0
LINE
8
Black
10
2.71429
20
-16.4486
11
2.85714
21
-16.1629
0
LINE
8
Black
10
2.85714
20
-16.1629
11
3
21
-16.02
0
LINE
8
Black
10
3
20
-16.02
11
3.28571
21
-15.8771
0
LINE
8
Black
10
5.57143
20
-18.5914
11
5.71429
21
-18.7343
0
LINE
8
Black
10
5.71429
20
-18.7343
11
5.57143
21
-18.8771
0
LINE
8
Black
10
5.57143
20
-18.8771
11
5.42857
21
-18.7343
0
LINE
8
Black
10
5.42857
20
-18.7343
11
5.57143
21
-18.5914
0
LINE
8
Black
10
5.57143
20
-18.5914
11
5.57143
21
-18.8771
0
LINE
8
Black
10
7.14286
20
-18.8771
11
7.71428
21
-18.8771
0
LINE
8
Black
10
7.71428
20
-18.8771
11
8
21
-18.7343
0
LINE
8
Black
10
8
20
-18.7343
11
8.14286
21
-18.5914
0
LINE
8
Black
10
8.14286
20
-18.5914
11
8.42857
21
-18.1629
0
LINE
8
Black
10
8.42857
20
-18.1629
11
8.57143
21
-17.5914
0
LINE
8
Black
10
8.57143
20
-17.5914
11
8.57143
21
-16.4486
0
LINE
8
Black
10
8.57143
20
-16.4486
11
8.42857
21
-16.1629
0
LINE
8
Black
10
8.42857
20
-16.1629
11
8.28571
21
-16.02
0
LINE
8
Black
10
8.28571
20
-16.02
11
8
21
-15.8771
0
LINE
8
Black
10
8
20
-15.8771
11
7.42857
21
-15.8771
0
LINE
8
Black
10
7.42857
20
-15.8771
11
7.14286
21
-16.02
0
LINE
8
Black
10
7.14286
20
-16.02
11
7
21
-16.1629
0
LINE
8
Black
10
7
20
-16.1629
11
6.85714
21
-16.4486
0
LINE
8
Black
10
6.85714
20
-16.4486
11
6.85714
21
-17.1629
0
LINE
8
Black
10
6.85714
20
-17.1629
11
7
21
-17.4486
0
LINE
8
Black
10
7
20
-17.4486
11
7.14286
21
-17.5914
0
LINE
8
Black
10
7.14286
20
-17.5914
11
7.42857
21
-17.7343
0
LINE
8
Black
10
7.42857
20
-17.7343
11
8
21
-17.7343
0
LINE
8
Black
10
8
20
-17.7343
11
8.28571
21
-17.5914
0
LINE
8
Black
10
8.28571
20
-17.5914
11
8.42857
21
-17.4486
0
LINE
8
Black
10
8.42857
20
-17.4486
11
8.57143
21
-17.1629
0
LINE
8
Black
10
10.4286
20
-15.8771
11
10.7143
21
-15.8771
0
LINE
8
Black
10
10.7143
20
-15.8771
11
11
21
-16.02
0
LINE
8
Black
10
11
20
-16.02
11
11.1429
21
-16.1629
0
LINE
8
Black
10
11.1429
20
-16.1629
11
11.2857
21
-16.4486
0
LINE
8
Black
10
11.2857
20
-16.4486
11
11.4286
21
-17.02
0
LINE
8
Black
10
11.4286
20
-17.02
11
11.4286
21
-17.7343
0
LINE
8
Black
10
11.4286
20
-17.7343
11
11.2857
21
-18.3057
0
LINE
8
Black
10
11.2857
20
-18.3057
11
11.1429
21
-18.5914
0
LINE
8
Black
10
11.1429
20
-18.5914
11
11
21
-18.7343
0
LINE
8
Black
10
11
20
-18.7343
11
10.7143
21
-18.8771
0
LINE
8
Black
10
10.7143
20
-18.8771
11
10.4286
21
-18.8771
0
LINE
8
Black
10
10.4286
20
-18.8771
11
10.1429
21
-18.7343
0
LINE
8
Black
10
10.1429
20
-18.7343
11
10
21
-18.5914
0
LINE
8
Black
10
10
20
-18.5914
11
9.85714
21
-18.3057
0
LINE
8
Black
10
9.85714
20
-18.3057
11
9.71429
21
-17.7343
0
LINE
8
Black
10
9.71429
20
-17.7343
11
9.71429
21
-17.02
0
LINE
8
Black
10
9.71429
20
-17.02
11
9.85714
21
-16.4486
0
LINE
8
Black
10
9.85714
20
-16.4486
11
10
21
-16.1629
0
LINE
8
Black
10
10
20
-16.1629
11
10.1429
21
-16.02
0
LINE
8
Black
10
10.1429
20
-16.02
11
10.4286
21
-15.8771
0
LINE
8
Black
10
12.7143
20
-18.8771
11
12.7143
21
-16.8771
0
LINE
8
Black
10
12.7143
20
-17.1629
11
12.8571
21
-17.02
0
LINE
8
Black
10
12.8571
20
-17.02
11
13.1429
21
-16.8771
0
LINE
8
Black
10
13.1429
20
-16.8771
11
13.5714
21
-16.8771
0
LINE
8
Black
10
13.5714
20
-16.8771
11
13.8571
21
-17.02
0
LINE
8
Black
10
13.8571
20
-17.02
11
14
21
-17.3057
0
LINE
8
Black
10
14
20
-17.3057
11
14
21
-18.8771
0
LINE
8
Black
10
14
20
-17.3057
11
14.1429
21
-17.02
0
LINE
8
Black
10
14.1429
20
-17.02
11
14.4286
21
-16.8771
0
LINE
8
Black
10
14.4286
20
-16.8771
11
14.8571
21
-16.8771
0
LINE
8
Black
10
14.8571
20
-16.8771
11
15.1429
21
-17.02
0
LINE
8
Black
10
15.1429
20
-17.02
11
15.2857
21
-17.3057
0
LINE
8
Black
10
15.2857
20
-17.3057
11
15.2857
21
-18.8771
0
LINE
8
Black
10
16.7143
20
-18.8771
11
16.7143
21
-16.8771
0
LINE
8
Black
10
16.7143
20
-17.1629
11
16.8571
21
-17.02
0
LINE
8
Black
10
16.8571
20
-17.02
11
17.1429
21
-16.8771
0
LINE
8
Black
10
17.1429
20
-16.8771
11
17.5714
21
-16.8771
0
LINE
8
Black
10
17.5714
20
-16.8771
11
17.8571
21
-17.02
0
LINE
8
Black
10
17.8571
20
-17.02
11
18
21
-17.3057
0
LINE
8
Black
10
18
20
-17.3057
11
18
21
-18.8771
0
LINE
8
Black
10
18
20
-17.3057
11
18.1429
21
-17.02
0
LINE
8
Black
10
18.1429
20
-17.02
11
18.4286
21
-16.8771
0
LINE
8
Black
10
18.4286
20
-16.8771
11
18.8571
21
-16.8771
0
LINE
8
Black
10
18.8571
20
-16.8771
11
19.1429
21
-17.02
0
LINE
8
Black
10
19.1429
20
-17.02
11
19.2857
21
-17.3057
0
LINE
8
Black
10
19.2857
20
-17.3057
11
19.2857
21
-18.8771
0
LINE
8
Black
10
25.1429
20
-15.7343
11
22.5714
21
-19.5914
0
LINE
8
Black
10
29
20
-15.8771
11
29.2857
21
-15.8771
0
LINE
8
Black
10
29.2857
20
-15.8771
11
29.5714
21
-16.02
0
LINE
8
Black
10
29.5714
20
-16.02
11
29.7143
21
-16.1629
0
LINE
8
Black
10
29.7143
20
-16.1629
11
29.8571
21
-16.4486
0
LINE
8
Black
10
29.8571
20
-16.4486
11
30
21
-17.02
0
LINE
8
Black
10
30
20
-17.02
11
30
21
-17.7343
0
LINE
8
Black
10
30
20
-17.7343
11
29.8571
21
-18.3057
0
LINE
8
Black
10
29.8571
20
-18.3057
11
29.7143
21
-18.5914
0
LINE
8
Black
10
29.7143
20
-18.5914
11
29.5714
21
-18.7343
0
LINE
8
Black
10
29.5714
20
-18.7343
11
29.2857
21
-18.8771
0
LINE
8
Black
10
29.2857
20
-18.8771
11
29
21
-18.8771
0
LINE
8
Black
10
29
20
-18.8771
11
28.7143
21
-18.7343
0
LINE
8
Black
10
28.7143
20
-18.7343
11
28.5714
21
-18.5914
0
LINE
8
Black
10
28.5714
20
-18.5914
11
28.4286
21
-18.3057
0
LINE
8
Black
10
28.4286
20
-18.3057
11
28.2857
21
-17.7343
0
LINE
8
Black
10
28.2857
20
-17.7343
11
28.2857
21
-17.02
0
LINE
8
Black
10
28.2857
20
-17.02
11
28.4286
21
-16.4486
0
LINE
8
Black
10
28.4286
20
-16.4486
11
28.5714
21
-16.1629
0
LINE
8
Black
10
28.5714
20
-16.1629
11
28.7143
21
-16.02
0
LINE
8
Black
10
28.7143
20
-16.02
11
29
21
-15.8771
0
LINE
8
Black
10
31.2857
20
-18.5914
11
31.4286
21
-18.7343
0
LINE
8
Black
10
31.4286
20
-18.7343
11
31.2857
21
-18.8771
0
LINE
8
Black
10
31.2857
20
-18.8771
11
31.1429
21
-18.7343
0
LINE
8
Black
10
31.1429
20
-18.7343
11
31.2857
21
-18.5914
0
LINE
8
Black
10
31.2857
20
-18.5914
11
31.2857
21
-18.8771
0
LINE
8
Black
10
33.2857
20
-15.8771
11
33.5714
21
-15.8771
0
LINE
8
Black
10
33.5714
20
-15.8771
11
33.8571
21
-16.02
0
LINE
8
Black
10
33.8571
20
-16.02
11
34
21
-16.1629
0
LINE
8
Black
10
34
20
-16.1629
11
34.1429
21
-16.4486
0
LINE
8
Black
10
34.1429
20
-16.4486
11
34.2857
21
-17.02
0
LINE
8
Black
10
34.2857
20
-17.02
11
34.2857
21
-17.7343
0
LINE
8
Black
10
34.2857
20
-17.7343
11
34.1429
21
-18.3057
0
LINE
8
Black
10
34.1429
20
-18.3057
11
34
21
-18.5914
0
LINE
8
Black
10
34
20
-18.5914
11
33.8571
21
-18.7343
0
LINE
8
Black
10
33.8571
20
-18.7343
11
33.5714
21
-18.8771
0
LINE
8
Black
10
33.5714
20
-18.8771
11
33.2857
21
-18.8771
0
LINE
8
Black
10
33.2857
20
-18.8771
11
33
21
-18.7343
0
LINE
8
Black
10
33
20
-18.7343
11
32.8571
21
-18.5914
0
LINE
8
Black
10
32.8571
20
-18.5914
11
32.7143
21
-18.3057
0
LINE
8
Black
10
32.7143
20
-18.3057
11
32.5714
21
-17.7343
0
LINE
8
Black
10
32.5714
20
-17.7343
11
32.5714
21
-17.02
0
LINE
8
Black
10
32.5714
20
-17.02
11
32.7143
21
-16.4486
0
LINE
8
Black
10
32.7143
20
-16.4486
11
32.8571
21
-16.1629
0
LINE
8
Black
10
32.8571
20
-16.1629
11
33
21
-16.02
0
LINE
8
Black
10
33
20
-16.02
11
33.2857
21
-15.8771
0
LINE
8
Black
10
35.2857
20
-15.8771
11
37.1429
21
-15.8771
0
LINE
8
Black
10
37.1429
20
-15.8771
11
36.1429
21
-17.02
0
LINE
8
Black
10
36.1429
20
-17.02
11
36.5714
21
-17.02
0
LINE
8
Black
10
36.5714
20
-17.02
11
36.8571
21
-17.1629
0
LINE
8
Black
10
36.8571
20
-17.1629
11
37
21
-17.3057
0
LINE
8
Black
10
37
20
-17.3057
11
37.1429
21
-17.5914
0
LINE
8
Black
10
37.1429
20
-17.5914
11
37.1429
21
-18.3057
0
LINE
8
Black
10
37.1429
20
-18.3057
11
37
21
-18.5914
0
LINE
8
Black
10
37
20
-18.5914
11
36.8571
21
-18.7343
0
LINE
8
Black
10
36.8571
20
-18.7343
11
36.5714
21
-18.8771
0
LINE
8
Black
10
36.5714
20
-18.8771
11
35.7143
21
-18.8771
0
LINE
8
Black
10
35.7143
20
-18.8771
11
35.4286
21
-18.7343
0
LINE
8
Black
10
35.4286
20
-18.7343
11
35.2857
21
-18.5914
0
LINE
8
Black
10
39.8571
20
-15.8771
11
38.4286
21
-15.8771
0
LINE
8
Black
10
38.4286
20
-15.8771
11
38.2857
21
-17.3057
0
LINE
8
Black
10
38.2857
20
-17.3057
11
38.4286
21
-17.1629
0
LINE
8
Black
10
38.4286
20
-17.1629
11
38.7143
21
-17.02
0
LINE
8
Black
10
38.7143
20
-17.02
11
39.4286
21
-17.02
0
LINE
8
Black
10
39.4286
20
-17.02
11
39.7143
21
-17.1629
0
LINE
8
Black
10
39.7143
20
-17.1629
11
39.8571
21
-17.3057
0
LINE
8
Black
10
39.8571
20
-17.3057
11
40
21
-17.5914
0
LINE
8
Black
10
40
20
-17.5914
11
40
21
-18.3057
0
LINE
8
Black
10
40
20
-18.3057
11
39.8571
21
-18.5914
0
LINE
8
Black
10
39.8571
20
-18.5914
11
39.7143
21
-18.7343
0
LINE
8
Black
10
39.7143
20
-18.7343
11
39.4286
21
-18.8771
0
LINE
8
Black
10
39.4286
20
-18.8771
11
38.7143
21
-18.8771
0
LINE
8
Black
10
38.7143
20
-18.8771
11
38.4286
21
-18.7343
0
LINE
8
Black
10
38.4286
20
-18.7343
11
38.2857
21
-18.5914
0
LINE
8
Black
10
41.1429
20
-15.8771
11
41.1429
21
-16.4486
0
LINE
8
Black
10
42.2857
20
-15.8771
11
42.2857
21
-16.4486
0
LINE
8
Black
10
46.7143
20
-20.02
11
46.5714
21
-19.8771
0
LINE
8
Black
10
46.5714
20
-19.8771
11
46.2857
21
-19.4486
0
LINE
8
Black
10
46.2857
20
-19.4486
11
46.1429
21
-19.1629
0
LINE
8
Black
10
46.1429
20
-19.1629
11
46
21
-18.7343
0
LINE
8
Black
10
46
20
-18.7343
11
45.8571
21
-18.02
0
LINE
8
Black
10
45.8571
20
-18.02
11
45.8571
21
-17.4486
0
LINE
8
Black
10
45.8571
20
-17.4486
11
46
21
-16.7343
0
LINE
8
Black
10
46
20
-16.7343
11
46.1429
21
-16.3057
0
LINE
8
Black
10
46.1429
20
-16.3057
11
46.2857
21
-16.02
0
LINE
8
Black
10
46.2857
20
-16.02
11
46.5714
21
-15.5914
0
LINE
8
Black
10
46.5714
20
-15.5914
11
46.7143
21
-15.4486
0
LINE
8
Black
10
49.1429
20
-16.8771
11
49.1429
21
-18.8771
0
LINE
8
Black
10
48.4286
20
-15.7343
11
47.7143
21
-17.8771
0
LINE
8
Black
10
47.7143
20
-17.8771
11
49.5714
21
-17.8771
0
LINE
8
Black
10
53
20
-18.8771
11
53
21
-15.8771
0
LINE
8
Black
10
54.2857
20
-18.8771
11
54.2857
21
-17.3057
0
LINE
8
Black
10
54.2857
20
-17.3057
11
54.1429
21
-17.02
0
LINE
8
Black
10
54.1429
20
-17.02
11
53.8571
21
-16.8771
0
LINE
8
Black
10
53.8571
20
-16.8771
11
53.4286
21
-16.8771
0
LINE
8
Black
10
53.4286
20
-16.8771
11
53.1429
21
-17.02
0
LINE
8
Black
10
53.1429
20
-17.02
11
53
21
-17.1629
0
LINE
8
Black
10
56.1429
20
-18.8771
11
55.8571
21
-18.7343
0
LINE
8
Black
10
55.8571
20
-18.7343
11
55.7143
21
-18.5914
0
LINE
8
Black
10
55.7143
20
-18.5914
11
55.5714
21
-18.3057
0
LINE
8
Black
10
55.5714
20
-18.3057
11
55.5714
21
-17.4486
0
LINE
8
Black
10
55.5714
20
-17.4486
11
55.7143
21
-17.1629
0
LINE
8
Black
10
55.7143
20
-17.1629
11
55.8571
21
-17.02
0
LINE
8
Black
10
55.8571
20
-17.02
11
56.1429
21
-16.8771
0
LINE
8
Black
10
56.1429
20
-16.8771
11
56.5714
21
-16.8771
0
LINE
8
Black
10
56.5714
20
-16.8771
11
56.8571
21
-17.02
0
LINE
8
Black
10
56.8571
20
-17.02
11
57
21
-17.1629
0
LINE
8
Black
10
57
20
-17.1629
11
57.1429
21
-17.4486
0
LINE
8
Black
10
57.1429
20
-17.4486
11
57.1429
21
-18.3057
0
LINE
8
Black
10
57.1429
20
-18.3057
11
57
21
-18.5914
0
LINE
8
Black
10
57
20
-18.5914
11
56.8571
21
-18.7343
0
LINE
8
Black
10
56.8571
20
-18.7343
11
56.5714
21
-18.8771
0
LINE
8
Black
10
56.5714
20
-18.8771
11
56.1429
21
-18.8771
0
LINE
8
Black
10
58.8571
20
-18.8771
11
58.5714
21
-18.7343
0
LINE
8
Black
10
58.5714
20
-18.7343
11
58.4286
21
-18.4486
0
LINE
8
Black
10
58.4286
20
-18.4486
11
58.4286
21
-15.8771
0
LINE
8
Black
10
61.1429
20
-18.7343
11
60.8571
21
-18.8771
0
LINE
8
Black
10
60.8571
20
-18.8771
11
60.2857
21
-18.8771
0
LINE
8
Black
10
60.2857
20
-18.8771
11
60
21
-18.7343
0
LINE
8
Black
10
60
20
-18.7343
11
59.8571
21
-18.4486
0
LINE
8
Black
10
59.8571
20
-18.4486
11
59.8571
21
-17.3057
0
LINE
8
Black
10
59.8571
20
-17.3057
11
60
21
-17.02
0
LINE
8
Black
10
60
20
-17.02
11
60.2857
21
-16.8771
0
LINE
8
Black
10
60.2857
20
-16.8771
11
60.8571
21
-16.8771
0
LINE
8
Black
10
60.8571
20
-16.8771
11
61.1429
21
-17.02
0
LINE
8
Black
10
61.1429
20
-17.02
11
61.2857
21
-17.3057
0
LINE
8
Black
10
61.2857
20
-17.3057
11
61.2857
21
-17.5914
0
LINE
8
Black
10
61.2857
20
-17.5914
11
59.8571
21
-17.8771
0
LINE
8
Black
10
62.4286
20
-18.7343
11
62.7143
21
-18.8771
0
LINE
8
Black
10
62.7143
20
-18.8771
11
63.2857
21
-18.8771
0
LINE
8
Black
10
63.2857
20
-18.8771
11
63.5714
21
-18.7343
0
LINE
8
Black
10
63.5714
20
-18.7343
11
63.7143
21
-18.4486
0
LINE
8
Black
10
63.7143
20
-18.4486
11
63.7143
21
-18.3057
0
LINE
8
Black
10
63.7143
20
-18.3057
11
63.5714
21
-18.02
0
LINE
8
Black
10
63.5714
20
-18.02
11
63.2857
21
-17.8771
0
LINE
8
Black
10
63.2857
20
-17.8771
11
62.8571
21
-17.8771
0
LINE
8
Black
10
62.8571
20
-17.8771
11
62.5714
21
-17.7343
0
LINE
8
Black
10
62.5714
20
-17.7343
11
62.4286
21
-17.4486
0
LINE
8
Black
10
62.4286
20
-17.4486
11
62.4286
21
-17.3057
0
LINE
8
Black
10
62.4286
20
-17.3057
11
62.5714
21
-17.02
0
LINE
8
Black
10
62.5714
20
-17.02
11
62.8571
21
-16.8771
0
LINE
8
Black
10
62.8571
20
-16.8771
11
63.2857
21
-16.8771
0
LINE
8
Black
10
63.2857
20
-16.8771
11
63.5714
21
-17.02
0
LINE
8
Black
10
64.7143
20
-20.02
11
64.8571
21
-19.8771
0
LINE
8
Black
10
64.8571
20
-19.8771
11
65.1429
21
-19.4486
0
LINE
8
Black
10
65.1429
20
-19.4486
11
65.2857
21
-19.1629
0
LINE
8
Black
10
65.2857
20
-19.1629
11
65.4286
21
-18.7343
0
LINE
8
Black
10
65.4286
20
-18.7343
11
65.5714
21
-18.02
0
LINE
8
Black
10
65.5714
20
-18.02
11
65.5714
21
-17.4486
0
LINE
8
Black
10
65.5714
20
-17.4486
11
65.4286
21
-16.7343
0
LINE
8
Black
10
65.4286
20
-16.7343
11
65.2857
21
-16.3057
0
LINE
8
Black
10
65.2857
20
-16.3057
11
65.1429
21
-16.02
0
LINE
8
Black
10
65.1429
20
-16.02
11
64.8571
21
-15.5914
0
LINE
8
Black
10
64.8571
20
-15.5914
11
64.7143
21
-15.4486
0
LINE
8
Black
10
-0.146443
20
-21.8336
11
-0.146443
21
-21.1264
0
LINE
8
Black
10
-0.146443
20
-21.1264
11
-0.853557
21
-21.1264
0
LINE
8
Black
10
-0.853557
20
-21.1264
11
-0.853557
21
-21.8336
0
LINE
8
Black
10
-0.853557
20
-21.8336
11
-0.146443
21
-21.8336
0
LINE
8
Black
10
4.28571
20
-22.8371
11
2.57143
21
-22.8371
0
LINE
8
Black
10
3.42857
20
-22.8371
11
3.42857
21
-19.8371
0
LINE
8
Black
10
3.42857
20
-19.8371
11
3.14286
21
-20.2657
0
LINE
8
Black
10
3.14286
20
-20.2657
11
2.85714
21
-20.5514
0
LINE
8
Black
10
2.85714
20
-20.5514
11
2.57143
21
-20.6943
0
LINE
8
Black
10
5.57143
20
-22.5514
11
5.71429
21
-22.6943
0
LINE
8
Black
10
5.71429
20
-22.6943
11
5.57143
21
-22.8371
0
LINE
8
Black
10
5.57143
20
-22.8371
11
5.42857
21
-22.6943
0
LINE
8
Black
10
5.42857
20
-22.6943
11
5.57143
21
-22.5514
0
LINE
8
Black
10
5.57143
20
-22.5514
11
5.57143
21
-22.8371
0
LINE
8
Black
10
7.57143
20
-19.8371
11
7.85714
21
-19.8371
0
LINE
8
Black
10
7.85714
20
-19.8371
11
8.14286
21
-19.98
0
LINE
8
Black
10
8.14286
20
-19.98
11
8.28571
21
-20.1229
0
LINE
8
Black
10
8.28571
20
-20.1229
11
8.42857
21
-20.4086
0
LINE
8
Black
10
8.42857
20
-20.4086
11
8.57143
21
-20.98
0
LINE
8
Black
10
8.57143
20
-20.98
11
8.57143
21
-21.6943
0
LINE
8
Black
10
8.57143
20
-21.6943
11
8.42857
21
-22.2657
0
LINE
8
Black
10
8.42857
20
-22.2657
11
8.28571
21
-22.5514
0
LINE
8
Black
10
8.28571
20
-22.5514
11
8.14286
21
-22.6943
0
LINE
8
Black
10
8.14286
20
-22.6943
11
7.85714
21
-22.8371
0
LINE
8
Black
10
7.85714
20
-22.8371
11
7.57143
21
-22.8371
0
LINE
8
Black
10
7.57143
20
-22.8371
11
7.28571
21
-22.6943
0
LINE
8
Black
10
7.28571
20
-22.6943
11
7.14286
21
-22.5514
0
LINE
8
Black
10
7.14286
20
-22.5514
11
7
21
-22.2657
0
LINE
8
Black
10
7
20
-22.2657
11
6.85714
21
-21.6943
0
LINE
8
Black
10
6.85714
20
-21.6943
11
6.85714
21
-20.98
0
LINE
8
Black
10
6.85714
20
-20.98
11
7
21
-20.4086
0
LINE
8
Black
10
7
20
-20.4086
11
7.14286
21
-20.1229
0
LINE
8
Black
10
7.14286
20
-20.1229
11
7.28571
21
-19.98
0
LINE
8
Black
10
7.28571
20
-19.98
11
7.57143
21
-19.8371
0
LINE
8
Black
10
10.4286
20
-19.8371
11
10.7143
21
-19.8371
0
LINE
8
Black
10
10.7143
20
-19.8371
11
11
21
-19.98
0
LINE
8
Black
10
11
20
-19.98
11
11.1429
21
-20.1229
0
LINE
8
Black
10
11.1429
20
-20.1229
11
11.2857
21
-20.4086
0
LINE
8
Black
10
11.2857
20
-20.4086
11
11.4286
21
-20.98
0
LINE
8
Black
10
11.4286
20
-20.98
11
11.4286
21
-21.6943
0
LINE
8
Black
10
11.4286
20
-21.6943
11
11.2857
21
-22.2657
0
LINE
8
Black
10
11.2857
20
-22.2657
11
11.1429
21
-22.5514
0
LINE
8
Black
10
11.1429
20
-22.5514
11
11
21
-22.6943
0
LINE
8
Black
10
11
20
-22.6943
11
10.7143
21
-22.8371
0
LINE
8
Black
10
10.7143
20
-22.8371
11
10.4286
21
-22.8371
0
LINE
8
Black
10
10.4286
20
-22.8371
11
10.1429
21
-22.6943
0
LINE
8
Black
10
10.1429
20
-22.6943
11
10
21
-22.5514
0
LINE
8
Black
10
10
20
-22.5514
11
9.85714
21
-22.2657
0
LINE
8
Black
10
9.85714
20
-22.2657
11
9.71429
21
-21.6943
0
LINE
8
Black
10
9.71429
20
-21.6943
11
9.71429
21
-20.98
0
LINE
8
Black
10
9.71429
20
-20.98
11
9.85714
21
-20.4086
0
LINE
8
Black
10
9.85714
20
-20.4086
11
10
21
-20.1229
0
LINE
8
Black
10
10
20
-20.1229
11
10.1429
21
-19.98
0
LINE
8
Black
10
10.1429
20
-19.98
11
10.4286
21
-19.8371
0
LINE
8
Black
10
12.7143
20
-22.8371
11
12.7143
21
-20.8371
0
LINE
8
Black
10
12.7143
20
-21.1229
11
12.8571
21
-20.98
0
LINE
8
Black
10
12.8571
20
-20.98
11
13.1429
21
-20.8371
0
LINE
8
Black
10
13.1429
20
-20.8371
11
13.5714
21
-20.8371
0
LINE
8
Black
10
13.5714
20
-20.8371
11
13.8571
21
-20.98
0
LINE
8
Black
10
13.8571
20
-20.98
11
14
21
-21.2657
0
LINE
8
Black
10
14
20
-21.2657
11
14
21
-22.8371
0
LINE
8
Black
10
14
20
-21.2657
11
14.1429
21
-20.98
0
LINE
8
Black
10
14.1429
20
-20.98
11
14.4286
21
-20.8371
0
LINE
8
Black
10
14.4286
20
-20.8371
11
14.8571
21
-20.8371
0
LINE
8
Black
10
14.8571
20
-20.8371
11
15.1429
21
-20.98
0
LINE
8
Black
10
15.1429
20
-20.98
11
15.2857
21
-21.2657
0
LINE
8
Black
10
15.2857
20
-21.2657
11
15.2857
21
-22.8371
0
LINE
8
Black
10
16.7143
20
-22.8371
11
16.7143
21
-20.8371
0
LINE
8
Black
10
16.7143
20
-21.1229
11
16.8571
21
-20.98
0
LINE
8
Black
10
16.8571
20
-20.98
11
17.1429
21
-20.8371
0
LINE
8
Black
10
17.1429
20
-20.8371
11
17.5714
21
-20.8371
0
LINE
8
Black
10
17.5714
20
-20.8371
11
17.8571
21
-20.98
0
LINE
8
Black
10
17.8571
20
-20.98
11
18
21
-21.2657
0
LINE
8
Black
10
18
20
-21.2657
11
18
21
-22.8371
0
LINE
8
Black
10
18
20
-21.2657
11
18.1429
21
-20.98
0
LINE
8
Black
10
18.1429
20
-20.98
11
18.4286
21
-20.8371
0
LINE
8
Black
10
18.4286
20
-20.8371
11
18.8571
21
-20.8371
0
LINE
8
Black
10
18.8571
20
-20.8371
11
19.1429
21
-20.98
0
LINE
8
Black
10
19.1429
20
-20.98
11
19.2857
21
-21.2657
0
LINE
8
Black
10
19.2857
20
-21.2657
11
19.2857
21
-22.8371
0
LINE
8
Black
10
25.1429
20
-19.6943
11
22.5714
21
-23.5514
0
LINE
8
Black
10
29
20
-19.8371
11
29.2857
21
-19.8371
0
LINE
8
Black
10
29.2857
20
-19.8371
11
29.5714
21
-19.98
0
LINE
8
Black
10
29.5714
20
-19.98
11
29.7143
21
-20.1229
0
LINE
8
Black
10
29.7143
20
-20.1229
11
29.8571
21
-20.4086
0
LINE
8
Black
10
29.8571
20
-20.4086
11
30
21
-20.98
0
LINE
8
Black
10
30
20
-20.98
11
30
21
-21.6943
0
LINE
8
Black
10
30
20
-21.6943
11
29.8571
21
-22.2657
0
LINE
8
Black
10
29.8571
20
-22.2657
11
29.7143
21
-22.5514
0
LINE
8
Black
10
29.7143
20
-22.5514
11
29.5714
21
-22.6943
0
LINE
8
Black
10
29.5714
20
-22.6943
11
29.2857
21
-22.8371
0
LINE
8
Black
10
29.2857
20
-22.8371
11
29
21
-22.8371
0
LINE
8
Black
10
29
20
-22.8371
11
28.7143
21
-22.6943
0
LINE
8
Black
10
28.7143
20
-22.6943
11
28.5714
21
-22.5514
0
LINE
8
Black
10
28.5714
20
-22.5514
11
28.4286
21
-22.2657
0
LINE
8
Black
10
28.4286
20
-22.2657
11
28.2857
21
-21.6943
0
LINE
8
Black
10
28.2857
20
-21.6943
11
28.2857
21
-20.98
0
LINE
8
Black
10
28.2857
20
-20.98
11
28.4286
21
-20.4086
0
LINE
8
Black
10
28.4286
20
-20.4086
11
28.5714
21
-20.1229
0
LINE
8
Black
10
28.5714
20
-20.1229
11
28.7143
21
-19.98
0
LINE
8
Black
10
28.7143
20
-19.98
11
29
21
-19.8371
0
LINE
8
Black
10
31.2857
20
-22.5514
11
31.4286
21
-22.6943
0
LINE
8
Black
10
31.4286
20
-22.6943
11
31.2857
21
-22.8371
0
LINE
8
Black
10
31.2857
20
-22.8371
11
31.1429
21
-22.6943
0
LINE
8
Black
10
31.1429
20
-22.6943
11
31.2857
21
-22.5514
0
LINE
8
Black
10
31.2857
20
-22.5514
11
31.2857
21
-22.8371
0
LINE
8
Black
10
33.2857
20
-19.8371
11
33.5714
21
-19.8371
0
LINE
8
Black
10
33.5714
20
-19.8371
11
33.8571
21
-19.98
0
LINE
8
Black
10
33.8571
20
-19.98
11
34
21
-20.1229
0
LINE
8
Black
10
34
20
-20.1229
11
34.1429
21
-20.4086
0
LINE
8
Black
10
34.1429
20
-20.4086
11
34.2857
21
-20.98
0
LINE
8
Black
10
34.2857
20
-20.98
11
34.2857
21
-21.6943
0
LINE
8
Black
10
34.2857
20
-21.6943
11
34.1429
21
-22.2657
0
LINE
8
Black
10
34.1429
20
-22.2657
11
34
21
-22.5514
0
LINE
8
Black
10
34
20
-22.5514
11
33.8571
21
-22.6943
0
LINE
8
Black
10
33.8571
20
-22.6943
11
33.5714
21
-22.8371
0
LINE
8
Black
10
33.5714
20
-22.8371
11
33.2857
21
-22.8371
0
LINE
8
Black
10
33.2857
20
-22.8371
11
33
21
-22.6943
0
LINE
8
Black
10
33
20
-22.6943
11
32.8571
21
-22.5514
0
LINE
8
Black
10
32.8571
20
-22.5514
11
32.7143
21
-22.2657
0
LINE
8
Black
10
32.7143
20
-22.2657
11
32.5714
21
-21.6943
0
LINE
8
Black
10
32.5714
20
-21.6943
11
32.5714
21
-20.98
0
LINE
8
Black
10
32.5714
20
-20.98
11
32.7143
21
-20.4086
0
LINE
8
Black
10
32.7143
20
-20.4086
11
32.8571
21
-20.1229
0
LINE
8
Black
10
32.8571
20
-20.1229
11
33
21
-19.98
0
LINE
8
Black
10
33
20
-19.98
11
33.2857
21
-19.8371
0
LINE
8
Black
10
35.2857
20
-19.8371
11
37.1429
21
-19.8371
0
LINE
8
Black
10
37.1429
20
-19.8371
11
36.1429
21
-20.98
0
LINE
8
Black
10
36.1429
20
-20.98
11
36.5714
21
-20.98
0
LINE
8
Black
10
36.5714
20
-20.98
11
36.8571
21
-21.1229
0
LINE
8
Black
10
36.8571
20
-21.1229
11
37
21
-21.2657
0
LINE
8
Black
10
37
20
-21.2657
11
37.1429
21
-21.5514
0
LINE
8
Black
10
37.1429
20
-21.5514
11
37.1429
21
-22.2657
0
LINE
8
Black
10
37.1429
20
-22.2657
11
37
21
-22.5514
0
LINE
8
Black
10
37
20
-22.5514
11
36.8571
21
-22.6943
0
LINE
8
Black
10
36.8571
20
-22.6943
11
36.5714
21
-22.8371
0
LINE
8
Black
10
36.5714
20
-22.8371
11
35.7143
21
-22.8371
0
LINE
8
Black
10
35.7143
20
-22.8371
11
35.4286
21
-22.6943
0
LINE
8
Black
10
35.4286
20
-22.6943
11
35.2857
21
-22.5514
0
LINE
8
Black
10
38.5714
20
-22.8371
11
39.1429
21
-22.8371
0
LINE
8
Black
10
39.1429
20
-22.8371
11
39.4286
21
-22.6943
0
LINE
8
Black
10
39.4286
20
-22.6943
11
39.5714
21
-22.5514
0
LINE
8
Black
10
39.5714
20
-22.5514
11
39.8571
21
-22.1229
0
LINE
8
Black
10
39.8571
20
-22.1229
11
40
21
-21.5514
0
LINE
8
Black
10
40
20
-21.5514
11
40
21
-20.4086
0
LINE
8
Black
10
40
20
-20.4086
11
39.8571
21
-20.1229
0
LINE
8
Black
10
39.8571
20
-20.1229
11
39.7143
21
-19.98
0
LINE
8
Black
10
39.7143
20
-19.98
11
39.4286
21
-19.8371
0
LINE
8
Black
10
39.4286
20
-19.8371
11
38.8571
21
-19.8371
0
LINE
8
Black
10
38.8571
20
-19.8371
11
38.5714
21
-19.98
0
LINE
8
Black
10
38.5714
20
-19.98
11
38.4286
21
-20.1229
0
LINE
8
Black
10
38.4286
20
-20.1229
11
38.2857
21
-20.4086
0
LINE
8
Black
10
38.2857
20
-20.4086
11
38.2857
21
-21.1229
0
LINE
8
Black
10
38.2857
20
-21.1229
11
38.4286
21
-21.4086
0
LINE
8
Black
10
38.4286
20
-21.4086
11
38.5714
21
-21.5514
0
LINE
8
Black
10
38.5714
20
-21.5514
11
38.8571
21
-21.6943
0
LINE
8
Black
10
38.8571
20
-21.6943
11
39.4286
21
-21.6943
0
LINE
8
Black
10
39.4286
20
-21.6943
11
39.7143
21
-21.5514
0
LINE
8
Black
10
39.7143
20
-21.5514
11
39.8571
21
-21.4086
0
LINE
8
Black
10
39.8571
20
-21.4086
11
40
21
-21.1229
0
LINE
8
Black
10
41.1429
20
-19.8371
11
41.1429
21
-20.4086
0
LINE
8
Black
10
42.2857
20
-19.8371
11
42.2857
21
-20.4086
0
LINE
8
Black
10
46.7143
20
-23.98
11
46.5714
21
-23.8371
0
LINE
8
Black
10
46.5714
20
-23.8371
11
46.2857
21
-23.4086
0
LINE
8
Black
10
46.2857
20
-23.4086
11
46.1429
21
-23.1229
0
LINE
8
Black
10
46.1429
20
-23.1229
11
46
21
-22.6943
0
LINE
8
Black
10
46
20
-22.6943
11
45.8571
21
-21.98
0
LINE
8
Black
10
45.8571
20
-21.98
11
45.8571
21
-21.4086
0
LINE
8
Black
10
45.8571
20
-21.4086
11
46
21
-20.6943
0
LINE
8
Black
10
46
20
-20.6943
11
46.1429
21
-20.2657
0
LINE
8
Black
10
46.1429
20
-20.2657
11
46.2857
21
-19.98
0
LINE
8
Black
10
46.2857
20
-19.98
11
46.5714
21
-19.5514
0
LINE
8
Black
10
46.5714
20
-19.5514
11
46.7143
21
-19.4086
0
LINE
8
Black
10
49.4286
20
-22.8371
11
47.7143
21
-22.8371
0
LINE
8
Black
10
48.5714
20
-22.8371
11
48.5714
21
-19.8371
0
LINE
8
Black
10
48.5714
20
-19.8371
11
48.2857
21
-20.2657
0
LINE
8
Black
10
48.2857
20
-20.2657
11
48
21
-20.5514
0
LINE
8
Black
10
48
20
-20.5514
11
47.7143
21
-20.6943
0
LINE
8
Black
10
50.5714
20
-20.1229
11
50.7143
21
-19.98
0
LINE
8
Black
10
50.7143
20
-19.98
11
51
21
-19.8371
0
LINE
8
Black
10
51
20
-19.8371
11
51.7143
21
-19.8371
0
LINE
8
Black
10
51.7143
20
-19.8371
11
52
21
-19.98
0
LINE
8
Black
10
52
20
-19.98
11
52.1429
21
-20.1229
0
LINE
8
Black
10
52.1429
20
-20.1229
11
52.2857
21
-20.4086
0
LINE
8
Black
10
52.2857
20
-20.4086
11
52.2857
21
-20.6943
0
LINE
8
Black
10
52.2857
20
-20.6943
11
52.1429
21
-21.1229
0
LINE
8
Black
10
52.1429
20
-21.1229
11
50.4286
21
-22.8371
0
LINE
8
Black
10
50.4286
20
-22.8371
11
52.2857
21
-22.8371
0
LINE
8
Black
10
55.8571
20
-22.8371
11
55.8571
21
-19.8371
0
LINE
8
Black
10
57.1429
20
-22.8371
11
57.1429
21
-21.2657
0
LINE
8
Black
10
57.1429
20
-21.2657
11
57
21
-20.98
0
LINE
8
Black
10
57
20
-20.98
11
56.7143
21
-20.8371
0
LINE
8
Black
10
56.7143
20
-20.8371
11
56.2857
21
-20.8371
0
LINE
8
Black
10
56.2857
20
-20.8371
11
56
21
-20.98
0
LINE
8
Black
10
56
20
-20.98
11
55.8571
21
-21.1229
0
LINE
8
Black
10
59
20
-22.8371
11
58.7143
21
-22.6943
0
LINE
8
Black
10
58.7143
20
-22.6943
11
58.5714
21
-22.5514
0
LINE
8
Black
10
58.5714
20
-22.5514
11
58.4286
21
-22.2657
0
LINE
8
Black
10
58.4286
20
-22.2657
11
58.4286
21
-21.4086
0
LINE
8
Black
10
58.4286
20
-21.4086
11
58.5714
21
-21.1229
0
LINE
8
Black
10
58.5714
20
-21.1229
11
58.7143
21
-20.98
0
LINE
8
Black
10
58.7143
20
-20.98
11
59
21
-20.8371
0
LINE
8
Black
10
59
20
-20.8371
11
59.4286
21
-20.8371
0
LINE
8
Black
10
59.4286
20
-20.8371
11
59.7143
21
-20.98
0
LINE
8
Black
10
59.7143
20
-20.98
11
59.8571
21
-21.1229
0
LINE
8
Black
10
59.8571
20
-21.1229
11
60
21
-21.4086
0
LINE
8
Black
10
60
20
-21.4086
11
60
21
-22.2657
0
LINE
8
Black
10
60
20
-22.2657
11
59.8571
21
-22.5514
0
LINE
8
Black
10
59.8571
20
-22.5514
11
59.7143
21
-22.6943
0
LINE
8
Black
10
59.7143
20
-22.6943
11
59.4286
21
-22.8371
0
LINE
8
Black
10
59.4286
20
-22.8371
11
59
21
-22.8371
0
LINE
8
Black
10
61.7143
20
-22.8371
11
61.4286
21
-22.6943
0
LINE
8
Black
10
61.4286
20
-22.6943
11
61.2857
21
-22.4086
0
LINE
8
Black
10
61.2857
20
-22.4086
11
61.2857
21
-19.8371
0
LINE
8
Black
10
64
20
-22.6943
11
63.7143
21
-22.8371
0
LINE
8
Black
10
63.7143
20
-22.8371
11
63.1429
21
-22.8371
0
LINE
8
Black
10
63.1429
20
-22.8371
11
62.8571
21
-22.6943
0
LINE
8
Black
10
62.8571
20
-22.6943
11
62.7143
21
-22.4086
0
LINE
8
Black
10
62.7143
20
-22.4086
11
62.7143
21
-21.2657
0
LINE
8
Black
10
62.7143
20
-21.2657
11
62.8571
21
-20.98
0
LINE
8
Black
10
62.8571
20
-20.98
11
63.1429
21
-20.8371
0
LINE
8
Black
10
63.1429
20
-20.8371
11
63.7143
21
-20.8371
0
LINE
8
Black
10
63.7143
20
-20.8371
11
64
21
-20.98
0
LINE
8
Black
10
64
20
-20.98
11
64.1429
21
-21.2657
0
LINE
8
Black
10
64.1429
20
-21.2657
11
64.1429
21
-21.5514
0
LINE
8
Black
10
64.1429
20
-21.5514
11
62.7143
21
-21.8371
0
LINE
8
Black
10
65.2857
20
-22.6943
11
65.5714
21
-22.8371
0
LINE
8
Black
10
65.5714
20
-22.8371
11
66.1429
21
-22.8371
0
LINE
8
Black
10
66.1429
20
-22.8371
11
66.4286
21
-22.6943
0
LINE
8
Black
10
66.4286
20
-22.6943
11
66.5714
21
-22.4086
0
LINE
8
Black
10
66.5714
20
-22.4086
11
66.5714
21
-22.2657
0
LINE
8
Black
10
66.5714
20
-22.2657
11
66.4286
21
-21.98
0
LINE
8
Black
10
66.4286
20
-21.98
11
66.1429
21
-21.8371
0
LINE
8
Black
10
66.1429
20
-21.8371
11
65.7143
21
-21.8371
0
LINE
8
Black
10
65.7143
20
-21.8371
11
65.4286
21
-21.6943
0
LINE
8
Black
10
65.4286
20
-21.6943
11
65.2857
21
-21.4086
0
LINE
8
Black
10
65.2857
20
-21.4086
11
65.2857
21
-21.2657
0
LINE
8
Black
10
65.2857
20
-21.2657
11
65.4286
21
-20.98
0
LINE
8
Black
10
65.4286
20
-20.98
11
65.7143
21
-20.8371
0
LINE
8
Black
10
65.7143
20
-20.8371
11
66.1429
21
-20.8371
0
LINE
8
Black
10
66.1429
20
-20.8371
11
66.4286
21
-20.98
0
LINE
8
Black
10
67.5714
20
-23.98
11
67.7143
21
-23.8371
0
LINE
8
Black
10
67.7143
20
-23.8371
11
68
21
-23.4086
0
LINE
8
Black
10
68
20
-23.4086
11
68.1429
21
-23.1229
0
LINE
8
Black
10
68.1429
20
-23.1229
11
68.2857
21
-22.6943
0
LINE
8
Black
10
68.2857
20
-22.6943
11
68.4286
21
-21.98
0
LINE
8
Black
10
68.4286
20
-21.98
11
68.4286
21
-21.4086
0
LINE
8
Black
10
68.4286
20
-21.4086
11
68.2857
21
-20.6943
0
LINE
8
Black
10
68.2857
20
-20.6943
11
68.1429
21
-20.2657
0
LINE
8
Black
10
68.1429
20
-20.2657
11
68
21
-19.98
0
LINE
8
Black
10
68
20
-19.98
11
67.7143
21
-19.5514
0
LINE
8
Black
10
67.7143
20
-19.5514
11
67.5714
21
-19.4086
0
LINE
8
Black
10
-0.8
20
-26.24
11
0
21
-25.44
0
LINE
8
Black
10
0
20
-25.44
11
-0.8
21
-24.64
0
LINE
8
Black
10
-0.8
20
-24.64
11
-1.6
21
-25.44
0
LINE
8
Black
10
-1.6
20
-25.44
11
-0.8
21
-26.24
0
LINE
8
Black
10
4.28571
20
-26.7971
11
2.57143
21
-26.7971
0
LINE
8
Black
10
3.42857
20
-26.7971
11
3.42857
21
-23.7971
0
LINE
8
Black
10
3.42857
20
-23.7971
11
3.14286
21
-24.2257
0
LINE
8
Black
10
3.14286
20
-24.2257
11
2.85714
21
-24.5114
0
LINE
8
Black
10
2.85714
20
-24.5114
11
2.57143
21
-24.6543
0
LINE
8
Black
10
5.57143
20
-26.5114
11
5.71429
21
-26.6543
0
LINE
8
Black
10
5.71429
20
-26.6543
11
5.57143
21
-26.7971
0
LINE
8
Black
10
5.57143
20
-26.7971
11
5.42857
21
-26.6543
0
LINE
8
Black
10
5.42857
20
-26.6543
11
5.57143
21
-26.5114
0
LINE
8
Black
10
5.57143
20
-26.5114
11
5.57143
21
-26.7971
0
LINE
8
Black
10
8.28571
20
-23.7971
11
7.71428
21
-23.7971
0
LINE
8
Black
10
7.71428
20
-23.7971
11
7.42857
21
-23.94
0
LINE
8
Black
10
7.42857
20
-23.94
11
7.28571
21
-24.0829
0
LINE
8
Black
10
7.28571
20
-24.0829
11
7
21
-24.5114
0
LINE
8
Black
10
7
20
-24.5114
11
6.85714
21
-25.0829
0
LINE
8
Black
10
6.85714
20
-25.0829
11
6.85714
21
-26.2257
0
LINE
8
Black
10
6.85714
20
-26.2257
11
7
21
-26.5114
0
LINE
8
Black
10
7
20
-26.5114
11
7.14286
21
-26.6543
0
LINE
8
Black
10
7.14286
20
-26.6543
11
7.42857
21
-26.7971
0
LINE
8
Black
10
7.42857
20
-26.7971
11
8
21
-26.7971
0
LINE
8
Black
10
8
20
-26.7971
11
8.28571
21
-26.6543
0
LINE
8
Black
10
8.28571
20
-26.6543
11
8.42857
21
-26.5114
0
LINE
8
Black
10
8.42857
20
-26.5114
11
8.57143
21
-26.2257
0
LINE
8
Black
10
8.57143
20
-26.2257
11
8.57143
21
-25.5114
0
LINE
8
Black
10
8.57143
20
-25.5114
11
8.42857
21
-25.2257
0
LINE
8
Black
10
8.42857
20
-25.2257
11
8.28571
21
-25.0829
0
LINE
8
Black
10
8.28571
20
-25.0829
11
8
21
-24.94
0
LINE
8
Black
10
8
20
-24.94
11
7.42857
21
-24.94
0
LINE
8
Black
10
7.42857
20
-24.94
11
7.14286
21
-25.0829
0
LINE
8
Black
10
7.14286
20
-25.0829
11
7
21
-25.2257
0
LINE
8
Black
10
7
20
-25.2257
11
6.85714
21
-25.5114
0
LINE
8
Black
10
10.4286
20
-23.7971
11
10.7143
21
-23.7971
0
LINE
8
Black
10
10.7143
20
-23.7971
11
11
21
-23.94
0
LINE
8
Black
10
11
20
-23.94
11
11.1429
21
-24.0829
0
LINE
8
Black
10
11.1429
20
-24.0829
11
11.2857
21
-24.3686
0
LINE
8
Black
10
11.2857
20
-24.3686
11
11.4286
21
-24.94
0
LINE
8
Black
10
11.4286
20
-24.94
11
11.4286
21
-25.6543
0
LINE
8
Black
10
11.4286
20
-25.6543
11
11.2857
21
-26.2257
0
LINE
8
Black
10
11.2857
20
-26.2257
11
11.1429
21
-26.5114
0
LINE
8
Black
10
11.1429
20
-26.5114
11
11
21
-26.6543
0
LINE
8
Black
10
11
20
-26.6543
11
10.7143
21
-26.7971
0
LINE
8
Black
10
10.7143
20
-26.7971
11
10.4286
21
-26.7971
0
LINE
8
Black
10
10.4286
20
-26.7971
11
10.1429
21
-26.6543
0
LINE
8
Black
10
10.1429
20
-26.6543
11
10
21
-26.5114
0
LINE
8
Black
10
10
20
-26.5114
11
9.85714
21
-26.2257
0
LINE
8
Black
10
9.85714
20
-26.2257
11
9.71429
21
-25.6543
0
LINE
8
Black
10
9.71429
20
-25.6543
11
9.71429
21
-24.94
0
LINE
8
Black
10
9.71429
20
-24.94
11
9.85714
21
-24.3686
0
LINE
8
Black
10
9.85714
20
-24.3686
11
10
21
-24.0829
0
LINE
8
Black
10
10
20
-24.0829
11
10.1429
21
-23.94
0
LINE
8
Black
10
10.1429
20
-23.94
11
10.4286
21
-23.7971
0
LINE
8
Black
10
12.7143
20
-26.7971
11
12.7143
21
-24.7971
0
LINE
8
Black
10
12.7143
20
-25.0829
11
12.8571
21
-24.94
0
LINE
8
Black
10
12.8571
20
-24.94
11
13.1429
21
-24.7971
0
LINE
8
Black
10
13.1429
20
-24.7971
11
13.5714
21
-24.7971
0
LINE
8
Black
10
13.5714
20
-24.7971
11
13.8571
21
-24.94
0
LINE
8
Black
10
13.8571
20
-24.94
11
14
21
-25.2257
0
LINE
8
Black
10
14
20
-25.2257
11
14
21
-26.7971
0
LINE
8
Black
10
14
20
-25.2257
11
14.1429
21
-24.94
0
LINE
8
Black
10
14.1429
20
-24.94
11
14.4286
21
-24.7971
0
LINE
8
Black
10
14.4286
20
-24.7971
11
14.8571
21
-24.7971
0
LINE
8
Black
10
14.8571
20
-24.7971
11
15.1429
21
-24.94
0
LINE
8
Black
10
15.1429
20
-24.94
11
15.2857
21
-25.2257
0
LINE
8
Black
10
15.2857
20
-25.2257
11
15.2857
21
-26.7971
0
LINE
8
Black
10
16.7143
20
-26.7971
11
16.7143
21
-24.7971
0
LINE
8
Black
10
16.7143
20
-25.0829
11
16.8571
21
-24.94
0
LINE
8
Black
10
16.8571
20
-24.94
11
17.1429
21
-24.7971
0
LINE
8
Black
10
17.1429
20
-24.7971
11
17.5714
21
-24.7971
0
LINE
8
Black
10
17.5714
20
-24.7971
11
17.8571
21
-24.94
0
LINE
8
Black
10
17.8571
20
-24.94
11
18
21
-25.2257
0
LINE
8
Black
10
18
20
-25.2257
11
18
21
-26.7971
0
LINE
8
Black
10
18
20
-25.2257
11
18.1429
21
-24.94
0
LINE
8
Black
10
18.1429
20
-24.94
11
18.4286
21
-24.7971
0
LINE
8
Black
10
18.4286
20
-24.7971
11
18.8571
21
-24.7971
0
LINE
8
Black
10
18.8571
20
-24.7971
11
19.1429
21
-24.94
0
LINE
8
Black
10
19.1429
20
-24.94
11
19.2857
21
-25.2257
0
LINE
8
Black
10
19.2857
20
-25.2257
11
19.2857
21
-26.7971
0
LINE
8
Black
10
25.1429
20
-23.6543
11
22.5714
21
-27.5114
0
LINE
8
Black
10
29
20
-23.7971
11
29.2857
21
-23.7971
0
LINE
8
Black
10
29.2857
20
-23.7971
11
29.5714
21
-23.94
0
LINE
8
Black
10
29.5714
20
-23.94
11
29.7143
21
-24.0829
0
LINE
8
Black
10
29.7143
20
-24.0829
11
29.8571
21
-24.3686
0
LINE
8
Black
10
29.8571
20
-24.3686
11
30
21
-24.94
0
LINE
8
Black
10
30
20
-24.94
11
30
21
-25.6543
0
LINE
8
Black
10
30
20
-25.6543
11
29.8571
21
-26.2257
0
LINE
8
Black
10
29.8571
20
-26.2257
11
29.7143
21
-26.5114
0
LINE
8
Black
10
29.7143
20
-26.5114
11
29.5714
21
-26.6543
0
LINE
8
Black
10
29.5714
20
-26.6543
11
29.2857
21
-26.7971
0
LINE
8
Black
10
29.2857
20
-26.7971
11
29
21
-26.7971
0
LINE
8
Black
10
29
20
-26.7971
11
28.7143
21
-26.6543
0
LINE
8
Black
10
28.7143
20
-26.6543
11
28.5714
21
-26.5114
0
LINE
8
Black
10
28.5714
20
-26.5114
11
28.4286
21
-26.2257
0
LINE
8
Black
10
28.4286
20
-26.2257
11
28.2857
21
-25.6543
0
LINE
8
Black
10
28.2857
20
-25.6543
11
28.2857
21
-24.94
0
LINE
8
Black
10
28.2857
20
-24.94
11
28.4286
21
-24.3686
0
LINE
8
Black
10
28.4286
20
-24.3686
11
28.5714
21
-24.0829
0
LINE
8
Black
10
28.5714
20
-24.0829
11
28.7143
21
-23.94
0
LINE
8
Black
10
28.7143
20
-23.94
11
29
21
-23.7971
0
LINE
8
Black
10
31.2857
20
-26.5114
11
31.4286
21
-26.6543
0
LINE
8
Black
10
31.4286
20
-26.6543
11
31.2857
21
-26.7971
0
LINE
8
Black
10
31.2857
20
-26.7971
11
31.1429
21
-26.6543
0
LINE
8
Black
10
31.1429
20
-26.6543
11
31.2857
21
-26.5114
0
LINE
8
Black
10
31.2857
20
-26.5114
11
31.2857
21
-26.7971
0
LINE
8
Black
10
33.2857
20
-23.7971
11
33.5714
21
-23.7971
0
LINE
8
Black
10
33.5714
20
-23.7971
11
33.8571
21
-23.94
0
LINE
8
Black
10
33.8571
20
-23.94
11
34
21
-24.0829
0
LINE
8
Black
10
34
20
-24.0829
11
34.1429
21
-24.3686
0
LINE
8
Black
10
34.1429
20
-24.3686
11
34.2857
21
-24.94
0
LINE
8
Black
10
34.2857
20
-24.94
11
34.2857
21
-25.6543
0
LINE
8
Black
10
34.2857
20
-25.6543
11
34.1429
21
-26.2257
0
LINE
8
Black
10
34.1429
20
-26.2257
11
34
21
-26.5114
0
LINE
8
Black
10
34
20
-26.5114
11
33.8571
21
-26.6543
0
LINE
8
Black
10
33.8571
20
-26.6543
11
33.5714
21
-26.7971
0
LINE
8
Black
10
33.5714
20
-26.7971
11
33.2857
21
-26.7971
0
LINE
8
Black
10
33.2857
20
-26.7971
11
33
21
-26.6543
0
LINE
8
Black
10
33
20
-26.6543
11
32.8571
21
-26.5114
0
LINE
8
Black
10
32.8571
20
-26.5114
11
32.7143
21
-26.2257
0
LINE
8
Black
10
32.7143
20
-26.2257
11
32.5714
21
-25.6543
0
LINE
8
Black
10
32.5714
20
-25.6543
11
32.5714
21
-24.94
0
LINE
8
Black
10
32.5714
20
-24.94
11
32.7143
21
-24.3686
0
LINE
8
Black
10
32.7143
20
-24.3686
11
32.8571
21
-24.0829
0
LINE
8
Black
10
32.8571
20
-24.0829
11
33
21
-23.94
0
LINE
8
Black
10
33
20
-23.94
11
33.2857
21
-23.7971
0
LINE
8
Black
10
36.8571
20
-23.7971
11
36.2857
21
-23.7971
0
LINE
8
Black
10
36.2857
20
-23.7971
11
36
21
-23.94
0
LINE
8
Black
10
36
20
-23.94
11
35.8571
21
-24.0829
0
LINE
8
Black
10
35.8571
20
-24.0829
11
35.5714
21
-24.5114
0
LINE
8
Black
10
35.5714
20
-24.5114
11
35.4286
21
-25.0829
0
LINE
8
Black
10
35.4286
20
-25.0829
11
35.4286
21
-26.2257
0
LINE
8
Black
10
35.4286
20
-26.2257
11
35.5714
21
-26.5114
0
LINE
8
Black
10
35.5714
20
-26.5114
11
35.7143
21
-26.6543
0
LINE
8
Black
10
35.7143
20
-26.6543
11
36
21
-26.7971
0
LINE
8
Black
10
36
20
-26.7971
11
36.5714
21
-26.7971
0
LINE
8
Black
10
36.5714
20
-26.7971
11
36.8571
21
-26.6543
0
LINE
8
Black
10
36.8571
20
-26.6543
11
37
21
-26.5114
0
LINE
8
Black
10
37
20
-26.5114
11
37.1429
21
-26.2257
0
LINE
8
Black
10
37.1429
20
-26.2257
11
37.1429
21
-25.5114
0
LINE
8
Black
10
37.1429
20
-25.5114
11
37
21
-25.2257
0
LINE
8
Black
10
37
20
-25.2257
11
36.8571
21
-25.0829
0
LINE
8
Black
10
36.8571
20
-25.0829
11
36.5714
21
-24.94
0
LINE
8
Black
10
36.5714
20
-24.94
11
36
21
-24.94
0
LINE
8
Black
10
36
20
-24.94
11
35.7143
21
-25.0829
0
LINE
8
Black
10
35.7143
20
-25.0829
11
35.5714
21
-25.2257
0
LINE
8
Black
10
35.5714
20
-25.2257
11
35.4286
21
-25.5114
0
LINE
8
Black
10
38.1429
20
-23.7971
11
40
21
-23.7971
0
LINE
8
Black
10
40
20
-23.7971
11
39
21
-24.94
0
LINE
8
Black
10
39
20
-24.94
11
39.4286
21
-24.94
0
LINE
8
Black
10
39.4286
20
-24.94
11
39.7143
21
-25.0829
0
LINE
8
Black
10
39.7143
20
-25.0829
11
39.8571
21
-25.2257
0
LINE
8
Black
10
39.8571
20
-25.2257
11
40
21
-25.5114
0
LINE
8
Black
10
40
20
-25.5114
11
40
21
-26.2257
0
LINE
8
Black
10
40
20
-26.2257
11
39.8571
21
-26.5114
0
LINE
8
Black
10
39.8571
20
-26.5114
11
39.7143
21
-26.6543
0
LINE
8
Black
10
39.7143
20
-26.6543
11
39.4286
21
-26.7971
0
LINE
8
Black
10
39.4286
20
-26.7971
11
38.5714
21
-26.7971
0
LINE
8
Black
10
38.5714
20
-26.7971
11
38.2857
21
-26.6543
0
LINE
8
Black
10
38.2857
20
-26.6543
11
38.1429
21
-26.5114
0
LINE
8
Black
10
41.1429
20
-23.7971
11
41.1429
21
-24.3686
0
LINE
8
Black
10
42.2857
20
-23.7971
11
42.2857
21
-24.3686
0
LINE
8
Black
10
46.7143
20
-27.94
11
46.5714
21
-27.7971
0
LINE
8
Black
10
46.5714
20
-27.7971
11
46.2857
21
-27.3686
0
LINE
8
Black
10
46.2857
20
-27.3686
11
46.1429
21
-27.0829
0
LINE
8
Black
10
46.1429
20
-27.0829
11
46
21
-26.6543
0
LINE
8
Black
10
46
20
-26.6543
11
45.8571
21
-25.94
0
LINE
8
Black
10
45.8571
20
-25.94
11
45.8571
21
-25.3686
0
LINE
8
Black
10
45.8571
20
-25.3686
11
46
21
-24.6543
0
LINE
8
Black
10
46
20
-24.6543
11
46.1429
21
-24.2257
0
LINE
8
Black
10
46.1429
20
-24.2257
11
46.2857
21
-23.94
0
LINE
8
Black
10
46.2857
20
-23.94
11
46.5714
21
-23.5114
0
LINE
8
Black
10
46.5714
20
-23.5114
11
46.7143
21
-23.3686
0
LINE
8
Black
10
49.4286
20
-26.7971
11
47.7143
21
-26.7971
0
LINE
8
Black
10
48.5714
20
-26.7971
11
48.5714
21
-23.7971
0
LINE
8
Black
10
48.5714
20
-23.7971
11
48.2857
21
-24.2257
0
LINE
8
Black
10
48.2857
20
-24.2257
11
48
21
-24.5114
0
LINE
8
Black
10
48
20
-24.5114
11
47.7143
21
-24.6543
0
LINE
8
Black
10
51.1429
20
-25.0829
11
50.8571
21
-24.94
0
LINE
8
Black
10
50.8571
20
-24.94
11
50.7143
21
-24.7971
0
LINE
8
Black
10
50.7143
20
-24.7971
11
50.5714
21
-24.5114
0
LINE
8
Black
10
50.5714
20
-24.5114
11
50.5714
21
-24.3686
0
LINE
8
Black
10
50.5714
20
-24.3686
11
50.7143
21
-24.0829
0
LINE
8
Black
10
50.7143
20
-24.0829
11
50.8571
21
-23.94
0
LINE
8
Black
10
50.8571
20
-23.94
11
51.1429
21
-23.7971
0
LINE
8
Black
10
51.1429
20
-23.7971
11
51.7143
21
-23.7971
0
LINE
8
Black
10
51.7143
20
-23.7971
11
52
21
-23.94
0
LINE
8
Black
10
52
20
-23.94
11
52.1429
21
-24.0829
0
LINE
8
Black
10
52.1429
20
-24.0829
11
52.2857
21
-24.3686
0
LINE
8
Black
10
52.2857
20
-24.3686
11
52.2857
21
-24.5114
0
LINE
8
Black
10
52.2857
20
-24.5114
11
52.1429
21
-24.7971
0
LINE
8
Black
10
52.1429
20
-24.7971
11
52
21
-24.94
0
LINE
8
Black
10
52
20
-24.94
11
51.7143
21
-25.0829
0
LINE
8
Black
10
51.7143
20
-25.0829
11
51.1429
21
-25.0829
0
LINE
8
Black
10
51.1429
20
-25.0829
11
50.8571
21
-25.2257
0
LINE
8
Black
10
50.8571
20
-25.2257
11
50.7143
21
-25.3686
0
LINE
8
Black
10
50.7143
20
-25.3686
11
50.5714
21
-25.6543
0
LINE
8
Black
10
50.5714
20
-25.6543
11
50.5714
21
-26.2257
0
LINE
8
Black
10
50.5714
20
-26.2257
11
50.7143
21
-26.5114
0
LINE
8
Black
10
50.7143
20
-26.5114
11
50.8571
21
-26.6543
0
LINE
8
Black
10
50.8571
20
-26.6543
11
51.1429
21
-26.7971
0
LINE
8
Black
10
51.1429
20
-26.7971
11
51.7143
21
-26.7971
0
LINE
8
Black
10
51.7143
20
-26.7971
11
52
21
-26.6543
0
LINE
8
Black
10
52
20
-26.6543
11
52.1429
21
-26.5114
0
LINE
8
Black
10
52.1429
20
-26.5114
11
52.2857
21
-26.2257
0
LINE
8
Black
10
52.2857
20
-26.2257
11
52.2857
21
-25.6543
0
LINE
8
Black
10
52.2857
20
-25.6543
11
52.1429
21
-25.3686
0
LINE
8
Black
10
52.1429
20
-25.3686
11
52
21
-25.2257
0
LINE
8
Black
10
52
20
-25.2257
11
51.7143
21
-25.0829
0
LINE
8
Black
10
55.8571
20
-26.7971
11
55.8571
21
-23.7971
0
LINE
8
Black
10
57.1429
20
-26.7971
11
57.1429
21
-25.2257
0
LINE
8
Black
10
57.1429
20
-25.2257
11
57
21
-24.94
0
LINE
8
Black
10
57
20
-24.94
11
56.7143
21
-24.7971
0
LINE
8
Black
10
56.7143
20
-24.7971
11
56.2857
21
-24.7971
0
LINE
8
Black
10
56.2857
20
-24.7971
11
56
21
-24.94
0
LINE
8
Black
10
56
20
-24.94
11
55.8571
21
-25.0829
0
LINE
8
Black
10
59
20
-26.7971
11
58.7143
21
-26.6543
0
LINE
8
Black
10
58.7143
20
-26.6543
11
58.5714
21
-26.5114
0
LINE
8
Black
10
58.5714
20
-26.5114
11
58.4286
21
-26.2257
0
LINE
8
Black
10
58.4286
20
-26.2257
11
58.4286
21
-25.3686
0
LINE
8
Black
10
58.4286
20
-25.3686
11
58.5714
21
-25.0829
0
LINE
8
Black
10
58.5714
20
-25.0829
11
58.7143
21
-24.94
0
LINE
8
Black
10
58.7143
20
-24.94
11
59
21
-24.7971
0
LINE
8
Black
10
59
20
-24.7971
11
59.4286
21
-24.7971
0
LINE
8
Black
10
59.4286
20
-24.7971
11
59.7143
21
-24.94
0
LINE
8
Black
10
59.7143
20
-24.94
11
59.8571
21
-25.0829
0
LINE
8
Black
10
59.8571
20
-25.0829
11
60
21
-25.3686
0
LINE
8
Black
10
60
20
-25.3686
11
60
21
-26.2257
0
LINE
8
Black
10
60
20
-26.2257
11
59.8571
21
-26.5114
0
LINE
8
Black
10
59.8571
20
-26.5114
11
59.7143
21
-26.6543
0
LINE
8
Black
10
59.7143
20
-26.6543
11
59.4286
21
-26.7971
0
LINE
8
Black
10
59.4286
20
-26.7971
11
59
21
-26.7971
0
LINE
8
Black
10
61.7143
20
-26.7971
11
61.4286
21
-26.6543
0
LINE
8
Black
10
61.4286
20
-26.6543
11
61.2857
21
-26.3686
0
LINE
8
Black
10
61.2857
20
-26.3686
11
61.2857
21
-23.7971
0
LINE
8
Black
10
64
20
-26.6543
11
63.7143
21
-26.7971
0
LINE
8
Black
10
63.7143
20
-26.7971
11
63.1429
21
-26.7971
0
LINE
8
Black
10
63.1429
20
-26.7971
11
62.8571
21
-26.6543
0
LINE
8
Black
10
62.8571
20
-26.6543
11
62.7143
21
-26.3686
0
LINE
8
Black
10
62.7143
20
-26.3686
11
62.7143
21
-25.2257
0
LINE
8
Black
10
62.7143
20
-25.2257
11
62.8571
21
-24.94
0
LINE
8
Black
10
62.8571
20
-24.94
11
63.1429
21
-24.7971
0
LINE
8
Black
10
63.1429
20
-24.7971
11
63.7143
21
-24.7971
0
LINE
8
Black
10
63.7143
20
-24.7971
11
64
21
-24.94
0
LINE
8
Black
10
64
20
-24.94
11
64.1429
21
-25.2257
0
LINE
8
Black
10
64.1429
20
-25.2257
11
64.1429
21
-25.5114
0
LINE
8
Black
10
64.1429
20
-25.5114
11
62.7143
21
-25.7971
0
LINE
8
Black
10
65.2857
20
-26.6543
11
65.5714
21
-26.7971
0
LINE
8
Black
10
65.5714
20
-26.7971
11
66.1429
21
-26.7971
0
LINE
8
Black
10
66.1429
20
-26.7971
11
66.4286
21
-26.6543
0
LINE
8
Black
10
66.4286
20
-26.6543
11
66.5714
21
-26.3686
0
LINE
8
Black
10
66.5714
20
-26.3686
11
66.5714
21
-26.2257
0
LINE
8
Black
10
66.5714
20
-26.2257
11
66.4286
21
-25.94
0
LINE
8
Black
10
66.4286
20
-25.94
11
66.1429
21
-25.7971
0
LINE
8
Black
10
66.1429
20
-25.7971
11
65.7143
21
-25.7971
0
LINE
8
Black
10
65.7143
20
-25.7971
11
65.4286
21
-25.6543
0
LINE
8
Black
10
65.4286
20
-25.6543
11
65.2857
21
-25.3686
0
LINE
8
Black
10
65.2857
20
-25.3686
11
65.2857
21
-25.2257
0
LINE
8
Black
10
65.2857
20
-25.2257
11
65.4286
21
-24.94
0
LINE
8
Black
10
65.4286
20
-24.94
11
65.7143
21
-24.7971
0
LINE
8
Black
10
65.7143
20
-24.7971
11
66.1429
21
-24.7971
0
LINE
8
Black
10
66.1429
20
-24.7971
11
66.4286
21
-24.94
0
LINE
8
Black
10
67.5714
20
-27.94
11
67.7143
21
-27.7971
0
LINE
8
Black
10
67.7143
20
-27.7971
11
68
21
-27.3686
0
LINE
8
Black
10
68
20
-27.3686
11
68.1429
21
-27.0829
0
LINE
8
Black
10
68.1429
20
-27.0829
11
68.2857
21
-26.6543
0
LINE
8
Black
10
68.2857
20
-26.6543
11
68.4286
21
-25.94
0
LINE
8
Black
10
68.4286
20
-25.94
11
68.4286
21
-25.3686
0
LINE
8
Black
10
68.4286
20
-25.3686
11
68.2857
21
-24.6543
0
LINE
8
Black
10
68.2857
20
-24.6543
11
68.1429
21
-24.2257
0
LINE
8
Black
10
68.1429
20
-24.2257
11
68
21
-23.94
0
LINE
8
Black
10
68
20
-23.94
11
67.7143
21
-23.5114
0
LINE
8
Black
10
67.7143
20
-23.5114
11
67.5714
21
-23.3686
0
LINE
8
Black
10
-2.2
20
-28.3
11
0
21
-30.5
0
LINE
8
Black
10
0
20
-28.3
11
-2.2
21
-30.5
0
CIRCLE
8
Black
10
-1.1
20
-29.4
40
1.1
0
LINE
8
Black
10
2.57143
20
-28.0429
11
2.71429
21
-27.9
0
LINE
8
Black
10
2.71429
20
-27.9
11
3
21
-27.7571
0
LINE
8
Black
10
3
20
-27.7571
11
3.71429
21
-27.7571
0
LINE
8
Black
10
3.71429
20
-27.7571
11
4
21
-27.9
0
LINE
8
Black
10
4
20
-27.9
11
4.14286
21
-28.0429
0
LINE
8
Black
10
4.14286
20
-28.0429
11
4.28571
21
-28.3286
0
LINE
8
Black
10
4.28571
20
-28.3286
11
4.28571
21
-28.6143
0
LINE
8
Black
10
4.28571
20
-28.6143
11
4.14286
21
-29.0429
0
LINE
8
Black
10
4.14286
20
-29.0429
11
2.42857
21
-30.7571
0
LINE
8
Black
10
2.42857
20
-30.7571
11
4.28571
21
-30.7571
0
LINE
8
Black
10
5.57143
20
-30.4714
11
5.71429
21
-30.6143
0
LINE
8
Black
10
5.71429
20
-30.6143
11
5.57143
21
-30.7571
0
LINE
8
Black
10
5.57143
20
-30.7571
11
5.42857
21
-30.6143
0
LINE
8
Black
10
5.42857
20
-30.6143
11
5.57143
21
-30.4714
0
LINE
8
Black
10
5.57143
20
-30.4714
11
5.57143
21
-30.7571
0
LINE
8
Black
10
6.85714
20
-28.0429
11
7
21
-27.9
0
LINE
8
Black
10
7
20
-27.9
11
7.28571
21
-27.7571
0
LINE
8
Black
10
7.28571
20
-27.7571
11
8
21
-27.7571
0
LINE
8
Black
10
8
20
-27.7571
11
8.28571
21
-27.9
0
LINE
8
Black
10
8.28571
20
-27.9
11
8.42857
21
-28.0429
0
LINE
8
Black
10
8.42857
20
-28.0429
11
8.57143
21
-28.3286
0
LINE
8
Black
10
8.57143
20
-28.3286
11
8.57143
21
-28.6143
0
LINE
8
Black
10
8.57143
20
-28.6143
11
8.42857
21
-29.0429
0
LINE
8
Black
10
8.42857
20
-29.0429
11
6.71428
21
-30.7571
0
LINE
8
Black
10
6.71428
20
-30.7571
11
8.57143
21
-30.7571
0
LINE
8
Black
10
10.4286
20
-27.7571
11
10.7143
21
-27.7571
0
LINE
8
Black
10
10.7143
20
-27.7571
11
11
21
-27.9
0
LINE
8
Black
10
11
20
-27.9
11
11.1429
21
-28.0429
0
LINE
8
Black
10
11.1429
20
-28.0429
11
11.2857
21
-28.3286
0
LINE
8
Black
10
11.2857
20
-28.3286
11
11.4286
21
-28.9
0
LINE
8
Black
10
11.4286
20
-28.9
11
11.4286
21
-29.6143
0
LINE
8
Black
10
11.4286
20
-29.6143
11
11.2857
21
-30.1857
0
LINE
8
Black
10
11.2857
20
-30.1857
11
11.1429
21
-30.4714
0
LINE
8
Black
10
11.1429
20
-30.4714
11
11
21
-30.6143
0
LINE
8
Black
10
11
20
-30.6143
11
10.7143
21
-30.7571
0
LINE
8
Black
10
10.7143
20
-30.7571
11
10.4286
21
-30.7571
0
LINE
8
Black
10
10.4286
20
-30.7571
11
10.1429
21
-30.6143
0
LINE
8
Black
10
10.1429
20
-30.6143
11
10
21
-30.4714
0
LINE
8
Black
10
10
20
-30.4714
11
9.85714
21
-30.1857
0
LINE
8
Black
10
9.85714
20
-30.1857
11
9.71429
21
-29.6143
0
LINE
8
Black
10
9.71429
20
-29.6143
11
9.71429
21
-28.9
0
LINE
8
Black
10
9.71429
20
-28.9
11
9.85714
21
-28.3286
0
LINE
8
Black
10
9.85714
20
-28.3286
11
10
21
-28.0429
0
LINE
8
Black
10
10
20
-28.0429
11
10.1429
21
-27.9
0
LINE
8
Black
10
10.1429
20
-27.9
11
10.4286
21
-27.7571
0
LINE
8
Black
10
12.7143
20
-30.7571
11
12.7143
21
-28.7571
0
LINE
8
Black
10
12.7143
20
-29.0429
11
12.8571
21
-28.9
0
LINE
8
Black
10
12.8571
20
-28.9
11
13.1429
21
-28.7571
0
LINE
8
Black
10
13.1429
20
-28.7571
11
13.5714
21
-28.7571
0
LINE
8
Black
10
13.5714
20
-28.7571
11
13.8571
21
-28.9
0
LINE
8
Black
10
13.8571
20
-28.9
11
14
21
-29.1857
0
LINE
8
Black
10
14
20
-29.1857
11
14
21
-30.7571
0
LINE
8
Black
10
14
20
-29.1857
11
14.1429
21
-28.9
0
LINE
8
Black
10
14.1429
20
-28.9
11
14.4286
21
-28.7571
0
LINE
8
Black
10
14.4286
20
-28.7571
11
14.8571
21
-28.7571
0
LINE
8
Black
10
14.8571
20
-28.7571
11
15.1429
21
-28.9
0
LINE
8
Black
10
15.1429
20
-28.9
11
15.2857
21
-29.1857
0
LINE
8
Black
10
15.2857
20
-29.1857
11
15.2857
21
-30.7571
0
LINE
8
Black
10
16.7143
20
-30.7571
11
16.7143
21
-28.7571
0
LINE
8
Black
10
16.7143
20
-29.0429
11
16.8571
21
-28.9
0
LINE
8
Black
10
16.8571
20
-28.9
11
17.1429
21
-28.7571
0
LINE
8
Black
10
17.1429
20
-28.7571
11
17.5714
21
-28.7571
0
LINE
8
Black
10
17.5714
20
-28.7571
11
17.8571
21
-28.9
0
LINE
8
Black
10
17.8571
20
-28.9
11
18
21
-29.1857
0
LINE
8
Black
10
18
20
-29.1857
11
18
21
-30.7571
0
LINE
8
Black
10
18
20
-29.1857
11
18.1429
21
-28.9
0
LINE
8
Black
10
18.1429
20
-28.9
11
18.4286
21
-28.7571
0
LINE
8
Black
10
18.4286
20
-28.7571
11
18.8571
21
-28.7571
0
LINE
8
Black
10
18.8571
20
-28.7571
11
19.1429
21
-28.9
0
LINE
8
Black
10
19.1429
20
-28.9
11
19.2857
21
-29.1857
0
LINE
8
Black
10
19.2857
20
-29.1857
11
19.2857
21
-30.7571
0
LINE
8
Black
10
25.1429
20
-27.6143
11
22.5714
21
-31.4714
0
LINE
8
Black
10
29
20
-27.7571
11
29.2857
21
-27.7571
0
LINE
8
Black
10
29.2857
20
-27.7571
11
29.5714
21
-27.9
0
LINE
8
Black
10
29.5714
20
-27.9
11
29.7143
21
-28.0429
0
LINE
8
Black
10
29.7143
20
-28.0429
11
29.8571
21
-28.3286
0
LINE
8
Black
10
29.8571
20
-28.3286
11
30
21
-28.9
0
LINE
8
Black
10
30
20
-28.9
11
30
21
-29.6143
0
LINE
8
Black
10
30
20
-29.6143
11
29.8571
21
-30.1857
0
LINE
8
Black
10
29.8571
20
-30.1857
11
29.7143
21
-30.4714
0
LINE
8
Black
10
29.7143
20
-30.4714
11
29.5714
21
-30.6143
0
LINE
8
Black
10
29.5714
20
-30.6143
11
29.2857
21
-30.7571
0
LINE
8
Black
10
29.2857
20
-30.7571
11
29
21
-30.7571
0
LINE
8
Black
10
29
20
-30.7571
11
28.7143
21
-30.6143
0
LINE
8
Black
10
28.7143
20
-30.6143
11
28.5714
21
-30.4714
0
LINE
8
Black
10
28.5714
20
-30.4714
11
28.4286
21
-30.1857
0
LINE
8
Black
10
28.4286
20
-30.1857
11
28.2857
21
-29.6143
0
LINE
8
Black
10
28.2857
20
-29.6143
11
28.2857
21
-28.9
0
LINE
8
Black
10
28.2857
20
-28.9
11
28.4286
21
-28.3286
0
LINE
8
Black
10
28.4286
20
-28.3286
11
28.5714
21
-28.0429
0
LINE
8
Black
10
28.5714
20
-28.0429
11
28.7143
21
-27.9
0
LINE
8
Black
10
28.7143
20
-27.9
11
29
21
-27.7571
0
LINE
8
Black
10
31.2857
20
-30.4714
11
31.4286
21
-30.6143
0
LINE
8
Black
10
31.4286
20
-30.6143
11
31.2857
21
-30.7571
0
LINE
8
Black
10
31.2857
20
-30.7571
11
31.1429
21
-30.6143
0
LINE
8
Black
10
31.1429
20
-30.6143
11
31.2857
21
-30.4714
0
LINE
8
Black
10
31.2857
20
-30.4714
11
31.2857
21
-30.7571
0
LINE
8
Black
10
33.2857
20
-27.7571
11
33.5714
21
-27.7571
0
LINE
8
Black
10
33.5714
20
-27.7571
11
33.8571
21
-27.9
0
LINE
8
Black
10
33.8571
20
-27.9
11
34
21
-28.0429
0
LINE
8
Black
10
34
20
-28.0429
11
34.1429
21
-28.3286
0
LINE
8
Black
10
34.1429
20
-28.3286
11
34.2857
21
-28.9
0
LINE
8
Black
10
34.2857
20
-28.9
11
34.2857
21
-29.6143
0
LINE
8
Black
10
34.2857
20
-29.6143
11
34.1429
21
-30.1857
0
LINE
8
Black
10
34.1429
20
-30.1857
11
34
21
-30.4714
0
LINE
8
Black
10
34
20
-30.4714
11
33.8571
21
-30.6143
0
LINE
8
Black
10
33.8571
20
-30.6143
11
33.5714
21
-30.7571
0
LINE
8
Black
10
33.5714
20
-30.7571
11
33.2857
21
-30.7571
0
LINE
8
Black
10
33.2857
20
-30.7571
11
33
21
-30.6143
0
LINE
8
Black
10
33
20
-30.6143
11
32.8571
21
-30.4714
0
LINE
8
Black
10
32.8571
20
-30.4714
11
32.7143
21
-30.1857
0
LINE
8
Black
10
32.7143
20
-30.1857
11
32.5714
21
-29.6143
0
LINE
8
Black
10
32.5714
20
-29.6143
11
32.5714
21
-28.9
0
LINE
8
Black
10
32.5714
20
-28.9
11
32.7143
21
-28.3286
0
LINE
8
Black
10
32.7143
20
-28.3286
11
32.8571
21
-28.0429
0
LINE
8
Black
10
32.8571
20
-28.0429
11
33
21
-27.9
0
LINE
8
Black
10
33
20
-27.9
11
33.2857
21
-27.7571
0
LINE
8
Black
10
36
20
-29.0429
11
35.7143
21
-28.9
0
LINE
8
Black
10
35.7143
20
-28.9
11
35.5714
21
-28.7571
0
LINE
8
Black
10
35.5714
20
-28.7571
11
35.4286
21
-28.4714
0
LINE
8
Black
10
35.4286
20
-28.4714
11
35.4286
21
-28.3286
0
LINE
8
Black
10
35.4286
20
-28.3286
11
35.5714
21
-28.0429
0
LINE
8
Black
10
35.5714
20
-28.0429
11
35.7143
21
-27.9
0
LINE
8
Black
10
35.7143
20
-27.9
11
36
21
-27.7571
0
LINE
8
Black
10
36
20
-27.7571
11
36.5714
21
-27.7571
0
LINE
8
Black
10
36.5714
20
-27.7571
11
36.8571
21
-27.9
0
LINE
8
Black
10
36.8571
20
-27.9
11
37
21
-28.0429
0
LINE
8
Black
10
37
20
-28.0429
11
37.1429
21
-28.3286
0
LINE
8
Black
10
37.1429
20
-28.3286
11
37.1429
21
-28.4714
0
LINE
8
Black
10
37.1429
20
-28.4714
11
37
21
-28.7571
0
LINE
8
Black
10
37
20
-28.7571
11
36.8571
21
-28.9
0
LINE
8
Black
10
36.8571
20
-28.9
11
36.5714
21
-29.0429
0
LINE
8
Black
10
36.5714
20
-29.0429
11
36
21
-29.0429
0
LINE
8
Black
10
36
20
-29.0429
11
35.7143
21
-29.1857
0
LINE
8
Black
10
35.7143
20
-29.1857
11
35.5714
21
-29.3286
0
LINE
8
Black
10
35.5714
20
-29.3286
11
35.4286
21
-29.6143
0
LINE
8
Black
10
35.4286
20
-29.6143
11
35.4286
21
-30.1857
0
LINE
8
Black
10
35.4286
20
-30.1857
11
35.5714
21
-30.4714
0
LINE
8
Black
10
35.5714
20
-30.4714
11
35.7143
21
-30.6143
0
LINE
8
Black
10
35.7143
20
-30.6143
11
36
21
-30.7571
0
LINE
8
Black
10
36
20
-30.7571
11
36.5714
21
-30.7571
0
LINE
8
Black
10
36.5714
20
-30.7571
11
36.8571
21
-30.6143
0
LINE
8
Black
10
36.8571
20
-30.6143
11
37
21
-30.4714
0
LINE
8
Black
10
37
20
-30.4714
11
37.1429
21
-30.1857
0
LINE
8
Black
10
37.1429
20
-30.1857
11
37.1429
21
-29.6143
0
LINE
8
Black
10
37.1429
20
-29.6143
11
37
21
-29.3286
0
LINE
8
Black
10
37
20
-29.3286
11
36.8571
21
-29.1857
0
LINE
8
Black
10
36.8571
20
-29.1857
11
36.5714
21
-29.0429
0
LINE
8
Black
10
38.1429
20
-27.7571
11
40.1429
21
-27.7571
0
LINE
8
Black
10
40.1429
20
-27.7571
11
38.8571
21
-30.7571
0
LINE
8
Black
10
41.1429
20
-27.7571
11
41.1429
21
-28.3286
0
LINE
8
Black
10
42.2857
20
-27.7571
11
42.2857
21
-28.3286
0
LINE
8
Black
10
46.7143
20
-31.9
11
46.5714
21
-31.7571
0
LINE
8
Black
10
46.5714
20
-31.7571
11
46.2857
21
-31.3286
0
LINE
8
Black
10
46.2857
20
-31.3286
11
46.1429
21
-31.0429
0
LINE
8
Black
10
46.1429
20
-31.0429
11
46
21
-30.6143
0
LINE
8
Black
10
46
20
-30.6143
11
45.8571
21
-29.9
0
LINE
8
Black
10
45.8571
20
-29.9
11
45.8571
21
-29.3286
0
LINE
8
Black
10
45.8571
20
-29.3286
11
46
21
-28.6143
0
LINE
8
Black
10
46
20
-28.6143
11
46.1429
21
-28.1857
0
LINE
8
Black
10
46.1429
20
-28.1857
11
46.2857
21
-27.9
0
LINE
8
Black
10
46.2857
20
-27.9
11
46.5714
21
-27.4714
0
LINE
8
Black
10
46.5714
20
-27.4714
11
46.7143
21
-27.3286
0
LINE
8
Black
10
49.1429
20
-28.7571
11
49.1429
21
-30.7571
0
LINE
8
Black
10
48.4286
20
-27.6143
11
47.7143
21
-29.7571
0
LINE
8
Black
10
47.7143
20
-29.7571
11
49.5714
21
-29.7571
0
LINE
8
Black
10
53
20
-30.7571
11
53
21
-27.7571
0
LINE
8
Black
10
54.2857
20
-30.7571
11
54.2857
21
-29.1857
0
LINE
8
Black
10
54.2857
20
-29.1857
11
54.1429
21
-28.9
0
LINE
8
Black
10
54.1429
20
-28.9
11
53.8571
21
-28.7571
0
LINE
8
Black
10
53.8571
20
-28.7571
11
53.4286
21
-28.7571
0
LINE
8
Black
10
53.4286
20
-28.7571
11
53.1429
21
-28.9
0
LINE
8
Black
10
53.1429
20
-28.9
11
53
21
-29.0429
0
LINE
8
Black
10
56.1429
20
-30.7571
11
55.8571
21
-30.6143
0
LINE
8
Black
10
55.8571
20
-30.6143
11
55.7143
21
-30.4714
0
LINE
8
Black
10
55.7143
20
-30.4714
11
55.5714
21
-30.1857
0
LINE
8
Black
10
55.5714
20
-30.1857
11
55.5714
21
-29.3286
0
LINE
8
Black
10
55.5714
20
-29.3286
11
55.7143
21
-29.0429
0
LINE
8
Black
10
55.7143
20
-29.0429
11
55.8571
21
-28.9
0
LINE
8
Black
10
55.8571
20
-28.9
11
56.1429
21
-28.7571
0
LINE
8
Black
10
56.1429
20
-28.7571
11
56.5714
21
-28.7571
0
LINE
8
Black
10
56.5714
20
-28.7571
11
56.8571
21
-28.9
0
LINE
8
Black
10
56.8571
20
-28.9
11
57
21
-29.0429
0
LINE
8
Black
10
57
20
-29.0429
11
57.1429
21
-29.3286
0
LINE
8
Black
10
57.1429
20
-29.3286
11
57.1429
21
-30.1857
0
LINE
8
Black
10
57.1429
20
-30.1857
11
57
21
-30.4714
0
LINE
8
Black
10
57
20
-30.4714
11
56.8571
21
-30.6143
0
LINE
8
Black
10
56.8571
20
-30.6143
11
56.5714
21
-30.7571
0
LINE
8
Black
10
56.5714
20
-30.7571
11
56.1429
21
-30.7571
0
LINE
8
Black
10
58.8571
20
-30.7571
11
58.5714
21
-30.6143
0
LINE
8
Black
10
58.5714
20
-30.6143
11
58.4286
21
-30.3286
0
LINE
8
Black
10
58.4286
20
-30.3286
11
58.4286
21
-27.7571
0
LINE
8
Black
10
61.1429
20
-30.6143
11
60.8571
21
-30.7571
0
LINE
8
Black
10
60.8571
20
-30.7571
11
60.2857
21
-30.7571
0
LINE
8
Black
10
60.2857
20
-30.7571
11
60
21
-30.6143
0
LINE
8
Black
10
60
20
-30.6143
11
59.8571
21
-30.3286
0
LINE
8
Black
10
59.8571
20
-30.3286
11
59.8571
21
-29.1857
0
LINE
8
Black
10
59.8571
20
-29.1857
11
60
21
-28.9
0
LINE
8
Black
10
60
20
-28.9
11
60.2857
21
-28.7571
0
LINE
8
Black
10
60.2857
20
-28.7571
11
60.8571
21
-28.7571
0
LINE
8
Black
10
60.8571
20
-28.7571
11
61.1429
21
-28.9
0
LINE
8
Black
10
61.1429
20
-28.9
11
61.2857
21
-29.1857
0
LINE
8
Black
10
61.2857
20
-29.1857
11
61.2857
21
-29.4714
0
LINE
8
Black
10
61.2857
20
-29.4714
11
59.8571
21
-29.7571
0
LINE
8
Black
10
62.4286
20
-30.6143
11
62.7143
21
-30.7571
0
LINE
8
Black
10
62.7143
20
-30.7571
11
63.2857
21
-30.7571
0
LINE
8
Black
10
63.2857
20
-30.7571
11
63.5714
21
-30.6143
0
LINE
8
Black
10
63.5714
20
-30.6143
11
63.7143
21
-30.3286
0
LINE
8
Black
10
63.7143
20
-30.3286
11
63.7143
21
-30.1857
0
LINE
8
Black
10
63.7143
20
-30.1857
11
63.5714
21
-29.9
0
LINE
8
Black
10
63.5714
20
-29.9
11
63.2857
21
-29.7571
0
LINE
8
Black
10
63.2857
20
-29.7571
11
62.8571
21
-29.7571
0
LINE
8
Black
10
62.8571
20
-29.7571
11
62.5714
21
-29.6143
0
LINE
8
Black
10
62.5714
20
-29.6143
11
62.4286
21
-29.3286
0
LINE
8
Black
10
62.4286
20
-29.3286
11
62.4286
21
-29.1857
0
LINE
8
Black
10
62.4286
20
-29.1857
11
62.5714
21
-28.9
0
LINE
8
Black
10
62.5714
20
-28.9
11
62.8571
21
-28.7571
0
LINE
8
Black
10
62.8571
20
-28.7571
11
63.2857
21
-28.7571
0
LINE
8
Black
10
63.2857
20
-28.7571
11
63.5714
21
-28.9
0
LINE
8
Black
10
64.7143
20
-31.9
11
64.8571
21
-31.7571
0
LINE
8
Black
10
64.8571
20
-31.7571
11
65.1429
21
-31.3286
0
LINE
8
Black
10
65.1429
20
-31.3286
11
65.2857
21
-31.0429
0
LINE
8
Black
10
65.2857
20
-31.0429
11
65.4286
21
-30.6143
0
LINE
8
Black
10
65.4286
20
-30.6143
11
65.5714
21
-29.9
0
LINE
8
Black
10
65.5714
20
-29.9
11
65.5714
21
-29.3286
0
LINE
8
Black
10
65.5714
20
-29.3286
11
65.4286
21
-28.6143
0
LINE
8
Black
10
65.4286
20
-28.6143
11
65.2857
21
-28.1857
0
LINE
8
Black
10
65.2857
20
-28.1857
11
65.1429
21
-27.9
0
LINE
8
Black
10
65.1429
20
-27.9
11
64.8571
21
-27.4714
0
LINE
8
Black
10
64.8571
20
-27.4714
11
64.7143
21
-27.3286
0
LINE
8
Black
10
-3.5
20
-31.61
11
0
21
-35.11
0
LINE
8
Black
10
0
20
-31.61
11
-3.5
21
-35.11
0
LINE
8
Black
10
-1.75
20
-31.61
11
-1.75
21
-35.11
0
LINE
8
Black
10
-3.5
20
-33.36
11
0
21
-33.36
0
LINE
8
Black
10
2.42857
20
-31.7171
11
4.28571
21
-31.7171
0
LINE
8
Black
10
4.28571
20
-31.7171
11
3.28571
21
-32.86
0
LINE
8
Black
10
3.28571
20
-32.86
11
3.71429
21
-32.86
0
LINE
8
Black
10
3.71429
20
-32.86
11
4
21
-33.0029
0
LINE
8
Black
10
4
20
-33.0029
11
4.14286
21
-33.1457
0
LINE
8
Black
10
4.14286
20
-33.1457
11
4.28571
21
-33.4314
0
LINE
8
Black
10
4.28571
20
-33.4314
11
4.28571
21
-34.1457
0
LINE
8
Black
10
4.28571
20
-34.1457
11
4.14286
21
-34.4314
0
LINE
8
Black
10
4.14286
20
-34.4314
11
4
21
-34.5743
0
LINE
8
Black
10
4
20
-34.5743
11
3.71429
21
-34.7171
0
LINE
8
Black
10
3.71429
20
-34.7171
11
2.85714
21
-34.7171
0
LINE
8
Black
10
2.85714
20
-34.7171
11
2.57143
21
-34.5743
0
LINE
8
Black
10
2.57143
20
-34.5743
11
2.42857
21
-34.4314
0
LINE
8
Black
10
5.57143
20
-34.4314
11
5.71429
21
-34.5743
0
LINE
8
Black
10
5.71429
20
-34.5743
11
5.57143
21
-34.7171
0
LINE
8
Black
10
5.57143
20
-34.7171
11
5.42857
21
-34.5743
0
LINE
8
Black
10
5.42857
20
-34.5743
11
5.57143
21
-34.4314
0
LINE
8
Black
10
5.57143
20
-34.4314
11
5.57143
21
-34.7171
0
LINE
8
Black
10
8.42857
20
-31.7171
11
7
21
-31.7171
0
LINE
8
Black
10
7
20
-31.7171
11
6.85714
21
-33.1457
0
LINE
8
Black
10
6.85714
20
-33.1457
11
7
21
-33.0029
0
LINE
8
Black
10
7
20
-33.0029
11
7.28571
21
-32.86
0
LINE
8
Black
10
7.28571
20
-32.86
11
8
21
-32.86
0
LINE
8
Black
10
8
20
-32.86
11
8.28571
21
-33.0029
0
LINE
8
Black
10
8.28571
20
-33.0029
11
8.42857
21
-33.1457
0
LINE
8
Black
10
8.42857
20
-33.1457
11
8.57143
21
-33.4314
0
LINE
8
Black
10
8.57143
20
-33.4314
11
8.57143
21
-34.1457
0
LINE
8
Black
10
8.57143
20
-34.1457
11
8.42857
21
-34.4314
0
LINE
8
Black
10
8.42857
20
-34.4314
11
8.28571
21
-34.5743
0
LINE
8
Black
10
8.28571
20
-34.5743
11
8
21
-34.7171
0
LINE
8
Black
10
8
20
-34.7171
11
7.28571
21
-34.7171
0
LINE
8
Black
10
7.28571
20
-34.7171
11
7
21
-34.5743
0
LINE
8
Black
10
7
20
-34.5743
11
6.85714
21
-34.4314
0
LINE
8
Black
10
10.4286
20
-31.7171
11
10.7143
21
-31.7171
0
LINE
8
Black
10
10.7143
20
-31.7171
11
11
21
-31.86
0
LINE
8
Black
10
11
20
-31.86
11
11.1429
21
-32.0029
0
LINE
8
Black
10
11.1429
20
-32.0029
11
11.2857
21
-32.2886
0
LINE
8
Black
10
11.2857
20
-32.2886
11
11.4286
21
-32.86
0
LINE
8
Black
10
11.4286
20
-32.86
11
11.4286
21
-33.5743
0
LINE
8
Black
10
11.4286
20
-33.5743
11
11.2857
21
-34.1457
0
LINE
8
Black
10
11.2857
20
-34.1457
11
11.1429
21
-34.4314
0
LINE
8
Black
10
11.1429
20
-34.4314
11
11
21
-34.5743
0
LINE
8
Black
10
11
20
-34.5743
11
10.7143
21
-34.7171
0
LINE
8
Black
10
10.7143
20
-34.7171
11
10.4286
21
-34.7171
0
LINE
8
Black
10
10.4286
20
-34.7171
11
10.1429
21
-34.5743
0
LINE
8
Black
10
10.1429
20
-34.5743
11
10
21
-34.4314
0
LINE
8
Black
10
10
20
-34.4314
11
9.85714
21
-34.1457
0
LINE
8
Black
10
9.85714
20
-34.1457
11
9.71429
21
-33.5743
0
LINE
8
Black
10
9.71429
20
-33.5743
11
9.71429
21
-32.86
0
LINE
8
Black
10
9.71429
20
-32.86
11
9.85714
21
-32.2886
0
LINE
8
Black
10
9.85714
20
-32.2886
11
10
21
-32.0029
0
LINE
8
Black
10
10
20
-32.0029
11
10.1429
21
-31.86
0
LINE
8
Black
10
10.1429
20
-31.86
11
10.4286
21
-31.7171
0
LINE
8
Black
10
12.7143
20
-34.7171
11
12.7143
21
-32.7171
0
LINE
8
Black
10
12.7143
20
-33.0029
11
12.8571
21
-32.86
0
LINE
8
Black
10
12.8571
20
-32.86
11
13.1429
21
-32.7171
0
LINE
8
Black
10
13.1429
20
-32.7171
11
13.5714
21
-32.7171
0
LINE
8
Black
10
13.5714
20
-32.7171
11
13.8571
21
-32.86
0
LINE
8
Black
10
13.8571
20
-32.86
11
14
21
-33.1457
0
LINE
8
Black
10
14
20
-33.1457
11
14
21
-34.7171
0
LINE
8
Black
10
14
20
-33.1457
11
14.1429
21
-32.86
0
LINE
8
Black
10
14.1429
20
-32.86
11
14.4286
21
-32.7171
0
LINE
8
Black
10
14.4286
20
-32.7171
11
14.8571
21
-32.7171
0
LINE
8
Black
10
14.8571
20
-32.7171
11
15.1429
21
-32.86
0
LINE
8
Black
10
15.1429
20
-32.86
11
15.2857
21
-33.1457
0
LINE
8
Black
10
15.2857
20
-33.1457
11
15.2857
21
-34.7171
0
LINE
8
Black
10
16.7143
20
-34.7171
11
16.7143
21
-32.7171
0
LINE
8
Black
10
16.7143
20
-33.0029
11
16.8571
21
-32.86
0
LINE
8
Black
10
16.8571
20
-32.86
11
17.1429
21
-32.7171
0
LINE
8
Black
10
17.1429
20
-32.7171
11
17.5714
21
-32.7171
0
LINE
8
Black
10
17.5714
20
-32.7171
11
17.8571
21
-32.86
0
LINE
8
Black
10
17.8571
20
-32.86
11
18
21
-33.1457
0
LINE
8
Black
10
18
20
-33.1457
11
18
21
-34.7171
0
LINE
8
Black
10
18
20
-33.1457
11
18.1429
21
-32.86
0
LINE
8
Black
10
18.1429
20
-32.86
11
18.4286
21
-32.7171
0
LINE
8
Black
10
18.4286
20
-32.7171
11
18.8571
21
-32.7171
0
LINE
8
Black
10
18.8571
20
-32.7171
11
19.1429
21
-32.86
0
LINE
8
Black
10
19.1429
20
-32.86
11
19.2857
21
-33.1457
0
LINE
8
Black
10
19.2857
20
-33.1457
11
19.2857
21
-34.7171
0
LINE
8
Black
10
25.1429
20
-31.5743
11
22.5714
21
-35.4314
0
LINE
8
Black
10
29
20
-31.7171
11
29.2857
21
-31.7171
0
LINE
8
Black
10
29.2857
20
-31.7171
11
29.5714
21
-31.86
0
LINE
8
Black
10
29.5714
20
-31.86
11
29.7143
21
-32.0029
0
LINE
8
Black
10
29.7143
20
-32.0029
11
29.8571
21
-32.2886
0
LINE
8
Black
10
29.8571
20
-32.2886
11
30
21
-32.86
0
LINE
8
Black
10
30
20
-32.86
11
30
21
-33.5743
0
LINE
8
Black
10
30
20
-33.5743
11
29.8571
21
-34.1457
0
LINE
8
Black
10
29.8571
20
-34.1457
11
29.7143
21
-34.4314
0
LINE
8
Black
10
29.7143
20
-34.4314
11
29.5714
21
-34.5743
0
LINE
8
Black
10
29.5714
20
-34.5743
11
29.2857
21
-34.7171
0
LINE
8
Black
10
29.2857
20
-34.7171
11
29
21
-34.7171
0
LINE
8
Black
10
29
20
-34.7171
11
28.7143
21
-34.5743
0
LINE
8
Black
10
28.7143
20
-34.5743
11
28.5714
21
-34.4314
0
LINE
8
Black
10
28.5714
20
-34.4314
11
28.4286
21
-34.1457
0
LINE
8
Black
10
28.4286
20
-34.1457
11
28.2857
21
-33.5743
0
LINE
8
Black
10
28.2857
20
-33.5743
11
28.2857
21
-32.86
0
LINE
8
Black
10
28.2857
20
-32.86
11
28.4286
21
-32.2886
0
LINE
8
Black
10
28.4286
20
-32.2886
11
28.5714
21
-32.0029
0
LINE
8
Black
10
28.5714
20
-32.0029
11
28.7143
21
-31.86
0
LINE
8
Black
10
28.7143
20
-31.86
11
29
21
-31.7171
0
LINE
8
Black
10
31.2857
20
-34.4314
11
31.4286
21
-34.5743
0
LINE
8
Black
10
31.4286
20
-34.5743
11
31.2857
21
-34.7171
0
LINE
8
Black
10
31.2857
20
-34.7171
11
31.1429
21
-34.5743
0
LINE
8
Black
10
31.1429
20
-34.5743
11
31.2857
21
-34.4314
0
LINE
8
Black
10
31.2857
20
-34.4314
11
31.2857
21
-34.7171
0
LINE
8
Black
10
34.2857
20
-34.7171
11
32.5714
21
-34.7171
0
LINE
8
Black
10
33.4286
20
-34.7171
11
33.4286
21
-31.7171
0
LINE
8
Black
10
33.4286
20
-31.7171
11
33.1429
21
-32.1457
0
LINE
8
Black
10
33.1429
20
-32.1457
11
32.8571
21
-32.4314
0
LINE
8
Black
10
32.8571
20
-32.4314
11
32.5714
21
-32.5743
0
LINE
8
Black
10
35.2857
20
-31.7171
11
37.1429
21
-31.7171
0
LINE
8
Black
10
37.1429
20
-31.7171
11
36.1429
21
-32.86
0
LINE
8
Black
10
36.1429
20
-32.86
11
36.5714
21
-32.86
0
LINE
8
Black
10
36.5714
20
-32.86
11
36.8571
21
-33.0029
0
LINE
8
Black
10
36.8571
20
-33.0029
11
37
21
-33.1457
0
LINE
8
Black
10
37
20
-33.1457
11
37.1429
21
-33.4314
0
LINE
8
Black
10
37.1429
20
-33.4314
11
37.1429
21
-34.1457
0
LINE
8
Black
10
37.1429
20
-34.1457
11
37
21
-34.4314
0
LINE
8
Black
10
37
20
-34.4314
11
36.8571
21
-34.5743
0
LINE
8
Black
10
36.8571
20
-34.5743
11
36.5714
21
-34.7171
0
LINE
8
Black
10
36.5714
20
-34.7171
11
35.7143
21
-34.7171
0
LINE
8
Black
10
35.7143
20
-34.7171
11
35.4286
21
-34.5743
0
LINE
8
Black
10
35.4286
20
-34.5743
11
35.2857
21
-34.4314
0
LINE
8
Black
10
38.8571
20
-33.0029
11
38.5714
21
-32.86
0
LINE
8
Black
10
38.5714
20
-32.86
11
38.4286
21
-32.7171
0
LINE
8
Black
10
38.4286
20
-32.7171
11
38.2857
21
-32.4314
0
LINE
8
Black
10
38.2857
20
-32.4314
11
38.2857
21
-32.2886
0
LINE
8
Black
10
38.2857
20
-32.2886
11
38.4286
21
-32.0029
0
LINE
8
Black
10
38.4286
20
-32.0029
11
38.5714
21
-31.86
0
LINE
8
Black
10
38.5714
20
-31.86
11
38.8571
21
-31.7171
0
LINE
8
Black
10
38.8571
20
-31.7171
11
39.4286
21
-31.7171
0
LINE
8
Black
10
39.4286
20
-31.7171
11
39.7143
21
-31.86
0
LINE
8
Black
10
39.7143
20
-31.86
11
39.8571
21
-32.0029
0
LINE
8
Black
10
39.8571
20
-32.0029
11
40
21
-32.2886
0
LINE
8
Black
10
40
20
-32.2886
11
40
21
-32.4314
0
LINE
8
Black
10
40
20
-32.4314
11
39.8571
21
-32.7171
0
LINE
8
Black
10
39.8571
20
-32.7171
11
39.7143
21
-32.86
0
LINE
8
Black
10
39.7143
20
-32.86
11
39.4286
21
-33.0029
0
LINE
8
Black
10
39.4286
20
-33.0029
11
38.8571
21
-33.0029
0
LINE
8
Black
10
38.8571
20
-33.0029
11
38.5714
21
-33.1457
0
LINE
8
Black
10
38.5714
20
-33.1457
11
38.4286
21
-33.2886
0
LINE
8
Black
10
38.4286
20
-33.2886
11
38.2857
21
-33.5743
0
LINE
8
Black
10
38.2857
20
-33.5743
11
38.2857
21
-34.1457
0
LINE
8
Black
10
38.2857
20
-34.1457
11
38.4286
21
-34.4314
0
LINE
8
Black
10
38.4286
20
-34.4314
11
38.5714
21
-34.5743
0
LINE
8
Black
10
38.5714
20
-34.5743
11
38.8571
21
-34.7171
0
LINE
8
Black
10
38.8571
20
-34.7171
11
39.4286
21
-34.7171
0
LINE
8
Black
10
39.4286
20
-34.7171
11
39.7143
21
-34.5743
0
LINE
8
Black
10
39.7143
20
-34.5743
11
39.8571
21
-34.4314
0
LINE
8
Black
10
39.8571
20
-34.4314
11
40
21
-34.1457
0
LINE
8
Black
10
40
20
-34.1457
11
40
21
-33.5743
0
LINE
8
Black
10
40
20
-33.5743
11
39.8571
21
-33.2886
0
LINE
8
Black
10
39.8571
20
-33.2886
11
39.7143
21
-33.1457
0
LINE
8
Black
10
39.7143
20
-33.1457
11
39.4286
21
-33.0029
0
LINE
8
Black
10
41.1429
20
-31.7171
11
41.1429
21
-32.2886
0
LINE
8
Black
10
42.2857
20
-31.7171
11
42.2857
21
-32.2886
0
LINE
8
Black
10
46.7143
20
-35.86
11
46.5714
21
-35.7171
0
LINE
8
Black
10
46.5714
20
-35.7171
11
46.2857
21
-35.2886
0
LINE
8
Black
10
46.2857
20
-35.2886
11
46.1429
21
-35.0029
0
LINE
8
Black
10
46.1429
20
-35.0029
11
46
21
-34.5743
0
LINE
8
Black
10
46
20
-34.5743
11
45.8571
21
-33.86
0
LINE
8
Black
10
45.8571
20
-33.86
11
45.8571
21
-33.2886
0
LINE
8
Black
10
45.8571
20
-33.2886
11
46
21
-32.5743
0
LINE
8
Black
10
46
20
-32.5743
11
46.1429
21
-32.1457
0
LINE
8
Black
10
46.1429
20
-32.1457
11
46.2857
21
-31.86
0
LINE
8
Black
10
46.2857
20
-31.86
11
46.5714
21
-31.4314
0
LINE
8
Black
10
46.5714
20
-31.4314
11
46.7143
21
-31.2886
0
LINE
8
Black
10
49.2857
20
-31.7171
11
47.8571
21
-31.7171
0
LINE
8
Black
10
47.8571
20
-31.7171
11
47.7143
21
-33.1457
0
LINE
8
Black
10
47.7143
20
-33.1457
11
47.8571
21
-33.0029
0
LINE
8
Black
10
47.8571
20
-33.0029
11
48.1429
21
-32.86
0
LINE
8
Black
10
48.1429
20
-32.86
11
48.8571
21
-32.86
0
LINE
8
Black
10
48.8571
20
-32.86
11
49.1429
21
-33.0029
0
LINE
8
Black
10
49.1429
20
-33.0029
11
49.2857
21
-33.1457
0
LINE
8
Black
10
49.2857
20
-33.1457
11
49.4286
21
-33.4314
0
LINE
8
Black
10
49.4286
20
-33.4314
11
49.4286
21
-34.1457
0
LINE
8
Black
10
49.4286
20
-34.1457
11
49.2857
21
-34.4314
0
LINE
8
Black
10
49.2857
20
-34.4314
11
49.1429
21
-34.5743
0
LINE
8
Black
10
49.1429
20
-34.5743
11
48.8571
21
-34.7171
0
LINE
8
Black
10
48.8571
20
-34.7171
11
48.1429
21
-34.7171
0
LINE
8
Black
10
48.1429
20
-34.7171
11
47.8571
21
-34.5743
0
LINE
8
Black
10
47.8571
20
-34.5743
11
47.7143
21
-34.4314
0
LINE
8
Black
10
53
20
-34.7171
11
53
21
-31.7171
0
LINE
8
Black
10
54.2857
20
-34.7171
11
54.2857
21
-33.1457
0
LINE
8
Black
10
54.2857
20
-33.1457
11
54.1429
21
-32.86
0
LINE
8
Black
10
54.1429
20
-32.86
11
53.8571
21
-32.7171
0
LINE
8
Black
10
53.8571
20
-32.7171
11
53.4286
21
-32.7171
0
LINE
8
Black
10
53.4286
20
-32.7171
11
53.1429
21
-32.86
0
LINE
8
Black
10
53.1429
20
-32.86
11
53
21
-33.0029
0
LINE
8
Black
10
56.1429
20
-34.7171
11
55.8571
21
-34.5743
0
LINE
8
Black
10
55.8571
20
-34.5743
11
55.7143
21
-34.4314
0
LINE
8
Black
10
55.7143
20
-34.4314
11
55.5714
21
-34.1457
0
LINE
8
Black
10
55.5714
20
-34.1457
11
55.5714
21
-33.2886
0
LINE
8
Black
10
55.5714
20
-33.2886
11
55.7143
21
-33.0029
0
LINE
8
Black
10
55.7143
20
-33.0029
11
55.8571
21
-32.86
0
LINE
8
Black
10
55.8571
20
-32.86
11
56.1429
21
-32.7171
0
LINE
8
Black
10
56.1429
20
-32.7171
11
56.5714
21
-32.7171
0
LINE
8
Black
10
56.5714
20
-32.7171
11
56.8571
21
-32.86
0
LINE
8
Black
10
56.8571
20
-32.86
11
57
21
-33.0029
0
LINE
8
Black
10
57
20
-33.0029
11
57.1429
21
-33.2886
0
LINE
8
Black
10
57.1429
20
-33.2886
11
57.1429
21
-34.1457
0
LINE
8
Black
10
57.1429
20
-34.1457
11
57
21
-34.4314
0
LINE
8
Black
10
57
20
-34.4314
11
56.8571
21
-34.5743
0
LINE
8
Black
10
56.8571
20
-34.5743
11
56.5714
21
-34.7171
0
LINE
8
Black
10
56.5714
20
-34.7171
11
56.1429
21
-34.7171
0
LINE
8
Black
10
58.8571
20
-34.7171
11
58.5714
21
-34.5743
0
LINE
8
Black
10
58.5714
20
-34.5743
11
58.4286
21
-34.2886
0
LINE
8
Black
10
58.4286
20
-34.2886
11
58.4286
21
-31.7171
0
LINE
8
Black
10
61.1429
20
-34.5743
11
60.8571
21
-34.7171
0
LINE
8
Black
10
60.8571
20
-34.7171
11
60.2857
21
-34.7171
0
LINE
8
Black
10
60.2857
20
-34.7171
11
60
21
-34.5743
0
LINE
8
Black
10
60
20
-34.5743
11
59.8571
21
-34.2886
0
LINE
8
Black
10
59.8571
20
-34.2886
11
59.8571
21
-33.1457
0
LINE
8
Black
10
59.8571
20
-33.1457
11
60
21
-32.86
0
LINE
8
Black
10
60
20
-32.86
11
60.2857
21
-32.7171
0
LINE
8
Black
10
60.2857
20
-32.7171
11
60.8571
21
-32.7171
0
LINE
8
Black
10
60.8571
20
-32.7171
11
61.1429
21
-32.86
0
LINE
8
Black
10
61.1429
20
-32.86
11
61.2857
21
-33.1457
0
LINE
8
Black
10
61.2857
20
-33.1457
11
61.2857
21
-33.4314
0
LINE
8
Black
10
61.2857
20
-33.4314
11
59.8571
21
-33.7171
0
LINE
8
Black
10
62.4286
20
-34.5743
11
62.7143
21
-34.7171
0
LINE
8
Black
10
62.7143
20
-34.7171
11
63.2857
21
-34.7171
0
LINE
8
Black
10
63.2857
20
-34.7171
11
63.5714
21
-34.5743
0
LINE
8
Black
10
63.5714
20
-34.5743
11
63.7143
21
-34.2886
0
LINE
8
Black
10
63.7143
20
-34.2886
11
63.7143
21
-34.1457
0
LINE
8
Black
10
63.7143
20
-34.1457
11
63.5714
21
-33.86
0
LINE
8
Black
10
63.5714
20
-33.86
11
63.2857
21
-33.7171
0
LINE
8
Black
10
63.2857
20
-33.7171
11
62.8571
21
-33.7171
0
LINE
8
Black
10
62.8571
20
-33.7171
11
62.5714
21
-33.5743
0
LINE
8
Black
10
62.5714
20
-33.5743
11
62.4286
21
-33.2886
0
LINE
8
Black
10
62.4286
20
-33.2886
11
62.4286
21
-33.1457
0
LINE
8
Black
10
62.4286
20
-33.1457
11
62.5714
21
-32.86
0
LINE
8
Black
10
62.5714
20
-32.86
11
62.8571
21
-32.7171
0
LINE
8
Black
10
62.8571
20
-32.7171
11
63.2857
21
-32.7171
0
LINE
8
Black
10
63.2857
20
-32.7171
11
63.5714
21
-32.86
0
LINE
8
Black
10
64.7143
20
-35.86
11
64.8571
21
-35.7171
0
LINE
8
Black
10
64.8571
20
-35.7171
11
65.1429
21
-35.2886
0
LINE
8
Black
10
65.1429
20
-35.2886
11
65.2857
21
-35.0029
0
LINE
8
Black
10
65.2857
20
-35.0029
11
65.4286
21
-34.5743
0
LINE
8
Black
10
65.4286
20
-34.5743
11
65.5714
21
-33.86
0
LINE
8
Black
10
65.5714
20
-33.86
11
65.5714
21
-33.2886
0
LINE
8
Black
10
65.5714
20
-33.2886
11
65.4286
21
-32.5743
0
LINE
8
Black
10
65.4286
20
-32.5743
11
65.2857
21
-32.1457
0
LINE
8
Black
10
65.2857
20
-32.1457
11
65.1429
21
-31.86
0
LINE
8
Black
10
65.1429
20
-31.86
11
64.8571
21
-31.4314
0
LINE
8
Black
10
64.8571
20
-31.4314
11
64.7143
21
-31.2886
  0
ENDSEC
  0
EOF
