M48
;DRILL file {KiCad 4.0.2-stable} date 29/12/2017 06:51:51
;FORMAT={-:-/ absolute / inch / decimal}
FMAT,2
INCH,TZ
T1C0.024
T2C0.031
T3C0.035
T4C0.039
T5C0.063
T6C0.087
T7C0.118
T8C0.138
%
G90
G05
M72
T1
X4.45Y-4.0725
X4.655Y-3.825
X4.73Y-4.195
X4.815Y-3.56
X4.8625Y-3.05
X4.9804Y-3.9146
X5.Y-3.0475
X5.Y-3.265
X5.0938Y-4.1463
X5.105Y-3.2
X5.115Y-2.7825
X5.1375Y-2.65
X5.1975Y-3.1425
X5.2075Y-2.925
X5.2125Y-4.3
X5.23Y-4.01
X5.245Y-3.3625
X5.2775Y-3.395
X5.28Y-3.8875
X5.315Y-4.225
X5.325Y-3.0525
X5.34Y-2.785
X5.84Y-3.79
X6.065Y-4.335
X6.245Y-3.33
X6.32Y-3.85
X6.39Y-3.9325
X6.4475Y-3.305
X6.465Y-4.13
X6.5625Y-3.2475
X6.645Y-4.025
X6.6675Y-3.305
X6.79Y-4.015
X6.7975Y-3.875
X6.8325Y-3.43
X7.195Y-4.03
T2
X6.1Y-3.11
X6.1Y-3.21
X6.1Y-4.06
X6.1Y-4.16
X6.3325Y-3.445
X6.3325Y-3.545
X6.3325Y-3.645
X6.3325Y-3.745
X6.6325Y-3.445
X6.6325Y-3.545
X6.6325Y-3.645
X6.6325Y-3.745
T3
X4.5702Y-3.5345
X4.5702Y-3.6345
X6.8828Y-3.635
X6.8828Y-3.735
T4
X5.3804Y-3.5164
X5.3804Y-3.7526
X5.3804Y-3.8707
X5.381Y-3.3983
X5.4804Y-3.5164
X5.4804Y-3.7526
X5.4804Y-3.8707
X5.481Y-3.3983
X5.5804Y-3.5164
X5.5804Y-3.7526
X5.5804Y-3.8707
X5.581Y-3.3983
X5.795Y-4.015
X5.795Y-4.115
X5.795Y-4.215
X5.7954Y-3.055
X5.7954Y-3.155
X5.7954Y-3.255
T5
X4.37Y-2.6475
X4.37Y-3.0475
X4.3739Y-2.8461
X4.57Y-2.6475
X4.57Y-2.8475
X4.57Y-3.0475
X6.8825Y-2.6475
X6.8825Y-2.8475
X6.8825Y-3.0475
X7.0825Y-2.6475
X7.0825Y-2.8475
X7.0825Y-3.0475
T6
X4.3702Y-3.4345
X4.3702Y-3.8345
X7.0828Y-3.435
X7.0828Y-3.835
T7
X4.9804Y-3.6345
X5.9804Y-3.6345
T8
X4.5355Y-4.5715
X5.7166Y-2.7014
X5.7166Y-4.5715
X6.504Y-2.7014
X6.504Y-4.5715
T0
M30
