G04 #@! TF.FileFunction,Legend,Top*
%FSLAX46Y46*%
G04 Gerber Fmt 4.6, Leading zero omitted, Abs format (unit mm)*
G04 Created by KiCad (PCBNEW 4.0.2-stable) date 29/12/2017 06:51:54*
%MOMM*%
G01*
G04 APERTURE LIST*
%ADD10C,0.100000*%
%ADD11C,0.150000*%
%ADD12C,0.120000*%
G04 APERTURE END LIST*
D10*
D11*
X151684000Y-79564000D02*
X151084000Y-79564000D01*
X149784000Y-79564000D02*
X149784000Y-80964000D01*
X149784000Y-80964000D02*
X150784000Y-80964000D01*
X152084000Y-80964000D02*
X152984000Y-80964000D01*
X152984000Y-80964000D02*
X152984000Y-79564000D01*
X120350000Y-92775000D02*
X120950000Y-92775000D01*
X122250000Y-92775000D02*
X122250000Y-91375000D01*
X122250000Y-91375000D02*
X121250000Y-91375000D01*
X119950000Y-91375000D02*
X119050000Y-91375000D01*
X119050000Y-91375000D02*
X119050000Y-92775000D01*
D12*
X133686000Y-94226000D02*
X133686000Y-93226000D01*
X135046000Y-93226000D02*
X135046000Y-94226000D01*
X170860000Y-74430000D02*
X170860000Y-75430000D01*
X169500000Y-75430000D02*
X169500000Y-74430000D01*
X157320500Y-93126000D02*
X158020500Y-93126000D01*
X158020500Y-94326000D02*
X157320500Y-94326000D01*
X159032500Y-88931000D02*
X159032500Y-89631000D01*
X157832500Y-89631000D02*
X157832500Y-88931000D01*
X171673000Y-97120000D02*
X170973000Y-97120000D01*
X170973000Y-95920000D02*
X171673000Y-95920000D01*
X163858500Y-86518000D02*
X163858500Y-87218000D01*
X162658500Y-87218000D02*
X162658500Y-86518000D01*
X170974500Y-98580500D02*
X170274500Y-98580500D01*
X170274500Y-97380500D02*
X170974500Y-97380500D01*
X133028500Y-81740500D02*
X133028500Y-83740500D01*
X135068500Y-83740500D02*
X135068500Y-81740500D01*
X135132000Y-102917500D02*
X135132000Y-100917500D01*
X133092000Y-100917500D02*
X133092000Y-102917500D01*
X173463500Y-92591000D02*
X173463500Y-93591000D01*
X172103500Y-93591000D02*
X172103500Y-92591000D01*
X170886500Y-89236000D02*
X171886500Y-89236000D01*
X171886500Y-90596000D02*
X170886500Y-90596000D01*
X157170500Y-91458500D02*
X158170500Y-91458500D01*
X158170500Y-92818500D02*
X157170500Y-92818500D01*
X133686000Y-91686000D02*
X133686000Y-90686000D01*
X135046000Y-90686000D02*
X135046000Y-91686000D01*
D11*
X120350000Y-97347000D02*
X120950000Y-97347000D01*
X122250000Y-97347000D02*
X122250000Y-95947000D01*
X122250000Y-95947000D02*
X121250000Y-95947000D01*
X119950000Y-95947000D02*
X119050000Y-95947000D01*
X119050000Y-95947000D02*
X119050000Y-97347000D01*
D12*
X164917500Y-90125000D02*
X165917500Y-90125000D01*
X165917500Y-91485000D02*
X164917500Y-91485000D01*
X171163500Y-87855500D02*
X171863500Y-87855500D01*
X171863500Y-89055500D02*
X171163500Y-89055500D01*
X165067500Y-88681000D02*
X165767500Y-88681000D01*
X165767500Y-89881000D02*
X165067500Y-89881000D01*
X164051500Y-91729000D02*
X164751500Y-91729000D01*
X164751500Y-92929000D02*
X164051500Y-92929000D01*
X172431000Y-74580000D02*
X172431000Y-75280000D01*
X171231000Y-75280000D02*
X171231000Y-74580000D01*
X120717500Y-70596000D02*
X120717500Y-68596000D01*
X118677500Y-68596000D02*
X118677500Y-70596000D01*
X167865500Y-98457500D02*
X167865500Y-97757500D01*
X169065500Y-97757500D02*
X169065500Y-98457500D01*
X165446000Y-85756000D02*
X165446000Y-86456000D01*
X164246000Y-86456000D02*
X164246000Y-85756000D01*
X171231000Y-70136500D02*
X171231000Y-69436500D01*
X172431000Y-69436500D02*
X172431000Y-70136500D01*
X118677500Y-73866500D02*
X118677500Y-75866500D01*
X120717500Y-75866500D02*
X120717500Y-73866500D01*
X154543000Y-86991000D02*
X152543000Y-86991000D01*
X152543000Y-89031000D02*
X154543000Y-89031000D01*
X152543000Y-97667000D02*
X154543000Y-97667000D01*
X154543000Y-95627000D02*
X152543000Y-95627000D01*
X152003000Y-74545000D02*
X150003000Y-74545000D01*
X150003000Y-76585000D02*
X152003000Y-76585000D01*
X151812500Y-109216000D02*
X149812500Y-109216000D01*
X149812500Y-111256000D02*
X151812500Y-111256000D01*
X163611000Y-100426000D02*
X163611000Y-99726000D01*
X164811000Y-99726000D02*
X164811000Y-100426000D01*
X140939000Y-84801000D02*
X140239000Y-84801000D01*
X140239000Y-83601000D02*
X140939000Y-83601000D01*
X137699000Y-99857000D02*
X138399000Y-99857000D01*
X138399000Y-101057000D02*
X137699000Y-101057000D01*
X134382000Y-75442000D02*
X136382000Y-75442000D01*
X136382000Y-73402000D02*
X134382000Y-73402000D01*
X130425000Y-81740500D02*
X130425000Y-83740500D01*
X132465000Y-83740500D02*
X132465000Y-81740500D01*
X132465000Y-105902000D02*
X132465000Y-103902000D01*
X130425000Y-103902000D02*
X130425000Y-105902000D01*
X134382000Y-111256000D02*
X136382000Y-111256000D01*
X136382000Y-109216000D02*
X134382000Y-109216000D01*
X136302000Y-79791000D02*
X137002000Y-79791000D01*
X137002000Y-80991000D02*
X136302000Y-80991000D01*
X136365500Y-103603500D02*
X137065500Y-103603500D01*
X137065500Y-104803500D02*
X136365500Y-104803500D01*
X131537000Y-93376000D02*
X131537000Y-94076000D01*
X130337000Y-94076000D02*
X130337000Y-93376000D01*
X133000000Y-86776000D02*
X133700000Y-86776000D01*
X133700000Y-87976000D02*
X133000000Y-87976000D01*
X133000000Y-96872500D02*
X133700000Y-96872500D01*
X133700000Y-98072500D02*
X133000000Y-98072500D01*
D11*
X142702000Y-77154000D02*
X143302000Y-77154000D01*
X144602000Y-77154000D02*
X144602000Y-75754000D01*
X144602000Y-75754000D02*
X143602000Y-75754000D01*
X142302000Y-75754000D02*
X141402000Y-75754000D01*
X141402000Y-75754000D02*
X141402000Y-77154000D01*
X142575000Y-108777000D02*
X143175000Y-108777000D01*
X144475000Y-108777000D02*
X144475000Y-107377000D01*
X144475000Y-107377000D02*
X143475000Y-107377000D01*
X142175000Y-107377000D02*
X141275000Y-107377000D01*
X141275000Y-107377000D02*
X141275000Y-108777000D01*
X151684000Y-104202000D02*
X151084000Y-104202000D01*
X149784000Y-104202000D02*
X149784000Y-105602000D01*
X149784000Y-105602000D02*
X150784000Y-105602000D01*
X152084000Y-105602000D02*
X152984000Y-105602000D01*
X152984000Y-105602000D02*
X152984000Y-104202000D01*
D12*
X165626500Y-84764500D02*
X165626500Y-83764500D01*
X166986500Y-83764500D02*
X166986500Y-84764500D01*
X169373000Y-100449000D02*
X169373000Y-99449000D01*
X170733000Y-99449000D02*
X170733000Y-100449000D01*
X133268000Y-93226000D02*
X133268000Y-94226000D01*
X131908000Y-94226000D02*
X131908000Y-93226000D01*
X136226000Y-72572500D02*
X136226000Y-71572500D01*
X137586000Y-71572500D02*
X137586000Y-72572500D01*
X136226000Y-113276000D02*
X136226000Y-112276000D01*
X137586000Y-112276000D02*
X137586000Y-113276000D01*
X129595500Y-84944500D02*
X128595500Y-84944500D01*
X128595500Y-83584500D02*
X129595500Y-83584500D01*
X128532000Y-102698000D02*
X129532000Y-102698000D01*
X129532000Y-104058000D02*
X128532000Y-104058000D01*
D11*
X145861000Y-90724000D02*
X145861000Y-90124000D01*
X145861000Y-88824000D02*
X144461000Y-88824000D01*
X144461000Y-88824000D02*
X144461000Y-89824000D01*
X144461000Y-91124000D02*
X144461000Y-92024000D01*
X144461000Y-92024000D02*
X145861000Y-92024000D01*
X145861000Y-94534000D02*
X145861000Y-93934000D01*
X145861000Y-92634000D02*
X144461000Y-92634000D01*
X144461000Y-92634000D02*
X144461000Y-93634000D01*
X144461000Y-94934000D02*
X144461000Y-95834000D01*
X144461000Y-95834000D02*
X145861000Y-95834000D01*
D12*
X166741500Y-95393000D02*
X166741500Y-97393000D01*
X164601500Y-97393000D02*
X164601500Y-95393000D01*
X170325500Y-93210000D02*
X170325500Y-92210000D01*
X171685500Y-92210000D02*
X171685500Y-93210000D01*
X162705500Y-90924000D02*
X162705500Y-89924000D01*
X164065500Y-89924000D02*
X164065500Y-90924000D01*
X156228500Y-96258000D02*
X156228500Y-95258000D01*
X157588500Y-95258000D02*
X157588500Y-96258000D01*
X128139500Y-69066500D02*
X122939500Y-69066500D01*
X122939500Y-65426500D02*
X128139500Y-65426500D01*
X152638000Y-85652000D02*
X150638000Y-85652000D01*
X150638000Y-83512000D02*
X152638000Y-83512000D01*
X150638000Y-99260000D02*
X152638000Y-99260000D01*
X152638000Y-101400000D02*
X150638000Y-101400000D01*
X154260000Y-85082000D02*
X154260000Y-84082000D01*
X155620000Y-84082000D02*
X155620000Y-85082000D01*
X154260000Y-100576000D02*
X154260000Y-99576000D01*
X155620000Y-99576000D02*
X155620000Y-100576000D01*
X169500000Y-70286500D02*
X169500000Y-69286500D01*
X170860000Y-69286500D02*
X170860000Y-70286500D01*
X128076000Y-79163000D02*
X122876000Y-79163000D01*
X122876000Y-75523000D02*
X128076000Y-75523000D01*
X134052000Y-75777000D02*
X139252000Y-75777000D01*
X139252000Y-79417000D02*
X134052000Y-79417000D01*
X139315500Y-108881000D02*
X134115500Y-108881000D01*
X134115500Y-105241000D02*
X139315500Y-105241000D01*
X163531000Y-103116000D02*
X163531000Y-102116000D01*
X164891000Y-102116000D02*
X164891000Y-103116000D01*
X143719000Y-81970500D02*
X143719000Y-80970500D01*
X145079000Y-80970500D02*
X145079000Y-81970500D01*
X143909500Y-103814500D02*
X143909500Y-102814500D01*
X145269500Y-102814500D02*
X145269500Y-103814500D01*
X145026000Y-88437000D02*
X144026000Y-88437000D01*
X144026000Y-87077000D02*
X145026000Y-87077000D01*
X146566000Y-87077000D02*
X147566000Y-87077000D01*
X147566000Y-88437000D02*
X146566000Y-88437000D01*
X145026000Y-97581000D02*
X144026000Y-97581000D01*
X144026000Y-96221000D02*
X145026000Y-96221000D01*
X136914000Y-90887000D02*
X137914000Y-90887000D01*
X137914000Y-92247000D02*
X136914000Y-92247000D01*
X140470000Y-92538000D02*
X141470000Y-92538000D01*
X141470000Y-93898000D02*
X140470000Y-93898000D01*
X123892000Y-95589000D02*
X129092000Y-95589000D01*
X129092000Y-99229000D02*
X123892000Y-99229000D01*
D11*
X158259500Y-99442500D02*
X158859500Y-99442500D01*
X160159500Y-99442500D02*
X160159500Y-98042500D01*
X160159500Y-98042500D02*
X159159500Y-98042500D01*
X157859500Y-98042500D02*
X156959500Y-98042500D01*
X156959500Y-98042500D02*
X156959500Y-99442500D01*
D12*
X162492500Y-95393000D02*
X162492500Y-97393000D01*
X164532500Y-97393000D02*
X164532500Y-95393000D01*
D11*
X150709405Y-77922381D02*
X150709405Y-76922381D01*
X150947500Y-76922381D01*
X151090358Y-76970000D01*
X151185596Y-77065238D01*
X151233215Y-77160476D01*
X151280834Y-77350952D01*
X151280834Y-77493810D01*
X151233215Y-77684286D01*
X151185596Y-77779524D01*
X151090358Y-77874762D01*
X150947500Y-77922381D01*
X150709405Y-77922381D01*
X152137977Y-76922381D02*
X151947500Y-76922381D01*
X151852262Y-76970000D01*
X151804643Y-77017619D01*
X151709405Y-77160476D01*
X151661786Y-77350952D01*
X151661786Y-77731905D01*
X151709405Y-77827143D01*
X151757024Y-77874762D01*
X151852262Y-77922381D01*
X152042739Y-77922381D01*
X152137977Y-77874762D01*
X152185596Y-77827143D01*
X152233215Y-77731905D01*
X152233215Y-77493810D01*
X152185596Y-77398571D01*
X152137977Y-77350952D01*
X152042739Y-77303333D01*
X151852262Y-77303333D01*
X151757024Y-77350952D01*
X151709405Y-77398571D01*
X151661786Y-77493810D01*
X119911905Y-89606381D02*
X119911905Y-88606381D01*
X120150000Y-88606381D01*
X120292858Y-88654000D01*
X120388096Y-88749238D01*
X120435715Y-88844476D01*
X120483334Y-89034952D01*
X120483334Y-89177810D01*
X120435715Y-89368286D01*
X120388096Y-89463524D01*
X120292858Y-89558762D01*
X120150000Y-89606381D01*
X119911905Y-89606381D01*
X121054762Y-89034952D02*
X120959524Y-88987333D01*
X120911905Y-88939714D01*
X120864286Y-88844476D01*
X120864286Y-88796857D01*
X120911905Y-88701619D01*
X120959524Y-88654000D01*
X121054762Y-88606381D01*
X121245239Y-88606381D01*
X121340477Y-88654000D01*
X121388096Y-88701619D01*
X121435715Y-88796857D01*
X121435715Y-88844476D01*
X121388096Y-88939714D01*
X121340477Y-88987333D01*
X121245239Y-89034952D01*
X121054762Y-89034952D01*
X120959524Y-89082571D01*
X120911905Y-89130190D01*
X120864286Y-89225429D01*
X120864286Y-89415905D01*
X120911905Y-89511143D01*
X120959524Y-89558762D01*
X121054762Y-89606381D01*
X121245239Y-89606381D01*
X121340477Y-89558762D01*
X121388096Y-89511143D01*
X121435715Y-89415905D01*
X121435715Y-89225429D01*
X121388096Y-89130190D01*
X121340477Y-89082571D01*
X121245239Y-89034952D01*
X135694000Y-94042667D02*
X135460666Y-93709333D01*
X135294000Y-94042667D02*
X135294000Y-93342667D01*
X135560666Y-93342667D01*
X135627333Y-93376000D01*
X135660666Y-93409333D01*
X135694000Y-93476000D01*
X135694000Y-93576000D01*
X135660666Y-93642667D01*
X135627333Y-93676000D01*
X135560666Y-93709333D01*
X135294000Y-93709333D01*
X135960666Y-93409333D02*
X135994000Y-93376000D01*
X136060666Y-93342667D01*
X136227333Y-93342667D01*
X136294000Y-93376000D01*
X136327333Y-93409333D01*
X136360666Y-93476000D01*
X136360666Y-93542667D01*
X136327333Y-93642667D01*
X135927333Y-94042667D01*
X136360666Y-94042667D01*
X136760667Y-93642667D02*
X136694000Y-93609333D01*
X136660667Y-93576000D01*
X136627333Y-93509333D01*
X136627333Y-93476000D01*
X136660667Y-93409333D01*
X136694000Y-93376000D01*
X136760667Y-93342667D01*
X136894000Y-93342667D01*
X136960667Y-93376000D01*
X136994000Y-93409333D01*
X137027333Y-93476000D01*
X137027333Y-93509333D01*
X136994000Y-93576000D01*
X136960667Y-93609333D01*
X136894000Y-93642667D01*
X136760667Y-93642667D01*
X136694000Y-93676000D01*
X136660667Y-93709333D01*
X136627333Y-93776000D01*
X136627333Y-93909333D01*
X136660667Y-93976000D01*
X136694000Y-94009333D01*
X136760667Y-94042667D01*
X136894000Y-94042667D01*
X136960667Y-94009333D01*
X136994000Y-93976000D01*
X137027333Y-93909333D01*
X137027333Y-93776000D01*
X136994000Y-93709333D01*
X136960667Y-93676000D01*
X136894000Y-93642667D01*
X168235334Y-75382381D02*
X167902000Y-74906190D01*
X167663905Y-75382381D02*
X167663905Y-74382381D01*
X168044858Y-74382381D01*
X168140096Y-74430000D01*
X168187715Y-74477619D01*
X168235334Y-74572857D01*
X168235334Y-74715714D01*
X168187715Y-74810952D01*
X168140096Y-74858571D01*
X168044858Y-74906190D01*
X167663905Y-74906190D01*
X168711524Y-75382381D02*
X168902000Y-75382381D01*
X168997239Y-75334762D01*
X169044858Y-75287143D01*
X169140096Y-75144286D01*
X169187715Y-74953810D01*
X169187715Y-74572857D01*
X169140096Y-74477619D01*
X169092477Y-74430000D01*
X168997239Y-74382381D01*
X168806762Y-74382381D01*
X168711524Y-74430000D01*
X168663905Y-74477619D01*
X168616286Y-74572857D01*
X168616286Y-74810952D01*
X168663905Y-74906190D01*
X168711524Y-74953810D01*
X168806762Y-75001429D01*
X168997239Y-75001429D01*
X169092477Y-74953810D01*
X169140096Y-74906190D01*
X169187715Y-74810952D01*
X155281334Y-94083143D02*
X155233715Y-94130762D01*
X155090858Y-94178381D01*
X154995620Y-94178381D01*
X154852762Y-94130762D01*
X154757524Y-94035524D01*
X154709905Y-93940286D01*
X154662286Y-93749810D01*
X154662286Y-93606952D01*
X154709905Y-93416476D01*
X154757524Y-93321238D01*
X154852762Y-93226000D01*
X154995620Y-93178381D01*
X155090858Y-93178381D01*
X155233715Y-93226000D01*
X155281334Y-93273619D01*
X155757524Y-94178381D02*
X155948000Y-94178381D01*
X156043239Y-94130762D01*
X156090858Y-94083143D01*
X156186096Y-93940286D01*
X156233715Y-93749810D01*
X156233715Y-93368857D01*
X156186096Y-93273619D01*
X156138477Y-93226000D01*
X156043239Y-93178381D01*
X155852762Y-93178381D01*
X155757524Y-93226000D01*
X155709905Y-93273619D01*
X155662286Y-93368857D01*
X155662286Y-93606952D01*
X155709905Y-93702190D01*
X155757524Y-93749810D01*
X155852762Y-93797429D01*
X156043239Y-93797429D01*
X156138477Y-93749810D01*
X156186096Y-93702190D01*
X156233715Y-93606952D01*
X158125334Y-87626000D02*
X158092000Y-87659333D01*
X157992000Y-87692667D01*
X157925334Y-87692667D01*
X157825334Y-87659333D01*
X157758667Y-87592667D01*
X157725334Y-87526000D01*
X157692000Y-87392667D01*
X157692000Y-87292667D01*
X157725334Y-87159333D01*
X157758667Y-87092667D01*
X157825334Y-87026000D01*
X157925334Y-86992667D01*
X157992000Y-86992667D01*
X158092000Y-87026000D01*
X158125334Y-87059333D01*
X158358667Y-86992667D02*
X158825334Y-86992667D01*
X158525334Y-87692667D01*
X173601143Y-97131143D02*
X173553524Y-97178762D01*
X173410667Y-97226381D01*
X173315429Y-97226381D01*
X173172571Y-97178762D01*
X173077333Y-97083524D01*
X173029714Y-96988286D01*
X172982095Y-96797810D01*
X172982095Y-96654952D01*
X173029714Y-96464476D01*
X173077333Y-96369238D01*
X173172571Y-96274000D01*
X173315429Y-96226381D01*
X173410667Y-96226381D01*
X173553524Y-96274000D01*
X173601143Y-96321619D01*
X174553524Y-97226381D02*
X173982095Y-97226381D01*
X174267809Y-97226381D02*
X174267809Y-96226381D01*
X174172571Y-96369238D01*
X174077333Y-96464476D01*
X173982095Y-96512095D01*
X175505905Y-97226381D02*
X174934476Y-97226381D01*
X175220190Y-97226381D02*
X175220190Y-96226381D01*
X175124952Y-96369238D01*
X175029714Y-96464476D01*
X174934476Y-96512095D01*
X160647143Y-85955143D02*
X160599524Y-86002762D01*
X160456667Y-86050381D01*
X160361429Y-86050381D01*
X160218571Y-86002762D01*
X160123333Y-85907524D01*
X160075714Y-85812286D01*
X160028095Y-85621810D01*
X160028095Y-85478952D01*
X160075714Y-85288476D01*
X160123333Y-85193238D01*
X160218571Y-85098000D01*
X160361429Y-85050381D01*
X160456667Y-85050381D01*
X160599524Y-85098000D01*
X160647143Y-85145619D01*
X161599524Y-86050381D02*
X161028095Y-86050381D01*
X161313809Y-86050381D02*
X161313809Y-85050381D01*
X161218571Y-85193238D01*
X161123333Y-85288476D01*
X161028095Y-85336095D01*
X162218571Y-85050381D02*
X162313810Y-85050381D01*
X162409048Y-85098000D01*
X162456667Y-85145619D01*
X162504286Y-85240857D01*
X162551905Y-85431333D01*
X162551905Y-85669429D01*
X162504286Y-85859905D01*
X162456667Y-85955143D01*
X162409048Y-86002762D01*
X162313810Y-86050381D01*
X162218571Y-86050381D01*
X162123333Y-86002762D01*
X162075714Y-85955143D01*
X162028095Y-85859905D01*
X161980476Y-85669429D01*
X161980476Y-85431333D01*
X162028095Y-85240857D01*
X162075714Y-85145619D01*
X162123333Y-85098000D01*
X162218571Y-85050381D01*
X172839143Y-98655143D02*
X172791524Y-98702762D01*
X172648667Y-98750381D01*
X172553429Y-98750381D01*
X172410571Y-98702762D01*
X172315333Y-98607524D01*
X172267714Y-98512286D01*
X172220095Y-98321810D01*
X172220095Y-98178952D01*
X172267714Y-97988476D01*
X172315333Y-97893238D01*
X172410571Y-97798000D01*
X172553429Y-97750381D01*
X172648667Y-97750381D01*
X172791524Y-97798000D01*
X172839143Y-97845619D01*
X173791524Y-98750381D02*
X173220095Y-98750381D01*
X173505809Y-98750381D02*
X173505809Y-97750381D01*
X173410571Y-97893238D01*
X173315333Y-97988476D01*
X173220095Y-98036095D01*
X174124857Y-97750381D02*
X174743905Y-97750381D01*
X174410571Y-98131333D01*
X174553429Y-98131333D01*
X174648667Y-98178952D01*
X174696286Y-98226571D01*
X174743905Y-98321810D01*
X174743905Y-98559905D01*
X174696286Y-98655143D01*
X174648667Y-98702762D01*
X174553429Y-98750381D01*
X174267714Y-98750381D01*
X174172476Y-98702762D01*
X174124857Y-98655143D01*
X133215143Y-85955143D02*
X133167524Y-86002762D01*
X133024667Y-86050381D01*
X132929429Y-86050381D01*
X132786571Y-86002762D01*
X132691333Y-85907524D01*
X132643714Y-85812286D01*
X132596095Y-85621810D01*
X132596095Y-85478952D01*
X132643714Y-85288476D01*
X132691333Y-85193238D01*
X132786571Y-85098000D01*
X132929429Y-85050381D01*
X133024667Y-85050381D01*
X133167524Y-85098000D01*
X133215143Y-85145619D01*
X133596095Y-85145619D02*
X133643714Y-85098000D01*
X133738952Y-85050381D01*
X133977048Y-85050381D01*
X134072286Y-85098000D01*
X134119905Y-85145619D01*
X134167524Y-85240857D01*
X134167524Y-85336095D01*
X134119905Y-85478952D01*
X133548476Y-86050381D01*
X134167524Y-86050381D01*
X134643714Y-86050381D02*
X134834190Y-86050381D01*
X134929429Y-86002762D01*
X134977048Y-85955143D01*
X135072286Y-85812286D01*
X135119905Y-85621810D01*
X135119905Y-85240857D01*
X135072286Y-85145619D01*
X135024667Y-85098000D01*
X134929429Y-85050381D01*
X134738952Y-85050381D01*
X134643714Y-85098000D01*
X134596095Y-85145619D01*
X134548476Y-85240857D01*
X134548476Y-85478952D01*
X134596095Y-85574190D01*
X134643714Y-85621810D01*
X134738952Y-85669429D01*
X134929429Y-85669429D01*
X135024667Y-85621810D01*
X135072286Y-85574190D01*
X135119905Y-85478952D01*
X130929143Y-101449143D02*
X130881524Y-101496762D01*
X130738667Y-101544381D01*
X130643429Y-101544381D01*
X130500571Y-101496762D01*
X130405333Y-101401524D01*
X130357714Y-101306286D01*
X130310095Y-101115810D01*
X130310095Y-100972952D01*
X130357714Y-100782476D01*
X130405333Y-100687238D01*
X130500571Y-100592000D01*
X130643429Y-100544381D01*
X130738667Y-100544381D01*
X130881524Y-100592000D01*
X130929143Y-100639619D01*
X131262476Y-100544381D02*
X131881524Y-100544381D01*
X131548190Y-100925333D01*
X131691048Y-100925333D01*
X131786286Y-100972952D01*
X131833905Y-101020571D01*
X131881524Y-101115810D01*
X131881524Y-101353905D01*
X131833905Y-101449143D01*
X131786286Y-101496762D01*
X131691048Y-101544381D01*
X131405333Y-101544381D01*
X131310095Y-101496762D01*
X131262476Y-101449143D01*
X132500571Y-100544381D02*
X132595810Y-100544381D01*
X132691048Y-100592000D01*
X132738667Y-100639619D01*
X132786286Y-100734857D01*
X132833905Y-100925333D01*
X132833905Y-101163429D01*
X132786286Y-101353905D01*
X132738667Y-101449143D01*
X132691048Y-101496762D01*
X132595810Y-101544381D01*
X132500571Y-101544381D01*
X132405333Y-101496762D01*
X132357714Y-101449143D01*
X132310095Y-101353905D01*
X132262476Y-101163429D01*
X132262476Y-100925333D01*
X132310095Y-100734857D01*
X132357714Y-100639619D01*
X132405333Y-100592000D01*
X132500571Y-100544381D01*
X173061334Y-91638381D02*
X172728000Y-91162190D01*
X172489905Y-91638381D02*
X172489905Y-90638381D01*
X172870858Y-90638381D01*
X172966096Y-90686000D01*
X173013715Y-90733619D01*
X173061334Y-90828857D01*
X173061334Y-90971714D01*
X173013715Y-91066952D01*
X172966096Y-91114571D01*
X172870858Y-91162190D01*
X172489905Y-91162190D01*
X174013715Y-91638381D02*
X173442286Y-91638381D01*
X173728000Y-91638381D02*
X173728000Y-90638381D01*
X173632762Y-90781238D01*
X173537524Y-90876476D01*
X173442286Y-90924095D01*
X173315334Y-90368381D02*
X172982000Y-89892190D01*
X172743905Y-90368381D02*
X172743905Y-89368381D01*
X173124858Y-89368381D01*
X173220096Y-89416000D01*
X173267715Y-89463619D01*
X173315334Y-89558857D01*
X173315334Y-89701714D01*
X173267715Y-89796952D01*
X173220096Y-89844571D01*
X173124858Y-89892190D01*
X172743905Y-89892190D01*
X173696286Y-89463619D02*
X173743905Y-89416000D01*
X173839143Y-89368381D01*
X174077239Y-89368381D01*
X174172477Y-89416000D01*
X174220096Y-89463619D01*
X174267715Y-89558857D01*
X174267715Y-89654095D01*
X174220096Y-89796952D01*
X173648667Y-90368381D01*
X174267715Y-90368381D01*
X156043334Y-91384381D02*
X155710000Y-90908190D01*
X155471905Y-91384381D02*
X155471905Y-90384381D01*
X155852858Y-90384381D01*
X155948096Y-90432000D01*
X155995715Y-90479619D01*
X156043334Y-90574857D01*
X156043334Y-90717714D01*
X155995715Y-90812952D01*
X155948096Y-90860571D01*
X155852858Y-90908190D01*
X155471905Y-90908190D01*
X156614762Y-90812952D02*
X156519524Y-90765333D01*
X156471905Y-90717714D01*
X156424286Y-90622476D01*
X156424286Y-90574857D01*
X156471905Y-90479619D01*
X156519524Y-90432000D01*
X156614762Y-90384381D01*
X156805239Y-90384381D01*
X156900477Y-90432000D01*
X156948096Y-90479619D01*
X156995715Y-90574857D01*
X156995715Y-90622476D01*
X156948096Y-90717714D01*
X156900477Y-90765333D01*
X156805239Y-90812952D01*
X156614762Y-90812952D01*
X156519524Y-90860571D01*
X156471905Y-90908190D01*
X156424286Y-91003429D01*
X156424286Y-91193905D01*
X156471905Y-91289143D01*
X156519524Y-91336762D01*
X156614762Y-91384381D01*
X156805239Y-91384381D01*
X156900477Y-91336762D01*
X156948096Y-91289143D01*
X156995715Y-91193905D01*
X156995715Y-91003429D01*
X156948096Y-90908190D01*
X156900477Y-90860571D01*
X156805239Y-90812952D01*
X132138000Y-90740667D02*
X131904666Y-90407333D01*
X131738000Y-90740667D02*
X131738000Y-90040667D01*
X132004666Y-90040667D01*
X132071333Y-90074000D01*
X132104666Y-90107333D01*
X132138000Y-90174000D01*
X132138000Y-90274000D01*
X132104666Y-90340667D01*
X132071333Y-90374000D01*
X132004666Y-90407333D01*
X131738000Y-90407333D01*
X132404666Y-90107333D02*
X132438000Y-90074000D01*
X132504666Y-90040667D01*
X132671333Y-90040667D01*
X132738000Y-90074000D01*
X132771333Y-90107333D01*
X132804666Y-90174000D01*
X132804666Y-90240667D01*
X132771333Y-90340667D01*
X132371333Y-90740667D01*
X132804666Y-90740667D01*
X133038000Y-90040667D02*
X133504667Y-90040667D01*
X133204667Y-90740667D01*
X117117905Y-96972381D02*
X117117905Y-95972381D01*
X117356000Y-95972381D01*
X117498858Y-96020000D01*
X117594096Y-96115238D01*
X117641715Y-96210476D01*
X117689334Y-96400952D01*
X117689334Y-96543810D01*
X117641715Y-96734286D01*
X117594096Y-96829524D01*
X117498858Y-96924762D01*
X117356000Y-96972381D01*
X117117905Y-96972381D01*
X118165524Y-96972381D02*
X118356000Y-96972381D01*
X118451239Y-96924762D01*
X118498858Y-96877143D01*
X118594096Y-96734286D01*
X118641715Y-96543810D01*
X118641715Y-96162857D01*
X118594096Y-96067619D01*
X118546477Y-96020000D01*
X118451239Y-95972381D01*
X118260762Y-95972381D01*
X118165524Y-96020000D01*
X118117905Y-96067619D01*
X118070286Y-96162857D01*
X118070286Y-96400952D01*
X118117905Y-96496190D01*
X118165524Y-96543810D01*
X118260762Y-96591429D01*
X118451239Y-96591429D01*
X118546477Y-96543810D01*
X118594096Y-96496190D01*
X118641715Y-96400952D01*
X166253334Y-92518667D02*
X166020000Y-92185333D01*
X165853334Y-92518667D02*
X165853334Y-91818667D01*
X166120000Y-91818667D01*
X166186667Y-91852000D01*
X166220000Y-91885333D01*
X166253334Y-91952000D01*
X166253334Y-92052000D01*
X166220000Y-92118667D01*
X166186667Y-92152000D01*
X166120000Y-92185333D01*
X165853334Y-92185333D01*
X166886667Y-91818667D02*
X166553334Y-91818667D01*
X166520000Y-92152000D01*
X166553334Y-92118667D01*
X166620000Y-92085333D01*
X166786667Y-92085333D01*
X166853334Y-92118667D01*
X166886667Y-92152000D01*
X166920000Y-92218667D01*
X166920000Y-92385333D01*
X166886667Y-92452000D01*
X166853334Y-92485333D01*
X166786667Y-92518667D01*
X166620000Y-92518667D01*
X166553334Y-92485333D01*
X166520000Y-92452000D01*
X171283334Y-87479143D02*
X171235715Y-87526762D01*
X171092858Y-87574381D01*
X170997620Y-87574381D01*
X170854762Y-87526762D01*
X170759524Y-87431524D01*
X170711905Y-87336286D01*
X170664286Y-87145810D01*
X170664286Y-87002952D01*
X170711905Y-86812476D01*
X170759524Y-86717238D01*
X170854762Y-86622000D01*
X170997620Y-86574381D01*
X171092858Y-86574381D01*
X171235715Y-86622000D01*
X171283334Y-86669619D01*
X172235715Y-87574381D02*
X171664286Y-87574381D01*
X171950000Y-87574381D02*
X171950000Y-86574381D01*
X171854762Y-86717238D01*
X171759524Y-86812476D01*
X171664286Y-86860095D01*
X165441334Y-88368143D02*
X165393715Y-88415762D01*
X165250858Y-88463381D01*
X165155620Y-88463381D01*
X165012762Y-88415762D01*
X164917524Y-88320524D01*
X164869905Y-88225286D01*
X164822286Y-88034810D01*
X164822286Y-87891952D01*
X164869905Y-87701476D01*
X164917524Y-87606238D01*
X165012762Y-87511000D01*
X165155620Y-87463381D01*
X165250858Y-87463381D01*
X165393715Y-87511000D01*
X165441334Y-87558619D01*
X165774667Y-87463381D02*
X166393715Y-87463381D01*
X166060381Y-87844333D01*
X166203239Y-87844333D01*
X166298477Y-87891952D01*
X166346096Y-87939571D01*
X166393715Y-88034810D01*
X166393715Y-88272905D01*
X166346096Y-88368143D01*
X166298477Y-88415762D01*
X166203239Y-88463381D01*
X165917524Y-88463381D01*
X165822286Y-88415762D01*
X165774667Y-88368143D01*
X164348334Y-93849000D02*
X164315000Y-93882333D01*
X164215000Y-93915667D01*
X164148334Y-93915667D01*
X164048334Y-93882333D01*
X163981667Y-93815667D01*
X163948334Y-93749000D01*
X163915000Y-93615667D01*
X163915000Y-93515667D01*
X163948334Y-93382333D01*
X163981667Y-93315667D01*
X164048334Y-93249000D01*
X164148334Y-93215667D01*
X164215000Y-93215667D01*
X164315000Y-93249000D01*
X164348334Y-93282333D01*
X164948334Y-93449000D02*
X164948334Y-93915667D01*
X164781667Y-93182333D02*
X164615000Y-93682333D01*
X165048334Y-93682333D01*
X173569334Y-75287143D02*
X173521715Y-75334762D01*
X173378858Y-75382381D01*
X173283620Y-75382381D01*
X173140762Y-75334762D01*
X173045524Y-75239524D01*
X172997905Y-75144286D01*
X172950286Y-74953810D01*
X172950286Y-74810952D01*
X172997905Y-74620476D01*
X173045524Y-74525238D01*
X173140762Y-74430000D01*
X173283620Y-74382381D01*
X173378858Y-74382381D01*
X173521715Y-74430000D01*
X173569334Y-74477619D01*
X174474096Y-74382381D02*
X173997905Y-74382381D01*
X173950286Y-74858571D01*
X173997905Y-74810952D01*
X174093143Y-74763333D01*
X174331239Y-74763333D01*
X174426477Y-74810952D01*
X174474096Y-74858571D01*
X174521715Y-74953810D01*
X174521715Y-75191905D01*
X174474096Y-75287143D01*
X174426477Y-75334762D01*
X174331239Y-75382381D01*
X174093143Y-75382381D01*
X173997905Y-75334762D01*
X173950286Y-75287143D01*
X119467334Y-66905143D02*
X119419715Y-66952762D01*
X119276858Y-67000381D01*
X119181620Y-67000381D01*
X119038762Y-66952762D01*
X118943524Y-66857524D01*
X118895905Y-66762286D01*
X118848286Y-66571810D01*
X118848286Y-66428952D01*
X118895905Y-66238476D01*
X118943524Y-66143238D01*
X119038762Y-66048000D01*
X119181620Y-66000381D01*
X119276858Y-66000381D01*
X119419715Y-66048000D01*
X119467334Y-66095619D01*
X120324477Y-66000381D02*
X120134000Y-66000381D01*
X120038762Y-66048000D01*
X119991143Y-66095619D01*
X119895905Y-66238476D01*
X119848286Y-66428952D01*
X119848286Y-66809905D01*
X119895905Y-66905143D01*
X119943524Y-66952762D01*
X120038762Y-67000381D01*
X120229239Y-67000381D01*
X120324477Y-66952762D01*
X120372096Y-66905143D01*
X120419715Y-66809905D01*
X120419715Y-66571810D01*
X120372096Y-66476571D01*
X120324477Y-66428952D01*
X120229239Y-66381333D01*
X120038762Y-66381333D01*
X119943524Y-66428952D01*
X119895905Y-66476571D01*
X119848286Y-66571810D01*
X167981334Y-100687143D02*
X167933715Y-100734762D01*
X167790858Y-100782381D01*
X167695620Y-100782381D01*
X167552762Y-100734762D01*
X167457524Y-100639524D01*
X167409905Y-100544286D01*
X167362286Y-100353810D01*
X167362286Y-100210952D01*
X167409905Y-100020476D01*
X167457524Y-99925238D01*
X167552762Y-99830000D01*
X167695620Y-99782381D01*
X167790858Y-99782381D01*
X167933715Y-99830000D01*
X167981334Y-99877619D01*
X168552762Y-100210952D02*
X168457524Y-100163333D01*
X168409905Y-100115714D01*
X168362286Y-100020476D01*
X168362286Y-99972857D01*
X168409905Y-99877619D01*
X168457524Y-99830000D01*
X168552762Y-99782381D01*
X168743239Y-99782381D01*
X168838477Y-99830000D01*
X168886096Y-99877619D01*
X168933715Y-99972857D01*
X168933715Y-100020476D01*
X168886096Y-100115714D01*
X168838477Y-100163333D01*
X168743239Y-100210952D01*
X168552762Y-100210952D01*
X168457524Y-100258571D01*
X168409905Y-100306190D01*
X168362286Y-100401429D01*
X168362286Y-100591905D01*
X168409905Y-100687143D01*
X168457524Y-100734762D01*
X168552762Y-100782381D01*
X168743239Y-100782381D01*
X168838477Y-100734762D01*
X168886096Y-100687143D01*
X168933715Y-100591905D01*
X168933715Y-100401429D01*
X168886096Y-100306190D01*
X168838477Y-100258571D01*
X168743239Y-100210952D01*
X163187143Y-84431143D02*
X163139524Y-84478762D01*
X162996667Y-84526381D01*
X162901429Y-84526381D01*
X162758571Y-84478762D01*
X162663333Y-84383524D01*
X162615714Y-84288286D01*
X162568095Y-84097810D01*
X162568095Y-83954952D01*
X162615714Y-83764476D01*
X162663333Y-83669238D01*
X162758571Y-83574000D01*
X162901429Y-83526381D01*
X162996667Y-83526381D01*
X163139524Y-83574000D01*
X163187143Y-83621619D01*
X164139524Y-84526381D02*
X163568095Y-84526381D01*
X163853809Y-84526381D02*
X163853809Y-83526381D01*
X163758571Y-83669238D01*
X163663333Y-83764476D01*
X163568095Y-83812095D01*
X164520476Y-83621619D02*
X164568095Y-83574000D01*
X164663333Y-83526381D01*
X164901429Y-83526381D01*
X164996667Y-83574000D01*
X165044286Y-83621619D01*
X165091905Y-83716857D01*
X165091905Y-83812095D01*
X165044286Y-83954952D01*
X164472857Y-84526381D01*
X165091905Y-84526381D01*
X173347143Y-70207143D02*
X173299524Y-70254762D01*
X173156667Y-70302381D01*
X173061429Y-70302381D01*
X172918571Y-70254762D01*
X172823333Y-70159524D01*
X172775714Y-70064286D01*
X172728095Y-69873810D01*
X172728095Y-69730952D01*
X172775714Y-69540476D01*
X172823333Y-69445238D01*
X172918571Y-69350000D01*
X173061429Y-69302381D01*
X173156667Y-69302381D01*
X173299524Y-69350000D01*
X173347143Y-69397619D01*
X174299524Y-70302381D02*
X173728095Y-70302381D01*
X174013809Y-70302381D02*
X174013809Y-69302381D01*
X173918571Y-69445238D01*
X173823333Y-69540476D01*
X173728095Y-69588095D01*
X175156667Y-69635714D02*
X175156667Y-70302381D01*
X174918571Y-69254762D02*
X174680476Y-69969048D01*
X175299524Y-69969048D01*
X121785143Y-73763143D02*
X121737524Y-73810762D01*
X121594667Y-73858381D01*
X121499429Y-73858381D01*
X121356571Y-73810762D01*
X121261333Y-73715524D01*
X121213714Y-73620286D01*
X121166095Y-73429810D01*
X121166095Y-73286952D01*
X121213714Y-73096476D01*
X121261333Y-73001238D01*
X121356571Y-72906000D01*
X121499429Y-72858381D01*
X121594667Y-72858381D01*
X121737524Y-72906000D01*
X121785143Y-72953619D01*
X122737524Y-73858381D02*
X122166095Y-73858381D01*
X122451809Y-73858381D02*
X122451809Y-72858381D01*
X122356571Y-73001238D01*
X122261333Y-73096476D01*
X122166095Y-73144095D01*
X123642286Y-72858381D02*
X123166095Y-72858381D01*
X123118476Y-73334571D01*
X123166095Y-73286952D01*
X123261333Y-73239333D01*
X123499429Y-73239333D01*
X123594667Y-73286952D01*
X123642286Y-73334571D01*
X123689905Y-73429810D01*
X123689905Y-73667905D01*
X123642286Y-73763143D01*
X123594667Y-73810762D01*
X123499429Y-73858381D01*
X123261333Y-73858381D01*
X123166095Y-73810762D01*
X123118476Y-73763143D01*
X149217143Y-88241143D02*
X149169524Y-88288762D01*
X149026667Y-88336381D01*
X148931429Y-88336381D01*
X148788571Y-88288762D01*
X148693333Y-88193524D01*
X148645714Y-88098286D01*
X148598095Y-87907810D01*
X148598095Y-87764952D01*
X148645714Y-87574476D01*
X148693333Y-87479238D01*
X148788571Y-87384000D01*
X148931429Y-87336381D01*
X149026667Y-87336381D01*
X149169524Y-87384000D01*
X149217143Y-87431619D01*
X150169524Y-88336381D02*
X149598095Y-88336381D01*
X149883809Y-88336381D02*
X149883809Y-87336381D01*
X149788571Y-87479238D01*
X149693333Y-87574476D01*
X149598095Y-87622095D01*
X151026667Y-87336381D02*
X150836190Y-87336381D01*
X150740952Y-87384000D01*
X150693333Y-87431619D01*
X150598095Y-87574476D01*
X150550476Y-87764952D01*
X150550476Y-88145905D01*
X150598095Y-88241143D01*
X150645714Y-88288762D01*
X150740952Y-88336381D01*
X150931429Y-88336381D01*
X151026667Y-88288762D01*
X151074286Y-88241143D01*
X151121905Y-88145905D01*
X151121905Y-87907810D01*
X151074286Y-87812571D01*
X151026667Y-87764952D01*
X150931429Y-87717333D01*
X150740952Y-87717333D01*
X150645714Y-87764952D01*
X150598095Y-87812571D01*
X150550476Y-87907810D01*
X149217143Y-96877143D02*
X149169524Y-96924762D01*
X149026667Y-96972381D01*
X148931429Y-96972381D01*
X148788571Y-96924762D01*
X148693333Y-96829524D01*
X148645714Y-96734286D01*
X148598095Y-96543810D01*
X148598095Y-96400952D01*
X148645714Y-96210476D01*
X148693333Y-96115238D01*
X148788571Y-96020000D01*
X148931429Y-95972381D01*
X149026667Y-95972381D01*
X149169524Y-96020000D01*
X149217143Y-96067619D01*
X150169524Y-96972381D02*
X149598095Y-96972381D01*
X149883809Y-96972381D02*
X149883809Y-95972381D01*
X149788571Y-96115238D01*
X149693333Y-96210476D01*
X149598095Y-96258095D01*
X150502857Y-95972381D02*
X151169524Y-95972381D01*
X150740952Y-96972381D01*
X150487143Y-74017143D02*
X150439524Y-74064762D01*
X150296667Y-74112381D01*
X150201429Y-74112381D01*
X150058571Y-74064762D01*
X149963333Y-73969524D01*
X149915714Y-73874286D01*
X149868095Y-73683810D01*
X149868095Y-73540952D01*
X149915714Y-73350476D01*
X149963333Y-73255238D01*
X150058571Y-73160000D01*
X150201429Y-73112381D01*
X150296667Y-73112381D01*
X150439524Y-73160000D01*
X150487143Y-73207619D01*
X151439524Y-74112381D02*
X150868095Y-74112381D01*
X151153809Y-74112381D02*
X151153809Y-73112381D01*
X151058571Y-73255238D01*
X150963333Y-73350476D01*
X150868095Y-73398095D01*
X152010952Y-73540952D02*
X151915714Y-73493333D01*
X151868095Y-73445714D01*
X151820476Y-73350476D01*
X151820476Y-73302857D01*
X151868095Y-73207619D01*
X151915714Y-73160000D01*
X152010952Y-73112381D01*
X152201429Y-73112381D01*
X152296667Y-73160000D01*
X152344286Y-73207619D01*
X152391905Y-73302857D01*
X152391905Y-73350476D01*
X152344286Y-73445714D01*
X152296667Y-73493333D01*
X152201429Y-73540952D01*
X152010952Y-73540952D01*
X151915714Y-73588571D01*
X151868095Y-73636190D01*
X151820476Y-73731429D01*
X151820476Y-73921905D01*
X151868095Y-74017143D01*
X151915714Y-74064762D01*
X152010952Y-74112381D01*
X152201429Y-74112381D01*
X152296667Y-74064762D01*
X152344286Y-74017143D01*
X152391905Y-73921905D01*
X152391905Y-73731429D01*
X152344286Y-73636190D01*
X152296667Y-73588571D01*
X152201429Y-73540952D01*
X150233143Y-112371143D02*
X150185524Y-112418762D01*
X150042667Y-112466381D01*
X149947429Y-112466381D01*
X149804571Y-112418762D01*
X149709333Y-112323524D01*
X149661714Y-112228286D01*
X149614095Y-112037810D01*
X149614095Y-111894952D01*
X149661714Y-111704476D01*
X149709333Y-111609238D01*
X149804571Y-111514000D01*
X149947429Y-111466381D01*
X150042667Y-111466381D01*
X150185524Y-111514000D01*
X150233143Y-111561619D01*
X151185524Y-112466381D02*
X150614095Y-112466381D01*
X150899809Y-112466381D02*
X150899809Y-111466381D01*
X150804571Y-111609238D01*
X150709333Y-111704476D01*
X150614095Y-111752095D01*
X151661714Y-112466381D02*
X151852190Y-112466381D01*
X151947429Y-112418762D01*
X151995048Y-112371143D01*
X152090286Y-112228286D01*
X152137905Y-112037810D01*
X152137905Y-111656857D01*
X152090286Y-111561619D01*
X152042667Y-111514000D01*
X151947429Y-111466381D01*
X151756952Y-111466381D01*
X151661714Y-111514000D01*
X151614095Y-111561619D01*
X151566476Y-111656857D01*
X151566476Y-111894952D01*
X151614095Y-111990190D01*
X151661714Y-112037810D01*
X151756952Y-112085429D01*
X151947429Y-112085429D01*
X152042667Y-112037810D01*
X152090286Y-111990190D01*
X152137905Y-111894952D01*
X161409143Y-100687143D02*
X161361524Y-100734762D01*
X161218667Y-100782381D01*
X161123429Y-100782381D01*
X160980571Y-100734762D01*
X160885333Y-100639524D01*
X160837714Y-100544286D01*
X160790095Y-100353810D01*
X160790095Y-100210952D01*
X160837714Y-100020476D01*
X160885333Y-99925238D01*
X160980571Y-99830000D01*
X161123429Y-99782381D01*
X161218667Y-99782381D01*
X161361524Y-99830000D01*
X161409143Y-99877619D01*
X161790095Y-99877619D02*
X161837714Y-99830000D01*
X161932952Y-99782381D01*
X162171048Y-99782381D01*
X162266286Y-99830000D01*
X162313905Y-99877619D01*
X162361524Y-99972857D01*
X162361524Y-100068095D01*
X162313905Y-100210952D01*
X161742476Y-100782381D01*
X162361524Y-100782381D01*
X162980571Y-99782381D02*
X163075810Y-99782381D01*
X163171048Y-99830000D01*
X163218667Y-99877619D01*
X163266286Y-99972857D01*
X163313905Y-100163333D01*
X163313905Y-100401429D01*
X163266286Y-100591905D01*
X163218667Y-100687143D01*
X163171048Y-100734762D01*
X163075810Y-100782381D01*
X162980571Y-100782381D01*
X162885333Y-100734762D01*
X162837714Y-100687143D01*
X162790095Y-100591905D01*
X162742476Y-100401429D01*
X162742476Y-100163333D01*
X162790095Y-99972857D01*
X162837714Y-99877619D01*
X162885333Y-99830000D01*
X162980571Y-99782381D01*
X139946143Y-83058143D02*
X139898524Y-83105762D01*
X139755667Y-83153381D01*
X139660429Y-83153381D01*
X139517571Y-83105762D01*
X139422333Y-83010524D01*
X139374714Y-82915286D01*
X139327095Y-82724810D01*
X139327095Y-82581952D01*
X139374714Y-82391476D01*
X139422333Y-82296238D01*
X139517571Y-82201000D01*
X139660429Y-82153381D01*
X139755667Y-82153381D01*
X139898524Y-82201000D01*
X139946143Y-82248619D01*
X140327095Y-82248619D02*
X140374714Y-82201000D01*
X140469952Y-82153381D01*
X140708048Y-82153381D01*
X140803286Y-82201000D01*
X140850905Y-82248619D01*
X140898524Y-82343857D01*
X140898524Y-82439095D01*
X140850905Y-82581952D01*
X140279476Y-83153381D01*
X140898524Y-83153381D01*
X141850905Y-83153381D02*
X141279476Y-83153381D01*
X141565190Y-83153381D02*
X141565190Y-82153381D01*
X141469952Y-82296238D01*
X141374714Y-82391476D01*
X141279476Y-82439095D01*
X140327143Y-100687143D02*
X140279524Y-100734762D01*
X140136667Y-100782381D01*
X140041429Y-100782381D01*
X139898571Y-100734762D01*
X139803333Y-100639524D01*
X139755714Y-100544286D01*
X139708095Y-100353810D01*
X139708095Y-100210952D01*
X139755714Y-100020476D01*
X139803333Y-99925238D01*
X139898571Y-99830000D01*
X140041429Y-99782381D01*
X140136667Y-99782381D01*
X140279524Y-99830000D01*
X140327143Y-99877619D01*
X140708095Y-99877619D02*
X140755714Y-99830000D01*
X140850952Y-99782381D01*
X141089048Y-99782381D01*
X141184286Y-99830000D01*
X141231905Y-99877619D01*
X141279524Y-99972857D01*
X141279524Y-100068095D01*
X141231905Y-100210952D01*
X140660476Y-100782381D01*
X141279524Y-100782381D01*
X141660476Y-99877619D02*
X141708095Y-99830000D01*
X141803333Y-99782381D01*
X142041429Y-99782381D01*
X142136667Y-99830000D01*
X142184286Y-99877619D01*
X142231905Y-99972857D01*
X142231905Y-100068095D01*
X142184286Y-100210952D01*
X141612857Y-100782381D01*
X142231905Y-100782381D01*
X133469143Y-72747143D02*
X133421524Y-72794762D01*
X133278667Y-72842381D01*
X133183429Y-72842381D01*
X133040571Y-72794762D01*
X132945333Y-72699524D01*
X132897714Y-72604286D01*
X132850095Y-72413810D01*
X132850095Y-72270952D01*
X132897714Y-72080476D01*
X132945333Y-71985238D01*
X133040571Y-71890000D01*
X133183429Y-71842381D01*
X133278667Y-71842381D01*
X133421524Y-71890000D01*
X133469143Y-71937619D01*
X133850095Y-71937619D02*
X133897714Y-71890000D01*
X133992952Y-71842381D01*
X134231048Y-71842381D01*
X134326286Y-71890000D01*
X134373905Y-71937619D01*
X134421524Y-72032857D01*
X134421524Y-72128095D01*
X134373905Y-72270952D01*
X133802476Y-72842381D01*
X134421524Y-72842381D01*
X134754857Y-71842381D02*
X135373905Y-71842381D01*
X135040571Y-72223333D01*
X135183429Y-72223333D01*
X135278667Y-72270952D01*
X135326286Y-72318571D01*
X135373905Y-72413810D01*
X135373905Y-72651905D01*
X135326286Y-72747143D01*
X135278667Y-72794762D01*
X135183429Y-72842381D01*
X134897714Y-72842381D01*
X134802476Y-72794762D01*
X134754857Y-72747143D01*
X130675143Y-80113143D02*
X130627524Y-80160762D01*
X130484667Y-80208381D01*
X130389429Y-80208381D01*
X130246571Y-80160762D01*
X130151333Y-80065524D01*
X130103714Y-79970286D01*
X130056095Y-79779810D01*
X130056095Y-79636952D01*
X130103714Y-79446476D01*
X130151333Y-79351238D01*
X130246571Y-79256000D01*
X130389429Y-79208381D01*
X130484667Y-79208381D01*
X130627524Y-79256000D01*
X130675143Y-79303619D01*
X131056095Y-79303619D02*
X131103714Y-79256000D01*
X131198952Y-79208381D01*
X131437048Y-79208381D01*
X131532286Y-79256000D01*
X131579905Y-79303619D01*
X131627524Y-79398857D01*
X131627524Y-79494095D01*
X131579905Y-79636952D01*
X131008476Y-80208381D01*
X131627524Y-80208381D01*
X132484667Y-79541714D02*
X132484667Y-80208381D01*
X132246571Y-79160762D02*
X132008476Y-79875048D01*
X132627524Y-79875048D01*
X130421143Y-108307143D02*
X130373524Y-108354762D01*
X130230667Y-108402381D01*
X130135429Y-108402381D01*
X129992571Y-108354762D01*
X129897333Y-108259524D01*
X129849714Y-108164286D01*
X129802095Y-107973810D01*
X129802095Y-107830952D01*
X129849714Y-107640476D01*
X129897333Y-107545238D01*
X129992571Y-107450000D01*
X130135429Y-107402381D01*
X130230667Y-107402381D01*
X130373524Y-107450000D01*
X130421143Y-107497619D01*
X130802095Y-107497619D02*
X130849714Y-107450000D01*
X130944952Y-107402381D01*
X131183048Y-107402381D01*
X131278286Y-107450000D01*
X131325905Y-107497619D01*
X131373524Y-107592857D01*
X131373524Y-107688095D01*
X131325905Y-107830952D01*
X130754476Y-108402381D01*
X131373524Y-108402381D01*
X132278286Y-107402381D02*
X131802095Y-107402381D01*
X131754476Y-107878571D01*
X131802095Y-107830952D01*
X131897333Y-107783333D01*
X132135429Y-107783333D01*
X132230667Y-107830952D01*
X132278286Y-107878571D01*
X132325905Y-107973810D01*
X132325905Y-108211905D01*
X132278286Y-108307143D01*
X132230667Y-108354762D01*
X132135429Y-108402381D01*
X131897333Y-108402381D01*
X131802095Y-108354762D01*
X131754476Y-108307143D01*
X130929143Y-110593143D02*
X130881524Y-110640762D01*
X130738667Y-110688381D01*
X130643429Y-110688381D01*
X130500571Y-110640762D01*
X130405333Y-110545524D01*
X130357714Y-110450286D01*
X130310095Y-110259810D01*
X130310095Y-110116952D01*
X130357714Y-109926476D01*
X130405333Y-109831238D01*
X130500571Y-109736000D01*
X130643429Y-109688381D01*
X130738667Y-109688381D01*
X130881524Y-109736000D01*
X130929143Y-109783619D01*
X131310095Y-109783619D02*
X131357714Y-109736000D01*
X131452952Y-109688381D01*
X131691048Y-109688381D01*
X131786286Y-109736000D01*
X131833905Y-109783619D01*
X131881524Y-109878857D01*
X131881524Y-109974095D01*
X131833905Y-110116952D01*
X131262476Y-110688381D01*
X131881524Y-110688381D01*
X132738667Y-109688381D02*
X132548190Y-109688381D01*
X132452952Y-109736000D01*
X132405333Y-109783619D01*
X132310095Y-109926476D01*
X132262476Y-110116952D01*
X132262476Y-110497905D01*
X132310095Y-110593143D01*
X132357714Y-110640762D01*
X132452952Y-110688381D01*
X132643429Y-110688381D01*
X132738667Y-110640762D01*
X132786286Y-110593143D01*
X132833905Y-110497905D01*
X132833905Y-110259810D01*
X132786286Y-110164571D01*
X132738667Y-110116952D01*
X132643429Y-110069333D01*
X132452952Y-110069333D01*
X132357714Y-110116952D01*
X132310095Y-110164571D01*
X132262476Y-110259810D01*
X136009143Y-82248143D02*
X135961524Y-82295762D01*
X135818667Y-82343381D01*
X135723429Y-82343381D01*
X135580571Y-82295762D01*
X135485333Y-82200524D01*
X135437714Y-82105286D01*
X135390095Y-81914810D01*
X135390095Y-81771952D01*
X135437714Y-81581476D01*
X135485333Y-81486238D01*
X135580571Y-81391000D01*
X135723429Y-81343381D01*
X135818667Y-81343381D01*
X135961524Y-81391000D01*
X136009143Y-81438619D01*
X136390095Y-81438619D02*
X136437714Y-81391000D01*
X136532952Y-81343381D01*
X136771048Y-81343381D01*
X136866286Y-81391000D01*
X136913905Y-81438619D01*
X136961524Y-81533857D01*
X136961524Y-81629095D01*
X136913905Y-81771952D01*
X136342476Y-82343381D01*
X136961524Y-82343381D01*
X137294857Y-81343381D02*
X137961524Y-81343381D01*
X137532952Y-82343381D01*
X136009143Y-103227143D02*
X135961524Y-103274762D01*
X135818667Y-103322381D01*
X135723429Y-103322381D01*
X135580571Y-103274762D01*
X135485333Y-103179524D01*
X135437714Y-103084286D01*
X135390095Y-102893810D01*
X135390095Y-102750952D01*
X135437714Y-102560476D01*
X135485333Y-102465238D01*
X135580571Y-102370000D01*
X135723429Y-102322381D01*
X135818667Y-102322381D01*
X135961524Y-102370000D01*
X136009143Y-102417619D01*
X136390095Y-102417619D02*
X136437714Y-102370000D01*
X136532952Y-102322381D01*
X136771048Y-102322381D01*
X136866286Y-102370000D01*
X136913905Y-102417619D01*
X136961524Y-102512857D01*
X136961524Y-102608095D01*
X136913905Y-102750952D01*
X136342476Y-103322381D01*
X136961524Y-103322381D01*
X137532952Y-102750952D02*
X137437714Y-102703333D01*
X137390095Y-102655714D01*
X137342476Y-102560476D01*
X137342476Y-102512857D01*
X137390095Y-102417619D01*
X137437714Y-102370000D01*
X137532952Y-102322381D01*
X137723429Y-102322381D01*
X137818667Y-102370000D01*
X137866286Y-102417619D01*
X137913905Y-102512857D01*
X137913905Y-102560476D01*
X137866286Y-102655714D01*
X137818667Y-102703333D01*
X137723429Y-102750952D01*
X137532952Y-102750952D01*
X137437714Y-102798571D01*
X137390095Y-102846190D01*
X137342476Y-102941429D01*
X137342476Y-103131905D01*
X137390095Y-103227143D01*
X137437714Y-103274762D01*
X137532952Y-103322381D01*
X137723429Y-103322381D01*
X137818667Y-103274762D01*
X137866286Y-103227143D01*
X137913905Y-103131905D01*
X137913905Y-102941429D01*
X137866286Y-102846190D01*
X137818667Y-102798571D01*
X137723429Y-102750952D01*
X129659143Y-91797143D02*
X129611524Y-91844762D01*
X129468667Y-91892381D01*
X129373429Y-91892381D01*
X129230571Y-91844762D01*
X129135333Y-91749524D01*
X129087714Y-91654286D01*
X129040095Y-91463810D01*
X129040095Y-91320952D01*
X129087714Y-91130476D01*
X129135333Y-91035238D01*
X129230571Y-90940000D01*
X129373429Y-90892381D01*
X129468667Y-90892381D01*
X129611524Y-90940000D01*
X129659143Y-90987619D01*
X129992476Y-90892381D02*
X130611524Y-90892381D01*
X130278190Y-91273333D01*
X130421048Y-91273333D01*
X130516286Y-91320952D01*
X130563905Y-91368571D01*
X130611524Y-91463810D01*
X130611524Y-91701905D01*
X130563905Y-91797143D01*
X130516286Y-91844762D01*
X130421048Y-91892381D01*
X130135333Y-91892381D01*
X130040095Y-91844762D01*
X129992476Y-91797143D01*
X131563905Y-91892381D02*
X130992476Y-91892381D01*
X131278190Y-91892381D02*
X131278190Y-90892381D01*
X131182952Y-91035238D01*
X131087714Y-91130476D01*
X130992476Y-91178095D01*
X132707143Y-89233143D02*
X132659524Y-89280762D01*
X132516667Y-89328381D01*
X132421429Y-89328381D01*
X132278571Y-89280762D01*
X132183333Y-89185524D01*
X132135714Y-89090286D01*
X132088095Y-88899810D01*
X132088095Y-88756952D01*
X132135714Y-88566476D01*
X132183333Y-88471238D01*
X132278571Y-88376000D01*
X132421429Y-88328381D01*
X132516667Y-88328381D01*
X132659524Y-88376000D01*
X132707143Y-88423619D01*
X133040476Y-88328381D02*
X133659524Y-88328381D01*
X133326190Y-88709333D01*
X133469048Y-88709333D01*
X133564286Y-88756952D01*
X133611905Y-88804571D01*
X133659524Y-88899810D01*
X133659524Y-89137905D01*
X133611905Y-89233143D01*
X133564286Y-89280762D01*
X133469048Y-89328381D01*
X133183333Y-89328381D01*
X133088095Y-89280762D01*
X133040476Y-89233143D01*
X134040476Y-88423619D02*
X134088095Y-88376000D01*
X134183333Y-88328381D01*
X134421429Y-88328381D01*
X134516667Y-88376000D01*
X134564286Y-88423619D01*
X134611905Y-88518857D01*
X134611905Y-88614095D01*
X134564286Y-88756952D01*
X133992857Y-89328381D01*
X134611905Y-89328381D01*
X132707143Y-96369143D02*
X132659524Y-96416762D01*
X132516667Y-96464381D01*
X132421429Y-96464381D01*
X132278571Y-96416762D01*
X132183333Y-96321524D01*
X132135714Y-96226286D01*
X132088095Y-96035810D01*
X132088095Y-95892952D01*
X132135714Y-95702476D01*
X132183333Y-95607238D01*
X132278571Y-95512000D01*
X132421429Y-95464381D01*
X132516667Y-95464381D01*
X132659524Y-95512000D01*
X132707143Y-95559619D01*
X133040476Y-95464381D02*
X133659524Y-95464381D01*
X133326190Y-95845333D01*
X133469048Y-95845333D01*
X133564286Y-95892952D01*
X133611905Y-95940571D01*
X133659524Y-96035810D01*
X133659524Y-96273905D01*
X133611905Y-96369143D01*
X133564286Y-96416762D01*
X133469048Y-96464381D01*
X133183333Y-96464381D01*
X133088095Y-96416762D01*
X133040476Y-96369143D01*
X133992857Y-95464381D02*
X134611905Y-95464381D01*
X134278571Y-95845333D01*
X134421429Y-95845333D01*
X134516667Y-95892952D01*
X134564286Y-95940571D01*
X134611905Y-96035810D01*
X134611905Y-96273905D01*
X134564286Y-96369143D01*
X134516667Y-96416762D01*
X134421429Y-96464381D01*
X134135714Y-96464381D01*
X134040476Y-96416762D01*
X133992857Y-96369143D01*
X142263905Y-74112381D02*
X142263905Y-73112381D01*
X142502000Y-73112381D01*
X142644858Y-73160000D01*
X142740096Y-73255238D01*
X142787715Y-73350476D01*
X142835334Y-73540952D01*
X142835334Y-73683810D01*
X142787715Y-73874286D01*
X142740096Y-73969524D01*
X142644858Y-74064762D01*
X142502000Y-74112381D01*
X142263905Y-74112381D01*
X143692477Y-73445714D02*
X143692477Y-74112381D01*
X143454381Y-73064762D02*
X143216286Y-73779048D01*
X143835334Y-73779048D01*
X142009905Y-105862381D02*
X142009905Y-104862381D01*
X142248000Y-104862381D01*
X142390858Y-104910000D01*
X142486096Y-105005238D01*
X142533715Y-105100476D01*
X142581334Y-105290952D01*
X142581334Y-105433810D01*
X142533715Y-105624286D01*
X142486096Y-105719524D01*
X142390858Y-105814762D01*
X142248000Y-105862381D01*
X142009905Y-105862381D01*
X143486096Y-104862381D02*
X143009905Y-104862381D01*
X142962286Y-105338571D01*
X143009905Y-105290952D01*
X143105143Y-105243333D01*
X143343239Y-105243333D01*
X143438477Y-105290952D01*
X143486096Y-105338571D01*
X143533715Y-105433810D01*
X143533715Y-105671905D01*
X143486096Y-105767143D01*
X143438477Y-105814762D01*
X143343239Y-105862381D01*
X143105143Y-105862381D01*
X143009905Y-105814762D01*
X142962286Y-105767143D01*
X150645905Y-102750881D02*
X150645905Y-101750881D01*
X150884000Y-101750881D01*
X151026858Y-101798500D01*
X151122096Y-101893738D01*
X151169715Y-101988976D01*
X151217334Y-102179452D01*
X151217334Y-102322310D01*
X151169715Y-102512786D01*
X151122096Y-102608024D01*
X151026858Y-102703262D01*
X150884000Y-102750881D01*
X150645905Y-102750881D01*
X151550667Y-101750881D02*
X152217334Y-101750881D01*
X151788762Y-102750881D01*
X166203334Y-82748381D02*
X165727143Y-82748381D01*
X165727143Y-81748381D01*
X167060477Y-82748381D02*
X166489048Y-82748381D01*
X166774762Y-82748381D02*
X166774762Y-81748381D01*
X166679524Y-81891238D01*
X166584286Y-81986476D01*
X166489048Y-82034095D01*
X171537334Y-100782381D02*
X171061143Y-100782381D01*
X171061143Y-99782381D01*
X171823048Y-99877619D02*
X171870667Y-99830000D01*
X171965905Y-99782381D01*
X172204001Y-99782381D01*
X172299239Y-99830000D01*
X172346858Y-99877619D01*
X172394477Y-99972857D01*
X172394477Y-100068095D01*
X172346858Y-100210952D01*
X171775429Y-100782381D01*
X172394477Y-100782381D01*
X132421334Y-92400381D02*
X131945143Y-92400381D01*
X131945143Y-91400381D01*
X132659429Y-91400381D02*
X133278477Y-91400381D01*
X132945143Y-91781333D01*
X133088001Y-91781333D01*
X133183239Y-91828952D01*
X133230858Y-91876571D01*
X133278477Y-91971810D01*
X133278477Y-92209905D01*
X133230858Y-92305143D01*
X133183239Y-92352762D01*
X133088001Y-92400381D01*
X132802286Y-92400381D01*
X132707048Y-92352762D01*
X132659429Y-92305143D01*
X136739334Y-70556381D02*
X136263143Y-70556381D01*
X136263143Y-69556381D01*
X137501239Y-69889714D02*
X137501239Y-70556381D01*
X137263143Y-69508762D02*
X137025048Y-70223048D01*
X137644096Y-70223048D01*
X136739334Y-115260381D02*
X136263143Y-115260381D01*
X136263143Y-114260381D01*
X137548858Y-114260381D02*
X137072667Y-114260381D01*
X137025048Y-114736571D01*
X137072667Y-114688952D01*
X137167905Y-114641333D01*
X137406001Y-114641333D01*
X137501239Y-114688952D01*
X137548858Y-114736571D01*
X137596477Y-114831810D01*
X137596477Y-115069905D01*
X137548858Y-115165143D01*
X137501239Y-115212762D01*
X137406001Y-115260381D01*
X137167905Y-115260381D01*
X137072667Y-115212762D01*
X137025048Y-115165143D01*
X126579334Y-84780381D02*
X126103143Y-84780381D01*
X126103143Y-83780381D01*
X127341239Y-83780381D02*
X127150762Y-83780381D01*
X127055524Y-83828000D01*
X127007905Y-83875619D01*
X126912667Y-84018476D01*
X126865048Y-84208952D01*
X126865048Y-84589905D01*
X126912667Y-84685143D01*
X126960286Y-84732762D01*
X127055524Y-84780381D01*
X127246001Y-84780381D01*
X127341239Y-84732762D01*
X127388858Y-84685143D01*
X127436477Y-84589905D01*
X127436477Y-84351810D01*
X127388858Y-84256571D01*
X127341239Y-84208952D01*
X127246001Y-84161333D01*
X127055524Y-84161333D01*
X126960286Y-84208952D01*
X126912667Y-84256571D01*
X126865048Y-84351810D01*
X126579334Y-103830381D02*
X126103143Y-103830381D01*
X126103143Y-102830381D01*
X126817429Y-102830381D02*
X127484096Y-102830381D01*
X127055524Y-103830381D01*
X147986762Y-90971619D02*
X147891524Y-90924000D01*
X147796286Y-90828762D01*
X147653429Y-90685905D01*
X147558190Y-90638286D01*
X147462952Y-90638286D01*
X147510571Y-90876381D02*
X147415333Y-90828762D01*
X147320095Y-90733524D01*
X147272476Y-90543048D01*
X147272476Y-90209714D01*
X147320095Y-90019238D01*
X147415333Y-89924000D01*
X147510571Y-89876381D01*
X147701048Y-89876381D01*
X147796286Y-89924000D01*
X147891524Y-90019238D01*
X147939143Y-90209714D01*
X147939143Y-90543048D01*
X147891524Y-90733524D01*
X147796286Y-90828762D01*
X147701048Y-90876381D01*
X147510571Y-90876381D01*
X148843905Y-89876381D02*
X148367714Y-89876381D01*
X148320095Y-90352571D01*
X148367714Y-90304952D01*
X148462952Y-90257333D01*
X148701048Y-90257333D01*
X148796286Y-90304952D01*
X148843905Y-90352571D01*
X148891524Y-90447810D01*
X148891524Y-90685905D01*
X148843905Y-90781143D01*
X148796286Y-90828762D01*
X148701048Y-90876381D01*
X148462952Y-90876381D01*
X148367714Y-90828762D01*
X148320095Y-90781143D01*
X147986762Y-94781619D02*
X147891524Y-94734000D01*
X147796286Y-94638762D01*
X147653429Y-94495905D01*
X147558190Y-94448286D01*
X147462952Y-94448286D01*
X147510571Y-94686381D02*
X147415333Y-94638762D01*
X147320095Y-94543524D01*
X147272476Y-94353048D01*
X147272476Y-94019714D01*
X147320095Y-93829238D01*
X147415333Y-93734000D01*
X147510571Y-93686381D01*
X147701048Y-93686381D01*
X147796286Y-93734000D01*
X147891524Y-93829238D01*
X147939143Y-94019714D01*
X147939143Y-94353048D01*
X147891524Y-94543524D01*
X147796286Y-94638762D01*
X147701048Y-94686381D01*
X147510571Y-94686381D01*
X148796286Y-93686381D02*
X148605809Y-93686381D01*
X148510571Y-93734000D01*
X148462952Y-93781619D01*
X148367714Y-93924476D01*
X148320095Y-94114952D01*
X148320095Y-94495905D01*
X148367714Y-94591143D01*
X148415333Y-94638762D01*
X148510571Y-94686381D01*
X148701048Y-94686381D01*
X148796286Y-94638762D01*
X148843905Y-94591143D01*
X148891524Y-94495905D01*
X148891524Y-94257810D01*
X148843905Y-94162571D01*
X148796286Y-94114952D01*
X148701048Y-94067333D01*
X148510571Y-94067333D01*
X148415333Y-94114952D01*
X148367714Y-94162571D01*
X148320095Y-94257810D01*
X166203334Y-99766381D02*
X165870000Y-99290190D01*
X165631905Y-99766381D02*
X165631905Y-98766381D01*
X166012858Y-98766381D01*
X166108096Y-98814000D01*
X166155715Y-98861619D01*
X166203334Y-98956857D01*
X166203334Y-99099714D01*
X166155715Y-99194952D01*
X166108096Y-99242571D01*
X166012858Y-99290190D01*
X165631905Y-99290190D01*
X166536667Y-98766381D02*
X167155715Y-98766381D01*
X166822381Y-99147333D01*
X166965239Y-99147333D01*
X167060477Y-99194952D01*
X167108096Y-99242571D01*
X167155715Y-99337810D01*
X167155715Y-99575905D01*
X167108096Y-99671143D01*
X167060477Y-99718762D01*
X166965239Y-99766381D01*
X166679524Y-99766381D01*
X166584286Y-99718762D01*
X166536667Y-99671143D01*
X170521334Y-95194381D02*
X170188000Y-94718190D01*
X169949905Y-95194381D02*
X169949905Y-94194381D01*
X170330858Y-94194381D01*
X170426096Y-94242000D01*
X170473715Y-94289619D01*
X170521334Y-94384857D01*
X170521334Y-94527714D01*
X170473715Y-94622952D01*
X170426096Y-94670571D01*
X170330858Y-94718190D01*
X169949905Y-94718190D01*
X171378477Y-94527714D02*
X171378477Y-95194381D01*
X171140381Y-94146762D02*
X170902286Y-94861048D01*
X171521334Y-94861048D01*
X162951334Y-89089667D02*
X162718000Y-88756333D01*
X162551334Y-89089667D02*
X162551334Y-88389667D01*
X162818000Y-88389667D01*
X162884667Y-88423000D01*
X162918000Y-88456333D01*
X162951334Y-88523000D01*
X162951334Y-88623000D01*
X162918000Y-88689667D01*
X162884667Y-88723000D01*
X162818000Y-88756333D01*
X162551334Y-88756333D01*
X163551334Y-88389667D02*
X163418000Y-88389667D01*
X163351334Y-88423000D01*
X163318000Y-88456333D01*
X163251334Y-88556333D01*
X163218000Y-88689667D01*
X163218000Y-88956333D01*
X163251334Y-89023000D01*
X163284667Y-89056333D01*
X163351334Y-89089667D01*
X163484667Y-89089667D01*
X163551334Y-89056333D01*
X163584667Y-89023000D01*
X163618000Y-88956333D01*
X163618000Y-88789667D01*
X163584667Y-88723000D01*
X163551334Y-88689667D01*
X163484667Y-88656333D01*
X163351334Y-88656333D01*
X163284667Y-88689667D01*
X163251334Y-88723000D01*
X163218000Y-88789667D01*
X158329334Y-96210381D02*
X157996000Y-95734190D01*
X157757905Y-96210381D02*
X157757905Y-95210381D01*
X158138858Y-95210381D01*
X158234096Y-95258000D01*
X158281715Y-95305619D01*
X158329334Y-95400857D01*
X158329334Y-95543714D01*
X158281715Y-95638952D01*
X158234096Y-95686571D01*
X158138858Y-95734190D01*
X157757905Y-95734190D01*
X158662667Y-95210381D02*
X159329334Y-95210381D01*
X158900762Y-96210381D01*
X130167143Y-67762381D02*
X129833809Y-67286190D01*
X129595714Y-67762381D02*
X129595714Y-66762381D01*
X129976667Y-66762381D01*
X130071905Y-66810000D01*
X130119524Y-66857619D01*
X130167143Y-66952857D01*
X130167143Y-67095714D01*
X130119524Y-67190952D01*
X130071905Y-67238571D01*
X129976667Y-67286190D01*
X129595714Y-67286190D01*
X131119524Y-67762381D02*
X130548095Y-67762381D01*
X130833809Y-67762381D02*
X130833809Y-66762381D01*
X130738571Y-66905238D01*
X130643333Y-67000476D01*
X130548095Y-67048095D01*
X131738571Y-66762381D02*
X131833810Y-66762381D01*
X131929048Y-66810000D01*
X131976667Y-66857619D01*
X132024286Y-66952857D01*
X132071905Y-67143333D01*
X132071905Y-67381429D01*
X132024286Y-67571905D01*
X131976667Y-67667143D01*
X131929048Y-67714762D01*
X131833810Y-67762381D01*
X131738571Y-67762381D01*
X131643333Y-67714762D01*
X131595714Y-67667143D01*
X131548095Y-67571905D01*
X131500476Y-67381429D01*
X131500476Y-67143333D01*
X131548095Y-66952857D01*
X131595714Y-66857619D01*
X131643333Y-66810000D01*
X131738571Y-66762381D01*
X149407643Y-83319881D02*
X149074309Y-82843690D01*
X148836214Y-83319881D02*
X148836214Y-82319881D01*
X149217167Y-82319881D01*
X149312405Y-82367500D01*
X149360024Y-82415119D01*
X149407643Y-82510357D01*
X149407643Y-82653214D01*
X149360024Y-82748452D01*
X149312405Y-82796071D01*
X149217167Y-82843690D01*
X148836214Y-82843690D01*
X150360024Y-83319881D02*
X149788595Y-83319881D01*
X150074309Y-83319881D02*
X150074309Y-82319881D01*
X149979071Y-82462738D01*
X149883833Y-82557976D01*
X149788595Y-82605595D01*
X151312405Y-83319881D02*
X150740976Y-83319881D01*
X151026690Y-83319881D02*
X151026690Y-82319881D01*
X150931452Y-82462738D01*
X150836214Y-82557976D01*
X150740976Y-82605595D01*
X150931643Y-98940881D02*
X150598309Y-98464690D01*
X150360214Y-98940881D02*
X150360214Y-97940881D01*
X150741167Y-97940881D01*
X150836405Y-97988500D01*
X150884024Y-98036119D01*
X150931643Y-98131357D01*
X150931643Y-98274214D01*
X150884024Y-98369452D01*
X150836405Y-98417071D01*
X150741167Y-98464690D01*
X150360214Y-98464690D01*
X151884024Y-98940881D02*
X151312595Y-98940881D01*
X151598309Y-98940881D02*
X151598309Y-97940881D01*
X151503071Y-98083738D01*
X151407833Y-98178976D01*
X151312595Y-98226595D01*
X152264976Y-98036119D02*
X152312595Y-97988500D01*
X152407833Y-97940881D01*
X152645929Y-97940881D01*
X152741167Y-97988500D01*
X152788786Y-98036119D01*
X152836405Y-98131357D01*
X152836405Y-98226595D01*
X152788786Y-98369452D01*
X152217357Y-98940881D01*
X152836405Y-98940881D01*
X156583143Y-85034381D02*
X156249809Y-84558190D01*
X156011714Y-85034381D02*
X156011714Y-84034381D01*
X156392667Y-84034381D01*
X156487905Y-84082000D01*
X156535524Y-84129619D01*
X156583143Y-84224857D01*
X156583143Y-84367714D01*
X156535524Y-84462952D01*
X156487905Y-84510571D01*
X156392667Y-84558190D01*
X156011714Y-84558190D01*
X157535524Y-85034381D02*
X156964095Y-85034381D01*
X157249809Y-85034381D02*
X157249809Y-84034381D01*
X157154571Y-84177238D01*
X157059333Y-84272476D01*
X156964095Y-84320095D01*
X157868857Y-84034381D02*
X158487905Y-84034381D01*
X158154571Y-84415333D01*
X158297429Y-84415333D01*
X158392667Y-84462952D01*
X158440286Y-84510571D01*
X158487905Y-84605810D01*
X158487905Y-84843905D01*
X158440286Y-84939143D01*
X158392667Y-84986762D01*
X158297429Y-85034381D01*
X158011714Y-85034381D01*
X157916476Y-84986762D01*
X157868857Y-84939143D01*
X154426500Y-98741667D02*
X154193166Y-98408333D01*
X154026500Y-98741667D02*
X154026500Y-98041667D01*
X154293166Y-98041667D01*
X154359833Y-98075000D01*
X154393166Y-98108333D01*
X154426500Y-98175000D01*
X154426500Y-98275000D01*
X154393166Y-98341667D01*
X154359833Y-98375000D01*
X154293166Y-98408333D01*
X154026500Y-98408333D01*
X155093166Y-98741667D02*
X154693166Y-98741667D01*
X154893166Y-98741667D02*
X154893166Y-98041667D01*
X154826500Y-98141667D01*
X154759833Y-98208333D01*
X154693166Y-98241667D01*
X155693167Y-98275000D02*
X155693167Y-98741667D01*
X155526500Y-98008333D02*
X155359833Y-98508333D01*
X155793167Y-98508333D01*
X169029143Y-67762381D02*
X168695809Y-67286190D01*
X168457714Y-67762381D02*
X168457714Y-66762381D01*
X168838667Y-66762381D01*
X168933905Y-66810000D01*
X168981524Y-66857619D01*
X169029143Y-66952857D01*
X169029143Y-67095714D01*
X168981524Y-67190952D01*
X168933905Y-67238571D01*
X168838667Y-67286190D01*
X168457714Y-67286190D01*
X169981524Y-67762381D02*
X169410095Y-67762381D01*
X169695809Y-67762381D02*
X169695809Y-66762381D01*
X169600571Y-66905238D01*
X169505333Y-67000476D01*
X169410095Y-67048095D01*
X170886286Y-66762381D02*
X170410095Y-66762381D01*
X170362476Y-67238571D01*
X170410095Y-67190952D01*
X170505333Y-67143333D01*
X170743429Y-67143333D01*
X170838667Y-67190952D01*
X170886286Y-67238571D01*
X170933905Y-67333810D01*
X170933905Y-67571905D01*
X170886286Y-67667143D01*
X170838667Y-67714762D01*
X170743429Y-67762381D01*
X170505333Y-67762381D01*
X170410095Y-67714762D01*
X170362476Y-67667143D01*
X130167143Y-77922381D02*
X129833809Y-77446190D01*
X129595714Y-77922381D02*
X129595714Y-76922381D01*
X129976667Y-76922381D01*
X130071905Y-76970000D01*
X130119524Y-77017619D01*
X130167143Y-77112857D01*
X130167143Y-77255714D01*
X130119524Y-77350952D01*
X130071905Y-77398571D01*
X129976667Y-77446190D01*
X129595714Y-77446190D01*
X131119524Y-77922381D02*
X130548095Y-77922381D01*
X130833809Y-77922381D02*
X130833809Y-76922381D01*
X130738571Y-77065238D01*
X130643333Y-77160476D01*
X130548095Y-77208095D01*
X131976667Y-76922381D02*
X131786190Y-76922381D01*
X131690952Y-76970000D01*
X131643333Y-77017619D01*
X131548095Y-77160476D01*
X131500476Y-77350952D01*
X131500476Y-77731905D01*
X131548095Y-77827143D01*
X131595714Y-77874762D01*
X131690952Y-77922381D01*
X131881429Y-77922381D01*
X131976667Y-77874762D01*
X132024286Y-77827143D01*
X132071905Y-77731905D01*
X132071905Y-77493810D01*
X132024286Y-77398571D01*
X131976667Y-77350952D01*
X131881429Y-77303333D01*
X131690952Y-77303333D01*
X131595714Y-77350952D01*
X131548095Y-77398571D01*
X131500476Y-77493810D01*
X138803143Y-75382381D02*
X138469809Y-74906190D01*
X138231714Y-75382381D02*
X138231714Y-74382381D01*
X138612667Y-74382381D01*
X138707905Y-74430000D01*
X138755524Y-74477619D01*
X138803143Y-74572857D01*
X138803143Y-74715714D01*
X138755524Y-74810952D01*
X138707905Y-74858571D01*
X138612667Y-74906190D01*
X138231714Y-74906190D01*
X139755524Y-75382381D02*
X139184095Y-75382381D01*
X139469809Y-75382381D02*
X139469809Y-74382381D01*
X139374571Y-74525238D01*
X139279333Y-74620476D01*
X139184095Y-74668095D01*
X140088857Y-74382381D02*
X140755524Y-74382381D01*
X140326952Y-75382381D01*
X139057143Y-104846381D02*
X138723809Y-104370190D01*
X138485714Y-104846381D02*
X138485714Y-103846381D01*
X138866667Y-103846381D01*
X138961905Y-103894000D01*
X139009524Y-103941619D01*
X139057143Y-104036857D01*
X139057143Y-104179714D01*
X139009524Y-104274952D01*
X138961905Y-104322571D01*
X138866667Y-104370190D01*
X138485714Y-104370190D01*
X140009524Y-104846381D02*
X139438095Y-104846381D01*
X139723809Y-104846381D02*
X139723809Y-103846381D01*
X139628571Y-103989238D01*
X139533333Y-104084476D01*
X139438095Y-104132095D01*
X140580952Y-104274952D02*
X140485714Y-104227333D01*
X140438095Y-104179714D01*
X140390476Y-104084476D01*
X140390476Y-104036857D01*
X140438095Y-103941619D01*
X140485714Y-103894000D01*
X140580952Y-103846381D01*
X140771429Y-103846381D01*
X140866667Y-103894000D01*
X140914286Y-103941619D01*
X140961905Y-104036857D01*
X140961905Y-104084476D01*
X140914286Y-104179714D01*
X140866667Y-104227333D01*
X140771429Y-104274952D01*
X140580952Y-104274952D01*
X140485714Y-104322571D01*
X140438095Y-104370190D01*
X140390476Y-104465429D01*
X140390476Y-104655905D01*
X140438095Y-104751143D01*
X140485714Y-104798762D01*
X140580952Y-104846381D01*
X140771429Y-104846381D01*
X140866667Y-104798762D01*
X140914286Y-104751143D01*
X140961905Y-104655905D01*
X140961905Y-104465429D01*
X140914286Y-104370190D01*
X140866667Y-104322571D01*
X140771429Y-104274952D01*
X161155143Y-103322381D02*
X160821809Y-102846190D01*
X160583714Y-103322381D02*
X160583714Y-102322381D01*
X160964667Y-102322381D01*
X161059905Y-102370000D01*
X161107524Y-102417619D01*
X161155143Y-102512857D01*
X161155143Y-102655714D01*
X161107524Y-102750952D01*
X161059905Y-102798571D01*
X160964667Y-102846190D01*
X160583714Y-102846190D01*
X162107524Y-103322381D02*
X161536095Y-103322381D01*
X161821809Y-103322381D02*
X161821809Y-102322381D01*
X161726571Y-102465238D01*
X161631333Y-102560476D01*
X161536095Y-102608095D01*
X162583714Y-103322381D02*
X162774190Y-103322381D01*
X162869429Y-103274762D01*
X162917048Y-103227143D01*
X163012286Y-103084286D01*
X163059905Y-102893810D01*
X163059905Y-102512857D01*
X163012286Y-102417619D01*
X162964667Y-102370000D01*
X162869429Y-102322381D01*
X162678952Y-102322381D01*
X162583714Y-102370000D01*
X162536095Y-102417619D01*
X162488476Y-102512857D01*
X162488476Y-102750952D01*
X162536095Y-102846190D01*
X162583714Y-102893810D01*
X162678952Y-102941429D01*
X162869429Y-102941429D01*
X162964667Y-102893810D01*
X163012286Y-102846190D01*
X163059905Y-102750952D01*
X141597143Y-81478381D02*
X141263809Y-81002190D01*
X141025714Y-81478381D02*
X141025714Y-80478381D01*
X141406667Y-80478381D01*
X141501905Y-80526000D01*
X141549524Y-80573619D01*
X141597143Y-80668857D01*
X141597143Y-80811714D01*
X141549524Y-80906952D01*
X141501905Y-80954571D01*
X141406667Y-81002190D01*
X141025714Y-81002190D01*
X141978095Y-80573619D02*
X142025714Y-80526000D01*
X142120952Y-80478381D01*
X142359048Y-80478381D01*
X142454286Y-80526000D01*
X142501905Y-80573619D01*
X142549524Y-80668857D01*
X142549524Y-80764095D01*
X142501905Y-80906952D01*
X141930476Y-81478381D01*
X142549524Y-81478381D01*
X143168571Y-80478381D02*
X143263810Y-80478381D01*
X143359048Y-80526000D01*
X143406667Y-80573619D01*
X143454286Y-80668857D01*
X143501905Y-80859333D01*
X143501905Y-81097429D01*
X143454286Y-81287905D01*
X143406667Y-81383143D01*
X143359048Y-81430762D01*
X143263810Y-81478381D01*
X143168571Y-81478381D01*
X143073333Y-81430762D01*
X143025714Y-81383143D01*
X142978095Y-81287905D01*
X142930476Y-81097429D01*
X142930476Y-80859333D01*
X142978095Y-80668857D01*
X143025714Y-80573619D01*
X143073333Y-80526000D01*
X143168571Y-80478381D01*
X141851143Y-103830381D02*
X141517809Y-103354190D01*
X141279714Y-103830381D02*
X141279714Y-102830381D01*
X141660667Y-102830381D01*
X141755905Y-102878000D01*
X141803524Y-102925619D01*
X141851143Y-103020857D01*
X141851143Y-103163714D01*
X141803524Y-103258952D01*
X141755905Y-103306571D01*
X141660667Y-103354190D01*
X141279714Y-103354190D01*
X142232095Y-102925619D02*
X142279714Y-102878000D01*
X142374952Y-102830381D01*
X142613048Y-102830381D01*
X142708286Y-102878000D01*
X142755905Y-102925619D01*
X142803524Y-103020857D01*
X142803524Y-103116095D01*
X142755905Y-103258952D01*
X142184476Y-103830381D01*
X142803524Y-103830381D01*
X143755905Y-103830381D02*
X143184476Y-103830381D01*
X143470190Y-103830381D02*
X143470190Y-102830381D01*
X143374952Y-102973238D01*
X143279714Y-103068476D01*
X143184476Y-103116095D01*
X143883143Y-86759381D02*
X143549809Y-86283190D01*
X143311714Y-86759381D02*
X143311714Y-85759381D01*
X143692667Y-85759381D01*
X143787905Y-85807000D01*
X143835524Y-85854619D01*
X143883143Y-85949857D01*
X143883143Y-86092714D01*
X143835524Y-86187952D01*
X143787905Y-86235571D01*
X143692667Y-86283190D01*
X143311714Y-86283190D01*
X144264095Y-85854619D02*
X144311714Y-85807000D01*
X144406952Y-85759381D01*
X144645048Y-85759381D01*
X144740286Y-85807000D01*
X144787905Y-85854619D01*
X144835524Y-85949857D01*
X144835524Y-86045095D01*
X144787905Y-86187952D01*
X144216476Y-86759381D01*
X144835524Y-86759381D01*
X145216476Y-85854619D02*
X145264095Y-85807000D01*
X145359333Y-85759381D01*
X145597429Y-85759381D01*
X145692667Y-85807000D01*
X145740286Y-85854619D01*
X145787905Y-85949857D01*
X145787905Y-86045095D01*
X145740286Y-86187952D01*
X145168857Y-86759381D01*
X145787905Y-86759381D01*
X146931143Y-86812381D02*
X146597809Y-86336190D01*
X146359714Y-86812381D02*
X146359714Y-85812381D01*
X146740667Y-85812381D01*
X146835905Y-85860000D01*
X146883524Y-85907619D01*
X146931143Y-86002857D01*
X146931143Y-86145714D01*
X146883524Y-86240952D01*
X146835905Y-86288571D01*
X146740667Y-86336190D01*
X146359714Y-86336190D01*
X147312095Y-85907619D02*
X147359714Y-85860000D01*
X147454952Y-85812381D01*
X147693048Y-85812381D01*
X147788286Y-85860000D01*
X147835905Y-85907619D01*
X147883524Y-86002857D01*
X147883524Y-86098095D01*
X147835905Y-86240952D01*
X147264476Y-86812381D01*
X147883524Y-86812381D01*
X148216857Y-85812381D02*
X148835905Y-85812381D01*
X148502571Y-86193333D01*
X148645429Y-86193333D01*
X148740667Y-86240952D01*
X148788286Y-86288571D01*
X148835905Y-86383810D01*
X148835905Y-86621905D01*
X148788286Y-86717143D01*
X148740667Y-86764762D01*
X148645429Y-86812381D01*
X148359714Y-86812381D01*
X148264476Y-86764762D01*
X148216857Y-86717143D01*
X144137143Y-98750381D02*
X143803809Y-98274190D01*
X143565714Y-98750381D02*
X143565714Y-97750381D01*
X143946667Y-97750381D01*
X144041905Y-97798000D01*
X144089524Y-97845619D01*
X144137143Y-97940857D01*
X144137143Y-98083714D01*
X144089524Y-98178952D01*
X144041905Y-98226571D01*
X143946667Y-98274190D01*
X143565714Y-98274190D01*
X144518095Y-97845619D02*
X144565714Y-97798000D01*
X144660952Y-97750381D01*
X144899048Y-97750381D01*
X144994286Y-97798000D01*
X145041905Y-97845619D01*
X145089524Y-97940857D01*
X145089524Y-98036095D01*
X145041905Y-98178952D01*
X144470476Y-98750381D01*
X145089524Y-98750381D01*
X145946667Y-98083714D02*
X145946667Y-98750381D01*
X145708571Y-97702762D02*
X145470476Y-98417048D01*
X146089524Y-98417048D01*
X137726000Y-93280667D02*
X137492666Y-92947333D01*
X137326000Y-93280667D02*
X137326000Y-92580667D01*
X137592666Y-92580667D01*
X137659333Y-92614000D01*
X137692666Y-92647333D01*
X137726000Y-92714000D01*
X137726000Y-92814000D01*
X137692666Y-92880667D01*
X137659333Y-92914000D01*
X137592666Y-92947333D01*
X137326000Y-92947333D01*
X137992666Y-92647333D02*
X138026000Y-92614000D01*
X138092666Y-92580667D01*
X138259333Y-92580667D01*
X138326000Y-92614000D01*
X138359333Y-92647333D01*
X138392666Y-92714000D01*
X138392666Y-92780667D01*
X138359333Y-92880667D01*
X137959333Y-93280667D01*
X138392666Y-93280667D01*
X139026000Y-92580667D02*
X138692667Y-92580667D01*
X138659333Y-92914000D01*
X138692667Y-92880667D01*
X138759333Y-92847333D01*
X138926000Y-92847333D01*
X138992667Y-92880667D01*
X139026000Y-92914000D01*
X139059333Y-92980667D01*
X139059333Y-93147333D01*
X139026000Y-93214000D01*
X138992667Y-93247333D01*
X138926000Y-93280667D01*
X138759333Y-93280667D01*
X138692667Y-93247333D01*
X138659333Y-93214000D01*
X140327143Y-92146381D02*
X139993809Y-91670190D01*
X139755714Y-92146381D02*
X139755714Y-91146381D01*
X140136667Y-91146381D01*
X140231905Y-91194000D01*
X140279524Y-91241619D01*
X140327143Y-91336857D01*
X140327143Y-91479714D01*
X140279524Y-91574952D01*
X140231905Y-91622571D01*
X140136667Y-91670190D01*
X139755714Y-91670190D01*
X140708095Y-91241619D02*
X140755714Y-91194000D01*
X140850952Y-91146381D01*
X141089048Y-91146381D01*
X141184286Y-91194000D01*
X141231905Y-91241619D01*
X141279524Y-91336857D01*
X141279524Y-91432095D01*
X141231905Y-91574952D01*
X140660476Y-92146381D01*
X141279524Y-92146381D01*
X142136667Y-91146381D02*
X141946190Y-91146381D01*
X141850952Y-91194000D01*
X141803333Y-91241619D01*
X141708095Y-91384476D01*
X141660476Y-91574952D01*
X141660476Y-91955905D01*
X141708095Y-92051143D01*
X141755714Y-92098762D01*
X141850952Y-92146381D01*
X142041429Y-92146381D01*
X142136667Y-92098762D01*
X142184286Y-92051143D01*
X142231905Y-91955905D01*
X142231905Y-91717810D01*
X142184286Y-91622571D01*
X142136667Y-91574952D01*
X142041429Y-91527333D01*
X141850952Y-91527333D01*
X141755714Y-91574952D01*
X141708095Y-91622571D01*
X141660476Y-91717810D01*
X125849143Y-100461381D02*
X125515809Y-99985190D01*
X125277714Y-100461381D02*
X125277714Y-99461381D01*
X125658667Y-99461381D01*
X125753905Y-99509000D01*
X125801524Y-99556619D01*
X125849143Y-99651857D01*
X125849143Y-99794714D01*
X125801524Y-99889952D01*
X125753905Y-99937571D01*
X125658667Y-99985190D01*
X125277714Y-99985190D01*
X126230095Y-99556619D02*
X126277714Y-99509000D01*
X126372952Y-99461381D01*
X126611048Y-99461381D01*
X126706286Y-99509000D01*
X126753905Y-99556619D01*
X126801524Y-99651857D01*
X126801524Y-99747095D01*
X126753905Y-99889952D01*
X126182476Y-100461381D01*
X126801524Y-100461381D01*
X127277714Y-100461381D02*
X127468190Y-100461381D01*
X127563429Y-100413762D01*
X127611048Y-100366143D01*
X127706286Y-100223286D01*
X127753905Y-100032810D01*
X127753905Y-99651857D01*
X127706286Y-99556619D01*
X127658667Y-99509000D01*
X127563429Y-99461381D01*
X127372952Y-99461381D01*
X127277714Y-99509000D01*
X127230095Y-99556619D01*
X127182476Y-99651857D01*
X127182476Y-99889952D01*
X127230095Y-99985190D01*
X127277714Y-100032810D01*
X127372952Y-100080429D01*
X127563429Y-100080429D01*
X127658667Y-100032810D01*
X127706286Y-99985190D01*
X127753905Y-99889952D01*
X157757905Y-102052381D02*
X157757905Y-101052381D01*
X157996000Y-101052381D01*
X158138858Y-101100000D01*
X158234096Y-101195238D01*
X158281715Y-101290476D01*
X158329334Y-101480952D01*
X158329334Y-101623810D01*
X158281715Y-101814286D01*
X158234096Y-101909524D01*
X158138858Y-102004762D01*
X157996000Y-102052381D01*
X157757905Y-102052381D01*
X159281715Y-102052381D02*
X158710286Y-102052381D01*
X158996000Y-102052381D02*
X158996000Y-101052381D01*
X158900762Y-101195238D01*
X158805524Y-101290476D01*
X158710286Y-101338095D01*
X161377334Y-97893143D02*
X161329715Y-97940762D01*
X161186858Y-97988381D01*
X161091620Y-97988381D01*
X160948762Y-97940762D01*
X160853524Y-97845524D01*
X160805905Y-97750286D01*
X160758286Y-97559810D01*
X160758286Y-97416952D01*
X160805905Y-97226476D01*
X160853524Y-97131238D01*
X160948762Y-97036000D01*
X161091620Y-96988381D01*
X161186858Y-96988381D01*
X161329715Y-97036000D01*
X161377334Y-97083619D01*
X161758286Y-97083619D02*
X161805905Y-97036000D01*
X161901143Y-96988381D01*
X162139239Y-96988381D01*
X162234477Y-97036000D01*
X162282096Y-97083619D01*
X162329715Y-97178857D01*
X162329715Y-97274095D01*
X162282096Y-97416952D01*
X161710667Y-97988381D01*
X162329715Y-97988381D01*
M02*
