G04 #@! TF.FileFunction,Soldermask,Top*
%FSLAX46Y46*%
G04 Gerber Fmt 4.6, Leading zero omitted, Abs format (unit mm)*
G04 Created by KiCad (PCBNEW 4.0.2-stable) date 29/12/2017 06:51:54*
%MOMM*%
G01*
G04 APERTURE LIST*
%ADD10C,0.100000*%
%ADD11R,1.000000X1.400000*%
%ADD12C,5.000000*%
%ADD13C,6.500000*%
%ADD14C,1.500000*%
%ADD15C,3.000000*%
%ADD16R,2.400000X1.600000*%
%ADD17O,2.400000X1.600000*%
%ADD18R,0.900000X0.500000*%
%ADD19R,0.800000X0.750000*%
%ADD20R,0.750000X0.800000*%
%ADD21R,1.600000X1.000000*%
%ADD22C,5.500000*%
%ADD23C,3.500000*%
%ADD24O,3.600000X2.500000*%
%ADD25R,3.600000X2.500000*%
%ADD26R,1.800000X1.800000*%
%ADD27O,1.800000X1.800000*%
%ADD28R,0.500000X0.900000*%
%ADD29C,8.000000*%
%ADD30R,1.000000X1.600000*%
%ADD31R,1.400000X1.000000*%
%ADD32R,1.700000X0.900000*%
%ADD33R,1.000000X3.200000*%
%ADD34R,0.900000X1.700000*%
%ADD35R,1.600000X1.600000*%
%ADD36O,1.600000X1.600000*%
G04 APERTURE END LIST*
D10*
D11*
X152334000Y-79164000D03*
X150434000Y-79164000D03*
X151384000Y-81364000D03*
X119700000Y-93175000D03*
X121600000Y-93175000D03*
X120650000Y-90975000D03*
D12*
X126502000Y-92316000D03*
X151902000Y-92316000D03*
D13*
X116082000Y-92316000D03*
D14*
X116082000Y-89776000D03*
D15*
X111002000Y-87236000D03*
X111002000Y-97396000D03*
D16*
X168465500Y-87503000D03*
D17*
X160845500Y-95123000D03*
X168465500Y-90043000D03*
X160845500Y-92583000D03*
X168465500Y-92583000D03*
X160845500Y-90043000D03*
X168465500Y-95123000D03*
X160845500Y-87503000D03*
D18*
X134366000Y-92976000D03*
X134366000Y-94476000D03*
X170180000Y-75680000D03*
X170180000Y-74180000D03*
D19*
X156920500Y-93726000D03*
X158420500Y-93726000D03*
D20*
X158432500Y-88531000D03*
X158432500Y-90031000D03*
D19*
X172073000Y-96520000D03*
X170573000Y-96520000D03*
D20*
X163258500Y-86118000D03*
X163258500Y-87618000D03*
D19*
X171374500Y-97980500D03*
X169874500Y-97980500D03*
D21*
X134048500Y-84240500D03*
X134048500Y-81240500D03*
X134112000Y-100417500D03*
X134112000Y-103417500D03*
D22*
X174822000Y-92329000D03*
D14*
X174822000Y-94869000D03*
D23*
X179902000Y-97409000D03*
X179902000Y-87249000D03*
D24*
X179895500Y-77406500D03*
X179895500Y-72326500D03*
D25*
X179895500Y-67246500D03*
X174815500Y-67246500D03*
D24*
X174815500Y-72326500D03*
X174815500Y-77406500D03*
X110998000Y-67246000D03*
X111098000Y-72290000D03*
D25*
X110998000Y-77406000D03*
X116078000Y-77406000D03*
D24*
X116078000Y-72326000D03*
X116078000Y-67246000D03*
D26*
X136662000Y-89316000D03*
D27*
X139202000Y-89316000D03*
X141742000Y-89316000D03*
D26*
X136662000Y-95316000D03*
D27*
X139202000Y-95316000D03*
X141742000Y-95316000D03*
D18*
X172783500Y-93841000D03*
X172783500Y-92341000D03*
D28*
X172136500Y-89916000D03*
X170636500Y-89916000D03*
X158420500Y-92138500D03*
X156920500Y-92138500D03*
D29*
X115202000Y-116116000D03*
D23*
X165202000Y-68616000D03*
X145202000Y-68616000D03*
X165202000Y-116116000D03*
D18*
X134366000Y-90436000D03*
X134366000Y-91936000D03*
D23*
X145202000Y-116116000D03*
D11*
X119700000Y-97747000D03*
X121600000Y-97747000D03*
X120650000Y-95547000D03*
D28*
X166167500Y-90805000D03*
X164667500Y-90805000D03*
D26*
X141757400Y-86316000D03*
D27*
X139217400Y-86316000D03*
X136677400Y-86316000D03*
D26*
X136662000Y-98316000D03*
D27*
X139202000Y-98316000D03*
X141742000Y-98316000D03*
D19*
X170763500Y-88455500D03*
X172263500Y-88455500D03*
X164667500Y-89281000D03*
X166167500Y-89281000D03*
X163651500Y-92329000D03*
X165151500Y-92329000D03*
D20*
X171831000Y-74180000D03*
X171831000Y-75680000D03*
D21*
X119697500Y-68096000D03*
X119697500Y-71096000D03*
D20*
X168465500Y-98857500D03*
X168465500Y-97357500D03*
X164846000Y-85356000D03*
X164846000Y-86856000D03*
X171831000Y-70536500D03*
X171831000Y-69036500D03*
D21*
X119697500Y-76366500D03*
X119697500Y-73366500D03*
D30*
X152043000Y-88011000D03*
X155043000Y-88011000D03*
X155043000Y-96647000D03*
X152043000Y-96647000D03*
X149503000Y-75565000D03*
X152503000Y-75565000D03*
X149312500Y-110236000D03*
X152312500Y-110236000D03*
D20*
X164211000Y-100826000D03*
X164211000Y-99326000D03*
D19*
X141339000Y-84201000D03*
X139839000Y-84201000D03*
X137299000Y-100457000D03*
X138799000Y-100457000D03*
D30*
X136882000Y-74422000D03*
X133882000Y-74422000D03*
D21*
X131445000Y-84240500D03*
X131445000Y-81240500D03*
X131445000Y-103402000D03*
X131445000Y-106402000D03*
D30*
X136882000Y-110236000D03*
X133882000Y-110236000D03*
D19*
X135902000Y-80391000D03*
X137402000Y-80391000D03*
X135965500Y-104203500D03*
X137465500Y-104203500D03*
D20*
X130937000Y-92976000D03*
X130937000Y-94476000D03*
D19*
X132600000Y-87376000D03*
X134100000Y-87376000D03*
X132600000Y-97472500D03*
X134100000Y-97472500D03*
D11*
X142052000Y-77554000D03*
X143952000Y-77554000D03*
X143002000Y-75354000D03*
X141925000Y-109177000D03*
X143825000Y-109177000D03*
X142875000Y-106977000D03*
X152334000Y-103802000D03*
X150434000Y-103802000D03*
X151384000Y-106002000D03*
D18*
X166306500Y-83514500D03*
X166306500Y-85014500D03*
X170053000Y-99199000D03*
X170053000Y-100699000D03*
X132588000Y-94476000D03*
X132588000Y-92976000D03*
X136906000Y-71322500D03*
X136906000Y-72822500D03*
X136906000Y-112026000D03*
X136906000Y-113526000D03*
D28*
X128345500Y-84264500D03*
X129845500Y-84264500D03*
X129782000Y-103378000D03*
X128282000Y-103378000D03*
D26*
X147202000Y-82677000D03*
D27*
X147202000Y-80137000D03*
X147202000Y-77597000D03*
D26*
X147193000Y-101981000D03*
D27*
X147193000Y-104521000D03*
X147193000Y-107061000D03*
D31*
X146261000Y-91374000D03*
X146261000Y-89474000D03*
X144061000Y-90424000D03*
X146261000Y-95184000D03*
X146261000Y-93284000D03*
X144061000Y-94234000D03*
D32*
X165671500Y-97843000D03*
X165671500Y-94943000D03*
D18*
X171005500Y-91960000D03*
X171005500Y-93460000D03*
X163385500Y-89674000D03*
X163385500Y-91174000D03*
X156908500Y-95008000D03*
X156908500Y-96508000D03*
D33*
X122439500Y-67246500D03*
X128639500Y-67246500D03*
D34*
X150188000Y-84582000D03*
X153088000Y-84582000D03*
X153088000Y-100330000D03*
X150188000Y-100330000D03*
D18*
X154940000Y-83832000D03*
X154940000Y-85332000D03*
X154940000Y-99326000D03*
X154940000Y-100826000D03*
X170180000Y-69036500D03*
X170180000Y-70536500D03*
D33*
X122376000Y-77343000D03*
X128576000Y-77343000D03*
X139752000Y-77597000D03*
X133552000Y-77597000D03*
X133615500Y-107061000D03*
X139815500Y-107061000D03*
D18*
X164211000Y-101866000D03*
X164211000Y-103366000D03*
X144399000Y-80720500D03*
X144399000Y-82220500D03*
X144589500Y-102564500D03*
X144589500Y-104064500D03*
D28*
X143776000Y-87757000D03*
X145276000Y-87757000D03*
X147816000Y-87757000D03*
X146316000Y-87757000D03*
X143776000Y-96901000D03*
X145276000Y-96901000D03*
X138164000Y-91567000D03*
X136664000Y-91567000D03*
X141720000Y-93218000D03*
X140220000Y-93218000D03*
D33*
X129592000Y-97409000D03*
X123392000Y-97409000D03*
D11*
X157609500Y-99842500D03*
X159509500Y-99842500D03*
X158559500Y-97642500D03*
D21*
X163512500Y-97893000D03*
X163512500Y-94893000D03*
D35*
X154940000Y-78994000D03*
D36*
X154940000Y-81534000D03*
D35*
X154940000Y-103124000D03*
D36*
X154940000Y-105664000D03*
M02*
