G04 #@! TF.FileFunction,Copper,L1,Top,Signal*
%FSLAX46Y46*%
G04 Gerber Fmt 4.6, Leading zero omitted, Abs format (unit mm)*
G04 Created by KiCad (PCBNEW 4.0.2-stable) date 29/12/2017 06:51:54*
%MOMM*%
G01*
G04 APERTURE LIST*
%ADD10C,0.100000*%
%ADD11R,1.000000X1.400000*%
%ADD12C,5.000000*%
%ADD13C,2.500000*%
%ADD14C,1.500000*%
%ADD15C,3.000000*%
%ADD16R,2.400000X1.600000*%
%ADD17O,2.400000X1.600000*%
%ADD18R,0.900000X0.500000*%
%ADD19R,0.800000X0.750000*%
%ADD20R,0.750000X0.800000*%
%ADD21R,1.600000X1.000000*%
%ADD22C,3.500000*%
%ADD23O,3.600000X2.500000*%
%ADD24R,3.600000X2.500000*%
%ADD25R,1.800000X1.800000*%
%ADD26O,1.800000X1.800000*%
%ADD27R,0.500000X0.900000*%
%ADD28C,8.000000*%
%ADD29R,1.000000X1.600000*%
%ADD30R,1.400000X1.000000*%
%ADD31R,1.700000X0.900000*%
%ADD32R,1.000000X3.200000*%
%ADD33R,0.900000X1.700000*%
%ADD34R,1.600000X1.600000*%
%ADD35O,1.600000X1.600000*%
%ADD36C,1.200000*%
%ADD37C,0.700000*%
%ADD38C,0.500000*%
%ADD39C,0.400000*%
%ADD40C,1.500000*%
%ADD41C,2.500000*%
%ADD42C,1.000000*%
%ADD43C,0.300000*%
%ADD44C,0.180000*%
G04 APERTURE END LIST*
D10*
D11*
X152334000Y-79164000D03*
X150434000Y-79164000D03*
X151384000Y-81364000D03*
X119700000Y-93175000D03*
X121600000Y-93175000D03*
X120650000Y-90975000D03*
D12*
X126502000Y-92316000D03*
X151902000Y-92316000D03*
D13*
X116082000Y-92316000D03*
D14*
X116082000Y-89776000D03*
D15*
X111002000Y-87236000D03*
X111002000Y-97396000D03*
D16*
X168465500Y-87503000D03*
D17*
X160845500Y-95123000D03*
X168465500Y-90043000D03*
X160845500Y-92583000D03*
X168465500Y-92583000D03*
X160845500Y-90043000D03*
X168465500Y-95123000D03*
X160845500Y-87503000D03*
D18*
X134366000Y-92976000D03*
X134366000Y-94476000D03*
X170180000Y-75680000D03*
X170180000Y-74180000D03*
D19*
X156920500Y-93726000D03*
X158420500Y-93726000D03*
D20*
X158432500Y-88531000D03*
X158432500Y-90031000D03*
D19*
X172073000Y-96520000D03*
X170573000Y-96520000D03*
D20*
X163258500Y-86118000D03*
X163258500Y-87618000D03*
D19*
X171374500Y-97980500D03*
X169874500Y-97980500D03*
D21*
X134048500Y-84240500D03*
X134048500Y-81240500D03*
X134112000Y-100417500D03*
X134112000Y-103417500D03*
D14*
X174822000Y-92329000D03*
X174822000Y-94869000D03*
D22*
X179902000Y-97409000D03*
X179902000Y-87249000D03*
D23*
X179895500Y-77406500D03*
X179895500Y-72326500D03*
D24*
X179895500Y-67246500D03*
X174815500Y-67246500D03*
D23*
X174815500Y-72326500D03*
X174815500Y-77406500D03*
X110998000Y-67246000D03*
X111098000Y-72290000D03*
D24*
X110998000Y-77406000D03*
X116078000Y-77406000D03*
D23*
X116078000Y-72326000D03*
X116078000Y-67246000D03*
D25*
X136662000Y-89316000D03*
D26*
X139202000Y-89316000D03*
X141742000Y-89316000D03*
D25*
X136662000Y-95316000D03*
D26*
X139202000Y-95316000D03*
X141742000Y-95316000D03*
D18*
X172783500Y-93841000D03*
X172783500Y-92341000D03*
D27*
X172136500Y-89916000D03*
X170636500Y-89916000D03*
X158420500Y-92138500D03*
X156920500Y-92138500D03*
D28*
X115202000Y-116116000D03*
D22*
X165202000Y-68616000D03*
X145202000Y-68616000D03*
X165202000Y-116116000D03*
D18*
X134366000Y-90436000D03*
X134366000Y-91936000D03*
D22*
X145202000Y-116116000D03*
D11*
X119700000Y-97747000D03*
X121600000Y-97747000D03*
X120650000Y-95547000D03*
D27*
X166167500Y-90805000D03*
X164667500Y-90805000D03*
D25*
X141757400Y-86316000D03*
D26*
X139217400Y-86316000D03*
X136677400Y-86316000D03*
D25*
X136662000Y-98316000D03*
D26*
X139202000Y-98316000D03*
X141742000Y-98316000D03*
D19*
X170763500Y-88455500D03*
X172263500Y-88455500D03*
X164667500Y-89281000D03*
X166167500Y-89281000D03*
X163651500Y-92329000D03*
X165151500Y-92329000D03*
D20*
X171831000Y-74180000D03*
X171831000Y-75680000D03*
D21*
X119697500Y-68096000D03*
X119697500Y-71096000D03*
D20*
X168465500Y-98857500D03*
X168465500Y-97357500D03*
X164846000Y-85356000D03*
X164846000Y-86856000D03*
X171831000Y-70536500D03*
X171831000Y-69036500D03*
D21*
X119697500Y-76366500D03*
X119697500Y-73366500D03*
D29*
X152043000Y-88011000D03*
X155043000Y-88011000D03*
X155043000Y-96647000D03*
X152043000Y-96647000D03*
X149503000Y-75565000D03*
X152503000Y-75565000D03*
X149312500Y-110236000D03*
X152312500Y-110236000D03*
D20*
X164211000Y-100826000D03*
X164211000Y-99326000D03*
D19*
X141339000Y-84201000D03*
X139839000Y-84201000D03*
X137299000Y-100457000D03*
X138799000Y-100457000D03*
D29*
X136882000Y-74422000D03*
X133882000Y-74422000D03*
D21*
X131445000Y-84240500D03*
X131445000Y-81240500D03*
X131445000Y-103402000D03*
X131445000Y-106402000D03*
D29*
X136882000Y-110236000D03*
X133882000Y-110236000D03*
D19*
X135902000Y-80391000D03*
X137402000Y-80391000D03*
X135965500Y-104203500D03*
X137465500Y-104203500D03*
D20*
X130937000Y-92976000D03*
X130937000Y-94476000D03*
D19*
X132600000Y-87376000D03*
X134100000Y-87376000D03*
X132600000Y-97472500D03*
X134100000Y-97472500D03*
D11*
X142052000Y-77554000D03*
X143952000Y-77554000D03*
X143002000Y-75354000D03*
X141925000Y-109177000D03*
X143825000Y-109177000D03*
X142875000Y-106977000D03*
X152334000Y-103802000D03*
X150434000Y-103802000D03*
X151384000Y-106002000D03*
D18*
X166306500Y-83514500D03*
X166306500Y-85014500D03*
X170053000Y-99199000D03*
X170053000Y-100699000D03*
X132588000Y-94476000D03*
X132588000Y-92976000D03*
X136906000Y-71322500D03*
X136906000Y-72822500D03*
X136906000Y-112026000D03*
X136906000Y-113526000D03*
D27*
X128345500Y-84264500D03*
X129845500Y-84264500D03*
X129782000Y-103378000D03*
X128282000Y-103378000D03*
D25*
X147202000Y-82677000D03*
D26*
X147202000Y-80137000D03*
X147202000Y-77597000D03*
D25*
X147193000Y-101981000D03*
D26*
X147193000Y-104521000D03*
X147193000Y-107061000D03*
D30*
X146261000Y-91374000D03*
X146261000Y-89474000D03*
X144061000Y-90424000D03*
X146261000Y-95184000D03*
X146261000Y-93284000D03*
X144061000Y-94234000D03*
D31*
X165671500Y-97843000D03*
X165671500Y-94943000D03*
D18*
X171005500Y-91960000D03*
X171005500Y-93460000D03*
X163385500Y-89674000D03*
X163385500Y-91174000D03*
X156908500Y-95008000D03*
X156908500Y-96508000D03*
D32*
X122439500Y-67246500D03*
X128639500Y-67246500D03*
D33*
X150188000Y-84582000D03*
X153088000Y-84582000D03*
X153088000Y-100330000D03*
X150188000Y-100330000D03*
D18*
X154940000Y-83832000D03*
X154940000Y-85332000D03*
X154940000Y-99326000D03*
X154940000Y-100826000D03*
X170180000Y-69036500D03*
X170180000Y-70536500D03*
D32*
X122376000Y-77343000D03*
X128576000Y-77343000D03*
X139752000Y-77597000D03*
X133552000Y-77597000D03*
X133615500Y-107061000D03*
X139815500Y-107061000D03*
D18*
X164211000Y-101866000D03*
X164211000Y-103366000D03*
X144399000Y-80720500D03*
X144399000Y-82220500D03*
X144589500Y-102564500D03*
X144589500Y-104064500D03*
D27*
X143776000Y-87757000D03*
X145276000Y-87757000D03*
X147816000Y-87757000D03*
X146316000Y-87757000D03*
X143776000Y-96901000D03*
X145276000Y-96901000D03*
X138164000Y-91567000D03*
X136664000Y-91567000D03*
X141720000Y-93218000D03*
X140220000Y-93218000D03*
D32*
X129592000Y-97409000D03*
X123392000Y-97409000D03*
D11*
X157609500Y-99842500D03*
X159509500Y-99842500D03*
X158559500Y-97642500D03*
D21*
X163512500Y-97893000D03*
X163512500Y-94893000D03*
D34*
X154940000Y-78994000D03*
D35*
X154940000Y-81534000D03*
D34*
X154940000Y-103124000D03*
D35*
X154940000Y-105664000D03*
D36*
X158623000Y-84582000D03*
X126502000Y-99431000D03*
X132016500Y-79819500D03*
X129667000Y-81280000D03*
X135255000Y-77533500D03*
X127000000Y-77406500D03*
X130492500Y-67310000D03*
X132270500Y-74295000D03*
X169354500Y-83947000D03*
X163766500Y-83947000D03*
X173545500Y-87122000D03*
X172656500Y-98425000D03*
X168783000Y-102235000D03*
X164211000Y-104902000D03*
X154051000Y-110109000D03*
X135001000Y-107315000D03*
X132397500Y-109220000D03*
X129381250Y-105314750D03*
X129921000Y-70675500D03*
X135636000Y-70739000D03*
X127000000Y-82931000D03*
X123507500Y-77470000D03*
X113030000Y-103441500D03*
X120142000Y-106553000D03*
X148336000Y-96266000D03*
X160528000Y-97790000D03*
X172466000Y-101981000D03*
X182753000Y-102362000D03*
X162306000Y-99885500D03*
X166687500Y-82486500D03*
X122301000Y-90424000D03*
X133223000Y-85407500D03*
X134048500Y-86233000D03*
X118237000Y-97155000D03*
X132842000Y-101854000D03*
X134112000Y-98742500D03*
D37*
X153670000Y-107950000D02*
X156019500Y-107950000D01*
X152312500Y-110236000D02*
X152312500Y-109307500D01*
X152312500Y-109307500D02*
X153670000Y-107950000D01*
D38*
X163246500Y-104330500D02*
X164211000Y-103366000D01*
D37*
X159639000Y-104330500D02*
X163246500Y-104330500D01*
X156019500Y-107950000D02*
X159639000Y-104330500D01*
X152503000Y-75565000D02*
X153098500Y-75565000D01*
D39*
X159004000Y-84963000D02*
X158623000Y-84582000D01*
X159004000Y-84963000D02*
X159004000Y-85788500D01*
D37*
X157353000Y-83312000D02*
X158623000Y-84582000D01*
X157353000Y-78041500D02*
X157353000Y-83312000D01*
X156146500Y-76835000D02*
X157353000Y-78041500D01*
X154368500Y-76835000D02*
X156146500Y-76835000D01*
X153098500Y-75565000D02*
X154368500Y-76835000D01*
D39*
X174822000Y-94869000D02*
X174441000Y-95250000D01*
X174441000Y-95250000D02*
X173863000Y-95250000D01*
X173863000Y-95250000D02*
X172783500Y-94170500D01*
X172783500Y-94170500D02*
X172783500Y-93841000D01*
X174822000Y-94869000D02*
X175676000Y-95723000D01*
X175676000Y-95723000D02*
X177990500Y-93408500D01*
X177990500Y-93408500D02*
X177990500Y-90741500D01*
X177990500Y-90741500D02*
X175704500Y-88455500D01*
X175704500Y-88455500D02*
X172263500Y-88455500D01*
X116082000Y-89776000D02*
X116082000Y-89277000D01*
X117221000Y-88138000D02*
X122936000Y-88138000D01*
X116082000Y-89277000D02*
X117221000Y-88138000D01*
X122936000Y-88138000D02*
X126502000Y-91704000D01*
X126502000Y-91704000D02*
X126502000Y-92316000D01*
X116082000Y-89776000D02*
X115333000Y-89027000D01*
X115333000Y-89027000D02*
X112793000Y-89027000D01*
X112793000Y-89027000D02*
X111002000Y-87236000D01*
D40*
X116078000Y-72326000D02*
X117538000Y-72326000D01*
X117538000Y-72326000D02*
X118618000Y-73406000D01*
X118618000Y-73406000D02*
X119658000Y-73406000D01*
X119658000Y-73406000D02*
X119697500Y-73366500D01*
X116078000Y-72326000D02*
X117666000Y-72326000D01*
X117666000Y-72326000D02*
X118896000Y-71096000D01*
X118896000Y-71096000D02*
X119697500Y-71096000D01*
D39*
X133882000Y-74422000D02*
X133882000Y-73509000D01*
X133882000Y-73509000D02*
X135318500Y-72072500D01*
X135318500Y-72072500D02*
X140208000Y-72072500D01*
X140208000Y-72072500D02*
X141287500Y-73152000D01*
X141287500Y-73152000D02*
X151384000Y-73152000D01*
X151384000Y-73152000D02*
X152503000Y-74271000D01*
X152503000Y-74271000D02*
X152503000Y-75565000D01*
D37*
X161353500Y-69977000D02*
X165556500Y-74180000D01*
X165556500Y-74180000D02*
X170180000Y-74180000D01*
X161353500Y-66167000D02*
X161353500Y-69977000D01*
X162941000Y-64579500D02*
X161353500Y-66167000D01*
X171513500Y-64579500D02*
X162941000Y-64579500D01*
X171577000Y-64516000D02*
X171513500Y-64579500D01*
X183896000Y-64516000D02*
X171577000Y-64516000D01*
X184150000Y-64770000D02*
X183896000Y-64516000D01*
X184150000Y-70572000D02*
X184150000Y-64770000D01*
X179895500Y-72326500D02*
X182395500Y-72326500D01*
X182395500Y-72326500D02*
X184150000Y-70572000D01*
D39*
X131445000Y-81240500D02*
X130786000Y-81240500D01*
X130786000Y-81240500D02*
X129095500Y-82931000D01*
X129095500Y-82931000D02*
X129095500Y-85852000D01*
X129095500Y-85852000D02*
X131030750Y-87787250D01*
X126502000Y-92316000D02*
X126502000Y-95260000D01*
X126502000Y-95260000D02*
X127762000Y-96520000D01*
X127762000Y-96520000D02*
X127762000Y-100520500D01*
X126502000Y-92316000D02*
X126502000Y-95240000D01*
X126502000Y-95240000D02*
X125349000Y-96393000D01*
X125349000Y-96393000D02*
X125349000Y-100330000D01*
X125349000Y-100330000D02*
X125158500Y-100520500D01*
D41*
X126502000Y-99431000D02*
X126502000Y-96827500D01*
X126502000Y-96827500D02*
X126555500Y-96774000D01*
D37*
X125603000Y-100520500D02*
X125603000Y-100330000D01*
X125603000Y-100330000D02*
X126502000Y-99431000D01*
D41*
X126502000Y-99431000D02*
X126492000Y-99441000D01*
D39*
X134048500Y-81240500D02*
X134048500Y-80518000D01*
X133350000Y-79819500D02*
X132016500Y-79819500D01*
X134048500Y-80518000D02*
X133350000Y-79819500D01*
X131445000Y-81240500D02*
X129706500Y-81240500D01*
X129706500Y-81240500D02*
X129667000Y-81280000D01*
X133552000Y-77597000D02*
X135191500Y-77597000D01*
X135191500Y-77597000D02*
X135255000Y-77533500D01*
X128576000Y-77343000D02*
X127063500Y-77343000D01*
X127063500Y-77343000D02*
X127000000Y-77406500D01*
X128639500Y-67246500D02*
X130429000Y-67246500D01*
X130429000Y-67246500D02*
X130492500Y-67310000D01*
X133882000Y-74422000D02*
X132397500Y-74422000D01*
X132397500Y-74422000D02*
X132270500Y-74295000D01*
X168973500Y-84264500D02*
X169037000Y-84264500D01*
X169037000Y-84264500D02*
X169354500Y-83947000D01*
X164846000Y-85356000D02*
X164846000Y-85026500D01*
X164846000Y-85026500D02*
X163766500Y-83947000D01*
X172263500Y-88455500D02*
X172263500Y-88404000D01*
X172263500Y-88404000D02*
X173545500Y-87122000D01*
X171374500Y-97980500D02*
X172212000Y-97980500D01*
X172212000Y-97980500D02*
X172656500Y-98425000D01*
X168465500Y-98857500D02*
X168465500Y-101917500D01*
X168465500Y-101917500D02*
X168783000Y-102235000D01*
X164211000Y-103366000D02*
X164211000Y-104902000D01*
X152312500Y-110236000D02*
X153924000Y-110236000D01*
X153924000Y-110236000D02*
X154051000Y-110109000D01*
X133615500Y-107061000D02*
X134747000Y-107061000D01*
X134747000Y-107061000D02*
X135001000Y-107315000D01*
X133882000Y-110236000D02*
X133413500Y-110236000D01*
X133413500Y-110236000D02*
X132397500Y-109220000D01*
X172136500Y-89916000D02*
X172783500Y-89916000D01*
X172783500Y-89916000D02*
X173418500Y-89281000D01*
X173418500Y-89281000D02*
X173418500Y-88582500D01*
X173418500Y-88582500D02*
X173291500Y-88455500D01*
X173291500Y-88455500D02*
X172263500Y-88455500D01*
X172263500Y-88455500D02*
X172263500Y-87300500D01*
X172263500Y-87300500D02*
X169227500Y-84264500D01*
X169227500Y-84264500D02*
X168973500Y-84264500D01*
X168973500Y-84264500D02*
X164338000Y-84264500D01*
X164338000Y-84264500D02*
X164338000Y-84328000D01*
X164338000Y-84328000D02*
X164846000Y-84836000D01*
D37*
X164846000Y-84836000D02*
X164846000Y-85356000D01*
X158877000Y-85915500D02*
X159004000Y-85788500D01*
X158432500Y-86360000D02*
X158877000Y-85915500D01*
X158432500Y-88531000D02*
X158432500Y-86360000D01*
X159004000Y-85788500D02*
X159512000Y-85280500D01*
X162421000Y-85280500D02*
X163056000Y-85915500D01*
X159512000Y-85280500D02*
X162421000Y-85280500D01*
X163258500Y-85725000D02*
X164147500Y-84836000D01*
X164147500Y-84836000D02*
X164326000Y-84836000D01*
X164326000Y-84836000D02*
X164846000Y-85356000D01*
D39*
X170180000Y-70536500D02*
X168326500Y-70536500D01*
X169430000Y-74180000D02*
X170180000Y-74180000D01*
X168592500Y-73342500D02*
X169430000Y-74180000D01*
X168592500Y-70802500D02*
X168592500Y-73342500D01*
X168326500Y-70536500D02*
X168592500Y-70802500D01*
D38*
X164211000Y-103366000D02*
X164921500Y-104076500D01*
X168465500Y-101663500D02*
X168465500Y-99504500D01*
X166052500Y-104076500D02*
X168465500Y-101663500D01*
X164921500Y-104076500D02*
X166052500Y-104076500D01*
D39*
X138493500Y-112458500D02*
X139255500Y-111696500D01*
X139255500Y-111696500D02*
X147129500Y-111696500D01*
X147129500Y-111696500D02*
X148018500Y-112585500D01*
X152312500Y-110450500D02*
X152312500Y-110236000D01*
X148018500Y-112585500D02*
X150177500Y-112585500D01*
X150177500Y-112585500D02*
X152312500Y-110450500D01*
X133882000Y-110236000D02*
X133882000Y-110958500D01*
X138176000Y-112776000D02*
X138747500Y-112204500D01*
X133882000Y-110958500D02*
X135699500Y-112776000D01*
X135699500Y-112776000D02*
X138176000Y-112776000D01*
X138747500Y-112204500D02*
X138874500Y-112331500D01*
X138874500Y-114490500D02*
X137249000Y-116116000D01*
X138874500Y-112331500D02*
X138874500Y-114490500D01*
X137249000Y-116116000D02*
X115202000Y-116116000D01*
X132600000Y-97472500D02*
X132600000Y-100000500D01*
X132600000Y-100000500D02*
X131635500Y-100965000D01*
X128905000Y-101663500D02*
X127762000Y-100520500D01*
X131635500Y-100965000D02*
X129667000Y-100965000D01*
X129667000Y-100965000D02*
X129095500Y-101536500D01*
X129095500Y-101536500D02*
X129095500Y-101663500D01*
X129095500Y-101663500D02*
X128905000Y-101663500D01*
X129286000Y-101473000D02*
X129032000Y-101727000D01*
X129032000Y-101727000D02*
X129032000Y-104965500D01*
X129032000Y-104965500D02*
X129381250Y-105314750D01*
X129381250Y-105314750D02*
X130468500Y-106402000D01*
X130468500Y-106402000D02*
X131445000Y-106402000D01*
X111002000Y-97396000D02*
X113271000Y-97396000D01*
X116395500Y-100520500D02*
X125158500Y-100520500D01*
X125158500Y-100520500D02*
X125603000Y-100520500D01*
X125603000Y-100520500D02*
X127762000Y-100520500D01*
X113271000Y-97396000D02*
X116395500Y-100520500D01*
X132600000Y-87376000D02*
X131442000Y-87376000D01*
X131442000Y-87376000D02*
X131030750Y-87787250D01*
X131030750Y-87787250D02*
X126502000Y-92316000D01*
X111002000Y-87236000D02*
X111002000Y-97396000D01*
D37*
X135902000Y-80391000D02*
X135902000Y-79947000D01*
X135902000Y-79947000D02*
X133552000Y-77597000D01*
X134048500Y-81240500D02*
X135052500Y-81240500D01*
X135052500Y-81240500D02*
X135902000Y-80391000D01*
X134048500Y-81240500D02*
X131445000Y-81240500D01*
X131445000Y-81240500D02*
X131445000Y-80212000D01*
X131445000Y-80212000D02*
X128576000Y-77343000D01*
X119697500Y-71096000D02*
X124790000Y-71096000D01*
X124790000Y-71096000D02*
X128639500Y-67246500D01*
X133552000Y-77597000D02*
X133552000Y-74752000D01*
X133552000Y-74752000D02*
X133882000Y-74422000D01*
X128576000Y-77343000D02*
X133298000Y-77343000D01*
X133298000Y-77343000D02*
X133552000Y-77597000D01*
X133615500Y-107061000D02*
X133615500Y-109969500D01*
X133615500Y-109969500D02*
X133882000Y-110236000D01*
X133615500Y-107061000D02*
X133615500Y-103914000D01*
X133615500Y-103914000D02*
X134112000Y-103417500D01*
X131445000Y-106402000D02*
X132956500Y-106402000D01*
X132956500Y-106402000D02*
X133615500Y-107061000D01*
X135965500Y-104203500D02*
X134898000Y-104203500D01*
X134898000Y-104203500D02*
X134112000Y-103417500D01*
D40*
X111098000Y-72290000D02*
X116042000Y-72290000D01*
X116042000Y-72290000D02*
X116078000Y-72326000D01*
D37*
X171831000Y-74180000D02*
X170180000Y-74180000D01*
X174815500Y-72326500D02*
X173684500Y-72326500D01*
X173684500Y-72326500D02*
X171831000Y-74180000D01*
X171831000Y-70536500D02*
X170180000Y-70536500D01*
X174815500Y-72326500D02*
X173621000Y-72326500D01*
X173621000Y-72326500D02*
X171831000Y-70536500D01*
X179895500Y-72326500D02*
X174815500Y-72326500D01*
D39*
X168465500Y-98857500D02*
X168465500Y-98933000D01*
X172136500Y-89916000D02*
X172136500Y-88582500D01*
X172136500Y-88582500D02*
X172263500Y-88455500D01*
X174822000Y-94869000D02*
X175450500Y-94869000D01*
X172073000Y-96520000D02*
X173171000Y-96520000D01*
X173171000Y-96520000D02*
X174822000Y-94869000D01*
X171374500Y-97980500D02*
X171450000Y-97980500D01*
X171450000Y-97980500D02*
X172073000Y-97357500D01*
X172073000Y-97357500D02*
X172073000Y-96520000D01*
X168465500Y-98857500D02*
X168465500Y-99504500D01*
X171374500Y-99453000D02*
X171374500Y-97980500D01*
X168465500Y-99504500D02*
X168910000Y-99949000D01*
X168910000Y-99949000D02*
X170878500Y-99949000D01*
X170878500Y-99949000D02*
X171374500Y-99453000D01*
X163258500Y-86118000D02*
X163258500Y-85725000D01*
X163056000Y-85915500D02*
X163258500Y-86118000D01*
D37*
X130937000Y-92976000D02*
X127162000Y-92976000D01*
X127162000Y-92976000D02*
X126502000Y-92316000D01*
D39*
X165151500Y-92329000D02*
X165151500Y-94423000D01*
X165151500Y-94423000D02*
X165671500Y-94943000D01*
X163512500Y-94893000D02*
X165621500Y-94893000D01*
X165621500Y-94893000D02*
X165671500Y-94943000D01*
X170636500Y-89916000D02*
X170636500Y-88582500D01*
X170636500Y-88582500D02*
X170763500Y-88455500D01*
X168465500Y-90043000D02*
X170509500Y-90043000D01*
X170509500Y-90043000D02*
X170636500Y-89916000D01*
X166167500Y-90805000D02*
X166167500Y-91313000D01*
X168465500Y-90043000D02*
X166560500Y-90043000D01*
X166560500Y-90043000D02*
X166167500Y-90436000D01*
X166167500Y-90436000D02*
X166167500Y-90805000D01*
X166167500Y-89281000D02*
X166167500Y-90805000D01*
X166167500Y-91313000D02*
X165151500Y-92329000D01*
X136906000Y-71322500D02*
X136219500Y-71322500D01*
X123507500Y-76211500D02*
X128396500Y-71322500D01*
X123507500Y-76211500D02*
X123507500Y-77470000D01*
X128980000Y-70739000D02*
X128396500Y-71322500D01*
X129857500Y-70739000D02*
X128980000Y-70739000D01*
X129921000Y-70675500D02*
X129857500Y-70739000D01*
X136219500Y-71322500D02*
X135636000Y-70739000D01*
X128345500Y-84264500D02*
X128333500Y-84264500D01*
X128333500Y-84264500D02*
X127000000Y-82931000D01*
X123507500Y-77470000D02*
X123380500Y-77343000D01*
X123380500Y-77343000D02*
X122376000Y-77343000D01*
D37*
X122376000Y-77343000D02*
X122376000Y-78295000D01*
D40*
X119697500Y-76366500D02*
X121399500Y-76366500D01*
X121399500Y-76366500D02*
X122376000Y-77343000D01*
X116078000Y-77406000D02*
X118658000Y-77406000D01*
X118658000Y-77406000D02*
X119697500Y-76366500D01*
X110998000Y-77406000D02*
X116078000Y-77406000D01*
D37*
X113030000Y-103441500D02*
X107188000Y-103441500D01*
X107188000Y-103441500D02*
X104838500Y-101092000D01*
X104838500Y-101092000D02*
X104838500Y-70294500D01*
X104838500Y-70294500D02*
X107887000Y-67246000D01*
X107887000Y-67246000D02*
X110998000Y-67246000D01*
X126492000Y-106616500D02*
X120205500Y-106616500D01*
D39*
X120205500Y-106616500D02*
X120142000Y-106553000D01*
X126492000Y-103822500D02*
X126492000Y-106616500D01*
X133401500Y-113526000D02*
X136906000Y-113526000D01*
X126492000Y-106616500D02*
X133401500Y-113526000D01*
X126492000Y-103822500D02*
X126936500Y-103378000D01*
X126936500Y-103378000D02*
X128282000Y-103378000D01*
D40*
X119697500Y-68096000D02*
X121590000Y-68096000D01*
X121590000Y-68096000D02*
X122439500Y-67246500D01*
X116078000Y-67246000D02*
X118847500Y-67246000D01*
X118847500Y-67246000D02*
X119697500Y-68096000D01*
X110998000Y-67246000D02*
X116078000Y-67246000D01*
D39*
X172783500Y-92341000D02*
X174810000Y-92341000D01*
X174810000Y-92341000D02*
X174822000Y-92329000D01*
X171005500Y-91960000D02*
X171716000Y-91960000D01*
X172097000Y-92341000D02*
X172783500Y-92341000D01*
X171716000Y-91960000D02*
X172097000Y-92341000D01*
D37*
X116082000Y-92316000D02*
X118841000Y-92316000D01*
X118841000Y-92316000D02*
X119700000Y-93175000D01*
X120650000Y-95547000D02*
X120650000Y-95377000D01*
X120650000Y-95377000D02*
X119700000Y-94427000D01*
X119700000Y-94427000D02*
X119700000Y-93175000D01*
X123392000Y-97409000D02*
X123392000Y-96849000D01*
X123392000Y-96849000D02*
X122090000Y-95547000D01*
X122090000Y-95547000D02*
X120650000Y-95547000D01*
D38*
X136664000Y-91567000D02*
X136664000Y-89318000D01*
X136664000Y-89318000D02*
X136662000Y-89316000D01*
D42*
X136662000Y-89316000D02*
X135486000Y-89316000D01*
X135486000Y-89316000D02*
X134366000Y-90436000D01*
D39*
X140220000Y-93218000D02*
X139573000Y-93218000D01*
X138176000Y-93599000D02*
X136662000Y-95113000D01*
X139192000Y-93599000D02*
X138176000Y-93599000D01*
X139573000Y-93218000D02*
X139192000Y-93599000D01*
X136662000Y-95113000D02*
X136662000Y-95316000D01*
D42*
X136662000Y-95316000D02*
X135206000Y-95316000D01*
X135206000Y-95316000D02*
X134366000Y-94476000D01*
D43*
X145276000Y-87757000D02*
X145276000Y-88277000D01*
X144237000Y-89316000D02*
X141742000Y-89316000D01*
X145276000Y-88277000D02*
X144237000Y-89316000D01*
D42*
X141742000Y-89316000D02*
X142953000Y-89316000D01*
X142953000Y-89316000D02*
X144061000Y-90424000D01*
D39*
X164211000Y-99326000D02*
X164211000Y-98591500D01*
X164211000Y-98591500D02*
X163512500Y-97893000D01*
X163512500Y-97893000D02*
X160694500Y-97893000D01*
X160591500Y-97790000D02*
X160528000Y-97790000D01*
X160694500Y-97893000D02*
X160591500Y-97790000D01*
X165671500Y-97843000D02*
X163562500Y-97843000D01*
X163562500Y-97843000D02*
X163512500Y-97893000D01*
D38*
X138799000Y-100457000D02*
X138799000Y-98719000D01*
X138799000Y-98719000D02*
X139202000Y-98316000D01*
X141339000Y-84201000D02*
X141339000Y-85897600D01*
X141339000Y-85897600D02*
X141757400Y-86316000D01*
X146286000Y-98316000D02*
X141742000Y-98316000D01*
X148336000Y-96266000D02*
X146286000Y-98316000D01*
X141757400Y-86316000D02*
X147022000Y-86316000D01*
X139202000Y-98316000D02*
X141742000Y-98316000D01*
X147816000Y-87757000D02*
X147816000Y-89269000D01*
X148590000Y-96012000D02*
X148336000Y-96266000D01*
X148590000Y-90043000D02*
X148590000Y-96012000D01*
X147816000Y-89269000D02*
X148590000Y-90043000D01*
X147816000Y-87110000D02*
X147816000Y-87757000D01*
X147022000Y-86316000D02*
X147816000Y-87110000D01*
D39*
X164667500Y-89281000D02*
X163778500Y-89281000D01*
X163778500Y-89281000D02*
X163385500Y-89674000D01*
D37*
X160845500Y-92583000D02*
X158865000Y-92583000D01*
X158865000Y-92583000D02*
X158420500Y-92138500D01*
X158420500Y-92138500D02*
X158420500Y-93726000D01*
D39*
X163651500Y-92329000D02*
X163512500Y-92329000D01*
X163512500Y-92329000D02*
X163068000Y-91884500D01*
X163385500Y-91567000D02*
X163068000Y-91884500D01*
X164298500Y-91174000D02*
X164667500Y-90805000D01*
X163385500Y-91174000D02*
X163385500Y-91567000D01*
X163068000Y-91884500D02*
X162369500Y-92583000D01*
X163385500Y-91174000D02*
X164298500Y-91174000D01*
X162369500Y-92583000D02*
X160845500Y-92583000D01*
X170053000Y-100699000D02*
X170053000Y-100901500D01*
X170053000Y-100901500D02*
X171132500Y-101981000D01*
X171132500Y-101981000D02*
X172466000Y-101981000D01*
D37*
X182753000Y-102362000D02*
X183515000Y-101600000D01*
X183515000Y-101600000D02*
X183515000Y-101155500D01*
X179895500Y-77406500D02*
X180086000Y-77406500D01*
X180086000Y-77406500D02*
X184023000Y-81343500D01*
X184023000Y-81343500D02*
X184023000Y-100647500D01*
X184023000Y-100647500D02*
X183515000Y-101155500D01*
X171831000Y-75680000D02*
X170180000Y-75680000D01*
X174815500Y-77406500D02*
X173557500Y-77406500D01*
X173557500Y-77406500D02*
X171831000Y-75680000D01*
X179895500Y-77406500D02*
X174815500Y-77406500D01*
D39*
X159509500Y-99842500D02*
X162263000Y-99842500D01*
X162263000Y-99842500D02*
X162306000Y-99885500D01*
D37*
X164846000Y-86856000D02*
X165493000Y-86856000D01*
D39*
X166306500Y-86042500D02*
X166306500Y-85014500D01*
D37*
X165493000Y-86856000D02*
X166306500Y-86042500D01*
X164846000Y-86856000D02*
X164604000Y-86856000D01*
X164604000Y-86856000D02*
X163842000Y-87618000D01*
X163842000Y-87618000D02*
X163258500Y-87618000D01*
X163258500Y-87618000D02*
X163258500Y-87757000D01*
X163258500Y-87757000D02*
X160972500Y-90043000D01*
X160972500Y-90043000D02*
X160845500Y-90043000D01*
X160845500Y-90043000D02*
X158444500Y-90043000D01*
X158444500Y-90043000D02*
X158432500Y-90031000D01*
D44*
X157609500Y-99842500D02*
X157609500Y-100205500D01*
D43*
X157609500Y-100205500D02*
X160020000Y-102616000D01*
X160020000Y-102616000D02*
X165163500Y-102616000D01*
X165163500Y-102616000D02*
X167259000Y-100520500D01*
X167259000Y-100520500D02*
X167259000Y-98564000D01*
X167259000Y-98564000D02*
X168465500Y-97357500D01*
D39*
X169874500Y-97980500D02*
X169874500Y-99020500D01*
X169874500Y-99020500D02*
X170053000Y-99199000D01*
X168465500Y-97357500D02*
X168263000Y-97357500D01*
D37*
X170573000Y-96520000D02*
X169862500Y-96520000D01*
X169862500Y-96520000D02*
X168465500Y-95123000D01*
D39*
X168465500Y-97357500D02*
X169251500Y-97357500D01*
X169251500Y-97357500D02*
X169874500Y-97980500D01*
D37*
X168465500Y-95123000D02*
X168465500Y-97357500D01*
X156920500Y-93726000D02*
X156920500Y-94996000D01*
X156920500Y-94996000D02*
X156908500Y-95008000D01*
D39*
X166306500Y-82867500D02*
X166306500Y-83514500D01*
X166687500Y-82486500D02*
X166306500Y-82867500D01*
X166306500Y-83514500D02*
X166306500Y-83439000D01*
D37*
X171831000Y-69036500D02*
X170180000Y-69036500D01*
X174815500Y-67246500D02*
X173621000Y-67246500D01*
X173621000Y-67246500D02*
X171831000Y-69036500D01*
X179895500Y-67246500D02*
X174815500Y-67246500D01*
X151384000Y-81364000D02*
X152633500Y-81364000D01*
X152633500Y-81364000D02*
X154940000Y-79057500D01*
X154940000Y-79057500D02*
X154940000Y-78994000D01*
X151384000Y-81364000D02*
X151384000Y-83386000D01*
X151384000Y-83386000D02*
X150188000Y-84582000D01*
X150188000Y-84582000D02*
X149107000Y-84582000D01*
X149107000Y-84582000D02*
X147202000Y-82677000D01*
X152043000Y-88011000D02*
X152043000Y-86437000D01*
X152043000Y-86437000D02*
X150188000Y-84582000D01*
D39*
X147202000Y-82677000D02*
X144855500Y-82677000D01*
X144855500Y-82677000D02*
X144399000Y-82220500D01*
D37*
X154940000Y-99326000D02*
X154092000Y-99326000D01*
X154092000Y-99326000D02*
X153088000Y-100330000D01*
X155043000Y-96647000D02*
X155043000Y-99223000D01*
X155043000Y-99223000D02*
X154940000Y-99326000D01*
X154940000Y-85332000D02*
X153838000Y-85332000D01*
X153838000Y-85332000D02*
X153088000Y-84582000D01*
X155043000Y-88011000D02*
X155043000Y-85435000D01*
X155043000Y-85435000D02*
X154940000Y-85332000D01*
X156908500Y-96508000D02*
X157425000Y-96508000D01*
X157425000Y-96508000D02*
X158559500Y-97642500D01*
X156908500Y-96508000D02*
X155182000Y-96508000D01*
X155182000Y-96508000D02*
X155043000Y-96647000D01*
X156920500Y-92138500D02*
X155702000Y-92138500D01*
X155702000Y-92138500D02*
X155892500Y-92138500D01*
X155892500Y-92138500D02*
X155702000Y-92138500D01*
X155043000Y-88011000D02*
X155043000Y-90146000D01*
X155043000Y-94512000D02*
X155043000Y-96647000D01*
X155702000Y-93853000D02*
X155043000Y-94512000D01*
X155702000Y-90805000D02*
X155702000Y-92138500D01*
X155702000Y-92138500D02*
X155702000Y-93853000D01*
X155043000Y-90146000D02*
X155702000Y-90805000D01*
X155055000Y-96659000D02*
X155043000Y-96647000D01*
X152334000Y-103802000D02*
X152334000Y-103947000D01*
X152334000Y-103947000D02*
X154051000Y-105664000D01*
X154051000Y-105664000D02*
X154940000Y-105664000D01*
X150188000Y-100330000D02*
X150188000Y-100531000D01*
X150188000Y-100531000D02*
X152334000Y-102677000D01*
X152334000Y-102677000D02*
X152334000Y-103802000D01*
X150188000Y-100330000D02*
X148844000Y-100330000D01*
X148844000Y-100330000D02*
X147193000Y-101981000D01*
X150188000Y-100330000D02*
X150188000Y-99875000D01*
X150188000Y-99875000D02*
X152043000Y-98020000D01*
X152043000Y-98020000D02*
X152043000Y-96647000D01*
D39*
X145173000Y-101981000D02*
X144589500Y-102564500D01*
X147193000Y-101981000D02*
X145173000Y-101981000D01*
D37*
X152334000Y-79164000D02*
X152334000Y-77912000D01*
X150812500Y-77406500D02*
X149503000Y-76097000D01*
X151828500Y-77406500D02*
X150812500Y-77406500D01*
X152334000Y-77912000D02*
X151828500Y-77406500D01*
X149503000Y-76097000D02*
X149503000Y-75565000D01*
X147202000Y-77597000D02*
X147471000Y-77597000D01*
X147471000Y-77597000D02*
X149503000Y-75565000D01*
D44*
X149503000Y-76097000D02*
X149503000Y-75565000D01*
D39*
X142052000Y-77554000D02*
X139795000Y-77554000D01*
X139795000Y-77554000D02*
X139752000Y-77597000D01*
X147202000Y-77597000D02*
X146812000Y-77597000D01*
X146812000Y-77597000D02*
X145161000Y-79248000D01*
X142052000Y-78425000D02*
X142052000Y-77554000D01*
X142875000Y-79248000D02*
X142052000Y-78425000D01*
X145161000Y-79248000D02*
X142875000Y-79248000D01*
D37*
X147193000Y-107061000D02*
X150325000Y-107061000D01*
X150325000Y-107061000D02*
X151384000Y-106002000D01*
X149312500Y-110236000D02*
X149312500Y-109180500D01*
X149312500Y-109180500D02*
X147193000Y-107061000D01*
D39*
X142875000Y-106977000D02*
X139899500Y-106977000D01*
X139899500Y-106977000D02*
X139815500Y-107061000D01*
X147193000Y-107061000D02*
X142959000Y-107061000D01*
X142959000Y-107061000D02*
X142875000Y-106977000D01*
X164211000Y-100826000D02*
X164211000Y-101866000D01*
X147202000Y-80137000D02*
X147066000Y-80137000D01*
X147066000Y-80137000D02*
X145732500Y-81470500D01*
X145732500Y-81470500D02*
X143256000Y-81470500D01*
D37*
X143256000Y-81470500D02*
X142557500Y-82169000D01*
X142557500Y-82169000D02*
X140970000Y-82169000D01*
X139839000Y-83300000D02*
X139839000Y-84201000D01*
X140970000Y-82169000D02*
X139839000Y-83300000D01*
X139839000Y-84201000D02*
X139839000Y-85694400D01*
X139839000Y-85694400D02*
X139217400Y-86316000D01*
D43*
X143776000Y-87757000D02*
X140208000Y-87757000D01*
X140208000Y-87757000D02*
X139217400Y-86766400D01*
X139217400Y-86766400D02*
X139217400Y-86316000D01*
D38*
X139217400Y-86316000D02*
X136677400Y-86316000D01*
D39*
X147193000Y-104521000D02*
X146685000Y-104521000D01*
X146685000Y-104521000D02*
X145478500Y-103314500D01*
X145478500Y-103314500D02*
X143764000Y-103314500D01*
X143764000Y-103314500D02*
X142430500Y-101981000D01*
X142430500Y-101981000D02*
X142557500Y-101981000D01*
X142557500Y-101981000D02*
X142748000Y-102171500D01*
X142748000Y-102171500D02*
X142748000Y-101981000D01*
D37*
X142748000Y-101981000D02*
X138049000Y-101981000D01*
X138049000Y-101981000D02*
X137299000Y-101231000D01*
D43*
X143776000Y-96901000D02*
X138684000Y-96901000D01*
X138049000Y-97536000D02*
X137442000Y-97536000D01*
X138684000Y-96901000D02*
X138049000Y-97536000D01*
X137442000Y-97536000D02*
X136662000Y-98316000D01*
D37*
X137299000Y-101231000D02*
X137299000Y-100457000D01*
X137299000Y-100457000D02*
X137299000Y-98953000D01*
X137299000Y-98953000D02*
X136662000Y-98316000D01*
X138493500Y-75501500D02*
X138811000Y-75184000D01*
X138811000Y-75184000D02*
X138811000Y-75120500D01*
X138811000Y-75120500D02*
X138938000Y-74993500D01*
X138938000Y-74993500D02*
X142641500Y-74993500D01*
X143573500Y-80264000D02*
X139192000Y-80264000D01*
X139192000Y-80264000D02*
X138493500Y-79565500D01*
X138493500Y-79565500D02*
X138493500Y-79502000D01*
X138493500Y-79502000D02*
X138303000Y-79311500D01*
X138303000Y-79311500D02*
X138303000Y-75692000D01*
X138303000Y-75692000D02*
X138493500Y-75501500D01*
X137402000Y-80391000D02*
X137604500Y-80391000D01*
X137604500Y-80391000D02*
X138493500Y-79502000D01*
X136882000Y-74422000D02*
X137414000Y-74422000D01*
X137414000Y-74422000D02*
X138493500Y-75501500D01*
D39*
X136906000Y-72822500D02*
X136906000Y-74398000D01*
D37*
X136906000Y-74398000D02*
X136882000Y-74422000D01*
D39*
X144399000Y-80720500D02*
X144030000Y-80720500D01*
X144030000Y-80720500D02*
X143573500Y-80264000D01*
X142641500Y-74993500D02*
X143002000Y-75354000D01*
X131445000Y-84240500D02*
X129869500Y-84240500D01*
X129869500Y-84240500D02*
X129845500Y-84264500D01*
D37*
X121750000Y-90975000D02*
X122301000Y-90424000D01*
X120650000Y-90975000D02*
X121750000Y-90975000D01*
D38*
X132905500Y-85090000D02*
X132905500Y-84240500D01*
X133223000Y-85407500D02*
X132905500Y-85090000D01*
X134048500Y-86233000D02*
X134100000Y-86233000D01*
X134100000Y-86233000D02*
X134048500Y-86233000D01*
X134048500Y-86233000D02*
X134100000Y-86233000D01*
D37*
X134048500Y-84240500D02*
X132905500Y-84240500D01*
X132905500Y-84240500D02*
X131445000Y-84240500D01*
X134100000Y-87376000D02*
X134100000Y-86233000D01*
X134100000Y-86233000D02*
X134100000Y-84292000D01*
X134100000Y-84292000D02*
X134048500Y-84240500D01*
D38*
X139202000Y-89037000D02*
X137985500Y-87820500D01*
X137985500Y-87820500D02*
X134544500Y-87820500D01*
X134544500Y-87820500D02*
X134100000Y-87376000D01*
D37*
X118829000Y-97747000D02*
X118237000Y-97155000D01*
X119700000Y-97747000D02*
X118829000Y-97747000D01*
D39*
X129782000Y-103378000D02*
X131421000Y-103378000D01*
D37*
X131421000Y-103378000D02*
X131445000Y-103402000D01*
D38*
X132842000Y-101854000D02*
X132873750Y-101885750D01*
X132873750Y-101885750D02*
X132842000Y-101854000D01*
X132842000Y-101854000D02*
X132842000Y-101917500D01*
X134112000Y-98742500D02*
X134100000Y-98742500D01*
X134100000Y-98742500D02*
X134112000Y-98742500D01*
X134112000Y-98742500D02*
X134100000Y-98742500D01*
D37*
X134112000Y-100417500D02*
X134112000Y-100647500D01*
X134112000Y-100647500D02*
X132842000Y-101917500D01*
X132842000Y-101917500D02*
X131445000Y-103314500D01*
X131445000Y-103314500D02*
X131445000Y-103402000D01*
X134100000Y-97472500D02*
X134100000Y-98742500D01*
X134100000Y-98742500D02*
X134100000Y-100405500D01*
X134100000Y-100405500D02*
X134112000Y-100417500D01*
D43*
X139202000Y-95494000D02*
X137858500Y-96837500D01*
X137858500Y-96837500D02*
X134735000Y-96837500D01*
X134735000Y-96837500D02*
X134100000Y-97472500D01*
D37*
X137465500Y-104203500D02*
X138493500Y-104203500D01*
X138493500Y-104203500D02*
X138632500Y-104064500D01*
X136882000Y-110236000D02*
X137668000Y-110236000D01*
X137668000Y-110236000D02*
X138176000Y-109728000D01*
D39*
X136906000Y-112026000D02*
X136906000Y-110260000D01*
D37*
X136906000Y-110260000D02*
X136882000Y-110236000D01*
D39*
X144589500Y-104064500D02*
X138632500Y-104064500D01*
X138632500Y-104064500D02*
X138176000Y-104521000D01*
D37*
X138176000Y-104521000D02*
X138176000Y-109728000D01*
X141120000Y-109982000D02*
X141925000Y-109177000D01*
X138176000Y-109728000D02*
X138430000Y-109982000D01*
X138430000Y-109982000D02*
X141120000Y-109982000D01*
X129592000Y-97409000D02*
X129592000Y-95821000D01*
X129592000Y-95821000D02*
X130937000Y-94476000D01*
X132588000Y-94476000D02*
X130937000Y-94476000D01*
D39*
X146316000Y-87757000D02*
X146316000Y-89419000D01*
X146316000Y-89419000D02*
X146261000Y-89474000D01*
D37*
X134493000Y-92583000D02*
X132981000Y-92583000D01*
X132981000Y-92583000D02*
X132588000Y-92976000D01*
D39*
X146261000Y-93284000D02*
X146492000Y-93284000D01*
X146492000Y-93284000D02*
X147574000Y-92202000D01*
X147574000Y-90424000D02*
X146624000Y-89474000D01*
X147574000Y-92202000D02*
X147574000Y-90424000D01*
X146624000Y-89474000D02*
X146261000Y-89474000D01*
X134366000Y-92583000D02*
X134493000Y-92583000D01*
X134493000Y-92583000D02*
X135636000Y-92583000D01*
X145433000Y-92456000D02*
X146261000Y-93284000D01*
X142621000Y-92456000D02*
X145433000Y-92456000D01*
X142113000Y-91948000D02*
X142621000Y-92456000D01*
X139700000Y-91948000D02*
X142113000Y-91948000D01*
X138811000Y-92837000D02*
X139700000Y-91948000D01*
X135890000Y-92837000D02*
X138811000Y-92837000D01*
X135636000Y-92583000D02*
X135890000Y-92837000D01*
D42*
X134366000Y-92976000D02*
X134366000Y-92583000D01*
X134366000Y-92583000D02*
X134366000Y-91936000D01*
D39*
X138164000Y-91567000D02*
X138811000Y-91567000D01*
X143002000Y-91694000D02*
X145941000Y-91694000D01*
X142494000Y-91186000D02*
X143002000Y-91694000D01*
X139192000Y-91186000D02*
X142494000Y-91186000D01*
X138811000Y-91567000D02*
X139192000Y-91186000D01*
X145941000Y-91694000D02*
X146261000Y-91374000D01*
D44*
X145161000Y-93345000D02*
X145034000Y-93218000D01*
D39*
X141720000Y-93218000D02*
X145034000Y-93218000D01*
D44*
X145161000Y-94310200D02*
X146034800Y-95184000D01*
X145161000Y-93345000D02*
X145161000Y-94310200D01*
X146034800Y-95184000D02*
X146261000Y-95184000D01*
D43*
X145276000Y-96901000D02*
X145276000Y-96508000D01*
X145276000Y-96508000D02*
X144084000Y-95316000D01*
X144084000Y-95316000D02*
X141742000Y-95316000D01*
D42*
X141742000Y-95316000D02*
X142979000Y-95316000D01*
X142979000Y-95316000D02*
X144061000Y-94234000D01*
D39*
X171005500Y-93460000D02*
X170422000Y-93460000D01*
X170422000Y-93460000D02*
X169545000Y-92583000D01*
X169545000Y-92583000D02*
X168465500Y-92583000D01*
D37*
X154940000Y-81534000D02*
X154940000Y-83832000D01*
X154940000Y-100826000D02*
X154940000Y-103124000D01*
D38*
G36*
X171771371Y-64717511D02*
X171371792Y-65302314D01*
X171231216Y-65996500D01*
X171231216Y-66666436D01*
X170961152Y-66936500D01*
X170180000Y-66936500D01*
X169849623Y-67002216D01*
X169730000Y-67002216D01*
X169081489Y-67124242D01*
X168521511Y-67484577D01*
X168170886Y-66635999D01*
X167187179Y-65650575D01*
X165901247Y-65116609D01*
X164508861Y-65115394D01*
X163221999Y-65647114D01*
X162236575Y-66630821D01*
X161702609Y-67916753D01*
X161701394Y-69309139D01*
X162233114Y-70596001D01*
X163216821Y-71581425D01*
X164502753Y-72115391D01*
X165895139Y-72116606D01*
X167182001Y-71584886D01*
X168167425Y-70601179D01*
X168296455Y-70290441D01*
X168451011Y-70530629D01*
X168980000Y-70892072D01*
X168980000Y-70935684D01*
X169094181Y-71211341D01*
X169104500Y-71221660D01*
X169104500Y-73494840D01*
X169094181Y-73505159D01*
X168980000Y-73780816D01*
X168980000Y-73833048D01*
X168485871Y-74151011D01*
X168086292Y-74735814D01*
X167945716Y-75430000D01*
X167945716Y-75930000D01*
X168067742Y-76578511D01*
X168451011Y-77174129D01*
X169035814Y-77573708D01*
X169730000Y-77714284D01*
X169849623Y-77714284D01*
X170180000Y-77780000D01*
X170961152Y-77780000D01*
X171346993Y-78165841D01*
X171424312Y-78554550D01*
X172074631Y-79527820D01*
X173047901Y-80178139D01*
X174195951Y-80406500D01*
X175435049Y-80406500D01*
X176583099Y-80178139D01*
X177355500Y-79662037D01*
X178127901Y-80178139D01*
X179275951Y-80406500D01*
X180116152Y-80406500D01*
X181923000Y-82213348D01*
X181923000Y-85864298D01*
X181739210Y-85765344D01*
X180255553Y-87249000D01*
X181739210Y-88732656D01*
X181923000Y-88633702D01*
X181923000Y-96024298D01*
X181739210Y-95925344D01*
X180255553Y-97409000D01*
X181739210Y-98892656D01*
X181923000Y-98793702D01*
X181923000Y-99830826D01*
X181617098Y-100288642D01*
X181423571Y-100368605D01*
X180761929Y-101029094D01*
X180403409Y-101892505D01*
X180402593Y-102827393D01*
X180759605Y-103691429D01*
X181420094Y-104353071D01*
X182283505Y-104711591D01*
X183218393Y-104712407D01*
X184082429Y-104355395D01*
X184744071Y-103694906D01*
X184995536Y-103089312D01*
X184999924Y-103084924D01*
X185455147Y-102403635D01*
X185509590Y-102129932D01*
X185963147Y-101451136D01*
X185997586Y-101278000D01*
X186123000Y-100647500D01*
X186123000Y-81343500D01*
X185963147Y-80539865D01*
X185507924Y-79858576D01*
X183438863Y-77789515D01*
X183515049Y-77406500D01*
X183286688Y-76258450D01*
X182636369Y-75285180D01*
X181663099Y-74634861D01*
X180515049Y-74406500D01*
X179275951Y-74406500D01*
X178127901Y-74634861D01*
X177355500Y-75150963D01*
X176583099Y-74634861D01*
X175435049Y-74406500D01*
X174195951Y-74406500D01*
X173777094Y-74489816D01*
X173578622Y-74181382D01*
X174015500Y-74326500D01*
X174565500Y-74326500D01*
X174565500Y-72576500D01*
X175065500Y-72576500D01*
X175065500Y-74326500D01*
X175615500Y-74326500D01*
X176361837Y-74078588D01*
X176956490Y-73563937D01*
X177286274Y-72883837D01*
X177424726Y-72883837D01*
X177754510Y-73563937D01*
X178349163Y-74078588D01*
X179095500Y-74326500D01*
X179645500Y-74326500D01*
X179645500Y-72576500D01*
X180145500Y-72576500D01*
X180145500Y-74326500D01*
X180695500Y-74326500D01*
X181441837Y-74078588D01*
X182036490Y-73563937D01*
X182366274Y-72883837D01*
X182240676Y-72576500D01*
X180145500Y-72576500D01*
X179645500Y-72576500D01*
X177550324Y-72576500D01*
X177424726Y-72883837D01*
X177286274Y-72883837D01*
X177160676Y-72576500D01*
X175065500Y-72576500D01*
X174565500Y-72576500D01*
X174545500Y-72576500D01*
X174545500Y-72076500D01*
X174565500Y-72076500D01*
X174565500Y-70326500D01*
X175065500Y-70326500D01*
X175065500Y-72076500D01*
X177160676Y-72076500D01*
X177286274Y-71769163D01*
X177424726Y-71769163D01*
X177550324Y-72076500D01*
X179645500Y-72076500D01*
X179645500Y-70326500D01*
X180145500Y-70326500D01*
X180145500Y-72076500D01*
X182240676Y-72076500D01*
X182366274Y-71769163D01*
X182036490Y-71089063D01*
X181441837Y-70574412D01*
X180695500Y-70326500D01*
X180145500Y-70326500D01*
X179645500Y-70326500D01*
X179095500Y-70326500D01*
X178349163Y-70574412D01*
X177754510Y-71089063D01*
X177424726Y-71769163D01*
X177286274Y-71769163D01*
X176956490Y-71089063D01*
X176361837Y-70574412D01*
X175615500Y-70326500D01*
X175065500Y-70326500D01*
X174565500Y-70326500D01*
X174015500Y-70326500D01*
X173627956Y-70455231D01*
X173747150Y-70280784D01*
X176615500Y-70280784D01*
X177264011Y-70158758D01*
X177348703Y-70104260D01*
X177401314Y-70140208D01*
X178095500Y-70280784D01*
X181695500Y-70280784D01*
X182344011Y-70158758D01*
X182939629Y-69775489D01*
X183339208Y-69190686D01*
X183479784Y-68496500D01*
X183479784Y-65996500D01*
X183357758Y-65347989D01*
X182974489Y-64752371D01*
X182436824Y-64385000D01*
X186948000Y-64385000D01*
X186948000Y-119892000D01*
X118066438Y-119892000D01*
X118312450Y-119580004D01*
X115202000Y-116469553D01*
X112091550Y-119580004D01*
X112337562Y-119892000D01*
X103945500Y-119892000D01*
X103945500Y-115230010D01*
X110440673Y-115230010D01*
X110464054Y-117119533D01*
X111142161Y-118756629D01*
X111737996Y-119226450D01*
X114848447Y-116116000D01*
X115555553Y-116116000D01*
X118666004Y-119226450D01*
X119261839Y-118756629D01*
X119963327Y-117001990D01*
X119960941Y-116809139D01*
X141701394Y-116809139D01*
X142233114Y-118096001D01*
X143216821Y-119081425D01*
X144502753Y-119615391D01*
X145895139Y-119616606D01*
X147182001Y-119084886D01*
X148167425Y-118101179D01*
X148701391Y-116815247D01*
X148701396Y-116809139D01*
X161701394Y-116809139D01*
X162233114Y-118096001D01*
X163216821Y-119081425D01*
X164502753Y-119615391D01*
X165895139Y-119616606D01*
X167182001Y-119084886D01*
X168167425Y-118101179D01*
X168701391Y-116815247D01*
X168702606Y-115422861D01*
X168170886Y-114135999D01*
X167187179Y-113150575D01*
X165901247Y-112616609D01*
X164508861Y-112615394D01*
X163221999Y-113147114D01*
X162236575Y-114130821D01*
X161702609Y-115416753D01*
X161701394Y-116809139D01*
X148701396Y-116809139D01*
X148702606Y-115422861D01*
X148170886Y-114135999D01*
X147187179Y-113150575D01*
X145901247Y-112616609D01*
X144508861Y-112615394D01*
X143221999Y-113147114D01*
X142236575Y-114130821D01*
X141702609Y-115416753D01*
X141701394Y-116809139D01*
X119960941Y-116809139D01*
X119939946Y-115112467D01*
X119261839Y-113475371D01*
X118666004Y-113005550D01*
X115555553Y-116116000D01*
X114848447Y-116116000D01*
X111737996Y-113005550D01*
X111142161Y-113475371D01*
X110440673Y-115230010D01*
X103945500Y-115230010D01*
X103945500Y-112651996D01*
X112091550Y-112651996D01*
X115202000Y-115762447D01*
X118312450Y-112651996D01*
X117842629Y-112056161D01*
X116087990Y-111354673D01*
X114198467Y-111378054D01*
X112561371Y-112056161D01*
X112091550Y-112651996D01*
X103945500Y-112651996D01*
X103945500Y-103168848D01*
X105703076Y-104926424D01*
X106384365Y-105381647D01*
X107188000Y-105541500D01*
X111959424Y-105541500D01*
X112560505Y-105791091D01*
X113495393Y-105791907D01*
X114359429Y-105434895D01*
X115021071Y-104774406D01*
X115379591Y-103910995D01*
X115380407Y-102976107D01*
X115023395Y-102112071D01*
X114362906Y-101450429D01*
X113499495Y-101091909D01*
X112564607Y-101091093D01*
X111958575Y-101341500D01*
X108057848Y-101341500D01*
X106938500Y-100222152D01*
X106938500Y-99051827D01*
X109699726Y-99051827D01*
X109863859Y-99387843D01*
X110712740Y-99671771D01*
X111605658Y-99609234D01*
X112140141Y-99387843D01*
X112304274Y-99051827D01*
X111002000Y-97749553D01*
X109699726Y-99051827D01*
X106938500Y-99051827D01*
X106938500Y-97106740D01*
X108726229Y-97106740D01*
X108788766Y-97999658D01*
X109010157Y-98534141D01*
X109346173Y-98698274D01*
X110648447Y-97396000D01*
X111355553Y-97396000D01*
X112657827Y-98698274D01*
X112993843Y-98534141D01*
X113277771Y-97685260D01*
X113215234Y-96792342D01*
X112993843Y-96257859D01*
X112657827Y-96093726D01*
X111355553Y-97396000D01*
X110648447Y-97396000D01*
X109346173Y-96093726D01*
X109010157Y-96257859D01*
X108726229Y-97106740D01*
X106938500Y-97106740D01*
X106938500Y-95740173D01*
X109699726Y-95740173D01*
X111002000Y-97042447D01*
X112304274Y-95740173D01*
X112140141Y-95404157D01*
X111291260Y-95120229D01*
X110398342Y-95182766D01*
X109863859Y-95404157D01*
X109699726Y-95740173D01*
X106938500Y-95740173D01*
X106938500Y-93009139D01*
X112581394Y-93009139D01*
X113113114Y-94296001D01*
X114096821Y-95281425D01*
X115382753Y-95815391D01*
X116251884Y-95816149D01*
X116245929Y-95822094D01*
X115887409Y-96685505D01*
X115886593Y-97620393D01*
X116243605Y-98484429D01*
X116904094Y-99146071D01*
X117726942Y-99487748D01*
X117837806Y-99561825D01*
X117921011Y-99691129D01*
X118505814Y-100090708D01*
X119200000Y-100231284D01*
X120200000Y-100231284D01*
X120666520Y-100143502D01*
X121100000Y-100231284D01*
X121598954Y-100231284D01*
X121613011Y-100253129D01*
X122197814Y-100652708D01*
X122892000Y-100793284D01*
X123892000Y-100793284D01*
X124540511Y-100671258D01*
X125136129Y-100287989D01*
X125535708Y-99703186D01*
X125676284Y-99009000D01*
X125676284Y-95809000D01*
X125609013Y-95451485D01*
X125973736Y-95587292D01*
X127265817Y-95540438D01*
X127370917Y-95496904D01*
X127307716Y-95809000D01*
X127307716Y-99009000D01*
X127429742Y-99657511D01*
X127813011Y-100253129D01*
X128397814Y-100652708D01*
X129092000Y-100793284D01*
X130092000Y-100793284D01*
X130740511Y-100671258D01*
X130806101Y-100629052D01*
X130599646Y-101126250D01*
X130260696Y-101190028D01*
X130032000Y-101143716D01*
X129532000Y-101143716D01*
X129013645Y-101241251D01*
X128532000Y-101143716D01*
X128032000Y-101143716D01*
X127383489Y-101265742D01*
X127131332Y-101428000D01*
X126936500Y-101428000D01*
X126190267Y-101576435D01*
X125617517Y-101959135D01*
X125557642Y-101999142D01*
X125113142Y-102443642D01*
X124690435Y-103076267D01*
X124542000Y-103822500D01*
X124542000Y-104516500D01*
X121365501Y-104516500D01*
X120611495Y-104203409D01*
X119676607Y-104202593D01*
X118812571Y-104559605D01*
X118150929Y-105220094D01*
X117792409Y-106083505D01*
X117791593Y-107018393D01*
X118148605Y-107882429D01*
X118809094Y-108544071D01*
X119672505Y-108902591D01*
X120607393Y-108903407D01*
X121059743Y-108716500D01*
X125834284Y-108716500D01*
X132022642Y-114904858D01*
X132655268Y-115327566D01*
X133401500Y-115476000D01*
X136039793Y-115476000D01*
X136456000Y-115560284D01*
X137356000Y-115560284D01*
X138004511Y-115438258D01*
X138600129Y-115054989D01*
X138999708Y-114470186D01*
X139140284Y-113776000D01*
X139140284Y-113276000D01*
X139042749Y-112757645D01*
X139140284Y-112276000D01*
X139140284Y-112082000D01*
X141120000Y-112082000D01*
X141923635Y-111922147D01*
X142314044Y-111661284D01*
X142425000Y-111661284D01*
X142891520Y-111573502D01*
X143325000Y-111661284D01*
X144325000Y-111661284D01*
X144973511Y-111539258D01*
X145569129Y-111155989D01*
X145968708Y-110571186D01*
X146109284Y-109877000D01*
X146109284Y-109514689D01*
X146178889Y-109561198D01*
X146858541Y-109696389D01*
X147028216Y-109866064D01*
X147028216Y-111036000D01*
X147150242Y-111684511D01*
X147533511Y-112280129D01*
X148118314Y-112679708D01*
X148812500Y-112820284D01*
X149812500Y-112820284D01*
X150461011Y-112698258D01*
X151056629Y-112314989D01*
X151456208Y-111730186D01*
X151461808Y-111702533D01*
X151663316Y-111786000D01*
X151875000Y-111786000D01*
X152062500Y-111598500D01*
X152062500Y-110486000D01*
X152562500Y-110486000D01*
X152562500Y-111598500D01*
X152750000Y-111786000D01*
X152961684Y-111786000D01*
X153237341Y-111671819D01*
X153448319Y-111460841D01*
X153562500Y-111185185D01*
X153562500Y-110673500D01*
X153375000Y-110486000D01*
X152562500Y-110486000D01*
X152062500Y-110486000D01*
X152042500Y-110486000D01*
X152042500Y-109986000D01*
X152062500Y-109986000D01*
X152062500Y-108873500D01*
X152562500Y-108873500D01*
X152562500Y-109986000D01*
X153375000Y-109986000D01*
X153562500Y-109798500D01*
X153562500Y-109286815D01*
X153448319Y-109011159D01*
X153237341Y-108800181D01*
X152961684Y-108686000D01*
X152750000Y-108686000D01*
X152562500Y-108873500D01*
X152062500Y-108873500D01*
X151875000Y-108686000D01*
X151663316Y-108686000D01*
X151497484Y-108754690D01*
X151809924Y-108545924D01*
X151869564Y-108486284D01*
X151884000Y-108486284D01*
X152532511Y-108364258D01*
X153128129Y-107980989D01*
X153348493Y-107658476D01*
X153964157Y-108069850D01*
X154940000Y-108263957D01*
X155915843Y-108069850D01*
X156743122Y-107517079D01*
X157295893Y-106689800D01*
X157490000Y-105713957D01*
X157490000Y-105614043D01*
X157312610Y-104722242D01*
X157383708Y-104618186D01*
X157524284Y-103924000D01*
X157524284Y-102807290D01*
X158676497Y-103959503D01*
X159292902Y-104371372D01*
X160020000Y-104516000D01*
X165163500Y-104516000D01*
X165890599Y-104371371D01*
X166507003Y-103959503D01*
X168304186Y-102162320D01*
X168324011Y-102193129D01*
X168908814Y-102592708D01*
X169006216Y-102612432D01*
X169753642Y-103359859D01*
X170386268Y-103782566D01*
X171082084Y-103920972D01*
X171133094Y-103972071D01*
X171996505Y-104330591D01*
X172931393Y-104331407D01*
X173795429Y-103974395D01*
X174457071Y-103313906D01*
X174815591Y-102450495D01*
X174816407Y-101515607D01*
X174459395Y-100651571D01*
X173798906Y-99989929D01*
X172935495Y-99631409D01*
X172250466Y-99630811D01*
X172287284Y-99449000D01*
X172287284Y-99246210D01*
X178418344Y-99246210D01*
X178613226Y-99608171D01*
X179552914Y-99933962D01*
X180545748Y-99875351D01*
X181190774Y-99608171D01*
X181385656Y-99246210D01*
X179902000Y-97762553D01*
X178418344Y-99246210D01*
X172287284Y-99246210D01*
X172287284Y-98949000D01*
X172280059Y-98910601D01*
X172410319Y-98780341D01*
X172524500Y-98504685D01*
X172524500Y-98355500D01*
X172337000Y-98168000D01*
X172221221Y-98168000D01*
X172578572Y-97645000D01*
X172622184Y-97645000D01*
X172897841Y-97530819D01*
X173108819Y-97319841D01*
X173216484Y-97059914D01*
X177377038Y-97059914D01*
X177435649Y-98052748D01*
X177702829Y-98697774D01*
X178064790Y-98892656D01*
X179548447Y-97409000D01*
X178064790Y-95925344D01*
X177702829Y-96120226D01*
X177377038Y-97059914D01*
X173216484Y-97059914D01*
X173223000Y-97044185D01*
X173223000Y-96895000D01*
X173035500Y-96707500D01*
X172757284Y-96707500D01*
X172757284Y-96332500D01*
X173035500Y-96332500D01*
X173223000Y-96145000D01*
X173223000Y-95995815D01*
X173108819Y-95720159D01*
X172897841Y-95509181D01*
X172622184Y-95395000D01*
X172569952Y-95395000D01*
X172423166Y-95166888D01*
X172699629Y-94988989D01*
X172800746Y-94841000D01*
X173033502Y-94841000D01*
X173033502Y-94783725D01*
X173120418Y-94870793D01*
X173320897Y-94954039D01*
X173370869Y-95351953D01*
X173454396Y-95553605D01*
X173712979Y-95624468D01*
X174071662Y-95265785D01*
X174222645Y-95328478D01*
X174715645Y-95328908D01*
X174066532Y-95978021D01*
X174137395Y-96236604D01*
X174712867Y-96394488D01*
X175304953Y-96320131D01*
X175506605Y-96236604D01*
X175577468Y-95978021D01*
X174928541Y-95329094D01*
X175416119Y-95329519D01*
X175571762Y-95265209D01*
X175931021Y-95624468D01*
X176123245Y-95571790D01*
X178418344Y-95571790D01*
X179902000Y-97055447D01*
X181385656Y-95571790D01*
X181190774Y-95209829D01*
X180251086Y-94884038D01*
X179258252Y-94942649D01*
X178613226Y-95209829D01*
X178418344Y-95571790D01*
X176123245Y-95571790D01*
X176189604Y-95553605D01*
X176347488Y-94978133D01*
X176343495Y-94946335D01*
X176519143Y-94873759D01*
X177363793Y-94030582D01*
X177821478Y-92928355D01*
X177822519Y-91734881D01*
X177366759Y-90631857D01*
X176523582Y-89787207D01*
X175421355Y-89329522D01*
X174227881Y-89328481D01*
X173136500Y-89779430D01*
X173136500Y-89665998D01*
X172974002Y-89665998D01*
X173136500Y-89503500D01*
X173136500Y-89418160D01*
X173299319Y-89255341D01*
X173369375Y-89086210D01*
X178418344Y-89086210D01*
X178613226Y-89448171D01*
X179552914Y-89773962D01*
X180545748Y-89715351D01*
X181190774Y-89448171D01*
X181385656Y-89086210D01*
X179902000Y-87602553D01*
X178418344Y-89086210D01*
X173369375Y-89086210D01*
X173413500Y-88979685D01*
X173413500Y-88830500D01*
X173226000Y-88643000D01*
X172947784Y-88643000D01*
X172947784Y-88268000D01*
X173226000Y-88268000D01*
X173413500Y-88080500D01*
X173413500Y-87931315D01*
X173299319Y-87655659D01*
X173088341Y-87444681D01*
X172812684Y-87330500D01*
X172760452Y-87330500D01*
X172483378Y-86899914D01*
X177377038Y-86899914D01*
X177435649Y-87892748D01*
X177702829Y-88537774D01*
X178064790Y-88732656D01*
X179548447Y-87249000D01*
X178064790Y-85765344D01*
X177702829Y-85960226D01*
X177377038Y-86899914D01*
X172483378Y-86899914D01*
X172442489Y-86836371D01*
X171857686Y-86436792D01*
X171381551Y-86340372D01*
X171327758Y-86054489D01*
X170944489Y-85458871D01*
X170875584Y-85411790D01*
X178418344Y-85411790D01*
X179902000Y-86895447D01*
X181385656Y-85411790D01*
X181190774Y-85049829D01*
X180251086Y-84724038D01*
X179258252Y-84782649D01*
X178613226Y-85049829D01*
X178418344Y-85411790D01*
X170875584Y-85411790D01*
X170359686Y-85059292D01*
X169665500Y-84918716D01*
X168540784Y-84918716D01*
X168540784Y-84764500D01*
X168443249Y-84246145D01*
X168491937Y-84005715D01*
X168678571Y-83819406D01*
X169037091Y-82955995D01*
X169037907Y-82021107D01*
X168680895Y-81157071D01*
X168020406Y-80495429D01*
X167156995Y-80136909D01*
X166222107Y-80136093D01*
X165358071Y-80493105D01*
X164696429Y-81153594D01*
X164337909Y-82017005D01*
X164337585Y-82387673D01*
X164212792Y-82570314D01*
X164072216Y-83264500D01*
X164072216Y-83764500D01*
X164167331Y-84269990D01*
X164046159Y-84320181D01*
X163835181Y-84531159D01*
X163721000Y-84806816D01*
X163721000Y-84859048D01*
X163226871Y-85177011D01*
X163071000Y-85405136D01*
X163071000Y-85155500D01*
X162883500Y-84968000D01*
X162734315Y-84968000D01*
X162458659Y-85082181D01*
X162347832Y-85193008D01*
X162279137Y-85147107D01*
X161303294Y-84953000D01*
X160387706Y-84953000D01*
X159411863Y-85147107D01*
X158584584Y-85699878D01*
X158031813Y-86527157D01*
X157857812Y-87401919D01*
X157632659Y-87495181D01*
X157421681Y-87706159D01*
X157327284Y-87934053D01*
X157327284Y-87211000D01*
X157205258Y-86562489D01*
X157143000Y-86465737D01*
X157143000Y-85736485D01*
X157174284Y-85582000D01*
X157174284Y-85082000D01*
X157076749Y-84563645D01*
X157174284Y-84082000D01*
X157174284Y-83582000D01*
X157052258Y-82933489D01*
X157049287Y-82928872D01*
X157295893Y-82559800D01*
X157490000Y-81583957D01*
X157490000Y-81484043D01*
X157312610Y-80592242D01*
X157383708Y-80488186D01*
X157524284Y-79794000D01*
X157524284Y-78194000D01*
X157402258Y-77545489D01*
X157018989Y-76949871D01*
X156434186Y-76550292D01*
X155740000Y-76409716D01*
X154140000Y-76409716D01*
X153844479Y-76465322D01*
X153818924Y-76427076D01*
X153753000Y-76361152D01*
X153753000Y-76002500D01*
X153565500Y-75815000D01*
X153153922Y-75815000D01*
X152632135Y-75466353D01*
X152233000Y-75386960D01*
X152233000Y-75315000D01*
X152253000Y-75315000D01*
X152253000Y-74202500D01*
X152753000Y-74202500D01*
X152753000Y-75315000D01*
X153565500Y-75315000D01*
X153753000Y-75127500D01*
X153753000Y-74615815D01*
X153638819Y-74340159D01*
X153427841Y-74129181D01*
X153152184Y-74015000D01*
X152940500Y-74015000D01*
X152753000Y-74202500D01*
X152253000Y-74202500D01*
X152065500Y-74015000D01*
X151853816Y-74015000D01*
X151653377Y-74098025D01*
X151281989Y-73520871D01*
X150697186Y-73121292D01*
X150003000Y-72980716D01*
X149003000Y-72980716D01*
X148354489Y-73102742D01*
X147758871Y-73486011D01*
X147359292Y-74070814D01*
X147218716Y-74765000D01*
X147218716Y-74879436D01*
X147202892Y-74895260D01*
X147202000Y-74895083D01*
X146187889Y-75096802D01*
X145577244Y-75504822D01*
X145286284Y-75306017D01*
X145286284Y-74654000D01*
X145164258Y-74005489D01*
X144780989Y-73409871D01*
X144196186Y-73010292D01*
X143502000Y-72869716D01*
X142502000Y-72869716D01*
X142375599Y-72893500D01*
X139140284Y-72893500D01*
X139140284Y-72572500D01*
X139042749Y-72054145D01*
X139140284Y-71572500D01*
X139140284Y-71072500D01*
X139018258Y-70423989D01*
X138634989Y-69828371D01*
X138050186Y-69428792D01*
X137546828Y-69326860D01*
X137529138Y-69309139D01*
X141701394Y-69309139D01*
X142233114Y-70596001D01*
X143216821Y-71581425D01*
X144502753Y-72115391D01*
X145895139Y-72116606D01*
X147182001Y-71584886D01*
X148167425Y-70601179D01*
X148701391Y-69315247D01*
X148702606Y-67922861D01*
X148170886Y-66635999D01*
X147187179Y-65650575D01*
X145901247Y-65116609D01*
X144508861Y-65115394D01*
X143221999Y-65647114D01*
X142236575Y-66630821D01*
X141702609Y-67916753D01*
X141701394Y-69309139D01*
X137529138Y-69309139D01*
X136968906Y-68747929D01*
X136105495Y-68389409D01*
X135170607Y-68388593D01*
X134306571Y-68745605D01*
X133644929Y-69406094D01*
X133286409Y-70269505D01*
X133285593Y-71204393D01*
X133642605Y-72068429D01*
X134303094Y-72730071D01*
X134671716Y-72883136D01*
X134671716Y-72930210D01*
X134531184Y-72872000D01*
X134319500Y-72872000D01*
X134132000Y-73059500D01*
X134132000Y-74172000D01*
X134152000Y-74172000D01*
X134152000Y-74672000D01*
X134132000Y-74672000D01*
X134132000Y-74692000D01*
X133632000Y-74692000D01*
X133632000Y-74672000D01*
X132819500Y-74672000D01*
X132632000Y-74859500D01*
X132632000Y-75359176D01*
X132627159Y-75361181D01*
X132416181Y-75572159D01*
X132302000Y-75847815D01*
X132302000Y-77159500D01*
X132489500Y-77347000D01*
X133302000Y-77347000D01*
X133302000Y-77327000D01*
X133802000Y-77327000D01*
X133802000Y-77347000D01*
X134614500Y-77347000D01*
X134802000Y-77159500D01*
X134802000Y-75998344D01*
X135103011Y-76466129D01*
X135687814Y-76865708D01*
X136203000Y-76970036D01*
X136203000Y-78450579D01*
X135757871Y-78737011D01*
X135396428Y-79266000D01*
X135352816Y-79266000D01*
X135077159Y-79380181D01*
X134866181Y-79591159D01*
X134752000Y-79866815D01*
X134752000Y-79990500D01*
X134486000Y-79990500D01*
X134298500Y-80178000D01*
X134298500Y-80990500D01*
X134318500Y-80990500D01*
X134318500Y-81490500D01*
X134298500Y-81490500D01*
X134298500Y-81510500D01*
X133798500Y-81510500D01*
X133798500Y-81490500D01*
X131695000Y-81490500D01*
X131695000Y-81510500D01*
X131195000Y-81510500D01*
X131195000Y-81490500D01*
X130082500Y-81490500D01*
X129895000Y-81678000D01*
X129895000Y-81889684D01*
X129953210Y-82030216D01*
X129595500Y-82030216D01*
X129201166Y-82104415D01*
X128993395Y-81601571D01*
X128332906Y-80939929D01*
X127493354Y-80591316D01*
X129895000Y-80591316D01*
X129895000Y-80803000D01*
X130082500Y-80990500D01*
X131195000Y-80990500D01*
X131195000Y-80178000D01*
X131695000Y-80178000D01*
X131695000Y-80990500D01*
X133798500Y-80990500D01*
X133798500Y-80178000D01*
X133611000Y-79990500D01*
X133099315Y-79990500D01*
X132823659Y-80104681D01*
X132746750Y-80181590D01*
X132669841Y-80104681D01*
X132394185Y-79990500D01*
X131882500Y-79990500D01*
X131695000Y-80178000D01*
X131195000Y-80178000D01*
X131007500Y-79990500D01*
X130495815Y-79990500D01*
X130220159Y-80104681D01*
X130009181Y-80315659D01*
X129895000Y-80591316D01*
X127493354Y-80591316D01*
X127469495Y-80581409D01*
X126534607Y-80580593D01*
X125670571Y-80937605D01*
X125008929Y-81598094D01*
X124650409Y-82461505D01*
X124649593Y-83396393D01*
X125006605Y-84260429D01*
X125667094Y-84922071D01*
X126408176Y-85229795D01*
X126433242Y-85363011D01*
X126816511Y-85958629D01*
X127401314Y-86358208D01*
X128095500Y-86498784D01*
X128595500Y-86498784D01*
X129113855Y-86401249D01*
X129595500Y-86498784D01*
X130095500Y-86498784D01*
X130313783Y-86457711D01*
X130645000Y-86524784D01*
X131141949Y-86524784D01*
X131229605Y-86736929D01*
X131450000Y-86957709D01*
X131450000Y-87001000D01*
X131637500Y-87188500D01*
X131680389Y-87188500D01*
X131890094Y-87398571D01*
X131915716Y-87409210D01*
X131915716Y-87563500D01*
X131637500Y-87563500D01*
X131450000Y-87751000D01*
X131450000Y-87900185D01*
X131564181Y-88175841D01*
X131775159Y-88386819D01*
X132050816Y-88501000D01*
X132103048Y-88501000D01*
X132421011Y-88995129D01*
X132550984Y-89083936D01*
X132272292Y-89491814D01*
X132131716Y-90186000D01*
X132131716Y-90356990D01*
X132116000Y-90436000D01*
X132131716Y-90515010D01*
X132131716Y-90673355D01*
X131570185Y-91048558D01*
X131489489Y-91063742D01*
X130893871Y-91447011D01*
X130605320Y-91869320D01*
X130562000Y-91826000D01*
X130412815Y-91826000D01*
X130137159Y-91940181D01*
X129926181Y-92151159D01*
X129812000Y-92426816D01*
X129812000Y-92479048D01*
X129761233Y-92511716D01*
X129726438Y-91552183D01*
X129322122Y-90576078D01*
X128882234Y-90289320D01*
X126855553Y-92316000D01*
X126869696Y-92330142D01*
X126516142Y-92683696D01*
X126502000Y-92669553D01*
X126487858Y-92683696D01*
X126134304Y-92330142D01*
X126148447Y-92316000D01*
X126134305Y-92301858D01*
X126487858Y-91948304D01*
X126502000Y-91962447D01*
X128528680Y-89935766D01*
X128241922Y-89495878D01*
X127030264Y-89044708D01*
X125738183Y-89091562D01*
X124762078Y-89495878D01*
X124577319Y-89779300D01*
X124294395Y-89094571D01*
X123633906Y-88432929D01*
X122770495Y-88074409D01*
X121835607Y-88073593D01*
X120971571Y-88430605D01*
X120911355Y-88490716D01*
X120150000Y-88490716D01*
X119501489Y-88612742D01*
X118905871Y-88996011D01*
X118506292Y-89580814D01*
X118470998Y-89755099D01*
X118067179Y-89350575D01*
X117450975Y-89094704D01*
X117449604Y-89091395D01*
X117430196Y-89086076D01*
X116781247Y-88816609D01*
X116687919Y-88816528D01*
X116837468Y-88666979D01*
X116766605Y-88408396D01*
X116191133Y-88250512D01*
X115599047Y-88324869D01*
X115397395Y-88408396D01*
X115326532Y-88666979D01*
X115475022Y-88815469D01*
X115388861Y-88815394D01*
X114733670Y-89086113D01*
X114714396Y-89091395D01*
X114713566Y-89094420D01*
X114101999Y-89347114D01*
X113116575Y-90330821D01*
X112582609Y-91616753D01*
X112581394Y-93009139D01*
X106938500Y-93009139D01*
X106938500Y-88891827D01*
X109699726Y-88891827D01*
X109863859Y-89227843D01*
X110712740Y-89511771D01*
X111605658Y-89449234D01*
X112140141Y-89227843D01*
X112304274Y-88891827D01*
X111002000Y-87589553D01*
X109699726Y-88891827D01*
X106938500Y-88891827D01*
X106938500Y-86946740D01*
X108726229Y-86946740D01*
X108788766Y-87839658D01*
X109010157Y-88374141D01*
X109346173Y-88538274D01*
X110648447Y-87236000D01*
X111355553Y-87236000D01*
X112657827Y-88538274D01*
X112993843Y-88374141D01*
X113277771Y-87525260D01*
X113215234Y-86632342D01*
X112993843Y-86097859D01*
X112657827Y-85933726D01*
X111355553Y-87236000D01*
X110648447Y-87236000D01*
X109346173Y-85933726D01*
X109010157Y-86097859D01*
X108726229Y-86946740D01*
X106938500Y-86946740D01*
X106938500Y-85580173D01*
X109699726Y-85580173D01*
X111002000Y-86882447D01*
X112304274Y-85580173D01*
X112140141Y-85244157D01*
X111291260Y-84960229D01*
X110398342Y-85022766D01*
X109863859Y-85244157D01*
X109699726Y-85580173D01*
X106938500Y-85580173D01*
X106938500Y-72847337D01*
X108627226Y-72847337D01*
X108957010Y-73527437D01*
X109551663Y-74042088D01*
X110298000Y-74290000D01*
X110848000Y-74290000D01*
X110848000Y-72540000D01*
X111348000Y-72540000D01*
X111348000Y-74290000D01*
X111898000Y-74290000D01*
X112644337Y-74042088D01*
X113238990Y-73527437D01*
X113551317Y-72883337D01*
X113607226Y-72883337D01*
X113937010Y-73563437D01*
X114531663Y-74078088D01*
X115278000Y-74326000D01*
X115828000Y-74326000D01*
X115828000Y-72576000D01*
X113732824Y-72576000D01*
X113607226Y-72883337D01*
X113551317Y-72883337D01*
X113568774Y-72847337D01*
X113443176Y-72540000D01*
X111348000Y-72540000D01*
X110848000Y-72540000D01*
X108752824Y-72540000D01*
X108627226Y-72847337D01*
X106938500Y-72847337D01*
X106938500Y-71732663D01*
X108627226Y-71732663D01*
X108752824Y-72040000D01*
X110848000Y-72040000D01*
X110848000Y-70290000D01*
X111348000Y-70290000D01*
X111348000Y-72040000D01*
X113443176Y-72040000D01*
X113554062Y-71768663D01*
X113607226Y-71768663D01*
X113732824Y-72076000D01*
X115828000Y-72076000D01*
X115828000Y-70326000D01*
X115278000Y-70326000D01*
X114531663Y-70573912D01*
X113937010Y-71088563D01*
X113607226Y-71768663D01*
X113554062Y-71768663D01*
X113568774Y-71732663D01*
X113238990Y-71052563D01*
X112644337Y-70537912D01*
X111898000Y-70290000D01*
X111348000Y-70290000D01*
X110848000Y-70290000D01*
X110298000Y-70290000D01*
X109551663Y-70537912D01*
X108957010Y-71052563D01*
X108627226Y-71732663D01*
X106938500Y-71732663D01*
X106938500Y-71164348D01*
X108543909Y-69558939D01*
X109230401Y-70017639D01*
X110378451Y-70246000D01*
X111617549Y-70246000D01*
X112765599Y-70017639D01*
X113172135Y-69746000D01*
X113903865Y-69746000D01*
X114310401Y-70017639D01*
X115458451Y-70246000D01*
X116697549Y-70246000D01*
X117845599Y-70017639D01*
X117862135Y-70006590D01*
X118203314Y-70239708D01*
X118230967Y-70245308D01*
X118147500Y-70446816D01*
X118147500Y-70658500D01*
X118334998Y-70845998D01*
X118147500Y-70845998D01*
X118147500Y-71026691D01*
X117624337Y-70573912D01*
X116878000Y-70326000D01*
X116328000Y-70326000D01*
X116328000Y-72076000D01*
X116348000Y-72076000D01*
X116348000Y-72576000D01*
X116328000Y-72576000D01*
X116328000Y-74326000D01*
X116878000Y-74326000D01*
X117624337Y-74078088D01*
X118157676Y-73616502D01*
X118334998Y-73616502D01*
X118147500Y-73804000D01*
X118147500Y-74015684D01*
X118230525Y-74216123D01*
X117962222Y-74388771D01*
X117878000Y-74371716D01*
X114278000Y-74371716D01*
X113629489Y-74493742D01*
X113544797Y-74548240D01*
X113492186Y-74512292D01*
X112798000Y-74371716D01*
X109198000Y-74371716D01*
X108549489Y-74493742D01*
X107953871Y-74877011D01*
X107554292Y-75461814D01*
X107413716Y-76156000D01*
X107413716Y-78656000D01*
X107535742Y-79304511D01*
X107919011Y-79900129D01*
X108503814Y-80299708D01*
X109198000Y-80440284D01*
X112798000Y-80440284D01*
X113446511Y-80318258D01*
X113531203Y-80263760D01*
X113583814Y-80299708D01*
X114278000Y-80440284D01*
X117878000Y-80440284D01*
X118526511Y-80318258D01*
X119122129Y-79934989D01*
X119218054Y-79794599D01*
X119614709Y-79715699D01*
X120167597Y-79346271D01*
X120213742Y-79591511D01*
X120597011Y-80187129D01*
X121181814Y-80586708D01*
X121876000Y-80727284D01*
X122876000Y-80727284D01*
X123524511Y-80605258D01*
X124120129Y-80221989D01*
X124519708Y-79637186D01*
X124529149Y-79590567D01*
X124836929Y-79463395D01*
X125498571Y-78802906D01*
X125857091Y-77939495D01*
X125857229Y-77780500D01*
X127326000Y-77780500D01*
X127326000Y-79092185D01*
X127440181Y-79367841D01*
X127651159Y-79578819D01*
X127926816Y-79693000D01*
X128138500Y-79693000D01*
X128326000Y-79505500D01*
X128326000Y-77593000D01*
X128826000Y-77593000D01*
X128826000Y-79505500D01*
X129013500Y-79693000D01*
X129225184Y-79693000D01*
X129500841Y-79578819D01*
X129711819Y-79367841D01*
X129826000Y-79092185D01*
X129826000Y-78034500D01*
X132302000Y-78034500D01*
X132302000Y-79346185D01*
X132416181Y-79621841D01*
X132627159Y-79832819D01*
X132902816Y-79947000D01*
X133114500Y-79947000D01*
X133302000Y-79759500D01*
X133302000Y-77847000D01*
X133802000Y-77847000D01*
X133802000Y-79759500D01*
X133989500Y-79947000D01*
X134201184Y-79947000D01*
X134476841Y-79832819D01*
X134687819Y-79621841D01*
X134802000Y-79346185D01*
X134802000Y-78034500D01*
X134614500Y-77847000D01*
X133802000Y-77847000D01*
X133302000Y-77847000D01*
X132489500Y-77847000D01*
X132302000Y-78034500D01*
X129826000Y-78034500D01*
X129826000Y-77780500D01*
X129638500Y-77593000D01*
X128826000Y-77593000D01*
X128326000Y-77593000D01*
X127513500Y-77593000D01*
X127326000Y-77780500D01*
X125857229Y-77780500D01*
X125857907Y-77004607D01*
X125745107Y-76731609D01*
X126882901Y-75593815D01*
X127326000Y-75593815D01*
X127326000Y-76905500D01*
X127513500Y-77093000D01*
X128326000Y-77093000D01*
X128326000Y-75180500D01*
X128826000Y-75180500D01*
X128826000Y-77093000D01*
X129638500Y-77093000D01*
X129826000Y-76905500D01*
X129826000Y-75593815D01*
X129711819Y-75318159D01*
X129500841Y-75107181D01*
X129225184Y-74993000D01*
X129013500Y-74993000D01*
X128826000Y-75180500D01*
X128326000Y-75180500D01*
X128138500Y-74993000D01*
X127926816Y-74993000D01*
X127651159Y-75107181D01*
X127440181Y-75318159D01*
X127326000Y-75593815D01*
X126882901Y-75593815D01*
X129003901Y-73472815D01*
X132632000Y-73472815D01*
X132632000Y-73984500D01*
X132819500Y-74172000D01*
X133632000Y-74172000D01*
X133632000Y-73059500D01*
X133444500Y-72872000D01*
X133232816Y-72872000D01*
X132957159Y-72986181D01*
X132746181Y-73197159D01*
X132632000Y-73472815D01*
X129003901Y-73472815D01*
X129451625Y-73025091D01*
X130386393Y-73025907D01*
X131250429Y-72668895D01*
X131912071Y-72008406D01*
X132270591Y-71144995D01*
X132271407Y-70210107D01*
X131914395Y-69346071D01*
X131253906Y-68684429D01*
X130390495Y-68325909D01*
X129889500Y-68325472D01*
X129889500Y-67684000D01*
X129702000Y-67496500D01*
X128889500Y-67496500D01*
X128889500Y-67516500D01*
X128389500Y-67516500D01*
X128389500Y-67496500D01*
X127577000Y-67496500D01*
X127389500Y-67684000D01*
X127389500Y-68995685D01*
X127503681Y-69271341D01*
X127596812Y-69364472D01*
X122981254Y-73980030D01*
X122876000Y-73958716D01*
X121876000Y-73958716D01*
X121869372Y-73959963D01*
X121399500Y-73866500D01*
X121247500Y-73866500D01*
X121247500Y-73804000D01*
X121060000Y-73616500D01*
X119947500Y-73616500D01*
X119947500Y-73636500D01*
X119447500Y-73636500D01*
X119447500Y-73616500D01*
X119427500Y-73616500D01*
X119427500Y-73116500D01*
X119447500Y-73116500D01*
X119447500Y-72304000D01*
X119374750Y-72231250D01*
X119447500Y-72158500D01*
X119447500Y-71346000D01*
X119947500Y-71346000D01*
X119947500Y-72158500D01*
X120020250Y-72231250D01*
X119947500Y-72304000D01*
X119947500Y-73116500D01*
X121060000Y-73116500D01*
X121247500Y-72929000D01*
X121247500Y-72717316D01*
X121133319Y-72441659D01*
X120922910Y-72231250D01*
X121133319Y-72020841D01*
X121247500Y-71745184D01*
X121247500Y-71533500D01*
X121060000Y-71346000D01*
X119947500Y-71346000D01*
X119447500Y-71346000D01*
X119427500Y-71346000D01*
X119427500Y-70846000D01*
X119447500Y-70846000D01*
X119447500Y-70826000D01*
X119947500Y-70826000D01*
X119947500Y-70846000D01*
X121060000Y-70846000D01*
X121247500Y-70658500D01*
X121247500Y-70596000D01*
X121590000Y-70596000D01*
X121679661Y-70578165D01*
X121939500Y-70630784D01*
X122939500Y-70630784D01*
X123588011Y-70508758D01*
X124183629Y-70125489D01*
X124583208Y-69540686D01*
X124723784Y-68846500D01*
X124723784Y-68241245D01*
X124749199Y-68203209D01*
X124939500Y-67246500D01*
X124749199Y-66289792D01*
X124723784Y-66251756D01*
X124723784Y-65646500D01*
X124695713Y-65497315D01*
X127389500Y-65497315D01*
X127389500Y-66809000D01*
X127577000Y-66996500D01*
X128389500Y-66996500D01*
X128389500Y-65084000D01*
X128889500Y-65084000D01*
X128889500Y-66996500D01*
X129702000Y-66996500D01*
X129889500Y-66809000D01*
X129889500Y-65497315D01*
X129775319Y-65221659D01*
X129564341Y-65010681D01*
X129288684Y-64896500D01*
X129077000Y-64896500D01*
X128889500Y-65084000D01*
X128389500Y-65084000D01*
X128202000Y-64896500D01*
X127990316Y-64896500D01*
X127714659Y-65010681D01*
X127503681Y-65221659D01*
X127389500Y-65497315D01*
X124695713Y-65497315D01*
X124601758Y-64997989D01*
X124218489Y-64402371D01*
X124193066Y-64385000D01*
X172288109Y-64385000D01*
X171771371Y-64717511D01*
X171771371Y-64717511D01*
G37*
X171771371Y-64717511D02*
X171371792Y-65302314D01*
X171231216Y-65996500D01*
X171231216Y-66666436D01*
X170961152Y-66936500D01*
X170180000Y-66936500D01*
X169849623Y-67002216D01*
X169730000Y-67002216D01*
X169081489Y-67124242D01*
X168521511Y-67484577D01*
X168170886Y-66635999D01*
X167187179Y-65650575D01*
X165901247Y-65116609D01*
X164508861Y-65115394D01*
X163221999Y-65647114D01*
X162236575Y-66630821D01*
X161702609Y-67916753D01*
X161701394Y-69309139D01*
X162233114Y-70596001D01*
X163216821Y-71581425D01*
X164502753Y-72115391D01*
X165895139Y-72116606D01*
X167182001Y-71584886D01*
X168167425Y-70601179D01*
X168296455Y-70290441D01*
X168451011Y-70530629D01*
X168980000Y-70892072D01*
X168980000Y-70935684D01*
X169094181Y-71211341D01*
X169104500Y-71221660D01*
X169104500Y-73494840D01*
X169094181Y-73505159D01*
X168980000Y-73780816D01*
X168980000Y-73833048D01*
X168485871Y-74151011D01*
X168086292Y-74735814D01*
X167945716Y-75430000D01*
X167945716Y-75930000D01*
X168067742Y-76578511D01*
X168451011Y-77174129D01*
X169035814Y-77573708D01*
X169730000Y-77714284D01*
X169849623Y-77714284D01*
X170180000Y-77780000D01*
X170961152Y-77780000D01*
X171346993Y-78165841D01*
X171424312Y-78554550D01*
X172074631Y-79527820D01*
X173047901Y-80178139D01*
X174195951Y-80406500D01*
X175435049Y-80406500D01*
X176583099Y-80178139D01*
X177355500Y-79662037D01*
X178127901Y-80178139D01*
X179275951Y-80406500D01*
X180116152Y-80406500D01*
X181923000Y-82213348D01*
X181923000Y-85864298D01*
X181739210Y-85765344D01*
X180255553Y-87249000D01*
X181739210Y-88732656D01*
X181923000Y-88633702D01*
X181923000Y-96024298D01*
X181739210Y-95925344D01*
X180255553Y-97409000D01*
X181739210Y-98892656D01*
X181923000Y-98793702D01*
X181923000Y-99830826D01*
X181617098Y-100288642D01*
X181423571Y-100368605D01*
X180761929Y-101029094D01*
X180403409Y-101892505D01*
X180402593Y-102827393D01*
X180759605Y-103691429D01*
X181420094Y-104353071D01*
X182283505Y-104711591D01*
X183218393Y-104712407D01*
X184082429Y-104355395D01*
X184744071Y-103694906D01*
X184995536Y-103089312D01*
X184999924Y-103084924D01*
X185455147Y-102403635D01*
X185509590Y-102129932D01*
X185963147Y-101451136D01*
X185997586Y-101278000D01*
X186123000Y-100647500D01*
X186123000Y-81343500D01*
X185963147Y-80539865D01*
X185507924Y-79858576D01*
X183438863Y-77789515D01*
X183515049Y-77406500D01*
X183286688Y-76258450D01*
X182636369Y-75285180D01*
X181663099Y-74634861D01*
X180515049Y-74406500D01*
X179275951Y-74406500D01*
X178127901Y-74634861D01*
X177355500Y-75150963D01*
X176583099Y-74634861D01*
X175435049Y-74406500D01*
X174195951Y-74406500D01*
X173777094Y-74489816D01*
X173578622Y-74181382D01*
X174015500Y-74326500D01*
X174565500Y-74326500D01*
X174565500Y-72576500D01*
X175065500Y-72576500D01*
X175065500Y-74326500D01*
X175615500Y-74326500D01*
X176361837Y-74078588D01*
X176956490Y-73563937D01*
X177286274Y-72883837D01*
X177424726Y-72883837D01*
X177754510Y-73563937D01*
X178349163Y-74078588D01*
X179095500Y-74326500D01*
X179645500Y-74326500D01*
X179645500Y-72576500D01*
X180145500Y-72576500D01*
X180145500Y-74326500D01*
X180695500Y-74326500D01*
X181441837Y-74078588D01*
X182036490Y-73563937D01*
X182366274Y-72883837D01*
X182240676Y-72576500D01*
X180145500Y-72576500D01*
X179645500Y-72576500D01*
X177550324Y-72576500D01*
X177424726Y-72883837D01*
X177286274Y-72883837D01*
X177160676Y-72576500D01*
X175065500Y-72576500D01*
X174565500Y-72576500D01*
X174545500Y-72576500D01*
X174545500Y-72076500D01*
X174565500Y-72076500D01*
X174565500Y-70326500D01*
X175065500Y-70326500D01*
X175065500Y-72076500D01*
X177160676Y-72076500D01*
X177286274Y-71769163D01*
X177424726Y-71769163D01*
X177550324Y-72076500D01*
X179645500Y-72076500D01*
X179645500Y-70326500D01*
X180145500Y-70326500D01*
X180145500Y-72076500D01*
X182240676Y-72076500D01*
X182366274Y-71769163D01*
X182036490Y-71089063D01*
X181441837Y-70574412D01*
X180695500Y-70326500D01*
X180145500Y-70326500D01*
X179645500Y-70326500D01*
X179095500Y-70326500D01*
X178349163Y-70574412D01*
X177754510Y-71089063D01*
X177424726Y-71769163D01*
X177286274Y-71769163D01*
X176956490Y-71089063D01*
X176361837Y-70574412D01*
X175615500Y-70326500D01*
X175065500Y-70326500D01*
X174565500Y-70326500D01*
X174015500Y-70326500D01*
X173627956Y-70455231D01*
X173747150Y-70280784D01*
X176615500Y-70280784D01*
X177264011Y-70158758D01*
X177348703Y-70104260D01*
X177401314Y-70140208D01*
X178095500Y-70280784D01*
X181695500Y-70280784D01*
X182344011Y-70158758D01*
X182939629Y-69775489D01*
X183339208Y-69190686D01*
X183479784Y-68496500D01*
X183479784Y-65996500D01*
X183357758Y-65347989D01*
X182974489Y-64752371D01*
X182436824Y-64385000D01*
X186948000Y-64385000D01*
X186948000Y-119892000D01*
X118066438Y-119892000D01*
X118312450Y-119580004D01*
X115202000Y-116469553D01*
X112091550Y-119580004D01*
X112337562Y-119892000D01*
X103945500Y-119892000D01*
X103945500Y-115230010D01*
X110440673Y-115230010D01*
X110464054Y-117119533D01*
X111142161Y-118756629D01*
X111737996Y-119226450D01*
X114848447Y-116116000D01*
X115555553Y-116116000D01*
X118666004Y-119226450D01*
X119261839Y-118756629D01*
X119963327Y-117001990D01*
X119960941Y-116809139D01*
X141701394Y-116809139D01*
X142233114Y-118096001D01*
X143216821Y-119081425D01*
X144502753Y-119615391D01*
X145895139Y-119616606D01*
X147182001Y-119084886D01*
X148167425Y-118101179D01*
X148701391Y-116815247D01*
X148701396Y-116809139D01*
X161701394Y-116809139D01*
X162233114Y-118096001D01*
X163216821Y-119081425D01*
X164502753Y-119615391D01*
X165895139Y-119616606D01*
X167182001Y-119084886D01*
X168167425Y-118101179D01*
X168701391Y-116815247D01*
X168702606Y-115422861D01*
X168170886Y-114135999D01*
X167187179Y-113150575D01*
X165901247Y-112616609D01*
X164508861Y-112615394D01*
X163221999Y-113147114D01*
X162236575Y-114130821D01*
X161702609Y-115416753D01*
X161701394Y-116809139D01*
X148701396Y-116809139D01*
X148702606Y-115422861D01*
X148170886Y-114135999D01*
X147187179Y-113150575D01*
X145901247Y-112616609D01*
X144508861Y-112615394D01*
X143221999Y-113147114D01*
X142236575Y-114130821D01*
X141702609Y-115416753D01*
X141701394Y-116809139D01*
X119960941Y-116809139D01*
X119939946Y-115112467D01*
X119261839Y-113475371D01*
X118666004Y-113005550D01*
X115555553Y-116116000D01*
X114848447Y-116116000D01*
X111737996Y-113005550D01*
X111142161Y-113475371D01*
X110440673Y-115230010D01*
X103945500Y-115230010D01*
X103945500Y-112651996D01*
X112091550Y-112651996D01*
X115202000Y-115762447D01*
X118312450Y-112651996D01*
X117842629Y-112056161D01*
X116087990Y-111354673D01*
X114198467Y-111378054D01*
X112561371Y-112056161D01*
X112091550Y-112651996D01*
X103945500Y-112651996D01*
X103945500Y-103168848D01*
X105703076Y-104926424D01*
X106384365Y-105381647D01*
X107188000Y-105541500D01*
X111959424Y-105541500D01*
X112560505Y-105791091D01*
X113495393Y-105791907D01*
X114359429Y-105434895D01*
X115021071Y-104774406D01*
X115379591Y-103910995D01*
X115380407Y-102976107D01*
X115023395Y-102112071D01*
X114362906Y-101450429D01*
X113499495Y-101091909D01*
X112564607Y-101091093D01*
X111958575Y-101341500D01*
X108057848Y-101341500D01*
X106938500Y-100222152D01*
X106938500Y-99051827D01*
X109699726Y-99051827D01*
X109863859Y-99387843D01*
X110712740Y-99671771D01*
X111605658Y-99609234D01*
X112140141Y-99387843D01*
X112304274Y-99051827D01*
X111002000Y-97749553D01*
X109699726Y-99051827D01*
X106938500Y-99051827D01*
X106938500Y-97106740D01*
X108726229Y-97106740D01*
X108788766Y-97999658D01*
X109010157Y-98534141D01*
X109346173Y-98698274D01*
X110648447Y-97396000D01*
X111355553Y-97396000D01*
X112657827Y-98698274D01*
X112993843Y-98534141D01*
X113277771Y-97685260D01*
X113215234Y-96792342D01*
X112993843Y-96257859D01*
X112657827Y-96093726D01*
X111355553Y-97396000D01*
X110648447Y-97396000D01*
X109346173Y-96093726D01*
X109010157Y-96257859D01*
X108726229Y-97106740D01*
X106938500Y-97106740D01*
X106938500Y-95740173D01*
X109699726Y-95740173D01*
X111002000Y-97042447D01*
X112304274Y-95740173D01*
X112140141Y-95404157D01*
X111291260Y-95120229D01*
X110398342Y-95182766D01*
X109863859Y-95404157D01*
X109699726Y-95740173D01*
X106938500Y-95740173D01*
X106938500Y-93009139D01*
X112581394Y-93009139D01*
X113113114Y-94296001D01*
X114096821Y-95281425D01*
X115382753Y-95815391D01*
X116251884Y-95816149D01*
X116245929Y-95822094D01*
X115887409Y-96685505D01*
X115886593Y-97620393D01*
X116243605Y-98484429D01*
X116904094Y-99146071D01*
X117726942Y-99487748D01*
X117837806Y-99561825D01*
X117921011Y-99691129D01*
X118505814Y-100090708D01*
X119200000Y-100231284D01*
X120200000Y-100231284D01*
X120666520Y-100143502D01*
X121100000Y-100231284D01*
X121598954Y-100231284D01*
X121613011Y-100253129D01*
X122197814Y-100652708D01*
X122892000Y-100793284D01*
X123892000Y-100793284D01*
X124540511Y-100671258D01*
X125136129Y-100287989D01*
X125535708Y-99703186D01*
X125676284Y-99009000D01*
X125676284Y-95809000D01*
X125609013Y-95451485D01*
X125973736Y-95587292D01*
X127265817Y-95540438D01*
X127370917Y-95496904D01*
X127307716Y-95809000D01*
X127307716Y-99009000D01*
X127429742Y-99657511D01*
X127813011Y-100253129D01*
X128397814Y-100652708D01*
X129092000Y-100793284D01*
X130092000Y-100793284D01*
X130740511Y-100671258D01*
X130806101Y-100629052D01*
X130599646Y-101126250D01*
X130260696Y-101190028D01*
X130032000Y-101143716D01*
X129532000Y-101143716D01*
X129013645Y-101241251D01*
X128532000Y-101143716D01*
X128032000Y-101143716D01*
X127383489Y-101265742D01*
X127131332Y-101428000D01*
X126936500Y-101428000D01*
X126190267Y-101576435D01*
X125617517Y-101959135D01*
X125557642Y-101999142D01*
X125113142Y-102443642D01*
X124690435Y-103076267D01*
X124542000Y-103822500D01*
X124542000Y-104516500D01*
X121365501Y-104516500D01*
X120611495Y-104203409D01*
X119676607Y-104202593D01*
X118812571Y-104559605D01*
X118150929Y-105220094D01*
X117792409Y-106083505D01*
X117791593Y-107018393D01*
X118148605Y-107882429D01*
X118809094Y-108544071D01*
X119672505Y-108902591D01*
X120607393Y-108903407D01*
X121059743Y-108716500D01*
X125834284Y-108716500D01*
X132022642Y-114904858D01*
X132655268Y-115327566D01*
X133401500Y-115476000D01*
X136039793Y-115476000D01*
X136456000Y-115560284D01*
X137356000Y-115560284D01*
X138004511Y-115438258D01*
X138600129Y-115054989D01*
X138999708Y-114470186D01*
X139140284Y-113776000D01*
X139140284Y-113276000D01*
X139042749Y-112757645D01*
X139140284Y-112276000D01*
X139140284Y-112082000D01*
X141120000Y-112082000D01*
X141923635Y-111922147D01*
X142314044Y-111661284D01*
X142425000Y-111661284D01*
X142891520Y-111573502D01*
X143325000Y-111661284D01*
X144325000Y-111661284D01*
X144973511Y-111539258D01*
X145569129Y-111155989D01*
X145968708Y-110571186D01*
X146109284Y-109877000D01*
X146109284Y-109514689D01*
X146178889Y-109561198D01*
X146858541Y-109696389D01*
X147028216Y-109866064D01*
X147028216Y-111036000D01*
X147150242Y-111684511D01*
X147533511Y-112280129D01*
X148118314Y-112679708D01*
X148812500Y-112820284D01*
X149812500Y-112820284D01*
X150461011Y-112698258D01*
X151056629Y-112314989D01*
X151456208Y-111730186D01*
X151461808Y-111702533D01*
X151663316Y-111786000D01*
X151875000Y-111786000D01*
X152062500Y-111598500D01*
X152062500Y-110486000D01*
X152562500Y-110486000D01*
X152562500Y-111598500D01*
X152750000Y-111786000D01*
X152961684Y-111786000D01*
X153237341Y-111671819D01*
X153448319Y-111460841D01*
X153562500Y-111185185D01*
X153562500Y-110673500D01*
X153375000Y-110486000D01*
X152562500Y-110486000D01*
X152062500Y-110486000D01*
X152042500Y-110486000D01*
X152042500Y-109986000D01*
X152062500Y-109986000D01*
X152062500Y-108873500D01*
X152562500Y-108873500D01*
X152562500Y-109986000D01*
X153375000Y-109986000D01*
X153562500Y-109798500D01*
X153562500Y-109286815D01*
X153448319Y-109011159D01*
X153237341Y-108800181D01*
X152961684Y-108686000D01*
X152750000Y-108686000D01*
X152562500Y-108873500D01*
X152062500Y-108873500D01*
X151875000Y-108686000D01*
X151663316Y-108686000D01*
X151497484Y-108754690D01*
X151809924Y-108545924D01*
X151869564Y-108486284D01*
X151884000Y-108486284D01*
X152532511Y-108364258D01*
X153128129Y-107980989D01*
X153348493Y-107658476D01*
X153964157Y-108069850D01*
X154940000Y-108263957D01*
X155915843Y-108069850D01*
X156743122Y-107517079D01*
X157295893Y-106689800D01*
X157490000Y-105713957D01*
X157490000Y-105614043D01*
X157312610Y-104722242D01*
X157383708Y-104618186D01*
X157524284Y-103924000D01*
X157524284Y-102807290D01*
X158676497Y-103959503D01*
X159292902Y-104371372D01*
X160020000Y-104516000D01*
X165163500Y-104516000D01*
X165890599Y-104371371D01*
X166507003Y-103959503D01*
X168304186Y-102162320D01*
X168324011Y-102193129D01*
X168908814Y-102592708D01*
X169006216Y-102612432D01*
X169753642Y-103359859D01*
X170386268Y-103782566D01*
X171082084Y-103920972D01*
X171133094Y-103972071D01*
X171996505Y-104330591D01*
X172931393Y-104331407D01*
X173795429Y-103974395D01*
X174457071Y-103313906D01*
X174815591Y-102450495D01*
X174816407Y-101515607D01*
X174459395Y-100651571D01*
X173798906Y-99989929D01*
X172935495Y-99631409D01*
X172250466Y-99630811D01*
X172287284Y-99449000D01*
X172287284Y-99246210D01*
X178418344Y-99246210D01*
X178613226Y-99608171D01*
X179552914Y-99933962D01*
X180545748Y-99875351D01*
X181190774Y-99608171D01*
X181385656Y-99246210D01*
X179902000Y-97762553D01*
X178418344Y-99246210D01*
X172287284Y-99246210D01*
X172287284Y-98949000D01*
X172280059Y-98910601D01*
X172410319Y-98780341D01*
X172524500Y-98504685D01*
X172524500Y-98355500D01*
X172337000Y-98168000D01*
X172221221Y-98168000D01*
X172578572Y-97645000D01*
X172622184Y-97645000D01*
X172897841Y-97530819D01*
X173108819Y-97319841D01*
X173216484Y-97059914D01*
X177377038Y-97059914D01*
X177435649Y-98052748D01*
X177702829Y-98697774D01*
X178064790Y-98892656D01*
X179548447Y-97409000D01*
X178064790Y-95925344D01*
X177702829Y-96120226D01*
X177377038Y-97059914D01*
X173216484Y-97059914D01*
X173223000Y-97044185D01*
X173223000Y-96895000D01*
X173035500Y-96707500D01*
X172757284Y-96707500D01*
X172757284Y-96332500D01*
X173035500Y-96332500D01*
X173223000Y-96145000D01*
X173223000Y-95995815D01*
X173108819Y-95720159D01*
X172897841Y-95509181D01*
X172622184Y-95395000D01*
X172569952Y-95395000D01*
X172423166Y-95166888D01*
X172699629Y-94988989D01*
X172800746Y-94841000D01*
X173033502Y-94841000D01*
X173033502Y-94783725D01*
X173120418Y-94870793D01*
X173320897Y-94954039D01*
X173370869Y-95351953D01*
X173454396Y-95553605D01*
X173712979Y-95624468D01*
X174071662Y-95265785D01*
X174222645Y-95328478D01*
X174715645Y-95328908D01*
X174066532Y-95978021D01*
X174137395Y-96236604D01*
X174712867Y-96394488D01*
X175304953Y-96320131D01*
X175506605Y-96236604D01*
X175577468Y-95978021D01*
X174928541Y-95329094D01*
X175416119Y-95329519D01*
X175571762Y-95265209D01*
X175931021Y-95624468D01*
X176123245Y-95571790D01*
X178418344Y-95571790D01*
X179902000Y-97055447D01*
X181385656Y-95571790D01*
X181190774Y-95209829D01*
X180251086Y-94884038D01*
X179258252Y-94942649D01*
X178613226Y-95209829D01*
X178418344Y-95571790D01*
X176123245Y-95571790D01*
X176189604Y-95553605D01*
X176347488Y-94978133D01*
X176343495Y-94946335D01*
X176519143Y-94873759D01*
X177363793Y-94030582D01*
X177821478Y-92928355D01*
X177822519Y-91734881D01*
X177366759Y-90631857D01*
X176523582Y-89787207D01*
X175421355Y-89329522D01*
X174227881Y-89328481D01*
X173136500Y-89779430D01*
X173136500Y-89665998D01*
X172974002Y-89665998D01*
X173136500Y-89503500D01*
X173136500Y-89418160D01*
X173299319Y-89255341D01*
X173369375Y-89086210D01*
X178418344Y-89086210D01*
X178613226Y-89448171D01*
X179552914Y-89773962D01*
X180545748Y-89715351D01*
X181190774Y-89448171D01*
X181385656Y-89086210D01*
X179902000Y-87602553D01*
X178418344Y-89086210D01*
X173369375Y-89086210D01*
X173413500Y-88979685D01*
X173413500Y-88830500D01*
X173226000Y-88643000D01*
X172947784Y-88643000D01*
X172947784Y-88268000D01*
X173226000Y-88268000D01*
X173413500Y-88080500D01*
X173413500Y-87931315D01*
X173299319Y-87655659D01*
X173088341Y-87444681D01*
X172812684Y-87330500D01*
X172760452Y-87330500D01*
X172483378Y-86899914D01*
X177377038Y-86899914D01*
X177435649Y-87892748D01*
X177702829Y-88537774D01*
X178064790Y-88732656D01*
X179548447Y-87249000D01*
X178064790Y-85765344D01*
X177702829Y-85960226D01*
X177377038Y-86899914D01*
X172483378Y-86899914D01*
X172442489Y-86836371D01*
X171857686Y-86436792D01*
X171381551Y-86340372D01*
X171327758Y-86054489D01*
X170944489Y-85458871D01*
X170875584Y-85411790D01*
X178418344Y-85411790D01*
X179902000Y-86895447D01*
X181385656Y-85411790D01*
X181190774Y-85049829D01*
X180251086Y-84724038D01*
X179258252Y-84782649D01*
X178613226Y-85049829D01*
X178418344Y-85411790D01*
X170875584Y-85411790D01*
X170359686Y-85059292D01*
X169665500Y-84918716D01*
X168540784Y-84918716D01*
X168540784Y-84764500D01*
X168443249Y-84246145D01*
X168491937Y-84005715D01*
X168678571Y-83819406D01*
X169037091Y-82955995D01*
X169037907Y-82021107D01*
X168680895Y-81157071D01*
X168020406Y-80495429D01*
X167156995Y-80136909D01*
X166222107Y-80136093D01*
X165358071Y-80493105D01*
X164696429Y-81153594D01*
X164337909Y-82017005D01*
X164337585Y-82387673D01*
X164212792Y-82570314D01*
X164072216Y-83264500D01*
X164072216Y-83764500D01*
X164167331Y-84269990D01*
X164046159Y-84320181D01*
X163835181Y-84531159D01*
X163721000Y-84806816D01*
X163721000Y-84859048D01*
X163226871Y-85177011D01*
X163071000Y-85405136D01*
X163071000Y-85155500D01*
X162883500Y-84968000D01*
X162734315Y-84968000D01*
X162458659Y-85082181D01*
X162347832Y-85193008D01*
X162279137Y-85147107D01*
X161303294Y-84953000D01*
X160387706Y-84953000D01*
X159411863Y-85147107D01*
X158584584Y-85699878D01*
X158031813Y-86527157D01*
X157857812Y-87401919D01*
X157632659Y-87495181D01*
X157421681Y-87706159D01*
X157327284Y-87934053D01*
X157327284Y-87211000D01*
X157205258Y-86562489D01*
X157143000Y-86465737D01*
X157143000Y-85736485D01*
X157174284Y-85582000D01*
X157174284Y-85082000D01*
X157076749Y-84563645D01*
X157174284Y-84082000D01*
X157174284Y-83582000D01*
X157052258Y-82933489D01*
X157049287Y-82928872D01*
X157295893Y-82559800D01*
X157490000Y-81583957D01*
X157490000Y-81484043D01*
X157312610Y-80592242D01*
X157383708Y-80488186D01*
X157524284Y-79794000D01*
X157524284Y-78194000D01*
X157402258Y-77545489D01*
X157018989Y-76949871D01*
X156434186Y-76550292D01*
X155740000Y-76409716D01*
X154140000Y-76409716D01*
X153844479Y-76465322D01*
X153818924Y-76427076D01*
X153753000Y-76361152D01*
X153753000Y-76002500D01*
X153565500Y-75815000D01*
X153153922Y-75815000D01*
X152632135Y-75466353D01*
X152233000Y-75386960D01*
X152233000Y-75315000D01*
X152253000Y-75315000D01*
X152253000Y-74202500D01*
X152753000Y-74202500D01*
X152753000Y-75315000D01*
X153565500Y-75315000D01*
X153753000Y-75127500D01*
X153753000Y-74615815D01*
X153638819Y-74340159D01*
X153427841Y-74129181D01*
X153152184Y-74015000D01*
X152940500Y-74015000D01*
X152753000Y-74202500D01*
X152253000Y-74202500D01*
X152065500Y-74015000D01*
X151853816Y-74015000D01*
X151653377Y-74098025D01*
X151281989Y-73520871D01*
X150697186Y-73121292D01*
X150003000Y-72980716D01*
X149003000Y-72980716D01*
X148354489Y-73102742D01*
X147758871Y-73486011D01*
X147359292Y-74070814D01*
X147218716Y-74765000D01*
X147218716Y-74879436D01*
X147202892Y-74895260D01*
X147202000Y-74895083D01*
X146187889Y-75096802D01*
X145577244Y-75504822D01*
X145286284Y-75306017D01*
X145286284Y-74654000D01*
X145164258Y-74005489D01*
X144780989Y-73409871D01*
X144196186Y-73010292D01*
X143502000Y-72869716D01*
X142502000Y-72869716D01*
X142375599Y-72893500D01*
X139140284Y-72893500D01*
X139140284Y-72572500D01*
X139042749Y-72054145D01*
X139140284Y-71572500D01*
X139140284Y-71072500D01*
X139018258Y-70423989D01*
X138634989Y-69828371D01*
X138050186Y-69428792D01*
X137546828Y-69326860D01*
X137529138Y-69309139D01*
X141701394Y-69309139D01*
X142233114Y-70596001D01*
X143216821Y-71581425D01*
X144502753Y-72115391D01*
X145895139Y-72116606D01*
X147182001Y-71584886D01*
X148167425Y-70601179D01*
X148701391Y-69315247D01*
X148702606Y-67922861D01*
X148170886Y-66635999D01*
X147187179Y-65650575D01*
X145901247Y-65116609D01*
X144508861Y-65115394D01*
X143221999Y-65647114D01*
X142236575Y-66630821D01*
X141702609Y-67916753D01*
X141701394Y-69309139D01*
X137529138Y-69309139D01*
X136968906Y-68747929D01*
X136105495Y-68389409D01*
X135170607Y-68388593D01*
X134306571Y-68745605D01*
X133644929Y-69406094D01*
X133286409Y-70269505D01*
X133285593Y-71204393D01*
X133642605Y-72068429D01*
X134303094Y-72730071D01*
X134671716Y-72883136D01*
X134671716Y-72930210D01*
X134531184Y-72872000D01*
X134319500Y-72872000D01*
X134132000Y-73059500D01*
X134132000Y-74172000D01*
X134152000Y-74172000D01*
X134152000Y-74672000D01*
X134132000Y-74672000D01*
X134132000Y-74692000D01*
X133632000Y-74692000D01*
X133632000Y-74672000D01*
X132819500Y-74672000D01*
X132632000Y-74859500D01*
X132632000Y-75359176D01*
X132627159Y-75361181D01*
X132416181Y-75572159D01*
X132302000Y-75847815D01*
X132302000Y-77159500D01*
X132489500Y-77347000D01*
X133302000Y-77347000D01*
X133302000Y-77327000D01*
X133802000Y-77327000D01*
X133802000Y-77347000D01*
X134614500Y-77347000D01*
X134802000Y-77159500D01*
X134802000Y-75998344D01*
X135103011Y-76466129D01*
X135687814Y-76865708D01*
X136203000Y-76970036D01*
X136203000Y-78450579D01*
X135757871Y-78737011D01*
X135396428Y-79266000D01*
X135352816Y-79266000D01*
X135077159Y-79380181D01*
X134866181Y-79591159D01*
X134752000Y-79866815D01*
X134752000Y-79990500D01*
X134486000Y-79990500D01*
X134298500Y-80178000D01*
X134298500Y-80990500D01*
X134318500Y-80990500D01*
X134318500Y-81490500D01*
X134298500Y-81490500D01*
X134298500Y-81510500D01*
X133798500Y-81510500D01*
X133798500Y-81490500D01*
X131695000Y-81490500D01*
X131695000Y-81510500D01*
X131195000Y-81510500D01*
X131195000Y-81490500D01*
X130082500Y-81490500D01*
X129895000Y-81678000D01*
X129895000Y-81889684D01*
X129953210Y-82030216D01*
X129595500Y-82030216D01*
X129201166Y-82104415D01*
X128993395Y-81601571D01*
X128332906Y-80939929D01*
X127493354Y-80591316D01*
X129895000Y-80591316D01*
X129895000Y-80803000D01*
X130082500Y-80990500D01*
X131195000Y-80990500D01*
X131195000Y-80178000D01*
X131695000Y-80178000D01*
X131695000Y-80990500D01*
X133798500Y-80990500D01*
X133798500Y-80178000D01*
X133611000Y-79990500D01*
X133099315Y-79990500D01*
X132823659Y-80104681D01*
X132746750Y-80181590D01*
X132669841Y-80104681D01*
X132394185Y-79990500D01*
X131882500Y-79990500D01*
X131695000Y-80178000D01*
X131195000Y-80178000D01*
X131007500Y-79990500D01*
X130495815Y-79990500D01*
X130220159Y-80104681D01*
X130009181Y-80315659D01*
X129895000Y-80591316D01*
X127493354Y-80591316D01*
X127469495Y-80581409D01*
X126534607Y-80580593D01*
X125670571Y-80937605D01*
X125008929Y-81598094D01*
X124650409Y-82461505D01*
X124649593Y-83396393D01*
X125006605Y-84260429D01*
X125667094Y-84922071D01*
X126408176Y-85229795D01*
X126433242Y-85363011D01*
X126816511Y-85958629D01*
X127401314Y-86358208D01*
X128095500Y-86498784D01*
X128595500Y-86498784D01*
X129113855Y-86401249D01*
X129595500Y-86498784D01*
X130095500Y-86498784D01*
X130313783Y-86457711D01*
X130645000Y-86524784D01*
X131141949Y-86524784D01*
X131229605Y-86736929D01*
X131450000Y-86957709D01*
X131450000Y-87001000D01*
X131637500Y-87188500D01*
X131680389Y-87188500D01*
X131890094Y-87398571D01*
X131915716Y-87409210D01*
X131915716Y-87563500D01*
X131637500Y-87563500D01*
X131450000Y-87751000D01*
X131450000Y-87900185D01*
X131564181Y-88175841D01*
X131775159Y-88386819D01*
X132050816Y-88501000D01*
X132103048Y-88501000D01*
X132421011Y-88995129D01*
X132550984Y-89083936D01*
X132272292Y-89491814D01*
X132131716Y-90186000D01*
X132131716Y-90356990D01*
X132116000Y-90436000D01*
X132131716Y-90515010D01*
X132131716Y-90673355D01*
X131570185Y-91048558D01*
X131489489Y-91063742D01*
X130893871Y-91447011D01*
X130605320Y-91869320D01*
X130562000Y-91826000D01*
X130412815Y-91826000D01*
X130137159Y-91940181D01*
X129926181Y-92151159D01*
X129812000Y-92426816D01*
X129812000Y-92479048D01*
X129761233Y-92511716D01*
X129726438Y-91552183D01*
X129322122Y-90576078D01*
X128882234Y-90289320D01*
X126855553Y-92316000D01*
X126869696Y-92330142D01*
X126516142Y-92683696D01*
X126502000Y-92669553D01*
X126487858Y-92683696D01*
X126134304Y-92330142D01*
X126148447Y-92316000D01*
X126134305Y-92301858D01*
X126487858Y-91948304D01*
X126502000Y-91962447D01*
X128528680Y-89935766D01*
X128241922Y-89495878D01*
X127030264Y-89044708D01*
X125738183Y-89091562D01*
X124762078Y-89495878D01*
X124577319Y-89779300D01*
X124294395Y-89094571D01*
X123633906Y-88432929D01*
X122770495Y-88074409D01*
X121835607Y-88073593D01*
X120971571Y-88430605D01*
X120911355Y-88490716D01*
X120150000Y-88490716D01*
X119501489Y-88612742D01*
X118905871Y-88996011D01*
X118506292Y-89580814D01*
X118470998Y-89755099D01*
X118067179Y-89350575D01*
X117450975Y-89094704D01*
X117449604Y-89091395D01*
X117430196Y-89086076D01*
X116781247Y-88816609D01*
X116687919Y-88816528D01*
X116837468Y-88666979D01*
X116766605Y-88408396D01*
X116191133Y-88250512D01*
X115599047Y-88324869D01*
X115397395Y-88408396D01*
X115326532Y-88666979D01*
X115475022Y-88815469D01*
X115388861Y-88815394D01*
X114733670Y-89086113D01*
X114714396Y-89091395D01*
X114713566Y-89094420D01*
X114101999Y-89347114D01*
X113116575Y-90330821D01*
X112582609Y-91616753D01*
X112581394Y-93009139D01*
X106938500Y-93009139D01*
X106938500Y-88891827D01*
X109699726Y-88891827D01*
X109863859Y-89227843D01*
X110712740Y-89511771D01*
X111605658Y-89449234D01*
X112140141Y-89227843D01*
X112304274Y-88891827D01*
X111002000Y-87589553D01*
X109699726Y-88891827D01*
X106938500Y-88891827D01*
X106938500Y-86946740D01*
X108726229Y-86946740D01*
X108788766Y-87839658D01*
X109010157Y-88374141D01*
X109346173Y-88538274D01*
X110648447Y-87236000D01*
X111355553Y-87236000D01*
X112657827Y-88538274D01*
X112993843Y-88374141D01*
X113277771Y-87525260D01*
X113215234Y-86632342D01*
X112993843Y-86097859D01*
X112657827Y-85933726D01*
X111355553Y-87236000D01*
X110648447Y-87236000D01*
X109346173Y-85933726D01*
X109010157Y-86097859D01*
X108726229Y-86946740D01*
X106938500Y-86946740D01*
X106938500Y-85580173D01*
X109699726Y-85580173D01*
X111002000Y-86882447D01*
X112304274Y-85580173D01*
X112140141Y-85244157D01*
X111291260Y-84960229D01*
X110398342Y-85022766D01*
X109863859Y-85244157D01*
X109699726Y-85580173D01*
X106938500Y-85580173D01*
X106938500Y-72847337D01*
X108627226Y-72847337D01*
X108957010Y-73527437D01*
X109551663Y-74042088D01*
X110298000Y-74290000D01*
X110848000Y-74290000D01*
X110848000Y-72540000D01*
X111348000Y-72540000D01*
X111348000Y-74290000D01*
X111898000Y-74290000D01*
X112644337Y-74042088D01*
X113238990Y-73527437D01*
X113551317Y-72883337D01*
X113607226Y-72883337D01*
X113937010Y-73563437D01*
X114531663Y-74078088D01*
X115278000Y-74326000D01*
X115828000Y-74326000D01*
X115828000Y-72576000D01*
X113732824Y-72576000D01*
X113607226Y-72883337D01*
X113551317Y-72883337D01*
X113568774Y-72847337D01*
X113443176Y-72540000D01*
X111348000Y-72540000D01*
X110848000Y-72540000D01*
X108752824Y-72540000D01*
X108627226Y-72847337D01*
X106938500Y-72847337D01*
X106938500Y-71732663D01*
X108627226Y-71732663D01*
X108752824Y-72040000D01*
X110848000Y-72040000D01*
X110848000Y-70290000D01*
X111348000Y-70290000D01*
X111348000Y-72040000D01*
X113443176Y-72040000D01*
X113554062Y-71768663D01*
X113607226Y-71768663D01*
X113732824Y-72076000D01*
X115828000Y-72076000D01*
X115828000Y-70326000D01*
X115278000Y-70326000D01*
X114531663Y-70573912D01*
X113937010Y-71088563D01*
X113607226Y-71768663D01*
X113554062Y-71768663D01*
X113568774Y-71732663D01*
X113238990Y-71052563D01*
X112644337Y-70537912D01*
X111898000Y-70290000D01*
X111348000Y-70290000D01*
X110848000Y-70290000D01*
X110298000Y-70290000D01*
X109551663Y-70537912D01*
X108957010Y-71052563D01*
X108627226Y-71732663D01*
X106938500Y-71732663D01*
X106938500Y-71164348D01*
X108543909Y-69558939D01*
X109230401Y-70017639D01*
X110378451Y-70246000D01*
X111617549Y-70246000D01*
X112765599Y-70017639D01*
X113172135Y-69746000D01*
X113903865Y-69746000D01*
X114310401Y-70017639D01*
X115458451Y-70246000D01*
X116697549Y-70246000D01*
X117845599Y-70017639D01*
X117862135Y-70006590D01*
X118203314Y-70239708D01*
X118230967Y-70245308D01*
X118147500Y-70446816D01*
X118147500Y-70658500D01*
X118334998Y-70845998D01*
X118147500Y-70845998D01*
X118147500Y-71026691D01*
X117624337Y-70573912D01*
X116878000Y-70326000D01*
X116328000Y-70326000D01*
X116328000Y-72076000D01*
X116348000Y-72076000D01*
X116348000Y-72576000D01*
X116328000Y-72576000D01*
X116328000Y-74326000D01*
X116878000Y-74326000D01*
X117624337Y-74078088D01*
X118157676Y-73616502D01*
X118334998Y-73616502D01*
X118147500Y-73804000D01*
X118147500Y-74015684D01*
X118230525Y-74216123D01*
X117962222Y-74388771D01*
X117878000Y-74371716D01*
X114278000Y-74371716D01*
X113629489Y-74493742D01*
X113544797Y-74548240D01*
X113492186Y-74512292D01*
X112798000Y-74371716D01*
X109198000Y-74371716D01*
X108549489Y-74493742D01*
X107953871Y-74877011D01*
X107554292Y-75461814D01*
X107413716Y-76156000D01*
X107413716Y-78656000D01*
X107535742Y-79304511D01*
X107919011Y-79900129D01*
X108503814Y-80299708D01*
X109198000Y-80440284D01*
X112798000Y-80440284D01*
X113446511Y-80318258D01*
X113531203Y-80263760D01*
X113583814Y-80299708D01*
X114278000Y-80440284D01*
X117878000Y-80440284D01*
X118526511Y-80318258D01*
X119122129Y-79934989D01*
X119218054Y-79794599D01*
X119614709Y-79715699D01*
X120167597Y-79346271D01*
X120213742Y-79591511D01*
X120597011Y-80187129D01*
X121181814Y-80586708D01*
X121876000Y-80727284D01*
X122876000Y-80727284D01*
X123524511Y-80605258D01*
X124120129Y-80221989D01*
X124519708Y-79637186D01*
X124529149Y-79590567D01*
X124836929Y-79463395D01*
X125498571Y-78802906D01*
X125857091Y-77939495D01*
X125857229Y-77780500D01*
X127326000Y-77780500D01*
X127326000Y-79092185D01*
X127440181Y-79367841D01*
X127651159Y-79578819D01*
X127926816Y-79693000D01*
X128138500Y-79693000D01*
X128326000Y-79505500D01*
X128326000Y-77593000D01*
X128826000Y-77593000D01*
X128826000Y-79505500D01*
X129013500Y-79693000D01*
X129225184Y-79693000D01*
X129500841Y-79578819D01*
X129711819Y-79367841D01*
X129826000Y-79092185D01*
X129826000Y-78034500D01*
X132302000Y-78034500D01*
X132302000Y-79346185D01*
X132416181Y-79621841D01*
X132627159Y-79832819D01*
X132902816Y-79947000D01*
X133114500Y-79947000D01*
X133302000Y-79759500D01*
X133302000Y-77847000D01*
X133802000Y-77847000D01*
X133802000Y-79759500D01*
X133989500Y-79947000D01*
X134201184Y-79947000D01*
X134476841Y-79832819D01*
X134687819Y-79621841D01*
X134802000Y-79346185D01*
X134802000Y-78034500D01*
X134614500Y-77847000D01*
X133802000Y-77847000D01*
X133302000Y-77847000D01*
X132489500Y-77847000D01*
X132302000Y-78034500D01*
X129826000Y-78034500D01*
X129826000Y-77780500D01*
X129638500Y-77593000D01*
X128826000Y-77593000D01*
X128326000Y-77593000D01*
X127513500Y-77593000D01*
X127326000Y-77780500D01*
X125857229Y-77780500D01*
X125857907Y-77004607D01*
X125745107Y-76731609D01*
X126882901Y-75593815D01*
X127326000Y-75593815D01*
X127326000Y-76905500D01*
X127513500Y-77093000D01*
X128326000Y-77093000D01*
X128326000Y-75180500D01*
X128826000Y-75180500D01*
X128826000Y-77093000D01*
X129638500Y-77093000D01*
X129826000Y-76905500D01*
X129826000Y-75593815D01*
X129711819Y-75318159D01*
X129500841Y-75107181D01*
X129225184Y-74993000D01*
X129013500Y-74993000D01*
X128826000Y-75180500D01*
X128326000Y-75180500D01*
X128138500Y-74993000D01*
X127926816Y-74993000D01*
X127651159Y-75107181D01*
X127440181Y-75318159D01*
X127326000Y-75593815D01*
X126882901Y-75593815D01*
X129003901Y-73472815D01*
X132632000Y-73472815D01*
X132632000Y-73984500D01*
X132819500Y-74172000D01*
X133632000Y-74172000D01*
X133632000Y-73059500D01*
X133444500Y-72872000D01*
X133232816Y-72872000D01*
X132957159Y-72986181D01*
X132746181Y-73197159D01*
X132632000Y-73472815D01*
X129003901Y-73472815D01*
X129451625Y-73025091D01*
X130386393Y-73025907D01*
X131250429Y-72668895D01*
X131912071Y-72008406D01*
X132270591Y-71144995D01*
X132271407Y-70210107D01*
X131914395Y-69346071D01*
X131253906Y-68684429D01*
X130390495Y-68325909D01*
X129889500Y-68325472D01*
X129889500Y-67684000D01*
X129702000Y-67496500D01*
X128889500Y-67496500D01*
X128889500Y-67516500D01*
X128389500Y-67516500D01*
X128389500Y-67496500D01*
X127577000Y-67496500D01*
X127389500Y-67684000D01*
X127389500Y-68995685D01*
X127503681Y-69271341D01*
X127596812Y-69364472D01*
X122981254Y-73980030D01*
X122876000Y-73958716D01*
X121876000Y-73958716D01*
X121869372Y-73959963D01*
X121399500Y-73866500D01*
X121247500Y-73866500D01*
X121247500Y-73804000D01*
X121060000Y-73616500D01*
X119947500Y-73616500D01*
X119947500Y-73636500D01*
X119447500Y-73636500D01*
X119447500Y-73616500D01*
X119427500Y-73616500D01*
X119427500Y-73116500D01*
X119447500Y-73116500D01*
X119447500Y-72304000D01*
X119374750Y-72231250D01*
X119447500Y-72158500D01*
X119447500Y-71346000D01*
X119947500Y-71346000D01*
X119947500Y-72158500D01*
X120020250Y-72231250D01*
X119947500Y-72304000D01*
X119947500Y-73116500D01*
X121060000Y-73116500D01*
X121247500Y-72929000D01*
X121247500Y-72717316D01*
X121133319Y-72441659D01*
X120922910Y-72231250D01*
X121133319Y-72020841D01*
X121247500Y-71745184D01*
X121247500Y-71533500D01*
X121060000Y-71346000D01*
X119947500Y-71346000D01*
X119447500Y-71346000D01*
X119427500Y-71346000D01*
X119427500Y-70846000D01*
X119447500Y-70846000D01*
X119447500Y-70826000D01*
X119947500Y-70826000D01*
X119947500Y-70846000D01*
X121060000Y-70846000D01*
X121247500Y-70658500D01*
X121247500Y-70596000D01*
X121590000Y-70596000D01*
X121679661Y-70578165D01*
X121939500Y-70630784D01*
X122939500Y-70630784D01*
X123588011Y-70508758D01*
X124183629Y-70125489D01*
X124583208Y-69540686D01*
X124723784Y-68846500D01*
X124723784Y-68241245D01*
X124749199Y-68203209D01*
X124939500Y-67246500D01*
X124749199Y-66289792D01*
X124723784Y-66251756D01*
X124723784Y-65646500D01*
X124695713Y-65497315D01*
X127389500Y-65497315D01*
X127389500Y-66809000D01*
X127577000Y-66996500D01*
X128389500Y-66996500D01*
X128389500Y-65084000D01*
X128889500Y-65084000D01*
X128889500Y-66996500D01*
X129702000Y-66996500D01*
X129889500Y-66809000D01*
X129889500Y-65497315D01*
X129775319Y-65221659D01*
X129564341Y-65010681D01*
X129288684Y-64896500D01*
X129077000Y-64896500D01*
X128889500Y-65084000D01*
X128389500Y-65084000D01*
X128202000Y-64896500D01*
X127990316Y-64896500D01*
X127714659Y-65010681D01*
X127503681Y-65221659D01*
X127389500Y-65497315D01*
X124695713Y-65497315D01*
X124601758Y-64997989D01*
X124218489Y-64402371D01*
X124193066Y-64385000D01*
X172288109Y-64385000D01*
X171771371Y-64717511D01*
G36*
X134132000Y-109986000D02*
X134152000Y-109986000D01*
X134152000Y-110486000D01*
X134132000Y-110486000D01*
X134132000Y-110506000D01*
X133632000Y-110506000D01*
X133632000Y-110486000D01*
X133612000Y-110486000D01*
X133612000Y-109986000D01*
X133632000Y-109986000D01*
X133632000Y-109966000D01*
X134132000Y-109966000D01*
X134132000Y-109986000D01*
X134132000Y-109986000D01*
G37*
X134132000Y-109986000D02*
X134152000Y-109986000D01*
X134152000Y-110486000D01*
X134132000Y-110486000D01*
X134132000Y-110506000D01*
X133632000Y-110506000D01*
X133632000Y-110486000D01*
X133612000Y-110486000D01*
X133612000Y-109986000D01*
X133632000Y-109986000D01*
X133632000Y-109966000D01*
X134132000Y-109966000D01*
X134132000Y-109986000D01*
G36*
X129532000Y-105612284D02*
X129953210Y-105612284D01*
X129895000Y-105752816D01*
X129895000Y-105964500D01*
X130082500Y-106152000D01*
X131195000Y-106152000D01*
X131195000Y-106132000D01*
X131695000Y-106132000D01*
X131695000Y-106152000D01*
X131715000Y-106152000D01*
X131715000Y-106652000D01*
X131695000Y-106652000D01*
X131695000Y-107464500D01*
X131882500Y-107652000D01*
X132365500Y-107652000D01*
X132365500Y-108810185D01*
X132479681Y-109085841D01*
X132646251Y-109252411D01*
X132632000Y-109286815D01*
X132632000Y-109798500D01*
X132819498Y-109985998D01*
X132632000Y-109985998D01*
X132632000Y-109998784D01*
X129472716Y-106839500D01*
X129895000Y-106839500D01*
X129895000Y-107051184D01*
X130009181Y-107326841D01*
X130220159Y-107537819D01*
X130495815Y-107652000D01*
X131007500Y-107652000D01*
X131195000Y-107464500D01*
X131195000Y-106652000D01*
X130082500Y-106652000D01*
X129895000Y-106839500D01*
X129472716Y-106839500D01*
X128442000Y-105808784D01*
X128442000Y-105612284D01*
X128532000Y-105612284D01*
X129050355Y-105514749D01*
X129532000Y-105612284D01*
X129532000Y-105612284D01*
G37*
X129532000Y-105612284D02*
X129953210Y-105612284D01*
X129895000Y-105752816D01*
X129895000Y-105964500D01*
X130082500Y-106152000D01*
X131195000Y-106152000D01*
X131195000Y-106132000D01*
X131695000Y-106132000D01*
X131695000Y-106152000D01*
X131715000Y-106152000D01*
X131715000Y-106652000D01*
X131695000Y-106652000D01*
X131695000Y-107464500D01*
X131882500Y-107652000D01*
X132365500Y-107652000D01*
X132365500Y-108810185D01*
X132479681Y-109085841D01*
X132646251Y-109252411D01*
X132632000Y-109286815D01*
X132632000Y-109798500D01*
X132819498Y-109985998D01*
X132632000Y-109985998D01*
X132632000Y-109998784D01*
X129472716Y-106839500D01*
X129895000Y-106839500D01*
X129895000Y-107051184D01*
X130009181Y-107326841D01*
X130220159Y-107537819D01*
X130495815Y-107652000D01*
X131007500Y-107652000D01*
X131195000Y-107464500D01*
X131195000Y-106652000D01*
X130082500Y-106652000D01*
X129895000Y-106839500D01*
X129472716Y-106839500D01*
X128442000Y-105808784D01*
X128442000Y-105612284D01*
X128532000Y-105612284D01*
X129050355Y-105514749D01*
X129532000Y-105612284D01*
G36*
X134382000Y-103667500D02*
X134362000Y-103667500D01*
X134362000Y-104480000D01*
X134549500Y-104667500D01*
X134815500Y-104667500D01*
X134815500Y-104727685D01*
X134929681Y-105003341D01*
X135140659Y-105214319D01*
X135416316Y-105328500D01*
X135468548Y-105328500D01*
X135786511Y-105822629D01*
X136076000Y-106020428D01*
X136076000Y-107709294D01*
X135733489Y-107773742D01*
X135137871Y-108157011D01*
X134865500Y-108555639D01*
X134865500Y-107498500D01*
X134678000Y-107311000D01*
X133865500Y-107311000D01*
X133865500Y-107331000D01*
X133365500Y-107331000D01*
X133365500Y-107311000D01*
X133345500Y-107311000D01*
X133345500Y-106811000D01*
X133365500Y-106811000D01*
X133365500Y-106791000D01*
X133865500Y-106791000D01*
X133865500Y-106811000D01*
X134678000Y-106811000D01*
X134865500Y-106623500D01*
X134865500Y-105311815D01*
X134751319Y-105036159D01*
X134540341Y-104825181D01*
X134264684Y-104711000D01*
X134053000Y-104711000D01*
X133865502Y-104898498D01*
X133865502Y-104711000D01*
X133810259Y-104711000D01*
X133888708Y-104596186D01*
X134028372Y-103906505D01*
X134171429Y-103847395D01*
X134382000Y-103637191D01*
X134382000Y-103667500D01*
X134382000Y-103667500D01*
G37*
X134382000Y-103667500D02*
X134362000Y-103667500D01*
X134362000Y-104480000D01*
X134549500Y-104667500D01*
X134815500Y-104667500D01*
X134815500Y-104727685D01*
X134929681Y-105003341D01*
X135140659Y-105214319D01*
X135416316Y-105328500D01*
X135468548Y-105328500D01*
X135786511Y-105822629D01*
X136076000Y-106020428D01*
X136076000Y-107709294D01*
X135733489Y-107773742D01*
X135137871Y-108157011D01*
X134865500Y-108555639D01*
X134865500Y-107498500D01*
X134678000Y-107311000D01*
X133865500Y-107311000D01*
X133865500Y-107331000D01*
X133365500Y-107331000D01*
X133365500Y-107311000D01*
X133345500Y-107311000D01*
X133345500Y-106811000D01*
X133365500Y-106811000D01*
X133365500Y-106791000D01*
X133865500Y-106791000D01*
X133865500Y-106811000D01*
X134678000Y-106811000D01*
X134865500Y-106623500D01*
X134865500Y-105311815D01*
X134751319Y-105036159D01*
X134540341Y-104825181D01*
X134264684Y-104711000D01*
X134053000Y-104711000D01*
X133865502Y-104898498D01*
X133865502Y-104711000D01*
X133810259Y-104711000D01*
X133888708Y-104596186D01*
X134028372Y-103906505D01*
X134171429Y-103847395D01*
X134382000Y-103637191D01*
X134382000Y-103667500D01*
G36*
X151902000Y-91962447D02*
X151916143Y-91948305D01*
X152269696Y-92301858D01*
X152255553Y-92316000D01*
X152269696Y-92330142D01*
X151916143Y-92683696D01*
X151902000Y-92669553D01*
X151887858Y-92683696D01*
X151534305Y-92330143D01*
X151548447Y-92316000D01*
X151534305Y-92301858D01*
X151887858Y-91948304D01*
X151902000Y-91962447D01*
X151902000Y-91962447D01*
G37*
X151902000Y-91962447D02*
X151916143Y-91948305D01*
X152269696Y-92301858D01*
X152255553Y-92316000D01*
X152269696Y-92330142D01*
X151916143Y-92683696D01*
X151902000Y-92669553D01*
X151887858Y-92683696D01*
X151534305Y-92330143D01*
X151548447Y-92316000D01*
X151534305Y-92301858D01*
X151887858Y-91948304D01*
X151902000Y-91962447D01*
M02*
